<?xml version="1.0" encoding="UTF-8"?><svg xmlns="http://www.w3.org/2000/svg" viewBox="0 0 989.98 627.07"><path id="01069" d="m730.4,455.41l6.44-.59-.21.61-.14.6.27,1.63.2.46.17.1h.17l.15.04.93,1.02.15.26.21.46.58,1.67-9.5,1.16-.15-1.82-.32-2.81-1.94.33-2.44.26.69-1.74.11-.1.46-.15.33-.02.31.02.67.16.51.14.88.08.3-.03-.11-.92,1.35-.15-.08-.66"/><path id="01067" d="m729.63,448.44l-.22-2,3.89-.34.1-.18.3-.89.52-.65.1-.06h.11l.33.1.19.16,2.14,5.33-.24,4.9-6.44.59-.76-6.97"/><path id="01061" d="m723.4,458.92l1.57-.14,2.44-.26,1.94-.33.32,2.81.15,1.82-.2.03-10.5,1.21-2.98.3-.58-4.52,7.84-.92"/><path id="01045" d="m723.2,449.18l6.44-.74.76,6.97.08.66-1.35.15.11.92-.3.03-.88-.08-.51-.14-.67-.16-.31-.02-.33.02-.46.15-.11.1-.69,1.74-1.57.14-.99-9.65.79-.09"/><path id="01031" d="m722.4,449.27l.99,9.65-7.84.92-.6-5.67-.23-2.06.74-.08.23-.19-.23-1.83,6.94-.74"/><path id="01039" d="m708.81,452.83l1.93-.24.2,1.68,1.75-1.91.36-.03.08.33.15,1.33.33.3,1.33-.11.6,5.67.58,4.52-3.95.4-5.9.57-.65-4.49-.77-7.59,3.94-.43"/><path id="01097" d="m680.81,463.8l.16.32.43,1.82.59,3.12-.84,1.55-.55,2.17-.04.49.34.81.43.82-.28-.1-.07.05-.91.96-.55,3.37-1.73,3.33-1.15-.37-1.61-.03-.44.07-.21.07-.37.39-1.02-8.36-.74-6-.34-2.65,2-.16,1.97-.62,3.99-.56.94-.51"/><path id="01003" d="m684.61,460.36l3.02.96.83,5.63-.44,3.08.26.44,2,2.18.63.43.11.04.33.06.67.34.88.55.24.39.07.27.03.38-.2,5.02-.27,2.51-1.27.57-2.68.95-2.8.71-.75.12-2.46.15-.1-.13,1.02-.37,2.67-1.7-3.54-7.18-.26-.36-.12-.1-.92-.33-.27-.09-.43-.82-.34-.81.04-.49.55-2.17.84-1.55-.59-3.12-.43-1.82-.16-.32.46-.74,3.34-2.7"/><path id="01053" d="m705.65,460.84l.65,4.49-1.89.14-7.39.66-8.55.81-.83-5.63,1.15.3.19-.08,1.09-.77,1.22-.14,12.96-1.23-.03.15-.02,1,.02.21.07.09.16.14.89.02.31-.16"/><path id="01035" d="m704.88,453.26l.77,7.59-.31.16-.89-.02-.16-.14-.07-.09-.02-.21.02-1,.03-.15-12.96,1.23v-.13s.14-.31.14-.31l2.12-3.01,1.19-1.33,1.39-4.07.06-.42,2-1.81,1.65-.91.44-.22.12-.02.25,2.75,1.04,1.95.51.39,2.68-.23"/><path id="01129" d="m670.21,452.31l7.31-.63.02.97.35,1.26,1,.86.27.16.81.28.72.18.76.7.55,2.23.03.14-.06.75-.19.71-.39.41-.35.46-.27.92.48,1.33-.46.74-.94.51-3.99.56-1.97.62-2,.16-1.7-13.34"/><path id="01023" d="m669.92,438.22l9.48-.83-.9.13-.5.31-.26.29-1.47,5.48.09.85.1.23.14.16.16.09.5.06.27,6.7-7.31.63-.47-4.51.13-7.71.05-1.88"/><path id="01025" d="m685.11,444.28l3.57,3.43-.3.37.3,2.62-1,.15.29,3.08.25,2.25-.14.7-.41.55-.23.14-.26-.04-.41-.32-.24.02-.22.08-1.8,1.53-.33.83v.11l.05.24.07.14.32.21-3.34,2.7-.48-1.33.27-.92.35-.46.39-.41.19-.71.06-.75-.03-.14-.55-2.23-.76-.7-.72-.18-.81-.28-.27-.16-1-.86-.35-1.26-.02-.97-.27-6.7,7.86-.7"/><path id="01099" d="m700.2,446.61l.19,1.78-.12.02-.44.22-1.65.91-2,1.81-.06.42-1.39,4.07-1.19,1.33-2.12,3.01-.13.31v.13s-1.23.14-1.23.14l-1.09.77-.19.08-1.15-.3-3.02-.96-.32-.21-.07-.14-.05-.24v-.11l.33-.83,1.8-1.53.22-.08.24-.02.41.32.26.04.23-.14.41-.55.14-.7-.25-2.25-.29-3.08,1-.15-.3-2.62.3-.37,5.2-.53,2.83-.21,3.49-.36"/><path id="01131" d="m688.34,437.66l.52-.14.12.07,2.4,1.68,3.1,2.85,5.25-.51.92-.12.22,2-1,.15.33,2.97-3.49.36-2.83.21-5.2.53-3.57-3.43.8-.4-.24-2.91,1.93-.22-.23-2.77.16-.28.17-.06.34-.02.3.04"/><path id="01013" d="m700.87,443.5l7.92-.84.62,5.66.09,1.42-.99.1.3,2.98-3.94.43-2.68.23-.51-.39-1.04-1.95-.25-2.75-.19-1.78-.33-2.97,1-.15"/><path id="01041" d="m713.76,442.11l.37,3.22.91-.13.37,3.8-.6,1.08.65-.07.23,1.83-.23.19-.74.08.23,2.06-1.33.11-.33-.3-.15-1.33-.08-.33-.36.03-1.75,1.91-.2-1.68-1.93.24-.3-2.98.99-.1-.09-1.42-.62-5.66.61-2.06,1.98-.22.24,1.99,2.14-.26"/><path id="01109" d="m717.31,439.78l.8-.33.85.07.36.13.93,1.76,1.2-.18.26,2.04,2.59-.28-1.1,6.2-.79.09-6.94.74-.65.07.6-1.08-.37-3.8-.91.13-.37-3.22,3.8-.52-.24-1.8"/><path id="01011" d="m727.73,434.39l.68,1.97-.31.2.17,2.01.13.84-1.58.53-1.52.57-.88,1.73-.11.56.02.18-2.59.28-.26-2.04-1.2.18-.93-1.76-.36-.13-.85-.07-.8.33-.67-5.06,1.62-.22,1.18.78.16.06,8.12-.95"/><path id="01087" d="m721.77,426.67l.04.32,4.17,1.51.97-.11.31,1.99.46,4.01-8.12.95-.16-.06-1.18-.78-2.36-3.12,2.46-1.95,1.7-.21-.17-2.28,1.87-.26"/><path id="01085" d="m700.85,434.74l.53-1.2.06-.11.85-.15,2.31-.27,2.38,1.04,2.43,6.56-.61,2.06-7.92.84-.22-2-.92.12,1.12-6.89"/><path id="01101" d="m708.48,432.38l2.65-2.4.22.03.28.1.15.1.92.99-.09.15,1.53.29,1.34.11.45-.37,2.36,3.12-1.62.22.67,5.06.24,1.8-3.8.52-2.14.26-.24-1.99-1.98.23-2.43-6.56,1.5-1.67"/><path id="01051" d="m715.41,423.66l2.37-.24.06.02.04.31-.18.67.55,4.75.06.18.06.07-2.46,1.95-.45.37-1.34-.11-1.53-.29.09-.15-.92-.99-.15-.1-.28-.1-.22-.03-2.65,2.4-.73-6.82.58-1.15,7.09-.75"/><path id="01001" d="m707.74,425.56l.73,6.82-1.5,1.67-2.38-1.04-2.31.27-.85.15-.06.11-.53,1.2-2.67-7.23,1.93-.1,1.98-.22-.11-1.01,5.77-.61"/><path id="01047" d="m696.09,426.19l.16,1.44,1.92-.13,2.67,7.23-1.12,6.89-5.25.51-3.1-2.85-2.4-1.68-.12-.07-.52.14-.1-.98.99-.09-.39-4.01,3.33-.33,2.63-.35.16-.33.52-1.82.3-1.39.33-2.16"/><path id="01091" d="m681.25,432.28l1.59-.14.1,1.01,3.94-.38.38,3.99.97-.08.1.98-.3-.04-.34.02-.17.06-.16.28.23,2.77-1.93.22.24,2.91-.8.4-7.86.7-.5-.06-.16-.09-.14-.16-.1-.23-.09-.85,1.47-5.48.26-.29.5-.31.9-.13-.85-.71-1.48-.56-.04-.14.03-.92.1-.29,2.14-2.18.16-.11.97-.3.81.11"/><path id="01119" d="m670.22,422.4l3.22-.38-.21,1.96.39,1.68,2.32,4.86.46.56.06.02.82-.24.64-.3.15-.14.37-.26.33-.16h.17l.2.12,1.32,2.04-.97.3-.16.11-2.14,2.18-.1.29-.03.92.04.14,1.48.56.85.71-9.48.83.14-6.25.14-8.13.03-1.44"/><path id="01105" d="m688.05,423.57l1.95-.19.1,1.01,1.33-.13,4.41-.54.26,2.47-.33,2.16-.3,1.39-.52,1.82-.16.33-2.63.35-3.33.33.39,4.01-.99.09-.97.09-.38-4-.38-3.98.97-.12-.21-2.87.98-.13-.2-2.09"/><path id="01021" d="m705.03,418.57l1.11,3.66,2.19,2.19-.58,1.15-5.77.61.11,1.01-1.98.22-1.93.1-1.92.13-.16-1.44-.26-2.47,2.74-.24-.33-3.39-.24-1.51-.06-.51,3.08-.23,2.11-.11.33.44.62.39.94.02"/><path id="01037" d="m711.38,416.21l3.14-.36.89,7.82-7.09.75-2.19-2.19-1.11-3.66.3-1.95,6.04-.41"/><path id="01123" d="m721.3,414.86l1.15-.14.96,8.69-1.96.25.33,3-1.87.26.17,2.28-1.7.21-.06-.07-.06-.18-.55-4.75.18-.67-.04-.31-.06-.02-2.37.24-.89-7.82,6.78-.98"/><path id="01027" d="m716.56,406.27l-.63.58v.17s2.01-.21,2.01-.21l.29-.36-.03-.34,2.32-.2.78,8.95-6.78.98-3.14.37-.18-2.34,1.67-.21-.11-2.27,2.07-.2-.08-2.01.75-.33.06-2.48,1.01-.11"/><path id="01121" d="m710.55,402.72l1.81-.09.54.6.18.86.55.45,3.8-.38.05.67-.91,1.43-1.01.11-.06,2.48-.75.33.08,2.01-2.07.2.11,2.27-1.67.21.18,2.34-6.04.41-.08-1.47,2.18-3.21.18-1.39-.27-.39-.53-.38,2.03-2.5.79-1.71-.09-.11-.19-.43v-.12s.88-2.03.88-2.03l.31-.18"/><path id="01117" d="m703.83,406.5l2.98,3.29.53.38.27.39-.18,1.39-2.18,3.21.08,1.47-.3,1.95-.94-.02-.62-.39-.33-.44-2.11.11-3.08.23.06.51-1.68-.65-.6-1.93-.85-.18-.08-1.49.9-.32.55-.3.39-.29.72-1.25,3.65-3.54,1.33-.15,1.53-1.48-.04-.5"/><path id="01007" d="m694.05,414.39l.75-.07.08,1.49.85.18.6,1.93,1.68.65.24,1.51.33,3.39-2.74.24-4.41.54-1.33.13-.1-1.01-1.95.19-.28-2.96,1.98-.24-.06-2.03.48-.95,1.51-.17-.06-1.44.82-.91.16-.1,1.25-.37.2-.02"/><path id="01065" d="m682.14,421.03l5.62-.42.28,2.96.2,2.09-.98.13.21,2.87-.97.12.38,3.98-3.94.38-.1-1.01-1.59.14,1.02-2.15-.95-1.13-.75-2.24-.35-1.75-.03-.49,1.95-3.47"/><path id="01063" d="m679.52,417.86l.28,3.35,2.34-.18-1.95,3.47.03.49.35,1.75.75,2.24.95,1.13-1.02,2.15-.81-.11-1.32-2.04-.2-.12h-.17l-.33.16-.37.26-.15.14-.64.3-.82.24-.06-.02-.46-.56-2.32-4.86-.39-1.68.21-1.96-.02-.1,1.66-1.12,1.45-.81.64-.23,2.35-1.9"/><path id="01107" d="m678.73,409.33l.8,8.54-2.35,1.9-.64.23-1.45.81-1.66,1.12.02.1-3.22.38.14-6.9.11-5.7,6.26-.29,2.01-.19"/><path id="01125" d="m686.49,406.84l.34-.02,1.68.18.16,1.68.98-.06-.67.59.34,1.12,1.29,1.4.77.67,1.76,1.05.91.93-.2.02-1.25.37-.16.1-.82.91.06,1.44-1.51.17-.48.95.06,2.03-1.98.24-5.62.42-2.34.18-.28-3.35-.8-8.54,1.91-.06,1.4-.16-.1-1.18.65-.05-.06-.86,3.96-.18"/><path id="01073" d="m694.94,401.11l1.25-.77,2.37-.17,2.16,1.26,1.44.14.67-.06.43.97.14,1.5-.12.51-.16.02-.13.34.12,1.34.19.17.52.14.04.5-1.53,1.48-1.33.15-3.65,3.54-.72,1.25-.39.29-.55.3-.9.32-.75.07-.91-.93-1.76-1.05-.77-.67-1.29-1.4-.34-1.12.67-.59.43-.24.55-.4,2.09-2.3.4-.71.34-.7,1.21-2.47.27-.69"/><path id="01127" d="m690.83,397.37l.66,2.25,3.17.52.28.97-.27.69-1.21,2.47-.34.7-.4.71-2.09,2.31-.55.4-.43.24-.98.06-.16-1.68-1.68-.18-.34.02-.19-2-1.99.11-.42-4.03-1.99.07-.08-1-.18-2,9.19-.63"/><path id="01075" d="m670.75,397.63l4.17-.21.06.7.67-.06.32,3.75.57,5.58.18,2.12-6.26.29.1-4.89.19-7.28"/><path id="01057" d="m675.84,400.41l5.99-.41.08,1,1.99-.07.42,4.03,1.99-.11.19,2-3.96.18.06.86-.65.05.1,1.18-1.4.16-1.91.06-2.01.19-.18-2.12-.57-5.58-.12-1.4"/><path id="01059" d="m671.02,385.46l11.47-.65.54,6.05-1.99.12-1.59.07-4.16.29-4.41.18.07-3.3.06-2.76"/><path id="01093" d="m670.88,391.52l4.41-.18,4.16-.29,1.59-.07.6,7.02.18,2-5.99.41-.2-2.36-.67.06-.06-.7-4.17.21.02-.66.12-5.45"/><path id="01133" d="m683.04,390.86l7.91-.6-.11,7.11-9.19.63-.6-7.02,1.99-.12"/><path id="01043" d="m690.91,389.92l9.95-.75,2.53.8-.59.04-.56.19-.08.06-1.06,2.66-.1.18-2.52,3.23-1.7,1.5-1.4,1.39-.71.93-3.17-.52-.66-2.25.11-7.11-.03-.34"/><path id="01009" d="m703.39,389.98l3.18,3.4-.3.65-.58,3.14.84-.09-.68,1.77-.49.63-.53.57h-.15l-.17-.1-2.43.78.08.85-1.44-.14-2.16-1.26-2.37.17-1.25.77-.28-.97.71-.93,1.4-1.39,1.7-1.5,2.52-3.23.1-.18,1.06-2.66.08-.06.56-.19.59-.04"/><path id="01115" d="m706.53,397.07l-.02-.08.12-.25.43-.7.26-.19,1.49-.14.18.1.14.25.42.97.5.48.24.15.39-.16.99,1.32.24.22.06.15.03,1.47-1.45,1.31-.07.23.06.53-.31.18-.88,2.03v.12s.2.43.2.43l.09.11-.79,1.71-2.03,2.5-2.98-3.29-.52-.14-.19-.17-.12-1.34.13-.34.16-.02.12-.51-.14-1.5-.43-.97-.67.06-.08-.85,2.43-.78.17.1h.15l.53-.57.49-.63.68-1.77"/><path id="01015" d="m717.53,395.26l4,.18v1.7s-1.85.03-1.85.03l.24,2.36.3,2.87-.27.52-1.5,1.82-.98.1-.05-.67-3.8.38-.55-.45-.18-.86-.54-.6-1.81.09-.06-.53.07-.23,1.45-1.31-.03-1.47-.06-.15-.24-.22.31-.03.5-.28.47-.36,1.04-1.08.56-.91.32-.2,1.13-.11,1.56.17-.04-.76"/><path id="01055" d="m710.05,390.65l4.93-.51.27,2.05.84.07,1.43,2.51.02.48.04.76-1.56-.17-1.13.11-.32.2-.56.91-1.04,1.08-.47.36-.5.28-.31.03-.99-1.32-.39.16-.24-.15-.5-.48-.42-.97-.14-.25-.18-.1-1.49.14-.26.19-.43.7-.12.25.02.08-.84.09.58-3.13.3-.65,3.48-2.72"/><path id="01095" d="m704.96,381.9l3.34-.33.23,1.33,1.76,1.32-.24,6.43-3.48,2.72-3.18-3.4-2.53-.8.04-5.61.41.96.65.4.63.11.65-.22,1.86-.95.27-.68.15-.88-.11-.3-.25-.12-.2.02"/><path id="01103" d="m696.39,383.89l4.51-.33-.04,5.61-9.95.75-.72-8.58,6.2,2.55"/><path id="01079" d="m683.94,379.27l3.19.67,3.06,1.41.72,8.58.03.34-7.91.6-.54-6.05,1.33-2.06.11-3.48"/><path id="01033" d="m671.21,378.24l.71-.34.32-.08,1.31.44.42.31.28.38.13.24.15.52.22.34,1.49,1.17.15.09.56.17.85-.15.49-.27.1-.1.32-.55,2.18-1.29.74-.31.4-.09.14.02,1.75.57-.11,3.48-1.33,2.06-11.47.65.19-7.23"/><path id="01077" d="m687.32,374.33l.23-.02-.42,5.62-3.19-.67-1.75-.57-.14-.02-.4.09-.74.31-2.18,1.29-.32.55-.1.1-.49.27-.85.15-.56-.17-.15-.09-1.49-1.17-.22-.34-.15-.52-.13-.24-.28-.38-.42-.31-1.31-.44-.32.08-.71.33-2.11-2.23,4-.58,7.07-.55,7.15-.55"/><path id="01083" d="m694.54,373.83l.98-.09.87,10.16-6.2-2.55-3.06-1.41.42-5.62,6.99-.49"/><path id="01089" d="m704.33,372.87l.4,1.03-.49,2.59-.17,2.36.22,2.36.68.69.2-.02.25.12.11.3-.15.88-.27.68-1.86.95-.65.22-.63-.11-.65-.4-.41-.96-4.51.33-.87-10.16,8.67-.85h.14"/><path id="01071" d="m717.49,371.62l.72,2.81-1.17,2.58-2.02,3.26-3.21,3.41-.53.35-.43.17-.56.02-1.76-1.32-.23-1.33-3.34.33-.68-.69-.22-2.36.17-2.36.49-2.59-.4-1.03,8.33-.81,4.83-.43"/><path id="01049" d="m718.21,374.43l1.51,5.34.22.79.41,1.45-.11-.04-.07.05-.89,1.04-.11,1.33-.59,1.26-2.44,2.98-.65.08-.45.43-.13.25.08.74-4.93.51.24-6.43.56-.02.43-.17.53-.35,3.21-3.41,2.02-3.26,1.17-2.58"/><path id="01019" d="m720.36,382.02l1.58,5.35,1.29,4.64.73,2.63-2.42.8-4-.18-.02-.48-1.43-2.51-.84-.07-.27-2.05-.08-.74.13-.25.45-.43.65-.08,2.44-2.98.59-1.26.11-1.33.89-1.04.07-.05.11.04"/><path id="01029" d="m723.95,394.65l.39,1.4,1.56,5.61,1.08,3.83-6.46.42-2.32.2.03.34-.29.36-1.99.21v-.17s.61-.58.61-.58l.91-1.43.98-.1,1.5-1.82.27-.52-.3-2.87-.24-2.36,1.84-.03v-1.7s2.42-.8,2.42-.8"/><path id="01111" d="m720.52,405.91l6.46-.42.35,1.24,1.86,6.73.14.48-6.88.79-1.15.14-.78-8.95"/><path id="01017" d="m729.33,413.94l1.54,5.34,1.23,2.73-2.13.28-.67.41-5.9.71-.96-8.69,6.88-.79"/><path id="01081" d="m723.41,423.41l5.9-.71.67-.41,2.13-.28,1.39,3.06,1.84,2.05-1.16.28.27,1-3.56.62-1.72.35.11.75-1.99.25-.31-1.99-.97.11-4.17-1.51-.04-.32-.33-3,1.96-.25"/><path id="01113" d="m735.87,430.3l-.22.82.04.19.12.14,1.28.34.47.4.19.38-.16.72-.05.07-2.09,4.13-2.49.32-.13-.06-.8-.84-.07-.21-.62-.72-2.94.37-.68-1.97-.46-4.01,1.99-.25-.11-.75,1.72-.35,3.56-.62-.27-1,1.16-.28.53,3.17"/><path id="01005" d="m735.46,437.49l.05,1.72-.91,4.94.34.45-.19-.16-.33-.1h-.11l-.1.06-.52.65-.3.89-.1.18-3.89.34.22,2-6.44.74,1.1-6.2-.02-.18.11-.56.88-1.73,1.52-.57,1.58-.53-.13-.84-.17-2.01.31-.2,2.94-.37.62.72.07.21.8.84.13.06,2.49-.32"/></svg>