<?xml version="1.0" encoding="UTF-8"?><svg xmlns="http://www.w3.org/2000/svg" viewBox="0 0 989.98 627.07"><g><path id="02185" d="m111.75,462.52l1.57-1.57,1.18-.78.39.78-.78.39h.78l3.93-1.18,3.54-4.32,3.14,1.57v.79l-1.18,1.17v1.18l1.18-.39.79-1.96.78-.79,1.18,1.18.39,1.57,1.18.39.39-.79,1.96-.4h3.14l.39.4-.78,1.18v.39l2.36.39-.4,1.18h1.57l1.96-1.18,4.32-.39,2.75.79h1.18l1.17.39.4.39h1.57l1.96-.39h2.36l2.75.79.78-.4,1.57-1.18.39-.39.79-.78,2.75.39,6.28,1.96,1.96,6.29,1.18,3.93-16.1,3.93.79,4.32-3.14.79-8.25,1.58h-.4l-18.45,1.96h-4.32v-.79h-3.14v-.79h-3.14l-3.14.39h-2.36v-.78h-1.18v.39h-3.53l-.79-.39h-.39v.39h-1.57l-.4-.78h-1.96v.78h-.79l-5.5-.39v1.57h-2.75l-2.36-1.18-1.18-1.57.78-2.35.39-2.75,2.75.39,3.54-.39,1.17-.39,2.36-2.75,1.18-3.53,2.36-3.53,1.57-1.57,1.18.4,1.57-.79,2.36-2.75"/><path id="02188" d="m132.56,497.09h-.78l-1.57.78.39.79h-2.36v2.36l-1.57.39v-.79l-.78-.78h-1.57v1.57h-1.57v-1.57h-3.14v3.53h-3.93v1.57h-2.36v3.93h-.79v.79h-.79l-13.75-.39v-1.57h-.4l-.39-.39v-1.18l-.79-.39v-3.14l-.4-3.93h1.57l.79.39-.79,2.75.4,1.57,7.07.78,1.96-1.96h1.18l-.4-.79-1.18-.79-1.18-.78-1.58-1.97-.78-.39-.39-1.18.39-.39h.78l1.18,2.75,1.57,1.57.79-.39-.79-.39-1.18-1.57.78-2.36.39.39v-.39l-1.18-.79-1.96.39h-1.57l-2.75-1.18-1.17-4.32-3.93-4.32h2.75v-1.57l5.5.39h.79v-.78h1.96l.4.78h1.57v-.39h.39l.79.39h3.53v-.39h1.18v.78h2.36l3.14-.39h3.14v.79h3.14v.79h3.14v1.96h.78v.79l1.57,1.57v2.35h1.57l.78.79.4,2.36-.4,1.57"/><path id="02198" d="m236.25,561.11l-.39.79,1.18.79.39.39.78.39.4.39,1.18,2.36.79-.39v-.39l-1.44-2.58,1.13-1.06-1.27-.69h-2.75Zm1.96,2.36h-1.17l-1.18-.79-.79.39-.39,1.18.79,1.18,1.96,1.18.78.79h-.78v1.18l.78,1.96.79.39-.39-1.96.78.79v-2.36h-.78l-.4-1.18v-.79l.79-.39-.79-1.57h0Zm18.85-1.96l-.39.79.05,1.49,1.52.87v-2.36l-1.18-.79h0Zm-14.93,4.71l-1.96.79v.39l.79,1.96-.39,1.18.39.39.79-.39.39-1.18,1.18,1.57-.4.39h-.79l-.39.39,1.96.79h1.18l1.18,1.18-1.57,1.57.39.79,4.71,3.14h1.18l-.79-1.96-.78-.39-.79.79-1.96-2.75,3.54,1.18,2.36,1.96,1.18-.39v-1.18l-1.96-3.54-1.57-.78-2.36-2.75-5.5-3.14h0Zm-6.67,3.14l.39.78v-.78h-.39Zm5.11,1.57l-.39.39.39.39v-.79Zm-1.96.79l-.4.39.79.39.39-.79h-.78,0Zm14.93,0l.39,1.57.39.79,1.18-.79-.39-1.18-1.57-.39h0Zm-9.43,1.18l-1.57.79v1.18l1.57.39.79-1.96-.79-.4Z"/><path id="02130" d="m256.29,573.29l-.79,1.18h1.18v-.79l-.39-.39Zm.39-11h-1.18l-2.36-1.18-1.57.39,1.18.79-.39.78-1.18,1.57-1.18.78-.39.79v1.57l.39.39v1.57l-1.18-.39h-.39l1.18,1.18h1.18v-2.75l-.79-.39.79-.39,1.18,2.36-.39.78v.79l.44.12.35,1.05,1.18,1.18-.39-1.57-.88-.59,2.06.59,1.57-.39.39-1.18-.79-2.35-3.14-2.75,2.75,1.96,1.57,2.75-.39,1.57,1.96,2.75.78.39,1.18-.39.79-2.75v-3.14l-2.74-3.53-1.52-.87-.05-1.49Z"/><path id="02275" d="m245.11,559.68l-.3,1.55-.86.35.95.32.79,2.75-.79,1.57v.79l1.18.79,1.96.39.39-.79-.39-.79.39-1.57.79,3.14-.39,1.18,1.18.39v-1.57l-.39-.39v-1.57l.39-.79,1.18-.78,1.18-1.57.39-.78-1.18-.79-3.14-.79-.79.39-1.18-1.18-1.36-.26h0Zm-.99,4.58l-1.18.79v1.18h1.18l.79-.39-.79-1.57Z"/><path id="02195" d="m239.21,554.11l-3.41.34-.33.77v.79l1.31,2.38.19,1.4.85.15h1.18l1.97-.39.39.79,1.18.79,1.41.47.86-.35.3-1.55-.16-1.34-1.62.02v-1.18l-1.18-1.18-1.55-1.26-.75.24-.59-.16-.04-.71h0Zm.97,6.21l-1.18.79,1.27.69-1.13,1.06,1.44,2.58h1.18l.39-.78-.39-.79-1.57-.79v-.78l1.96,1.18v.79h1.18l1.18-1.57-4.32-2.36h0Z"/><path id="02220" d="m226.04,557.57l1.96.79,1.57-.79,1.18,1.97v.39l-1.18.39-2.75-1.18-.39.39,1.18,1.57-.39,1.18h-.79l-3.53-3.14,1.57-.39v-1.57l1.57.39m9.82,12.57v.4l-.79-.4-1.96-1.96v-1.18l-.78.79-.39-.79-1.18-.39-.78-2.35-.79-.79v-.78l-.78.39-1.18-.78.79-2.36,1.57.79,1.57-.4.39.79-.79.39h.79l2.75,4.32,1.57,3.53h-.39l.39.78m-9.04-7.46l.39-.39,1.57,1.57v1.18l-.78.39-1.18-2.75"/><path id="02100" d="m224.86,547.36l-.39.39-1.18-1.96-1.18-.79v.39l1.96,3.14,1.57,2.36,1.96,3.14h-1.57l-1.18-1.18-.39-.39.79-.79-.79-.79-1.96-.39.39-1.96-1.57-1.18h-3.54v-3.14l1.57-1.96,3.14,2.36,1.18-.4.4.4h1.57l.78.78.39-.39.79,1.18h.39l-3.14,1.18"/><path id="02110" d="m235.08,554.04v.79h-.78l-2.75-2.35-1.96.78-3.15-1.96-1.96-3.54.39-.39,3.14-1.18.78.78,1.18.39,3.93,1.57v.78l1.96,1.18-.79,2.75v.39m-5.11.39h-.79l-.39-1.18.39.39.4-.39,1.96-.39-1.18.78-.39.39v.39"/><path id="02230" d="m222.51,544.62l-3.14-2.36.79-1.18,1.57.39,1.18.79.78,1.96-1.18.4"/><path id="02105" d="m217.79,547.36v.79l-1.18.39-2.36,3.54-1.57,1.57,3.93,1.57,1.18.39h.79l1.57.79,2.36-2.36-1.57-2.36-2.36-.79h-1.57v-.39l3.54.79h.39v-.79l1.18,1.18.78,2.36,1.96-1.18-.39-.39.79-.79-.79-.79-1.96-.39.39-1.96-1.57-1.18h-3.54Zm9.43,4.71v.39l1.57,1.96,1.57,3.14,1.96,1.57v2.36l1.18,1.57,1.18-1.96v-1.18l.79-1.18-.4-.79-2.75-2.75.39-.39,1.18,1.57h.79l-3.14-3.14v-.39l-1.18.78-.39.39v.39h-.79l-.39-1.18-1.18-1.18h-.39,0Zm-3.14,2.36l-.79.79-1.57.39-.39,1.96.39,1.18,1.18.39,1.57-.39v-1.57l1.57.39,1.96.39.78-.39.39-.39-.39-1.18-.39-.79-4.32-.79h0Zm16.51.31l-4.73-3.84-.79,2.75v.39l.4,1.18.33-.77,3.41-.34.04.71.59.16.75-.24Z"/><path id="02282" d="m195.41,544.62h1.96l.4-.79,2.36.39.79-1.57,2.36-.79.39,2.36.78.4,1.96.39.78,1.18,5.89,3.14,1.18,2.75-1.57,1.57v-.78l-1.18-.79-8.64-1.97-.39-.39v-.78h.78v-.79l-1.18-1.97-.39,1.18-1.57,1.57-3.54.39-2.35-1.18-5.1.39-5.5,1.96,1.97-5.1,5.1-1.57h.78v.79l2.75-.79h.79l.39.79"/><path id="02016" d="m62.26,580.36l-.78.79-.39-.4v-.39h1.18m1.96,6.28h.39l-.39.39-.79-.79.79.39m13.35,25.14l1.57,1.57-.39.79-3.14,2.35-1.18.39h-1.18l-3.14,1.18-1.18-.79,4.32-1.57.39-3.14.39-.39,2.36-.39v.78l.39.39.39-.39.39-.78m-13.74,6.28l2.36-1.57.39-.79.79-.39,1.18-.39,1.18.39-.79,1.57-1.57.39-1.96,1.96-2.36,1.18-1.18.39,1.96-1.97v-.78m-56.56,0l.4.39-.4.39-.39-.39.39-.39m3.93.39h.78l.79,1.57-1.18.78-.79-.39-.39-1.96h.79m47.53,0v.78l-.39-.39.39-.39m-1.96.78h.39l-.39.39-.4-.39h.4m-24.36,1.18l-.39-.39,1.57-.79.78,1.18-1.18,1.57h-2.36l-4.32-.79,3.93.4,1.96-.79.39-.39h-.39m-10.21-.79h.78v.79l-.39.39-.79-.39v-.79h.39m-5.89,0l.79.39-1.18,1.57h-.78l-1.18-.79,1.96-.39.39-.79m42.03,0l.39.39-.39.39-1.57-.39.39-.39h1.18m-38.49,1.57l1.18.4-.39.78-3.93.39,1.96-2.75h1.18v.39h-.39l-.39.78h.79m36.13-.78h.39v.39h-.39v-.39Zm-2.75,0l.4.39-.4.79h-1.17v-.79l1.17-.39m-29.07.78l.39.4h-.39v-.4m-2.75.4h1.18l.39.39-1.18.39-.79-.39.39-.39m-16.1,0v.39l-.4.39.4-.78m44.38,0l.39.39-.39.39-.39-.39.39-.39m-6.68,0l.39.39v.39h-1.57l.39-.39.78-.39m-7.07.78l.79.39,2.75.79h-3.14l-1.57-.39-1.18-1.18,1.18.39h1.17m-31.42-.39v.78h-.39l.39-.78"/><path id="02013" d="m113.71,598.03v.78l-.39-.78v-.79l-.79-.39-.39.79h-.78l-.4.79-1.96,1.57-3.53,1.18-1.58-.39.79-1.97h-1.18l-1.97,4.71-1.57.79-1.18-.39v-1.96l-.78-.39-.4.78.4.79.39,1.57-1.57.39-.79-1.97-1.18.39.79,1.57v2.35l-1.18-.39-1.57.39h-2.75l-.79.4-1.18,1.18h-1.96l-.39-1.18v-.79l1.18-.39.78-1.18,4.32-1.96h1.18l.39,1.96h.79v-2.36l2.36-.79,3.54-3.93,2.36-1.97,2.36-.79,1.18.39,1.18.39h-.39v.79l.39.79.79-.4.39-.79v-1.18l1.18-2.75,2.36-1.96,4.71-3.15.39.4v.39l-.78.79h-1.18v.79h-1.57v.79h-1.57v1.57h.39v3.14l-.39.79h1.57v1.58m-3.53,2.35h.78v.79h-.78l-.39-.39.39-.4m-1.18,1.18h.79v.78l-.79,1.18-1.57-.39-.39-1.57.39-.39h.79l.78.39m3.14.39l.39,1.57-1.96,2.36v-2.36l.39-.39.79.39.39-1.57m1.96.39v1.97h-.78l.78-1.97m-11,1.18l.39.39h-.79l-.79-.79.39-.39.79.78m11.78.39l.4.79-.79.39v-1.18h.39m-14.92.79v.78l-.39.39-.79-.78,1.18-.39m15.32.39l.39.39-.39.39v-.78m-18.46,3.93l1.18.39v.4h-1.18l-.39-.4.39-.39m-14.53.79h.39v.78l-.78.79-.39-1.18.39-.39h.39m-1.18,1.18l-.39.78h-1.18l-.39-.78.79-.79,1.18.79m3.93.39h.39v.39h-1.57l1.18-.39m-1.57.39l.39.39-1.18-.39h.79"/><path id="02150" d="m128.64,582.71l.78-1.17,1.18-.79.39-.39.39.39.39-.39.78-1.18,1.57-1.18-.39-3.14,1.57-.79,1.96-.78,1.18-.79v-1.96h1.18l1.17-.4-.39-.78h1.96l-.39-1.18h.79l-.4,1.18-.78.78-.79.4-.78,1.18-.39,2.75-.79,1.18-1.18.78-.79-.39-1.18.39-.78.79-.79,1.96h-.78l-1.18,1.57-.78.4-.39-.4v.79l-2.35,1.57v.39l.78-.39v1.57h-1.96v-.79l.78-.39.39-.79m16.89-7.07l-.39.39-1.96-.78,1.57-2.36,1.58-2.75,1.17-.39-.39,1.57v.78l1.57-.39.78.39.39,1.18-.39.78-3.14,1.18-1.18-.79-.39.39.79.78m-4.71,4.71l.39,1.18.78.39-.78-.78-.39-3.15.79-.78,2.36-.39.78-.39h1.18l-.4,1.18.4.39,1.57-1.57.79-.39-.39,1.57.79,1.18h.78l-.78,1.57-1.97,1.96-1.96,2.36-.39.39-.39-.79.39-.79h-.39l-1.17,2.75-1.18,1.18-1.18.39-.78-1.18-1.18-1.96-.39-1.18-.78-.79.39-1.96,1.18-1.18,1.96-.39v1.18m-.39,8.64l1.57.39-.39.39h-1.57l-.39-.39.78-.39m-1.57,0l.79.39-1.97,1.57v-.79l1.18-1.18m-5.11,6.67l.79.39v1.57l-1.57-.39v-.79l.78-.79"/><path id="02060" d="m125.89,568.96h3.14v2.36l-4.32.39.79-1.18.39-1.57"/><path id="02070" d="m125.1,568.96v.39l-4.71,2.36-.79-.39-1.57-2.36-.39.39-.39,1.57.79,1.96-1.18.79h-.78l-2.36-4.32-.79-.39-.39,1.18h-.39l-1.96-1.57.39-.4-.39-.39-3.14,1.97v-1.57h.78l.79-2.36.78-.78.39-2.36.79-1.57h1.18v-1.57l1.18-2.35.79-1.57h.79l1.96-4.71h4.71v.79h.79l.78-.79v-1.18h1.57v.78h5.1v.79l.4,2.75.39,7.46h-.79v1.18h-1.57l-.79.78-.39,1.57h-1.18l-1.18.78.79,3.14m-19.64,1.57v-.79h1.18l-1.18.79"/><path id="02164" d="m128.64,582.71l-.39.79-.78.39v.79h1.96l-4.32,3.14-.79-.39-.39,1.57-2.36.78v.4h.39l.39.79h-2.36l-.78,1.18,1.57,1.57-1.57,1.96-5.11,1.18v1.18l-.39.78v-2.36h-1.57l.39-.79v-3.14h-.39v-1.57h1.57v-.79h1.57v-.79h1.18l.78-.79v-.39h1.18l-.39-1.57.78-1.57,3.93-3.93.79-7.47,1.18-1.96,4.32-.39v-2.36h-3.14l-.39-.39-.39.78v-.39l-.79-3.14,1.18-.78h1.18l.39-1.57.79-.78h1.57v-1.18h.79l-.39-7.46-.4-2.75v-.79l6.28-.39,2.36-.39h2.36l.79,3.93h-.79l.39,3.14h-.78l.39.78v2.36h-.39v.79h-.78v.79l-.39.78-.39.39-.79.78-.39,1.57h-1.18v1.57l.39.39v.79l.39,2.75h1.57v1.96l-1.18.79-1.96.78-1.57.79.39,3.14-1.57,1.18-.78,1.18-.39.39-.39-.39-.39.39-1.18.79-.78,1.17m-2.75,7.47l.78.39h-1.57l.39-.39h.39"/><path id="02122" d="m137.28,565.04l.39-1.57.79-.78.39-.39.39-.78v-.79h.78v-.79h.39v-2.36l-.39-.78h.78l-.39-3.14h.79l-.79-3.93v-.39l-.39-3.53v-.79h.39l1.57-.39h1.57l.79-.4,4.72-.39v1.57h1.18l.79.39-.79.79-1.97,1.57-1.57,2.75-1.57,4.32v1.96l-1.96,3.14-1.96,1.18-1.18,1.57-1.18.79-.39,2.36.39.79.39-.39,1.57-.39,1.97,1.57v.39h-.79l.39,1.18h-1.96l.39.78-1.17.4h-2.75l-.39-2.75v-.79l-.39-.39v-1.57h1.18m11.39-2.36l2.74-1.96.79-1.57h-.79l-1.17,1.18-.79-.39-.78-.79.39-2.36.78-1.96.4-1.57v-1.57l-.79-1.57,1.57-.79,2.35-2.36.79.79h1.18l1.18-.79,1.18.39h1.57l.39.39,1.18.79h.78v.39l.39,1.57v.39l.39.39.39,3.53v.39l-3.14.39-1.57.78v2.36l-2.75,2.35-.39-.39-.78.79-.79,1.96-3.54,1.18-1.17-.79v-1.18"/><path id="02020" d="m156.52,546.97l-1.96-1.57.39-.39v-.39h.39l.79-1.57.39-.39h.4l.39-.4h.39l.4.4,3.14-.79v1.18l.39,1.18v1.18l.39.39v1.57h-1.18v.79l.39.39h-.39l-1.18-.79-.39-.39h-1.57l-1.18-.39"/><path id="02261" d="m162.02,546.58v-.79l-.39-.39v-1.18l-.39-1.18v-1.18l3.14-.39,2.36-.39-.39-.4h.39l.78-.39-.78-4.32v-.39l-.79-1.97,1.96-.39.39-.39-.39-1.18v-.39l-1.18-5.11-.39-1.18,1.57-.79,1.18-.39h.39l.78-.39h1.18l1.18.39h.39l6.68-1.57.78,1.18.39,1.96v1.18h1.18l.39-1.18h1.57l1.96,1.18.78,2.75.79.39v.39l.39,1.57,3.14-1.18,3.93,13.35h-.79l-2.75.79v-.79h-.78l-5.1,1.57-1.97,5.1-5.11-1.57v-1.18l-1.57.79.79.78-3.14-1.18-3.53,3.14-.79-1.18.4-1.18h.78l1.57-.79.79-.79v-.78l-1.96.78h-1.57l-.39-.39,1.57-1.18.39-.39-1.57.78-.39-.78-.39.39v-1.97l-2.36,1.18-.39,1.18-2.75,1.18h-.4l.4-2.36-.79.39-.39,1.96,1.18.39,1.18,2.75-.39,1.57,1.57,1.57-.79,1.18-2.75.39v-.39l-.39-3.53-.39-.39v-.39l-.39-1.57v-.39h-.39l-.39-.39v-.79h1.18v-.78m5.89-.79v.39h-.79l.79-.39m-1.18,1.96l.78.39-.78.39v-.79m-2.36,0l.79.39-.39.39-.39-.39v-.39m1.96,1.18v3.93l-1.18-.79.39-1.97.79-1.18m2.75,3.14l-.79,1.17-.39,2.36-1.57.78v-1.57l1.96-3.14v-.79l.39-.39,1.18.39-.79,1.18"/><path id="02170" d="m157.7,542.26h-.39l-.39.4h-.4l-.39.39-.79,1.57h-.39v.39h-3.14l-.78.79-.79-.39h-1.18v-1.57l-4.72.39-.79.4h-1.57v-.79l-.39-.39v-3.53l-.39-.39v-2.75l-.39-3.93,4.32-.4v-.78l9.43-6.28,5.5-.79v-.39l-.39-.78,4.32-.79,1.96-.39.39,2.75.39,1.18,1.18,5.11v.39l.39,1.18-.39.39-1.96.39.79,1.97v.39l.78,4.32-.78.39h-.39l.39.4-2.36.39-3.14.39-3.14.79-.4-.4"/><path id="02240" d="m169.09,523.8l-1.18.39-1.57.79-.39-2.75-1.96.39-1.57-7.07,2.36-.79.78-1.17,1.18-.79h1.18l4.71-3.53h1.57v-.39l.79-1.18-.79-1.18.39-.79.39-.79,1.18-.79.39-2.36h.39l1.18-1.18,1.18-.39,1.18-1.57v-1.18l.79-1.18,9.82,34.17-3.14,1.18-.39-1.57v-.39l-.79-.39-.78-2.75-1.96-1.18h-1.57l-.39,1.18h-1.18v-1.18l-.39-1.96-.78-1.18-6.68,1.57h-.39l-1.18-.39h-1.18l-.78.39h-.39"/><path id="02090" d="m155.74,513.59v-.39l-1.18-5.11h.39l3.93-.79.39-.79h1.57l.78-.79.79-1.18.79-.4.79.4v.79l.78.78h.39l.78,1.18.39.39,4.32-1.57,1.96-.39-.39.79.39,2.75-4.71,3.53h-1.18l-1.18.79-.78,1.17-2.36.79-2.75.4-1.18-.4h-.39l-1.57-1.96h-.78"/><path id="02068" d="m154.56,525.37l-9.43,6.28v.78l-4.32.4,1.57-4.32v-1.18l-1.57-.39-.39-2.36,2.36-.39.78-1.57-.39-1.57,1.18-1.18h.79l1.18.39,1.57-3.14,5.89-.79,4.71-.79,1.18.4,2.75-.4,1.57,7.07-4.32.79.39.78v.39l-5.5.79"/><path id="02050" d="m140.02,545.79l.39,3.53v.39h-2.36l-2.36.39-6.28.39h-5.1v-.78h-1.57v1.18l-.78.79h-.79v-.79h-4.71l-1.96,4.71h-.79l-.79,1.57-1.18,2.35v1.57h-1.18l-.79,1.57-.39,2.36-.78.78-.79,2.36h-.78v1.57h-1.57v1.57l-1.18.39-2.75-.39.79-.39.79.39.39-1.57-.39-2.36-.79-1.57,1.57-1.97-.78-2.35v-.39l-1.96-3.93-.78,1.57-2.75,1.57-2.75.4-1.57-.79-.39-1.18-1.57-2.36-3.54-3.15,2.36-1.57-.39-1.18h-.79v-.39l.39-.39h2.36l1.96-.39,1.96-3.14,3.93-.78.39-.39,1.18-.39,2.36.78,3.53-.78,1.18-1.18,1.96-1.18-.39-.79h5.1v-.79h3.14v-.78l6.28-.39v.79h5.89l1.96-.39h3.53l1.57-.39h.78v-.79l1.57-.39v-.4l.39-.39h.78l.39-.79v2.75l.39.39v3.53l.39.39v.79l-1.57.39h-.39v.79m-85.23,1.96l.4,1.18.39.78,1.57.78.4.39h-1.57l-.39-.79-1.17-1.57.39-.79m28.67,6.68l1.18-.39,1.96,1.57-.39,2.35-.39.79-1.96.78-3.93-1.97-1.18-1.18v-.78l.39-.39h2.36l1.57-1.18.39.39"/><path id="02158" d="m109.78,541.47l.39.79-1.96,1.18-1.18,1.18-3.53.78-2.36-.78-1.18.39-.39.39-3.93.78-1.96,3.14-1.96.39h-2.36v-.39l.79-.39.39-.79-1.57-.79-.39.79-1.18-.39-1.96-3.93.39-2.36,4.32-5.5,1.96-1.57-.39-1.18.78-1.96,1.57-1.96,1.57-.39,2.75,2.36,1.18-.39,1.96-1.96.79.39,1.57,2.35h4.72-.39l-.4,1.18-.39,3.14v3.14h.79l-.4,1.18v.79l.4.39h1.57"/><path id="02180" d="m112.92,523.01v1.57h-.78v.79l-.78.79h-1.57l-.79.79v2.36h-.39v2.35h-4.72l-1.57-2.35-.79-.39,1.18-1.57,1.17.39h1.58l1.96-.39,1.18-2.35.39-1.18-1.18-3.53-.78-1.18v-1.18h.78l1.18-.78v-1.18l-1.57-1.57-.79,1.18-3.14.79-1.57,1.18-6.28-.39-3.14.78-4.32-1.57-.79-.79-.39-.79.39-1.17-.39-2.36.39-.39.39-1.17-3.54-1.57-2.36-1.57v-1.17l7.07-3.93.79.79,1.96.39v-.39l-1.18-.79v-.79l5.5-1.96.4,3.93v3.14l.79.39v1.18l.39.39h.4v1.57l13.75.39h.79v-.79h1.57v2.36h-.39v3.14h-.79v1.57h-.78v6.28h.78v.79m-22.78-22l-.39.39v-.39h.39m-9.43,10.61l.78-.39.39.78-.78.4-.39-.79m-15.32,9.43l.39-.78v1.18l2.36,1.57,1.96-1.18.78.39.79.79v1.18l1.96,1.57,3.14.78-.79,1.57-1.57-.79-1.18.79-1.18-.39-2.36-2.75-1.57-.79h-.78l-1.57.79-1.17-.79v-.78l.78-2.36m36.92,4.72v.78h-1.18l.39-.78h.79"/><path id="02290" d="m140.41,537.55h-.39l-.39.39v.4l-1.57.39v.79h-.78l-1.57.39h-3.53l-1.96.39h-5.89v-.79l-6.28.39v.78h-3.14v.79h-6.67l-.4-.39v-.79l.4-1.18h-.79v-3.14l.39-3.14.4-1.18h.39v-2.35h.39v-2.36l.79-.79h1.57l.78-.79v-.79h.78v-2.35h-.78v-6.28h.78v-1.57h.79v-3.14h.39v-2.36h-.78v-3.93h2.36v-1.57h3.93v-3.53h3.14v1.57h1.57v-1.57h1.57l.78.78v.79l1.57-.39v-2.36h2.36l-.39-.79,1.57-.78h.78l.4-1.57-.4-2.36-.78-.79h-1.57v-2.35l-1.57-1.57v-.79h-.78v-1.96h1.18l18.45-1.96h.4l8.25-1.58,3.14-.79-.79-4.32,16.1-3.93,6.68,23.17-.79,1.18v1.18l-1.18,1.57-1.18.39-1.18,1.18h-.39l-.39,2.36-1.18.79-.39.79-.39.79.79,1.18-.79,1.18v.39h-1.57l-.39-2.75.39-.79-1.96.39-4.32,1.57-.39-.39-.78-1.18h-.39l-.78-.78v-.79l-.79-.4-.79.4-.79,1.18-.78.79h-1.57l-.39.79-3.93.79h-.39l1.18,5.11v.39h.78l1.57,1.96h.39l-4.71.79-5.89.79-1.57,3.14-1.18-.39h-.79l-1.18,1.18.39,1.57-.78,1.57-2.36.39.39,2.36,1.57.39v1.18l-1.57,4.32.39,3.93-.39.79h-.39"/></g></svg>