<?xml version="1.0" encoding="UTF-8"?><svg xmlns="http://www.w3.org/2000/svg" viewBox="0 0 989.98 627.07"><g><path id="04001" d="m286.18,319.31l-3.17,22.87-4.51,32.63-2.55,18.34-5.67-.77-2.64,1.52-.15.13-.4.8-2.81,1.19-1.88,1.17-1.92-.43-1.14-1.07.56-3.8.7-.92,1.52-8.63,2.43-16.01,1.6-10.07.96-5.02.48-3.31-3.19-.48,4.54-30.6,17.25,2.45"/><path id="04003" d="m270.38,423.88l1.27.17-3.5,24.96-7.31-1.06-20.05-2.94,1.55-9.03,2.44-15.86,5.38.84,14.14,2.04,6.09.89"/><path id="04005" d="m243.49,312.81l11.93,1.87-9.8,62.66-1.78-.46-3.06-2.41-4.05-2.77-5.34-1.54.68-3.77.62-3.76-.75-.13-3.24-.57-.06-.9.55-3.17-4.42-.63-.63-.06-5.26-.88.67-4-1.69-1.93-9.08-5.72-3.16-3.25-1.57-.85-.72-.16-.29-.04-.27.02,2.11-10.16,1.29-2.63,2.78-1.24,1.95-.75,1.08-.14.15.05.8-.09.8-.17,4.29-1.28.27-.09.23-.19.59-.69.22-.4.26-1.5-.2-.32-.22-.68v-.37l.05-.3.95-2.97.08-.22,1.2-3.02,1.77-3.84,20.26,3.41"/><path id="04007" d="m245.62,377.34l-.94,6.01,14.06,2.15-1.82,12.2-3.19-.46-2.85.31-.53.07-1.4.43-.67.35-.19.3-.39,1.69-.19,2.23h-.3l-3.38.64-1.98,1.36-.02.1.11.45-.05.16-1.11,1.09h-.29l-.06-.03-2.15-6.55-.17-1.86-.43-1.85-.39-1.49-1.37-5.17-.56.32-.47.4-2.82-4.48-.25-4.08-.11-.35-.05-.08-.39-.18-.55.06.86-1.34v-1.15l-.11-.39-.3-.58-3.95-.67-.12-.22v-.06s.67-1.69.67-1.69l1.32-3.23.27-.11,1.4-.42.46-.32.03-.03.1-.75,5.34,1.54,4.05,2.77,3.06,2.41,1.78.46"/><path id="04011" d="m267.08,394.82l.4-.8.15-.13,2.64-1.52,5.67.77-4.29,30.9-1.27-.17-1.82-2.65.04-.31.42-.91.26-1.16v-1.05l-.43-1.69-1.04-2.3-.29-.05-2.32-5.81,1.88-13.13"/><path id="04009" d="m259.33,395.68l1.14,1.07,1.92.43,1.88-1.17,2.81-1.19-1.88,13.13,2.32,5.81.29.05,1.04,2.3.43,1.69v1.05l-.26,1.16-.42.91-.04.31,1.82,2.65-6.09-.89-14.13-2.04-5.38-.84.31-1.98h.04l.39-2.53,1.25-8.28.73-4.71.19-2.23.39-1.69.19-.3.67-.35,1.4-.43.53-.07,2.85-.31,3.19.46.38-2.54,2.02.52"/><path id="04012" d="m182.74,365.42l7.4,3.33,1.52-1.05,5.3.67.2-.03.15-.07.42-.36-1.34,7.25-2.6,14.13-11.72-2.21.38-1.98-5.82-1.09-1.93,9.83-1.94-.33-2.77-.55-1.67-.28-.31-.14-.89-.62-.4-1.07v-.04s1.12-6.98,1.12-6.98l1.93-.48,2.31-2.73.75-2.6.55-2.72.11-.75.49-1.76.54-.93,1.73-2.44,2.37-.91,1.62-.67,2.41-1.39.04-.03.06-1"/><path id="04013" d="m196.39,375.15l11,1.98,8.29,4.21.76-.46,1.14-1.44.08-.32.78-1.19.27.08,7.71,2.39,4.33.72.55-.06.39.18.05.08.11.34.25,4.08,2.82,4.48.47-.4.56-.32,1.37,5.17-3.98-.61-6.21-1.05-.4,1.98-.62,3.96-4.89-.78-2.6-.46-2.1-.53-1.7-2.11-.08-.04-.18.99-2.24,12.87-.68,3.96-21.51-3.8,6.26-33.92"/><path id="04015" d="m196.15,304.41l20.63,3.84,6.45,1.14-1.77,3.84-1.2,3.02-.08.22-.95,2.97-.05.3v.37l.22.68.2.32-.26,1.5-.22.4-.59.69-.23.19-.27.09-4.29,1.28-.8.17-.8.09-.15-.05-1.08.14-1.95.75-2.78,1.24-1.29,2.63-2.11,10.16-5.06,27.53-.42.36-.15.07-.2.03-5.3-.67-1.52,1.05-7.4-3.33-.88-1.55-1.02-1.14-1.17-1.41-1.19-5-.06-.92-1.28-2.01-1.01-2.64-.02-.12.03-.32.58-2.56,1.72-2.88.17-.55.1-.46.02-.51.13-2.8-.02-.67-.17-1.35-.24-2.84.22-4.03.5-6.59.23-2.25.02-.15.25-.23.18-.1,2.06-.48h1.13l1.06.22,2.34.69.25.23.55.77.22.56.03.18v.05s.03.19.03.19l.13.39.43.68.16.17.23.18.1.02.36.04,1.12.02h.02l.1-.06.25-.28,2.33-3.15.78-4.04.44-2.32.73-4.17.09-.46.72-3.79.69-3.58"/><path id="04017" d="m268.92,316.86l-4.54,30.6,3.19.48-.48,3.31-.96,5.02-1.6,10.07-2.43,16.01-1.52,8.63-.7.92-.56,3.8-2.02-.52,1.44-9.67-14.06-2.15,10.74-68.67,4.61.7,2.94.58,5.95.9"/><path id="04019" d="m211.65,412.87l7.79,1.32,4.27.85,7.22,1.18.63.09,3.01.31,5.98.83,4.53.7-.31,1.98-2.44,15.86-7.78-1.22-5.97-.82-.74,4.64-3.92-.63-.35,2.17-.92-.53-2.93-1.7-23.2-13.38-4.64-2.64-3.7-2.22,1.95-10.58,21.51,3.8"/><path id="04021" d="m237.32,394.69l.39,1.49.43,1.85.17,1.86,2.15,6.55.06.03h.29l1.11-1.09.05-.16-.11-.45.02-.1,1.98-1.37,3.38-.64h.3l-.73,4.71-1.25,8.28-.39,2.53h-.04l-4.53-.7-5.98-.83-3.01-.31-.63-.09-7.22-1.18-4.27-.85-7.79-1.32.68-3.96,2.24-12.87.18-.99.08.04,1.7,2.11,2.1.53,2.6.46,4.89.78.62-3.96.4-1.98,6.21,1.05,3.98.61"/><path id="04023" d="m223.59,440.12l.35-2.17,3.92.63.74-4.64,5.97.82,7.78,1.22-1.55,9.03-10.01-1.55-2.32-.54-4.88-2.8"/><path id="04025" d="m202.8,340.37l.27-.02.29.04.72.16,1.57.85,3.16,3.25,9.08,5.72,1.69,1.93-.67,4,5.26.88.63.06,4.42.63-.55,3.17.06.9,3.24.57.75.13-.62,3.76-.68,3.77-.1.75-.03.03-.46.32-1.4.42-.27.11-1.32,3.23-.66,1.69v.06s.11.22.11.22l3.95.67.3.58.11.39v1.15l-.86,1.34-4.33-.72-7.71-2.39-.27-.08-.78,1.19-.08.32-1.14,1.44-.76.46-8.29-4.21-11-1.98,1.34-7.25,5.06-27.53"/><path id="04027" d="m193.79,389.28l-3.66,19.8-1.95,10.58-.32-.2-25.86-15.54.64-2.77.06-.09.17-.06.33.07.82-.76.78-1.13,2.02.15,2.67-1.65.83-1.17.17-.59.19-1.51-.57-1.33-.06-.06-.06-.07,2.77.55,1.94.33,1.93-9.83,5.82,1.09-.38,1.98,11.72,2.21"/></g></svg>