<?xml version="1.0" encoding="UTF-8"?><svg xmlns="http://www.w3.org/2000/svg" viewBox="0 0 989.98 627.07"><path id="05017" d="m614.23,412.87l.26.73h.03s.97.67.97.67l.8.54.15.54-.23.46-.99.29.96,2.76.65,1.18.5.53.06,1.75v.02l-.6,2.5-.02.02-.56.63-.16.18-1.9.07-3.28.13-.47.03-.36-8.83-.12-4.03,1.98-.1.11.69.52.32,1.41-.04.3-1.04"/><path id="05003" d="m599.86,417.3l10.18-.24.36,8.83-11.68.47-1.46-3.52.45-1.15.71-.92.84-.68.38-.11.55-.47.26-1.77-.59-.43"/><path id="05115" d="m582.41,364.18l.05,3.1-.65.93.04,2,.07,6.29-.67.06-2.37.26.31,1.2-.71-.08-2.83-3.46-1.66-.66-.39-.22-.04-3.3h.34l1-1.06.96-1.95-.03-3.04,3.95-.02,2.63-.04"/><path id="05101" d="m579.61,355.17l.17,9.05-3.95.02-6.6-.62-.16-1.39v-1.34s.42-1.01.42-1.01l.57-1-.31-3.64h3.31l6.56-.06"/><path id="05087" d="m563.45,351.19h2.91s.5.58.5.58l.25.91v.87l.16.33.51.71.65.66h1.32l.31,3.64-.57,1-.41,1.01v1.34s.15,1.39.15,1.39l-3.28-.04-3.97.3h-.96v-1.68l.18-5.98.96-3.35.08-1.65,1.22-.04"/><path id="05047" d="m561.98,363.89l3.97-.3-.04,9.11-1.6-.62.02,1.76-2.22.06.11,1.92-1.38-.04-.79.78h-.73s-.25-5.34-.25-5.34l.29-.15.35-1.11.26-1.32-.94-.58-.16-2.31.72-.03,2.38-1.17.34-.33v-.34s-.34,0-.34,0"/><path id="05071" d="m565.95,363.59l3.28.04,6.6.62.03,3.04-.96,1.95-1,1.06h-.34l.04,3.3-2.04.02-.23-2.34-1.07.4-.79.31-1.42.45-2.14.25.04-9.11"/><path id="05083" d="m565.91,372.7l2.14-.25,1.42-.45.79-.31,1.07-.4.23,2.34,2.04-.02.39.22.17,2.01-3.36.24-1.56,1.45-3.15.53.02,2.25.09.62-3.95.02-2.97-.02-1.27-.65v-2.03s2.03.02,2.03.02v-1.69s.8-.78.8-.78l1.38.04-.11-1.92,2.22-.06-.02-1.76,1.6.62"/><path id="05149" d="m573.99,373.83l1.66.66,2.83,3.46.71.08-.31-1.2,2.37-.26-2.66,2.69-1.51,1.4-1.39,1.34-.64.71-.96,1.31.07,2.4-1.98.75-5.94.1-.05-6.35-.09-.62-.02-2.25,3.15-.53,1.56-1.45,3.36-.24-.17-2.01"/><path id="05105" d="m578.59,379.26l6.02-.08,1.57-.15.3-.06.24-.09.93-.77.09.09.18.47.03.22-.07.56-.08.2-.14.21-.21.22-.3.25-.13.16-.08.27.07.28.22.36.2.17.22.13.34.1-.56.39-1.38.35-1.94.38v1.33h.3l-.19.41-1.5-.4h-2.64l-1.94.08.04,1.99-3.99.09-.07-2.4.96-1.31.64-.71,1.39-1.34,1.51-1.4"/><path id="05029" d="m581.84,370.22l6.91-.07.04,2.02-1.15,5.95-.93.77-.24.09-.3.06-1.57.15-6.02.08,2.66-2.69.67-.06-.07-6.29"/><path id="05045" d="m595.68,372.03l.13,6.85.02,1.25-1.99.03-.58,2.02-3.81.04-1.48-.42-.34-.1-.22-.13-.2-.17-.22-.36-.07-.28.08-.27.13-.16.3-.25.21-.22.14-.21.08-.2.07-.56-.03-.21-.18-.47-.09-.09,1.15-5.95,4.26-.06,2.63-.08"/><path id="05141" d="m589.63,362.39l.06,1.7,3.28-.05.09,8.07-4.26.06-.04-2.02-6.91.07-.04-2,.65-.93-.05-3.1,3.31-.02-.03-1.68,3.95-.1"/><path id="05129" d="m579.61,355.17h1.98s.03.99.03.99l7.87-.11.02,2.02.12,4.33-3.95.1.03,1.68-3.31.02-2.63.04-.17-9.05"/><path id="05137" d="m593.41,354.27l2.2,1.68.11.08.34.41v.11s-.79,2.07-.79,2.07l2.75.16,1.17,1.06.88.31.39,3.75-7.48.14-3.28.05-.06-1.7-.12-4.33,1.99-.03v-2.01s1.94-.05,1.94-.05l-.03-1.7"/><path id="05023" d="m600.45,363.89l.82-.02.16,3.94.05,1.82-.95,2.3-4.84.11-2.63.08-.09-8.07,7.48-.14"/><path id="05145" d="m601.42,367.81l3.95-.09.04,1.99,4.42-.08-1.51,1.86-.05,1.38.04.14.51.7-.4,3.57-.39.53-2.21.04.02,1.46-1.24-.06-.38-.9-1.37.32-1.08.8-2.65-.24-.88-.31-2.43-.03-.13-6.85,4.84-.11.95-2.3-.05-1.82"/><path id="05063" d="m609.12,359.18l2.93-.13-.1.4-.19.55-.51,1.2-1.6,1.25.06,2.21-.4,2.96-2.51.08h-1.44l-3.95.09-.16-3.94-.82.02-.39-3.75,2.49-1.83,4.57-.1.03,1.03,1.98-.06"/><path id="05067" d="m612.06,359.05l3.08-.05.13,4.09.27,6.14.11,2.05-3.94.13-.13-2.04-1.81.11.06.13-4.42.08-.04-1.99h1.44l2.51-.08.4-2.96-.06-2.21,1.6-1.25.51-1.2.19-.55.1-.4"/><path id="05147" d="m609.82,369.61l-.06-.13,1.81-.11.13,2.04,3.94-.13.19,4.76.16,3.42-1.99.06-1.65.05-.84.48-.15.71.02.98-1.38.06-.06-3.22-1.79.08-.09-.26-.06-.6.39-.53.4-3.57-.51-.7-.04-.14.05-1.38,1.51-1.86"/><path id="05123" d="m625.9,375.59l1.91-.2.16,3.37.02,2.27-10.03.5-1.91-.02-.99.06.04,1.03-.89-.97-.2-2.11,1.99-.06-.16-3.42,10.07-.46"/><path id="05035" d="m631.77,368.44l.08.96.33-.09v-.53s.58-.25.58-.25l1.05.9-.47.48.1.42-.14.75-.97.59.27.42.87-.03.53.57.15.63-.54.87.7.33-.06.82-.59.47-1.06-.37-.35.42-.59,1.82-1.74.16-.22.72.03.32.47,3.1-2.1.77-.11-1.64-.02-2.27-.16-3.37-1.91.2-.39-6.88,4.01-.16,2.24-.11"/><path id="05037" d="m625.52,368.72l.39,6.88-10.07.46-.19-4.76-.11-2.05,1.7-.07,4.31-.41,1.96-.09,2.02.05"/><path id="05111" d="m615.26,363.1l3.48-.11,7.38-.38,3.04-.09.36,6.04-4.01.16-2.02-.05-1.96.09-4.31.41-1.7.07-.27-6.14"/><path id="05093" d="m639.6,354.83l.09.56.89.46.46.44-.22,1.04-1.38-.25-.34.06-.21.66,1.2.5-.12.99-1.24.19-.21.56-.5.58-1.12.33-.64-.1-.7.62.58,1.14.93-.45.54.71-.29.73-1.47.91.56.77.26,1.04-1.31-.26-.31-.56-.71.06-.12,1.08.58.65-.26,1.89-.29.03-.77-.58-.36-.99-.51.5-.84.29-2.24.11-.36-6.04-.45-6.85,6.07-.43,4.81-.4"/><path id="05031" d="m628.71,355.66l.45,6.85-3.04.09-7.38.38-3.48.11-.13-4.09,3.33-.04-.1-2.05,8.58-.41.31-.75,1.47-.1"/><path id="05065" d="m602.57,351.08l-.02,7.22-2.49,1.83-.88-.31-1.17-1.06-2.75-.16.8-2.07v-.11s-.34-.41-.34-.41l-.11-.08-2.2-1.68h-.36l-.02-.96.99-.41-.03-1.62,8.57-.18"/><path id="05075" d="m610.51,350.6l2.24,1.97,1.25,1.09.58-.8,4.33-.18,1.1-.05v.09s-.34.87-.34.87l-.51.49-.26.2-.72,2.02.17.64.1,2.05-3.33.04-3.08.05-2.93.13-.07-3.08-.15-3.5-.03-1.29.32-.35,1.32-.36"/><path id="05135" d="m607.53,345.2v.22s1.13,1.14,1.13,1.14l.67.32.74,1.03.39,1.2.06,1.48-1.32.36-.32.35.03,1.29.15,3.5.07,3.08-1.98.06-.03-1.03-4.57.1.02-7.22,2.32-.03-.08-2.64,2.01-.1-.07-3.1.79-.02"/><path id="05055" d="m618.82,349.96l1.67-.12,5.99-.14,1.32.6.04.68,2.25-.16-2.84,4.94-.31.75-8.58.41-.17-.64.72-2.02.26-.2.51-.49.35-.87v-.09s-1.11.05-1.11.05l-.09-2.71"/><path id="05021" d="m622.75,344.37l6.52-.37.49-.03.72-.02,1.64,2.31.18.24.12,1.83-.19.53-.13.2-2.01,1.77-2.25.16-.04-.68-1.32-.6-5.99.14-1.67.12,1.66-.65-.32-3.63-1.23-1.11,3.82-.21"/><path id="05121" d="m618.93,344.58l1.23,1.11.32,3.63-1.66.65.09,2.71-4.33.18-.58.8-1.25-1.09-2.24-1.97-.06-1.48-.39-1.2-.74-1.03-.67-.32-1.13-1.14v-.22s5.14-.27,5.14-.27l6.27-.36"/><path id="05049" d="m606.74,345.23l.07,3.1-2.01.1.08,2.64-2.32.03-8.57.18-.1-5.49.55-.03,8.22-.37,4.08-.15"/><path id="05005" d="m586.95,346.06l6.95-.29.1,5.49.03,1.62-.99.41.02.96h.36l.03,1.7-1.95.05v2.01s-1.98.03-1.98.03l-.02-2.02v-1.35s-.47-1.08-.47-1.08l-.98-2.01-.85-1.01-.3-.22.09-1.82-.02-2.49"/><path id="05089" d="m582.49,346.22l4.46-.15.02,2.49-.09,1.82.3.22.85,1.01.98,2.01.46,1.08v1.35s-7.86.11-7.86.11l-.03-.99h-.98s.38-8.9.38-8.9l1.5-.05"/><path id="05009" d="m580.98,346.26l-.38,8.9h-1l-6.56.06-.17-8.73,8.1-.24"/><path id="05015" d="m572.88,346.5l.17,8.73h-4.63l-.65-.66-.51-.71-.16-.33v-.87l-.25-.91-.5-.57h-2.91s-1.04-1.22-1.04-1.22v-3.22s5.18-.13,5.18-.13l4.94-.12h.35"/><path id="05007" d="m558.55,346.84l3.87-.08v3.22s1.04,1.21,1.04,1.21l-1.22.04-.08,1.65-.33-.82-1.9.14v.96s-5.96.36-5.96.36l-.82,1.68-.19,1.01-2.97-.02-.22-1.38-1.13-7.8,9.93-.16"/><path id="05143" d="m549.97,356.18l2.97.02.19-1.01.82-1.68,5.95-.36v-.96s1.91-.14,1.91-.14l.33.82-.96,3.35-.18,5.98v1.68l-3-.03-2.29.28-4.54-.04-1.21-7.92"/><path id="05033" d="m561.02,363.89h1.31v.34s-.34.33-.34.33l-2.38,1.17-.72.03.16,2.31.94.58-.26,1.32-.35,1.11-.29.15-1.1-.11-.16.02-.11.06-.16.14-.08.18.09.19.27.24.08.14.07.25v.17s-.07.15-.07.15l-.14.12-1.17.53-.3.1-1.29.1-.47-.15-.43-.54-.06-.31.07-.3v-.09l-.11-.23-.61-.47-.3-.14-.25-.05-.05.02-.34,1.2-.84-5.55-.43-2.79,4.54.04,2.29-.28,3,.03"/><path id="05131" d="m552.46,372.44l.34-1.2.05-.02.25.05.3.14.61.47.11.23v.09l-.07.3.06.31.43.54.47.15,1.29-.1.3-.1,1.17-.53.14-.12.06-.15v-.17s-.06-.25-.06-.25l-.08-.14-.27-.24-.09-.19.08-.18.16-.14.11-.06.16-.02,1.1.11.25,5.33h.73s-.01,1.7-.01,1.7l-2.02-.02v1.01h-.35l-1.19.5-.52.33v.17h.42v2.06l-.64.26-3.09.67-.33-.06.11-10.34v-.4"/><path id="05127" d="m558.02,379.25v1.02l1.27.65,2.97.02,3.95-.02.05,6.35h-.65l-1.57.84-.89,1.07-.98.04v-.34l-1.66-.25h-5.62l-.07-.74-2.52.06.05-4.75.33.06,3.09-.67.64-.26v-2.06h-.42v-.17l.52-.33,1.19-.5h.34"/><path id="05097" d="m572.19,387.16l-.03,8.02.02,1.33h-9.96l-.06-7.3.98-.04.89-1.07,1.57-.84h.65l5.94-.1"/><path id="05051" d="m578.16,386.33l1.98-.07.06,2.02v1.06s1.22.04,1.22.04l.33.97h1.56s.34.66.34.66v1.35s-2.28.02-2.28.02l-.58,1.34.04,1.38-8.66.08.03-8.02,1.98-.75,3.99-.09"/><path id="05125" d="m584.39,384.24l1.65-.17.02,1.39,1.98,1.9,2.76,1.91,3.02.93.16,2.03-2.97.06v1.06s-2.81,0-2.81,0l-1.17.91-.94.1-.06-1.98h-2.36s-.01-1.36-.01-1.36l-.34-.65h-1.56s-.33-.98-.33-.98l-1.23-.04v-1.06s-.05-2.02-.05-2.02l-1.98.07-.04-1.99,1.94-.08h2.64l1.5.39.19-.41"/><path id="05119" d="m595.83,380.13l.94-.02.14,6.46-.13,2.53h1.14s.12,3.04.12,3.04l-3.35.05-.72.02-.16-2.03-3.02-.93-2.76-1.91-1.98-1.9-.02-1.39-1.65.17h-.29v-1.33s1.93-.38,1.93-.38l1.38-.35.56-.39,1.48.42,3.81-.04.58-2.02,1.99-.03"/><path id="05085" d="m595.81,378.88l2.43.03.88.31,2.65.24.09,2.52,2.07-.05-.15,5.48,1.49,1.26.17,1.48v.35s-.76,1.54-.76,1.54h-.51l-6.12.11-.12-3.05h-1.14s.13-2.52.13-2.52l-.14-6.46-.94.02-.02-1.25"/><path id="05117" d="m601.77,379.46l1.08-.8,1.37-.32.38.9,1.24.06-.02-1.46,2.21-.04.06.6.09.26,1.79-.08.06,3.22-.03,5.53h-1.49s.08,1.4.08,1.4l1.29.19.38.96-4.08.1.07,2.01-.55.05h-1l.75-1.54v-.35s-.16-1.48-.16-1.48l-1.49-1.26.15-5.48-2.07.05-.09-2.52"/><path id="05095" d="m610.01,381.8l1.38-.06-.02-.98.15-.71.84-.48,1.65-.05.2,2.11.89.97.11,3.06,1-.03.06,2.04.15,4.04,1.03-.03.02.36.11,2.72-1.01.04h-.14s-.6-.22-.6-.22l-.3-.21-1.71-1.85-1.34-1.91-.62-.79-1.62.04-.38-.96-1.29-.19-.08-1.39h1.49s.03-5.53.03-5.53"/><path id="05077" d="m615.1,382.6l-.04-1.03.99-.06,1.91.02,10.03-.5.11,1.64-2.89,4.61-8.94.39-.06-2.04-1,.03-.11-3.06"/><path id="05107" d="m625.21,387.28l.26,2.68.2,2.06-.14.44-.02.04-.04.03-.65.57-.82.39-.99.2-.99.19-1.8,3.23-.85,1.76-.27.57.06.23v.03s-3.52.18-3.52.18l.91-5.08,1.01-.04-.11-2.72-.02-.36-1.03.03-.15-4.04,8.94-.39"/><path id="05069" d="m598.04,392.15l6.12-.11.14,5.75,2.25.02.99.05.19.14,1.77,2.06.25.88-.15.14-.1.05-1.07.21-1.42-.47-2.93-1.42-.43,1.62-3.77.18.03.67-5.3.26-.07-2.46.31-1.44-.14-6.07,3.35-.05"/><path id="05053" d="m594.69,392.2l.14,6.07-.31,1.44.07,2.46-1.94.14-1.77-1.45-1.31-.39h-3.47l-.03-6.12.94-.1,1.17-.91h2.81s0-1.05,0-1.05l2.97-.06.72-.02"/><path id="05059" d="m583.66,392.36h2.36s.06,1.98.06,1.98l.03,6.12h-5.87l-.76-1.15-6.28-1.45.03-1.3-1.04-.04-.02-1.33,8.66-.08-.04-1.38.58-1.34,2.29-.02"/><path id="05039" d="m582.17,400.46h7.41l1.31.39,1.77,1.45-2.55.26v1.86s.34.06.34.06l.68.62.44.64,1.29,2.27.08.42h-4.73l-5.9.02-.43-1.93-.85-2.44,1.15.37v-3.99"/><path id="05025" d="m594.6,402.17l5.3-.26-.15,6.31.09,2.02-6.76.19-.15-2.01-.08-.42-1.29-2.27-.44-.64-.68-.62-.34-.06v-1.86s2.56-.26,2.56-.26l1.94-.14"/><path id="05079" d="m609.5,401.11l.52,1.49v.37s-.79.56-.79.56l-1.58.05v3.45s.04,1.03.04,1.03l-7.96.16.15-6.31-.03-.67,3.77-.18.43-1.62,2.93,1.42,1.42.47,1.07-.21"/><path id="05001" d="m604.17,392.03h1.51l.55-.05-.07-2.01,4.08-.1,1.62-.04.62.79,1.34,1.91,1.71,1.85.3.21.6.23h.14s-.91,5.07-.91,5.07l-.93.64-.3.28-.16.25-.02.52.06.35.4.39.88,1.35-.34.45-2.31-.68-1.13-.69-1.76-.14-.52-1.49.1-.05.15-.14-.25-.88-1.77-2.06-.19-.14-.99-.05-2.25-.02-.14-5.75"/><path id="05041" d="m619.18,399.72l.85.68.2.5-.11.77-3.71,1.87-1.53,6.57-.11.52.03.05.11.2.57.43.54.43v.02l-.05.25-.34.29-1.4.57-.3,1.04-1.41.04-.52-.32-.11-.69-1.98.1-.15-5.01-2.07.04-.03-1.03v-3.45s1.57-.05,1.57-.05l.79-.56v-.37s1.75.14,1.75.14l1.13.69,2.31.68.34-.45-.88-1.35-.4-.39-.06-.35.02-.52.16-.25.3-.28.93-.64,3.53-.18"/><path id="05043" d="m599.75,408.22l7.96-.16,2.07-.04.15,5.01.12,4.03-10.18.24-.21-.3-.31-.92-.02-.11.06-1.63v-.04s.62-.03.62-.03l-.16-4.03-.09-2.02"/><path id="05011" d="m593.08,410.43l6.76-.19.16,4.03-.6.03v.04s-.07,1.63-.07,1.63l.02.11.31.92.21.3.59.43-.26,1.77-.55.47-.38.11-.84.68-.71.92-.45,1.15-1.69-1.28-2.5-1.3-.05-.25.05-.15-.54-.34-.11-.72.08-.72.16-.1.08.03.32-.81.43-1.29.14-.72-.35-3.22-.21-1.57"/><path id="05013" d="m588.2,408.43h4.73l.15,2.01.21,1.57.35,3.22-.14.72-.43,1.29-.32.81-.08-.03-.16.1-.08.72.11.72.54.34-.56.49-.84.18-.37-.02-.58-.45.03-.06-.18-.71-1.43-.77-.27-.07-2.68-1.38-1.2-1.38-.16-.39-.06-.82.92-.56-.09-1.86.13-.11,1.27-.22.09-.07.62-.97.51-2.27"/><path id="05103" d="m582.29,408.45l5.9-.02-.51,2.27-.62.97-.09.07-1.27.22-.13.11.09,1.86-.92.56.06.82.16.39,1.2,1.38,2.68,1.38-7.87.04-2.68.02v-1.69s0-7.49,0-7.49l3.98-.88"/><path id="05099" d="m573.09,405.33l1.37,1.97,2.96,1.26.4.23.49.55v7.49l-4.75.33-2.29.05.03-.72v-4.55s.21-3.52.21-3.52v-3.05l1.58-.04"/><path id="05057" d="m564.54,404.35l6.97,1.03v3.05l-.2,3.52v4.55s-4.59-.03-4.59-.03l-2.03-2.91-2.06-1.26-.51-1.94h2.39s.03-6.02.03-6.02"/><path id="05019" d="m570.86,396.51h1.32l1.04.04-.03,1.3,6.28,1.45.76,1.15h1.93v3.99l-1.15-.37.85,2.44.43,1.93-3.98.88-.49-.55-.4-.23-2.96-1.26-1.37-1.97-1.11-2.07-.28-.78-.82-3.95v-2.02"/><path id="05109" d="m562.23,396.51h8.63v2.02s.83,3.95.83,3.95l.28.78,1.11,2.07-1.58.04-6.97-1.03-.05-4.04-1.99-.02-.25-1.77-.02-2.01"/><path id="05061" d="m562.23,396.51l.02,2.01.25,1.77,1.99.02.05,4.04-.03,6.03h-2.39s-.03-.01-.03-.01l-2.12-3.81-.08-.23-.37-2.44-.14-1.1-.06-1.74.07-.7-.21-.1-2.71.03-.26-1.77v-1.99s6.02,0,6.02,0"/><path id="05113" d="m552.29,387.93l2.52-.06.07.74h5.62l1.66.25v.34l.06,7.3h-6.03v1.99s.27,1.77.27,1.77l-4.28.13.1-12.46"/><path id="05133" d="m556.47,400.27l2.71-.03.21.1-.07.7.06,1.75.14,1.1.37,2.44.08.23,2.12,3.81-1.57-.02-5-1.48-3.36-2.7.04-5.76,4.28-.13"/><path id="05081" d="m552.15,406.16l3.36,2.7,5,1.48,1.57.02h.03l.51,1.94,2.06,1.26-4.11,1.42-.46-.38-.35-.14-1.85-.37-1.07.15-.28.03-.1.09-1.85.94-1.03-.56-.28-.18-.78-.5-.13-.17-.15-.33-.15-.39.05-7"/><path id="05091" d="m564.69,413.56l2.03,2.91-.14,1.48,1.32,1.95v.12l-.31,1.02-1.44,2.54-.14.18-.14.13-.22.03-1.08,1.91.83,1.36h-.19l-4.39.1-.26-12.3,4.11-1.42"/><path id="05073" d="m566.72,416.47l4.58.03-.03.72,2.29-.05-.21.27-1.9,4.05-.02,5.58h-.59l-5.45.12-.83-1.36,1.08-1.91.22-.03.14-.13.14-.18,1.44-2.54.31-1.02v-.12l-1.32-1.95.14-1.48"/><path id="05027" d="m573.57,417.16l4.75-.33v1.69s2.68-.02,2.68-.02l.07,8.31-4.8.13-4.84.13.02-5.59,1.9-4.05.21-.27"/><path id="05139" d="m581,418.5l7.87-.04.27.07,1.43.77.18.71-.03.06.58.45.37.02.84-.18.56-.49-.05.15.05.25,2.5,1.3,1.69,1.28,1.46,3.52-12.59.34-5.06.1-.07-8.31"/></svg>