<?xml version="1.0" encoding="UTF-8"?><svg xmlns="http://www.w3.org/2000/svg" viewBox="0 0 989.98 627.07"><path id="06015" d="m50.32,149.06l6.33,1.99,4.97,1.38-.55.91-.75.98-1.17.11-1.63,1.45-1.3,6.02.15.53.15,1.48-.1.28-.8.93-.44.31-.94-.27-.67-.89.35-1.19-1.88-.61-2.96-.87.29-1.92.06-1.31.02-2.57v-.22s-.05-.27-.05-.27l-.09-.3.39-3.79.59-2.17"/><path id="06093" d="m61.63,152.43l4.71,1.32h.04l1.23.26,1.75.64.72.21.43.12,5.57,1.57,2.21.55,2.02.55.52.17.92.28,13.73,4.09-.44,1.01-.16.55-.88,3.23.02.07.08.05-2.09,7.76-1.5,5.49-9.2-2.56-4.77-1.38-3.47-.93.42-2.34-2.03-1.25-3.61,1.42-2.52,2.6.15,1.07-.21.37-.39.3-.33-.05-1.35-.68-2.31-2.44-1.27-1.9-.79-.76-.82-.66.13-4.49-.32-.46-2.64-.78.44-.31.8-.93.1-.28-.15-1.48-.15-.53,1.3-6.02,1.63-1.45,1.17-.11.75-.98.55-.91"/><path id="06025" d="m142.45,377.89l11.56,2.42,9.48,1.86,2.46.42,3.82.76-1.93.48-1.13,6.98v.04s.42,1.07.42,1.07l.89.62.31.14,1.67.28.06.06.06.06.57,1.33-.19,1.51-.17.59-.83,1.17-2.67,1.65-2.02-.15h-.11l-14.21-1.69-.28-.03-1.62-.19-6-.71-2.55-.3-1.88-.22.87-3.8,1.82-6.39.56-2.63,1.06-5.32"/><path id="06065" d="m176.23,369.41l-1.73,2.44-.54.93-.49,1.76-.11.75-.55,2.72-.75,2.6-2.31,2.73-3.82-.76-2.46-.42-9.48-1.86-11.56-2.42-4.01-.91-5.92-1.29-4.08-.89-7.52-1.81.09-.39-2-1.78-2.7-.62.14-.66,2.46-2.4-.92-1.27-1.07-.4-.56-1.49-1.2-2.72.63-1.14,2.35-2.03,2.66.6.72.17.16.39,2.46.92,5.48,1.22,2.4.09,4.67.82,13.53,2.86,9.43,2,.2-1.01,3.54.7,12.82,2.57"/><path id="06073" d="m116.3,370.21l2.7.62,2,1.78-.09.39,7.52,1.81,4.08.89,5.92,1.29,4.01.91-1.06,5.32-.56,2.63-1.82,6.4-.87,3.8-1.8-.22-3.66-.44-3.73-.43-5.26-.62-5.05-.62h-.11l-.88-3.83.35-5.68v-.19h0v-1.24s.02-.48.02-.48l-.22-1.97-.1-.7-.37-1.1-.03-.09-1.04-2.61-.3-.73-.06-.11-.42-.88-.62-.89-.38-.41-.41-.28,2.22-2.29"/><path id="06059" d="m113.53,359.1l1.63,2.17,1.2,2.72.56,1.49,1.07.4.92,1.27-2.46,2.4-.14.66-2.22,2.29-.12-.49-.32-.65-.2-.29-3.53-4.43-2.84-3.47-.69-.85.49-.87,1.03-1.3,2.03-1.74.86.06.22.05,2.52.58"/><path id="06037" d="m96.9,381.92l-1.43-.06-.91-1.12-.12-.19-.44-1.41-.4-2.51.51.17,2.64,4.59.22.47-.06.06m-.97-15.65l-.08-.06-.02-.17.02-.03.09.02.98.33,1.1.88.89.71.68.57.87,1.8.07.18.05.39-.09.21-.27.15h-.17l-2.31-1.09-.15-.14-1.65-3.78m24.33-26.4l-1.22,5.3-.57,3.06-.43,2.6-.17,1.12-1.24,2.67-1.07,1.78-.43.71-1.34.65-.48.59-.03.16.09.36.15.22-2.52-.58-.22-.05-.86-.06-2.03,1.74-1.03,1.3-.49.87-1.43.2-1.5-.03-.69-.27-.34-.2-1.34-.87-.24-.2-.14-.81.14-.14.44-.32.22-.05.11-.23.12-.58-.14-1.06-.09-.52-.05-.29-.1-.6-.19-.72-.26-.7-.02-.05-.03-.07h0s-.2-.4-.2-.4l-.04-.05-.15-.22-.05-.07-.06-.05-.32-.3-.47-.18-1.84-.39-1.45-.19-.76.06-2.85-1.26.24-.64,1.83-.8,1.48-.62,2.22.55,1.12-1.79.12-.84-1.74-12.3-.08-.67,22.42,5.24"/><path id="06111" d="m88.33,330.27l1.06.39,1.82.85.25.6.09.62,4.64,2.14,1.73.43,1.74,12.3-.12.84-1.12,1.79-2.22-.55-1.48.62-1.83.8-.24.64-2.52-1.9-2.77-4.82-1.9-2.44-.44-.56-.23-.11.53-.37.15-.14.35-1.13,2.52-10"/><path id="06083" d="m68.43,346.7l3.36.27,1.5,1.38-.05.76v.14s-.09.02-.09.02l-2.74.32h-.25s-.73-.74-.73-.74l-.14-.24-.86-1.93m9.39,1.05l.71.5,1.86.62.06-.04.03-.02.05-.02.07-.04.1-.06.06-.02.51.03.61.45.13.19h0v.02s-.02.01-.02.01l-.62.48-.18.14-.13.02-3.16.06-.68-.16-.67-.26h0l-.25-.12-.56-.26-.5-.37-.04-.14-.37-2.09.13-.16.11.03.99.39,1.78.81m-10.94-24.78l2.87.31,1.02.4.95.97,1.25-.21,1.21-.68,3.71-1.07.35.41,1.05.99,3.25,2.61,4.08,3.21.82.21h.35l.55.14-2.52,10-.35,1.13-.15.14-.53.37-1.34-1.23-1.01-.44-1.03-.15h-.32l-1.1-.05-2.32-.73-.8-.8-1.36-.98-.55-.22-1.41-.52-1.18-.31-1.37-.29-1.57-.2-1.87-.32-2.41-3.15.15-1.83,1.18-6.07.41-1.65"/><path id="06079" d="m59.27,301.25l20.23,5.54.35.1-1.01,3.92,2.33.82-.35,2.12,1.11,1.88,1.66.57-.62,1.96,1.41.54-.63,1.76,2,.53.54.63-.16,1.73.9-.14.86.31-.37,2.2,1.26.49-1,3.93h-.35l-.82-.21-4.08-3.21-3.25-2.61-1.05-.99-.35-.41-3.71,1.07-1.21.67-1.25.21-.95-.97-1.02-.4-2.87-.31.3-.56.02-.04.29-.64.23-.62.11-.38.08-.38.02-.11v-.04s.05-.51.05-.51v-.03l-.06-.37-.08-.22-.17-.17-.56-.57-.08-.07-.16-.11-1.66-4.53-3.08-5.67-2.03-3.14-.31-.33-.18-.22-.29-1.02-.07-1.99"/><path id="06029" d="m91.63,309.9l8.72,2.16,9.88,2.43,7.87,1.84,1.06.3,6.81,1.4-.75,1.9-.18.66-.24,2.71-3.91,16.72-.64-.16-22.42-5.24.08.67-1.73-.43-4.64-2.14-.09-.62-.25-.6-1.82-.85-1.06-.39-.55-.14,1-3.93-1.26-.49.37-2.2-.86-.31-.9.14.16-1.73-.54-.63-2-.53.63-1.76-1.41-.54.62-1.96-1.66-.57-1.11-1.88.35-2.12-2.33-.82,1.01-3.92,11.78,3.01"/><path id="06071" d="m125.97,318.03l4.64,1.12,29.66,6.56h1.69l3.69,5.54,1.27,1.9.47.7,6.82,10.2,2.51,3.74-.58,2.56-.03.32.02.12,1.01,2.64,1.28,2.01.06.92,1.19,5,1.17,1.41,1.02,1.14.88,1.55-.06,1-.04.03-2.41,1.39-1.62.67-2.37.91-12.82-2.57-3.54-.7-.2,1.01-9.43-2-13.53-2.86-4.67-.82-2.4-.09-5.48-1.22-2.46-.92-.16-.39-.72-.17-2.66-.6-2.35,2.03-.63,1.14-1.63-2.17-.15-.22-.09-.36.03-.16.48-.59,1.34-.65.43-.71,1.07-1.78,1.24-2.67.17-1.12.43-2.6.57-3.06,1.22-5.3.64.16,3.91-16.72.24-2.71.18-.66.75-1.9"/><path id="06027" d="m114.55,275.65l16.62,3.93,9.24,13.88.34.51,1.97,2.93,1.15,1.74,6.07,9.08,4.92,7.39.63.95,2.64,3.95.21.31,3.62,5.38h-1.69l-29.66-6.56-4.64-1.12-6.81-1.4.88-1.91.3-1.08-.08-1.52-.51-7.48-1.34-7.61-.43-3.43.52-2.26.15-1.24-.05-.87-.3-2.82-.23-.48-1.36-1.47-.35-.03-1.39-.98-.06-.05-.15-.34-.9-4.52.05-1.4.64-1.49"/><path id="06107" d="m117.98,293.6l.43,3.43,1.34,7.61.51,7.48.08,1.52-.3,1.08-.88,1.91-1.06-.3-7.87-1.84-9.88-2.43-8.72-2.16,1.91-7.43.89-3,.59-.16.47.11.75-2.96-.8-.3.35-1.92-.8-.2,2.39-1.45,2.71.49.64-1.69,2.3.61,3.37.88.52-1.89,7.9,1.86,3.18.76"/><path id="06031" d="m94.98,294.03l.8.2-.35,1.92.8.3-.75,2.96-.47-.11-.59.16-.89,3-1.91,7.43-11.78-3.01-.35-.1-1.12-3.11,7.96-4.5,1.25-4.92,2.74.67,2.59.27,2.06-1.16"/><path id="06039" d="m107.42,267.29l1.33.36,1.13.36.25.3.55,1.11.21,2.39-5.61,3.45-.8.52-.34.33-.22.43-.15,1.03-.02.4-.04.15-.37.86-.27.29-.51.45-.55.3-2.61-.17-.76.12-2.93,1.82-.79.52-.18.15-1.26,1.41-.3.51-.46.45-.06.02-7.72-.25-1.1-.21-1.27-1.03-.69-1.12-.19-.43-.09-.29-.06-.43-.51-3.95,1.46-.87,3.49-.36,2.72.36h1.78l6.45-3.94,1.95.47,1.6-1.43.4-1.46,6.04-3.68.48,1.04"/><path id="06019" d="m114.55,275.65l-.64,1.49-.05,1.4.9,4.52.15.34.06.05,1.39.98.35.03,1.36,1.47.23.48.3,2.82.05.87-.15,1.24-.52,2.26-3.18-.76-7.9-1.86-.52,1.89-3.37-.88-2.3-.61-.64,1.69-2.71-.49-2.39,1.45-2.06,1.16-2.59-.27-2.74-.67-1.25,4.92-7.96,4.5-3.64-4.45-1.13-1.63-.08-1.3.49-2.4.91-.99.98.27.75-3.87-4.07-7.13,8.45-5.03.51,3.95.06.43.09.29.19.43.69,1.12,1.27,1.03,1.1.21,7.72.25.06-.02.46-.45.3-.51,1.26-1.41.18-.15.79-.52,2.93-1.82.76-.12,2.61.17.55-.3.51-.45.27-.29.37-.86.04-.15.02-.4.15-1.03.22-.43.34-.33.8-.52,5.61-3.45,3.66,3.83"/><path id="06053" d="m60.74,275.25l-.1.47.19.71,1.48,2.46,1.68,3.02,1.07,1.32-.43,2.82h.87s2.42,4.87,2.42,4.87l-.08,1.13,1.18.21,3.38,2.85.49.19h.1l.14-.08.89-1.31-.49,2.4.08,1.3,1.13,1.63,3.64,4.45,1.12,3.11-20.23-5.54-.57-.83-.95-1.75.03-.85.02-.41.04-.75-.11-.66-.02-.1-2.13-4.56-.47-.84-.91-1.03-.26-.23h0l-.18-.02-.11-.06-.18-.22-.11-.25-.45-1.05-.16-.38-.02-.36.59-5.85,1.29-.46h.04s.29.01.29.01l.22-.1.44-.33.27-.28.2-.24.35-.52.33-.66.88-1.91.02-.27-.1-.84v-.06s3.19-.15,3.19-.15"/><path id="06069" d="m60.74,275.25l1.14.16,1.6-.9,1.64.35,3.57.96-.37.39-.13.18-.05.13.12.33.97,2.11,3.16,2.89.19.33,4.07,7.13-.75,3.87-.98-.27-.91.99-.89,1.31-.14.08h-.1l-.49-.19-3.38-2.85-1.18-.21.08-1.13-2.42-4.88h-.87s.43-2.8.43-2.8l-1.07-1.32-1.68-3.02-1.48-2.46-.19-.71.1-.47"/><path id="06047" d="m87.23,264.65l.87,4.43v.34s-.02.06-.02.06l-.08.08.73,4.36.47.67,1.3,1.68h-1.78l-2.72-.36-3.49.36-1.46.87-8.45,5.03-.19-.33-3.16-2.89-.97-2.11-.12-.33.05-.13.13-.18.37-.39-.25-.26-.14-.3-.02-.13.26-.9.46-.21.38-.59.26-1.24-.1-.3,5.88-3.47.03-.75-.1-.23-.14-.08,2.61-.77,9.4-1.93"/><path id="06087" d="m54.27,264.01v.26s.03.13.03.13l.48,1.01.94,1.9.46.66,1.23,1.08.77.55,1.55,1.64,2.14,3.55.12.2-.12.42-1.14-.16-3.2.15-.13-.72-.28-1.33-.2-.5-.18-.34-.16-.22-.36-.32-.17-.04-.9.21-.8-.04-.42-.06-.29-.07-.14-.08-.06-.03-.25-.14-.19-.11-.7-.79-.69-.99-.52-1.24-.44-1.31-.05-.95.15-.91,1.49-.25,1.57.43.12-.31.34-1.26"/><path id="06081" d="m52.77,253.42h-.03l-.39,2.35.24.38,2.78,2.92.2.13.48.17.33-.09v-.02s.34.83.34.83l-2.44,3.93-.34,1.26-.12.31-1.57-.43-1.49.25-.15.91.05.95-.14-.23-.49-.8-.66-1.23-.08-.23.04-1.09.3-5.96.55-2.43.68-2.42,1.92.54"/><path id="06001" d="m55.33,249.63l.8.02.1.06.54.76.34,1.08.07.54,3.14,3.23,6.36-.17,1.3-.14-.72,2.61-.99,3.6.13.27.98,1.49-.02-.02-6.67-1.9-.22-.02-.19.14-.14.06-.63.08-.32-.04-2.2-.75-.29-.42-.33-.83.02-4.04-1.39-4.04.32-1.56"/><path id="06085" d="m56.71,260.08l.29.42,2.2.75.32.04.63-.08.14-.06.19-.14.22.02,6.67,1.9-.28.11-.07,1.2.52,5.88,2.02,1.74.1.3-.26,1.24-.38.59-.46.21-.26.9.02.13.14.3.25.26-3.57-.96-1.64-.35-1.6.9.12-.42-.12-.2-2.14-3.55-1.55-1.64-.77-.55-1.23-1.08-.46-.66-.94-1.9-.48-1.01-.04-.13v-.26s2.45-3.93,2.45-3.93"/><path id="06099" d="m80.49,252.21l3.27,6.75,3.48,5.68h0l-9.4,1.93-2.61.77.14.08.1.23-.03.75-5.88,3.47-2.02-1.74-.52-5.88.07-1.2.28-.11.02.02,4.73-2.8.84-.54.36-.16,2.03-.54.45.16.89.18,1.03.12.99-.26.64-2.64,1.15-4.27"/><path id="06043" d="m87.24,264.65l.09-.9.15-.23,1.05-.76,5.22-1.09.35.18,1.51,1.63.13.23.11.07.52.25,1.66.45h.57l2.21-.34.28-.15,1.55-1.24,1.05-.24,1.69,1.22,1.08,1.24.48,1.28-6.04,3.68-.4,1.46-1.6,1.43-1.95-.47-6.45,3.94-1.3-1.68-.47-.67-.73-4.36.08-.08.02-.06v-.34s-.86-4.43-.86-4.43h0"/><path id="06109" d="m104.29,252.46l-.14.11-.19.68-.29,2.11.74,1.17.53.45.42.27.76.41.63.46.44.35.71.67.5,1.09-.56,2.15,1.17.86.31,1.08-.63,2.02-.96.73-.32.21-.48-1.04-.48-1.28-1.08-1.24-1.69-1.22-1.05.24-1.55,1.24-.28.15-2.21.34h-.57l-1.66-.45-.52-.25-.11-.07-.13-.23-1.51-1.63-.35-.18-5.22,1.09-1.05.76-.15.23-.09.9-3.48-5.68,3.14-2.07,1.33-1.3,2.21-2.28,2.11-1.96,2.69-2.34.44-.2.42-.13,2.21-.3,1.95,2.27.27-.13,1.37-.46.99-.12.7.16.08.08.06.16.56,2.11"/><path id="06051" d="m107.43,244.01l3.43,5.13,2.31,3.43,9.82,14.77,8.19,12.22-16.62-3.93-3.66-3.83-.21-2.39-.55-1.11-.25-.3-1.13-.36-1.33-.36.32-.21.96-.73.63-2.02-.31-1.08-1.17-.86.56-2.15-.5-1.09-.71-.67-.44-.35-.63-.46-.76-.41-.42-.27-.53-.45-.74-1.17.29-2.11.19-.68.14-.11,1.82-1.54.84-1.92-.72-2.67.03-.23.42-1.08.76-1"/><path id="06003" d="m103.19,237.66l4.23,6.35-.76,1-.42,1.08-.03.23.72,2.67-.84,1.92-1.82,1.54-.56-2.11-.06-.16-.08-.08-.7-.16-.99.12-1.37.46-.27.13-1.95-2.27-.47-1.95,1.12-4.33,2.37-1.18.44-.32,1.44-1.28.09-.14.12-.64-.03-.44-.2-.43"/><path id="06009" d="m98.3,248.38l-2.21.3-.42.13-.44.2-2.69,2.34-2.11,1.96-2.21,2.28-1.33,1.3-3.14,2.07-3.27-6.75-.3-3.64.12.14.22.14,1.4.3,4.25-1.34,3.21-1.41.84-.43.78.05,6.83.42.47,1.95"/><path id="06005" d="m98.96,242.09l-1.12,4.33-6.83-.42-.78-.05-.84.43-3.21,1.41-4.25,1.34-1.4-.3-.22-.14-.12-.14-.1-1.76,1.24-4.71,1.66.19,2.06-.63,3.15,2.39.8.2,1.28.15,3.52.16,1-.16,4.16-2.32"/><path id="06077" d="m80.18,248.58l.3,3.64-1.15,4.27-.64,2.64-.99.26-1.03-.12-.89-.18-.45-.16-2.03.54-.36.16-.84.54-4.73,2.8-.98-1.49-.13-.27.99-3.6.72-2.6,1.26-6.24.78-1.01,1.94-2.05h.41l.31.13.22.5.33.31.87.22,3.18.37.12-.02,1.24-.43,1.45.04.1,1.76"/><path id="06013" d="m57.16,246.18l1.55.94.89.26,3.79.92.26.03.23-.02.16-.11.14-.18.37,1.01.16.21.45.19.2.05.7.02.79-.22.43-.27.09-.16.05-.32.09-.14.13-.06h.2l1.02.18.32.17.06.07-1.26,6.24-1.3.14-6.36.17-3.14-3.23-.07-.54-.34-1.08-.54-.76-.1-.06-.8-.02-.69-.51-.66-1.5,2.28-.5.38-.18.49-.38.05-.15-.02-.23"/><path id="06017" d="m102.28,234.22l.91,3.45.2.43.03.44-.12.64-.09.14-1.44,1.28-.44.32-2.37,1.18-4.16,2.32-1,.16-3.52-.16-1.28-.15-.8-.2-3.15-2.39-2.06.63-1.66-.19-.72-5.1,2.19-2.62.49-1.07.38-.31,1.9-.54,2.42-.39.77.04.12.05.42.25.55.57.2.45.15.24.25.29,1.06,1.05.22.13h.14l.86-.16.43-.19.95-.79,3.83.14,1.01.09.37-.09.25-.11.07-.27.22-.17,2.43.62"/><path id="06067" d="m74.85,234.9l5.76,2.11.72,5.1-1.24,4.71-1.45-.04-1.24.43-.12.02-3.18-.37-.87-.22-.33-.31-.22-.5-.31-.13h-.41l-1.94,2.05-.78,1.01-.06-.07-.32-.17-1.02-.18h-.2l-.13.06-.09.14-.05.32-.09.16-.43.27-.79.22-.7-.02-.2-.05-.45-.19-.16-.21-.37-1.01,1.04.44,1.71-.17,1.97-2.03,1.47-2.47,1.17-.51.35-.21.88-1.81.78-3.18.02-.24-.02-.1-.67-1.18-.07-2.27,2.03.59"/><path id="06095" d="m55.35,243.37l3.65,1.05.08-.21-.04-.1h-.06l-.1-.14-.06-.19.05-.2.97-2.79,2.44.68.08-.19.02-.2.02-.41-.02-.19-.08-.52-.39-1.19v-.11s.04-.15.04-.15l.81-1.53.09-.1.81.14,6.08,1.21.19.31v.07l-.19.82-1.09,3.88,1.75.5-1.47,2.47-1.97,2.03-1.71.17-1.04-.44-.14.18-.16.11-.23.02-.26-.03-3.79-.92-.89-.26-1.55-.94-1.78-2.68-.03-.13"/><path id="06075" d="m52.77,253.42l-1.92-.54v-.02l.02-.35.23-1.31.21-.12.83-.16.69.05.33.08.12.18.13.39-.1,1.37-.1.33-.43.1"/><path id="06041" d="m45.97,237.26l.22-.11,1.45.03.14.04,3.8,4.52,1.27.69.74,1.56-.64,1.67-.67,2.11-.05.18.12.19.3.37.3.49.1.26v.07s-1.07,1.04-1.07,1.04l-.47-.06-.3-.15-.2-.19-5.66-6.5.94-5.01-.06-.43-.2-.59-.07-.19"/><path id="06055" d="m60.06,227.63l1.68,1.06.88,4.7.21,1.33.02.47v1.68s-.1.1-.1.1l-.81,1.53-.03.15v.11s.39,1.19.39,1.19l.08.52.02.19-.02.41-.02.2-.08.19-2.44-.68-.97,2.79-.05.2.06.19.1.14h.06l.04.1-.08.21-3.65-1.05.7.13.55-.9.04-.53-.02-.54-.22-1.86-1.23-4.35-.71-1.94.06-1.51.3-.99,3.05-.04,2.06-1.74.2-.3-.07-1.16"/><path id="06097" d="m39.99,224.1l2.52.75.35-.77,4.04,1.23.39-1.05,5.38,1.59,2.14,5.03-.3.99-.06,1.51.71,1.94,1.23,4.35.22,1.86.02.54-.04.53-.55.9-.7-.13.03.13-1.78.49-.74-1.56-1.27-.69-3.8-4.52-.14-.04-1.45-.03-.22.11-1.14-4.05-3.72-7.12-1.12-1.99"/><path id="06113" d="m61.37,226.57l8.63,2.42,2.82,5.33.07,2.27.67,1.18.02.1-.02.24-.78,3.18-.88,1.81-.35.21-1.17.51-1.75-.5,1.09-3.88.19-.82v-.07l-.19-.31-6.08-1.21-.81-.14v-1.68s-.02-.47-.02-.47l-.21-1.33-.88-4.7-1.68-1.06,1.32-1.07"/><path id="06061" d="m77.65,229.36l2.55-.21.85.73.19.09,2.41.81.58-.1,1.11-1.1.15-.23.14-.35.15-.16.84-.63.84-.43,1.27-.63,2.43-1.13.91-.21.67-.03,10.95,2.84-.86,3.38-.29,1.2-.24,1.01-2.43-.62-.22.17-.07.27-.25.11-.37.09-1.01-.09-3.83-.14-.95.79-.43.19-.86.16h-.14l-.22-.13-1.06-1.05-.25-.29-.15-.24-.2-.45-.55-.57-.42-.25-.12-.05-.77-.04-2.42.39-1.9.54-.38.31-.49,1.07-2.19,2.62-5.76-2.11,1.43-4.21.95.25.42-1.57"/><path id="06057" d="m104.45,225.74l-.78,2.88-10.95-2.84-.67.03-.91.21-2.43,1.13-1.27.63-.84.43-.84.63-.15.16-.14.35-.15.23-1.11,1.1-.58.1-2.41-.81-.19-.09-.85-.73,1.2-4.39.47-.74,1.57-1.09,1.47-.77.96-.1.42.06.48.23.24-.28.4-.1,2.89.23,2.27-.56.06-.07.26-.22.61-.3.27-.04,1.27.41.36.45.13,1.08.38.44.23.13,8.34,2.2"/><path id="06091" d="m88.47,216.87l1.65-1.05.23-.83.46-.32.84-.24,3.26,2.56,3.54.88,5.09,1.35,2.56.31-1.64,6.21-8.34-2.2-.23-.13-.38-.44-.13-1.08-.36-.45-1.27-.41-.27.04-.61.3-.26.22-.06.07-2.27.56-2.89-.23-.4.1-.24.28,1.72-5.49"/><path id="06115" d="m87.07,217.5l1.4-.63-1.72,5.49-.48-.23-.42-.06-.96.1-1.47.77-1.57,1.09-.47.74-1.2,4.39-2.55.21-.76-.24h-.39s-1.2.18-1.2.18l-.43.34-.25.27-.02-2.39.8-4.77.1-.34.3-.65.11-.06,2.23.12,1.78-.13.7-.35,2.06-2.8,2.96-.1,1.42-.94"/><path id="06101" d="m75.92,221.69l-.11.06-.3.65-.1.34-.8,4.77.02,2.39.25-.27.43-.34,1.2-.17h.39s.76.23.76.23l-.42,1.57-.95-.25-1.43,4.21-2.03-.59-2.82-5.33.68-1.34-.61-2.73-.52-1.06.17-1.11,1.41-2.57,4.79,1.52"/><path id="06011" d="m71.94,218.48l-.81,1.69-1.41,2.57-.17,1.11.52,1.06.61,2.73-.68,1.34-8.63-2.42-.85-1.01-.08-.18-.61-2.33.06-1.61.65-1.91-2.36-1-.62-.62-.97-1.45-.14-.69.35-.6.71-.77,10.18,2.86.32-.75,2.23.68-.26.65,1.96.65"/><path id="06033" d="m57.51,214.39l-.71.77-.35.6.14.69.97,1.45.62.62,2.36,1-.65,1.91-.06,1.61.61,2.33.08.18.85,1.01-1.32,1.07.07,1.16-.2.3-2.06,1.74-3.05.04-2.14-5.03-1.46-1.66-.44-.71-.99-2.59-.3-1.32.04-.19.1-.33.39-.93.39-.74.76-.23.75-.83.15-.96-.1-3.16.19-.64.14-.35.5-1.09.74-.15,1.49.49.87-.05.31-.79.1-.33,2.54.73-.59,2.27-.2.63-.55,1.47"/><path id="06007" d="m71.88,208.49l-.23-.39.11-.67.71-.82,4.04,1.09.5.03.54-.28.14-.41.14-.28.26-.28.74-.54,3.11-1.93.86.23,1.1-.21.22-.13.24-.47.54.15.21,1.09.02.55-.09.31-.38.38-1.43,4.15,2.53,4.6,1.31,2.82-1.42.94-2.96.1-2.06,2.8-.7.35-1.78.13-2.23-.12-4.79-1.52.81-1.69,1.49-3.17-2.06-.54,1.37-4.15-.88-2.13"/><path id="06021" d="m56.84,204.18l15.03,4.32.88,2.13-1.37,4.15,2.06.54-1.49,3.17-1.96-.65.26-.65-2.23-.68-.32.75-10.18-2.86.55-1.47.2-.63.59-2.27-2.54-.73.53-5.11"/><path id="06063" d="m85.13,196.6l2.85.79,4.47,1.19-1.15,4.25.21.57,1.65,1.47.63.17.36-.08.15-.54,1.74-1.4.62-.18.64.17,2.96,2.22,3.9,4.58.5.65.86,3.73-.02.7-.17.65-.86,2.54-.96,1.14-5.09-1.35-3.54-.88-3.26-2.56-.84.24-.46.32-.23.83-1.65,1.05-1.4.63-1.31-2.82-2.53-4.6,1.43-4.15.38-.38.09-.31-.02-.55-.21-1.09-.54-.15,1.52-1.04.06-.06.13-.2.53-1.58-.21-1.08-.15-.03-1.2-.58-.06-.06-.06-.22v-.15s.13-1.54.13-1.54l.09-.3"/><path id="06103" d="m85.13,196.6l-.09.3-.12,1.54v.15s.06.22.06.22l.06.06,1.2.58.15.03.21,1.08-.53,1.58-.13.2-.06.06-1.52,1.04-.24.47-.22.13-1.1.21-.86-.23-3.11,1.93-.74.54-.26.28-.14.28-.14.41-.54.28-.5-.03-4.04-1.09-.71.82-.11.67.23.39-15.03-4.32-.07-.11v-1.03l.52-1.06.62-.36.19-.42.06-.75-.08-.25-.06-.43.38-3.14.33-1.16.09-.08.22-1.03v-.24s-.07-.2-.07-.2l-1.09-1.24,1.48-.17,2.41-.06,1.93.02,4.04.55,1.09.74,1.66.53.59.16,2.22.15,1.65-.06,1.49.08,2.76.39,2.44.49,3.5,1.09"/><path id="06045" d="m39.93,194.25l8.04,2.4-.17.55,10.26,3,.08.25-.06.75-.19.42-.62.36-.52,1.06v1.03l.07.11-.53,5.11-.1.33-.31.79-.87.05-1.49-.49-.74.15-.5,1.09-.14.35-.19.64.1,3.16-.15.96-.75.83-.76.23-.39.74-.39.93-.1.33-.04.19.3,1.32.99,2.59.44.71,1.46,1.66-5.38-1.59-.39,1.05-4.04-1.23-.35.77-2.52-.75-.82-1.47-1.23-2.66.98-10.12.06-.39.04-.18.33-.82.39-.85.4-.59.22-.33.31-.32.11-.15.06-.09.02-.02.4-.62.03-.16.35-2.31.06-.57v-3.58s-.02-.06-.02-.06l-.77-2.05-.42-1.11-.54-1.4"/><path id="06023" d="m55.19,165.44l2.64.78.32.46-.13,4.49-.28.27-.3.4-.53,1.05-.03.75.09.15-.09,1.12-1.26,1.29-.56.49-1.86,1.49-.52,2.66-4.71,15.8-8.04-2.4-.39-.68-3.41-6.52-.11-.29.43-4.16.06-.1,1.46-2.11,1.03-1.33.39-.44.71-.76,1.05-1.02,1.24-1.32.68-.72.52-.63.68-.99.75-1.31.36-.84-.09-.51,2.16-5.13,1.63-3.79,2.96.87,1.88.61-.35,1.19.67.89.94.27"/><path id="06105" d="m58.02,171.17l.82.66.79.76,1.27,1.9,2.31,2.44,1.35.68.33.05.39-.3.21-.37-.15-1.07,2.52-2.6,3.61-1.42,2.03,1.25-.42,2.34.34.24.28.3.05.22-.25.91-.12.2-.16.23-1.94,1.72-.63.23-.11.02-4.61,5.61-2.96,3.73-2.75,1.27-2.09,1.7-.25.82,1.09,1.24.09.2v.24s-.23,1.03-.23,1.03l-.09.08-.33,1.16-.38,3.14.06.43-10.26-3,.17-.55,4.71-15.8.52-2.66,1.86-1.49.56-.49,1.26-1.29.09-1.12-.09-.15.03-.75.53-1.05.3-.4.28-.27"/><path id="06089" d="m90.51,180.36l1.9.5-1.59,5.88-.03.77-2.14,7.76-.67,2.11-2.85-.79-3.5-1.09-2.44-.49-2.76-.39-1.49-.08-1.65.06-2.22-.15-.59-.16-1.66-.53-1.09-.74-4.04-.55-1.93-.02-2.41.06-1.48.17.25-.82,2.09-1.7,2.75-1.27,2.96-3.73,4.61-5.61.11-.02.63-.23,1.94-1.72.16-.23.12-.2.25-.91-.05-.22-.28-.3-.34-.24,3.47.93,4.77,1.38,9.2,2.56"/><path id="06035" d="m114.58,186.75l-1.83,7.13-2.06,8.22-1.04,4.01-.33,1.29v.02s-1.13,4.28-1.13,4.28l-1.73,6.51-.35,1.31-2.56-.31.96-1.14.86-2.54.17-.65.02-.7-.86-3.73-.5-.65-3.9-4.58-2.96-2.22-.64-.17-.62.18-1.74,1.4-.15.54-.36.08-.63-.17-1.65-1.47-.21-.57,1.15-4.25-4.47-1.19.67-2.11,2.14-7.76.03-.77,1.59-5.88,22.16,5.88"/><path id="06049" d="m95.48,162.19l9.3,2.6,3.05.82h.02l6.03,1.6.65.17,4.74,1.2-4.7,18.16-22.16-5.88-1.9-.51,1.5-5.49,2.09-7.76-.08-.05-.02-.07.88-3.23.16-.55.44-1.01"/></svg>