<?xml version="1.0" encoding="UTF-8"?><svg xmlns="http://www.w3.org/2000/svg" viewBox="0 0 989.98 627.07"><path id="08083" d="m307.44,307.15l-.79.69-1.29,3.34-2.82,1.99-.14.19-1.54,2.52-2.43,4.37-.24.66-12.03-1.61,1.57-11.15,2.72-3.06,10.9,1.44,2.06.23,1.57.09,2.44.3"/><path id="08067" d="m307.44,307.15l8.78,1.08-1.78,14.71-16.24-2.03.24-.66,2.43-4.37,1.54-2.52.14-.19,2.82-1.99,1.29-3.34.79-.69"/><path id="08099" d="m402.52,301.94l12.48.8v.14s-.73,12.12-.73,12.12l-.13,2.18-12.73-.84.29-4.14h.13l.03-.33.67-9.92"/><path id="08011" d="m402.52,301.94l-.67,9.92-.03.33h-.13l-.29,4.14-5.92-.43-5.91-.45,1.2-14.37,11.76.85"/><path id="08061" d="m395.44,293.39l1.97.09,8.02.62,4.39.25,5.68.38-.5,8.01-12.48-.8-11.76-.85-1.82-.13.4-5.82.76-.1,3.78.29,1.39.07.15-2.02"/><path id="08017" d="m416.12,284.74l-.49,8.08-.13,1.9-5.68-.38-4.39-.25-8.02-.62-1.97-.09.92-9.81,1.98.1,5.93.45,3.82.2,2.6.08,5.44.33"/><path id="08063" d="m397.42,271.38l6.18.4,13.23.76v.13s-.6,10.07-.6,10.07l-.11,1.99-5.44-.33-2.6-.08-3.82-.2-5.93-.45-1.98-.1.15-2.04.42-3.69.5-6.47"/><path id="08125" d="m407.43,251.83l10.65.68-.14,2.1-.51,8-.6,9.93-13.23-.76.52-6.9.18-3.14.75-8.06.39-1.99,1.99.14"/><path id="08121" d="m388.56,260.56l4.07.32.27-3.82.38-4.23.26-1.99,11.89.84-.39,1.99-.75,8.06-.18,3.14-.52,6.9-6.18-.4-9.7-.77.84-10.05"/><path id="08095" d="m418.54,245.35l-.08,1.21-.39,5.96-10.65-.68.75-7.16,10.37.68"/><path id="08115" d="m409.1,238.85l9.8.66-.36,5.84-10.37-.68.37-5.85.56.03"/><path id="08075" d="m392.69,237.65l3.3.26,12.55.92-.37,5.85-.75,7.16-1.99-.14-11.89-.84.17-1.98-2.03-.19.35-4.12h.1l.53-6.38.02-.54"/><path id="08087" d="m388.56,260.56l-7.75-.64,1.08-12.08,5.62.48,2.19.22,1.98.13,2.03.19-.17,1.98-.26,1.99-.38,4.22-.27,3.82-4.07-.32"/><path id="08009" d="m395.48,315.91l5.92.43,12.73.84-.39,5.9-.59,9.16-5.7-.4-9.45-.78-2.31-.18-1.53-.11.2-2.89.52-5.92h.14l.43-6.05"/><path id="08089" d="m390.77,301.09l-1.2,14.37-11.78-.97.13-2.1.86-9.51.44.17,1.7.51,1.84.43,3.82.31.16-1.32,1.91.1.31-2.12,1.82.13"/><path id="08025" d="m379.59,294.21l9.76.94-.4,5.82-.31,2.12-1.91-.1-.16,1.32-3.82-.31-1.84-.43-1.7-.51-.44-.17.81-8.68"/><path id="08073" d="m397.42,271.38l-.5,6.47-.42,3.69-.15,2.04-.92,9.81-.15,2.02-1.39-.07-3.78-.29-.76.1-9.76-.94.65-8,5.95.54.57-6.01.84-10.14.13.02,9.7.77"/><path id="08039" d="m380.24,286.21l.58-5.99-10.78-.98.96-10.06,16.59,1.42-.84,10.14-.57,6.01-5.95-.54"/><path id="08005" d="m367.43,264.77l1.48.15,1.16.11,4.61.47,9.65.76,3.73.33-.34,4.01-.13-.02-16.59-1.42-6.81-.64.04-1.29.02-.2v-.03h.02l2.95.02.32-.71-.13-1.2.02-.2"/><path id="08123" d="m384.47,236.97l8.23.67-.02.54-.53,6.38h-.1l-.35,4.12-1.98-.13-2.19-.22-5.62-.48-1.08,12.08-14.43-1.3.07-.57-.73-.07-.1.57-.53-.04.53-6.05.17-2.01,1.92.18.22-2.03,1.24-12.93,15.31,1.3"/><path id="08001" d="m365.98,258.6l14.83,1.32,7.75.64-.51,6.04-3.73-.33-9.65-.76-4.61-.47-1.16-.11-1.48-.16.63-.78,1.93.15.37-1.23,2.03.15.42-1.76-2.14-.16-1.58,1.94-1.72.36-2.76-.11.27-2.84.54-.26.17-1.21.32.04"/><path id="08031" d="m364.61,263.33l2.75.13,1.73-.37,1.59-1.95,2.12.17-.44,1.73-2.01-.15-.37,1.22-1.93-.16-.63.77-.02.39.13,1.2-.32.71-2.95-.02.07-.84.03-.33.23-2.51"/><path id="08035" d="m364.19,268.54l6.81.64-.96,10.06-6.53-.62-5.21-.5,5.9-9.59"/><path id="08041" d="m380.24,286.21l-.65,8-15.8-1.35.27-3,.19-1.4.19-1.41-2.06-.29.02-1.33.72.05-.11-.83.39-3.71.11-2.32,6.53.62,10.78.98-.58,5.99"/><path id="08119" d="m358.27,278.12h.02l5.21.5-.11,2.32-.39,3.71.11.83-.72-.05-.02,1.33,2.06.29-.19,1.41-.19,1.4-2.98-.23-2.31-.23.06-.55-.75-.66-.77-.09.96-9.97"/><path id="08101" d="m363.79,292.86l15.8,1.35-.81,8.68-.86,9.51-5.05-2.36-5.13-2.39-6.16-.16-.74-.57-.31-.29.76-7.9,1.94.18.55-6.04"/><path id="08071" d="m372.87,310.03l5.05,2.36-.13,2.1,11.78.97,5.91.45-.43,6.05h-.14l-.52,5.92-.2,2.89-16.75-1.25-13.16-1.1-4.87-.45-2.8-.32.68-6.87h.7l6.87-1.94.78-.62,3.26-3.72,2.17-3.21,1.81-1.28"/><path id="08055" d="m352.9,306.33l.96.24.1-.02,2.1-.55,2.8-1.33,1.67,1.94.31.29.74.57,6.16.16,5.13,2.39-1.81,1.28-2.17,3.21-3.26,3.72-.78.62-6.87,1.94h-.7l.62-2.71-.67-4.65-1.69-1.2-.11-.02-1.28.23-1.35.49-.86.71.91-3.95.05-3.36"/><path id="08023" d="m346.79,318.26l5.16-4.62.86-.71,1.35-.49,1.28-.23.11.02,1.69,1.2.67,4.65-.62,2.71-.68,6.87-1.19-.11-9.03-.92-.71-.79-.1-.25-.02-.21.11-.46.5-.87.36-1.14.43-2.77-.16-1.88"/><path id="08021" d="m341.55,316.69l-.12,1,5.36.56.16,1.88-.43,2.77-.36,1.14-.5.87-.11.46.02.21.1.25.71.79-5.22-.54-8.52-.88-.18-.52-2.37-4.95-.51-.35.46-4.03,11.51,1.33"/><path id="08003" d="m352.85,309.68l-.91,3.95-5.16,4.62-5.36-.56.12-1,.86-8.01,10.45,1.01"/><path id="08105" d="m330.88,305.4l1.9.23-.21,1.99,9.83,1.06-.86,8.01-11.51-1.33-.59-.08.3-2.72.64-3.24.48-3.93"/><path id="08027" d="m347.98,297.22l4.45.47,3.67.49,5.2.53-.76,7.9-1.67-1.94-2.8,1.33-2.1.55-.1.02-.96-.24-.47-.7-1.65-2.7-.93-2.72-.24-.51-1.63-2.48"/><path id="08043" d="m357.31,288.09l.77.09.75.66-.06.55,2.31.23,2.98.23-.82,9.04-1.94-.18-5.2-.53-3.67-.49-4.45-.47-3.37-4.58,1.99-1.38.52-1.05.21-.87v-.11s-.08-.33-.08-.33l-.52-1.41-.06-.07-.32-.23-.42-.17,4.13.4,5.12.45,2.11.22"/><path id="08109" d="m340.36,292.74l4.26-.1,3.37,4.58,1.63,2.48.24.51.93,2.72,1.65,2.7.47.7-.05,3.36-10.45-1.01-9.83-1.06.21-1.99-1.9-.23-.12-.94-2.93-2.35-.19-.15-1.29-.34-.55.28-.08.09.51-4.4.76-6.41,13.39,1.57"/><path id="08015" d="m336.11,277.46l6.81.79.1.44,1,2.35.72.29h.09l.09-.1.05-.11.12-.03.42.06.97.92.3.6.25,2.21-.62,1.63-.48.49.42.17.32.23.06.07.52,1.41.09.33v.11s-.22.87-.22.87l-.52,1.05-1.99,1.38-4.26.1-1.29-1.8-1.37-3.82-.1-.84.62-2.77.16-.35.16-.1,1.52-1.57-2.46-.38-2.01-2.32.53-1.34"/><path id="08051" d="m322.28,271.23l.15,1.36.34.64,1.09,1.4,3.57.42.24.03,1.08,1.28-.02.44.31.54,1.06.97,1.39.51.45.04.34-.17.69-.84.09-.37.84-.21.12.02,1.54,1.51,2.01,2.32,2.46.38-1.52,1.57-.16.1-.16.35-.62,2.77.1.84,1.37,3.82,1.29,1.8-13.39-1.57-.76,6.41-10.12-1.21-.75-3.7,2.4.3,1.01-8.44,1.53-12.64,1.98-.66"/><path id="08097" d="m327.51,269.29l12.04,1.46-3.44,6.71-.53,1.34-1.54-1.51-.12-.02-.84.21-.09.37-.69.84-.34.17-.45-.04-1.39-.51-1.06-.97-.31-.54.02-.44-1.08-1.28-.24-.03-3.57-.42-1.09-1.4-.34-.64-.15-1.36-.34-2.6,5.57.67"/><path id="08065" d="m343.44,270.77l1.25.14-.35.36-.67,1.16-.13.69-.09,1.6-.02,1.66-.28,1.4-.24.47-6.81-.79,3.44-6.71,3.9.02"/><path id="08093" d="m358.06,267.93l-.98,10.07,1.19.12-.96,9.97-2.11-.22-5.12-.45-4.13-.4.48-.49.62-1.63-.25-2.21-.3-.6-.97-.92-.42-.06-.12.03-.05.11-.09.1h-.09l-.72-.29-1-2.35-.1-.44.24-.47.28-1.4.02-1.66.09-1.6.13-.69.67-1.16.35-.36,2.04.53,3.08-3.11.69-1.13,7.55.74"/><path id="08059" d="m364.88,260.49l-.14,1.42-.14,1.42-.23,2.51-.03.33-.07.84h-.02v.03l-.02.2-.04,1.29-5.9,9.59h-.02l-1.19-.12.98-10.07.43-4.17.39-3.83,4.97.48-.06.21.67.07"/><path id="08047" d="m354.07,259l3.05.32h1.11l.68.11-.04.51-.39,3.83-2.54-1.05-.47-.62-.85-.88-1.01-.39.44-1.83"/><path id="08019" d="m353.63,260.83l1.01.39.85.88.47.62,2.54,1.05-.43,4.17-7.55-.74,1.04-.83.02-.13-.08-.46-.17-.17-.42.03-1.57-.83-.25-.29.09-.59.35-.59,1.64-1.21,1.05-.11.39-.17.88-.72.14-.29"/><path id="08117" d="m340.83,257.77l.68.09,2.83,1.03,1.68,1.38.63.89.19,1.01.06.92.47.87.51.18.9-.02.39-.19-.09.59.25.29,1.57.83.42-.03.17.17.08.46-.02.13-1.04.83-.69,1.13-3.08,3.11-2.04-.53-1.25-.14-.51-3.35,1.79-1.29-3.41-3.83-.52-2.65-.09-.68.13-1.2"/><path id="08037" d="m337.49,257.4l3.34.37-.13,1.2.09.68.52,2.65,3.41,3.83-1.79,1.29.51,3.35-3.9-.02-12.04-1.46,1.49-12.74,1.43.18,7.06.67"/><path id="08013" d="m354.07,259l1.17-7.51,1.77.16,2.58.34,6.04.48-.53,6.05-.15,1.3-.61-.06-.46.65-4.99-.47.04-.51-.68-.11h-1.11l-3.05-.32"/><path id="08049" d="m337.49,257.4l.2-1.73.78-7.88-.07-2.43.54,1.5.14.19,2.68.99,3.62.91.72.02,3.82-.19,1.29-.96,1.07-1.92,2.96,5.57-1.17,7.51-.44,1.83-.14.29-.88.72-.39.17-1.05.11-1.64,1.21-.35.59-.39.19-.9.02-.51-.18-.47-.87-.06-.92-.19-1.01-.63-.89-1.68-1.38-2.83-1.03-.68-.09-3.34-.37"/><path id="08069" d="m347.74,233.52l15.69,1.61,5.73.55-1.24,12.93-.22,2.03-1.92-.18-.17,2.01-6.04-.48-2.58-.34-1.77-.16-2.96-5.57-.87-2.05-.66-2.98-.8-2.11-.2-.39-1.67-2.8-.34-2.07"/><path id="08057" d="m336.33,232.14l9.18,1.12,2.23.26.34,2.07,1.67,2.8.2.39.8,2.11.66,2.98.87,2.05-1.07,1.92-1.29.96-3.82.19-.72-.02-3.62-.91-2.68-.99-.14-.19-.54-1.5-.18-.74-.32-2.45v-.84s1.19-3.49,1.19-3.49l.16-.08.3-.29.06-.3-.02-.33-.36-1-.21-.31-.31-.32-1.2-.66-.13-.06-.1.07-.27.14-.81-.77-.22-.78v-.36s.26-.59.26-.59l.08-.07"/><path id="08107" d="m328.43,231.21l7.89.93-.08.07-.27.59v.36s.23.78.23.78l.81.77.27-.14.1-.07.13.06,1.2.66.31.32.21.31.36,1,.02.33-.06.3-.3.29-.16.08-1.18,3.49v.84s.31,2.45.31,2.45l.18.74.07,2.43-.78,7.88-.2,1.73-7.06-.67.36-3.99.35-3.08-6.96-.79.25-2.56.82-4.74,1.13-1.13.57-.02.44.05.26-2.16.78-7.11"/><path id="08081" d="m318.14,229.97l10.29,1.24-.78,7.11-.26,2.16-.44-.05-.57.02-1.13,1.13-.82,4.74-.25,2.56v.07s-.14,0-.14,0l-4.71-.65-7.03-.84-16-2.15,1.41-9.88,1.08-7.96,13.67,1.84,5.69.68"/><path id="08103" d="m324.18,248.88l6.96.79-.35,3.08-4.85-.55-.29,2.08-.22,1.96-1.73-.28-.48,2.04-5.15-.63-3.68-.39-.38,3.01-4.87-.64-3.96-.15-1.89-.18-.15.59-5.95-.8-.06-.25-2.61-.35,1.79-12.91,16,2.15,7.03.84,4.71.65h.14s0-.06,0-.06"/><path id="08045" d="m330.79,252.75l-.36,3.99-1.43-.18-1.49,12.74-5.57-.67-28.36-3.69.42-3,.51-3.74,2.61.35.06.25,5.95.8.15-.59,1.89.18,3.96.15,4.87.64.38-3.01,3.68.39,5.15.63.48-2.04,1.73.28.22-1.96.29-2.08,4.85.55"/><path id="08029" d="m320.3,271.89l-1.53,12.64-15.52-1.95.48-3.7,4-1.18,3.66-3.22,2.11-.12,1.66.35,1.66-.5.86-.86.59-.38,2.03-1.07"/><path id="08077" d="m293.58,264.93l28.36,3.69.34,2.6-1.98.66-2.03,1.07-.59.38-.86.86-1.66.5-1.66-.35-2.11.12-3.66,3.22-4,1.18-.48,3.7-.51,3.86-12.05-1.62.7-5.05.69-4.23.13-.88.61-4.17.77-5.55"/><path id="08085" d="m303.24,282.57l15.52,1.95-1.01,8.44-2.4-.3.14-.54-.07-.15-8.82-1.1-.02.25.61,1.62,1.33.17.47.22.59.59.15.19-.14,1.04-.22.47-.34-.04-19.15-2.54.79-8.01,12.05,1.62.51-3.86"/><path id="08111" d="m312.39,301.56l.22.19.41.21h.09l.6-.18.27-.13.24-.22v-.06s-.05-.19-.05-.19v-.12l.11-.65,1.3.16.63,7.67-8.78-1.08.22-.64.64-.8.99-.18.46-.82.08-.44,2.56-2.72"/><path id="08033" d="m309.82,304.28l-.08.44-.46.82-.99.18-.64.8-.22.64-2.44-.3-1.57-.09-2.06-.23-10.9-1.44-2.72,3.06,1.28-9.09,3.96.55.07-.19.43-.08,9.61,1.29.27.46.1.37v.42l.26.55,2.82-.14.79-.23.44.17,1.15.93.9,1.12"/><path id="08113" d="m289.89,292.83l19.15,2.54-.02.17.17.7,1,.2-.36,1.98.14.36.11.11.57.38.59.19.47.33.6.66.23.56-.1.43-.07.12-2.56,2.72-.9-1.12-1.15-.93-.44-.17-.79.23-2.82.14-.26-.55v-.42l-.1-.37-.27-.46-9.61-1.29-.43.08-.07.19-3.96-.55.86-6.24"/><path id="08091" d="m315.35,292.67l.75,3.7-.11,1.05.89.81-1.15,1.11-.14,1.23-1.3-.16-.11.65v.12l.06.19v.06s-.25.22-.25.22l-.27.13-.6.18h-.09l-.41-.21-.22-.19.07-.12.1-.43-.23-.56-.6-.66-.47-.33-.59-.19-.57-.38-.11-.11-.14-.36.36-1.98-1-.2-.17-.7.02-.17.34.04.22-.47.14-1.04-.15-.19-.59-.59-.47-.22-1.33-.17-.61-1.62.02-.25,8.82,1.1.07.15-.14.54"/><path id="08053" d="m316.1,296.37l10.12,1.21-.51,4.4-1.28-.13-1.23.24-.68,5.1-.02,2.83-.51,3.96-6.36-.75.6-4.99-.63-7.67.14-1.23,1.15-1.11-.89-.81.11-1.05"/><path id="08079" d="m325.71,301.98l.08-.09.55-.28,1.29.34.19.15,2.93,2.35.12.94-.48,3.93-.64,3.24-.3,2.72-.02.18-7.55-.78.09-.71.51-3.96.02-2.83.68-5.1,1.23-.24,1.28.13"/><path id="08007" d="m315.62,313.23l6.36.75-.09.71,7.55.78.02-.18.59.08-.46,4.03.51.35,2.37,4.95.18.52-2.55-.27-4.58-.51-2.34-.45-7.61-.9-1.1-.14,1.17-9.72"/><path id="08014" d="m363.78,260.62l.08-.2.47-.66.63.07.13-1.31.54.03.1-.57.71.06-.06.57-.41-.03-.06.46-.32-.03-.17,1.21-.95.44-.68-.06"/></svg>