<?xml version="1.0" encoding="UTF-8"?><svg xmlns="http://www.w3.org/2000/svg" viewBox="0 0 989.98 627.07"><g><path id="09001" d="m904.53,185.4l-.55-3.18.47.1.14.17.9,1.89.32.53.15.26.4.64.74-.59.36.42.78.25h.24l.03-.05.63.23,1.35.44,2.99,2.12-.06,1.12-.21.48-.04.19.05,1.09.05.11.27.17-1.16.31-2.91,2.2-3.99,3.39-.1.19-.05.25-1.8-2.31,1.25-1.28,2.26-2.33-1.61-1.48-.28-1.62-.63-3.68"/><path id="09003" d="m910.38,171.78l3.18-.75.23.88.83-.25.05-.9,3.98-.93.77,1.89-.5.14.48,1.91.32-.07.15,1.14.49-.2,1.31,2.92.36.17.56.75.06.13.1.53-.83.64-1-1.25-1.99.66-1.36.64-.36,1.25-2.93,1.1-.56-1.77-.68.26-1.44-3.43,1.08-.46.09-4-2.31.73-.06-1.72"/><path id="09005" d="m909.64,171.95l.74-.17.06,1.72,2.31-.73-.09,4-1.08.46,1.44,3.43-1.78,2.22-.66.34.34.96-2.75.87-.06.31.04.19.15.15.22.14-.03.05h-.24l-.78-.25-.36-.42-.74.59-.4-.64-.15-.26-.32-.53-.9-1.89-.14-.17-.47-.1-1.57-8.74,7.22-1.53"/><path id="09007" d="m921.9,179.77l.98.86,1.69-.53.78,2.04-1.87.79,2.3,3.07-3.18,1.31-2.01-2.49-.75-.84-.24-.15-.62.31-.93.29-.3-1.55-.59-1.79.36-1.25,1.36-.64,1.99-.66,1,1.25"/><path id="09009" d="m917.18,181.07l.59,1.79.3,1.55.93-.29.62-.31.24.15.75.84,2.01,2.49-.88-.05-.56.14-2.31.7-1.45.61-.79.12-.37-.46-.14.06-1.96,2.28-.27.37-.31.59-.02.09v.02l-.27-.17-.05-.11-.05-1.09.04-.19.21-.48.06-1.12-2.99-2.12-1.35-.44-.63-.23-.22-.14-.15-.15-.04-.19.06-.31,2.75-.87-.34-.96.66-.34,1.78-2.22.68-.26.56,1.77,2.93-1.1"/><path id="09011" d="m933.05,176.59l.96,3.94-.08.07h-.27s-.27.35-.27.35l.05.32.21.26.04.45.2.27.04.22-.23.3-.11.08-.1.2-.51-.21-.99.3-.63.51-.35.28-1.29.14-.34.62-.45.1-.47-.07-.29-.22-.3.12.02.63-.87.4-.91.35-.17.02-.17-.03-2.3-3.07,1.87-.79-.78-2.04-1.69.53-.98-.86.83-.64,1.26-.6.93-2.64,1.09.63.59.29,3.54-.35,1.5-.62,1.16-.2.25.96m-2.16,8.81l.19-.61h.19s.11.08.11.08l.13-.37.58-.32.21-.16.26-.1-.06.3-.33.25-.46.33-.22.4h-.23s-.37.19-.37.19Z"/><path id="09013" d="m925.38,168.25l.45,1.55-1.59.4-.35.11.69,2.77.79-.18.69,1.75h-.62s.14.58.14.58l-1,.25.35.41-.93,2.64-1.26.6-.1-.53-.06-.13-.56-.75-.36-.17-1.31-2.92-.49.2-.15-1.14-.32.07-.48-1.91.5-.14-.77-1.89,6.18-1.46.56-.11"/><path id="09015" d="m930.49,167.42l1.81,6.31.5,1.9-1.16.2-1.5.62-3.54.35-.59-.29-1.09-.63-.35-.41,1-.25-.14-.58h.62s-.69-1.75-.69-1.75l-.79.18-.69-2.77.35-.11,1.59-.4-.45-1.55.71-.15,4.29-1.02.11.34"/></g></svg>