<?xml version="1.0" encoding="UTF-8"?><svg xmlns="http://www.w3.org/2000/svg" viewBox="0 0 989.98 627.07"><path id="10001" d="m878.23,244.41l3.07-1.1.22-.8.65-.59,1.52.9.77.99.14.21.42,1.09.05.38-.14.62.65,2.3,1,.47.68.57.4,1.08-1.34.75-1.4,1-.29.69-.06.35-1,.91-2.42.63-2.61-9.3-.32-1.13"/><path id="10003" d="m879.7,231.28h-.21s-.21.04-.21.04l-.21.04-.22.05-.22.07-.23.08-.28.13-.26.14-.24.15-.23.16-.21.17-.2.18-.18.19-.16.2-.15.21-.13.22-.12.23-.11.24-.09.25-.08.26-.07.27-.05.28-.17.05.19.7.02.12.02.12.03.11.06.21.04.11.04.11.04.11,1.17,4.36.47,1.78.51,1.8,3.07-1.1.22-.8.65-.59-1.1-1.51-.68-.53-.18-.64.17-1.73-1.03-.55-.12-.56.08-.29.15-.38.42-.4.36-.76.19-.9.62-1.29.59-.71-.19-.07-.19-.07-.19-.06-.19-.05-.19-.05-.2-.04-.2-.03-.2-.02h-.2s-.2,0-.2,0Zm.21,4.85l.08.46.31-.03-.12-.56-.27.13Z"/><path id="10005" d="m882.38,259.2l-1.22-4.36,2.42-.63,1-.91.06-.35.29-.69,1.4-1,1.34-.75.14.62.19.23,1.6,1.28.91.69.64.25.47.09.35-.1.25-.19.04-.14.45.94,1.08,3.15.79,2.71.19.79-5.1,1.11-.26.06-.68.15-.28.05-.24.05h-.07s-.9.18-.9.18l-.37.07-1.57.3h-.06l-1.23.21-.54.09-.21-.73-.19-.66-.24-.87-.47-1.67"/></svg>