<?xml version="1.0" encoding="UTF-8"?><svg xmlns="http://www.w3.org/2000/svg" viewBox="0 0 989.98 627.07"><path id="12005" d="m732.96,472.43l.83,8.36.73,6.32-2.07-.63-.45-.18-.14-.09-.55-.39-.69-.64-4.35-2.52-.32-.17-.23-.13-.22-.12-.35-.17-.75-.39-.32-.15-.26-.12-.31-.13-.37-.17-.33-.12-1.19-.43-.23-2.76.49-.54,2.13-.92,6.02-.58,1.2-.13-.3-2.98,1-.11,1-.1"/><path id="12063" d="m729.82,462.83l9.5-1.16,3.47,6.28-1.05,2.55-3.24.35-1.43.08.03.96-1.5.25-2.64.27-1,.1-.5-4.98-1.52-.85-1.88.19,1.57-4.02.2-.03"/><path id="12015" d="m820.18,542.4l.84,5.95-10.15,1.39.04-.62-.22-1.26-.17-.71-.58-.05-.16-.82.55-.21-.07-.25-.3-.15-.64.11-.18.1-.97.85-.1.16.95,1.84v1.08s-2.5.23-2.5.23l-2.64-3.22,2.46-.34-.19-1.35-.09-.63,4.04-.57,10.1-1.55Z"/><path id="12071" d="m821.01,548.35l-10.15,1.39-.29,2.57-.85-.83-1.12.24.17.53.91.76,1.08,2.62.05.69.72-.14.09-.51.31-.3.9.29.05.4.78.13,1.43.92,1.04.96.65,1.03.59.21,3.31-.53-.47-2.33,2.08-.33-.35-2.03-.93-5.76Zm-12.01,1.47l-2.51.23v.02s.06.09.06.09l.1.3.1.31.08.62.24-.07-.04-.56.13-.44.13-.22h.05l.23.21.88-.14.06-.1.49-.25Zm-2.14,2.05l.25.78,2.12,3.91.16.28.09.09.1.08,1.05.56.63.17.32.02.16-.02.23-.11.92-.76v-.05l-1.06-.21-.28.13-.2.28-1.33-.32-.38-.22-.27-.26-1.93-3.62-.17-.97-.41.23Z"/><path id="12051" d="m821.01,548.35l8.07-1.22,4.63-.74.54-4.47,2.35,14.03.29,1.66-7.97,1.4-.66-3.79-.34-2.12-5.98,1.01-.93-5.76"/><path id="12021" d="m836.89,557.61l1.15,6.26.63,3.89-9.74,1.6-.14-.29-.1-.1-.97-.54-.52-.22-.15-.05-2-.43h-.25l-2.4.45-.19.13-.17.21-.02.24-.06.43-.08.28-.14-.02-.11-.11-1.31-1.85-1.81-3.08-.22-.84-.14-.57-.53-1.86-.45-1.26-.35-.71-.03-.04.59.21,3.31-.53-.47-2.33,2.08-.33-.35-2.03,5.98-1.01.34,2.12.66,3.79,7.97-1.41"/><path id="12087" d="m838.67,567.75l-9.74,1.6.3,1.78.7.22,1.45,1.42,1.51,2.3-.27.61,1.14.72.58,1.66.87.6v.22s-.03.15-.03.15l-.27-.06-.12.06-.14.22-.05.19-.09.81-.03,1.01.05.53.85,1.21.18.14.92.53.34.14,1.66-.39,1.67-.66,1.25-1.01h-.02l-.22-.31-.93-3.78-1.58-9.89Zm14.26,8.04l-1.02,1.64-1.01.62.58.39.05.96-.91.85.23.59-.36.52-.65.06.32.82-.41.33-.82-.45-.07.29.62.24-.03.16-.39,1.08-.62.76-.45-.05-.02.78-.49.38-.46.4-.66,1.01v.11s-.01.02-.01.02l.05.05,1.63-1.56.1-.12,1.04-1.47.8-1.3,1.46-1.72.3-.59.13-.36-.15-.33.04-.14,1.25-3.2.29-.56.13-.09h0s-.48-.11-.48-.11Zm-7.33,11.85l-1.79,1.36-.99.99-.09.11.02.02.09-.02,1.02-.37.84-.72.84-.75.23-.5-.16-.1Zm-4.03,3.12l-2.46,1.37-1.78,1,.04.07-.16.2.45.26.71-.34,1.21-.83.91-.83h0s1.1-.52,1.1-.52l.11-.13-.11-.24-.02-.02Zm-8.73,1.95l-.65.35-.15.25.68.18.99.17-.04-.45-.84-.5Zm-1.81.73l-.43.42-.43-.32-.02.85-.47-.02-.59.22-.41.55-.5.07-.24.27-.02.24-1,1.01-.79.67-.3.17-.73.34-.09-.03-.12-.12-.18.02-.96.24-.31.42-.04.14.09.38.05.03.51-.12,1.42-.07,1.35-.82,1.93-1.12.61-.16v-.94s.43-.09.43-.09h0l.11.45,2.09-.16,1.24-.61.38-.24-.06-.21-.27-.21-.12-.47-.98-.29-.44-.13-.71-.35Zm3.02,1.63l.85-.23-.1-.37h-.49s-.26.6-.26.6Zm-17.01,3.97l-.72.04-.34.55.2.41,1-.15-.14-.85Z"/><path id="12086" d="m853.4,575.9l-.48-.1.22-1.06.79-2.64.15-.28h.1l.15.79-.36,1.69-.56,1.61m-15.36-12.04l3.89-.7.18.55,4.96-.81,2.85-.3.04-.45,1.37-.31.8-.15,1.5-.3.02.06.21,1.27.24,1.68.04.52.05,1.04-.11.52-.1.24-.13.45-.02,1.6-.48-.34-.04-1.38-.2-.3-.26.08-.6.37-.2.23-.06.18-1.06,4.41-.09.78.08.47.58,1.76.14.13h.22l.1.11-.03.26-.39.86-.87,1.3-.05.05-.55.61.02.68-.75.12-.43.47-.37.73-1.13-.64-.81.05-.32,1.33-.84.61-.88.09-.21.6-.55.1-.45-.5-1.92-.25h-.02l-.22-.31-.93-3.78-1.58-9.89-.63-3.89"/><path id="12011" d="m836.6,555.94l11.98-1.98.98-.16,3.64-.3.42,7.9-1.5.3-.8.15-1.37.31-.04.45-2.85.3-4.96.81-.18-.55-3.89.7-1.15-6.26-.29-1.66"/><path id="12099" d="m834.26,541.91l10.22-1.66.21-.03,4.74-.75,1.22-.53.36.79.39.84.34.74.54,1.36.34,2.15.28,1.99.1.98.23,5.33-.03.36-3.64.3-.98.16-11.98,1.98-2.35-14.03"/><path id="12115" d="m809.51,539.99l.57,3.96-4.04.57.09.63.19,1.35-2.46.34-3.63-5.49-.22-.3-.31-.41-.19-.27-.92-1.13-.52-.53-1.09-1.09,7.96-1.06.56,4,4.02-.56"/><path id="12027" d="m819.1,535.48l1.08,6.92-10.1,1.55-.98-6.9,4.01-.56,2.21-.41,3.78-.59"/><path id="12043" d="m832.18,536.44l1.52,1.19.56,4.28-.54,4.47-4.63.74-8.07,1.22-.84-5.95,6.03-.91-.32-1.99,1.92-.28-.22-2.03,4.59-.75"/><path id="12085" d="m847.11,532.79l3.54,6.16-1.22.53-4.74.75-.21.03-10.22,1.66,3.53-4.35-.2-1.89,5.33-.88,2.65-.44-.2-1.29,1.74-.28"/><path id="12111" d="m836.27,527.75l7.25-1.17,3.59,6.21-1.74.28.2,1.29-2.65.44-5.33.88-1.33-7.92"/><path id="12061" d="m831.48,522.42l7.26-1.16,1-.93.11-.14,3.67,6.4-7.25,1.17-1.98.31-.32-1.9-1.93.33-.56-4.07"/><path id="12093" d="m826.59,527.34l5.45-.85,1.93-.33.32,1.9,1.98-.31,1.33,7.92.2,1.89-3.53,4.35-.56-4.28-1.52-1.19-1.74-1.73-2.02-1.56-2.9-2.68.67-1.09.4-2.03"/><path id="12055" d="m818.05,528.59l8.54-1.24-.4,2.03-.67,1.09,2.9,2.68,2.02,1.56,1.74,1.73-4.59.75.22,2.03-1.92.28.32,1.99-6.03.91-1.08-6.92-1.05-6.89"/><path id="12049" d="m808.1,530.09l9.95-1.5,1.05,6.89-3.78.59-2.21.41-4.01.56-1-6.96"/><path id="12081" d="m797.96,531.6l10.14-1.5,1,6.96.42,2.94-4.02.56-.56-4-7.96,1.06-1.16-1.09-.65-1.2.53-.25.69-.45,1.35-2.16.08-.17.14-.7"/><path id="12103" d="m794.3,519.94l.72,4.67-1.36.38-.07.07-.05.18.12.26.23.15.53.23,1-.17.08.64.58.25.82-.35.1.58-.6.33.33.66-.71,1.09.2,1.06-.38.64-1.37.38.04.74.28.28.21.63-.67.19-.32-2.11-.87-1.34-1.34-1.17-.89-1.46.92-1.52v-.05s.11-1.19.11-1.19l.06-1.04-.19-1.63-.17-.38-.11-.16-.35-.41,3.1-.46"/><path id="12057" d="m794.3,519.94l11-1.55,1-.14,1.07,6.92.72,4.93-10.14,1.5,2.04-3.04.04-.09.45-1.09.1-.59-.33-1-.29-.38-.9-.04-.7-.36.12,1.45.31.35.06.61-.82.06-.82-.63.26-.45-.57-2.08h-.73l-.6.11-.57.16-.72-4.67"/><path id="12053" d="m792.74,508.13l4.56-.66.11.65,3.1-.49.04.45.27.37.81.91.42.25,2.58.64.67,1.05-3.99.58.14.99-7.77,1.15-.77.11-.18-6"/><path id="12101" d="m805.31,511.3l.54,3.77.12,1.27-.94.22.28,1.83-11,1.55-3.1.46,1.72-6.27.77-.11,7.77-1.15-.14-.99,3.99-.58"/><path id="12097" d="m813.74,513.07l15.95-2.5.39,2.27.56,3.65-.13.03.96,5.91.56,4.07-5.45.85-.18-.8-.14-.57-1.05-1.56-.6-.86-2.11-.35-1.54-2.46-1.25-.47-1.06-1.18,1.48.35.76-1.26-2.19.15-.26-1.2-1.36.15-.14-1.28-.88-1.24-2.04.27-.3-1.98"/><path id="12105" d="m813.74,513.07l.3,1.98,2.04-.27.88,1.24.14,1.28,1.36-.15.26,1.2,2.19-.15-.76,1.26-1.48-.35,1.06,1.18,1.25.47,1.54,2.46,2.11.35.6.86,1.05,1.56.14.57.18.8-8.54,1.24-9.95,1.5-.72-4.93-1.07-6.92-1,.14-.28-1.83.94-.22-.12-1.27.82-.39.34.35h.66s.05-1,.05-1l6.04-.96"/><path id="12095" d="m817.1,502.41l-.65,1.86.07.51.17,1.1,2.71-.31.12.52,6.72-1.12,2.37,2.32,1.08,3.28-15.95,2.5-1.51-9.76.19-.18.19-.04.28-.04,4.2-.64"/><path id="12117" d="m817.1,502.41l.61-2.26,1.09.86,2.01-.22.59.81.42.07.12-.02.66-.32.2-.45,1.29-.02.19,1.26.66.83,1.3,2.02-6.72,1.12-.12-.52-2.71.37-.17-1.17-.07-.51.65-1.86"/><path id="12069" d="m810.85,491.98l.81,1.46,1.88.6.98,1.63,1.35.9.84.46.81.62.05.07.24,1.17-.11,1.25-.61,2.26-4.2.64-.28.04-.19.04-.19.18,1.51,9.76-6.04.96-2-13.92,5.9-.89.04-2.38-.8-4.84"/><path id="12119" d="m798.57,501.14l7.14-1.05,2,13.92-.05,1h-.66s-.34-.35-.34-.35l-.82.39-.54-3.77-.67-1.05-2.58-.64-.42-.25-.81-.91-.27-.37-.04-.45.09-1,.07-.21.25-.43.4-.55.37-.1.07-.07.21-.73-.02-.1-2.54-2.28-.84-1.02"/><path id="12017" d="m793.82,499.87l1.28-.36,3.47,1.63.84,1.02,2.54,2.28.02.1-.21.73-.07.07-.37.1-.4.55-.25.43-.07.21-.09,1-3.1.49-.11-.65-4.56.66-.33-3.4-.13-.74-.14-.28-2.65-2.03.13-.24.2-.24.52-.51.38-.1h.3l1.24.28,1.18-.7.35-.26.02-.05"/><path id="12075" d="m789.74,488.41l.07.57,2.06-.26.34,1.32,2.75-.53.95,6.1-2.64.39.55,3.86-.02.05-.35.26-1.18.7-1.24-.28h-.3l-.38.1-.52.51-.2.24-.13.24.04-.77-.21-.61-1.24-.55.51-.64-.47-.78-.48-.21-3.22.23-.5.84-.68-.09-.88-2.48-1.87-.53,1.61-1.43.85-1.54.43-1.45.71-3.07,5.66-.18"/><path id="12083" d="m794.96,489.52l3.57-.5.36.4-.04.25,1.46.64,1.48-.62.26-.16.02-.05-.1-.67.51-.61.42-.23,1.35-.53,2.06-.36.12.8,1.3-.24.26,1.38.81-.12.09,1.29.95-.13.56.1.19.74-.68.12.94.96.8,4.84-.04,2.38-5.9.89-7.14,1.05-3.47-1.63-1.28.36-.55-3.86,2.64-.39-.95-6.1"/><path id="12127" d="m809.91,491.02l.68-.12,3.75-1.37.22-.94.37-.06.44,3.12,1.66-.28.08-.02,3.55-.64-.46-2.46.85-1.33,1.52,2.52,1.22,1.89.95,1.47.57.77,1.68,2.06,3.71,4.48-4.7.78.71,3.98-.46.08-1.3-2.02-.66-.83-.19-1.26-1.29.02-.2.45-.66.32-.12.02-.42-.07-.59-.81-2.01.22-1.09-.86.11-1.25-.24-1.17-.05-.07-.81-.62-.84-.46-1.35-.9-.98-1.63-1.88-.6-.81-1.46-.94-.96"/><path id="12009" d="m826.24,504.97l.46-.08-.71-3.98,4.7-.78,3.67,3.89.04.05.16.16.03.05,1.46,2.67v.18l-.68.43-.19.26-.22.43-.02.11v.03s-.07.34-.07.34l-.05.63.03.64.06.57.28,1.2.58,1.75.78,1.78.55.99.44.68.6.91.03.06,1.65,2.27-.11.14-1,.93-7.26,1.16-.96-5.91.13-.03-.56-3.65-.39-2.27-1.08-3.28-2.37-2.32"/><path id="12133" d="m723.57,470.31l.12-1.53.11-.52,1.37-.13.36.3.06.67,2.31-.19.21-1.58v-.2l-.05-.25,1.88-.19,1.52.85.5,4.98-1,.11.3,2.98-1.2.13-6.02.58-2.13.92-.49.54.71-1.36,1.66-1.13-.98-2.2-.31-.35-.09-.7.91-1.59.25-.16"/><path id="12059" d="m719.12,464.07l10.5-1.21-1.57,4.02.05.25v.2l-.21,1.58-2.31.19-.06-.67-.36-.3-1.37.13-.11.52-.12,1.53-3.79.37-.65-6.61"/><path id="12131" d="m716.14,464.37l2.98-.3.65,6.61,3.79-.37-.25.16-.91,1.59.09.7.31.35.98,2.2-1.66,1.13-.71,1.36.23,2.76-8.2-1.68-1.25-14.1,3.95-.4"/><path id="12091" d="m712.2,464.77l1.25,14.1-7.97.6-1.07-13.99,1.89-.14,5.9-.57"/><path id="12113" d="m697.02,466.14l7.39-.66,1.07,13.99-2.31.59-.18-.6-5.92,1.56.12-1.01,1.29-.32.32-2.74-2.81-1.76-1.01-2.43-.3-.83-.06-.38-.24-1.72.06-.34.37-1.36.14-.24.88-.77,1.19-.99"/><path id="12033" d="m688.47,466.95l8.55-.81-1.19.99-.88.77-.14.24-.37,1.36-.06.34.24,1.72.06.38.3.83,1.01,2.43,2.81,1.76-.32,2.74-1.29.32-.12,1.01,5.92-1.56.18.6-4.57,1.42-.17.04-.12.03-.7.18-1.21.23-3.08.73-1.81.52,1.27-.57.27-2.51.2-5.02-.03-.38-.07-.27-.24-.39-.88-.55-.67-.34-.33-.06-.11-.04-.63-.43-2-2.18-.26-.44.44-3.08"/><path id="12013" d="m732.96,472.43l2.64-.27,1.5-.25-.03-.96,1.43-.08,3.24-.35-.94,2.15-.66,4.24-.93,3.31-5.41.59-.83-8.36"/><path id="12045" d="m733.79,480.79l5.41-.59.15,3.52,2.24,1.49.23,3.13.19.93-1.28.62-.3-.05-1.75,1.72-.19.39-1.87.15-.06-2.29-.06-.25-.3-.49-1.15-1.45-.48-.45-.08-.06-.73-6.32"/><path id="12037" d="m750.99,483.18l4.17.65.14.4.06.22.05.17v.03s-.01.26-.01.26l-.11.32-.1.07-.58.16-.92-.12-.22-.05-.21-.14-.2-.33-1.16.42-.46.21-2.87,2.22-1.3,1.08-1.13.84-1.08.69-2.16.69-.86.2-.71-.11-.59.07-.39.11-1.86.7.19-.39,1.75-1.72.3.05,1.28-.62-.19-.93-.23-3.13.24-1.01,9.16-1.01"/><path id="12029" d="m783.69,483.25l.39,5.34-.71,3.07-.43,1.45-.85,1.54-1.61,1.43-.36-1.25-.69-1.05-.39-.55-.48-.23h-.47l-.93-.42-1.57-.8-.46-.26-.05-.13-.64-3.21,1.22-.69.14-3.12,7.88-1.12"/><path id="12041" d="m784.29,481.72l1.43-1.25,3.13,1.93.89,6.02-5.66.18-.39-5.34.6-1.54"/><path id="12001" d="m791.04,479.51l2.24.1.55.78.21.08,2.52.42,1.1-.08.22-.13.13-.03.92.1.28.07,1.76,1.66.22.45-.03.26.8,5.61.1.67-.02.05-.26.16-1.48.62-1.46-.64.04-.25-.36-.4-3.57.51-2.75.53-.34-1.32-2.06.26-.07-.57-.89-6.02,2.19-2.89"/><path id="12107" d="m810.11,479.05l1.89,4.75.58,3.09,1.97,1.7-.22.94-3.75,1.37-.19-.74-.56-.1-.95.13-.09-1.29-.81.12-.26-1.38-1.3.24-.12-.8-2.06.36-1.35.53-.42.23-.51.61-.8-5.61.11-.02.47-.24,1.76-1.26.09-.41.14-.16,1.82-1.3.31-.05,4.26-.71"/><path id="12035" d="m812,483.8l4.11-.62,1.87-1.43,3.07,5.17-.85,1.33.46,2.46-3.55.64-.08.02-1.66.28-.44-3.12-.37.06-1.97-1.7-.58-3.09"/><path id="12109" d="m807.18,472.96l1.07-.45h.45l1.32.42,2.07-.35-.58-3.33,1.12-.19,2.39,6.22,1.69,4.02.03.08.25.51.19.4.8,1.46-1.87,1.43-4.11.62-1.89-4.75-.5-2.51-2-1.17-.43-2.42"/><path id="12019" d="m807.18,472.96l.43,2.42,2,1.16.5,2.51-4.26.71-.31.05-1.82,1.3-.14.16-.09.41-1.76,1.26-.47.24-1.43-9.64-.14-.99,1.98-.29,4.11-.68.55-.12.62-.08.23,1.58"/><path id="12007" d="m798.01,473.82l1.83-.27,1.43,9.64-.11.02.03-.26-.22-.45-1.76-1.66-.28-.07-.92-.1-.13.03-.22.13-1.1.08-2.52-.42-.21-.08-.55-.78.86-.39,1.25-.68,2.13-3,.59-1.15.04-.25-.14-.32"/><path id="12125" d="m798.01,473.82l.14.32-.04.25-.59,1.15-2.13,3-1.25.68-.86.39-2.24-.1-.93-1.22,1.87-2.62-.17-.8,6.2-1.05"/><path id="12121" d="m784.55,471.26l1.17,9.21-1.43,1.25-1.23-1.46-.76-.76-.33-.24-2.02-1.3-.94-.44-.99-.11-.08.23-.31.2-.61-.14-.26-.19-.71-1.63-.27-1.48.02-.12.08-.06,1.12-3.04.16-.68.06-.09.6-.43.74-.24,1.58.03,1,.19,3.41,1.3"/><path id="12067" d="m775.88,474.21l-.08.06-.02.12.27,1.48.71,1.63.26.19.61.14.31-.2.08-.23.99.11.94.44,2.02,1.3.33.24.76.76,1.23,1.46-.6,1.54-7.88,1.12-.67.1-.58-1.63-1.04-8.3,2.36-.32"/><path id="12123" d="m773.52,474.54l1.04,8.3.58,1.63.67-.1-.14,3.12-1.22.69-.68-.17-1.98-.8-.22-.19-.19-.22-.69-.94v-.11s-.13-.43-.13-.43l-.23-.35-1.02-1.21-.91-.63-.16-.11-2.18-.95-1.18-.34-1.85-.83-1.29-.76,2.74-5.43,6.91-.92.12,1,2.01-.27"/><path id="12129" d="m746.88,476.99l9.17-1.19.21.64,3.27-.39.5,4.06-3.34.48-1.82.9-.31.17-.05.78.18.83.05.06.43.51-4.17-.65-1.3-.76-.62-.43-.85-1.11-.45-2.71-1.15-.88.25-.3"/><path id="12077" d="m747.95,474.82l-1.08,2.17-.25.3,1.15.88.45,2.71.85,1.11.62.43,1.3.76-9.16,1.01-.24,1.01-2.24-1.49-.15-3.52.93-3.31.66-4.24.94-2.15,1.21-.16.22,1.48,2.11-.15.13,1.21,1.24-.06.17,1.18.83-.06.32.87"/><path id="12039" d="m752.34,467.31l1.97-.14-.8,2.17-.91,2.7-.09.19-.29.26-.4.17-2.64,1.33-1.23.82-.32-.87-.83.06-.17-1.18-1.24.06-.13-1.21-2.11.15-.22-1.48-1.21.16,1.05-2.55h.03l9.53-.64"/><path id="12073" d="m759.72,466.8l1.33,3.02-1.57.49-.41,2.07.45,3.66-3.27.39-.21-.64-9.17,1.19,1.08-2.17,1.23-.82,2.64-1.33.4-.17.29-.26.09-.19.91-2.7.8-2.17,3.9-.27,1.51-.1"/><path id="12065" d="m764.93,466.44l2.61-.17.18.27.18,1.29-.56.75-1.57,1.7-1.13,3.34-.14,1.11-2.74,5.43-1.71-.05-.95-7.73.41-2.07,1.57-.49-1.33-3.02,5.21-.36"/><path id="12079" d="m772.57,465.93l.95-.06.88.39.92,3.11.55,1.06.13.11.99.63-1.12,3.04-2.36.32-2.01.27-.12-1-6.91.92.14-1.11,1.13-3.34,1.57-1.7.56-.75-.18-1.29-.18-.27,5.03-.35"/><path id="12047" d="m776.93,465.64l8.84-.61-.45.87v.41s.07.64.07.64l.39.46,1.12,1.19.13.18.2.55v.21s-.52,1.38-.52,1.38l-.12.15-1.05.52-.93-.08-.07-.23-3.41-1.3-1-.19-1.58-.03-.74.24-.6.43-.06.09-.16.68-.99-.63-.13-.11-.55-1.06-.92-3.11-.88-.39,3.42-.24"/><path id="12023" d="m787.87,464.88l2.46-.18,1.49,10.17.17.8-1.87,2.62.93,1.22-2.19,2.89-3.13-1.93-1.17-9.21.07.23.93.08,1.05-.52.12-.15.53-1.38v-.21s-.21-.55-.21-.55l-.13-.18-1.12-1.19-.39-.46-.08-.64v-.41s.46-.87.46-.87l2.09-.15"/><path id="12003" d="m791.13,464.64l4.03-.25.58,3.22.19.51.37.53.41.32.13.03,2.25-.43.32,2.02.43,2.96-1.83.27-6.2,1.05-1.49-10.17.8-.06"/><path id="12031" d="m799.41,470.59l3.57-4.96,1.68-2.27.42-.4.2-.11,1.38-.59,2.24.09.3.04,1.29,1.05.38.25.35.29.55,1.81.23,1.37.22.82.22.65.19.45-1.12.19.58,3.33-2.07.35-1.32-.42h-.45l-1.07.45-.23-1.58-.62.08-.55.12-4.11.68-1.98.29-.29-1.97"/><path id="12089" d="m809.76,458.89l.72,4.53-1.29-1.05-.3-.04-2.24-.09-1.38.59-.2.11-.42.4-1.68,2.27-3.57,4.96-.32-2.02.1-1.59.11-1.57v-1.54s-.27-.71-.27-.71l-.6-.79-.31-.46-.09-.47.17-2.48,2.15-1.25.84.56,3.06.66,2.31.26,1.22-.06,1.67-.2.3-.03"/></svg>