<?xml version="1.0" encoding="UTF-8"?><svg xmlns="http://www.w3.org/2000/svg" viewBox="0 0 989.98 627.07"><g><path id="13241" d="m763.82,365.54l-.4,1.83-1.7,1.32-1.24,2.24-.31,1.74-1.1-.68-.74.47-1.29-.07-1.29-1.73-1.47.29,1.4-4.14,1.22-.19,6.93-1.09"/><path id="13281" d="m748.5,367.87l7.17-1.05-1.4,4.14-.48.58-1.82.41-.08-.58-.68-1.6-.55-.31-.54.04-1.14-.64-.6-.57.11-.42"/><path id="13205" d="m757.67,449.17l.95,8.38-2.21.26-5.07.62-2.57.32.02-.96.29-.79.11-.17,2.34-3.36,2.36-1.84,1.01-2.03,2.77-.43"/><path id="13007" d="m749.29,450.38l5.62-.78-1.01,2.03-2.36,1.84-2.34,3.36-.11.17-.29.79-.02.96-.68.06-.81-4.1-1.62.22-.4-4.01,4.03-.55"/><path id="13201" d="m745.66,454.94l1.62-.22.81,4.1-3.65.67-3.75.37-.4-4.2,4.16-.4,1.22-.25v-.06"/><path id="13099" d="m741.53,449.81l.23,1.29,3.49-.18.4,4.01v.06l-1.22.25-4.16.4.4,4.2-1.95.16-.21-.46-.15-.26-.93-1.02-.15-.04h-.17l-.17-.1-.2-.46-.27-1.63.14-.6.21-.61.24-4.9.42.71.44-.05.38-.12.54-.21,2.67-.45"/><path id="13253" d="m740.69,459.85l3.75-.37-.34.84.35,3.42-.15,1.17-.61,1.13-.77.5-.28.59-.03.36.21.46h-.03l-3.47-6.28-.58-1.67,1.95-.16"/><path id="13087" d="m751.34,458.43l1.01,8.89-9.53.64-.21-.46.03-.36.28-.59.77-.5.61-1.13.15-1.17-.35-3.42.34-.84,3.65-.67.68-.06,2.57-.32"/><path id="13131" d="m756.41,457.8l.24,2.26.29.63.26.33.39.38.61,5.5-3.9.27-1.97.14-1.01-8.89,5.07-.62"/><path id="13275" d="m758.62,457.55l.05.71,5.28-.48.98,8.66-5.21.36-1.51.1-.61-5.5-.39-.38-.26-.33-.29-.63-.24-2.26,2.21-.26"/><path id="13027" d="m769.06,457.24l1.77,4.54-.51.56-.57,1.21v.08s.73,1.1.73,1.1l.32.24,1.78.96-5.03.35-2.61.17-.98-8.66,3.12-.37-.09-.96,2.08.8"/><path id="13071" d="m767.44,450.6l.23,2.73-.69,3.12.09.96-3.12.37-5.28.48-.05-.71-.67-5.89,6.73-.77,2.76-.29"/><path id="13075" d="m768.9,449.88v.72l.13.36.13.18,1.06.75.31.11,1.1,1.61.51,1.83.46,1.43-3.53.36-2.08-.8.69-3.12-.23-2.73,1.46-.71"/><path id="13173" d="m776.94,452.65l1.47-.22.99,7.18-.88.58-.25-1.24-.52-.92-2.67.3-.59-1.67-.11-.8.47-.06-.1-2,2.48-.33v-.09s-.11-.4-.11-.4l-.19-.33"/><path id="13185" d="m772.59,456.88l1.91-.22.59,1.67,2.67-.3.52.92.25,1.24-2.03.81.44,4.63-3.42.24-.95.06-1.78-.96-.32-.24-.75-1.1v-.08s.59-1.21.59-1.21l.51-.56-1.77-4.54,3.53-.36"/><path id="13101" d="m779.4,459.62l2.55.47.22.36.29.8.56.63.28.15.52.15.74-.03.39-.06.78-.02,1.29.08.35.14.2.2.07.12.22,2.27-2.09.15-8.84.61-.44-4.63,2.03-.81.88-.58"/><path id="13065" d="m778.41,452.44l5.83-.79,1.76,3,.68.68,1.23.92.56,3.1,1.54-.08.4,2.65.38,2.04.34.68-.8.06-2.46.18-.22-2.27-.07-.12-.2-.2-.35-.14-1.29-.08-.78.02-.39.06-.74.03-.52-.15-.28-.15-.56-.63-.29-.8-.22-.36-2.55-.47-.99-7.18"/><path id="13003" d="m784.49,447.42l-.04,1.91-1.33-.03,1.12,2.34-5.83.79-1.47.22-.18-.96-.48-2.09-.89-.69-.91-.96-.03-.06-.04-.38,3.54-.41,1.91-.14.69.67.3.3,3.67-.5"/><path id="13019" d="m774.12,446.35l.27,1.16.04.38.03.06.91.96.89.69.48,2.09.18.96.19.33.12.4v.09s-2.49.33-2.49.33l.1,2-.47.06.11.8-1.91.22-.46-1.43-.51-1.83-1.1-1.61-.31-.11-1.06-.75-.13-.18-.13-.36v-.72l1.48-3.13,3.74-.41"/><path id="13155" d="m776.34,441.36l-2.23,4.98-3.74.41-3.5-2.26.42-3.87,1.6-.19.9-.05.2,1.67,1.14-.03.08.48,1.73-.17-.06-.5,1.17-.07,2.28-.4"/><path id="13277" d="m764.06,445.45l-.12-.7,2.93-.26,3.5,2.26-1.48,3.13-1.46.71-2.76.29-.62-5.43"/><path id="13321" d="m757.62,439.79l2.77.67.09.06.14.91.42,3.15,1.53-.18.17.06.58.39.31.69.42-.08.62,5.43-6.73.77-.28-2.49-1-4.67-.22-2.5,1.17-2.21"/><path id="13095" d="m751.34,445.82l4.8-.73.54-.59,1,4.67-2.77.43-5.62.78-.91-4.18,2.95-.37"/><path id="13037" d="m746.51,446.43l1.87-.24.91,4.18-4.03.55-3.49.18-.23-1.29-.28-2.72,5.26-.66"/><path id="13061" d="m734.61,444.15l3.5-.35.58,3.49,2.57-.2.28,2.72-2.67.45-.54.21-.38.12-.44.05-.42-.71-2.14-5.33-.34-.45"/><path id="13239" d="m735.51,439.21l3.19,1.12.23,3.37-.83.11-3.5.35.91-4.94"/><path id="13243" d="m743.58,439.85l1.08-.13.34,3.39.68.27.88,1.63.06.79-.06.45-.05.18-5.26.66-2.57.19-.58-3.48.83-.11-.23-3.37,4.87-.47"/><path id="13273" d="m751,444.26l.33,1.56-2.95.37-1.87.24.05-.18.06-.45-.06-.79-.88-1.63-.68-.27-.34-3.39,2.87-.38v-1.08s2.31,1.9,2.31,1.9l1.13.39.5,1.2-.41.6-.06,1.9h0,0Z"/><path id="13177" d="m757.77,438.3l-.14,1.49-1.17,2.21.22,2.5-.54.59-4.8.73-.33-1.56.06-1.9.41-.6-.5-1.2-1.13-.39-.12-.98,8.04-.9"/><path id="13081" d="m756.67,435.67l6.79-.82.47,3.98.14,1.22-3.68.41-2.77-.67.14-1.49-1.09-2.63"/><path id="13287" d="m763.93,438.83l2.57-.18.8,1.98-.42,3.87-2.93.26.12.7-.42.08-.31-.69-.58-.39-.17-.06-1.53.18-.42-3.15-.14-.91-.09-.06,3.68-.41-.14-1.22"/><path id="13017" d="m766.5,438.65l5.84-.8,3.72,1.06.28,2.45-2.28.4-1.17.07.06.5-1.73.17-.08-.48-1.14.03-.2-1.67-.9.05-1.6.19-.8-1.98"/><path id="13069" d="m776.06,438.91l2.96-1.24.45,3.3,4.05-.6.35,2.61.63-.08.27,2.02-.67.06.39,2.43-3.67.5-.3-.3-.69-.67-1.91.14-3.54.41-.27-1.16,2.23-4.98-.28-2.45"/><path id="13005" d="m785.45,439.22l1.49.83.91.47,1.29.34,2.23,1.1.19.21.17.33-.25.04-1.05,1.02.08.58-.73.98-1.43.52-1.53.03-.39-.87-1.67.14-.27-2.02-.63.08-.35-2.61,2.08-.23-.15-.92"/><path id="13305" d="m794.19,435.24l1.66.64,6.76,4.81,1.05,1.83-1.65,3.12-.7-.3-.78-.26-.92.36-1.39.4-2.16-.15-.21-.14-.98-2-1.14.03-1.02-6.88.73-1.2.72-.26"/><path id="13229" d="m791.74,442.5l2.02,1.08,1.14-.03.98,2,1.16,1.35-.05.5-.26.29-3.22,2.18h-.06l-1.81-.24-2.21-1.05-1.07-2.93,1.43-.52.73-.98-.08-.58,1.05-1.02.25-.04"/><path id="13025" d="m802.02,445.64l-.13,3.75-1.08,1.58-1.25.39-.35.16-.12.2-.09.93-2.52-.27-.17,1.54-.99.14-2.1-1.76-.23-1.56-1.45-.38.1-.74,1.81.24h.06l3.22-2.18.26-.29.05-.5-1.16-1.35.21.14,2.16.15,1.39-.4.92-.36.78.26.7.3"/><path id="13299" d="m784.77,444.93l1.67-.14.39.87,1.53-.03,1.07,2.93,2.21,1.05-.1.74,1.45.38.23,1.56,2.1,1.76-5.54.75.63,4.98,4.75-.59.57.06-.55,5.13-4.03.25-.34-.68-.38-2.04-.4-2.65-1.54.08-.56-3.1-1.23-.92-.68-.68-1.76-3-1.12-2.34,1.33.03.04-1.91-.39-2.43.67-.06"/><path id="13049" d="m799.01,452.65l1.35,5.05-2.15,1.25-.17,2.48.09.47.31.46.6.79.26.71v1.54s-.09,1.57-.09,1.57l-.1,1.59-2.25.43-.13-.03-.41-.32-.37-.53-.19-.51-.58-3.22.55-5.13-.57-.06-4.75.59-.63-4.98,5.54-.75.99-.14.17-1.54,2.52.27"/><path id="13039" d="m808.6,451.95l1.16,6.94-.3.03-1.67.2-1.22.06-2.31-.26-3.06-.66-.84-.56-1.35-5.05.09-.93.12-.2.35-.16,1.25-.39,1.08-1.58.07.27.06.09,1.58.48.93.04,4.07,1.67"/><path id="13127" d="m811.07,445.09l-2.47,6.85-4.07-1.67-.93-.04-1.58-.48-.06-.09-.07-.27.13-3.75,1.65-3.12v.07s1.07.99,1.07.99l1.34.81,2.73.52,1.94.24.32-.07"/><path id="13191" d="m805.37,436.53l.63.18.96.67.5.12,1.41-.6,1.06.04.56.18.35.17.64.53.08.16.03.64-.52,6.47-.32.07-1.94-.24-2.73-.52-1.34-.81-1.05-.99v-.07s-1.07-1.83-1.07-1.83l1.58-1.39,1.17-2.77"/><path id="13149" d="m732.61,406.18l1.99,4.44-5.42,2.84-1.86-6.73,5.29-.55"/><path id="13143" d="m724.35,396.05l2.21-.21,1.06-.27,3.07-.31.47,2.1-.03,2.26-1.4.52-2.91,1.44-.92.08-1.56-5.61"/><path id="13233" d="m730.24,390.85l2.37.05-.7,3.13-1.35.13.12,1.1-3.07.31-1.06.27-2.21.21-.39-1.4-.73-2.63,3.09-.31-.03-.39,3.96-.46"/><path id="13115" d="m728.52,379.63l-.21,4.05,1.92.29.13,1.04v3.11s-.38.04-.38.04l.27,2.69-3.96.46.03.39-3.09.31-1.29-4.64,1.41-.14.99-2.2.99-.57,1.5-1.12.15-.46.81-3.17.72-.08"/><path id="13055" d="m727.79,379.71l-.81,3.17-.15.46-1.5,1.12-.99.57-.99,2.2-1.41.14-1.58-5.35-.41-1.45,7.84-.86"/><path id="13313" d="m729.17,370.23l3.09-.36-.38,1.48.07,4.37-1.24.76-.06.77.65.98-2.52.56-.27-2.23-2.21.24.03-.19.3-.94.21-1.24,1.17-.35.44-.91.71-2.57-.05-.34h.06"/><path id="13047" d="m723.81,370.9l5.3-.67.05.34-.71,2.57-.44.91-1.17.35-.21,1.24-1.07.17-.33-1.88-1.07.16-.33-3.2"/><path id="13295" d="m723.81,370.9l.33,3.2,1.07-.16.33,1.88,1.07-.17-.3.94-.03.19,2.21-.24.27,2.23-.26.85-.72.08-7.84.86-.22-.79.7-1.15.52-2.15-.1-.87.42-2.63.71-1.84,1.83-.25"/><path id="13083" d="m721.98,371.15l-.71,1.84-.42,2.63.1.87-.52,2.15-.7,1.15-1.51-5.34-.72-2.81,2.47-.26,2.02-.22"/><path id="13183" d="m797.87,430.32l.49.6,1.15.28-.07,1.91.06.25,2.75,2.12,2.96,1.07h.16l-1.17,2.77-1.58,1.39-6.76-4.81,2.02-5.56"/><path id="13001" d="m790.5,433.78l3.69,1.46-.72.26-.73,1.2,1.02,6.88-2.02-1.08-.17-.33-.19-.21-2.23-1.1-1.29-.34-.91-.47-1.49-.83-.39-2.92,1.72-.23-.31-2.3-.11-.62,4.15.63"/><path id="13161" d="m786.35,433.14l.11.62.31,2.3-1.72.23.39,2.92.15.92-2.08.23-4.05.6-.45-3.3,3.35-2.85,1.84-1.2,1.17-.44.97-.03"/><path id="13259" d="m742.66,432.71l.18-.03.19.16.15,1.31.13,1.55v1.67s.26,2.48.26,2.48l-4.87.47-3.19-1.12-.05-1.72,2.09-4.13,5.11-.65"/><path id="13307" d="m742.84,432.68l.55-.06,1.61,1.15.42.5.88.28,1.01-.11.22,3.83v1.08s-2.88.38-2.88.38l-1.08.13-.27-2.48v-1.67s-.12-1.55-.12-1.55l-.15-1.31-.19-.16"/><path id="13261" d="m751.8,431.44h.76s.11.78.11.78l2.1.32,1.91,3.13,1.09,2.63-8.04.9.12.98-2.31-1.9-.22-3.83-.06-.74,4.64-.75-.09-1.5"/><path id="13315" d="m768.47,432.38l3.17,4.35.71,1.12-5.84.8-2.57.18-.47-3.98-.25-2.06,2.28-.3,1.03-.3.35-.23.8-.08.21.05.59.46"/><path id="13271" d="m776.26,430.64l6.12,4.18-3.35,2.85-2.96,1.24-3.72-1.06-.71-1.12,4.62-6.09"/><path id="13309" d="m779.66,426.11l1.31.08.18.03.16.46.68,2.3.15,1.22.58,1.81.2.35.09.15,1.22,1.11-1.84,1.2-6.12-4.18.63-1.51,2.77-3.02"/><path id="13091" d="m767.78,428.6l.92-1.34-.47-.37,2.16-2.85.9.58,3.7,5.9,1.89-1.39-.63,1.51-4.62,6.09-3.17-4.35.48-.53.06-.18.12-1.08-1.81-1.4.46-.59"/><path id="13235" d="m767.78,428.6l-.46.59,1.81,1.4-.12,1.08-.06.18-.48.53-.59-.46-.21-.05-.8.08-.35.23-1.03.3-2.28.3-.65-3.87,1.2-2.97.71.09,3.3,2.57"/><path id="13093" d="m762.56,428.92l.65,3.87.25,2.06-6.79.82-1.91-3.13,1.07-2.18,2.25-.91,4.49-.53"/><path id="13193" d="m754.19,424.93l1.7-.15,1.7.61.48,4.06-2.25.91-1.07,2.18-2.1-.32-.11-.78h-.76s-.85.01-.85.01l-.29-1.42-.64.06.03-1.52-.13-.78.97-.19.62-1.62.49-.87,1.47-.45.72.27"/><path id="13249" d="m747.88,428.24l2.16.33-.03,1.52.64-.06.29,1.42h.85s.09,1.5.09,1.5l-4.64.75-.17-1.51-.03-1.46.6-.13-.37-2.66.6.3Z"/><path id="13197" d="m742.24,425.74l3.62-1.07,1.41,3.26.37,2.66-.6.13.03,1.46.17,1.51.06.74-1.01.11-.88-.28-.42-.5-1.61-1.15-.55.06-.18.03-.85-6.2.43-.03v-.73"/><path id="13053" d="m742.24,425.74v.73s-.44.03-.44.03l.85,6.2-5.11.65.05-.07.16-.72-.19-.38-.47-.4-1.28-.34-.12-.14-.04-.19.22-.82,1.99-1.05,2.11-.6.58-2.01.64-.39,1.05-.5"/><path id="13215" d="m733.49,425.08l3.37-.39.06.55,4.08-.5.19,1.5-.64.39-.58,2.01-2.11.6-1.99,1.05-.53-3.17-1.84-2.05"/><path id="13269" d="m748.36,420.06l1.77,1.12,2.3.35.64,1.82,1.34,1.01-.93.3-1.47.45-.49.87-.62,1.62-.97.19.13.78-2.16-.33-.6-.3-1.41-3.26,2.5-4.62"/><path id="13263" d="m743.78,417.5l.17-.07.42.1,1.3.84.31.39.24.47.05.17.18.14.96.36.97.16-2.5,4.62-3.62,1.07-1.05.5-.19-1.5-.82-5.95,2.39-.35,1.2-.94"/><path id="13145" d="m737.03,418.52l1.74-.27,1.42.54.82,5.95-4.08.5-.06-.55-3.37.39-1.39-3.06-1.23-2.73,6.15-.76"/><path id="13285" d="m734.61,410.62l1.54-.16.88,8.06-6.15.76-1.54-5.34-.14-.48,5.42-2.84"/><path id="13045" d="m731.16,397.36l2.66.42.52,4.33,1.79.21-.34,1.06-3.18,2.8-5.29.55-.35-1.24-1.08-3.83.92-.08,2.91-1.44,1.4-.52.03-2.26"/><path id="13223" d="m732.61,390.9l3.49-.34.33,3.03.31-.04.35,3.25-3.26.97-2.66-.42-.47-2.1-.12-1.1,1.35-.13.7-3.13"/><path id="13213" d="m735.77,369.43l.42,3.04.72.55.05.07v.07s-.41.69-.41.69l-.5.55-.22,1.06.45,3.34-4.99-.6-.65-.98.06-.77,1.24-.76-.07-4.37.38-1.48.64-.08,2.87-.35"/><path id="13129" d="m731.29,378.21l4.99.6.1.79.39,3.13-6.55,1.24-1.92-.29.21-4.05.26-.85,2.52-.56"/><path id="13015" d="m736.77,382.72l.81,7.7-4.97.48-2.37-.05-.27-2.69.39-.04v-3.11s-.14-1.05-.14-1.05l6.55-1.24"/><path id="13067" d="m737.58,390.42l4.53-.44.76,1.73-.68,2.8-.22.9-.11.33-1.19,1.49-.65.68-1.1-1.36-1.85.26-.35-3.25-.31.04-.33-3.03,1.49-.14"/><path id="13097" d="m733.82,397.78l3.26-.97,1.85-.26,1.1,1.36-1.19,1.91-1.8,1.14-.73.84-.15.23-.02.3-1.79-.21-.52-4.33"/><path id="13077" d="m735.8,403.38l3.83-.28.47.41.27,2.38,1.23,1.17.86,1.06.44.75v.84s-6.76.75-6.76.75l-1.54.16-1.99-4.44,3.18-2.8"/><path id="13199" d="m743.13,410.56l.02,4.94.63,1.99-1.2.94-2.39.35-1.42-.54-1.74.27-.88-8.06,6.77-.75.2.85"/><path id="13231" d="m743.13,410.56l.8-.69,1.1-.12.43.38,2.38-.27.15,4.58-4.3.37-.54.69-.02-4.94"/><path id="13293" d="m747.99,414.44l2.75-.34.22,1.33.22,1.9-.02,1.04-.39.1-.63,2.7-1.77-1.12-.97-.16-.96-.36-.18-.14-.05-.17-.24-.47-.31-.39-1.3-.84-.42-.1-.17.07-.63-1.99.54-.69,4.3-.37"/><path id="13079" d="m751.17,417.33l4.44-.53,1.63,2.12,1.7,1.07-.69.07-3.83,4.3-1.34-1.01-.64-1.82-2.3-.35.63-2.7.39-.1.02-1.04"/><path id="13225" d="m754.41,424.35l3.83-4.3,1.48-.14.12,3.7-.03.26-1.41.33.2,1.55-.35.23-.19.04-.45-.62-1.7-.61-1.7.15-.72-.27.93-.3"/><path id="13153" d="m759.72,419.91l2.06.38h.61s.83,2.89.83,2.89l.96.8.15.91.15,1.16-.71-.09-1.2,2.97-4.49.53-.48-4.06.45.62.19-.04.35-.23-.2-1.56,1.41-.32.03-.26-.12-3.7"/><path id="13023" d="m771.3,424.62l-.9-.58-2.16,2.85.47.37-.92,1.34-3.3-2.57-.15-1.16,4.79-3.71,2.18,3.46"/><path id="13175" d="m769.12,421.16l4.77-3.54,1.78-.43,1.56.46-.1.82,2.59.57.17,2.03.55.19-.21.99-1.11,2.94.55.91-2.77,3.02-1.89,1.39-3.7-5.9-2.18-3.46"/><path id="13319" d="m765.57,413.68l3.47-2.2.29-.24.29.02,1.3,1.22,1.03,1.7.86.3.32.2.51.81.27.95-.03,1.2-4.77,3.54-4.41-6.72.86-.77"/><path id="13289" d="m762.85,415.94l1.86-1.49,4.41,6.72-4.79,3.71-.15-.91-.96-.8-.83-2.9h-.61s-.33-1.56-.33-1.56l.47-.17,1.24-1.6.2-.59-.51-.42"/><path id="13021" d="m758.76,413.96l.39.79.8.57,1.15-.14.67.15,1.08.62.51.42-.2.59-1.24,1.6-.47.17.33,1.57-2.06-.38-.79.08-1.7-1.07-1.63-2.12,3.16-2.84"/><path id="13009" d="m766.36,407.49l.39-.04,3.07.41.06.09v.14s-.01.18-.01.18l-.11.07-.07.19-.07.85.06.19.4.6.48-.4.35-.42v3.12s-1.29-1.22-1.29-1.22l-.29-.02-.29.24-3.47,2.2-2.15-5.75,2.94-.43"/><path id="13169" d="m763.42,407.93l2.15,5.75-.86.77-1.86,1.49-1.08-.62-.67-.15-1.15.14-.8-.57-.39-.79-2.54-3.84,5.02-1.58,2.17-.61"/><path id="13207" d="m751.73,409.04l4.23-.02.26,1.09,2.54,3.84-3.16,2.84-4.44.53-.22-1.9,1.32-.14.15-.4-.69-5.84"/><path id="13171" d="m751.73,409.04l.69,5.84-.15.4-1.32.14-.22-1.33-2.75.34-.15-4.58h2.32s0-.62,0-.62l1.57-.19"/><path id="13255" d="m744.72,406.43l.63-.08,1.95-.27.19.49,1.56-.34.26.64.98.14-.13,2.23v.62s-2.33,0-2.33,0l-2.38.27-.43-.38-1.1.12-.8.69-.2-.85v-.84s1.18-.35,1.18-.35l.62-2.08"/><path id="13113" d="m740.1,403.51l.26-.91,2.46-.56,1.61,1.33.28,3.06-.62,2.08-1.2.35-.44-.75-.86-1.06-1.23-1.17-.27-2.38"/><path id="13063" d="m745.91,399.43l.4.32.19,1.12.02.76-.25,2.68-.16.21-.91.41.16,1.42-.63.08-.28-3.06-1.61-1.33-.16-2.28,1.93-.19,1.3-.14"/><path id="13035" d="m753.24,403.07l1.39,1.75,1.34,4.21-4.23.02-1.57.2.13-2.23,2.95-3.94"/><path id="13151" d="m745.91,399.43l1.84-.2,1.07,1.74,1.93.66.38.8,1.46.08.66.56-2.95,3.94-.98-.14-.26-.64-1.56.34-.19-.49-1.95.27-.16-1.42.91-.41.16-.21.25-2.68-.02-.76-.19-1.12-.4-.32"/><path id="13089" d="m745.11,392.3l1.6,1.87,3.76,2.23-.55.68-.72,2.49-.73-.41-.73.07-1.84.2-1.3.14-.19-1.7-.15-1.39-.02-.22-.47-3.88.73.13.61-.22"/><path id="13121" d="m744.8,387.02l.32,1.59,3.1,1.13-1.21.44-.34.84-1.07.06-.49,1.22-.61.22-.73-.13.47,3.88.02.22.15,1.39.19,1.7-1.93.19.16,2.28-2.46.56-.26.91-.47-.41-3.83.28.34-1.06.02-.3.15-.23.73-.84,1.8-1.14,1.19-1.91.65-.68,1.19-1.49.11-.33.22-.9.68-2.8-.76-1.73v-.97s.91-.62.91-.62l.27-1.26,1.51-.1"/><path id="13057" d="m744.27,382.54l.11,1.05.42,3.42-1.51.1-.27,1.26-.9.62v.97s-4.54.44-4.54.44l-.81-7.7,7.5-.18"/><path id="13227" d="m736.38,379.59l1.75-.25,3.54-.39.44-.39.04.33.71,1.79,1.18-.14.23,1.98-7.5.18-.39-3.13"/><path id="13085" d="m744.72,376.97l.2.33.43,1.45,1.59,1.39,2.42.88.67,1.9-5.65.68-.11-1.05-.23-1.98-1.18.14-.71-1.79-.04-.33,1.6-.3,1.02-1.31"/><path id="13117" d="m744.38,383.6l5.65-.68.61,2-.73,1.43-1.38.63-.67,2.05.37.72-3.1-1.13-.32-1.59-.42-3.42"/><path id="13135" d="m753.25,387.32l-.4,2.65,1.34,1.83-3.03,3.74-.69.86-3.76-2.23-1.6-1.87.49-1.22,1.07-.06.34-.84,1.21-.44-.37-.72.67-2.05,3.93.98.8-.64"/><path id="13247" d="m752.55,396.33l.05,2.1-1.86,3.2-1.93-.66-1.07-1.74.73-.07.73.41.72-2.49.55-.68.69-.86,1.39.8"/><path id="13159" d="m760.67,402.5l.57,6.04-5.02,1.58-.26-1.1-1.34-4.21.49-1.45.99-.58,1.35-1.16.13-.87,3.08,1.73"/><path id="13217" d="m752.55,396.33l4.85,2.81.19,1.62-.13.87-1.35,1.16-.99.58-.49,1.45-1.39-1.75-.66-.56-1.46-.08-.38-.8,1.86-3.2-.05-2.1"/><path id="13297" d="m754.19,391.8l.96.7,1.98-.53,2.93,1.68-2.64,5.49-4.85-2.81-1.39-.8,3.03-3.74"/><path id="13013" d="m753.25,387.32l.74.93.32.2,1.78.35.46-.06h1.56l.22.13.68,1.45-1.88,1.64-1.98.53-.96-.7-1.34-1.83.4-2.65"/><path id="13157" d="m760.83,384.69l1.15,1.39.13,2.1-3.1,2.16-.68-1.45-.22-.13h-1.56l-.46.06-1.78-.36-.32-.2-.74-.93,3.21-4.33.59.48.39.25.22.08.82-.16.7-.23,1.17.88.48.41"/><path id="13059" d="m762.1,388.18l2.04.69h-.15l-.11,1.07.02.07.09.2.78.79-.48,1.38-5.29-2.04,3.1-2.15"/><path id="13219" d="m757.12,391.97l1.88-1.64,5.29,2.04.17,1.99-.4.96-1.77.81-2.24-2.48-2.93-1.68"/><path id="13211" d="m762.29,396.13l3.04,4.61-4.66,1.76-3.08-1.73-.19-1.62,2.64-5.49,2.24,2.48"/><path id="13237" d="m760.67,402.5l4.66-1.76,2.59,2.64.27.15.14.13.04.07-.16.76-.76.61-.52.27-.39.43-.21,1.37v.23s.04.09.04.09l-2.94.43-2.17.61-.57-6.04"/><path id="13141" d="m773.55,400.54l.61.31,1.01,2.55.8,1.21.19.33-.56.08-1.31,1.15-.19.39-.15.66-.13.38-.2.26-1.88,1.37-.83.12-.35.42-.48.4-.4-.6-.06-.19.07-.85.07-.19.11-.07.02-.18v-.14s-.07-.09-.07-.09l-3.07-.41-.39.04-.03-.09v-.23s.2-1.37.2-1.37l.39-.43.52-.27.76-.61.16-.76-.04-.07-.14-.13-.27-.15,2.51-3,1.63.37,1.49-.2"/><path id="13265" d="m770.8,394.16l1.39,2.1.27.29h.04l.98-.85,1.35.6,1.46.19-.62.96-.31,1.14-1.46.42-.63.98-.03.1.3.46-1.49.2-1.63-.37.7-.75-.89-1.84.81-1.73-1-.86.76-1.03"/><path id="13133" d="m770.04,395.19l1,.86-.81,1.73.89,1.84-.7.75-2.51,3-2.59-2.64-3.04-4.61,1.77-.81.4-.96,3.26,1.03,2.32-.2"/><path id="13221" d="m769.3,387.13l3.93,1.15-1.19.89-.39.47-1.01,1.84-.72,1.58v.11s.87.99.87.99l-.76,1.03-2.32.2-3.26-1.03-.17-1.99.48-1.38-.78-.79-.09-.2-.02-.07.11-1.07h.15l2.19-1.4.14-.02.27.16,1.03.3.26.03,1.27-.81"/><path id="13317" d="m773.23,388.28l2.46-.67,1.66,3.98,2.6,3.47-3.11,1.16-.55.28-1.46-.19-1.35-.6-.98.85h-.04l-.27-.29-1.39-2.1-.88-.99v-.11s.72-1.58.72-1.58l1.01-1.84.39-.47,1.19-.89"/><path id="13301" d="m776.84,396.22l1.16,2.3,1.74,3.23.84.26,2.26.28-.79.98-1.38-.47-1.21-.38-.56.21-2.92,2-.8-1.21-1.01-2.55-.61-.31-.3-.46.03-.1.63-.98,1.46-.42.31-1.14.62-.96.55-.28"/><path id="13189" d="m780.94,394.66l-.17.23-.02.3.31,1.81,1.26,1.76,1.72,2.07.34.22-.99,1.13-.57.09-2.26-.28-.84-.26-1.74-3.23-1.16-2.3,3.11-1.16.99-.4"/><path id="13125" d="m775.97,404.63l2.92-2,.56-.21,1.21.38,1.38.47-.66.68-1.91,2.11.06.22.15.97-1.53.05-1.43-.8-.57-1.53-.19-.33"/><path id="13163" d="m782.84,402.29l.57-.09,1.77.79.11.02.16.13.52.58-.39,1.88-.13,1.01-.03,1.12.14.57.22.65.41,1.58-.24,1.4-.26,1.05-1.73.96-.27,1.05-1.86-1.13-.43-2.52-.86-1.77h-.06l-.7-.36-.78-.6-.31-.42-.53-.91,1.53-.05-.15-.97-.06-.22,1.91-2.11.66-.68.79-.98"/><path id="13303" d="m778.17,407.29l.53.9.31.42.78.6.7.36h.06l.86,1.77.43,2.52-1.61.8-1.05.49-1.95.63-.15-.6-.56-.27-2.6,1.53-.27-.95-.51-.81-.32-.2-.86-.3-1.03-1.7v-3.12s.83-.12.83-.12l1.88-1.37.2-.26.13-.38.15-.66.19-.39,1.31-1.15.56-.08.57,1.53,1.43.8"/><path id="13167" d="m783.69,414.98l-.61,2.7-2.65,3.59-.55-.19-.17-2.03-2.59-.57.1-.82-1.56-.46-1.78.43.03-1.2,2.6-1.53.56.27.15.6,1.95-.63,1.05-.49,1.61-.8,1.86,1.13"/><path id="13283" d="m780.43,421.27l2.89-.07.51.14,1.69.71.19.16-.04,1.13-.16.9-4.54,1.95-1.31-.08-.55-.91,1.11-2.94.21-.99"/><path id="13209" d="m785.5,424.24l-.12,8.93-1.17.44-1.22-1.11-.09-.15-.2-.35-.58-1.82-.15-1.22-.68-2.3-.16-.46-.18-.03,4.54-1.95"/><path id="13279" d="m785.5,424.24l1.38,1.17,2.11-.86,1.32,3.95.19,5.28-4.15-.63-.97.03.12-8.93"/><path id="13179" d="m798.96,429.38l.68-1.07,1.65.75,1.54,1.63,1.87-.49,1.41.48.16.27.62,1.48.04.16v.06s.2.19.2.19l1.45,1.07,2.2,1.07.12.04-.07.17.39.35.52.15.12-.07.03-.11.05-.03.19-.04.17.06.14.95.08.71-.33,1.28-.19.37-.11.03-.33-.23-.03-.64-.08-.16-.64-.53-.35-.17-.56-.18-1.06-.04-1.41.6-.5-.12-.96-.67-.63-.18h-.16l-2.96-1.07-2.75-2.12-.06-.25.07-1.91-1.15-.28-.49-.6,1.09-.93"/><path id="13109" d="m793.12,424.88l1.12.07,1.36-.33,1.45.65,1.18,1.79,1.43,1.25-.68,1.07-2.46.31-1.86-.45-1.53-4.37"/><path id="13267" d="m789,424.55l4.11.32,1.53,4.37,1.86.45,2.46-.31-1.09.93-2.02,5.56-1.66-.64-3.69-1.46-.19-5.28-1.32-3.95"/><path id="13043" d="m792.14,418.96l1.22.42.26,1.25,1.07.84-.3,2.92-.16.55-1.12-.07-4.11-.32-.39-.95.86-2.74.47-1.16,1.18-1.09,1.02.35"/><path id="13107" d="m789.03,413.03l1.59,3.29,1.84,1.01-.32,1.63-1.02-.35-1.18,1.09-.47,1.16-.86,2.74.39.95-2.11.86-1.38-1.17.16-.9.04-1.13-.19-.16-1.69-.71-.51-.14-2.89.07,2.65-3.59.61-2.7.27-1.05,1.73-.96,3.34.06"/><path id="13051" d="m810.56,423.52l.1.45.18.92.25,1,.09.09,1.09.42,3.57.67.67.07.18.03.1.28v.2l-.07.35-.2.47-3.22,5.19-.14.2-.9,1.03-.14.06-.44-.1-.64-1.95-.12-1.61-1.83-.21-1.17-2.01-1.6-1.42-.41-.47,3.15-3.88,1.52.2"/><path id="13029" d="m798.22,427.06l6.32-3.04,1.35,3.18.41.47,1.6,1.42,1.17,2.01,1.83.21.12,1.61.64,1.95-.74.16-.12-.04-2.2-1.07-1.45-1.07-.21-.19v-.06s-.03-.16-.03-.16l-.62-1.48-.16-.27-1.41-.48-1.87.49-1.54-1.63-1.65-.75-1.43-1.25"/><path id="13031" d="m795.38,415.91l6.15,2.79,3.01,5.33-6.32,3.04-1.18-1.79-1.45-.65-1.36.33.16-.55.3-2.92-1.07-.84-.26-1.25-1.22-.42.32-1.63,2.92-1.42"/><path id="13165" d="m789.03,413.03l-.08-.15.25-1.53.69-.88,2.3-.42,1.84-1.04.65.1.83.27.2.14.18.24-.99,5.8.48.34-2.92,1.42-1.84-1.01-1.59-3.29"/><path id="13103" d="m804.18,415.81l2.01.8.37.14,1.71,1.41,2.04,4.14.25,1.22-1.52-.2-3.15,3.88-1.35-3.18-3.01-5.33,2.65-2.89"/><path id="13251" d="m795.89,409.76l3.81-3.76,3.65,6.45.83,3.36-2.65,2.89-6.15-2.79-.48-.34.99-5.8"/><path id="13033" d="m785.18,402.99l1.74-.94h.13l.63.36.14.27.62.83.52-.4,1.85-.02,1.57-1.01.76.18,1.79,1.35,3.21,1.5,1.58.87-3.81,3.76-.18-.24-.2-.14-.83-.27-.65-.1-1.84,1.04-2.3.42-.69.88-.25,1.53.08.15-3.34-.06.26-1.05.24-1.4-.41-1.58-.22-.65-.14-.57.03-1.12.13-1.01.39-1.88-.52-.58-.16-.13-.11-.02"/><path id="13245" d="m788.78,395.99l.31.29.16.15.9.85,1.27,1.49.45,1.74,1.25,1.77-.76-.18-1.57,1.01-1.85.02-.52.4-.62-.83-.14-.27-.63-.36h-.13l-1.74.94-1.77-.79.99-1.13,4.38-5.08"/><path id="13073" d="m784.72,393.28l2.2,1.92,1.86.79-4.38,5.08-.34-.22-1.72-2.07-1.26-1.76-.31-1.81.02-.3.17-.23,3.78-1.38"/><path id="13181" d="m775.69,387.61l1.62.44,2.84,1.69.12.03.27-.1h.09l1.64.83.5.36,1.18.97.76,1.44-3.78,1.38-.99.4-2.6-3.47-1.66-3.98"/><path id="13105" d="m772.48,380.9l.71,1.84,3.34,4.12.79,1.2-1.62-.44-2.46.67-3.93-1.15-2.21-1.97-.26-1.97,2.61.15,3.04-2.45"/><path id="13195" d="m766.02,382.22l.81.98.26,1.97,2.21,1.97-1.27.81-.26-.03-1.03-.3-.27-.16-.14.02-2.19,1.4-2.04-.69-.13-2.1-1.15-1.39.66-.16.51-.52,3.64-.7.39-1.09"/><path id="13011" d="m760.11,378.64l.6.97.09,2.2,1.07,1.01.13,1.19-.51.52-.66.16-.48-.41-1.17-.88-.7.23-.82.16-.22-.08-.39-.25-.59-.47-.8-1.6.5-1.53,1.44-1.52h1.3s1.22.3,1.22.3"/><path id="13139" d="m754.96,378.33l1.19,1.53-.5,1.53.8,1.6-3.21,4.33-.8.64-3.93-.98,1.38-.63.73-1.43-.61-2-.67-1.9,2.29-2.31,3.31-.39"/><path id="13187" d="m750.77,373.77l.88,4.94-2.29,2.31-2.42-.88-1.59-1.39-.43-1.45.44-1.13,2.42.04,1.43-2.59,1.55.15"/><path id="13123" d="m736.19,372.48l3.57-.42,1.07.12.82.52.43.33,1.32,1.77,1.12,1.62.2.55-1.02,1.31-1.6.3-.44.39-3.54.39-1.75.25-.1-.79-.45-3.34.22-1.06.5-.55.4-.69v-.07s-.04-.07-.04-.07l-.72-.55"/><path id="13111" d="m741.34,368.75l3.58-.42-.75.8-.07.13.02.12,1.7.9-.54,1.02-.05,1.19.35.23.72-.44.28,1.39-.54,1.15-.68,1.35-.44,1.13-.2-.33-.2-.55-1.12-1.62-1.32-1.77-.43-.33-.82-.52-1.07-.12-3.57.42-.42-3.04,5.57-.68"/><path id="13291" d="m747.22,368.04l1.28-.17-.11.42.6.57,1.14.64.54-.04.55.31.68,1.6.08.58-1.21,1.81-1.55-.15-1.43,2.59-2.42-.04.68-1.35.54-1.15-.28-1.39-.72.44-.35-.23.05-1.19.54-1.02-1.7-.9-.02-.12.07-.13.75-.8,2.3-.29"/><path id="13311" d="m751.98,371.96l1.82-.41.99.57.13.22.13.58.72,4.38-.8,1.03-3.31.39-.88-4.94,1.21-1.81"/><path id="13137" d="m754.28,370.97l1.47-.29,1.29,1.73,1.29.07.74-.47,1.1.68.37.62-1.66,5.04h-1.3s-1.44,1.53-1.44,1.53l-1.19-1.53.8-1.03-.72-4.38-.13-.58-.13-.22-.99-.57.48-.58"/><path id="13147" d="m766.47,377.03l1.17.16.21-.11h.02l.75-.18.67-.09.39.11.19.15v.06s.62.97.62.97l1.99,2.8-3.04,2.45-2.61-.15-.81-.98.45-5.18"/><path id="13119" d="m765.32,376.23l1.15.8-.45,5.18-.39,1.09-3.64.7-.13-1.19-1.07-1.01-.09-2.2-.6-.97.38-.23.14-.05,3.54-.64,1.15-1.49"/><path id="13257" d="m760.55,373.3l4.77,2.93-1.15,1.49-3.54.64-.14.05-.38.23-1.22-.31,1.66-5.04"/></g></svg>