<?xml version="1.0" encoding="UTF-8"?><svg xmlns="http://www.w3.org/2000/svg" viewBox="0 0 989.98 627.07"><path id="15001" d="m397,619.98l-.67.67-1.34-1.01-3.36-1.34-.68-1.01-.34-.67.34-5.37-2.35-5.71-1.34-1.34-1.01-1.34.34-1.01,2.01-2.01,2.35-3.02v-1.34l-1.68-2.35-.34-1.34.34-1.35.67-.34,2.02.34.67,1.01,3.02,1.35,3.7.67,4.03,1.68,2.69,1.68,1.34,1.68.34,2.69,1.68-.34.67,1v1.35l1.68,1.34,2.35,1.01-.67,1.34-3.69,3.36-3.02,1.68-2.69.34-3.02,2.35-1.68,1.01-2.35,4.37"/><path id="15003" d="m349.66,568.93l-1.35,1.01v-.34l-2.01.67-1.68-1.01-3.36.34-1.34.34-.67-1.68-1.01-.67-.33-1.01-1.01-1.01v-1.01l-1.01-.67,3.36-.68,1.68-2.35,1.01-.67,1.01.33,1.68,3.02h.34l.34.67-.34.67.34,1.01,1.34,1.01.34-1.01h.67v1.01l.67.34.34,1.34,1.01.33"/><path id="15005" d="m364.43,571.29l-1.01-.33,2.35.33.33.67h-.33l-.67-.33h-.34l-.33-.34"/><path id="15007" d="m309.7,550.13h2.35l1.01.67.33,1.01v.67l-.67,1.68v2.02l-1.34,1.34-1,.67-3.36-.34-1.34-1.34-2.01-.67-.67-.67v-1.01l1.01-1.34,3.36-2.68h2.35m-15.78,10.75l-.34-.34.34-2.01,2.01-1.34.34-1.01h1.01l-.34,2.35-1.68.67-1.01,1.68h-.34"/><path id="15009" d="m364.76,571.62h.34l.67.33h.33l-.33-.67,3.02-.67,1.34.34-.67,1.34-2.01,1.34h-1.01l-4.03-.67-4.7.33h-.34l1.01-2.69h.34l4.7.34,1.01.33.33.34m8.06,2.35l1.01.34,1.68,2.69,3.36-1.68,2.01.34v.34l2.69,1.68,2.35.67.34.67v1.34l-1.34,1.34-1.68.67-3.36,1.35h-2.35l-.67-.34-.67-4.03-1.01-.34-.67.67-2.01-1.01-1.34-1.34-.34-1.34.67-1.34.34-.67h1.01m-8.73,3.02h2.35l1.34,1.01.67,1.01-.34,1.34-3.02,1.01-.34-1.34-.33-1.01-1.34-1.34v-.34l1.01-.33m10.07,6.72l.34.33.34,1.34-2.69.67-1.01-.34.67-1,2.35-1.01"/></svg>