<?xml version="1.0" encoding="UTF-8"?><svg xmlns="http://www.w3.org/2000/svg" viewBox="0 0 989.98 627.07"><path id="16043" d="m273.02,135.93l.77.76,1.32,2.59.71,2.06.19.55,1.31,1.21-1.77,11.17-5.95.45-.06.07-.06.02-2.45-.43-.18.82-2.23-.37-2.14-1.39-2.27-.39.16-.99-2.92-.51.34-1.96,1.99.35.38-1.86,1.92.23,1.07-.84.34-1.47.25-1.46,1.21-1.15,1.49-.37,1.43.23.58-3.44,2.78-3.19,1.83-.69"/><path id="16033" d="m268.41,139.81l-.58,3.44-1.43-.23-1.49.37-1.21,1.15-.25,1.46-.34,1.47-1.07.84-1.92-.23-.38,1.86-1.99-.35-8.76-1.54-.35,1.96-4.86-.88,1.05-5.94.96.27,1.96.34.6-3.32-.1-.47.19-.86.23-.36.63-.67,1.08-.26,5.75,1.43,2.44-.92,4.48.46,3.24.92,2.09.06"/><path id="16009" d="m195.37,59.78l2.13.47,4.23.67.22-.47.61-.2,3.94.88-1.9,8.74-1.99-.42-4.76-1.41-3.69-2.93.67-2.94.54-2.39"/><path id="16055" d="m198.39,46.16l4.16.82,2.12.25,1.96.44-.52,2.25,2.78.6-2.41,10.61-3.94-.88-.61.2-.22.47-4.23-.67-2.13-.47,3.03-13.62"/><path id="16017" d="m202.87,26.89l3.72.81-.83,3.85-.88,3.85,11.1,2.4-1.37,6.39-1.12,5.31-.14-.3-.8-1.15-1.4-1.11-.18-.11-.64.06-.92.78-.07.32-.45,2.54-2.78-.6.52-2.25-1.96-.44-2.12-.25-4.16-.82.35-1.52,4.13-17.76"/><path id="16021" d="m203.65,23.5l14.71,3.19-2.37,11.1-11.1-2.4.88-3.85.83-3.85-3.72-.81.78-3.38"/><path id="16057" d="m194.16,65.11l3.69,2.93,4.76,1.41,1.99.42-.43,1.97-1.29,5.96-.85.73-1.3-.29-2.4-.57h-.17l-.69.26-.72.44-.19.25v.08s-.33.58-.33.58l-5.01-1.1,2.94-13.08"/><path id="16069" d="m191.22,78.19l5.01,1.1.34-.58v-.08s.18-.25.18-.25l.72-.44.69-.26h.17l2.4.57-.35,1.63-.25,1.43.96.03.36.1-.16.73-.09-.06-.15-.04-.39-.07h-.09s.02.32.02.32l.05.28.39,1.26-.11.69-.08.19-.15.19-1.97-.02-3.49-.77-.09.48v.16s-1.36,6.78-1.36,6.78l-.29.11-.5.39-.13.14-.2.37-.02.27.05.33.09.14.08.22-.05.23-.31.39-.12.1-.65.17-.18-.06-1.13-3.53-.1-1.59.76-2.11-.1-1.97-.15-1.27-.02-.08-.5-2.03.34-1,.59-2.6"/><path id="16061" d="m203.91,84.98l.97,2.91-2.85,1.63-2.96-1.62-.38.06-.06.06-3.2,3.01-1.67.55,1.37-6.78v-.16s.09-.48.09-.48l3.49.77,1.97.02.15-.19.08-.19.11-.69-.39-1.26-.05-.28-.02-.31h.09s.39.06.39.06l.15.04.09.06.59.77,1.83,1.02.16.3.04.31v.42"/><path id="16003" d="m190.31,107.96l5.53,1.21.08.42.16,1.41-.02,1.05-.23.53-.11.07-.06.22,2.54.58.67,1.19-.9,2.18-.35.41h-.14l-.23-.14-.77,1.18-.22.5-.64,1.79-.56,4.47v2.09l-2.55.74-1.48-.32-.55-.29-1.39-1.24.7-2.69-1.31-.36-.09-1.16.86-3.95-4.24-.98.48-.51.38-.4.54-.93.02-.02-.02-.18-.1-.22-.06-.22-.02-.46.4-.84.51-.47.78-.71,2.4-3.91"/><path id="16087" d="m185,116.85l4.24.98-.86,3.95.09,1.16,1.31.36-.7,2.69,1.39,1.24.55.29,1.48.32-.96,1.63-.36.92-.3,1.5-.55,1.81-.21.53-1.5-.34-7.16-1.61.02-.04.02-.05.03-.06h0v-.02l.02-.23-.06-.18-.02-.03-.85-1.69-.17-.1-.64-.23h-.09l-.15.07-2-.81-.24-.41-.03-.33.02-.19.04-.12.55-3.78.2-.4,3.56-4.89.38-.34.11-.05.39-.09,1.54-.52.88-.94"/><path id="16075" d="m181.46,132.3l7.16,1.61-.44,1.94-2.34,1.49-2.27-.52-.87,3.93-3.95-2.61.48-.8.78-1.48.63-2.55.81-1"/><path id="16015" d="m208.16,133.63l.86.96-.21,3.04,2.84.97.07.38.07,3.79-.07.19-.47.47-1.28-.04-1.57-1.2.06-2.5-1.02-.59-.89,3.55-3.76.42-.34.17-1.82,1.7-.79.95-.72,1-.47.43-.4.19-2.27.86-1.3.05-.93-.11-.19-.09-.11.11-1.8-2.87-2.02-3.18.12.03.03-.11,1.67-7.64.98.21,1.57-.12.6-1.42,9.65,2.07.78-.03.89-.3,2.18-1.33"/><path id="16045" d="m195.05,127.11l.08.02-.85,3.93-.96-.2-.84,3.9-.98-.21-1.67,7.64-.03.11-.12-.03-3.74-.82-3.24-.7.87-3.93,2.27.52,2.34-1.49.44-1.94,1.5.34.21-.53.55-1.81.3-1.5.36-.92.96-1.63,2.55-.74"/><path id="16027" d="m178.76,138.14l3.95,2.61,3.24.7-.86,3.9.23.97-.17,1.8-.29,1.31-.7,1.17-.76,2.5-1.05-.68-2.37-4.41-.03-.12.14-.88.02-.41-.12-.71-.1-.35-.4-.5-1.96-2.27-.55-.34,1.78-4.31"/><path id="16001" d="m185.94,141.45l3.74.82,2.02,3.18,1.8,2.87.11-.1-1.08,5.12-.38,1.78-.9,3.88-4.71-.99-.26-.23-.39-.46-.52-.83-.39-.7v-.06s.12-.46.12-.46l.21-.31.03-.22-.31-1.12-.2-.27-.12-.09-1.31-.14.76-2.5.7-1.17.29-1.31.17-1.8-.23-.97.86-3.9"/><path id="16039" d="m211.27,143.43l.27.33-.66,1.73-.22.14-.51.74-.22.42-1.74,4.15-1.13,5.28-.79,3.89-.51,6.65-.67,3.26-6.87-1.4.39-1.89.27-.57.32-1.19-5.74-1.62-3.37-.71-.2-.09-1.06-1.11-1.53-1.77-.71-1.45-.05-.23,4.71.99.9-3.88.38-1.78,1.08-5.12.19.09.93.11,1.3-.05,2.27-.86.4-.19.47-.43.72-1,.79-.95,1.82-1.7.34-.17,3.76-.42.89-3.55,1.02.59-.06,2.5,1.57,1.2,1.28.04"/><path id="16073" d="m176.98,142.44l.55.34,1.96,2.27.4.5.1.35.12.71-.02.41-.14.88.03.12,2.37,4.41,1.05.68,1.31.14.12.09.2.27.31,1.12-.03.22-.21.31-.13.46v.06s.39.7.39.7l.52.83.39.46.26.23.05.22.71,1.45,1.53,1.77,1.06,1.11.2.09,3.37.71,5.74,1.62-.32,1.19-.27.57-.39,1.89,6.87,1.4-3.56,17.5-24.5-5.2-1.93-.44-6.49-1.49-.13-.05,8.51-37.89"/><path id="16025" d="m210.87,145.49l1.68,1.17,2.6.76.12.15.05.17.04.34.02,1.04-.13,1.79-.08,1.69.98,3.71-.48,2.58,1.97.3.54.3-.03,1.88-.21,1.04-3.61-.68-8.06-1.62.79-3.89,1.13-5.28,1.74-4.15.22-.42.51-.74.22-.14"/><path id="16047" d="m206.26,160.1l8.06,1.62-1.56,7.88-1.27,4.49-2.2-.98-1.14-1.05-.88-1.65.45-1.94v-.11s-.68-1.42-.68-1.42l-.58-.19-.46-.1-.24.1.51-6.65"/><path id="16053" d="m212.76,169.6l3.78.75-.12.61.27.39,4.78,1.48-.09.46,1.93.38-.98,5.21h-1.18s-2.11.21-2.11.21l-.78-.79-.09-.19-.8-.69-2.64-1.43-1.03-.38-2-1.3-.21-.22,1.27-4.49"/><path id="16083" d="m205.75,166.75l.24-.1.46.1.58.19.68,1.42v.11s-.44,1.94-.44,1.94l.88,1.65,1.14,1.05,2.2.98.21.22,2,1.3,1.03.38,2.64,1.43.8.69.09.19.78.79,2.11-.22-.64.1-.87,1.68-3.69-.21-.25,1.34-.06.62-1.49,7.64-3.62-.71-4.4-1-2.52-.51-2.08-.33,3.56-17.5.67-3.26"/><path id="16031" d="m222.32,178.89l3.57,1.07.22.03.11-.03.69-.22.23-.2.27-.38,1.23-1.59.13-.11.27-.15.69-.11.8.08,1.01.07.87.27.44.73.25.35.85.47h.1l.19-.16.68-.08,3.05,1.64-1.04,5.93-1.36,7.5-6.73-1.14-.49-.08-5.58-.95-.53-.09-1.43-.25-.2-.04-1.34-.32-1.12-.28-4-.79,1.49-7.64.06-.62.25-1.34,3.69.21.87-1.68.64-.1h1.18"/><path id="16071" d="m247.31,184.22l1.42,1.5v1.66l.66.77,1.55,1.59.41.28.34.46.41.77-.27,1.57-.65-.12-.67,3.94-.92-.15-1.23-.32h0l-3.55-.61-4.33-.75-4.89-.83,1.36-7.5,5.79,1.01.35-1.99,2.59.46.35-1.99,1.3.23"/><path id="16077" d="m240.03,168.65l-1.03,5.64,3.18.56,1.45-1.82.68.74,1.97-.77.22.04.46.51.39,1.1,1.21,6.4-.08.49-.32,1.19-.84,1.47-1.3-.23-.35,1.99-2.59-.46-.35,1.99-5.79-1.01,1.04-5.93-3.05-1.64-.68.08.57-3.12.25-1.97,1.1-5.97,3.88.71"/><path id="16005" d="m255.26,173.41l-1.36,1.59-.05.09-.34.79-.51,2.56-.04.65.02.25.31,1.3.14.1.2-.02.32-.16.09-.13.14-.08,1.46.25.45,2.11.03.34.03,3.01v1.02s-.12.66-.12.66l-.33-.05-.64,3.63-1.46-.25-.71-.57-1.54-.49-.41-.28-1.55-1.59-.66-.77v-1.66l-1.42-1.5.84-1.47.32-1.19.08-.49-1.21-6.4-.39-1.1-.46-.51-.22-.04-1.97.77-.68-.74v-.15l.04-.11.26-.55,1.34-.47.19-.03,9.8,1.69"/><path id="16041" d="m256.03,187.75l4.62.79-.18,2.28-.73,1.55-.34.82-.06.41.1,2.18.06.13,1.11,2.38-10.12-1.64.67-3.94.65.12.27-1.57-.41-.77-.34-.46,1.54.49.71.57,1.46.25.64-3.63.33.05"/><path id="16007" d="m270.23,187.8l-1.87,11.68-7.74-1.21-1.11-2.38-.06-.13-.1-2.18.06-.41.34-.82.73-1.55.18-2.28-.06-3.08.03-.55.59-.38,6.02.96.21.47v.15s-.14.57-.14.57l-.12.32-.2.43,1.37.67,1.87-.29"/><path id="16029" d="m263.08,174.78l9.03,1.47-1.89,11.56-1.87.29-1.37-.67.2-.43.12-.32.15-.57v-.15s-.22-.47-.22-.47l-6.02-.96-.59.38-.03.55.06,3.08-4.62-.79.11-.66v-1.02s-.03-3.01-.03-3.01l-.03-.34-.45-2.11-1.46-.25-.14.08-.09.13-.32.16-.2.02-.14-.1-.31-1.3-.02-.25.04-.65.51-2.56.34-.79.05-.09,1.36-1.59,7.82,1.37"/><path id="16067" d="m228.78,164.48l4.94.93-1.46,7.96-.98-.18-.76,4.09-.8-.08-.69.11-.27.15-.13.11-1.23,1.59-.27.38-.23.2-.69.22-.11.03-.22-.03-3.57-1.07.98-5.21,2.78.55,1.21-1.78,1.49-7.96"/><path id="16063" d="m214.32,161.73l3.61.68,10.85,2.07-1.49,7.96-1.21,1.78-2.78-.55-1.93-.38.09-.46-4.78-1.48-.27-.39.12-.61-3.78-.75,1.56-7.88"/><path id="16019" d="m264.77,160.86l3.7.71,2.56.43.23.39.02.23,1.36,1.74,1.21.92-.6,3.96-1.13,7.01-9.03-1.47.7-4.09.32-1.86-3.88-1,.34-1.57-4.64-.89.26-1.23-6.85-1.2.8-4.58,14.64,2.5"/><path id="16011" d="m250.13,158.36l-.8,4.58,6.85,1.2-.26,1.23,4.64.89-.34,1.57,3.88,1-.32,1.86-.7,4.09-7.82-1.37-9.8-1.69-.19.03-1.34.47-.26.55-.04.11v.15l-1.45,1.81-3.18-.56,1.03-5.64.72-3.95.98.18.5-1.85.35-1.87,1.98.36.45-2.07,1.83.34.36-1.87,2.92.43"/><path id="16013" d="m211.53,143.76l.78-.56.2-.1.61-.23.24-.04.97.19,1.85,1.91,1.35,1.51,1.86-.14,2.39.7.63.47,4.32,4.7,1.28,1.58.23.3.46.89.16.36.14.55.89-.27h.34l.43.2.08.14.63,2.04.12.94-.36.25-.33,1.75,4.48.84-.35,1.88,5.83,1.06-.72,3.95-3.88-.71-1.1,5.97-.25,1.97-.57,3.12-.19.16h-.1l-.85-.47-.25-.35-.44-.73-.87-.27-1.01-.07.76-4.09.98.19,1.46-7.96-4.94-.93-10.85-2.07.21-1.04.03-1.88-.54-.3-1.97-.3.48-2.58-.98-3.71.08-1.69.13-1.79-.02-1.04-.04-.34-.05-.17-.12-.15-2.6-.76-1.68-1.17.66-1.73"/><path id="16085" d="m198.2,113.45v-.13s.27-.5.27-.5l.35-.43,2.49-.34,20.38,4.17-.31.15-.22.22-.26.64-.25,1.24-.17,1.05-.55,2.11-.94,1.82-.93,1.15-2.52,1.48-.17.03-.69-.24-.52-.71-.5-.43-.27-.09-.79.37-2.93,2.5-.55.65v.63s.02.39.02.39l.09.42.39.13.1-.06.05.02.11.22.06.72-.29,1.3-.1.17-.36.58-.3.34-.51.47-.19.12-2.18,1.33-.89.3-.78.03-9.65-2.07-.6,1.42-1.57.12.84-3.9.96.2.85-3.93-.08-.02v-2.09l.56-4.47.64-1.79.22-.5.77-1.18.23.14h.14l.35-.41.9-2.18-.67-1.19"/><path id="16079" d="m208.91,50.52l.45-2.54.07-.32.92-.78.64-.06.18.11,1.4,1.11.8,1.15.14.3.47.84,3.09,6.3.02.08.02.06v.03s0,.09,0,.09v1.29s-.53,1.33-.53,1.33l-.44,1.01-.3,1.85v.02l.02.57,2.46,3.4.34.29.27.23.84.41,1.22.49.27.19,1.4,3.15,1.31,3.05.74,1.38.4.74-20.95-4.43.43-1.97,1.9-8.74,2.41-10.62"/><path id="16035" d="m204.17,71.84l20.95,4.43.31,2.32h0s.07.2.07.2l2.32,3.09.22.06.1.03h.69l.87,2.18-10,.18-6.86.13-.03.02-2.19,2.59-.48.94-.27.31-.33.29-.25-.03-.32-.1-2.35-1.11-.09-.07-.41-.58-.28-.62-1.54-.96-.38-.17v-.42s-.05-.31-.05-.31l-.16-.3-1.83-1.02-.59-.77.16-.73-.36-.1-.96-.03.25-1.43.35-1.63,1.3.29.85-.73,1.29-5.96"/><path id="16049" d="m233.64,84.71l.09.09.06.27-.1.51-.56,1.57-.94,2.16-1.41,3.12-4.48,11.19-.56,3.08-.28,1.56-.02.08.05.06-.71.53-1.59,1-.82-.43-.23-.22-.14-.26-.16-.17-.23-.03-.1.07-.13.26-.1.46-.11.82v.09s.59.82.59.82l.83,1.12.7,1.49-1.6,2.29-20.38-4.17-2.49.34-.35.43-.26.5v.13s-2.55-.58-2.55-.58l.06-.22.11-.07.23-.53.02-1.05-.16-1.41-.08-.42-5.53-1.21.55-1.15,2.78-3.57,1.54-1.58.39-.44.06-.29-.55-2.91-.11-.44-.31-.4-.27-.35h0l-.59-.26-1.4-1.29-.73-.67-.05-.09-.07-.14.18.06.65-.17.12-.1.31-.39.05-.23-.08-.22-.09-.14-.05-.33.02-.27.2-.37.13-.14.5-.39.29-.11,1.67-.54,3.2-3.01.06-.06.38-.06,2.96,1.62,2.85-1.63-.97-2.91.38.17,1.54.96.28.62.41.58.09.07,2.35,1.11.32.1.25.03.33-.29.27-.31.48-.94,2.19-2.59.03-.02,6.86-.13,10-.18.03.03,1.71.36.36-.1.25-.1.41-.08.83.11.28.23.07.07"/><path id="16037" d="m208.16,133.63l.19-.12.51-.47.3-.34.36-.58.1-.17.29-1.3-.06-.72-.11-.22-.05-.02-.1.06-.39-.13-.09-.42-.04-.39v-.63s.57-.65.57-.65l2.93-2.5.79-.37.27.09.5.43.52.71.69.24.17-.03,2.52-1.48-.4,1.35.02.3.13.37,2.64,3.43.47.56.1.03,1.45-.15.5-.33,1.25-1.06.06-.09.38-.79.37-.92.48-.71.68-.54,1.65-1.2.31.52-.09.81.04,1.95,4.52,6.63,2.3,1.46,1.7.92.21.08.57.16.1-.02.24-.18.26-.31.16-.12.21.04.07.11.11.3.83,2.37.22.7.06.98-.09.97-1.56-.29-1.4,3.82-.13.64-.28,2.68-.4,2.41-1.7,1.72-2.76.91-1.59.85-.71.75-.06.13-.14-.55-.16-.36-.46-.89-.23-.3-1.28-1.58-4.32-4.7-.63-.46-2.39-.7-1.86.14-1.35-1.51-1.85-1.91-.97-.19-.24.04-.61.23-.2.1-.78.56-.27-.33.47-.47.07-.19-.07-3.79-.07-.38-2.84-.97.21-3.04-.86-.96"/><path id="16059" d="m235.57,107.29l.33.35,1.56,2.2.09.29.18,1.82v.68s-.22.38-.22.38l-.04,1.37.02,1.8,2.52,9.35,2.67,3.71.55-.13.57.45.68.76.31.47.35,1.1.47,2v.18l-.1.18-.06.05-.02,2.87.19,1.09.44.64,1.31,1.46.42.15.33-.18.16-.25v-.06s.11.47.11.47l-.6,3.32-1.96-.34-.96-.27-5.27-.94.09-.97-.06-.98-.22-.7-.83-2.37-.11-.3-.07-.11-.21-.04-.16.12-.26.31-.24.18-.1.02-.57-.16-.21-.08-1.7-.92-2.3-1.46-4.52-6.63-.04-1.95.09-.81-.31-.52-1.65,1.2-.68.54-.48.71-.37.92-.38.79-.06.09-1.25,1.06-.5.33-1.45.15-.1-.03-.47-.56-2.64-3.43-.13-.37-.02-.3.4-1.35.93-1.15.94-1.82.55-2.11.17-1.05.25-1.24.26-.64.22-.22.31-.15,1.6-2.29-.7-1.49-.83-1.12-.58-.82v-.09s.1-.82.1-.82l.1-.47.13-.26.1-.07.23.03.16.17.14.26.23.22.82.43,1.59-1,.71-.53.71.1.63.16.2.09,1.18,1.86.14.56.66.1,3.15-1.45,1.98-1.74,1.41-.81"/><path id="16023" d="m244.85,143.19l-1.05,5.94,4.86.88-1.45,7.92-.36,1.87-1.83-.34-.45,2.07-1.98-.36-.35,1.87-.5,1.85-.98-.18-5.83-1.06.35-1.88-4.48-.84.33-1.75.36-.25-.12-.94-.63-2.04-.08-.14-.43-.2h-.34l-.89.27.06-.13.71-.75,1.59-.85,2.76-.91,1.7-1.72.4-2.41.28-2.68.13-.64,1.4-3.82,1.56.29,5.27.94"/><path id="16051" d="m248.66,150.01l.35-1.96,8.76,1.54-.34,1.96,2.92.51-.16.99-.6,2.93-.18,1,.18.17.35.03.06-.03,2.75,2.69,2.13.37-.11.65-14.64-2.5-2.92-.43,1.45-7.92"/><path id="16065" d="m260.19,153.06l2.27.39,2.14,1.39,2.23.37.18-.82,2.45.43.06-.02.06-.07-1.13,6.85-3.7-.71.11-.65-2.13-.37-2.75-2.69-.06.03-.35-.03-.18-.17.18-1,.6-2.93"/><path id="16081" d="m275.55,154.28l-1.71,11-1.21-.92-1.36-1.74-.02-.23-.23-.39-2.56-.43,1.13-6.85,5.95-.45"/></svg>