<?xml version="1.0" encoding="UTF-8"?><svg xmlns="http://www.w3.org/2000/svg" viewBox="0 0 989.98 627.07"><g><path id="17183" d="m670.36,248.44l.59,7.6.51,6.12-7.05.69-.76-7.97.23-.02-.41-4.01-.22-1.99,7.08-.74.03.33"/><path id="17075" d="m658.88,237.33l10.39-1.19,1.07,11.97-7.08.74-3.17.23-1.21-11.75"/><path id="17003" d="m641.42,323.77l4.27-.31-.06,2.52-.06,2.34.17.36.14.17.44.2,1.18.5.86,1.93-3.5-.38-1.21-.99-.64-1.58-1.12-2.09-.46-.66-.03-2.02"/><path id="17153" d="m645.69,323.47l3.7-.14.08,1.17,2.06-.7.15,1.77-.1.03-4.06,3.95-1.18-.5-.44-.2-.14-.17-.17-.36.06-2.34.06-2.52"/><path id="17127" d="m651.53,323.8l3.9-1.09,4.31,3.79.18,2.14-1.32-.14-6.9-2.93-.15-1.77"/><path id="17069" d="m661,316.16l4.41.22,1.44,1.49v.37l-.34.39-.18.04-2.51.53-.38.08-.31.09-.11.03h-.04l-.43.26-.09.06h-.02l-.31.28-.46.61-1.05-.34-.27-4.08.66-.05"/><path id="17151" d="m660.34,316.21l.27,4.08-.11.05-.31.14-.13.1-.16.11-.23.3-.09.23-.52,2.26v.15s.14.5.14.5l.76.92.24.14.22.22.51,1.14-.27,1.28-.22.6-.42.18-.14.02-.18-2.14-4.31-3.79-.42-6.06,5.34-.43"/><path id="17087" d="m655,316.65l.42,6.06-3.9,1.09-2.06.7-.08-1.17-.39-6.16,6-.51"/><path id="17181" d="m649,317.16l.39,6.16-3.7.14-4.27.31.66-.18.21-.11.02-.02.02-.02v-.02s.09-.22.09-.22l.07-.71v-.03s0-.02,0-.02l-.1-.39v-.04s-.02-.02-.02-.02l-.29-.65-.22-.28-.48-.47-.34-.5-.51-.96h0l-.11-.46-.02-.21v-.14l.78-.83,5.81-.29,2.03-.06"/><path id="17059" d="m665.97,309l.91,2.04-.23.88-.09.23-.14.25-.22.24-.84.61h-.01l-.29.55-.15.25-.02.05-.1.26-.03.16v.03s.1.52.1.52v.02s.4,1.05.4,1.05l.15.26-4.41-.22-.55-7.12v-.02l5.52-.02"/><path id="17165" d="m660.45,309.04l.55,7.12-.66.05-5.34.43-.44-6.11-.07-1,5.96-.49"/><path id="17199" d="m654.56,310.54l.44,6.11-6,.51-2.03.06-.39-6.05,7.98-.63"/><path id="17077" d="m638.45,309.57l7.5-.41.63,2.01.39,6.05-5.81.29-.78.83-3.12-5.16,1.19-3.61"/><path id="17133" d="m625.66,297.26l2.23,2.03,1.67,2.77,2.54.66.49,1.05-2.45.11.13,2.02-2.94,1.27-.91-.68-1.51-1.47-.05-.05-.06-.08-.33-.45-.21-.52-.24-1.03-.03-.96.02-.23.03-.1.26-.89.08-.16.05-.06,1.24-3.22"/><path id="17157" d="m638.08,303.46l.38,6.11-1.19,3.61-4.85-1.35-5.09-4.64,2.94-1.27-.13-2.02,2.45-.11,3.51-.19,1.98-.13"/><path id="17145" d="m638.08,303.46l7.98-.41.18,2.01.18,2.59-.47,1.51-7.5.41-.38-6.11"/><path id="17055" d="m654.13,304.48l.43,6.06-7.98.63-.63-2.01.47-1.51-.18-2.59,7.9-.58"/><path id="17065" d="m659.88,301.01l.57,8.02v.02l-5.96.49-.35-5.05-.19-3.04,5.94-.43"/><path id="17193" d="m666.65,300.34l.67.75-.1,2.41-.26,5.33-.05.1v.02s-.05.03-.05.03h-.03l-.86.03-5.52.02-.57-8.02,3.92-.34,2.85-.33"/><path id="17081" d="m653.61,296.4l.33,5.05.19,3.04-7.9.58-.18-2.01-.38-6.04,7.93-.61"/><path id="17189" d="m645.64,296.33l.04.67.38,6.04-7.98.41-1.98.13-.32-4.61.61-.61.92-.76.72-.27,5.35-.92,2.26-.08"/><path id="17027" d="m643.28,290.94h2.06s.3,5.39.3,5.39l-2.26.08-5.35.92-.72.27-.92.76-.61.61-.41-5.47,1.81-2.17,6.1-.4"/><path id="17163" d="m626.92,293.93l8.45-.42.41,5.47.32,4.61-3.51.19-.49-1.05-2.54-.66-1.67-2.77-2.23-2.03.08-.28,1.18-3.05"/><path id="17119" d="m636.04,285.48l.17,1.86.28,1,.56,1.41.13,1.59-1.81,2.17-8.45.42-.37-1.85,1.29-1.58.04-.22.06-.53-.02-.14-.07-.13-1.74-1.05-.34-.2-.45-.22-.46-.14,2.19-1.85,7.92-.48,1.04-.07"/><path id="17005" d="m642.87,284.33l.4,6.61-6.1.4-.13-1.59-.56-1.41-.28-1-.17-1.86.78-.04v-.83s6.06-.26,6.06-.26"/><path id="17121" d="m645.34,290.93l-.14-2.03,2.45-.15,5.4-.47.34,5.09.22,3.04-7.93.61-.04-.67-.3-5.4"/><path id="17191" d="m661.31,292.88l1.95.56.54,7.23-3.92.34-5.94.43-.33-5.05-.22-3.04,7.91-.48"/><path id="17185" d="m667.44,293.05l4.65-.35-1.28,3.68-3.46,4.6-.03.11-.67-.75.03-7.23.75-.06"/><path id="17047" d="m666.68,293.11l-.03,7.23-2.85.33-.54-7.23,3.42-.33"/><path id="17101" d="m673.62,285.95h.07l.04.06.68,1.47v.56s-.26,1.46-.26,1.46l-.18.32-.14.12-1.41,1.8-.35.94-4.65.35-.47-6.47,6.65-.63"/><path id="17159" d="m666.96,286.58l.47,6.47-.75.06-3.42.33-1.95-.56-.72-2.02-.05-.34v-.65s.46-.02.46-.02l-.24-2.69,5.54-.52.67-.06"/><path id="17025" d="m652.93,286.22l5.89-.38.12,1.49,1.82-.17.24,2.69-.47.02v.65s.05.34.05.34l.72,2.02-7.91.48-.34-5.09-.13-2.05"/><path id="17079" d="m664.56,279.25l1.01-.11.72,7.49-7.36.69-.59-7.5,6.22-.58"/><path id="17033" d="m665.57,279.14l5.71-.08.36,1.23.84.98,1.28,2.28-.05.73-.13.36-.11.14.14,1.15-6.65.63-.67.06-.72-7.49"/><path id="17023" d="m664.8,272.09l4.76-.55v.25s2.77-.26,2.77-.26l-.82,5.14-.23,2.39-5.71.08-1.01.11-.47-4.72-.31-2.36,1.02-.09"/><path id="17035" d="m664.09,274.53l.47,4.72-8.16.76-.37-4.72,8.06-.76"/><path id="17049" d="m656.32,278.98l.08,1.03,1.94-.18.47,6.01-5.89.38-2,.22-.51-7.04"/><path id="17051" d="m650.42,279.4l.51,7.04,2-.22.13,2.05-5.4.47-2.45.15.14,2.03h-2.06s-.4-6.6-.4-6.6l-.3-4.44,1.94-.09,5.91-.4"/><path id="17173" d="m645.78,269.57l3.77-.26.16,1.68,4.15,2.39.84.31,1.19-.09.13,1.69.29,3.69-5.9.42-5.91.4-.22-3.03,2.02-.08-.27-4.09-.26-3.03"/><path id="17135" d="m634.13,273.43l2.95-.24.33,4.07,4.92-.34,1.97-.15.22,3.03-1.94.09.3,4.44-6.07.26v.83s-.77.04-.77.04l-1.04.07-.86-12.12"/><path id="17083" d="m626.66,279.97l.41,6.06-2.19,1.85-3.16-.77-2.9-3.31.31-1.58.78-.18.49.09.1.09v.05s.31.17.31.17l3.05-.24-.08-1.18,2.06-.98.83-.05"/><path id="17117" d="m630.18,273.71l3.95-.28.86,12.12-7.92.48-.41-6.06-.47-5.96,4-.3"/><path id="17013" d="m612.32,277.61l5.94-.24.55,6.43,2.9,3.31-3.77.99-.96-2.56-.04-.16.02-.07.48-.75v-.29s-.81-2.82-.81-2.82l-4.31-3.83"/><path id="17061" d="m626.18,274.01l.47,5.96-.83.05-2.06.98.08,1.18-3.05.24-.3-.17v-.05s-.11-.09-.11-.09l-.49-.09-.78.18-.31,1.58-.55-6.43.41-2.95,4.91-.25,2.6-.16"/><path id="17021" d="m642.16,266.14l1.35.19.29,3.36,1.99-.12.26,3.03.27,4.09-2.02.08-1.97.15-4.92.34-.33-4.07-.21-2.69,1.16-.13-.02-1.13,1.19-.04-.05-1.21,2.36-1.86h.66"/><path id="17029" d="m655.5,268.89l7.16-.6-.06-.67.65-.14,1.04-.12.52,4.72-1.02.09.31,2.36-8.06.76-.13-1.69-.4-4.72"/><path id="17045" d="m664.42,262.85l7.05-.69.59,6.36.27,3-2.76.26v-.25s-4.77.55-4.77.55l-.52-4.72-.17-1.68.43-.81-.14-2.02"/><path id="17041" d="m655.25,263.62l9.17-.77.14,2.02-.43.81.17,1.68-1.04.12-.65.14.06.67-7.16.6-.28-3.24.03-2.03"/><path id="17139" d="m655.22,265.65l.28,3.24.4,4.72-1.19.09-.84-.31-4.15-2.39-.16-1.68-.07-1.53.94-.68.03-1.07,4.77-.37"/><path id="17115" d="m649.99,259.95l.46,6.08-.03,1.07-.94.68.07,1.53-3.77.26-1.99.12-.29-3.36-1.35-.19-.18-2.4,1.26-.08-.2-3.05,2.02-.17,3.91-.42,1.02-.07"/><path id="17167" d="m635.58,262.81l1.66-.13.07,1,1.4.26,3.27-.21.18,2.4h-.66l-2.36,1.86.05,1.21-1.19.04.02,1.13-1.16.13.21,2.69-2.95.24-3.95.28-.02-.67-.12-.5-1.18-3.3-.26-1.54-.14-2.02-.05-.68,3.94-.26,1.16-.45-.04-.47v-.85s2.1-.16,2.1-.16"/><path id="17137" d="m618.16,266.21l10.32-.53.14,2.02.26,1.54,1.18,3.3.12.5.02.67-4,.3-2.6.16-.14-2.69-1.25-.7-.14-1.93-2.01-.71-2.03.1.41-1.17-.26-.85"/><path id="17171" d="m623.58,274.17l-4.91.25.13-.41v-.09s-.14-.47-.14-.47l-.62-1.73-.31-2.44.28-1.05,2.03-.1,2.01.71.14,1.93,1.25.7.14,2.69"/><path id="17149" d="m618.41,267.06l-.41,1.17-.28,1.05.31,2.44.62,1.73.14.47v.09s-.12.41-.12.41l-.41,2.95-5.94.24-4.23-4.4-2.48-1.89-1.04-1.66,2.88-.1,5.04-.27-.11-2.03,6.04-.21"/><path id="17009" d="m612.1,261.25l2.05-.14,1.75-.06,1.32,1.74.4.78,1.61-.02-1.08,2.64.26.85-6.04.21-.27-6.01"/><path id="17001" d="m612.02,259.2l.08,2.05.27,6.01.11,2.03-5.04.27-2.88.1-1.75-4.25-1.23-5.86,10.44-.36"/><path id="17067" d="m606.72,249.16l4.88-.28.34,8.21.08,2.11-10.44.36.11-1.12,1.28-3.06.53-.19h.03s.18-.16.18-.16l.04-.2h0s.05-2.08.05-2.08v-.23s-.11-.28-.11-.28l-.29-.42-.35-.17-.06-.19.03-.17.73-1.12.06-.07.06-.06.05-.06.15-.1.43-.25.1-.06.03-.02.91-.32h.14l.46-.03h.56"/><path id="17109" d="m613.59,248.85l5.96-.15.4,8.13-8.01.27-.34-8.21,1.99-.03"/><path id="17169" d="m611.94,257.09l8.01-.27.06,1.97,4.44-.09-2.63,1.54-2.58,3.32-1.61.02-.4-.78-1.32-1.74-1.75.06-2.05.14-.16-4.16"/><path id="17017" d="m621.81,260.25l1.04.26.27,1.26,1.56-.02.03-.02,1.74-.71,1.6-.66.07-.13.3,4.76.05.68-10.32.53,1.08-2.64,2.58-3.32"/><path id="17129" d="m628.12,260.24l.77-.61,4.82-.96.63.11.62.67.63,3.36-2.09.16v.85s.02.47.02.47l-1.16.45-3.94.26-.3-4.76"/><path id="17125" d="m628.86,252.58l3.6-.23.22,2.69,1.94-.15.34,4.57-.62-.67-.63-.11-4.82.96-.77.61-.07.13-1.6.66-1.74.71-.03.02-1.56.02-.27-1.26-1.04-.26,2.63-1.54,1.2-1.08.11-.15.81-1.52.22-1.31.1-.36.11-.19,1.63-1.38.25-.15"/><path id="17107" d="m640.51,254.37l.05.98,2.01-.13.47,5.38.2,3.05-1.26.08-3.27.21-1.4-.26-.07-1-1.66.13-.63-3.36-.34-4.57,5.89-.52"/><path id="17039" d="m652.56,254.48l-2.62,4.2.05,1.27-1.02.07-3.91.42-2.02.17-.47-5.38,9.98-.74"/><path id="17147" d="m652.56,254.48l2-.16.69,9.3-.03,2.03-4.77.37-.46-6.08-.05-1.27,2.62-4.2"/><path id="17019" d="m654.33,251.61l9.14-.77.41,4.01-.23.02.76,7.97-9.17.77-.69-9.3-.22-2.71"/><path id="17053" d="m656.9,237.56l1.98-.23,1.21,11.75,3.17-.23.22,1.99-9.14.77-.39-5.05,3.88-.33-.93-8.68"/><path id="17113" d="m645.58,244.05l5.96-.55.18,2.01.24,1.24,1.99-.18.39,5.05.22,2.71-2,.16-9.98.74-2.01.13-.05-.98-.54-6.21,2.34-.23.52-.69.98-.13-.07-.83,1.03-.11-.18-2,.99-.11"/><path id="17179" d="m634.78,244.95l3.89-.28.1,1.35.17,1.72,1.04.42.54,6.21-5.89.52-1.94.15-.22-2.69-3.6.23.78-1.84,3.58-2.29,1.63-2.46.12-.41-.09-.43-.1-.2"/><path id="17203" d="m643.25,240.22l1.99-.19.34,4.02-.99.11.18,2-1.03.11.07.83-.98.13-.52.69-2.34.23-1.04-.42-.17-1.72-.1-1.35-3.89.28-.04-2.11,1.19-2,7.31-.63"/><path id="17143" d="m632.99,239.82l2.86-.1.09,1.12-1.19,2,.04,2.11.1.2.09.43-.12.41-1.63,2.46-3.58,2.29-.09-1.55-.09-1.02-2,.1-.07-2-.38-6.07,5.98-.37"/><path id="17057" d="m627.39,246.26l.07,2,2-.1.09,1.02.09,1.55-.78,1.84-.25.15-1.63,1.38-.11.19-.1.36-.22,1.31-.81,1.52-.11.15-1.2,1.08-4.44.09-.06-1.97-.4-8.13-.1-2.01,7.93-.43"/><path id="17187" d="m613.11,238.84l5.96-.23.48,10.09-5.96.15-.48-10.01"/><path id="17071" d="m610.3,238.95l2.81-.11.48,10.01-1.99.03-4.88.28,1.21-1.42.12-2.6.06-.3,1.34-1.91.19-.18.5-.28.1-.14.15-.68.07-1.87-.09-.62-.06-.2"/><path id="17131" d="m607.73,232.99l11.08-.46.26,6.08-5.96.23-2.81.11-.02-.06.02-.55-.81-1.33-.15-.15-.14-.06-.23.03-.55-.27-1.16-1.4v-.02s-.02-.19-.02-.19l.49-1.96"/><path id="17095" d="m626.77,236.15l.24,4.04.38,6.07-7.93.43-.38-8.08-.09-2.02,7.79-.43"/><path id="17175" d="m628.83,234.06l3.76-.23.13,1.97.27,4.03-5.98.37-.24-4.04,2.19-.22-.13-1.88"/><path id="17123" d="m632.72,235.79l2.97-.2,2.35-.15-.03.56-.03.15-.1.14-.17.09-.1.11,3.38-.25,1.97-.13.3,4.1-7.31.63-.09-1.12-2.86.1-.27-4.03"/><path id="17155" d="m640.61,231.49l.37,4.76-3.38.25.1-.11.17-.09.1-.14.03-.15.03-.56-2.35.15-.15-1.98,2.05-.2.28-1.55.93-.51.21-.02,1.61.17"/><path id="17105" d="m650.87,235.41l5.74-.6.3,2.74.93,8.68-3.88.33-1.99.18-.24-1.24-.18-2.01-5.96.55-.34-4.02-.3-4.12,5.92-.5"/><path id="17091" d="m668.94,232.54l.33,3.59-10.39,1.19-1.98.23-.3-2.74-.04-2.03,2.98-.33.87-1.33-.08-.76,8.33-.86.27,3.04"/><path id="17063" d="m655.94,226.77l.63,6.02.04,2.03-5.74.6-.8-8.04,5.87-.6"/><path id="17197" d="m655.28,220.74l3.94-.47.1,1.04.11,1.01,1.85-.47.34,2.28,1.99-.19.2,2,4.52-.4.34,3.96-8.33.86.08.76-.87,1.33-2.98.33-.63-6.02-.66-6.03"/><path id="17093" d="m655.27,220.74h0l.66,6.03-5.87.6-.42-4.02-.15-2.03,5.78-.58"/><path id="17099" d="m643.92,223.87l5.73-.52.42,4.02.8,8.04-5.92.5.3,4.12-1.99.19-.3-4.1-1.97.13-.37-4.76-.58-7.35,1.96-.1,1.93-.18"/><path id="17011" d="m640.1,225.14l.51,6.35-1.61-.17-.21.02-.93.51-.28,1.55-2.05.2.15,1.98-2.97.2-.13-1.97-3.76.23-.6-8.07,3.94-.29,7.94-.55"/><path id="17073" d="m628.22,225.99l.6,8.07.13,1.88-2.19.22-7.79.43-.17-4.07-.14-2.99,1.09-1.14.2-.15.3-.14.81-.19.63-.1.88-.47.15-.35.07-.4-.03-.14-.1-.13,5.52-.33"/><path id="17161" d="m621.46,221.77l-.06.44.02.42.19.92.26.52.33.3.34.12.28.18.22.24.04.31v.28s-.04.52-.04.52l-.04.07-.29.21.1.13.03.14-.07.4-.15.35-.88.47-.63.1-.81.19-.3.14-.2.15-1.09,1.14.14,2.99-11.08.46.2-.79.24-.98.02-.05.12-.17h.02l.18-.12.65-.23,2.41-.66h1.05l.25.03.59-.02,1.38-.35,3.25-1.61,1.02-1.19.89-1.2.27-2.51,1.21-1.35"/><path id="17103" d="m631.7,218.39l1.14-.09,3.43-.25.03.34,7.12-.6.5,6.08-1.93.18-1.96.1.08,1.01-7.94.55-.46-7.31"/><path id="17195" d="m630.69,217.78l1.01.6.46,7.31-3.94.29-5.52.33.29-.21.04-.07.05-.52v-.28s-.05-.31-.05-.31l-.22-.24-.28-.18-.34-.12-.33-.3-.26-.52-.19-.92-.02-.42.06-.44,1.33-3.44,7.91-.55"/><path id="17015" d="m630.25,211.59l.44,6.2-7.91.55-.19-2.4-2.97-3.54,6.72-.48,3.9-.32"/><path id="17141" d="m635.19,211.18l3.78-.31.09,1.24,3.94-.34.42,6.01-7.12.6-.03-.34-3.43.25-1.14.09-1.01-.6-.44-6.2,4.94-.41"/><path id="17037" d="m648.94,211.29l.55,10.03.15,2.03-5.73.52-.5-6.08-.42-6.01,3.96-.33,1.98-.15"/><path id="17089" d="m654.87,210.81l-.11,3.9.51,6.03-5.78.58-.55-10.03,5.93-.48"/><path id="17043" d="m655.27,220.74l-.51-6.03,3.92-.47,1.7-.17.25.81.58,5.54-1.9.88-.1-1.04-3.94.47h0"/><path id="17031" d="m655.53,210.75l7.44-.59,1.7,2.28.92,2.59.2.7.18.75.17.54.06.14.12.27.5.9,1.04,1.71.46,5.5-4.52.4-.2-2-1.99.19-.34-2.28-1.85.47-.11-1.01,1.9-.88-.58-5.54-.25-.81-1.7.17-3.92.47.11-3.9.66-.06"/><path id="17097" d="m654.86,202.87l6.74-.46h0l.08.46.05,2.02-.15.48-.06.08-.11.73v.68l.16.71.35.85.25.53.8,1.22-7.44.59-.67-7.88"/><path id="17111" d="m653.11,203.05l1.75-.18.67,7.88-.66.06-5.93.48-1.98.15-.63-7.83,6.78-.56"/><path id="17007" d="m645.16,203.69l1.17-.08.63,7.83-3.96.33-.6-7.9,2.76-.18"/><path id="17201" d="m642.4,203.87l.6,7.9-3.94.34-.09-1.24-3.78.31-.57-6.88.6-.04,7.18-.39"/><path id="17177" d="m627.27,204.68l7.35-.38.57,6.88-4.94.41-3.9.32-.58-7.14,1.5-.09"/><path id="17085" d="m625.77,204.77l.58,7.14-6.72.48-.71-.23-.31-.2-.29-.23h-.02s-.48-.61-.48-.61v-.03s-.25-.53-.25-.53v-.15l.1-.22.1-.65v-.09s-.06-.07-.06-.07l-1.01-1.17-.04-.04h0l-1.44-1.01-1.14-.59-.39-.28-.14-.14-.04-.12-.02-.13v-.05s.24-.4.24-.4l3.61-.18,8.43-.49"/></g></svg>