<?xml version="1.0" encoding="UTF-8"?><svg xmlns="http://www.w3.org/2000/svg" viewBox="0 0 989.98 627.07"><path id="18127" d="m677.91,219.05l1.1,10.91-.15.19-.49.27-.15-.04-1.33-.84-.93-.32-.35-.09-.19.04-.97.56-.4.58-.88-8.8,4.74-2.47"/><path id="18089" d="m667.86,220.04l5.31,1.48.88,8.8-.93.63-1.93,1.28-2.25.32-.27-3.04-.8-9.46"/><path id="18123" d="m690.04,298.13l1.94-.27.2,1.28,1.9-.1.29,2.54-.35,1.21h-.11s-.37.08-.37.08l-.1.06-.07.1-.03.25.14,1.37-1.17,2.67-.5.39-.24.08h-.14l-3.2-3.32-.06-4.81-.11-1.01,2.03-.17-.05-.35"/><path id="18147" d="m688.18,299.66l.06,4.81-2.8,1.85-1.12,1.05-1.34,2.42-2.63-1.75-.09-1.11.03-.09,3.05-4.6.94-.05-.14-2.12,4.03-.43"/><path id="18173" d="m678.71,299.6l4.38-.1.05.65,1.01-.07.14,2.12-.94.05-3.05,4.6-.03.09.09,1.11-.64-.45-2.76-.74-.18-2.17-.42.04-.16-2.01v-1.01s-.07-.83-.07-.83l2.67-.26-.09-1.02"/><path id="18163" d="m672.23,301.99l3.95-.28v1.01s.17,2.01.17,2.01l.42-.04.18,2.17-1.5.44-1.01-1.15-.43,1.68.81.98-.68.94-1.05-.27.23-1.5-.76.2-.32-6.2"/><path id="18129" d="m667.34,300.98l-.02.11-.1,2.41-.26,5.32-.05.1v.02s-.05.03-.05.03h-.03l-.86.03.91,2.04.83-.07.66.43.38-.65.45-.3-.85-1.37.14-.57,4.07-.32-.32-6.2-.04-.47-2.41-.03.02-.58-2.47.08Z"/><path id="18051" d="m675.51,293.21l-4.7,3.17h0s-3.46,4.59-3.46,4.59l2.47-.08-.02.58,2.41.03.04.47,3.96-.28-.06-.83,2.67-.26-.37-4.12-.15-.06-.95.16-.25.09-1.05-1.27-.39-.65-.14-1.56Z"/><path id="18125" d="m679.41,292.58l3.08.42.6,6.51-4.38.1-.27-3.1-.15-.06-.95.16-.25.09-1.05-1.27-.39-.65-.14-1.57.65-.23,1.18-.19.12.03.97.66.23-.06.31-.27.23-.23.21-.33"/><path id="18037" d="m689.4,292.06l.31,3.03.33,3.04.05.35-2.03.17.11,1.01-4.03.43-1.01.07-.05-.65-.6-6.51h2.66s1.05-.62,1.05-.62l3.21-.3"/><path id="18025" d="m696.29,293.78l.96-.09.4,6.78-3.62,2.33.35-1.21-.29-2.54-1.9.1-.2-1.28-1.94.27-.33-3.04,4.08-.45,2.55-.2-.06-.67"/><path id="18061" d="m701.2,293.38l.22,2.01.39.64h.06l.73.54.37.3.04,1.53,1.11.09.02.18-.44,4.04-.87.3-.54.18-2.6-.13-.13-.02-.78-.31-.81-.54-.09-.06-.04-.06-.11-.16-.13-.45-.02-.04v-.11s-.01-.16-.01-.16v-.04l.06-.65-.4-6.78,3.96-.3"/><path id="18043" d="m701.88,293.3l.02.17.51.12,2.82-.32.98,1.16-.39,1.48-1.67,2.76-.02-.18-1.11-.09-.04-1.53-.37-.3-.73-.54h-.06l-.39-.64-.22-2.01.68-.08"/><path id="18019" d="m708.95,288.16l1.29-.05,1.29.23.06,1.45-3.28,3.71-2.5,2.41.39-1.48-.98-1.16-2.82.32-.51-.12-.02-.17-.14-1.62.78-.39,1.11-.15.3-.38.26-.7-.04-.32.46-.43.08-.85,4.27-.29"/><path id="18115" d="m715.8,279.42l4.26-2.42,1.77,2.83-6.04.02v-.43"/><path id="18155" d="m715.8,279.85l6.04-.02.24,1-3.89,2.63-2.92,2-.62-5.11-.07-.43,1.22-.07"/><path id="18077" d="m710.38,280.84l4.27-.49.62,5.11-2.48-.86-1.24,3.74-1.29-.23-1.29.05-.2-1.67-.69-.26-.53-.29-.58-.61-.4-.51-.14-1.26,1.27-.34.56-.9.18-.54.32-.73,1.64-.2"/><path id="18143" d="m706.41,283.56l.14,1.26.4.51.58.61.53.29.69.26.2,1.67-4.27.29-.08.85-.46.43-.09-.66h-.65s-.41-3.25-.41-3.25l1.04-.58.43-1.29,1.95-.4"/><path id="18175" d="m696.07,285.86l6.92-.04.41,3.25h.65s.09.66.09.66l.04.32-.26.7-.3.38-1.11.15-.78.39.14,1.62-.68.08-3.96.3-.96.09-.63-6.12-.06-1.06.47-.74"/><path id="18117" d="m695.66,287.66l.63,6.12.06.67-2.55.2-4.08.45-.31-3.03-.38-3.7,6.64-.71"/><path id="18101" d="m684.62,283.72l3.91-.39.49,5.04.38,3.7-3.21.3-1.05.61-.53-9.26"/><path id="18027" d="m681.18,284.05l3.44-.33.53,9.26h-2.66s-3.08-.41-3.08-.41l-.8-3.52.24-1.89.31-.62,1.5-2.09.51-.41"/><path id="18083" d="m678.66,284.2l2.52-.14-.51.41-1.5,2.09-.31.62-.24,1.89.8,3.52-.21.33-.23.23-.31.27-.23.06-.97-.66-.12-.03-1.18.19-.65.23-4.7,3.17,1.28-3.68.35-.94,1.41-1.8.14-.12.18-.32.25-1.46v-.56s-.68-1.47-.68-1.47l-.04-.06h-.07l-.14-1.15,5.18-.61"/><path id="18153" d="m677.91,276.1l.18,2.01.56,6.09-5.18.61.11-.14.13-.36.05-.73-1.28-2.28-.84-.98-.36-1.23.23-2.39,6.4-.57"/><path id="18055" d="m681.38,277.89l6.56-.58.4,3.99.19,2.03-3.91.39-3.44.33-2.52.14-.56-6.09,3.29-.22"/><path id="18093" d="m688.34,281.3l6.44-.61.86-.09.43,5.26-.47.74.06,1.06-6.64.71-.49-5.04-.19-2.03"/><path id="18071" d="m698.83,278.89l4.01-.49.9-.45.71,6-.43,1.29-1.04.58-6.92.04-.43-5.26-.86.09-.14-1.33,4.2-.47"/><path id="18079" d="m709.75,274.33l.63,6.52-1.64.2-.32.73-.18.54-.56.9-1.27.34-1.95.4-.71-6-.17-1.26,1.99-.4,2.67-.63,1.51-1.34"/><path id="18137" d="m716.03,271.01l-.22,8.4v.43s-1.23.07-1.23.07l.07.43-4.27.49-.63-6.52,2.33-1.96,1.22-.86,2.73-.5"/><path id="18029" d="m716.03,271.01l4.33-.46.53,4.6-.82,1.85-4.26,2.42.22-8.4"/><path id="18047" d="m719.84,265.55l.51,5-4.33.46-2.73.5-1.22.86-.5-4.26-.2-1.65,4.59-.55,3.88-.36"/><path id="18031" d="m705.76,268.77l5.82-.66.5,4.26-2.33,1.96-1.51,1.34-2.67.63-.51-5.05.95-.2-.25-2.27"/><path id="18005" d="m705.05,271.24l.51,5.05-1.99.4.17,1.26-.9.45-4.01.49-.8-6.77,2.34-.31,4.68-.57"/><path id="18013" d="m695.11,272.49l2.92-.36.8,6.77-4.2.47-1.09.15-.71-6.74,2.27-.28"/><path id="18105" d="m688.44,273.02l4.39-.25.71,6.74,1.09-.15.14,1.33-6.44.61-.4-3.99-.35-4.24.86-.06"/><path id="18119" d="m682.73,270.66l4.44-.36,1.12-.08.15,2.8-.86.06.35,4.24-6.56.58-.36-4.03,1.95-.17-.24-3.03"/><path id="18021" d="m677.89,268l3.27-.26.25,3.06,1.32-.15.24,3.03-1.95.17.36,4.03-3.29.22-.18-2.01-.53-6.04.67-.04-.17-2.02"/><path id="18167" d="m677.89,268l.17,2.02-.67.04.53,6.04-6.4.57.82-5.14-.27-3,2.62-.25,3.21-.27"/><path id="18165" d="m673.17,256.32l.13,4.06.8,1.05.23.3.32.63-.15,4.11.19,1.79-2.62.25-.59-6.36-.51-6.12,2.21.28"/><path id="18121" d="m679.04,259.84l.2,1.95,1.41-.09.51,6.04-3.27.26-3.21.27-.19-1.79.15-4.11-.32-.63-.23-.3-.8-1.05,5.75-.54"/><path id="18133" d="m680.65,261.7l5.49-.49.14-.02.3,3.16.22,2.24.3-.02.3.65.05,1.01-.44.6.15,1.45-4.44.36-1.32.15-.25-3.06-.51-6.04"/><path id="18109" d="m694.45,265.75l.66,6.74-2.27.28-4.39.25-.15-2.8-1.12.08-.15-1.45.44-.6-.05-1.01,3.35-.33-.07-.67,2.27-.27.17-.02,1.33-.18"/><path id="18081" d="m699.65,265.11l.71,6.71-2.34.31-2.92.36-.66-6.74,5.2-.65"/><path id="18145" d="m699.52,263.75l5.56-.63.68,5.66.25,2.27-.95.2-4.68.57-.71-6.71-.14-1.36"/><path id="18139" d="m705.49,261.01l5.15-.6.94,7.69-5.82.66-.68-5.66-.26-2.01.67-.09"/><path id="18041" d="m710.64,260.42l1.4-.18.66-.07.17,1.68,2.63-.28.47,4.34-4.59.55-.74-6.04"/><path id="18161" d="m715.49,261.57l3.81-.73.42,3.67.12,1.04-3.88.36-.47-4.34"/><path id="18177" d="m718.6,254.42l.21,2.03.49,4.39-3.81.73-2.63.28-.17-1.68-.66.07-.26-2.19.27-.03-.23-2.79,6.79-.8"/><path id="18065" d="m705.11,254.29l6.29-.7.14,1.64h.27s.23,2.79.23,2.79l-.27.03.26,2.19-1.4.18-5.15.6-.28-2.11.47-.06-.24-1.54-.33-3.02"/><path id="18059" d="m705.44,257.31l.24,1.54-.47.06.28,2.11-.67.09.26,2.01-5.56.63-.32-5.33,1.32-.1-.05-.41,4.97-.6"/><path id="18097" d="m699.2,258.42l.32,5.33.14,1.36-5.2.65-1.33.18-.68-6.74,1.49-.19,5.27-.59"/><path id="18063" d="m692.44,259.2l.68,6.74-.17.02-2.27.27.07.67-3.35.33-.3-.65-.3.02-.22-2.24-.3-3.16-.14.02-.13-1.33,6.43-.68"/><path id="18011" d="m693.29,253.13l.64,5.87-1.49.19-6.43.68-.6-5.9,7.87-.84"/><path id="18057" d="m693.2,252.32l6.6-.76.67,6.35.05.41-1.32.1-5.27.59-.64-5.87-.09-.81"/><path id="18135" d="m710.72,248.3l7.17-.91.71,7.03-6.79.8h-.27s-.14-1.64-.14-1.64l-.68-5.29"/><path id="18035" d="m710.51,246.64l.21,1.66.68,5.29-6.29.7-.8-6.96,2.32-.25,3.88-.44"/><path id="18095" d="m704.31,247.33l.8,6.96.33,3.02-4.97.6-.67-6.35-.4-3.67,4.91-.55"/><path id="18159" d="m699.39,247.88l.4,3.67-6.6.76-.39-3.64-.05-.61,6.57-.84.06.65"/><path id="18023" d="m684.86,248.12l5.52-.54,1.15-.11.11,1,.53.29.65-.07.39,3.64.09.81-7.87.84-.08-.83-.47-5.02"/><path id="18107" d="m685.33,253.15l.08.83.6,5.9.13,1.33-5.49.49-1.41.09-.2-1.95-.6-6.04,6.89-.65"/><path id="18045" d="m678.45,253.8l.6,6.04-5.75.54-.13-4.06-.55-.59-.09-.22.02-.12.24-.45,2.77-2.91.43-.35,2.14-1.38.32,3.5"/><path id="18075" d="m717.2,241.36l.57,5.06.12.98-7.17.91-.21-1.66.3-.04-.47-4.33,2.28-.29,4.58-.63"/><path id="18009" d="m706.1,242.77l4.24-.49.47,4.33-.3.04-3.88.44-.53-4.31"/><path id="18053" d="m702.58,241.14l3.27-.38.25,2,.53,4.31-2.32.25-4.91.55-.06-.65-.43-3.65-.22-1.99,3.9-.45"/><path id="18067" d="m693.71,244.19l5.19-.61.43,3.65-6.57.84.05.61-.65.07-.53-.29-.11-1-1.15.11-.27-2.98,3.61-.41"/><path id="18015" d="m690.11,244.6l.27,2.98-5.52.54-.35-2.98-1.26.11-.22-1.92.09-1.9.07-.16.07-.09,2.87-.24.98-.09.1.88,2.6-.15.3,3.03"/><path id="18157" d="m677.64,245.78l5.6-.52,1.26-.11.35,2.98.47,5.02-6.89.65-.32-3.5-.27-2.51-.22-2.01"/><path id="18171" d="m670.36,248.44l7.5-.65.27,2.51-2.14,1.38-.43.35-2.77,2.91-.24.45-.02.12.09.22.55.59-2.21-.28-.59-7.6"/><path id="18007" d="m674.3,242.05l2.91-.27.65,6.01-7.5.65-.03-.33-.5-5.67,4.47-.39"/><path id="18001" d="m716.24,233.31l.54,4.47.42,3.58-4.58.63-1.02-8.03,4.64-.65"/><path id="18179" d="m707.11,234.49l4.49-.53,1.02,8.03-2.28.29-4.24.49-.25-2,1.97-.24-.71-6.04"/><path id="18069" d="m701.61,233.12l5.29-.66.22,2.03.71,6.04-1.97.24-3.27.38-.97-8.03"/><path id="18169" d="m700.8,232.17l.11.99.7-.04.97,8.03-3.9.45-1.3.15-.96-8-.1-1,4.47-.57"/><path id="18103" d="m696.42,233.74l.96,8,1.3-.15.22,1.99-5.19.61-.9-7.98-.21-1.98,3.82-.49"/><path id="18017" d="m687.67,236.73l5.14-.52.9,7.98-3.61.41-.3-3.03-2.6.15-.1-.88-.98.09-.4-4.03,1.95-.17"/><path id="18181" d="m685.72,236.9l.4,4.03-2.87.24-.07.09-.07.16-.09,1.9.22,1.92-5.6.52-.43-4-.19-2.31,1.75-.21-.14-1.7,1.09-.11,6-.55"/><path id="18003" d="m715.33,225.71l.72,6.06.19,1.54-4.64.65-4.49.53-.22-2.03-.36-3.79.39-.04-.23-2.18,1.97-.23,6.62-.93.05.43"/><path id="18183" d="m700.73,226.4l1.98-.23.06.67,3.93-.39.23,2.18-.39.04.36,3.79-5.29.66-.7.04-.11-.99-.37-3.03.58-.07-.16-1.74-.12-.94"/><path id="18049" d="m687.08,230.7l6.67-.71.27,2.04.82-.14.17,1.03,1.31-.17.1,1-3.82.49.21,1.98-5.14.52-.59-6.04"/><path id="18131" d="m687.08,230.7l.59,6.04-1.95.17-6,.55-.57-5.99,7.94-.76"/><path id="18033" d="m707.94,220.19l6.61-.85.29,2.39.43,3.56-6.62.93-.72-6.03"/><path id="18113" d="m707.94,220.19l.72,6.03-1.97.23-3.93.39-.06-.67-1.98.23-.38-3.27-.24-1.98,7.84-.96"/><path id="18085" d="m693.43,223.89l6.91-.76.38,3.27.12.94.16,1.74-.58.07.37,3.03-4.47.57-1.31.17-.17-1.03-.82.14-.27-2.04.42-.06-.74-6.03"/><path id="18099" d="m693.43,223.89l.74,6.03-.42.06-6.67.71-.6-6.03-.1-.99,3.07-.36,3.88-.41.11.99"/><path id="18149" d="m686.48,224.67l.6,6.03-7.94.76-.14-1.49,1.89-1.03.51-.33.39-.62.3-.56.11-.3.35-1.35.92-.79,2.01-.2.99-.1"/><path id="18073" d="m679.01,229.97l.14,1.49.57,5.99-1.09.11.14,1.7-1.75.21.19,2.31-2.91.27-.4-4.03-.1-.04-.05-.1-.63-6.93.93-.63.4-.58.97-.56.19-.04.35.09.93.32,1.33.84.15.04.49-.27.15-.19"/><path id="18111" d="m668.94,232.54l2.25-.32,1.93-1.28.63,6.93.05.1.1.04.4,4.03-4.47.39-.56-6.31-.33-3.59"/><path id="18151" d="m713.59,214.1l.5,1.43.47,3.81-6.61.85-.66-5.35,6.3-.74"/><path id="18087" d="m705.66,215.01l1.62-.17.66,5.35-7.84.96-.68-5.41,6.24-.72"/><path id="18039" d="m699.43,215.73l.68,5.41.24,1.98-6.91.76-.85-7.46,4.6-.47,2.23-.24"/><path id="18141" d="m692.59,216.43l.73,6.47-3.88.41-3.07.36.1.99-.99.1-.74-7.52,5.06-.52,2.77-.3"/><path id="18091" d="m679.64,217.74l5.11-.49.74,7.52-2.01.2-.92.79-.35,1.35-.11.3-.3.56-.39.62-.51.33-1.89,1.03-1.1-10.91,1.73-1.31"/></svg>