<?xml version="1.0" encoding="UTF-8"?><svg xmlns="http://www.w3.org/2000/svg" viewBox="0 0 989.98 627.07"><g><path id="19163" d="m610.29,222.7l1.91-.1.66.64,1.02-.59,3.37-.17,1.04.79,1.96-.15-.27,2.51-.89,1.2-1.02,1.19-3.25,1.61-1.38.35-.59.02-.25-.03-.19-3.31-1.94.08-.19-4.03"/><path id="19045" d="m609.97,216.64l12.63-.72.19,2.4-1.33,3.44-1.21,1.35-1.96.15-1.04-.79-3.37.17-1.02.59-.66-.64-1.91.1-.22-4.03-.1-2.02"/><path id="19119" d="m513.29,185.04l2.42.02,6.66.02h3.19v5.59s-11.99-.09-11.99-.09l-.05-1.13,1.02-.06-.05-1.68-1.14-1.29-.07-1.39"/><path id="19167" d="m513.58,190.59l11.98.09.06,8.04-11.15-.02,1.16-4.02.27-.71.05-.16-.64-2.31-.16-.08h-1.2l-.37-.84"/><path id="19149" d="m525.62,198.72v8.05l-10.46-.02-.61-1.61-.43-.7-.55-.51-.44-.34.67-3.08.68-1.8,11.15.02"/><path id="19035" d="m533.53,198.68l.06,8.04-5.97.03h-2s0-8.04,0-8.04l7.92-.04"/><path id="19141" d="m525.56,190.68l7.92.02.05,7.98-7.92.04-.06-8.04"/><path id="19143" d="m532.35,185.05h1.11l.03,5.66-7.92-.02v-5.59s6.78-.04,6.78-.04"/><path id="19059" d="m533.45,185.05l7.87-.07.09,5.65-7.92.07-.03-5.66"/><path id="19041" d="m533.48,190.7l7.92-.07.09,7.98-7.96.07-.05-7.98"/><path id="19021" d="m541.5,198.61l.08,8.07-7.99.04-.06-8.04,7.96-.07"/><path id="19151" d="m541.5,198.61l7.91-.07.1,6.08.04,1.98-7.96.08-.08-8.07"/><path id="19147" d="m549.27,190.53l.14,8.01-7.91.07-.09-7.98,7.86-.1"/><path id="19063" d="m549.18,184.86l.09,5.67-7.86.1-.09-5.65,1.01-.02,6.85-.1"/><path id="19109" d="m557.04,184.73l.13,5.64.15,8.03-7.91.14-.14-8.01-.09-5.67,3.26-.05,4.6-.07"/><path id="19091" d="m549.4,198.54l7.91-.14.13,6.07-7.95.15-.1-6.08"/><path id="19193" d="m525.62,206.77h2s0,2,0,2h1.22s0,6.08,0,6.08l-11.63-.09.21-1.42-.52-.96-.2-2.65.12-.32v-.35s-.08-.26-.08-.26l-.18-.25-.22-.09-.58-.04-.6-1.67,10.46.02"/><path id="19093" d="m533.59,206.73l.02,2.01h1.1l.03,6.11h-5.89s0-6.08,0-6.08h-1.22s0-2,0-2l5.97-.03"/><path id="19161" d="m533.59,206.73l7.99-.04.02,1.99h.98l.05,6.11-3.95.02-3.95.03-.03-6.11h-1.1l-.02-2.01"/><path id="19025" d="m541.58,206.68l7.96-.08.03,1.98h.77l.11,6.11-3.92.06-3.9.05-.05-6.11h-.98l-.02-1.99"/><path id="19187" d="m557.45,204.48l.08,3.99h.68l.14,6.05-7.9.18-.11-6.11h-.77l-.03-1.98-.04-1.98,7.95-.15"/><path id="19073" d="m550.44,214.68l3.95-.09.17,8.02-1.99.04-5.94.11-.11-8.02,3.92-.06"/><path id="19027" d="m542.62,214.79l3.9-.05.11,8.02-1.98.03-5.93.05-.05-8.03,3.95-.02"/><path id="19047" d="m538.68,214.81l.05,8.03-7.91.05-1.97.02v-8.05h5.89s3.95-.04,3.95-.04"/><path id="19133" d="m528.84,214.85v8.05l-7.96-.06-2.26-4.2-1.41-3.89,11.63.09"/><path id="19085" d="m530.81,222.89v6.05h1.04v2.23s-8.27,0-8.27,0l-2.4-4.07-.3-4.24,7.96.06,1.97-.02"/><path id="19165" d="m530.81,222.89l7.91-.05.06,6.04h.89l.03,2.25h-1.96s-5.88.03-5.88.03v-2.23h-1.04v-6.05"/><path id="19009" d="m538.72,222.84l5.93-.05.08,6.02h.76s.03,2.26.03,2.26l-5.82.05-.03-2.25h-.89l-.06-6.04"/><path id="19077" d="m546.63,222.76l5.94-.11.11,6.05h.67l.04,2.25-7.87.11-.03-2.27h-.76s-.08-6.01-.08-6.01l1.98-.03"/><path id="19001" d="m553.39,230.95l.15,8.02-3.95.06-3.95.05-.11-8.01,7.87-.11"/><path id="19029" d="m545.52,231.07l.11,8.01-3.92.04-3.93.02-.06-8.01h1.96s5.82-.06,5.82-.06"/><path id="19155" d="m531.86,231.15l5.88-.02.06,8.01-3.91.03-8.09.02-1.21-.72-.26-4.68-.75-2.63h8.28"/><path id="19071" d="m526.32,245.17l7.57-.03.04,3.91h.19s.02,3.53.02,3.53l-6.8-.07-1.55-4.6.54-2.73"/><path id="19129" d="m533.88,239.17v5.96s-7.56.03-7.56.03l-.76-3.36.23-2.62,8.09-.02"/><path id="19137" d="m537.79,239.14l3.93-.02.05,5.97-7.88.05v-5.96s3.91-.03,3.91-.03"/><path id="19145" d="m541.77,245.09l.05,4.01h.26l.02,3.53-5-.03-2.97-.02-.02-3.53h-.19s-.04-3.9-.04-3.9l7.88-.05"/><path id="19173" d="m549.69,245.01l.11,7.61-2.79.03-4.91-.02-.02-3.53h-.26l-.05-4.01,7.92-.08"/><path id="19003" d="m549.59,239.03l.1,5.98-7.92.08-.05-5.97,3.92-.04,3.95-.05"/><path id="19175" d="m553.53,238.97l3.91-.06.12,6.01-7.88.09-.1-5.98,3.95-.06"/><path id="19159" d="m549.69,245.01l7.88-.09.14,7.48-3.76.12-4.15.1-.11-7.61"/><path id="19053" d="m557.57,244.92l7.91-.21.19,7.36-3.77.15-4.19.18-.14-7.48"/><path id="19039" d="m565.31,238.62l.17,6.09-7.91.21-.12-6.01,3.87-.21,3.99-.08"/><path id="19121" d="m561.11,230.6l.21,8.1-3.87.21-3.91.06-.15-8.02,7.72-.36"/><path id="19049" d="m560.49,222.48l.14,5.93h.42s.06,2.19.06,2.19l-7.72.36-.04-2.25h-.67l-.11-6.05,1.99-.04,5.93-.14"/><path id="19015" d="m562.29,214.43l.2,8-2.01.05-5.93.14-.17-8.02,3.95-.09,3.95-.07"/><path id="19079" d="m565.46,206.3l.05,1.95h.58s.2,6.09.2,6.09l-3.99.1-3.95.07-.14-6.05h-.68l-.04-1.99,7.97-.18"/><path id="19197" d="m557.32,198.4l7.94-.21.2,8.11-7.97.18-.04-2-.13-6.07"/><path id="19081" d="m565.07,190.18l.19,8.01-7.94.21-.15-8.03,7.9-.19"/><path id="19189" d="m564.92,184.55l.14,5.63-7.9.19-.13-5.64,5.36-.12,2.52-.06"/><path id="19195" d="m572.79,184.31l.18,5.63-7.91.23-.14-5.63,7.46-.21.41-.02"/><path id="19033" d="m565.07,190.18l7.91-.23.03.99.2,7.04-7.95.22-.19-8.01"/><path id="19069" d="m565.26,198.19l7.95-.22.22,8.12-7.97.21-.2-8.11"/><path id="19083" d="m573.43,206.09l.07,1.64h.38s.23,6.37.23,6.37l-3.91.13-3.92.1-.2-6.09h-.58s-.05-1.94-.05-1.94l7.97-.21"/><path id="19169" d="m570.21,214.23l.23,8-1.98.05-5.97.15-.2-8,3.99-.1,3.92-.1"/><path id="19153" d="m568.46,222.28l.08,5.87.37.02.11,2.33v.37s-.94-.03-.94-.03l-.52-.29-6.45.05-.06-2.19h-.42s-.14-5.93-.14-5.93l2.01-.05,5.97-.15"/><path id="19181" d="m569.03,230.87l.22,7.66-3.95.1-3.99.08-.21-8.1,6.45-.05.52.29.95.03"/><path id="19117" d="m569.26,238.52l3.94-.11.21,6.07-7.93.23-.17-6.09,3.95-.1"/><path id="19185" d="m573.4,244.48l.23,7.28-4.8.22-3.17.09-.19-7.36,7.93-.23"/><path id="19007" d="m581.32,244.2l.28,7.13-1.33.07-6.64.35-.23-7.28,7.92-.27"/><path id="19135" d="m581.09,238.14l.24,6.07-7.92.27-.21-6.07,3.95-.13,3.94-.14"/><path id="19125" d="m576.85,230.24l.29,8.04-3.95.13-3.94.11-.22-7.66v-.37s7.82-.26,7.82-.26"/><path id="19099" d="m570.44,222.23l7.93-.24.24,5.85.14-.02.06,2.34-1.96.07-7.83.26-.11-2.33-.37-.02-.08-5.87,1.98-.05"/><path id="19127" d="m574.11,214.1l3.96-.14.3,8.04-7.93.24-.23-8,3.91-.13"/><path id="19075" d="m581.42,205.84l.09,1.76.34-.02.12,4.21-3.96.16.07,2-3.96.14-.23-6.37h-.38s-.07-1.64-.07-1.64l7.99-.25"/><path id="19023" d="m573.21,197.98l7.9-.25.22,6.12.09,2-7.99.25-.22-8.12"/><path id="19067" d="m573,190.94l7.84-.27.26,7.06-7.9.25-.2-7.04"/><path id="19131" d="m580.63,184.03l.22,6.64-7.84.27-.22-6.62,7.84-.28"/><path id="19089" d="m582.37,183.97l6.13-.25.27,6.64-7.92.31-.22-6.64,1.74-.06"/><path id="19037" d="m588.76,190.36l.11,3.01.16,4.06-7.93.31-.26-7.06,7.92-.31"/><path id="19017" d="m581.11,197.73l7.93-.31.25,6.12-7.96.31-.22-6.12"/><path id="19013" d="m589.29,203.54l.13,3.79h.32s.17,4.17.17,4.17l-3.96.15-3.98.15-.12-4.21-.34.02-.09-1.76-.09-2,7.96-.31"/><path id="19171" d="m585.94,211.65l.4,10.05-7.97.3-.37-10.04,7.94-.31"/><path id="19157" d="m578.37,221.99l7.97-.3.15,6.03.1-.03.08,2.17-1.96.08-5.9.23-.06-2.34-.14.02-.24-5.85"/><path id="19123" d="m578.81,230.17l5.9-.23.34,8.04-3.96.16-3.94.14-.29-8.04,1.96-.07"/><path id="19179" d="m585.05,237.98l3.96-.17.26,6.08-7.95.31-.24-6.07,3.96-.16"/><path id="19051" d="m589.27,243.89l.26,6.92-2.96.19-4.97.34-.28-7.13,7.95-.31"/><path id="19177" d="m589.27,243.89l7.96-.37.08,2.02.26,4.96h-3.94s-4.1.3-4.1.3l-.26-6.92"/><path id="19101" d="m596.99,237.46l.23,6.06-7.96.37-.26-6.08,4.02-.19,3.95-.15"/><path id="19011" d="m593.86,211.28l.43,10.11-7.95.3-.4-10.05,3.96-.15,3.95-.21"/><path id="19095" d="m586.34,221.69l7.95-.3.13,6.15.17-.04.09,1.98-1.99.11-6.02.27-.08-2.17-.1.03-.15-6.03"/><path id="19107" d="m586.67,229.86l6.02-.27.34,8.03-4.02.19-3.96.17-.34-8.04,1.96-.08"/><path id="19183" d="m594.68,229.48l5.29-.23.09.98.64,1,.25,6.05-3.95.18-3.95.15-.34-8.03,1.99-.11"/><path id="19087" d="m600.94,237.28l1.98-.05.1,2,.06,6.08-5.78.23-.08-2.02-.23-6.06,3.95-.18"/><path id="19111" d="m597.31,245.55l5.78-.23-.48.02,3.48,1.9,1.85.52-1.21,1.42h-.56s-.46.04-.46.04h-.14l-.91.32-.03.02-.1.06-.43.25-.15.1-.05.06-.06.06-.06.07-.73,1.12-.03.17.06.19.35.17.29.42.1.28v.23s-.03,2.07-.03,2.07h0s-.04.21-.04.21l-.18.15h-.03s-.53.2-.53.2l-1.14-.08-.73-.59-1.75-2.15-.06-.16.06-.47-.04-.15-1.37-1.04-.36-.23-.26-4.96"/><path id="19057" d="m610.28,238.89l.02.06.06.2.09.62-.07,1.87-.15.68-.1.14-.5.28-.19.18-1.34,1.91-.06.3-.12,2.6-1.85-.52-3.48-1.9.48-.02-.06-6.08,7.26-.34"/><path id="19115" d="m600.7,231.23l1.98-.08.09,2.02,4.97-.19-.49,1.96.02.19v.02s1.17,1.4,1.17,1.4l.55.27.23-.03.14.06.15.15.81,1.33-.02.55-7.26.34-.1-2-1.98.05-.25-6.05"/><path id="19139" d="m610.48,226.73l1.94-.08.19,3.31h-1.05l-2.41.66-.65.23-.18.12h-.02l-.12.17-.02.05-.24.98-.2.79-4.97.19-.09-2.02-.16-4.05,7.97-.38"/><path id="19103" d="m602.22,221.06l.29,6.04.16,4.05-1.98.08-.64-1-.09-.98-5.29.23-.09-1.98-.17.04-.13-6.15,7.93-.33"/><path id="19113" d="m601.78,210.98l.35,8.07.09,2.02-7.93.33-.43-10.11,3.97-.11,3.95-.19"/><path id="19031" d="m610.07,218.67l.22,4.03.19,4.03-7.97.38-.39-8.06,7.95-.38"/><path id="19105" d="m605.72,210.79l3.92-.19.32,6.04.1,2.02-7.95.38-.35-8.07,3.95-.18"/><path id="19019" d="m597.28,203.15l.05,1.75.07,2.19h.21s.21,4.07.21,4.07l-3.97.11-3.95.21-.17-4.17h-.32s-.13-3.79-.13-3.79l7.99-.39"/><path id="19065" d="m588.87,193.36l7.97-.32.43,10.11-7.99.39-.25-6.12-.16-4.06"/><path id="19191" d="m596.3,183.38l.17,3.66h.12l.26,6.01-7.97.32-.11-3.01-.27-6.64,5.82-.25,1.98-.09"/><path id="19005" d="m602.84,183.07l.29,1.78-.02,1.18,1.78,1.26.39.49.5.81-.06.29-1.28,2.16-.44,1.7-7.16.31-.26-6.01h-.12l-.17-3.66,6.54-.31"/><path id="19043" d="m604,192.73l.36,2.19.38,1.76,1.53,3.41.21.43,1.36.9.47.22.88.21-3.93.88-7.98.43-.43-10.11,7.16-.31"/><path id="19055" d="m597.28,203.15l7.98-.43.21,3.89h.11s.15,4.19.15,4.19l-3.95.18-3.95.19-.21-4.08h-.21s-.07-2.19-.07-2.19l-.05-1.75"/><path id="19061" d="m605.26,202.72l3.93-.88,2.18.42.84.2.19.09.12.12,1.07,1.95.18.58v.13s-.05.11-.05.11l-.24.4v.05s0,.13,0,.13l.04.12.14.14.39.28,1.14.59,1.44,1.01h0l.04.04-3.21.17.11,2.02-3.94.2-3.92.19-.13-4.16h-.11s-.23-3.91-.23-3.91"/><path id="19097" d="m616.69,208.21l1.01,1.17.05.07v.09s-.09.65-.09.65l-.1.22v.15l.24.53v.03s.5.6.5.6h.02s.29.24.29.24l.31.2.71.23,2.97,3.54-12.63.72-.32-6.04,3.94-.2-.11-2.02,3.21-.17"/></g></svg>