<?xml version="1.0" encoding="UTF-8"?><svg xmlns="http://www.w3.org/2000/svg" viewBox="0 0 989.98 627.07"><g><path id="20043" d="m534.81,266.01h.55v.22s.12.16.12.16l2.12,1.92.86.55.43.16.34.13.06.02h.08l.67-.06.13-.05.1-.1v-.02s.62-.68.62-.68l1.47,1.85.14.68.14.63-.37.82-.37.06-1.27,1.12-.07.08-.6.88-.21.3-.87-.61-4.02-.03-.06-8.04"/><path id="20013" d="m526.97,266.04l7.84-.03.06,8.04-3.95.02-3.95.02v-8.05"/><path id="20187" d="m414.27,315l9.27.62-.44,8.04-.56-.03-8.78-.56.39-5.9.13-2.18"/><path id="20129" d="m413.76,323.08l8.78.56-.51,9.1-8.61-.47-.26-.02.59-9.16"/><path id="20189" d="m422.54,323.64l.56.03,7.89.46.39.02-.46,9.02-8.9-.44.51-9.1"/><path id="20067" d="m423.54,315.62l7.88.43-.43,8.07-7.89-.46.44-8.04"/><path id="20081" d="m439.32,316.47l-.31,6.05-.1,2.03-7.52-.39-.39-.02.43-8.07,7.89.41"/><path id="20175" d="m438.91,324.54l-.09,8.98-5.68-.24-2.21-.11.46-9.02,7.52.39"/><path id="20119" d="m446.91,322.87l1.97.11-.15,10.96-9.91-.41.09-8.98.1-2.03,7.91.36"/><path id="20069" d="m447.16,312.71l-.25,10.16-7.91-.36.31-6.05-.13-2.16.21-4.02,7.87.41-.11,2.01"/><path id="20057" d="m447.16,312.71l11.83.51.03,4.13-.17,6.18-9.97-.56-1.97-.11.25-10.16"/><path id="20025" d="m458.85,323.54l.15,2.02-.29,8.84-8.41-.39-1.58-.07.15-10.96,9.97.56"/><path id="20033" d="m468.65,325.81l-.09,8.92-8.29-.28-1.55-.06.29-8.84,9.64.26"/><path id="20097" d="m459.02,317.35l9.84.39-.17,6.08-.05,1.99-9.64-.26-.15-2.02.17-6.18"/><path id="20047" d="m459.15,309.18l3.93.14-.06,2.02,5.9.2.02,4.07-.07,2.14-9.84-.39-.03-4.13.16-4.04"/><path id="20151" d="m478.69,315.9l.08,2.13-.16,6.06-9.92-.27.17-6.08.07-2.14,9.76.3"/><path id="20007" d="m468.7,323.82l9.92.27v1.98s2.03.1,2.03.1l-.17,8.95-3.61-.11-8.31-.26.09-8.92.05-1.99"/><path id="20077" d="m480.64,326.16l9.84.16-.08,8.98-5.65-.11-4.28-.09.17-8.95"/><path id="20095" d="m478.77,318.03l11.85.24-.11,6.02-.03,2.04-9.84-.16-2.03-.1v-1.98s.16-6.06.16-6.06"/><path id="20155" d="m488.77,308.04l3.95.07-.11,6.04-.02,4.12h-1.97s-11.85-.25-11.85-.25l-.08-2.13.2-8.07,9.88.21"/><path id="20079" d="m498.64,308.21l3.87.16.03,1.89-.03,4.05-9.9-.15.11-6.04,5.92.1"/><path id="20173" d="m492.61,314.15l9.9.15-.14,10.13-11.85-.15.11-6.02h1.97s.02-4.11.02-4.11"/><path id="20191" d="m490.52,324.28l11.85.15-.03,11.04-5.74-.07-6.2-.11.08-8.98.03-2.04"/><path id="20035" d="m502.37,324.44l11.36.08v4.03l-.06,7.03-4.09-.02-7.25-.07.03-11.04"/><path id="20015" d="m508.15,310.36l5.72.02-.11,11.11-.03,3.03-11.36-.08.14-10.13.03-4.05,5.61.1"/><path id="20019" d="m513.73,328.55l10.17.11v6.96s-.66,0-.66,0l-9.57-.03.06-7.03"/><path id="20049" d="m523.96,321.59v5.03l-.05,2.03-10.17-.11v-4.03l.03-3.03,10.2.1"/><path id="20073" d="m524,308.44v3.04s-.03,7.09-.03,7.09v3.03l-10.2-.1.11-11.11,2.96.02.02-2.01,7.14.05"/><path id="20125" d="m523.96,326.62l7.9.04h.08l.07,2.72-.06,4.74v1.45s-4.82.03-4.82.03h-3.23v-6.96s.05-2.03.05-2.03"/><path id="20205" d="m523.96,318.57l7.86.02.04,8.08-7.9-.04v-8.06"/><path id="20207" d="m523.99,311.48l7.92.02-.08,7.08-7.86-.02.03-7.09"/><path id="20099" d="m531.94,326.66l7.86-.06.24,1.02.11,7.88-6.1.06h-2.09v-1.45s.05-4.74.05-4.74l-.07-2.72"/><path id="20133" d="m539.72,318.53l.02,1.34.06,6.73-7.86.06h-.08l-.04-8.08,7.9-.05"/><path id="20001" d="m539.84,311.45l-.12,7.08-7.9.05.08-7.08,7.94-.05"/><path id="20021" d="m540.04,327.63l8.31-.06.11,7.88-7.1.06h-1.2l-.11-7.88"/><path id="20037" d="m548.23,319.8l.11,7.16v.6s-8.3.06-8.3.06l-.24-1.02-.06-6.73,8.49-.07"/><path id="20011" d="m539.84,311.45l8.33-.08.06,8.43-8.49.07-.02-1.34.12-7.08"/><path id="20075" d="m414.99,302.88l8.53.51.45.02-.38,6.72.06,3.38-.12,2.11-9.27-.62.72-12.12"/><path id="20071" d="m415.63,292.82l8.49.47-.59,10.1-8.53-.51.51-8.16.13-1.9"/><path id="20199" d="m426.29,283.31l-.69,10.05-1.48-.07-8.49-.47.49-8.08.11-1.99,10.06.57"/><path id="20181" d="m416.83,272.67l11.18.68.43.02-.62,10.02-1.53-.08-10.06-.57.6-10.07"/><path id="20023" d="m417.44,262.61l11.19.69-.62,10.04-11.18-.68v-.13s.61-9.93.61-9.93"/><path id="20185" d="m471.06,305.56l7.76.23.07,2.04-.2,8.07-9.76-.3-.02-4.07,1.95.06.2-6.04"/><path id="20093" d="m423.98,303.41l7.46.39.39.02-.19,3.87-.36,6.22.14,2.15-7.88-.43.12-2.11-.06-3.38.38-6.72"/><path id="20055" d="m439.33,304.21l7.88.42.3.02-.25,6.05-7.87-.41-.21,4.02.13,2.16-7.89-.41-.14-2.15.36-6.22.19-3.87,7.5.39"/><path id="20083" d="m459.04,305.12l.11,4.06-.16,4.04-11.83-.51.11-2.01.25-6.05,11.52.47"/><path id="20145" d="m459.1,303.1l9.88.37-.07,2,2.15.1-.2,6.04-1.95-.06-5.9-.2.06-2.02-3.93-.14-.11-4.06.07-2.02"/><path id="20031" d="m532.05,302.32v1.02l.03,3.04h-.17l-.02,5.13-7.92-.02v-3.04s.16-6.1.16-6.1l7.91-.03"/><path id="20003" d="m532.05,303.34l7.92-.05.04,3.04-.18,3.1v2.03l-7.94.05.02-5.13h.17l-.03-3.04"/><path id="20107" d="m548.07,303.22l.1,7.61v.54s-8.33.08-8.33.08v-2.03l.18-3.1-.04-3.04,8.09-.07"/><path id="20121" d="m548.02,295.12l.03,6.04.02,2.06-8.09.07.08-8.08,7.96-.09"/><path id="20059" d="m532.14,295.27l7.91-.06-.08,8.08-7.92.05v-1.02l.09-7.05"/><path id="20139" d="m532.13,292.23v3.05s-.08,7.05-.08,7.05l-7.91.03.07-7.06v-3.04s7.91-.03,7.91-.03"/><path id="20111" d="m516.98,295.26l7.24.03-.07,7.06-.15,6.1-7.14-.05.09-8.09.04-5.05"/><path id="20017" d="m508.62,300.24l8.32.07-.09,8.09-.02,2.01-2.96-.02-5.72-.02.03-3.81.08-2.29h.33s.03-4.03.03-4.03"/><path id="20127" d="m514.34,292.23l.08,1.02,1.82.06.02,1.95h.72s-.04,5.05-.04,5.05l-8.32-.07-2.06.04.1-2.07.28-5.11h.51s-.02-.92-.02-.92l6.91.06"/><path id="20115" d="m506.66,298.2l-.1,2.07,2.06-.04-.03,4.04h-.33s-.08,2.28-.08,2.28l-.03,3.81-5.61-.1-.03-1.89-3.87-.16.14-10.1,7.87.1"/><path id="20113" d="m498.79,298.11l-.14,10.1-5.92-.1-3.95-.07.16-10.11,9.86.18"/><path id="20159" d="m478.96,299.74l9.93.21-.13,8.09-9.88-.21-.07-2.04.14-6.05"/><path id="20169" d="m498.91,290.03l-.12,8.08-9.86-.18.05-6.06.04-2.02,9.89.18"/><path id="20053" d="m479.1,291.65l9.88.23-.05,6.06-.03,2.02-9.93-.21v-4.07s.14-4.03.14-4.03"/><path id="20009" d="m478.97,295.67v4.07s-.15,6.05-.15,6.05l-7.76-.23-2.15-.1.07-2,.25-8.07,9.74.27"/><path id="20165" d="m459.4,295.06l9.66.33h.18l-.25,8.07-9.88-.37.3-8.03"/><path id="20135" d="m447.61,294.54l1.66.09,9.88.43h.24l-.3,8.03-.07,2.02-11.52-.47-.3-.02.39-10.09"/><path id="20101" d="m439.77,294.12l7.84.42-.39,10.09-7.88-.42.43-10.09"/><path id="20171" d="m431.93,293.7l5.51.3,2.32.11-.43,10.09-7.5-.39-.39-.02.49-10.1"/><path id="20203" d="m425.6,293.36l6.33.34-.49,10.1-7.46-.39-.45-.02.59-10.1,1.48.07"/><path id="20109" d="m427.82,283.39l2.64.14,2.69.19,4.93.26-.63,10.02-5.51-.3-6.33-.34.69-10.05,1.53.08"/><path id="20063" d="m439.68,284.07l9.85.49h.29l-.55,10.06-1.66-.09-7.84-.42-2.32-.11.63-10.02,1.61.08"/><path id="20195" d="m449.82,284.57l9.6.39h.24l-.51,10.09-9.88-.43.55-10.06"/><path id="20051" d="m459.66,284.96l9.63.32h.19l-.42,10.1-9.66-.33h-.24l.51-10.09"/><path id="20167" d="m469.47,285.29l9.69.29-.06,6.07-.13,4.03-9.74-.27h-.18l.42-10.1"/><path id="20105" d="m489.12,283.8l-.11,6.05-.04,2.02-9.88-.23.06-6.07.06-2.02,9.9.24"/><path id="20143" d="m489.17,281.79l9.89.18-.09,4.04-.06,4.03-9.89-.18.11-6.05.05-2.02"/><path id="20041" d="m506.2,286.08l1.24,6.09.02.92h-.51s-.28,5.11-.28,5.11l-7.87-.1.12-8.08.06-4.03,7.22.08"/><path id="20061" d="m506.2,286.08l.06-2.04,1.97.05-.05,3.03,4.8.39,1.4.02v.68l-.03,4.03-6.91-.06-1.24-6.09"/><path id="20197" d="m522.56,286.3l.03.73,1.61.03v5.19s.01,3.04.01,3.04l-7.24-.03h-.72s-.02-1.95-.02-1.95l-1.82-.06-.08-1.02.03-4.03,2.03.02-.03-3,.11.11.45.28.19.05.93-.95,1.2-.29,2.11.17.42.17.26.33.5,1.05.02.18"/><path id="20177" d="m522.63,284.21h7.89l-.03,1.75-.04,2.13,1.66-.17.02,4.32-7.92.03v-5.19s-1.62-.03-1.62-.03l-.03-.73.06-2.09"/><path id="20045" d="m537.67,288.15l2.34,1.41.05,5.64-7.91.06v-3.05s-.02-4.32-.02-4.32l.77-.28.36-.04.25.04.35.15.22.26.56.34.31.08.25-.02,2.46-.29"/><path id="20091" d="m542.62,289.33l.47-1.46.11-.1.23-.08h.27l1.52.39,2.72-.04.06,4.57v2.52s-7.96.09-7.96.09l-.05-5.64,2.61-.23"/><path id="20209" d="m548.01,285.34l-.08,1.08.03,1.61-2.72.04-1.52-.39h-.27l-.23.08-.11.1-.47,1.46-.03-3.19.12-1.7h1.9l3.4.91"/><path id="20103" d="m537.73,279.46l3.72-.04,3.17,5.02h-1.9l-.12,1.7.03,3.19-2.61.23-2.34-1.41-.03-1.96.12-2.33-.03-4.4"/><path id="20087" d="m530.83,279.5l6.9-.04.03,4.4-.12,2.33.03,1.96-2.46.29-.25.02-.31-.08-.56-.34-.22-.26-.35-.15-.25-.04-.36.04-.77.28-1.66.17.04-2.13.03-1.75-.07-2.74.38-1.96"/><path id="20005" d="m539.06,276.8l2.39,2.62-3.72.04-6.9.04.09-5.42,3.95-.02,4.02.03.87.61-.7,2.1"/><path id="20085" d="m530.83,279.5l-.38,1.96.07,2.74h-7.89v-8.1l2.42.05,1.88.03.04-2.09,3.95-.02-.09,5.42"/><path id="20149" d="m522.63,284.21l-.06,2.09-.02-.18-.5-1.05-.26-.33-.42-.17-2.11-.17-1.2.29-.93.95-.19-.05-.45-.28-.11-.11-1.27-.38-1.17-.52-1.66-1.54-.88-1.37-.87-1.6v-.93s.22-.36.22-.36l2.27-2.46,6.03.03h3.57v8.1"/><path id="20161" d="m506.25,284.04l.13-8.02,2.68.02,3.95.03-2.27,2.46-.22.36v.93s.86,1.6.86,1.6l.88,1.37,1.66,1.54,1.17.52,1.27.38.03,3-2.03-.02v-.68l-1.4-.02-4.8-.39.05-3.03-1.97-.05"/><path id="20027" d="m499.06,281.96l.11-6.04,7.22.1-.13,8.02-.06,2.04-7.22-.08.09-4.04"/><path id="20029" d="m489.25,275.74l.05-2.02,9.89.18-.02,2.02-.11,6.04-9.89-.18.08-6.04"/><path id="20123" d="m489.25,275.74l-.08,6.04-.05,2.02-9.9-.24.26-8.06,9.77.24"/><path id="20141" d="m479.22,283.56l-.06,2.02-9.69-.29h-.19l.11-3.37.14-2.68.14-4.02,9.48.28h.32l-.26,8.06"/><path id="20163" d="m459.86,274.88l9.44.32.38.02-.14,4.02-.14,2.68-.11,3.37-9.63-.32h-.24l.43-10.07"/><path id="20065" d="m449.53,284.56l.49-10.08,9.39.38.45.02-.43,10.07-9.6-.39h-.29"/><path id="20179" d="m440.19,274l9.5.48h.33l-.49,10.08-9.85-.49.51-10.07"/><path id="20193" d="m427.82,283.39l.62-10.02,11.39.61h.36s-.51,10.08-.51,10.08l-1.61-.08-4.93-.26-2.69-.19-2.64-.14"/><path id="20153" d="m428.62,263.31l1.52.08,9.88.53.35.03-.54,10.04-11.39-.61-.43-.02.62-10.04"/><path id="20039" d="m440.37,263.94l9.53.46.27.02-.48,10.06-9.5-.48h-.36s.54-10.05.54-10.05"/><path id="20147" d="m467.64,265.08l1.96.06-.3,10.06-9.44-.32-.45-.02.42-10.06,7.82.28"/><path id="20137" d="m459.78,264.8h.04l-.42,10.06-9.39-.38h-.33l.48-10.06,9.61.39"/><path id="20183" d="m469.6,265.14l5.95.18,3.88.11-.28,10.07-9.48-.28-.38-.02.3-10.06"/><path id="20089" d="m483.47,265.52l5.99.14-.16,8.06-.05,2.02-9.77-.24h-.32l.28-10.07,4.03.09"/><path id="20157" d="m491.39,265.71l7.91.13-.11,8.07-9.89-.18.16-8.06,1.93.04"/><path id="20201" d="m499.3,265.84l7.93.11,1.94.02-.11,10.08-2.68-.02-7.22-.1.02-2.02.11-8.07"/><path id="20117" d="m515.15,266.01l3.93.02-.02,10.07-6.03-.03-3.95-.03.11-10.08,5.98.05"/><path id="20131" d="m523.07,266.04h3.9v8.05l-.04,2.09-1.88-.03-2.42-.05h-3.57l.02-10.07h3.99"/></g></svg>