<?xml version="1.0" encoding="UTF-8"?><svg xmlns="http://www.w3.org/2000/svg" viewBox="0 0 989.98 627.07"><g><path id="21105" d="m648.88,336.01l5.68-.14.42,6.25-.2.02h-.14l-1.39-1.62-.75-.28-4.33-1.05.71-3.19"/><path id="21075" d="m648.17,339.2l4.33,1.05.75.28,1.39,1.62-9.36.68-1.29.18,1.42-3.19,1.16,1.09.84-.07.25-1.08.51-.56m-6.42,3.99l-.41-.58-.03-.03-.2-.43v-.02s-.02-.1-.02-.1l-.02-.07.02-.08.03-.11.02-.09.03-.04.21-.28.11-.07.34-.05.51.08.28.08.05.03.04.03.03.02.12.18v.02s.12.27.12.27l.06.25v.04s0,.1,0,.1l-.02.06-.06.23-.02.09-.03.06-.18.34-.99.05"/><path id="21013" d="m750.52,322.05l.48.95-.06,3.86,1.28,1.36-3.7,1.99-4.61.88-.91-1.49,1.59-.91,1.22-2.15,1.71-1.75.76-.71,1.12-1.24.11-.48-.09-.18-.41-.32,1.51.2"/><path id="21121" d="m743.62,320.24l.23-.02,1.57.2.59.17.23.21.25.29.04.16.54.22.78.25.76.14h.4l.41.32.09.18-.11.48-1.12,1.24-.76.71-1.71,1.75-1.22,2.16-1.58-.73-2.3-2.67-.79-2.29,3.7-2.77"/><path id="21235" d="m736.23,323.71l3.69-.7.79,2.29,2.3,2.67,1.58.73-1.59.91.91,1.49-1.04.1-4.36.5-1.17-1.09-.53-.65-1.06-2.28-.04-.32.5-3.65"/><path id="21125" d="m738.04,314.75l3.7,1.15-.23,1.81.55.6.95.59.51.76.11.59-3.7,2.77-3.69.7-1.14-.17.71-4.58,2.24-4.21"/><path id="21051" d="m744.31,313.28l1.48.07,2.72,1.34.72.07.41.46-.24,3.15,1.12,3.69-1.51-.2h-.4l-.76-.14-.78-.25-.54-.22-.04-.16-.25-.29-.23-.21-.59-.17-1.57-.2-.23.02-.11-.59-.51-.76-.95-.59-.55-.6.23-1.81,2.56-2.62"/><path id="21131" d="m749.63,315.21l1.35-1.82,1.53.88,1.99,1.24.69.6.73,1.28.28.95-.03,1-5.17,3.63-.48-.95-1.12-3.69.24-3.15"/><path id="21095" d="m756.18,319.37l1.15.3.55.68,2.71-1.46,1.4.77-.07,1.74-.38.66-1.18.95-1.73.09-.71,2.67-1.11.09-3.46,2-1.1.36-1.28-1.36.06-3.86,5.17-3.63"/><path id="21133" d="m763.48,312.5l.82.71.52-.02.5-.41h.11l.59.38.72.64-2.48,2.2.13,1.95-1.62.98-.79.73-1.4-.77-2.71,1.46-.55-.68.22.18h.06l.82-.65.06-.09.05-.26-.02-1.11-.47-.89.03-.16.31-.81.51-.96.33.23h.39l.71-.56.36-.36.34-.43,1.24-.87,1.21-.41"/><path id="21119" d="m759.33,308.05l1.79.27,1.32.73.17.26.09.75-.04.63.33.96.1.1.4.23.35.15-.35.37-1.21.41-1.24.87-.34.43-.36.36-.71.56h-.39l-.33-.23-2.55-.62-.34-3.89.03-2.35,2.82-.33.47.32"/><path id="21193" d="m756.02,310.4l.34,3.89,2.55.62-.51.96-.31.81-.03.16.47.89.02,1.11-.05.26-.06.09-.82.65h-.06l-.22-.18-1.15-.3.03-1-.28-.95-.73-1.28-.69-.6-1.99-1.24-1.53-.88-1.35,1.82-.41-.46-.61-1.7,2.11-.75,3.9-1.93,1.38.03"/><path id="21189" d="m747.54,309.18l1.08,3.86.61,1.7-.72-.07-2.72-1.34-1.48-.07-2.31-3.66.43.32.42.17.36.07,1.43-.35,1.06-.55.22-.31.85-.06.77.27"/><path id="21109" d="m738.17,308.98l3.39.11.43.53,2.31,3.66-2.56,2.62-3.7-1.15-.28-1.1-.5-1.2-.54-.76-.35-.62-.09-.59.06-.26,1.83-1.25"/><path id="21065" d="m737.52,302.36l1.45.16.77.76,1.23.83,1.44.1,1.93.48-2.77,4.4-3.39-.11-.65-6.61"/><path id="21129" d="m744.6,304.65l3.56,1.36-.62,3.18-.77-.27-.85.06-.22.31-1.06.55-1.43.35-.36-.07-.42-.17-.43-.32-.43-.53,2.77-4.4.26-.04"/><path id="21025" d="m748.15,306l.61.34.55-.3.13-.18.23-.48.05-.3-.02-.15.05-.22.1-.16.48-.28,2.63.35,5.91,3.09-2.82.33-.03,2.35-1.38-.03-3.9,1.93-2.11.75-1.08-3.86.62-3.18"/><path id="21071" d="m763.68,301.97l1.5.62-.48.16-.3.18-.08.12.35,3.31.53.52.3.72v.51s-.34,1.45-.34,1.45l-.84,2.02-.3.41-.17.14-.35-.15-.4-.23-.1-.1-.33-.96.04-.63-.09-.75-.17-.26-1.32-.73-1.79-.27-1-5.24h.59s2.09-1.07,2.09-1.07l.57-.21h.54s1.51.39,1.51.39l.06.05"/><path id="21115" d="m763.66,298.25l-.86,2.1.87,1.62-.06-.05-1.51-.38h-.54s-.57.2-.57.2l-2.09,1.08h-.59s-1.6-3.13-1.6-3.13l-.05-2.45.15-.5.08-.16.31-.26h.07l2.18.46,1.87.95,1.07.38,1.25.16"/><path id="21153" d="m756.73,299.69l1.6,3.12,1,5.24-.47-.32-5.91-3.09-.37-.96-.33-1.28,2.1-3.17.05-.05h.71l.83.17.77.34"/><path id="21237" d="m747.96,300.81l.25.39.99.45,1.9.64,1.49,1.39.37.96-2.63-.35-.48.28-.1.16-.05.22.02.15-.05.3-.23.48-.13.18-.55.3-.61-.34-3.56-1.36,1.04-2.68,2.32-1.16"/><path id="21197" d="m739.33,300.31l3.57-.16,2.74,1.82-1.04,2.68-.26.04-1.93-.48-1.44-.1-1.23-.83-.77-.76.36-2.22"/><path id="21049" d="m736.77,296.34l2.56,3.97-.36,2.22-1.45-.16-4.7-.32.41-4.15,3.53-1.56"/><path id="21173" d="m738.36,294.33l.96.92.93.14.2.18,1.04.96,1.19,1.44.15.31.07,1.87-3.57.16-2.56-3.97,1.59-2.01"/><path id="21165" d="m747.32,296.48l1.22.23-.57,4.1-2.32,1.16-2.74-1.82-.07-1.87,4.49-1.8"/><path id="21175" d="m755.95,296.33l.73.91.05,2.45-.77-.34-.83-.17h-.71l-.05.05-2.1,3.17.33,1.28-1.49-1.39-1.9-.64-.99-.45-.25-.39.57-4.1,2.79-2.28,1.21,2.25,3.42-.35"/><path id="21063" d="m757.15,292.24l.6,1.85-1.8,2.24-3.42.35-1.21-2.25.1-1.81.95-1.87.43.09,1.37.76.73.53,1.38.28h.56l.3-.16"/><path id="21205" d="m749.3,289.93l2.11,2.69-.1,1.81-2.79,2.28-1.22-.23-2.85-2.82.93-.76.3-.33.77-1.17-.17-.42.18-1.01.64-1.2,2.17,1.17"/><path id="21011" d="m740.36,291.63l.14-.16h.08l1.74.09.19.11.44.34.6,1.15.78.92.12-.19.03-.23,2.85,2.82-4.49,1.8-.15-.31-1.19-1.44-1.04-.96-.2-.18-.93-.14-.96-.92,2-2.7"/><path id="21181" d="m737.61,288.66l2.75,2.98-2,2.7-4.36-3.64,1.37-2.23,2.23.19"/><path id="21069" d="m743.34,285.9l3.79,2.86-.64,1.2-.18,1.01.17.42-.77,1.17-.3.33-.93.76-.03.23-.12.18-.78-.92-.6-1.15-.44-.34-.19-.11-1.74-.09h-.08l-.14.16-2.75-2.98.72-1.33,1.37.67,2.3-1.41,1.34-.68"/><path id="21201" d="m736.95,285.13l1.38,2.2-.72,1.33-2.23-.19-1.62-.39.3-1.64,2.9-1.3"/><path id="21023" d="m737.99,280.92l-1.04,4.21-2.9,1.3-.85-.56-1.15-5.61,3.3.94,2.64-.28"/><path id="21161" d="m742.91,283.36l.43,2.54-1.34.68-2.3,1.41-1.37-.67-1.38-2.2,1.04-4.21.61.08.22.08.11.09,1.57,1.62,1.39.69,1.03-.12"/><path id="21135" d="m753.53,279.86l-1.7,5.42-.8,2.89.19.94-.07.17-.72.41-1.12.25-2.17-1.17-3.79-2.86-.43-2.54.1-.81.14-.23.19-.13,1.4-.61.22-.05.15.02h.03l.72.18,1.91.46.05.02.6.28h.04s1.02.77,1.02.77l.72-.63,1.71-.25.3-1.22,1.32-1.31"/><path id="21019" d="m762.06,286.12l.15,1.23.6.7.04.94-.25.8-3.36.55-.84-2.92,2.26-3.41,1.38,2.12"/><path id="21089" d="m757.81,282.89l2.87,1.12-2.26,3.41-1.76-.35-2.67-1.19-.74-.26-1.41-.35,1.7-5.42.32-.14,1.49-.67.48-.21h.11l.18.08.08.09.02.04.05.07.03.06v.03s.02.03.02.03l.03.14v.16s.01.02.01.02h0s-.02.29-.02.29l.17.72.5,1.5.04.09.12.26.14.17.02.03.39.26.08.04"/><path id="21043" d="m751.83,285.27l1.41.35.74.26,2.67,1.19,1.76.35.84,2.92-2.11,1.9-.3.16h-.56l-1.38-.28-.73-.53-1.37-.76-.43-.09-.95,1.87-2.11-2.69,1.12-.25.72-.41.07-.17-.19-.94.8-2.89"/><path id="21127" d="m759.25,290.34l3.36-.55-.45,1.97-.02.51.8.44v.02l.33.63.54.23.91,1.44,1.22.44.03.03v.02s0,.13,0,.13l-.47.8-1.4.33-.44,1.49-1.25-.16-1.07-.38-1.87-.95-2.18-.46h-.07l-.31.26-.08.16-.15.5-.73-.91,1.8-2.24-.6-1.85,2.11-1.9"/><path id="21159" d="m767.14,298.11l2.09,2.56-1.45,1.68-2.61.23-1.5-.62-.87-1.62.86-2.1.44-1.49,1.4-.33,1.64,1.68"/><path id="21195" d="m765.18,302.59l2.61-.23,1.45-1.68v.02s.03.11.03.11l.67,1.04,1.33.78.62-.37.55,1.05,1.17,1h0l1.17.26,1.07-.38.48.22-5.28,6.35-.68.87-2.72,1.53-.71.51-.2.14-.72-.64-.59-.38h-.11l-.5.41-.52.02-.82-.71.35-.37.17-.14.3-.41.84-2.02.35-1.45v-.51s-.32-.72-.32-.72l-.53-.52-.35-3.31.08-.12.3-.18.48-.16"/><path id="21097" d="m734.05,286.42l-.3,1.64,1.62.39-1.37,2.23-4.16,2.58-2.63-4.58,1.29-1.32,4.69-1.5.85.56"/><path id="21017" d="m729.84,293.27l4.16-2.58,4.36,3.64-1.59,2.01-3.53,1.56-.81-.22-1-.41.06-1.85-.71-.5-.93-1.65"/><path id="21151" d="m732.82,302.04l4.7.32.65,6.61-1.83,1.25-2.71-.04-3.84-4.92,1.4-1.98,1.63-1.25"/><path id="21203" d="m736.34,310.22l-.06.26.09.59.35.62.54.76.5,1.2.28,1.1-2.24,4.21-4.36-3.59.57-3.74,1.34.29.29-1.73,2.71.04"/><path id="21147" d="m735.09,323.54l1.14.17-.5,3.65.04.32,1.06,2.28.53.65,1.17,1.09-.63.07-9.43.88,1.46-3.24,1.16-1.82.28-1.45,3.73-2.61"/><path id="21137" d="m727.79,308.66l4.21,2.96-.57,3.74-1.03-.4-2.64,2.95.09-1.45-.46-1.36-1.41-.54-1.08-.72-.28-.91.02-1.88,3.16-2.39"/><path id="21079" d="m726.25,304.62l.34-.32.27-.09,1.31.75.07.54.57.71.27.1.05-.03.67-1.02,3.84,4.92-.29,1.73-1.34-.29-4.21-2.96-1.77-1.62.23-2.42"/><path id="21113" d="m726.74,300.17l3.38.98,1.07,2.14-1.4,1.98-.67,1.02-.05.03-.27-.1-.57-.71-.07-.54-1.31-.75-.27.09-.34.32v-1.08s.49-3.37.49-3.37"/><path id="21067" d="m730.78,294.92l.71.5-.06,1.85,1,.41.81.22-.41,4.15-1.63,1.25-1.07-2.14-3.38-.98.32-2.67,3.72-2.58"/><path id="21239" d="m725.05,295.9l2,1.61-.32,2.67-.5,3.37-1.84-2.31-1.62-3.23,2.27-2.11"/><path id="21209" d="m727.21,288.69l2.63,4.58.93,1.65-3.72,2.58-2-1.61-.7-3.57,2.51-3.12.35-.52"/><path id="21073" d="m722.03,292.49l2.32-.17.7,3.57-2.27,2.11-.91.79-1.96-.74-.09-4.81,2.21-.75"/><path id="21005" d="m719.91,298.05l1.96.74.91-.79,1.62,3.23-1.42.85-2.15,1.41-.22.12h-.13s-.06-.08-.06-.08l-2.2.11-.47-1.67,1.01-1.63,1.15-2.29"/><path id="21167" d="m724.4,301.23l1.84,2.31v1.08s-.22,2.42-.22,2.42l-4.93,1.38-.67-4.89.06.07h.13s.22-.11.22-.11l2.15-1.41,1.42-.85"/><path id="21021" d="m726.02,307.04l1.77,1.62-3.16,2.39-3.45.47-.06-2-.03-1.11,4.93-1.38"/><path id="21045" d="m721.19,311.53l3.45-.47-.02,1.88.28.91,1.08.72,1.41.54.46,1.36-.09,1.45-2.92,3.19-1.38.37-1.38-1.67-.45-1.47-2.08-1.14,1.37-2.57.5-.06-.24-3.04"/><path id="21199" d="m727.76,317.91l2.64-2.95,1.03.4,4.36,3.59-.71,4.58-3.73,2.61-1.25-.61-1.16-1.96-1.35.74-1.25-.61-1.57-.93.06-1.67,2.92-3.19"/><path id="21231" d="m731.36,326.14l-.28,1.45-1.16,1.82-1.46,3.24h-.14l-3.36.15-.39-.08-.21-.11-.09-.18-.47-1.37-.05-.22v-.35s.03-.3.03-.3l-.73-1.97-.49-.85,3.78-3.67,1.25.61,1.35-.74,1.16,1.96,1.25.61"/><path id="21207" d="m722.08,319.8l1.38,1.67,1.38-.37-.06,1.67,1.57.93-3.78,3.67-.9.84-1.5-.88-.67-.28-.1.06.02.11.42.56-.24.1-.15-.03-.12-.07-.68-.87.71-.71.29-1.71.62-.92,1.14-2.27.68-1.5"/><path id="21053" d="m719.84,327.79l-.42-.56-.02-.11.1-.06.67.28,1.5.88.9-.84.49.85.73,1.97-.05.3v.35s.06.22.06.22l.47,1.37.09.18.21.11.39.08-5.64.35-.35.06.87-5.44"/><path id="21057" d="m719.35,326.2l-.71.71.68.87.12.07.15.03.24-.1-.87,5.44-2.54.46-3.41-4.28,2.31-3.06,4.02-.14"/><path id="21001" d="m719.55,317.19l2.08,1.14.45,1.47-.68,1.5-1.14,2.27-.62.92-.29,1.71-4.02.14-1.79-3.79,2.93-2.27,3.08-3.1"/><path id="21217" d="m713.72,314.24l.03-.06.35-.15,1.69-.16,1.7.94.66-.59.89-.57.77.18,1.1.8-1.37,2.57-3.08,3.1-1.69-2.4-1.02-1.29-2.11-1.38-.06-.2v-.66s2.12-.13,2.12-.13"/><path id="21155" d="m714.2,307.99l.68.93.79.73,1.38.35,4.07-.48.06,2,.24,3.04-.5.06-1.1-.8-.77-.18-.89.57-.66.59-1.7-.94-1.69.16-.35.15-.03.06-1.23-1.94,1.7-4.31"/><path id="21229" d="m720.42,303.53l.67,4.89.03,1.11-4.07.48-1.38-.35-.79-.73-.68-.93,4.03-4.35,2.2-.11"/><path id="21215" d="m712.73,298.43l6.03,1.91-1.01,1.63-4.08,1.23-1.72-1.03-.38-.41,1.13-2.64.02-.68"/><path id="21211" d="m714.69,293.31l5.13-.07.09,4.81-1.15,2.29-6.03-1.91.08-2.54-1.22-.54.2-.26.16-.11.3-.12.68-.2.67.05.47-.21.61-1.19"/><path id="21103" d="m716.13,287.83l1.63-.45,4.27,5.11-2.21.75-5.13.07-.9-3.04,2.35-2.44"/><path id="21187" d="m720.07,285.6l2.47-1.65.48,2.32,2.95,2.63.34.15.55.16-2.51,3.12-2.32.17-4.27-5.11,2.31-1.78"/><path id="21081" d="m725.32,281.7l1.52.06,1.67,5.61-1.29,1.32-.35.52-.55-.16-.34-.15-2.95-2.63-.48-2.32,2.07-1.58.71-.67"/><path id="21191" d="m732.05,280.26l1.15,5.61-4.69,1.5-1.67-5.61,1.96-.58,3.08-1.97.17,1.05"/><path id="21037" d="m729.93,276.01l1.95,3.2-3.08,1.97-2.36-6.45,3.49,1.29"/><path id="21117" d="m726.44,274.72l2.36,6.45-1.96.58-1.52-.06-.88-6.24,2.01-.73"/><path id="21015" d="m724.43,275.46l.88,6.24-.71.67-2.53-1.54-.24-1-1.77-2.83.82-1.85,3.55.3"/><path id="21077" d="m722.08,280.83l2.53,1.54-2.07,1.58-2.47,1.65-1.88-2.14,3.89-2.63"/><path id="21041" d="m715.27,285.46l2.92-2,1.88,2.14-2.31,1.78-1.63.45-3.35-3.23,2.48.86"/><path id="21223" d="m712.78,284.6l3.35,3.23-2.35,2.44-2.19-.49-.06-1.45,1.24-3.74"/><path id="21185" d="m713.79,290.27l.9,3.04-.61,1.19-.47.21-.67-.05-.68.2-.3.12-.16.11-.2.26-3.28-1.86,3.28-3.71,2.19.49"/><path id="21111" d="m708.31,293.49l3.28,1.86,1.22.54-.08,2.54-.02.68-2.17,1.28h-2.81l-2.75,1.33-.54.4-.53.75-.21-.17.44-4.04,1.67-2.76,2.5-2.41"/><path id="21029" d="m712.71,299.12l-1.13,2.64.38.41-1.46,2.46.17.15-.03.05-1.03,1.25-.57.41-.78.31-.3-.02-4.05-3.91.53-.75.54-.4,2.75-1.33h2.81l2.17-1.28"/><path id="21179" d="m717.76,301.97l.47,1.67-4.03,4.35-1.7,4.31-.62.75-.07.05-.92-.32-.05-.43.03-.71.03-.35.38-.43-.41-1.61-.17-.12-1.25-.55-.26-.05-1.23-1.73.3.02.78-.31.57-.41,1.03-1.25.03-.05-.17-.15,1.46-2.46,1.72,1.03,4.08-1.23"/><path id="21123" d="m709.19,308.51l.26.05,1.25.55.17.12.41,1.61-.38.43-.03.35-.03.71.05.43.92.32.07-.05.62-.75,1.23,1.94-2.13.13-.86.23-.35,1.02-4.3.05.06-2.44,1.21-1.67.75-.95,1.08-2.08"/><path id="21087" d="m710.39,315.61l.35-1.02.86-.23v.66s.06.2.06.2l2.11,1.38,1.02,1.29,1.69,2.4-2.93,2.27-1.94-.19-1.14-1.17-.07-5.59"/><path id="21169" d="m710.46,321.2l1.14,1.17,1.94.19,1.79,3.79-2.31,3.06-2.66-.26-.61-3.78-.31-1.41-.33-.93-.17-.64.51-.8,1.01-.39"/><path id="21171" d="m710.36,329.15l2.66.26,3.41,4.28-6.42.62-3.44.21-.24-2.17,2.78-2.94,1.24-.26"/><path id="21213" d="m694.41,329.84l.63,1.17,3.37.19-.02.72.19,2.91-2.75.68h-3.67l.43-3.86,1.81-1.81"/><path id="21003" d="m702.37,327.84l3.96,4.51.24,2.17-4.19.18-3.79.14-.19-2.91,1.8-1.89.55-.87,1.05-1.21.58-.11"/><path id="21009" d="m709.45,321.59l-.51.8.17.64.33.93.31,1.41.61,3.78-1.24.26-2.78,2.94-3.96-4.51.66-3.03.76-.09.02-2.46,2.82-.02,2.82-.65"/><path id="21099" d="m706.09,315.65l4.3-.05.07,5.59-1.01.39-2.82.65-2.82.02.07-1.21-2.3-2.48,1.75-.66-.04-2.19,2.8-.07"/><path id="21093" d="m703.7,302.7l.21.17,4.05,3.91,1.23,1.73-1.08,2.08-.75.95-1.21,1.67-.06,2.44-2.8.07-.29-1.13-1.15-1.38-.35-.03-.31.17-.49.19-1.86-.71,1.74-4.97,2.54-.72.42-1.39-.7-2.77.87-.3"/><path id="21163" d="m694.02,302.79l3.62-2.33-.06.65v.2s.01.11.01.11l.02.04.13.45.11.16.04.06.09.06.81.54.78.31.13.02,2.6.13.54-.18.7,2.77-.42,1.39-2.54.72-6.66-5.07h.11"/><path id="21091" d="m685.44,306.33l2.8-1.85,3.2,3.32-.18.17-.11,1.01,1.31,3.08-.31-.12-3.49-1.43v-1.25s-.78-1.07-.78-1.07l-1.1-1.14-1.41.02.07-.73"/><path id="21027" d="m691.43,307.79h.14l.24-.08.5-.39,1.17-2.67-.14-1.37.03-.25.07-.1.1-.06.37-.07,6.66,5.07-1.74,4.97-.2.15-1.5.83-1.8-.68-.02-.09-.22-.22-.49-.23h-.08l-.41.22-.39.44-.54.82-1.04-2.15.31.12-1.31-3.08.11-1.01.18-.17"/><path id="21085" d="m693.19,314.08l.54-.82.39-.44.41-.22h.08l.49.23.22.22.02.09,1.8.68,1.5-.83.2-.15,1.86.71.49-.19.31-.17.35.03,1.15,1.37.29,1.13.04,2.19-1.75.66-5.59.91-.52-1.05-2.23-.41-1.4-3.8,1.36-.13"/><path id="21061" d="m695.99,319.48l5.59-.91,2.3,2.48-.07,1.21-.02,2.46-.76.09-1.44-.31-.5-.62-1.19.65-2.3-1.7-1.61-3.35"/><path id="21227" d="m697.6,322.83l2.3,1.7,1.19-.65.5.62,1.44.31-.66,3.03-.58.11-1.05,1.21-.55.87-1.8,1.89.02-.72-3.37-.19-.63-1.17-1.41-2.58.63-4.01-.14-.43,1.6.04.63-.29.66.6,1.22-.33"/><path id="21031" d="m693.23,318.02l2.23.41.52,1.05,1.61,3.35-1.22.33-.66-.6-.63.29-1.6-.04.14.43-.63,4.01-5-1.13.44-3.37,1.34-2.03-.22-.88.64-.23.29.49.44.1,2.28-2.19"/><path id="21141" d="m688.01,326.13l5,1.13,1.41,2.58-1.81,1.81-.43,3.86-5.41.65-.77-9.65,2.01-.38"/><path id="21219" d="m682.23,326.61l3.77-.11.77,9.65-.99.11-4.02.39.47-10.05"/><path id="21177" d="m684.38,318.39l4.07,4.36-.44,3.37-2.01.38-3.77.11-1.52-1.84.3-.65-1.21-1.49-.22-1.29,1.31-2.06,3.49-.89"/><path id="21183" d="m688.65,310.5l3.49,1.43,1.04,2.15-1.36.13,1.4,3.8-2.28,2.19-.44-.1-.29-.49-.64.23.22.88-1.34,2.03-4.07-4.36-.32-1.44,1.1-2,1.77-1.66,1.88-1.2-.88-.85.71-.74"/><path id="21059" d="m679.71,307.6l.64.45,2.63,1.75,1.34-2.42,1.12-1.05-.07.73,1.41-.02,1.1,1.14.77,1.07v1.25s-.7.74-.7.74l.88.85-1.88,1.2-1.77,1.66-6.92-2.21.36-1.29,1.83-1.17-.84-1,.09-1.68"/><path id="21149" d="m678.26,312.74l6.92,2.21-1.1,2,.32,1.44-3.49.89-1.01-.89-.8-3.11-2.33-1.59,1.5-.96"/><path id="21107" d="m679.09,315.29l.8,3.11,1.01.89-1.31,2.06.22,1.29,1.21,1.49-.3.65-1.23.69-2.08.8-2.97-.77-2.81-4.43,3.21-2.5,2.23-1.17,2.03-2.11"/><path id="21047" d="m680.71,324.77l1.52,1.84-.47,10.05-5.56.58-.96.11.09-1.97-.13-5.69-1.42-.71.66-3.49,2.97.77,2.08-.8,1.23-.69"/><path id="21221" d="m673.78,328.99l1.42.71.13,5.69-.09,1.97-2.9.34v-.71s-2.98-.06-2.98-.06l-1.07.06-.87-1.53-1.08-2.71,4.92-2.57,2.52-1.2"/><path id="21143" d="m665.15,326.35l1.7-.9.99.03,1.42,2.36,2,2.34-4.92,2.57-1.73-2.52.53-3.88"/><path id="21033" d="m671.63,321.07l2.81,4.43-.66,3.49-2.52,1.2-2-2.34-1.42-2.36-.99-.03.19-1.28,4.76-3.79-.16.68"/><path id="21233" d="m676.76,313.7l2.33,1.59-2.03,2.11-2.23,1.17-3.21,2.5.16-.68-.84-.18v-.76s-1.32.4-1.32.4l-.42-1.58,3.26-3.97,4.28-.6"/><path id="21101" d="m676.95,306.86l2.76.74-.09,1.68.84,1-1.83,1.17-.36,1.29-1.5.96-4.28.6-.74-2.61-1.04-.48-2.22-2.71,4.08-.32.76-.2-.23,1.5,1.05.27.68-.94-.81-.98.43-1.68,1.01,1.15,1.5-.44"/><path id="21225" d="m666.88,311.04l.83-.07.66.43.38-.65.45-.3-.85-1.37.14-.57,2.22,2.71,1.04.48.74,2.61-3.26,3.97-.67.08-.63-1.62-.46.83-.61.33-1.44-1.49-.15-.26-.39-1.05v-.02s-.11-.52-.11-.52v-.03s.02-.16.02-.16l.1-.26.02-.05.15-.25.29-.55h.01l.84-.61.22-.24.14-.25.09-.23.23-.88"/><path id="21055" d="m669.22,318.27l.42,1.58,1.33-.4v.76s.83.18.83.18l-4.76,3.79-.19,1.28-1.7.9-.38-2.84-3.1-2.88.46-.61.31-.28h.02l.09-.06.43-.26h.04l.11-.03.31-.09,2.89-.61.18-.04.34-.39v-.37l.61-.33.46-.83.63,1.62.67-.08"/><path id="21139" d="m661.67,320.64l3.1,2.88.38,2.84-.53,3.88-2.03-1.9-2.46,1.32-1.54-1.15,1.32.14.14-.02.42-.18.22-.6.27-1.28-.51-1.14-.22-.22-.24-.14-.76-.92-.16-.5v-.15s.53-2.26.53-2.26l.09-.23.23-.3.16-.11.13-.1.31-.14.11-.05,1.05.34"/><path id="21035" d="m660.57,335.94l6.85-.47.87,1.53,1.12,3.3-.46.86-7.98.55-.39-5.76"/><path id="21157" d="m660.13,329.65l2.46-1.32,2.03,1.9,1.73,2.52,1.08,2.71-6.85.47-.33-4.43-.11-1.86"/><path id="21083" d="m660.24,331.5l.33,4.43.39,5.76-.5.03-5.49.4-.42-6.25-.3-4,5.98-.37"/><path id="21145" d="m651.68,325.56l6.9,2.93,1.54,1.15.11,1.86-5.98.37-.06-.18-2.61-6.1.1-.03"/><path id="21039" d="m654.26,331.87l.3,4-5.68.14-1.05-.55h0v-.53h0l.51-.29h.01l.69-2.3,5.17-.62.06.18"/><path id="21007" d="m651.58,325.6l2.61,6.1-5.17.62-.65-.84-.86-1.93,4.06-3.95"/></g></svg>