<?xml version="1.0" encoding="UTF-8"?><svg xmlns="http://www.w3.org/2000/svg" viewBox="0 0 989.98 627.07"><g><path id="22103" d="m636.69,477.39l8.22.55,3.3,4.55.03.03.13.13,1.23,2.5.03.43-.18.46-.05.19.02.12.63,1.19.19.37.43.51.15.17.05.03.07.05.05.03h.04l.92-.06-1.91.78-.13-.08-1.1-.36-1.94-.15-1.22-.69-3.11-.6-.85-1.06-2.77-1.34-1.51.66-.7-8.41"/><path id="22117" d="m644.54,470.22l2.11-.14.04.71-.24,1.21-.2.44-.12.02-.16.02-.05.05-.26,1.08-.3,1.47-.24,1.21-.22,1.64-8.22-.55v-.41s-1.44-3.4-1.44-3.4l-.62-.52-.14-2.18,1.73-.11,8.32-.55"/><path id="22081" d="m572.29,445.06h.84l4.38.17.33,1.71.23.23.47.71.37,1.16v.1s-.1,1.33-.1,1.33l-1.81,2.14-.81.37h-.78l-.57-.2-.11-.76-1.75-1.29-.21-.26-1.23-1.92-.75-2.47-1.29-.97,2.78-.07"/><path id="22013" d="m583.47,436.7l.06,3.2,2.04-.24-.49,7.08-2.41.06-4.84.14-.33-1.71-4.38-.17.96-4.04,2.63-.08,1.7-1.08-.03-.57-.67-2.4,5.75-.18"/><path id="22061" d="m586.33,432.58l1.59-.05.83.1.63.14.88.55.13,1.18,2-.07.08,2.01.06,2.01-3.99.14.05.99-3,.09-2.04.24-.06-3.2.57-3.62,2.29-.5"/><path id="22049" d="m585.57,439.67l3-.09-.05-.99,3.99-.14.07,1.85.11.28,1.98,1.82.03.99.11,3.03-9.75.33.49-7.08"/><path id="22127" d="m585.08,446.76l9.75-.33.19,5.03-.86,3.05-5,.17.03,1.09-.07.93-6.79.25,1.21-3.75.35-1.61.03-.28-.13-1.7-.41-1.48-.7-1.29,2.41-.06"/><path id="22021" d="m594.72,443.4l5.38-.21,1.14,2.2,1.68.58.43.57.11.19.05.6-1.02.63.46,1.62.26.53-.03,1.15-2.18-.03-5.97.23-.19-5.03-.11-3.03"/><path id="22073" d="m599.07,432.94l3.08,1.56.06,3.32-2.12,5.37-5.38.21-.03-.99-1.98-1.82-.11-.28-.07-1.85-.06-2.01,2.97-.1.53-.16.2-.14,2.52-2.47.4-.63"/><path id="22083" d="m611.16,435.66l-.19,1.03-.23,3.05-3,.16-.72.42-1.68,2-.87,2.02-1.54,1.62-1.68-.58-1.14-2.2,2.12-5.37.71-.64,1.35-.96,1.3-.44,1.19-.6.18-.2.27-.48.18-.55-.02-.09.8.26.84,1.62,2.15-.09"/><path id="22041" d="m610.66,444.42l.25,5.36-1.51,2.11-.47-1.31-.98-.46-.03.19-.35.6-.71.79-.5.36-.93.26-.29-.37-.47-.71-.7-.71-.49-.31-.28-.09-.26-.53-.46-1.62,1.02-.63-.05-.6-.11-.19-.43-.57,1.54-1.62.87-2.02,1.68-2,.72-.42,3-.16-.09,4.67"/><path id="22107" d="m610.66,444.42l3.33-.14.1-.18.34-.24,2.14-.69.88-.15h.11l.25.21v.5s0,.02,0,.02l1.96,2.29-3.99,5.83-2.22,2.94-.19.35-3.24-.31-.73-2.96,1.51-2.11-.25-5.36"/><path id="22065" d="m618.03,435.75l-.44,1.47.03.37v.03l.06.08.08.13.02.04,2.14,2.28.14,3.32-2.24.28v-.52s-.26-.21-.26-.21h-.11l-.88.15-2.14.69-.34.24-.1.18-3.33.14.09-4.67.23-3.05,7.05-.93"/><path id="22035" d="m616.05,425.66l-.63,1.02-.2.73.03.19,1.54,6.99.11.27.02.04.06.07.02.04.04.03.18.16.05.04.61.19.14.31-7.05.93.19-1.03.55-.52.18-.56.58-2.22.3-2.55.09-.68.7-2.06.59-1.34,1.9-.07"/><path id="22123" d="m614.15,425.74l-.59,1.34-.7,2.06-.09.68-.3,2.55-.58,2.22-.18.56-.55.52-2.15.09-.84-1.62-.8-.26.71-1.98,2.69-5.52.11-.49,3.28-.13"/><path id="22067" d="m610.4,425.9l.47-.03-.11.49-2.69,5.52-.71,1.98.02.09-.18.55-.27.48-.18.2-1.19.6-1.3.44-1.35.96-.71.64-.06-3.32-3.08-1.56.09-.07.14-.31-.06-1.21-.7-1.98.17-3,11.68-.48"/><path id="22111" d="m598.73,426.37l-.17,3,.7,1.98.06,1.21-.14.31-.09.07-.4.63-2.52,2.47-.2.14-.53.16-2.97.1-.08-2.01-2,.07-.13-1.18-.88-.55-.63-.14-.83-.1-1.59.05-.19-5.87,12.59-.34"/><path id="22027" d="m581.07,426.8l5.06-.1.19,5.87-2.29.5-.57,3.62-5.75.18.05-1.13-.29-1.9-.98.04-.23-6.96,4.8-.13"/><path id="22119" d="m571.44,427.06l4.84-.13.23,6.96.98-.04.29,1.9-.05,1.13.67,2.4.03.57-1.7,1.09-2.63.08-1.33.02-.16-2.02-.13-6.07-.2-2.5-.55-.57-.67-1.01-.36-.64v-.35l.16-.84h.59"/><path id="22015" d="m570.85,427.07l-.16.84v.35l.36.64.67,1.01.55.57.2,2.5.13,6.07.16,2.02,1.33-.02-.96,4.04h-.84l-1.71-2.23-2.15-1.15-2.42-7.43-.2-1.08-.83-5.72.03-.09.21-.18h.19l5.45-.12"/><path id="22017" d="m565.22,427.19l-.21.18-.03.09.83,5.72.2,1.08,2.42,7.43,2.15,1.15,1.71,2.23-2.78.07-.02-.76-.19-.28-.45-.48-.4-.3-1.58-.53-.34-.07-.37.08-.28.18-.1.09-.97,1.14-.05.34.04.14-.06.2-.68.63-1.05.74-1.77.03-.25-11.46-.08-4.34-.07-3.19,4.39-.1"/><path id="22031" d="m569.51,445.13l1.29.97.75,2.47,1.23,1.91.21.26,1.75,1.29-1.62.15v1.9s-8.52.23-8.52.23l-2.74-3.06-.63-4.97,1.77-.03,1.05-.74.68-.63.06-.2-.04-.14.05-.34.97-1.14.1-.09.28-.18.37-.08.34.07,1.58.53.4.3.45.48.19.28.02.76"/><path id="22085" d="m564.6,454.3l8.52-.23.06,3.01,2.01-.05.15,4.05,1.97-.06.13,4-3.03.09-.6,1.86-2.2.33-.23.71-.1,1.26.05.04-.91.24-.2-1.19-.14-.75-.59-2.56-1.8-2.61-2.11-2.22-.98-5.92"/><path id="22069" d="m577.84,446.95l4.84-.14.7,1.29.41,1.48.13,1.7-.03.28-.35,1.61-1.21,3.75,5.11,4.23-5.01,4.11-5-.26-.13-4-1.97.06-.15-4.05-2.01.05-.06-3.01v-1.9s1.62-.15,1.62-.15l.11.76.57.2h.78l.81-.37,1.81-2.14.11-1.33v-.1s-.38-1.16-.38-1.16l-.47-.71-.23-.23"/><path id="22043" d="m582.33,456.94l6.79-.25.07-.93-.03-1.09,5-.17.22,2.91.64,1.77.93,1.29.89.98.85.25-2.08.53-6.37,1.81-.52.07-.6-.21-.13-.1-.27-1.18-.29-1.45-5.11-4.23"/><path id="22059" d="m595.02,451.45l5.97-.23.53,13.84-1.55-.16-2.27-3.19-.85-.25-.89-.98-.93-1.29-.64-1.77-.22-2.91.86-3.05"/><path id="22025" d="m600.99,451.22l2.18.03.03-1.15.28.09.49.31.7.71.47.71.29.37.93-.26.5-.36.71-.79.35-.6.03-.19.98.46.47,1.31.73,2.96-2.69.34-.16.14v1.54s-2.1.99-2.1.99l-.13.23.13,1.27,1.95,2.38v.6s-1.48-.01-1.48-.01l-.77-1.58-.56.31-.11.66.09,3.49.07.21.62.88-1.09-.54-.4-.1-.34.06-.23.23-.14.35.19.46.24.28.06.15-.38.23-.93-.06-.09-.1-.35-1.43v-.77l-.53-13.84"/><path id="22029" d="m610.13,454.85l3.24.31-.31.53v.02s-2.11,4.21-2.11,4.21l-.05.09-.07.15v.02s-.74,5.99-.74,5.99l-.47,2.48-.48,3.59-.47.69.06-.55-1.34-1.09.14-.35.1-.33.52-2.66-.23-.27-.36-.18-.1.03-.66-.09-.93-.25-.44-.28-.44-.61-.62-.88-.07-.21-.09-3.49.11-.66.56-.31.77,1.58h1.47s0-.59,0-.59l-1.95-2.38-.13-1.27.13-.23,2.1-.99v-1.54s.16-.14.16-.14l2.69-.34"/><path id="22009" d="m599.97,464.9l1.55.16v.77l.35,1.43.09.1.93.06.38-.22-.06-.15-.24-.28-.19-.46.14-.35.23-.23.34-.06.4.1,1.09.54.44.61.44.28.93.25.66.09.1-.03.36.18.23.27-.52,2.66-.1.33-.14.35-.49.61-1.11,3.98-7.83.31-1.44-2.62,1.24-.66-.47-3.21-.16-4.39.18-.15.14-.06.08.02,1.22.57,1.25-.8"/><path id="22079" d="m587.44,461.18l.29,1.45.27,1.18.13.1.6.21.52-.07,6.37-1.81,2.08-.53,2.27,3.19-1.25.8-1.22-.57-.08-.02-.14.06-.18.15.16,4.39.47,3.21-1.24.66-1.99-.75-4.2,2.57-4.44.3-.18-2.79-.22-5.54-1.03-1.46-.34-.16-1.68-.45,5.01-4.11"/><path id="22115" d="m577.43,465.03l5,.26,1.68.45.34.16,1.03,1.46.22,5.54.18,2.79-3.05.37h-3.06l-5.67.15-2.7.4-.07-7.29-.05-.04.1-1.26.23-.71,2.2-.33.6-1.86,3.03-.09"/><path id="22039" d="m590.32,475.39l4.2-2.57,1.99.75,1.44,2.62.88,1.82.05,1.25.02.89-.82,2.48-.83.71-3.02.11-.66.12-.21.23-.63,1.04-2.75.08.03-.15.13-.13.18-.31.57-1.39-.04-.11-.26-.24-.17-4.2-.03-.86-.06-2.17"/><path id="22003" d="m585.88,475.68l4.44-.3.06,2.17.03.86.17,4.2.26.24.04.11-.57,1.39-.18.31-.13.13-2.85.09.06.82h-1.63s-3.15.49-3.15.49l-2.31.4-.11-4,1.65-.07,1.34-.04-.1-4.63-.1-1.8,3.05-.37"/><path id="22011" d="m582.83,476.05l.1,1.8.1,4.63-1.34.04-1.65.07.11,4,.02.48-5.04.15-.05-2.01-2.01.05.06,2.02-5.08.14.02-.02.76-.64.08-.2v-.12s-.27-1.43-.27-1.43l-.55-.67-.06-.06.22-.8,2.82-5.31.35-1.54,2.7-.4,5.67-.15h3.06"/><path id="22053" d="m589.98,484.94l.45,8.92-2.21,1.34-5.13.15-.03-1.01,2.12-.12-.35-1.02-.49-.59-2.1-2.33-.04-2.73-2.03.06-.02-.53-.02-.48,2.31-.4,3.15-.48h1.63s-.06-.83-.06-.83l2.85-.09-.03.15"/><path id="22019" d="m580.16,487.06l.02.53,2.03-.06.04,2.73,2.1,2.33.49.59.35,1.02-2.12.12.03,1.01-2.63.09v-.34s-11.81.33-11.81.33l-.03.03v-4.44s-.59-3.61-.59-3.61l5.08-.14-.06-2.02,2.01-.05.05,2.01,5.04-.15"/><path id="22023" d="m588.22,495.2l2.45-.1.3,7.86.03,2.67-.72-.18-1.84-.61-1.67-.72-.91-.39-1.41-.67-.67-.27h-.03l-2.3-.74-1.79-.43-1.01-.13h-.8l-4.15.32-1.26.17-1.93.29-.97.15-1.16.28-.06.02-.11.04-.32.1-.65.35-.39.27-.37.31-1.32-.95-.74-1.77,1.77-1.43.11-.97,2.29-3.19.03-.03,11.8-.33v.34s2.64-.09,2.64-.09l5.13-.15"/><path id="22001" d="m589.98,484.94l2.75-.08,4.92-.18,1.4.94.8,2.64v.51l-2.69,3.58-1.56,1.78-.41.29-.39.18-.35.12-3.8-.78-.22-.06-.45-8.92"/><path id="22097" d="m605.78,475.88l.29.23.76,1.29.7,1.73.09.77-.1,3.12-.22.85.8,1.09.85,1.21-2.65.13-.15-.12-.99-.35-1.19.52-.58.49-2.2.13-1.33,1.8v-.51l-.8-2.64-1.4-.94-4.92.18.63-1.04.21-.23.66-.12,3.02-.11.83-.71.82-2.48-.02-.89-.05-1.25-.88-1.82,7.83-.31"/><path id="22077" d="m606.89,471.9l1.83.47-.06.55.13,2.54,1.81.21.42.1v-1.03s-.95-.64-.95-.64l1.36-.23.77,1.55-.36.24-.14,1.14-1.13.35.36.89,2.54.08.78-.66h.45s.23.67.23.67l.61,1.64-2.87,3.86-4.28.19-1.09.04.22-.85.1-3.12-.09-.77-.7-1.73-.76-1.29-.29-.23,1.11-3.98"/><path id="22121" d="m615.54,479.77l.51.11.15.07,3.46,7.33-3.37.18-.77-.97-2.19-2.37-.67-.5,2.87-3.86"/><path id="22055" d="m599.85,488.76l1.33-1.8,2.2-.13.49,6.94-.25.9-2.06-.83-1.27-.88-1.65-.55-1.48-.07,2.69-3.58"/><path id="22113" d="m603.62,494.67l.12,5.28-1.28.58-.41.23-.99.68-.72.67-.08.45.37.82.45.88.37.06,1.91.06-.83.75-.11-.06h-1.2l-1.03.15h-.02l-1.06.48-.76.57-.52.14h-.17l-.35.03h-.1l-5.02-.66-1.16-.16h-.03l-.03-2.67-.3-7.86-2.45.1,2.21-1.34.22.06,3.8.78.35-.12.39-.18.41-.29,1.56-1.78,1.48.07,1.65.55,1.27.89,2.06.83"/><path id="22045" d="m603.37,504.37l1.49-.54.48-.1.67.1,3.15,1.39.05.09-.04.15-1.11,1.55-.23.14-.78.24-.34-.1-3.86-1.85-.3-.33.83-.75m12.09-10.8l2.02.06.9.57-.55,1.27-4.3.56-3.04.39-1.62,2.35-3.17,3v-2.26s-1.97.44-1.97.44l-.12-5.28.25-.9.87-.02,2.22.42.57-1.38.37-.22.27-.07.57-.02.71.15.18.06,1.52,1.19,1.95-.18,2.38-.13"/><path id="22047" d="m612.68,483.63l.67.5,2.19,2.37.77.97,3.37-.18,2.4-.09-1.38,6.03-2.31.97-.9-.57-2.02-.06-.02-.3-.22-.52-1.18-1.17-.89-1.82-.34-.15-.37-.07-.63.06-.41-.03-.26-.12-.25-.21-.71-1.18-.11-.32-.04-.13.04-.28-.05-1.2-.09-.45-.27-.65-1.26-1.2,4.28-.19"/><path id="22007" d="m623.52,492.99l1.75,3.61-2.18,4.49-1.42,2.11-.43-1.65.05-1.48-.02-.87-.15-.3-.25-.26-.41-.22h-.21l-.87-.17-.3-.29-1.09-2.07-.17-.43.55-1.27,2.31-.97,2.83-.23"/><path id="22099" d="m607.31,483.87l1.09-.04,1.26,1.2.27.65.09.45.05,1.2-.04.28.04.13.11.32.71,1.18.25.21.26.12.41.03.63-.06.37.07.34.15.89,1.82,1.18,1.17.22.52.02.3-2.38.13-1.95.18-1.52-1.19-.18-.06-.71-.15-.57.02-.27.07-.37.22-.57,1.38-2.22-.42-.87.02-.49-6.94.58-.49,1.19-.52.99.35.15.12,2.65-.13-.85-1.21-.8-1.09m6.22,12.16l4.3-.56.17.43,1.09,2.07.3.29.87.17h.21l.41.22.25.26.15.3.02.87-.05,1.48-2.35-1.07-2.62-.34-.68-1.18-.4-1.88-1.66-1.04"/><path id="22101" d="m613.53,496.03l1.66,1.04.4,1.88.68,1.18,2.62.34,2.35,1.07.43,1.65-2.61,1.12-1.01,2.51h-.44l-.84-.16-3.96-.86-.16-.78-.12-.65-.27-.87-1.53-.24.06-2.04-.23-.16-2.09-.06-.3.04-2.44.71,3.17-3,1.62-2.35,3.04-.39"/><path id="22109" d="m623.08,501.09l.87-.4,1.71.05.04-.84.87-.4.14-.06.27.03.52,1.45,4.41,3.25,3.77,3.87.29.3.12.34.12,1.07-.5,2.52-2.44-.13-.1-.67.62-.75-1.24-.6-1.07.64.64.74v.58s-1.41.16-1.41.16l-.38,1.7-2.21.68-.86.45.4.61,3.09-.73.51.43-4.07.91-2.92-2.84-6.08-1.39-.5-.39-.68-.72.03-.17,1.1-.6.38-1.05.97.27.19-.22-.08-.45-.28-.7-.12-.26-.08-.08-1.07-.86,1.01-2.51,2.61-1.12,1.42-2.11"/><path id="22057" d="m632.16,496.52l1.08.7,1.73,1.85,1.03,1.33v.14s.19.25.19.25l.24.06,2.22-.11.51-.02.66.15.21.13.06.18.23,1.61.02.23-.12.43-.5.64.94,1.85,1.16-.12,1.21.53.03,2.6-1.19,1.46.6,1.17-.3,1.11-.22.22-.05.06-1.29,1.06-.07.06-.05.03-.91.49-2.37.79h-.11v-.02l-.02-.12.47-.29.42-.08.23-.04.19-.1.49-.24.09-.06.35-.4-.03-.42-1.5-.63-.1-.82.41-.7-.64-.86-.36-.26-.68.11-.39.51-.36,1.32.5-2.52-.12-1.07-.12-.34-.29-.3-3.77-3.87-4.41-3.25-.52-1.45-.27-.03-.14.06-.87.4-.04.84-1.71-.05-.87.4,2.18-4.49,4.59.11,2.31-.19"/><path id="22093" d="m629.78,490.35l-.23,2.67-.53.38.39,1.92.27,1.05.17.35-4.59-.11-1.75-3.61,6.27-2.64"/><path id="22005" d="m624.6,486.52l3.62,3.38.43.29.1.03.08-.04,1.08-1.09-.11,1.27-6.27,2.64-2.83.23,1.38-6.03,2.53-.68"/><path id="22033" d="m624.98,477.89l-1.12,1.67-1.29,1.55.07,3.18.38.94,1.6,1.29-2.53.68-2.4.09-3.46-7.33.59-1.17.2-.15,7.98-.75"/><path id="22037" d="m620.48,471.7l4.61-.26-.6,1.5.39,1.99.1,1.29v1.68l-7.98.75-.2.15-.59,1.17-.15-.07-.05-.54.04-.75.29-.9.2-.27.8-1.36.58-2.65.28-1.59,2.28-.11"/><path id="22091" d="m630.18,471.14l.46,8.03-6.78.4,1.12-1.67v-1.68l-.1-1.29-.39-1.99.6-1.5,5.1-.3"/><path id="22063" d="m623.85,479.57l6.78-.4.22,3.74.48,1.2,1.54,2.14-.51.2-.3.4-.79.72.28.8v.36s-.21.11-.21.11v.35s-.11.47-.11.47l-.22-.04-1.12-.53-1.08,1.09-.08.04-.1-.03-.43-.29-3.62-3.38-1.6-1.29-.38-.94-.07-3.18,1.29-1.55"/><path id="22095" d="m635,486.95l1.5.02.1.85-1.12.96-.92.81-.02,2.45-1.65,1.25-.85.35-.21.34.03.42.3,2.1-2.31.19-.17-.35-.27-1.05-.39-1.92.53-.38.35-3.94,1.12.53.22.04.51.4,2.02-.17.75-1.32.07-.35.51-.66-.1-.6"/><path id="22089" d="m632.16,496.52l-.3-2.1-.03-.42.21-.34.85-.35,1.65-1.25.72.21,1.86.34.07.99.05.8.2,1.14.13.38.61.94,1.21.72-.33,1.91-.11.35-.29.89-2.22.11-.24-.06-.18-.25v-.14s-1.04-1.33-1.04-1.33l-1.73-1.85-1.08-.7"/><path id="22105" d="m630.55,471.13l3.94-.25.14,2.18.62.52,1.43,3.4v.41s.71,8.41.71,8.41l-.26,1.13-.64.04-1.5-.02-.55-.54-.55-.11-.5-.4-.52.35-1.54-2.14-.48-1.2-.22-3.74-.46-8.03h.38"/><path id="22071" d="m642.81,492.33l2.67-2.91.74,1.32.77-.11.17-.53-.51-.53.21-.74,1.94.15,1.1.36.13.08-.85,1.02-.37,1.09-.76.13-.14.88-1.39-.38-.89,1.07-2.56.32-.63,1.02,1.63.48.67,1.26-1.98-.49-1.07-.85-1.45.28.1-2.34,1.74-.67.73.11Z"/><path id="22087" d="m645.62,493.22l.12.51.19.49.13.22.2.13.48.24,1.06-.24-.1.73,1.39.71.64.08.45-.05.48-.22.29-.23.11-.36.23-1.45-.03-.55,1.48-1.65.69-.34.83.26.52.43-.43.24-.13.13-.19.18.02.39.03.28,1.17,1.28.22.17.95.49.22.12-1.33,2.23-.77,1.14-1.14.43-.89-.34-2.09-.08-.34.11.08.67.11.2,1,.55.48.2.34.06.47-.03.98.84.06.14-.02.09-.12-.18-.55-.44-2.19-.52-1.41-1.27-.3-.32-2.95-.79-.22.08-.13-.02-.25-.3-.44-.77-.28-.59-.67-1.26-1.63-.48.63-1.02,2.56-.32"/><path id="22075" d="m642.75,495.81l1.98.49.28.59.44.77.25.3.13.02.22-.08,2.95.79.3.32,1.41,1.27,2.19.52.55.44.12.18-.37-.22-.63-.35-1.73-.08-.39.23-.63.54-.16.55-.2,1.9v.11s.16.16.16.16l.59.39,3.73,1.97.6-.04,1.55-.07,4.15,1.2,1.07,1.33.54.75.81.47.75-.34.14.06.15.14.34.7v.02l-.06.31v.02l-.36.83-.63,1.42-1.82,1.09-1.29-.79-2.77.07-2.22-2.56-.06-.06-.27-.26-.03-.03-.22-.15-.09-.03-.6-.22-.43-.16-2.79-1.02-.44-.12-.08-.02-.43-.09-.17-.04h-.12l-.42-.03-.59-.05-1.41.12.28-1.14.25-.44.07-.16v-.22l-.03-.12-.44-1.54v-.07s-.14-.06-.14-.06l-.18-.1-.26.06-.26.11-.5.31-.32.39-.25.35-.46.05-.19-.13-.26-.28-.29-3.44-.1-.43-.8-1.36-.39-.46-.64-.86-.22-.75.37-1.54.8-1.37"/><path id="22125" d="m609.14,472.24l9.06-.43-.28,1.59-.58,2.65-.8,1.36-.2.27-.29.9-.04.75.05.54-.51-.11-.61-1.64-.23-.66h-.45s-.78.65-.78.65l-2.54-.08-.36-.89,1.13-.35.14-1.14.36-.24-.77-1.55-1.36.23.96.64v1.03s-.42-.1-.42-.1l-1.81-.21-.13-2.54.47-.69m-1.76-.95l1.34,1.09-1.83-.47.49-.61"/><path id="22051" d="m640.34,492.9l-.1,2.34,1.45-.28,1.07.85-.8,1.37-.37,1.54.22.75.64.86.39.46.8,1.36.1.43.29,3.44-.99.33-1.21-.53-1.16.12-.94-1.85.5-.64.12-.43-.02-.23-.23-1.61-.06-.18-.21-.13-.66-.15-.51.02.29-.89.11-.35.33-1.91-1.21-.72-.61-.94-.13-.38-.2-1.14-.05-.8-.07-.99,2.28.35.94-.06Zm2.14,18.68l.02.02.55-.11.43-.49,1.16-.89.17.02.03.07-.02.06-.1.17-1.26.94-1.08,1.13-.19.19h0l.3-1.11"/></g></svg>