<?xml version="1.0" encoding="UTF-8"?><svg xmlns="http://www.w3.org/2000/svg" viewBox="0 0 989.98 627.07"><path id="23003" d="m950.81,56.88l-1.19-3.87-13.74,3.94-4.62,1.3-.35-2.72v-.07s0-.06,0-.06l.42-1.24,1.17-3.44,2.27-6.59,3.05-8.84,1.24-.1,1.48-.03.22.06.27.37.06.1-.11.15-.02.03-.03.54.8,2.59.23.21.13.06,2.4.79.62-.54,1.67-1.59,1.85-1.68,2.85-2.48.39-.22.75-.23.7-.06.28.06,1.29.43,3.74,1.6,3.37,2.12.05.11,5.36,17.12,3.14,10.16-.25.38-.02.22.51,2.28.27.22-3.46,2.03-2.97,1.71v.08s.03.12.03.12l-1.09.62-1.16.64-.36-.06-1.08-3.68-.26-1.08-.5-1.77-.48-1.53-3-9.57-4.04.88-1.9.55"/><path id="23021" d="m950.81,56.88l.9,3.21,1.61,5.48,2.01,6.99-1.94,1.1.89,3.33,1.56-.81,3.12,5.96-1.59.79.97,1.73-4.35,2.28-3,1.52-2.21,1.81-1.54.77-1.09-1.82-4.73-9.24.22-2.32-2.48-1.58,1.11-1.07,1.2-2.72-1.33-2.43-1.08-1.22-2.23-7.66-.95-4.03,13.74-3.94,1.19,3.87"/><path id="23013" d="m956.88,103.75l-1.12,1.54-.71-.48-.14.38-.41.21-.16.29.35,1.13.49.72.53.23.56-.04.52-.24,1.03,1.54.72,1.66-.67,1.08-.11,1.33,1.54-.27.63.47.81-.66-.18-.61,1.56-2.23.03-.43.34-.34-.17-.49-.79.41-.1-.59.04-.44-.2-.69.28-.27-.23-1.26-.81-.43-3.66-1.51Zm8.17,1.9l-.33.18-.88,1.09-.17.47-.03.44.04.06.48-.05.87,1.51.3.09.18-.04.66-.36.15-.14.22-.5h0s.07-.12.07-.12l.07-.3-.09-.18-.57-.93-.41-.11-.12-.2.65-.3-.95-.5-.13-.1Zm3.93.6l-.61.84.36.66.07.77.43-.32.36.14.02-1.58-.63-.51Zm-2.89,6.34l-.12.28.43.87.27-.34-.26-.21-.09-.47-.23-.13Z"/><path id="23015" d="m950.57,110.96l1.72-.08-.8-2.29-.09-1.23,1.74-.05.14-.13.16-.43-.16-1.44,1.63-.12-.41.21-.16.29.35,1.13.49.72.53.23.56-.04.52-.24,1.03,1.54.72,1.65-.67,1.08-.11,1.33-.42-.05-.32-.04-.25.32-.07.08v.54s.1.89.1.89l-.28,1.65-.14.19-2.12.95-.51.16h-.38l-2.81-6.84"/><path id="23023" d="m950.57,110.96l2.81,6.84-.15,1.6-1.21,1.23-1.12-1.11-.48-1.65-.11-2.09-.29-.19-.43.75-.35.45h-.93l-.74-.43-.36-.51-.47-3.43h1.72s.04-.51.04-.51l.04-.54.03-.16.14-.26.12-.15,1.56-.09.12.15.05.13"/><path id="23005" d="m939.76,116.55v.05s.04.07.04.07l.6.24.91.15.82.14.39-1.47,3.82,1.99.43-.59.44-1.3.36.51.74.43h.93l.35-.45.43-.76.29.19.11,2.09.48,1.65-.85.64-.46.85-.68.41.31-1.76-.41-1.18-.16-.11-.14.05-1.25,2.11-.63,1.1-.43,1.79v.15l.32.34,1.42,1.67-.83.69-1.78.85-1.21-.32-1.68-.52.33-.94-1.93-1.23-.64.77-.97-.08-.36-1.75-1.61.25-.78-.2-.04-3.95-1.13-.91-1.41-.27-.27-.86.79.21,1.41-2.02,1-.76.89.61-.25,1.3.26.42.43.4.11.06.63.1.86-.86"/><path id="23031" d="m936.47,123.09l.78.2,1.61-.25.36,1.75.97.08.64-.77,1.93,1.23-.33.94,1.68.52,1.21.32-.07,1.6.6.86-.89,2.49-1.01.32-.52,2.44.69.52-.96,3.64-.56-.33-.08.16-.43.37-2.25-.9-.62-2.51-.05-.06-1.94-1.16-.81-.4-.3-.15-.47-.65-.15-.32-.12-.51-.28-3.13-2.03-5.28,1.53.11,1.86-1.12"/><path id="23001" d="m940.97,106.01l1.55-1.12,1.08,2.13-.55.1,1.15,1.36.91,2.42,1.63.1v1.4s.47,3.43.47,3.43l-.44,1.3-.43.59-3.82-1.99-.39,1.47-.82-.14-.91-.15-.6-.24-.05-.07v-.05s-.25-.61-.25-.61l1.48-4,.15-.68v-3.01l-.53-1.1-.09-.59.45-.55"/><path id="23017" d="m926.75,90.74l1.25,2.91.91,2.31-.56.24,2.57,6.03,2.04-2.07,2.68,3.29-.33.78,4.31-.5.88,1.33.47.94-.45.55.09.59.53,1.1v3.01l-.15.68-1.48,4,.26.61-.86.86-.63-.1-.11-.06-.43-.4-.26-.42.25-1.3-.89-.61-1,.76-1.41,2.02-.79-.21.27.86,1.41.27,1.13.91.04,3.95-1.86,1.12-1.53-.11-3.28-10.87-3.01-9.59-.24-.77-3.4-10.25-.62-1.77,1.1-.62,2.22,1.23.22.11h.47l.19-.18.03-.09-.02-.56"/><path id="23011" d="m944.89,101.28l1.72-.41,3.62-.3.18-.22-.08-1-.55-.4-.22-.06-.28-.29-.19-.39-.08-.24,2.22-1.12h.22l.11.21.02.35.49.96,1.09-.15.28,2.05h.65s.19,2.02.19,2.02l-.82.08-.2,2.96.16,1.44-.16.43-.14.13-1.74.05.09,1.23.8,2.29-1.72.08-.05-.13-.12-.15-1.56.09-.12.15-.14.27-.03.16-.04.54-.04.49h-1.72s0-1.39,0-1.39l-1.63-.1-.91-2.42-1.15-1.36.55-.1-1.08-2.13,1.19-.34.06-.7-.74-.27.35-1.21,1.36-.35.16-.75"/><path id="23027" d="m961.51,94.31l-5.06,2.87-.89-1.79-.92.45h0s-.76.39-.76.39l-.77-.52-.65.07-.1,1.23-.76.39.49.96,1.09-.15.29,2.04h.65s.19,2.02.19,2.02l-.82.08-.2,2.96,1.63-.12.14-.38.71.48,1.12-1.54,3.66,1.51.81.43.76-2.25v-.23l-.1-.73-.43-.46-.25-.07-.16-.21-.21-.37.06-.29.72-.51.06-.42.38-.04.39.33.89-1.1.2-.12-.02-.13-.09-.44-.6-1.59-.54-.48-.42-.26-.1-.14-.03-.13.11-1.43-.46-.3Zm.78,10.45l.33-1.32-.18-1-.06-.53.25-.48.46.06.22.6-.34.68.35.44-.06,1.2-.4.91-.57-.55Z"/><path id="23009" d="m970.06,78.47l-3.62,1.89,1.33,2.52-1.9,1.02.93,1.73-1.87.96.6,1.12,1.71,3.42-2.53,1.3-.19,1.07-.84-.29-.4.73-.05.65-.81-.17-.45.2h0s-.11,1.45-.11,1.45l.03.13.1.14.42.26.54.48.6,1.59.09.44.02.13.19-.11.03.26-.06.68-.13.16-.04.06.02.45.5,2.07.05.1.54-.06.29-.39.72-.23,1.73.34.5.13.82.39.24.16.02.04.43-.17-.09-.49-.03-.11-.36-.5-.17-.18-.29.06-.17-.13-.06-.1-.04-.1-.26-1.29-.34-.8.52-.02.39-.98.51.93.02.22.14.2.2-.04.06-.06-.19-.7-.23-.57v-.16s.07-.12.07-.12l.1-.07h.14l.21.14.04.3.14.55.12.08.11-.02.07-.06.27-.53.36-.32.54-.37.6-.6.09-.81.57-.25.56-.11.62-.13.46-.06.11.06.09.14-.02.2.09.31.41.93.25.32.91.92.12.05h0l.18-.03v-.31s.03-.41.03-.41l.06-.31.06-.44.2-.3.18.15.09.08.11-.03.19-.35-.03-.39-.21-.22-.44-.69-.48-.84-.99-1.77-.07-.71-.49-1.24-1.15-1.74-2.01-3.62,1.57-.82-.28-1.15-1.19-2.53-1.43-2.69Zm2.48,19.62l-.72.41-.53.22-.42.32-.16.23-.21.89-.1.66.09.31.34.48.44.4,1.17.36.33-.15.27-.62-.16-.29-.05-.02-.04-.07-.05-.22.09-.21.19-.18.66-.19.47-.53.06-.07v-.02s.19-.34.19-.34l-.12-.33-.32-.52-.31-.32-.02-.02-1.08-.18Zm1.51,2.7l-.8.34.09.44.47-.15.02-.26.21-.38Zm-5.42-1.21l-.25.22.3.54v.5s.71.1.71.1l.19-.32-.69-.77-.26-.27Zm3.48,3.38v.44s.61.14.61.14l-.04-.47.16-.43-.39.09-.34.23Zm-1.63.09l-.3-.29v.51s.33.13.33.13l.16-.15-.19-.21Zm-3.68-.16l-.08.03.08.07.04.14v.16l-.14.71-.28-.05v.39s.02.09.02.09l.37,1.1.4.09.31.17.18.12.07-.4.33-.22.24-.49-.12-1.16-.18-.28-.26-.19-.84-.25-.14-.04Zm4.45.4l-.72.54-.3.73.61.04h.32s.27.35.27.35l.33-.05.32-.7-.06-.32-.77-.6Zm1.7,1.13l-.32.06-.09.48.36.03.48-.29-.43-.29Zm-2.32.88h-.33s.12.54.12.54l.34-.18-.12-.36Z"/><path id="23029" d="m971.08,67.93l5.41.25.19-.13.32-.11.1.02.53.4.08.14,1.33,4.22.13.81-.18,1.09-.07.11-.27.22.02.24.65.69,1.44,1.45.95.5.03.02.06.03.17.04.08-.02.4-.59-.06-.38v-.64l.08-.13.2-.04,1.9.09h0l.71.51.4.35,3.4,4.14.35.69-.09.76.03.16-.42,1.03-1.41,2.9-.37.69-1.07,1.17-.6.13.26-.92-.48-.18-.29-1.19-1.02.79.67.88-.32,1.21-.72.37-1.26-.57-.43.78.42,1.47-.61.61-1.16.35-.38.96-2.24-.82.6,3.35-.64.33-.54.24-.14.05-.21-.22-.44-.69-.48-.84-.99-1.77-.07-.71-.49-1.24-1.15-1.74-2.01-3.62,1.57-.82-.27-1.15-1.19-2.53-1.43-2.69.45-.18,1.28-.64-.83-1.82-3.35-5.86,3.46-2.03"/><path id="23019" d="m967.62,69.96l3.35,5.86.83,1.82-1.28.64-.45.18-3.62,1.89,1.33,2.52-1.9,1.02.93,1.73-1.87.96.6,1.12,1.7,3.42-2.52,1.3-.19,1.07-.84-.3-.4.73-.05.65-.81-.17-.45.2-.46-.31-5.06,2.87-.89-1.79-.92.45-3.64-7.38,3-1.52,4.35-2.28-.97-1.73,1.59-.79-3.12-5.96-1.56.81-.89-3.33,1.94-1.1-2.01-6.99-1.61-5.48-.9-3.21,1.9-.55,4.04-.88,3,9.57.48,1.53.5,1.77.26,1.08,1.08,3.68.36.06,1.16-.64,1.09-.62-.04-.12v-.08s2.97-1.71,2.97-1.71"/><path id="23007" d="m928.7,80.68l2.12,4.58,3.09,6.31,1.48-.59.67.95,1.66-.94,2.22,3.88-.68.25.86,1.79,1.48-.52,1.77,3.7.6-.26.91,1.43-.16.75-1.36.36-.35,1.2.74.27-.06.7-1.19.34-1.55,1.12-.47-.94-.88-1.33-4.31.5.33-.78-2.68-3.29-2.04,2.07-2.57-6.03.56-.24-.91-2.31-1.25-2.91-.02-.77-.02-.74.22-4.58.22-1.23.15-.29.17-.34.4-.71.61-1.12.05-.08.17-.21"/><path id="23025" d="m935.88,56.95l.95,4.03,2.23,7.66,1.08,1.22,1.33,2.43-1.2,2.72-1.11,1.07,2.48,1.58-.22,2.32,4.73,9.24,1.09,1.82,1.54-.77,2.21-1.81,3.64,7.38-.76.39-.76-.52-.65.07-.1,1.23-.76.39-.02-.35-.11-.21h-.22l-2.22,1.12.08.24.19.39.28.29.22.06.55.4.08,1.01-.18.22-3.62.3-1.72.41-.91-1.43-.6.26-1.77-3.7-1.48.52-.86-1.79.68-.25-2.22-3.88-1.66.94-.67-.95-1.48.59-3.09-6.31-2.12-4.58.13-.16.89-1.07,2.07-5.01.04-.37-.04-.96-.25-.19-.26-.12h-.77l-.3-.98-.26-1.07-.5-2.88.2-1.56.25-1.87v-.02s.18-.5.18-.5l.16-.24.02-.02.04-.02.5-.37.89-1.38-.18-1.47-.27-2.15,4.62-1.3"/></svg>