<?xml version="1.0" encoding="UTF-8"?><svg xmlns="http://www.w3.org/2000/svg" viewBox="0 0 989.98 627.07"><path id="25001" d="m952.44,166.28l.27-.04.34.24.49.27.44.12,1.08.06.65-.04,1.11-.33.69.27.57-.68,1.13-.72.86-.58.7-.4.17-.38.28-.17-.2-.67-.31-.82-.14-.46-.53-.76-.28-.05-.16.32.09.93-.43-.98-.51-1.72-.43-.5-.27-.18-.3-.11-.47-.11-.12.03-.22.13-.12.11-.1.17-.06.28.02.12-.95-.37-.06-.07.06-.23.17-.18.29-.16.28-.09.5-.05.8.04.63.14.48.21.56.38.53.53.67.77.53.76.82,1.46.38.76.52,1.54.32,1.1.06.51-.17.65-.04,1.9-.35.16.13-.97-.14-1.23-.04-.13-.08-.15-.43-.2-.2-.05-.12.03-3.36,1.81-.16.73-.47-.45-1.14.25-.1.36-1.11.66-.6,1.52-2.17.87-.57.71-.63-.06.55-1.17-.46-2.21-.37-.39.36-.46-.36-.21.06-1.18,1.15-1.18"/><path id="25003" d="m902.27,156.95l3.98-.86.2.97,1.07-.11-.45.82.77.2.18,2.27.22.42.11,1.43.07,2.05-.94.02v.2l.38,1.14.7.32.36-.02.06-.19.32,1.38.05,2.55-.63.04.19,1.02.08.21.63,1.13-7.22,1.53-.16.04-.39-.78.25-10.14.15-5.65"/><path id="25005" d="m937.5,166.14l4.29-3.79,1.29,2.82.93.19.98,1.6-.47.82-.41.39.46.17.05.56,1.67-.61.71.69,1.79,2.76-.3-.02-.76.11-.31.41-.19.24-.03.06.06.75.08.27.26.31-1.45,1.25-.88.04-.5.62-.72-2.19-.27-.23v-.44s-.29-.71-.29-.71l-1.05-.11.1-.32.25-.31-.23-.03-.73-.22-.14.21-.76-.69-1.12-.26h-.17s-.1-.19-.1-.19l-.2-.16-.09-.3-.15-.23.06-.3-.11-.15v-.4s-.3-.64-.3-.64l-.03-.22-.66.32-.55-2.07"/><path id="25007" d="m956.26,174.28l.22.52.23.96-.02.14-4.21,1.18-.58.57-.24.63-1.06-.32-.25-.48,1.06-.25.65-2.04.18-.3.5-.61.62-.68h.1l.09.2.63-.11.45.85.84.32.48.21.33-.79Zm-4.14-1.16l-.73.9-.66,1.12-.74.24-.41.56-.53.35-.74.32h-.2s.19-.41.19-.41l.7-.19.4-.57,1.4-1.25.14-.46.55-.68.63.06"/><path id="25009" d="m941.4,143.86l.12.48.62,1.48.96,1.85,1,.44.72-.02.58-1.07.23.1.23.6.42-.14.1.55-.41.35-.2,1.15-.23.13-.27-.24-.24.37-1.7.89-.2.36-.71.29.25.42.55.15.11.5-.26.09-.39.36-.13.45h-.44s-.13.25-.13.25l.22.56.48.12.04.1-.57.14-.1-.07-.29-.66-.2.34-.15.49-.81-.32-.67-.85-.06-.88-.6.03-.12-.85.67-.19-.79-.66-1.63.6-1.91-.79.27-.31-.64-1.54.11-.24.95-.05-.4-1.06.36-.72.22-.23,1.35-.07.23-1.28,1.55-1.15h0l.13-.06.11-.06.49-.03.59.3.59-.37"/><path id="25011" d="m915.55,154.1l2.89-.62.46,1.26.71.06.32,1.04-.37.13-.27.41.37,1.37.54.4-.51.78.33.98-.23.98.3,1.18-.44,1.1-.99-2.5-1.8.78-.17-.58-.83.26-2.53,1.22-.35-1.08-.75.47-.19-.32-1.26-.06-.73.03-.34-1.24-1.67.06-.18-2.27-.77-.2.45-.82-1.07.11-.2-.97,1.53-.32,7.77-1.66"/><path id="25013" d="m922.18,163.9l-.42,1.09v.18s.07.29.07.29l1.17.25,1.08-.29.74,2.95-6.18,1.46-3.98.93-.05.9-.83.25-.23-.88-3.18.75-.74.17-.63-1.13-.08-.21-.19-1.02.63-.04-.05-2.55-.32-1.38.6-.9.97-.16.22.14.45,1.49-.35.75.7.35.13-.56,1.01-.24.51.76,1.65-.02-.27-.65.56-.51.22-1.17.27-.21.14.61-.23.58.68.33,3-1.24.36.95.57-.2.34-.84,1.66-.98"/><path id="25015" d="m920.09,162.1l.48-.15.34.92,1.01-.29.27,1.33-1.66.98-.34.84-.57.2-.36-.95-3,1.24-.68-.33.23-.58-.14-.61-.27.21-.22,1.17-.56.51.27.65-1.65.02-.51-.76-1.01.24-.13.56-.7-.35.35-.75-.45-1.49-.22-.14-.97.16-.6.9-.06.19-.36.02-.7-.32-.38-1.14v-.2l.94-.02-.07-2.05-.11-1.43-.22-.42,1.67-.06.34,1.24.73-.03,1.26.06.19.32.75-.47.35,1.08,2.53-1.22.83-.26.17.58,1.8-.78.99,2.5.44-1.1"/><path id="25017" d="m935.12,148.86l.64,1.54-.27.31,1.91.79,1.63-.6.79.66-.67.19.12.85.6-.03.06.88.33.42.33.42-.1.62-.39.87.16.4-.19.36-.45.12-.18-.27-.69.44.16.49.16.1-.24.43.29.15-.28.64-.81-.63-.05-.03-.41-.04-.28.04-.89.6.21.33.39.51.23.48-.46.26.06.99-.83.74-1.11.82-.65-.65-.78.43-.53-.18-.45-.42-.14-.36.26-.68,1.12-.56.04-1.42-1,.32-.66.5-.35-.43-.41-.25.52-1.01-.58-.24.78-.42-.06-1.28-.4-.2.28-1.06-.26-.48-1.54.36.02.61-.75-.09-.27-1.78-2.01-.31.06.31-1.17.38-.33-.89-.79-.65-.07-.16,4.06-.91.25-.06.07-.02,5.55-1.28.42-.99"/><path id="25019" d="m963.11,175.2l.15-.08.27-.31.19-.36.13-.47-.08-.46-.09-.16-.18-.16-.16-.13-.09-.08-.02-.09.3.06.35.31,1.53,1.73.09.32v.24s-.02.05-.02.05l-.12.16-.39.3-.22.1-1.36.31-.37.07-.95-.06-1.62-.32-.22-.1-.15-.13-.09-.19.25-.06.22.05.1.03.84-.03,1.2-.31.52-.23"/><path id="25021" d="m939.74,156.82l.02.38-.41.91-.22-.11-.29-.15.24-.43.27-.48.39-.13Zm2.47,1.17l-.43-.67h0s-.58.08-.58.08l-.07.89-.7.2-.34.99-1.24-.84-.81-.63-.05-.03-.41-.04-.28.04-.89.6.21.33.39.51.22.48-.46.26.06.99-.83.74-1.11.82.49,3.21,1.92-.56.19.78,4.29-3.79,2.17-2.19-.58-2.26-.52-.13-.65.24Zm2.72-.67l-.25.49.43.92.64-.72.07-.57-.9-.13Z"/><path id="25023" d="m943.38,157.89l.19-.75-.45-.25.51-.09.7.56.59-.04-.25.49.43.92.64-.72.07-.57,1.15.8,2.07,2.3-.19,1.44-.51.61,1.87.83.84-.21.98,1.29.29.66.11,1.12-1.15,1.18-.06,1.18-1.29-.02.24.87-.53-.03.11,1.25-.96-.07.49.63-.5.49-1.79-2.76-.71-.69-1.67.61-.05-.56-.46-.17.41-.39.47-.82-.98-1.6-.93-.19-1.29-2.82,2.17-2.19-.58-2.26"/><path id="25025" d="m940.59,154.3l.81.32.06.55.83.9-.84.14-.12.55.44.57-.58.09-.07.89-1.04,1.19-1.24-.84.28-.64.22.11.41-.91-.02-.38-.39.13-.27.48-.16-.1-.16-.49.69-.44.18.27.45-.12.19-.36-.16-.4.39-.87.1-.62"/><path id="25027" d="m924.77,152.11l.07.16.79.65.33.89,1.17-.38-.06-.31,2.01.31.27,1.78.75.09-.02-.61,1.54-.36.26.48-.28,1.06.4.2.06,1.28-.78.42.58.24-.52,1.01.41.25.35.43.66-.5,1-.32-.04,1.42-1.12.56-.26.68.14.36.45.42.53.18.78-.43.65.65.49,3.21-4.9,1.5-.11-.34-4.29,1.02-.71.15-.56.11-.74-2.95-1.08.29-1.17-.25-.08-.29v-.18s.43-1.09.43-1.09l-.27-1.33-1.01.29-.34-.92-.48.15-.3-1.18.23-.98-.33-.98.51-.78-.54-.4-.37-1.37.27-.41.37-.13-.32-1.04-.71-.06-.46-1.26,5.83-1.26.49-.11"/></svg>