<?xml version="1.0" encoding="UTF-8"?><svg xmlns="http://www.w3.org/2000/svg" viewBox="0 0 989.98 627.07"><g><path id="26053" d="m620.09,106.87l.42-.03.23,3.94,1.95-.11.13,1.99,5.97-.42.28,3.94,5.96-.43.39,5.4-1.13-.56-1.09-.37-.68-.14-.87-.18-11.52-2.36-1.62-.34-1.48-.31-3.23-3.97-1.82-.99,1.06-.86.31-.18,2.55-1.02.99-.28.86-.36.26-.15.49-.47,1.16-1.15.42-.6"/><path id="26131" d="m634.77,99.72l.47,6.1,1.08-.08.14,1.95-1.98.13.16,2.6.25,3.36.15,1.98-5.96.43-.28-3.94-5.97.42-.13-1.99-1.95.11-.23-3.94-.42.03.6-.74.26-.21.63-.37,1.1-.35.73-.11.21.03.3.11,3.22-.54.34-.12.66-.35,5.67-3.58.97-.91"/><path id="26115" d="m734.38,203.91l1.97-.44,2.11-.3.14.06,1.9,1.18-1.91,2.44-.91,1.64-.72,1.32-.07.14-.03.1.03,1.78-5.21.88-1.25-8.21,3.94-.59"/><path id="26091" d="m730.44,204.49l1.25,8.21-1.98.35-8.1,1.33-1.07-8.41,3.91-.46,5.99-1"/><path id="26059" d="m720.53,205.96l1.07,8.41-.65.1-6.87,1.05-.5-1.43-.87-7.18,1.98-.18,5.84-.78"/><path id="26023" d="m704.83,207.85l7.89-.94.87,7.18-6.3.74-1.62.17-.84-7.16"/><path id="26149" d="m696.91,208.78l7.91-.93.84,7.16-6.24.72-2.23.24-.28-7.18"/><path id="26027" d="m689.13,209.56l7.79-.77.28,7.18-4.6.47-2.77.3-.69-7.17"/><path id="26021" d="m686.32,205.86l2.43-.25.38,3.95.69,7.17-5.06.52-5.11.49h0s.75-.64.75-.64l.94-.9.59-.65.9-1.23.31-.6.21-.58.31-1.37.88-2.53.34-.71,1.45-2.67"/><path id="26163" d="m740.92,194.59l3.56-.57-.14,1.24-.06.22-.39.93-.55.37-.47.23-.43.11h-.06s-.73.39-.73.39l-.23.25-.23.46-.37,1.25v.08s0,.08,0,.08l.1,1.33-.12,2.1-.3,1.36-1.9-1.18-.14-.06-2.11.3-1.97.44-1.27-7.98,7.81-1.33"/><path id="26161" d="m733.11,195.92l1.27,7.98-3.94.59-5.99,1-1.01-8.08,7.81-1.17,1.87-.32"/><path id="26075" d="m723.27,197.43l.16-.02,1.01,8.08-3.91.46-5.84.78-1.12-8.06,1.98-.23,7.71-1.02"/><path id="26025" d="m707.65,199.39l5.93-.72,1.12,8.06-1.98.18-7.89.94-1-7.98,3.82-.48"/><path id="26077" d="m699.72,200.29l4.11-.42,1,7.98-7.91.93-.9-8.07,3.71-.42"/><path id="26159" d="m687.45,201.64l8.56-.93.9,8.07-7.79.77-.38-3.95-2.43.25,1.13-4.22"/><path id="26005" d="m694.84,192.75l3.97-.43.92,7.97-3.71.42-8.56.93.27-8.12,7.13-.77"/><path id="26015" d="m706.68,191.37l.96,8.02-3.82.48-4.11.42-.92-7.97,3.94-.48,3.94-.47"/><path id="26045" d="m710.64,190.91l3.91-.45,1,7.99-1.98.23-5.93.72-.96-8.02,3.96-.46"/><path id="26065" d="m718.54,189.83l3.43-.44,1.3,8.03-7.71,1.02-1-7.99,3.98-.63"/><path id="26093" d="m729.82,188.25l1.42,7.99-7.81,1.17-.16.02-1.3-8.03,3.92-.6,3.94-.55"/><path id="26125" d="m739.25,184.52l1.67,10.07-7.81,1.33-1.87.32-1.42-7.99-.31-2.02,1.96-.3,1.95-.42,5.84-.98"/><path id="26099" d="m741.18,184.14l4.06-.65.79,4.35.09.54-1.64,5.63-3.56.57-1.67-10.07,1.93-.38"/><path id="26147" d="m740.15,178.21l8.13-1.47.04.15.33.97.13.35,1.36,2.01-.11,6.43-.12,2.26-.07.56-.06.15-.84,1.37-.08.1-.28.08-.96.19-.92-.91-.06-.16.3-.72.31-.28.41.09.21-.29.06-.13.03-.2-.04-.22-.14-.17-.08-.04-.69-.17-.19-.04-.26.05-.4.22h-.03s-.09-.54-.09-.54l-.79-4.35-4.06.65-1.03-5.93"/><path id="26087" d="m732.25,177.67l-.03-.23,1.81-.33-.32-1.95,3.86-.62.15.98,1.96-.29.48,2.98,1.03,5.93-1.93.38-5.84.98-1.17-7.83"/><path id="26049" d="m728.35,178.22l3.89-.54,1.17,7.83-1.95.42-1.96.3.31,2.02-3.94.55-1.13-8.05-.21-2.13,3.82-.41"/><path id="26155" d="m724.75,180.75l1.13,8.05-3.92.6-3.43.44-1.04-7.83-.03-.23,7.27-1.02"/><path id="26037" d="m717.5,182l1.04,7.83-3.98.63-3.91.45-.94-7.99,7.79-.92"/><path id="26067" d="m701.8,183.83l7.91-.91.94,7.99-3.96.46-3.94.47-.95-8"/><path id="26139" d="m693.62,182.73l.5,3.98.36,2.68.36,3.35-7.13.77-1.88-7.95,2.44-.25,3.62-.41-.24-1.99,1.96-.19"/><path id="26121" d="m681.84,177.76l7.01-.6.43,3.99,4.12-.43.21,2.02-1.96.19.24,1.99-3.62.41-2.44.25-.19-.4-.73-1.29-1.61-2.65-.25-.49-.59-1.29-.3-.79-.32-.9"/><path id="26081" d="m693.41,180.72l3.78-.45,4.15-.46.46,4.03.95,8-3.94.48-3.97.43-.36-3.35-.36-2.68-.5-3.98-.21-2.02"/><path id="26117" d="m708.61,174.98l1.09,7.95-7.91.91-.46-4.03-4.15.46-.43-3.99,7.91-.84,3.95-.46"/><path id="26057" d="m712.56,174.51l3.93-.48.99,7.74.03.23-7.79.92-1.09-7.95,3.95-.47"/><path id="26145" d="m727.54,172.33l.82,5.88-3.82.41.21,2.13-7.27,1.02-.99-7.74-.04-.36,3.29-.41-.2-1.99,1.95-.21.28.92,1.58-.12,2.11-.26.36.79,1.73-.04"/><path id="26151" d="m736.51,166.56l8.36-1.51.08.48.3,1.51.09.29.8,1.52,1.06,2.11.56,4.53.11.28.41.98-8.13,1.47-.48-2.98-1.96.29-.15-.98-1.04-7.98"/><path id="26157" d="m730.6,166.11l.2,1.41,5.71-.96,1.04,7.98-3.86.62.32,1.95-1.81.33.03.23-3.89.54-.82-5.88-.36-2.7,3.42-3.53"/><path id="26063" d="m736.51,166.56l-5.71.96-.2-1.41.03-.11.18-.91.46-1.46,1.98-3.46,4.52-2.88.83-.22,2.15.8.86.51.14.13.61.88,1.41,2.04.23.46.46,1.39.18.64.26,1.12-8.36,1.51"/><path id="26017" d="m718.33,161.46l1.99-.26.27,1.96,2.19-.26-.12,3.51,2.5,2.4,2.03.81.36,2.7-1.73.04-.36-.79-2.11.26-1.58.12-.28-.92-1.95.21-.72-5.88-.48-3.92"/><path id="26111" d="m711.62,166.52l3.94-.46-.04-.34,3.29-.34.72,5.88.2,1.99-3.29.41.04.36-3.93.48-.94-7.99"/><path id="26073" d="m711.62,166.52l.94,7.99-3.95.47-3.95.46-.98-7.95,7.94-.96"/><path id="26107" d="m695.88,168.32l7.8-.83.98,7.95-7.91.84-.88-7.96"/><path id="26123" d="m695.88,168.32l.88,7.96.43,3.99-3.78.45-4.12.43-.43-3.99-.83-8,7.85-.84"/><path id="26127" d="m681.55,169.75l6.48-.59.83,8-7.01.6-1.2-2.3-.19-.37-.21-.54-.07-.35-.03-.27v-.33s.11-.46.11-.46l.27-.51.41-.65.29-.53.21-.6.09-.42.04-.62v-.07"/><path id="26011" d="m727.68,156.38l.05.86v.59s-.03,1.04-.03,1.04l-1.39,1.64-1.34.38-.39.05h-.69l-.29.22-.1.11-.32.46-.37,1-.04.19-2.19.26-.27-1.96-1.99.26-.46-3.78,4.61-.59,5.21-.72"/><path id="26051" d="m717.86,157.68l.95,7.7-3.29.34.04.34-3.94.46-.99-7.92,3.93-.48,3.3-.43"/><path id="26035" d="m706.64,159.06l3.98-.46.99,7.92-7.94.96-.9-8.04,3.86-.38"/><path id="26133" d="m702.78,159.44l.9,8.04-7.8.83-.92-8,3.77-.43,4.06-.45"/><path id="26085" d="m694.95,160.31l.92,8-7.85.84-.91-8.07,3.63-.31,4.2-.46"/><path id="26105" d="m681.44,161.42l5.67-.34.91,8.07-6.48.59-.88-3.43-1.12-1.46,1.32-2.01.57-1.42"/><path id="26069" d="m721.41,149.17l9.24-1.28.09.58.11,1.64-.2,1.95-1.34,1.55-.3-.09h-.27l-.34.12-.13.09-.22.3-.18.34-.12.5-.07,1.49-5.21.72-1.06-7.92"/><path id="26129" d="m721.41,149.17l1.06,7.92-4.61.59-3.3.43-1-7.92,7.86-1.02"/><path id="26143" d="m705.71,151.06l7.84-.86,1,7.92-3.93.48-3.98.46-.93-8"/><path id="26113" d="m705.71,151.06l.93,8-3.86.38-4.06.45-.88-7.96,7.88-.88"/><path id="26165" d="m689.95,152.78l7.88-.85.88,7.96-3.77.43-4.2.46-.8-7.99"/><path id="26101" d="m689.95,152.78l.8,7.99-3.63.31-5.67.34.97-3.96.14-1.31.02-.46v-2.25s7.38-.66,7.38-.66"/><path id="26001" d="m720.37,141.24l9.17-1.26.42.62.8,2.59.02.57-.12,4.15-9.24,1.28-1.04-7.94"/><path id="26135" d="m712.55,142.26l7.82-1.02,1.04,7.94-7.86,1.02-1-7.94"/><path id="26039" d="m704.83,143.1l7.72-.84,1,7.94-7.84.86-.88-7.96"/><path id="26079" d="m704.83,143.1l.88,7.96-7.88.88-.76-6.88.05-.8.02-.11.48-.23,7.2-.81"/><path id="26055" d="m695.27,143.97l1.81,1.08.76,6.88-7.88.85-.6-5.99,2.54-.34.57.38.13-1.2.51-.55-.15-.62.45-.38-.62-.32.44-1.08.26-1.33.66.56-.39.82.2,1.59-.53.85-.38,1.68.55.02.14-1.02,1.53-1.9"/><path id="26019" d="m689.35,146.8l.6,5.99-7.37.66.08-.73.02-.41-.14-.62-.14-.32-.45-.86-.12-.35-.02-.53.02-.13.09-.17.25-.19.94-.43,1.05-.35.25-.27.15-.4.04-.27v-.2s4.77-.4,4.77-.4"/><path id="26089" d="m692,136.35l-1.03.67-1.19,3.32-.74.53-.15.96-1.48,1.65-.57-.59-.88.34-.09,1.06-.9.37-.2-.5-.42.16.05.9.18,1.99,4.78-.4,2.54-.34-.42-1.25-.06-.4v-.57s.02-.23.02-.23l.23-.89.06-.05-.3-1.78.29-1.35-.61-1.8,1.34-1.33-.28-.45h-.17Zm-.11,10.11h0s0,0,0,0h0Zm-9.03-4.19v-.69s.84-.29.84-.29l.15.23-.1.6-.49.57-.4-.43Zm2.67-1.44l.13-.43-.35-1.73-.83-.25-.85.55.1.63.65.5.41.58.74.15Z"/><path id="26007" d="m727.41,132.18l1.31,1.44,1.2,2.41-.08.09-.28-.03-.89-.23-.3-.17-.19-.25-.54-.11-.51.36-.11.17-.14.38v.08s.19.94.19.94l.22.85.12.25.11.17.14.13.58.47,1.32.84-9.17,1.26-.48-3.54v-.29s.08-.16.08-.16l-.51-3.91,7.94-1.16"/><path id="26119" d="m719.47,133.34l.51,3.91-.07.16v.29s.47,3.54.47,3.54l-7.82,1.02-.89-7.87,1.94-.24,5.87-.81"/><path id="26137" d="m705.73,135.03l5.92-.64.89,7.87-7.72.84-.84-5.88,1.93-.33-.18-1.87"/><path id="26009" d="m695.19,136.13l.19-.03,2.47-.23.18,1.65.64.28,3.01-.35,2.32-.23.84,5.88-7.2.81-.48.23-.02.11-.05.8-1.81-1.08.13-.32.24-.72.12-.46.11-1.57v-1.64s-.12-1.09-.12-1.09l-.56-2.03"/><path id="26029" d="m699.84,131.94l-1.15.02-.83.31-.2.11-1.46,1.18-.24.25-.31.29-.38.54-.19.85.1.63.19-.03,2.47-.23.18,1.65.64.28,3.01-.35,2.32-.23,1.93-.32-.18-1.87-.22-1.99-3.74.39h-.82l-1.12-1.48h0Zm-7.58-8.08l-.99-.14v.97s-.52.9-.52.9l.13.72-.23.61.17.94,1.1.07.74-.81.1-.61-.37-.99.04-1.14-.41-.29.26-.24Z"/><path id="26141" d="m727.41,132.18l-7.94,1.16-5.87.81-.67-5.32-.62-4.42.76-.11,1.48,1.78,5.5,2.15,3.53,1.09.47.06.9-.1.26-.29.13.02.83.94,1.25,2.23"/><path id="26031" d="m705.52,133.04l-1.35-11.38.32.47,4.38,2.1,1.36-.23.72-.3,1.91.45.2.15-.76.11.62,4.42.67,5.32-1.94.24-5.92.64-.22-1.99"/><path id="26047" d="m705.52,133.04l-3.74.39h-.82l-1.12-1.48.81-.13.99-.33.65-.48.03-.23-.02-.16-.07-.18-.11-.08-.96-.07-.14.11-.83-.17-.53-.46-.34-.37-.46-.98-.14-.4-.15-.67v-.14l.08-.26.48-1.06.19-.26,1.7-1.83-.81-1.14,3.02.03.16-.14-.33-.69,1.13-.22,1.35,11.38"/><path id="26097" d="m696.88,111.93l-1.98.23-9.96,1.12v.02l.65,6.3,2.72-.1.52-.21.13-.17.51-.86.16-.52.88-1.24.27-.3.14-.1.19-.07,1.15-.24.24-.02,1.24.06,3.39.69,1.95.59,4.38,3.17.54-.62-.35-1.59.42-2.53,2.69.77,3.38.73,3.37-.93-2.03-.06-.57-1.78-1.42.2-.45-1.98-11.9,1.41-.24-1.99Zm8.17,7.33l.33.77.46-.18-.43-.71-.36.12Zm1.14,1.66l.8-.08,1.26,1.57,1.62.06.32-1.37-1.35-.06-1.69-.56-.97.45Z"/><path id="26033" d="m697.93,99.54l-1.19.55-2.16.18-1,.3,1.32,11.62,1.98-.23.24,1.99,11.9-1.41.45,1.98,1.42-.2.57,1.78,2.03.06.16.1.26.11,1.18.04,2.18.06.14-.51-.2-.63-.37-.06-.58-.68-.94.1-.68-.43-.7-.67.12-.6.44-.53-2.51-.82-1.02.22-.35-.92.79-.72.4-.1-.4-.71-.38-.33-.19-1.25-.5-.53-.31-1.33-.49-.5-.64-.77-.83-.16-.93.32-.36.32-.08,1.18-.62.06-1.33.47-.09-.45-.74-.79-.95-.09-1.31.94-.84.43-.6-.62-.84.02-.58-.24-1.02.37-.17-.06-.15-.1-.3-.34-.11-.23-.05-.27v-3.65s0-.29,0-.29l.07-.35.16-.38.65-1.23Zm13.37,9.4l.47.41.43.93.15.45.1-.44.5-.3-.19-.8-.64-.76-.17-.16h-.23s-.38.22-.38.22l-.05.46Zm.65-.84h.83s-.81-.88-.81-.88l-.73-1.22.2-.87.23-.12.17-.71.04-.42-.22-.27-.17-.02-.88-.07-.35.71-.72.33.04.56.5.21.5,1.34.86.5.49.94Zm8.79,4.18l-1.05.18-.18.3.97.33.13.64-.67.25-.75.25-.34.77-.47.25-.24-.65-.31-.1-.27.7.11.44.85.14.26.3.23.3.71.12h2.72l.55-.22.13-.13.09-.14.43-1.33-.02-.09-.13-.16-1.88-1.91-.74-.2-.15-.02Z"/><path id="26095" d="m684.3,107.35l-.42-4.22,1.1.09h.71l2.59-.22.71-.07.52-.1.43-.15,1.68-.96,1.98-1.19,1.32,11.62-9.96,1.12-.63-5.94"/><path id="26153" d="m684.3,107.35l.63,5.94.65,6.3-.85.56-2.42-.14h-.37l-1.62.25-.37.14-.88.48-.54.68-.11.21v1.25s-.19,1.26-.19,1.26l-.18.2-.91.06-.24.74-.25.11-.06-.02-.3-3.16-.53-1.96-.57-3.97-2,.18-.39-3.98,3.98-.36-.39-3.98,7.91-.8"/><path id="26003" d="m683.88,103.12l-.95.22-4.09,1.13-2.99,2.4-2.11.95-.32.6-.52.21-.37,1-.34.15-.17.85-.53-.05-.03-.48-.91.08-.38-.51-.83-.19-.49,1.05-.41-.03-.15-.09-1.09-.88-.35-.71-.22-.21-.51-.09h-.14l-.91.51-.58.52.72,7.68,7.97-.77-.39-3.98,3.98-.36-.39-3.98,7.91-.8h0s-.42-4.22-.42-4.22Zm-11.61,6.13l-.06-.36-.26.07-.08.26-.29-.13.13-.92-.69-.79-.75.36.41.98.32.44-.16.55.18.2.3-.05.16-.5.2.15v.2s.22.04.22.04l.37-.5Z"/><path id="26041" d="m665.23,117.24l7.97-.77,2-.18.57,3.97.53,1.96.3,3.16-.87.22-.19.9-.71.09v1.13s-.69.17-.69.17l.45,1.26-1.12-.3-.64-.67-.14-.68.52-.29v-.48s.73-1.53.73-1.53l1.04-.15-.4-.29.69-1.44-.46-1.11-.86.68-.53,1.05-1.11-.15-.48-.49-.62.25.09,1.51-.79,1.74-1.91,1.43-.25-1.93-.18-.88-.15-.41-.31-.46.69-1.15-.31-.81-.45.79-.04.79-.61.68-.36.83.62,1.02-.91,1.45-1.01.54-.77,1.77-.39.88v.03s-1.03.1-1.03.1l-.7-7.96-.5-.63-.35-1.29,1.99-.18-.35-3.98,2-.19"/><path id="26109" d="m657.6,121.92l3.98-.34.35,1.29.5.63.7,7.96,1.02-.1-.3,1.16-.51,1.65-1.47,3.34-1.04,1.69-1,3.07-.73-.11-.42-.07h-.02l-1.27-1.34-.07-.12-.14-.47h0s0-.01,0-.01h0s1.04-3.45,1.04-3.45l-.93-.82-.81.85h-2.29s1.58-3.42,1.58-3.42l-.16-4.15-.48-.59-.04-.04-.03-.02-.3-.25,2.1-.19-.34-4.02,1.27-.11-.17-2"/><path id="26043" d="m649.1,116.65l7.98-.69.52,5.96.17,2-1.27.11.34,4.02-2.1.19-3.8-1.02-.22.03h-.02l-.22-.06-.14-.03-.61-.5h-.02l-.1-.2.02-.08v-.02s.29-.36.29-.36l.11-.09.26-.36.22-.39-.02-.08-.05-.07-.47-.68-.25-.16-.63-7.52"/><path id="26103" d="m648.99,101.35l2.27-.13,1.42.37.5.14,2.48,1.34.66.61.14.67.17.51,3.49,4.43.14.15.26.21.25.12.66.14h.84l2.07-.32.18-.05.72,7.68-2,.19.35,3.98-1.99.18-3.98.34-.52-5.96-7.98.69-.32-3.96-.47-5.91,1.96-.18-.16-1.94-.04-.02-.8.06-.27-3.35"/><path id="26071" d="m639.84,113.4l8.94-.71.32,3.96.63,7.52-.38-.25-.61-.3-.4-.06h-.04l-4.68-.59-2.81.3-.33-.59-4.08-1.04-.97-.47-.39-5.4-.15-1.98,4.95-.38"/><path id="26083" d="m636.78,74.75l.11-.22.03-.06.24-.29.64-.41,1-.54,1.9-.51-.62.79-1.5,1.19-.11.4.18.49-.31.34-1.28,1.14-1.2.65-1.2.21-2.49,1.79v.37s1.13-.04,1.13-.04l-2.83,1.74-.51.14-.52-.14-.72-.41-.36-.53.11-.29.46-.61.52-.52,1.25-.84,1.51-.9,3.42-2.15,1.18-.79m4.15,18.68l.74-1.3.58-.76.43-.34,2.57-1.68.54-.25,2.19-.6.95-.16.78-.05,2.01-.05.72.23.43.23.25.19.15.76v.11s-1.6.51-1.6.51l-.19-.02-2.14.45-2.36,3.29-.44.57-.99.46-1.11.1-.17-1.97-3.35.27"/><path id="26061" d="m642.78,100.22l-.22.85-1.62.33.06,1.91-1.9.23.75,9.86-4.95.38-.25-3.36-.16-2.6,1.98-.13-.14-1.95-1.08.08-.47-6.1.37-1.27.21-.35,1.09-1.02,1.64-1.55.29-.27.04.82.69,1.14,1.51.26.55,1.38,1.62,1.36Zm-4.17-5.14l2.33-1.65,3.35-.27.17,1.97,1.11-.1-2.66,5.01-1.57-1.31-.57-1.47-1.54-.24-.58-1.03-.04-.91Z"/><path id="26013" d="m648.99,101.35l.27,3.35.8-.06.04.02.16,1.94-1.96.18.47,5.91-8.94.71-.75-9.86,1.9-.23-.06-1.91,1.62-.33-.32,1.43-.03,1.25.03.13.18.44.21.43.38-.03.06-.16.27-.44.77-1.08,1.7-1.82,1.34-.92.18-.06.18.09,1.49,1.02"/></g></svg>