<?xml version="1.0" encoding="UTF-8"?><svg xmlns="http://www.w3.org/2000/svg" viewBox="0 0 989.98 627.07"><g><path id="27055" d="m601.34,175.14l.4,2.78,1.1,5.15-6.54.31-1.98.09-.36-7.98,7.38-.35"/><path id="27045" d="m588.18,175.73l5.77-.24.36,7.98-5.82.25-6.13.25-.29-7.69,6.11-.55"/><path id="27071" d="m547.57,73.19l-.15-7.73.22-.09.42-.03,1.24.02.27.05.47.26.14.29v.15s.03.46.03.46l.09.06.32.08,1.51.09,1.13-.02,3.27.28.1.08.19.35.26.72.03.21-.08.6-.1.18v.11l.06.08.32.23h.59l1.45-.05,1.81-.35,1.18-.41.1-.11.06-.26v-.13s-.08-.15-.08-.15l-.08-.3.03-.11,1.78-.83,1.41-.41.73-.02.43.39.55-.02h.03l.83-.09.09,4.85.04,3.92.13,3.98.16,1.04.17,2.09.03.88-10.83.13.03,1.2-10.02.22-.35-11.89"/><path id="27077" d="m533.63,58.99l2.6-.02-.03-3.52-.02-1.48-.02-2.37v-.65s0-.03,0-.03l2.99.29.95.44,1.09.92,1.25,4.19v2.6s.83.71.83.71l.39,1.79-.28,2.05.71.65.25.22,1.02.57.44.24.03.02.22.02.78.08.59-.26.15,7.73-12.1.18-.05-3.96h-2.02l-.02-3.93,3.89-.03-.07-4.72-.38.39-.34.2-.15.06-1.2.25h-.18l-.26-.06-.71-.44-.34-.65-.06-1.11.04-.39"/><path id="27135" d="m533.63,58.99l-.04.39.06,1.11.34.65.71.44.26.06h.18l1.2-.25.15-.06.34-.2.38-.39.07,4.72-3.89.03.02,3.93-4.01.06-12.12-.13v-1.74s-.25-2.2-.25-2.2l.03-6.42h16.58"/><path id="27069" d="m504.43,58.86l12.62.13-.03,6.42.24,2.2v1.74s-11.96-.09-11.96-.09l1.13-3.13-.68-1.54-.3-.88-1.11-3.62-.09-.48.02-.34.07-.34.07-.07"/><path id="27125" d="m527.79,83.22v1.99s-1.97,0-1.97,0v2.01h-8.05l-.03-2.01h-2s0-2.63,0-2.63h12.04v.65"/><path id="27113" d="m529.56,77.8l.19,3.48.02,1.97-1.98-.03v-.65h-12.04l-.26-4.81h3.8l1.16.05,2.81.03,6.31-.05"/><path id="27089" d="m505.31,69.26l11.97.09,12.12.13v2.96l.03.98h.14v4.38s-6.3.05-6.3.05l-2.81-.03-1.16-.05h-3.8l-10.04-.06v-.47s.52-1.95.52-1.95l-.1-5.48-.36-.44-.12-.06-.07-.04"/><path id="27119" d="m515.48,77.77l.26,4.81v2.64h2s.03,2,.03,2h8.04v-2.01s1.99,0,1.99,0v-1.99s1.97.03,1.97.03l.08,5.58.16.37h.24v3.95l-8.04.04-12.34-.06-.54-3.96-2.02-4.62-1.5-5.39-.36-1.4v-.06l10.04.06"/><path id="27107" d="m522.2,93.19v7.95h-2.01l-9.96-.04-.08-1.99-.28-5.98,12.34.06"/><path id="27087" d="m530.25,93.15l.09,7.97-8.13.02v-7.95l8.04-.04"/><path id="27029" d="m529.77,83.25l-.02-1.97,5.5-.03.58,3.36.18,4.55.07,5.95.27,5.95-6.02.06-.09-7.97v-3.95h-.24l-.16-.37-.08-5.58"/><path id="27007" d="m533.4,69.42h2.02l.05,3.96,12.1-.18.35,11.89.06,3.7.12,2.88v2.58s-.02.82-.02.82l-3.95.03-8.06.03-.07-5.95-.18-4.55-.58-3.36-5.5.03-.19-3.48v-4.38h-.14l-.03-.98v-2.96l4.01-.06"/><path id="27031" d="m600.3,75.38l.82-.68,1.38-.68h.6l.06.02.07.09.62,1.37.26.76v.02l.5,1.01.16.15,2.8-.52,6.09-.48.63-.03.7.13.28.06.8.32.43.6.08.19-.03.31.07.16.4.29,1.14.54.38.02.39-.18,2.96-.55,2.58-.33-.02.22-.06.06-.88.69-.26.19-3.32,1.95-2.12,1.16-1.21.66-1.13.49-1.39.46-1.07.38-2.95,1.24-1.45.62-3.01,1.97-1.98,1.65-2.31,2.22-.46-9.35-.28-4.31-.27-2.89"/><path id="27075" d="m600.3,75.38l.27,2.89.28,4.31.46,9.35-.35.21-1.22,1.37-.42.5-1.94,2.68-2.52,3.02-.3.33-.63.43-.84.46-1.98,2.03-.49.54-.86,1.03-.5-13.26-.38-4.84-.1-1.94-.36-8.72.87-.14.42.1.02.03.06.1.22,1.11-.11.5-.06.14v.06s1.12.33,1.12.33l2.4.56,2.48-.18.59-.1.36-.13.24-.13h.01l3.25-2.62"/><path id="27061" d="m568.75,83.53v1.59s.11,2.32.11,2.32l.27,2.64.22,5.31.1,2.77.26,3.21.06,1.89-11.36.22-.13-6.28-.15-.08-1.15-.22-.3-.02v.09s-.39.34-.39.34l-.18.1-.42-.26-1.35-.92-.18-.19-.13-.35v-.57l.03-.06-.04-.41-.61-1.07-.24-.22-.36-.06-2.8,1.33-.39.22-.97-.28-.51-.37v-2.58s-.13-2.88-.13-2.88l-.06-3.7,10.02-.22-.03-1.2,10.83-.13"/><path id="27057" d="m536.08,95.11l8.06-.03.13,2.03.19,7.88.03,3.97-2.01.02-5.95.04-.03-3.97-.11-.27-.03-1.65v-2.07l-.27-5.95"/><path id="27021" d="m544.14,95.08l3.95-.03.02-.82.51.37.97.28.39-.22,2.8-1.33.36.06.24.22.61,1.07.04.41-.03.06v.57l.13.35.18.19,1.35.92.42.26.18-.1.39-.34v-.09s.31.02.31.02l1.15.22.15.08.23,11.48-8.97.12v2.64s.02,1.35.02,1.35l.26,1.1.15,5.78.02.95-.08.24-.14.04-.04-.23-.11-.17-1.23-.83-.54.04-.11.19-.31.2-.76.27-.16-.04-1.29-.57-.45-.41-1.25-.45-.77-.57-.17-5.41-.06-3.98,2.01-.02-.03-3.97-.19-7.88-.13-2.03"/><path id="27159" d="m542.49,108.97l.06,3.98.17,5.41.77.57-6.77.07-.2-7.99v-2l5.95-.04"/><path id="27005" d="m536.35,101.06v2.07l.03,1.65.11.27.03,3.97v2l-7.48.1-8.56-.05-.3-9.92h2.01l8.13-.02,6.02-.06"/><path id="27027" d="m520.2,101.15l.3,9.92.02,2.01h-1.72s-7.98-.05-7.98-.05v-1.29s.3-5,.3-5l-.19-.53-.67-2.19-.02-2.91,9.96.04"/><path id="27167" d="m510.82,113.02l7.98.04v7.99s.24,0,.24,0l-.02,3.99-.02,1.99-5-.03.3-.84.04-.14.03-.46-.05-.4-.61-4.82-2.21-5.32-.68-1.98"/><path id="27111" d="m520.49,111.06l8.56.05,7.48-.1.2,7.99.21,6.02-10,.03-7.93-.02.02-3.99h-.24v-7.99s1.72.01,1.72.01l-.02-2.01"/><path id="27137" d="m568.12,66.78h1.66l10.9,6.03.4-.28,3.2-.23.41.75.7,1.46.07.11.13.18,2.82.96.36,8.72.1,1.94.38,4.84.5,13.26-.72.36-.64.47-2.69,2.31-.41.38-.12.15.11.32.4.63.64.76.18.1-.08.06-.22-.1-.91-.89-.43.03-1.12.76-.09.18-.02.17.06.14v.02l.08.09.02.02.02.26-.22.56-.07.07-.08.05-.48.03-.44-.04-.36-.25-.24-2.3-3.68.1-8.37.27-.09-5.95-.06-1.89-.26-3.21-.1-2.77-.22-5.31-.27-2.64-.1-2.32v-1.59s-.04-.88-.04-.88l-.17-2.09-.16-1.04-.13-3.98-.04-3.92-.09-4.85"/><path id="27017" d="m569.85,109.23l8.37-.27,3.68-.1.24,2.3.21,5.63-12.14.39-.12-3.45-.13-.54-.05-.85-.05-1.13v-1.98"/><path id="27115" d="m570.2,117.19l12.14-.39.22,5.96.04,1,.03.9-2.34,1.46-3.34,2.19h0l-.8.7-.2.26-.2.36-1.61,3.23-4.84.14-.19-5.74,1.41-.06-.1-4.06-.2-5.98"/><path id="27065" d="m564.36,123.44l6.04-.27.1,4.06-1.41.06.19,5.74-5.99.09-.15-3.23-.06-2.45.71-.03v-.62s.64-.04.64-.04l-.07-3.29"/><path id="27001" d="m569.75,103.28l.09,5.95v1.98s.06,1.13.06,1.13l.05.85.13.54.12,3.45.2,5.98-6.04.27.02-.6-.05-1.51-1.66.03-4.19.19-.18-.12-.05-.05v-.06s-.19-7.59-.19-7.59l.49-1.68-.05-3.34-.11-5.21,11.36-.22"/><path id="27035" d="m549.75,120.92l.14-.04.08-.24-.02-.95-.15-5.78-.26-1.1-.03-1.35v-2.64s8.98-.12,8.98-.12l.05,3.34-.49,1.68.18,7.59v.06s.06.05.06.05l.18.12-.18,1.99-9.02.17-.03-.76.02-1.21.48-.8"/><path id="27097" d="m544.75,119.38l.45.41,1.29.57.16.04.76-.27.31-.2.11-.19.54-.04,1.23.83.11.17.04.23-.48.8-.02,1.21.03.76,9.02-.17.09,3.98h.08l.62,1.34.13,2.33-3.96.05-5.51.15,1.32,1.05-5.99.12-.34-13.18"/><path id="27153" d="m543.5,118.93l1.25.45.34,13.18-7.98.11-.17-7.65-.21-6.02,6.77-.07"/><path id="27041" d="m536.94,125.02l.17,7.65v.33l-9.97.03v-3.99h-.18l-.02-3.99,10-.03"/><path id="27051" d="m519.01,125.04l7.93.02.02,3.99h.18v3.99s-7.96,0-7.96,0l-.18-6.01.02-1.99"/><path id="27155" d="m514,127l5,.03.18,6.01v4l-9.4-.07-.29-.37-.06-.09.22-.77.06-.13.02-.02.03-.04.02-.03,1.47-1.18.56-.36.62-.34.33-.33,1.12-1.67.03-.06.02-.03.02-.05.02-.11.04-.21.06-.5.07-.61v-.03s0-.05,0-.05l.09-1-.22-1.99"/><path id="27011" d="m509.77,136.97l9.4.07h.19l-.02,3.97,2.02.03.21,5.41-1.13-.39-1.65-.66-.15-.33-.69-.31-2.04-.43-.27-1.33-.31-.71-.53-.43-1.55-.76-1.25-.16-1.11-2.46-1.12-1.5"/><path id="27151" d="m527.34,141.02l7.97-.05.18,5.99-12.84.05-1.09-.56-.21-5.41,5.98-.02"/><path id="27149" d="m527.14,133.03l.02,4.01h.17v3.98s-5.96.02-5.96.02l-2.02-.03.02-3.97h-.19v-4h7.97"/><path id="27121" d="m537.11,133l.03,3.99h.14l.03,3.97h-1.99l-7.97.05v-3.98h-.18l-.02-4.01,9.97-.03"/><path id="27145" d="m545.09,132.56l5.99-.12,2.07,4.93,1.72,3.11-.68,1.85-1.43,1.23-.52-.3-.77.48-2.14.06.02-.98-2.34.02-3.7.06-.03-1.99-5.96.08-.03-3.97h-.14l-.03-3.99v-.33l7.98-.11"/><path id="27009" d="m551.07,132.44l-1.32-1.05,5.51-.15,3.96-.05.21,6.03-6.29.15-2.07-4.93"/><path id="27095" d="m558.48,121.54l4.19-.19,1.66-.03.05,1.51-.02.6.07,3.29-.63.04v.62s-.72.03-.72.03l.06,2.45.15,3.23.15,4.03-4.02.08-.21-6.03-.13-2.33-.62-1.34h-.08l-.09-3.98.18-1.99"/><path id="27059" d="m569.29,133.02l.11,3.97,1.95.29.14,3.01-2.32.02-4.64.14h-.97l-.11-3.31-.15-4.03,5.99-.09"/><path id="27025" d="m574.13,132.88l-.65,2-.02.36v.15s.05.61.05.61l.06.45.22.17.77.13.32-.05,1.27.68.79,1.5.32,1.62-.61,1.56-.43.53-.02.02-.19.18-4.42.13-.09-2.64-.14-3.01-1.95-.29-.11-3.97,4.84-.14"/><path id="27123" d="m568.38,149.04l-.05-2.21,3.35.07.19,5.36-2.58.14-.9-3.36"/><path id="27003" d="m563.55,140.44h.97l4.64-.14,2.32-.02.09,2.64.1,3.98-3.35-.07.05,2.21-.77-.02-.24-2.72-3.76-1.97-.06-3.89"/><path id="27141" d="m563.45,137.13l.11,3.31.06,3.89-.15-.02-1-1.02-1.43-.04-1.37.05-.23-.06-1.63-.93-2.95-1.84-1.72-3.11,6.29-.15,4.02-.08"/><path id="27171" d="m551.46,143.72l.77-.48.52.3,1.43-1.23.68-1.85,2.95,1.84,1.63.93.23.06,1.37-.05,1.43.04,1,1.02-1.94.99-.22.18-1.45,2.77-.21,2.33-4,.07-3.97.06-.21-7"/><path id="27093" d="m543.3,142.88l3.7-.06,2.34-.02-.02.98,2.14-.06.21,7-4.06.07.07,2.01-4.17.06-.22-9.99"/><path id="27067" d="m535.32,140.97h1.99l5.96-.08.03,1.99.22,9.99-7.99.1-.02-6-.18-5.99"/><path id="27023" d="m522.66,147.01l12.84-.05.02,6-3.83.04.03,3.17-4.16-4.2-4.88-4.97"/><path id="27163" d="m571.58,142.92l4.42-.13-.25,2-.34,3.03.05.76.4.85.35,1.62-.12,1.74-.57,2.72-3.67-.18.02-3.06-.19-5.36-.1-3.98"/><path id="27037" d="m569.28,152.4l2.58-.14-.02,3.06,3.67.18,1.17.67.06,1.95-.91.04v1.97s-2.07.07-2.07.07v.65s-1.94.08-1.94.08l.02.99-4.01-.05-.02-1.49v-2s-.66.02-.66.02l-.22-1.99-.07-1.69,1.76-.66.65-1.65"/><path id="27053" d="m563.62,144.33l3.76,1.97.24,2.72.77.02.9,3.36-.65,1.65-1.76.66-3.13-.23-.05-2-4.03.1-.03-2,.21-2.33,1.45-2.77.22-.18,1.94-.99.15.02"/><path id="27139" d="m563.75,154.49l3.13.23.07,1.69.22,1.99.65-.02v2s-3.97.11-3.97.11l-6.33.16,2.28-2.29.07.03.43-.18,1.37-1.08.4-.54-.11-.21.02-.34.83-1.31.6-.25h.34"/><path id="27019" d="m555.64,150.66l4-.07.03,2,4.03-.1.05,2h-.34l-.6.25-.83,1.31-.02.34.11.21-.4.54-1.37,1.08-.43.18-.07-.03-4-1.69-.15-6.01"/><path id="27085" d="m551.67,150.72l3.97-.06.15,6.01-1.99.04-1.99.25.02,1.8-3.38.07h-.6l-.03-2.01-.14-4.02-.07-2.01,4.06-.07"/><path id="27143" d="m555.79,156.67l4,1.69-2.28,2.29-.27,2-11.4.22-.11-1.99-.06-4.02,2.15-.04.03,2.01h.6l3.38-.07-.02-1.8,1.99-.25,1.99-.04"/><path id="27129" d="m547.69,152.8l.14,4.02-2.15.04.06,4.02.11,1.99-2.57.02-1.4-.94-8.14-4.53-2.02-1.25-.03-3.17,3.83-.04,7.99-.1,4.17-.06"/><path id="27073" d="m521.58,146.44l1.09.56,4.88,4.97v1.03h-1.81s0,1.98,0,1.98l-9.84-.02.03-10.66,2.04.43.69.31.15.33,1.65.66,1.13.39"/><path id="27173" d="m515.89,154.97l9.84.02v-1.98s1.81,0,1.81,0v-1.03l4.16,4.2,2.02,1.25.02,3.61h-3.84l-.15-2.02h-8.01l-5.87-.03.03-4.02"/><path id="27081" d="m521.74,159.02l.22,9.99-6.16-.02.05-7.99v-2.02s5.89.03,5.89.03"/><path id="27083" d="m529.96,169.02h-7.99l-.22-9.99h8.01l.15,2.02.06,7.99"/><path id="27127" d="m541.87,161.95l.06,4.97-3.97.06v2s-5.84.02-5.84.02l-2.16.02-.06-7.99h3.84l-.02-3.61,8.14,4.53"/><path id="27015" d="m543.27,162.89l.53.16.7.35,3.48,1.76.19.14.39.38,1.5,1.54.11,3.59-8.09.13-4.14-.02v-1.94s.01-2,.01-2l3.97-.06-.06-4.97,1.4.94"/><path id="27103" d="m557.25,162.65l-.5,2.01-.79,2.35.04.68.19,1.46-.03.16-.69.34-.14.02-.48-.15-.49-.28-.2-.16-3.41-1.62-.67-.23-1.5-1.54-.39-.38-.19-.14-3.48-1.76-.7-.35-.53-.16,2.57-.02,11.4-.22"/><path id="27079" d="m557.51,160.65l6.33-.16.19,8.01-4,.1-.04-.98-4,.07-.04-.68.79-2.35.5-2.01.27-2"/><path id="27131" d="m563.85,160.49l3.98-.11.02,1.49,4.01.05.17,6.34h-.09l-5.94.18-1.95.07-.19-8.01"/><path id="27049" d="m576.69,156.17l1.69,1.44.18.22.04.23,1.19,1.18.26.12.7.08,2.21.09.28.06.19.09.16.14.06.09.09,1.1,1.21.85-3.1.1.04,1.99-1.94.08.14,4.01-2.1.05-5.96.18-.17-6.34-.02-.99,1.94-.08v-.65s2.08-.07,2.08-.07v-1.97s.91-.04.91-.04l-.06-1.95"/><path id="27157" d="m584.94,161.86l2.46,1,1.85.87.93.85.02.51-.1.36.39.34.35,1.26.26.53-3.26.16.08,2.01-3.95.15-.09-2.01-3.81.14-.14-4.01,1.94-.08-.04-1.99,3.1-.1"/><path id="27169" d="m591.11,167.58l5.24,3.76,2.59.75,2.4,3.05-7.38.35-5.77.24-.25-5.99-.08-2.01,3.26-.16"/><path id="27109" d="m577.98,168.08l2.1-.05,3.81-.14.09,2.01,3.95-.15.25,5.99-6.11.55-4-.19-.09-8"/><path id="27039" d="m572.02,168.26l5.96-.18.09,8-5.89.2-.26-8.03h.09"/><path id="27147" d="m571.93,168.26l.26,8.03h-.06l-5.92.18-.22-8.03,5.94-.18"/><path id="27161" d="m564.04,168.5l1.95-.07.22,8.03-4,.1-1.98.05-.19-8.02,4-.1"/><path id="27013" d="m560.04,168.6l.19,8.02-7.94.18-2.02.03-.1-6.01-.11-3.59.67.23,3.41,1.62.2.16.49.28.48.15.14-.02.69-.34.03-.16-.19-1.46,4-.07.04.98"/><path id="27165" d="m542.08,170.94l8.09-.13.1,6.01-8.04.11h-.08l-.08-5.99"/><path id="27033" d="m532.12,169l5.83-.02v1.94s4.13.02,4.13.02l.08,5.99-9.83.1h-.17l-.04-8.03"/><path id="27101" d="m529.96,169.02l2.16-.02.04,8.03h-9.96l.02-8.01h7.74"/><path id="27117" d="m515.8,168.99l6.16.02h.25l-.02,8.01-6.45-.03.05-8"/><path id="27133" d="m515.75,176.99l6.45.03h.2l-.02,8.05-6.66-.02.03-8.06"/><path id="27105" d="m522.4,177.03h9.93l.02,8.01-6.77.04h-3.19l.02-8.05"/><path id="27063" d="m542.16,176.94h.08l.1,8.02-1.01.02-7.87.07h-1.11l-.02-8.01,9.83-.1"/><path id="27091" d="m552.29,176.79l.15,8.01-3.26.05-6.85.1-.1-8.02,8.04-.11,2.02-.03"/><path id="27043" d="m562.2,176.57l.19,8.04-5.36.12-4.6.07-.15-8.01,7.94-.18,1.98-.05"/><path id="27047" d="m572.12,176.29l.25,8.04-7.46.21-2.52.06-.19-8.04,4-.1,5.92-.18"/><path id="27099" d="m578.07,176.09l4,.19.29,7.69-1.74.06-7.84.28-.41.02-.25-8.04h.06l5.89-.2"/></g></svg>