<?xml version="1.0" encoding="UTF-8"?><svg xmlns="http://www.w3.org/2000/svg" viewBox="0 0 989.98 627.07"><g><path id="28047" d="m663.79,476.35l1.24,6.18-1.5.38-3.15.82-3.87,1.11-1.24-.85-.46-6.3,2-.14.09-.69,6.88-.51"/><path id="28059" d="m663.68,475.02l9.3-.72,1.02,8.36-.02.34-1.42.91-.16.06-4.97-.18-.37-.08-1.34-.76-.71-.42-1.24-6.18-.11-1.33"/><path id="28043" d="m638.5,403.69l2.97-.17.05.68,4.97-.33.3,4.37-5.32.38-6.49.41-.22-1.02-.12-2.03,2.05-.15,1.92-.44-.05-.67-.06-1.05"/><path id="28161" d="m645.97,397.09l.51,6.79-4.97.33-.05-.68-2.97.17-.49-6.13,3.96-.31-.04-.6,3.97-.22.07.65"/><path id="28025" d="m661.5,404.09l.24,3,4.16-.31.11.14-.32.57.74.75-.06,1.88-3.41.92-.11-1.36-5.94.47-.65.09-.6-4.06.23-.66,2.29-.15-.09-1.18,3.4-.11"/><path id="28155" d="m652.68,406.43l2.99-.23.6,4.06-1.27.76-3.32.52-2.13,1.56-2.39.18-.43-6.04,5.96-.8"/><path id="28017" d="m659.06,398.17l1.99-.15.44,6.07-3.4.11.09,1.18-2.29.15-.23.66-2.99.23-.09-1.69.99-.08-.46-6.03,5.94-.46"/><path id="28013" d="m645.97,397.09l4.99-.33.14,1.99,2.02-.13.46,6.03-.99.08.09,1.69-5.96.8-.23-3.35-.51-6.79"/><path id="28115" d="m658.55,391.48l.51,6.69-5.94.46-2.02.13-.14-1.99-.37-5.04,7.96-.24"/><path id="28081" d="m659.96,388.03l3.67-.21.05.93.66,8.67-3.33.24.04.36-1.99.15-.51-6.69,1.4-3.45"/><path id="28145" d="m653.2,386.47l6.62-.46.14,2.03-1.4,3.45-7.96.24-.19-2.67-.13-2.02,2.92-.56"/><path id="28071" d="m641.39,388.3l.99-.06,1.95-.16,1.66-.08.49.6,1.96-.04,1.98.48.19,2.67.37,5.04-4.99.33-.07-.65-3.97.22-.56-8.35"/><path id="28137" d="m632.14,384.95l1.83-.3,3.51-1.15,3.53-.23.15,2,1.01.16.2,2.8-.99.06-8.97.57-.95-1.96.67-1.96"/><path id="28107" d="m632.42,388.88l8.97-.57.56,8.35.04.6-3.96.31-3.85.34-.14-2.44-1.2-1.31-.35-4.27-.06-1"/><path id="28119" d="m632.47,389.88l.35,4.27,1.2,1.31.14,2.44.12,2.01-1.02.06-4.94.3-.25-4.37.98-.04-.24-3.75,1.84-.13-.17-1.96,1.98-.14"/><path id="28135" d="m634.16,397.9l3.85-.34.49,6.13.06,1.05.05.67-1.92.44-2.05.15.12,2.03-.72.1v-.4s-.59-.14-.59-.14l-.75.94-1.2.19-.06-1.13.27-.41,2.31-.25v-.4s-.03-.48-.03-.48l-5.33.26-.22-4.02-.12-2.01,4.94-.3,1.02-.06-.12-2.01"/><path id="28083" d="m628.66,406.3l5.33-.26.02.48v.4s-2.3.25-2.3.25l-.27.41.06,1.13,1.2-.19.75-.94.58.14v.4s.73-.1.73-.1l.22,1.02.5.31.05.24.28,4.44-.63,1.02-.7.03.12,1.93-2.05-.68-.91,1.56-.35-.54-.37.5v1.35s-.97,0-.97,0l-.59-.69-.08-1.1-.63-11.11"/><path id="28133" d="m628.44,402.28l.22,4.02.63,11.11-1.96.12.09,1.35-3.08.18-.97.05-.26-5.98-.11-2,1.99-.11-.45-8.57,3.9-.19"/><path id="28053" d="m629.29,417.42l.08,1.1.59.69h.98s0-1.36,0-1.36l.37-.5.35.54.26,3.86-.62,1.14-.11.08-.22-.04-.51-.32-.24-.32-.08.02-.05.08-.07.38.09.76.04.12.93.77.36.23-1.63.13.11,1.98-3.97.25-1.09-3.95-.5-4,3.08-.18-.09-1.35,1.96-.12"/><path id="28051" d="m631.64,417.89l.91-1.56,2.05.68,8.29,2.23-3.65,7.98-7.82-2.55-.36-.23-.93-.77-.04-.12-.09-.76.07-.38.05-.08.08-.02.24.32.51.32.22.04.11-.08.62-1.14-.26-3.86"/><path id="28015" d="m634.98,409.04l6.49-.41.43,6,1.35.24,1.32-.1.2,2.7-1.33.1-.55,1.67-8.29-2.23-.12-1.93.7-.03.63-1.02-.28-4.44-.05-.24-.5-.31"/><path id="28097" d="m646.79,408.25l.36,5.02,2.39-.18-.3.31-.3.28-.55-.21.05,3.74-3.66.26-.2-2.7-1.32.1-1.35-.24-.43-6,5.32-.38"/><path id="28019" d="m654.99,411.02l.41,5.7-.4.03.14,2.05-1.99.13.14,2.03-1.99.15-.23-4.01-2.66.12-.05-3.74.55.21.3-.28.3-.31,2.13-1.56,3.32-.52"/><path id="28105" d="m656.26,410.25l.65-.09,5.94-.47.11,1.36.44,5.04-2.75.22-5.25.4-.41-5.7,1.27-.77"/><path id="28087" d="m665.7,407.49l4.86-2.59-.1,4.89-.11,5.7-6.95.58-.44-5.04,3.41-.92.06-1.88-.74-.75"/><path id="28095" d="m670.77,396.97l-.02.66-.19,7.28-4.86,2.59.32-.57-.11-.14-4.16.31-.24-3-.44-6.07-.04-.36,3.33-.24,6.42-.46"/><path id="28057" d="m670.96,388.22l-.19,8.75-6.42.46-.66-8.67,4.01-.28,3.26-.26"/><path id="28117" d="m666.46,381.8l.97.5.27,6.18-4.01.28-.05-.93-3.67.21-.14-2.03.5-.04-.1-3.67,6.23-.49"/><path id="28141" d="m666.06,376.26l3.05-.25,2.11,2.23-.19,7.23-.06,2.76-3.26.26-.27-6.18-.97-.5-.4-5.53"/><path id="28003" d="m665.74,376.28l.31-.02.4,5.53-6.23.49h-.39s-.01-2.3-.01-2.3l-1.98.13-.36-3.17.68-.06,7.58-.6"/><path id="28139" d="m653.86,377.23l3.63-.28.36,3.17,1.98-.13v2.31s.4,0,.4,0l.1,3.67-.5.04-6.62.46-.36-5.01.99-.07.26-1.03-.23-3.13"/><path id="28009" d="m650.48,377.47l3.37-.25.23,3.13-.26,1.03-.99.07.36,5.01-2.92.56-.99.07-.45-6.04-.75-1.1-.49-2.29,2.88-.2"/><path id="28093" d="m642.15,378.03l5.45-.35.49,2.29.75,1.1.45,6.04.99-.07.13,2.02-1.98-.48-1.96.04-.49-.6-1.66.08-1.95.16-.2-2.8-1.01-.16-.15-2-.35-5.14,1.49-.11"/><path id="28033" d="m640.66,378.14l.35,5.14-3.53.23-3.51,1.15-1.83.3-.23-3.09-1.71.05-.47-3.1,10.93-.67"/><path id="28143" d="m630.2,381.91l1.71-.05.23,3.09-.67,1.96.95,1.96.06,1-1.98.14.17,1.96-1.84.13-3.35-2.15-.26-2.68,2.89-4.61,2.1-.77"/><path id="28027" d="m625.47,389.96l3.35,2.15.24,3.75-.98.04.25,4.37.12,2.01-3.9.19-.22-3.03-3.02.12-2.13.13-.06-.23.27-.57.85-1.76,1.8-3.23.99-.19.99-.2.82-.39.65-.57.04-.03.02-.04.14-.44-.2-2.06"/><path id="28011" d="m619.17,399.68l2.13-.13,3.02-.12.22,3.03.45,8.57-1.99.11.11,2-8.61.46-.26-.73,1.4-.57.34-.29.05-.25v-.02l-.54-.43-.57-.43-.11-.2-.03-.05.11-.52,1.53-6.57,3.71-1.87.11-.77-.2-.5-.85-.68v-.03"/><path id="28151" d="m614.49,413.6l8.61-.46.26,5.98.97-.05.5,4-3.65.29-.31,1.96-4.67.16.56-.64.02-.02.6-2.5v-.02l-.06-1.75-.5-.53-.65-1.18-.96-2.76.99-.29.23-.46-.15-.54-.8-.54-.97-.66h-.03"/><path id="28125" d="m624.84,423.07l1.09,3.95-1.87,2.11.03.5.36.09.52.42.52.52.6,1.82-.02.3-.19.19-.9.12-4.66.24-.19-4.04.11-.34h.1s.14-.11.14-.11l.09-.15.33-1.79-.03-1.57.31-1.96,3.65-.29"/><path id="28055" d="m620.87,425.33l.03,1.57-.33,1.79-.09.15-.14.1h-.1s-.11.35-.11.35l.19,4.04,4.66-.24.11.99.02.97-2.58.27.06,2.98-1.94.61-.2-3.57-2.55.1-.61-.19-.05-.04-.18-.16-.04-.03-.02-.04-.06-.07-.02-.04-.11-.27-1.54-6.99-.03-.19.2-.73.63-1.02.16-.18,4.67-.16"/><path id="28163" d="m631.42,424.66l7.82,2.55-1.22,3.13-.19.3-1.1.79-5.65,3.21-.71.17-1.91,1.65-3.35-2.38-.11-.99.9-.12.19-.19.02-.3-.6-1.82-.52-.52-.52-.42-.36-.09-.03-.5,1.87-2.11,3.97-.25-.11-1.98,1.63-.13"/><path id="28007" d="m648.43,417.21l2.66-.12.23,4.01.26,4.08-4.6.35-3.27.23.07,1.05-4.52.41,3.65-7.98.55-1.67,1.33-.1,3.66-.26"/><path id="28159" d="m655.4,416.71l5.25-.4.64,8.3-1.95.14-7.77.44-.26-4.08,1.99-.15-.14-2.03,1.99-.13-.14-2.05.4-.03"/><path id="28103" d="m663.41,416.08l6.95-.58-.14,6.9-.03,1.44-8.9.77-.64-8.3,2.75-.22"/><path id="28069" d="m661.29,424.6l8.9-.77-.14,8.13-10.12.81-.6-8.04,1.95-.14"/><path id="28099" d="m651.57,425.18l7.77-.44.6,8.04-7.76.57-.61-8.17"/><path id="28079" d="m651.57,425.18l.61,8.17h-.1s-7.85.53-7.85.53l-.1-1.32-.37-5.76-.07-1.05,3.27-.23,4.6-.35"/><path id="28089" d="m639.24,427.22l4.52-.41.37,5.76-.96,1.17-.43.02-1,.12-2.7,2.48-1.05,1.17-.07.17v.3s.1.39.1.39l-2.45.14-.99-.1-.11-1.85-.71.04-3.27.18-.12-1.98.71-.17,5.65-3.21,1.1-.79.19-.3,1.22-3.13"/><path id="28121" d="m643.17,433.73l1.36,4.95.24,3.38.27,4.02-9.71.56-.5-1.42.7-3.26,1.17-1.7,1.32-1.87-.11-.39v-.3s.08-.17.08-.17l1.05-1.17,2.7-2.48,1-.12.43-.02"/><path id="28049" d="m628.45,436.46l1.91-1.65.12,1.98,3.27-.18.71-.04.11,1.85.99.1,2.45-.14-1.32,1.87-1.17,1.7-.7,3.26.5,1.42-9.47.58-.42-4.06,3.01-6.7"/><path id="28149" d="m617.89,435.44l2.55-.1.2,3.57,1.94-.61-.06-2.98,2.58-.27-.02-.97,3.35,2.38-3.01,6.7-.47.56-.96,1.13-2.02,1.78-.53-.07-1.69-.52-1.96-2.29,2.24-.28-.14-3.32-2.14-2.28-.02-.04-.08-.13-.06-.08v-.03l-.03-.37.44-1.47-.14-.31"/><path id="28063" d="m615.79,451.87l4.57-.06,3.38.64.05.27v.26s.16.4.16.4l1.9-.11.1,2.02.1,2.01-8.12.46h-1.93s-.95-1.06-.95-1.06l-.5-1.83-.99-.05,2.22-2.94"/><path id="28021" d="m625.44,443.16l.42,4.06-.02,6.05-1.9.11-.15-.4v-.26s-.06-.27-.06-.27l-3.38-.64-4.57.06,3.99-5.83,1.69.52.53.07,2.02-1.78.96-1.13.47-.56"/><path id="28029" d="m635.33,446.63l2.05,2.66.46,4.05-2.34.96-9.55.99-.1-2.02.02-6.05,9.47-.58"/><path id="28127" d="m645.04,446.07l1.24-.1.67,6.12-1.98.27-4.25.57-2.87.39-.46-4.05-2.05-2.66,9.71-.56"/><path id="28129" d="m644.76,442.06l7.89-.57.8,9.67-1.64.23-4.87.71-.67-6.12-1.24.1-.27-4.02"/><path id="28123" d="m644.13,432.57l.1,1.32,7.85-.52.57,8.12-7.89.57-.24-3.38-1.36-4.95.96-1.17"/><path id="28101" d="m652.18,433.35l7.76-.57.62,8.11-7.91.6-.57-8.12h.1"/><path id="28075" d="m659.94,432.78l10.12-.81-.14,6.25-.05,1.88-9.32.8-.62-8.11"/><path id="28023" d="m669.87,440.09l-.13,7.71-8.44,2.22-.75-9.13,9.32-.8"/><path id="28061" d="m660.56,440.89l.75,9.13-.64.09-7.22,1.04-.8-9.67,7.91-.6"/><path id="28067" d="m660.67,450.11l.66,8.98-3.95.28-4.95.35-.63-8.33,1.64-.23,7.22-1.04"/><path id="28031" d="m651.81,451.39l.63,8.33-1.03.07-2.64.19-.12-1.83-.35-.56-.7-.41-.71-.09-.52-.26-1.16-.67-.24-3.79,1.98-.27,4.87-.71"/><path id="28065" d="m640.71,452.94l4.25-.57.24,3.79,1.16.67.52.26.71.09.7.41.35.56.12,1.83-1.32.09-3.33.21.09,1.01-2.65.16-.19-3.03-.47-2.41-.19-3.08"/><path id="28077" d="m637.84,453.33l2.87-.39.19,3.08.47,2.4.19,3.03-1.63.15.12,1.21-4-.08-.54-8.44,2.34-.96"/><path id="28085" d="m635.5,454.29l.54,8.44-.33.02-5.63.35-1.67.1-.34-6.03-2.03.12-.1-2.01,9.55-.99"/><path id="28037" d="m617.92,457.75l8.12-.46,2.03-.12.34,6.03-6.85.39-2.16.75-1.26-.52-.22-6.06"/><path id="28001" d="m613.56,454.81l.99.05.5,1.83.95,1.05h1.93s.22,6.07.22,6.07l-.1-.09-1.38-.46-.8.14-.64.23-2.64,1.08-2.51,2.33-.19.41-.29,1.2.47-2.48.73-5.99v-.02s.08-.15.08-.15l.05-.09,2.1-4.21v-.02s.32-.53.32-.53l.19-.35"/><path id="28157" d="m618.15,463.81l1.26.52.77.67.29,6.7-2.28.11-9.06.43.48-3.59.29-1.2.19-.41,2.51-2.33,2.64-1.08.64-.23.8-.14,1.38.46.1.09"/><path id="28005" d="m630.09,463.09l.47,8.04h-.38s-5.1.31-5.1.31l-4.61.26-.29-6.7-.77-.67,2.16-.75,6.85-.39,1.67-.1"/><path id="28113" d="m630.09,463.09l5.63-.35.51,8.03-1.73.11-3.94.25-.47-8.04"/><path id="28147" d="m636.04,462.72l4,.08.15,2.35.34,1.33.76.94,1.44.91,1.44.23.38,1.67-8.32.55-.51-8.03.33-.02"/><path id="28091" d="m647.45,460.07l.67,9.9-1.45.11-2.11.14-.38-1.67-1.44-.23-1.44-.91-.76-.94-.34-1.33-.15-2.35-.12-1.21,1.63-.15,2.65-.16-.09-1.01,3.33-.21"/><path id="28073" d="m651.41,459.8l.16,2.01,2.02-.14.52,7.71-5.98.59-.67-9.9,1.32-.09,2.64-.19"/><path id="28035" d="m657.38,459.37l.52,7.09.34,2.85.16,2.08-3.99.28-.32-2.29-.52-7.71-2.02.14-.16-2.01,1.03-.07,4.95-.35"/><path id="28153" d="m669.74,447.8l.47,4.51.76,5.99-7.65.64-1.99.15-.66-8.98.64-.09,8.44-2.22"/><path id="28041" d="m663.33,458.95l7.65-.64.93,7.34.34,2.65-8.02.63-.9-9.98"/><path id="28111" d="m661.33,459.1l1.99-.15.9,9.98.15,1.96-1,.12-4.97.39-.16-2.08-.34-2.85-.52-7.09,3.95-.28"/><path id="28131" d="m663.37,471l.31,4.02.11,1.33-6.88.51-.09.69-2,.14-.41-6.01,3.99-.28,4.97-.39"/><path id="28109" d="m654.09,469.38l.32,2.29.41,6.01-2.73.18-1.21.76.15,2.34-1.94,1.45-.87.06-3.3-4.55.22-1.64.24-1.21.3-1.47.26-1.08.05-.05.16-.02.12-.02.2-.44.24-1.21-.04-.71,1.45-.11,5.98-.59"/><path id="28045" d="m648.22,482.48l.87-.06,1.94-1.45-.15-2.34,1.21-.76,2.73-.18.46,6.3-.36,2.07-2.97,2.58-.92.06h-.04l-.05-.03-.07-.05-.05-.03-.15-.17-.43-.51-.19-.37-.63-1.19-.02-.12.05-.19.18-.46-.03-.43-1.23-2.5-.13-.13-.03-.03"/><path id="28039" d="m664.22,468.93l8.02-.63.74,6-9.3.72-.31-4.02,1-.12-.15-1.96"/></g></svg>