<?xml version="1.0" encoding="UTF-8"?><svg xmlns="http://www.w3.org/2000/svg" viewBox="0 0 989.98 627.07"><path id="29143" d="m638.4,335.02l3.12-.44,3.89,5.24-1.42,3.19-.2.86-.63.33-.47-.36.06-.71.18-.34.03-.06.02-.09.06-.23.02-.06v-.14s-.06-.25-.06-.25l-.11-.27v-.02s-.13-.18-.13-.18l-.03-.02-.04-.03-.05-.03-.28-.08-.51-.08-.34.05-.11.07-.21.28-.03.04-.02.09-.03.11-.02.08.02.07.02.1v.02s.21.43.21.43l.03.03.41.58.26,1.26.69.94v1.27s-.81.27-.81.27l-.96-1.48-.36-.15-1.33.24-1.35.52-2.82.18h-.88l-.32-5.56,4.73-.27-.42-5.36.23-.02"/><path id="29155" d="m641.89,346.92l-.87.15,1.09.81.37.77-1.06.65-1.55-.11.71,1.33,1.18.58-.14.83-1.2.66-.14,1.2-.68,1.04-4.81.4-.61-9.01h.88l2.82-.18,1.35-.52,1.33-.24.36.15.96,1.48"/><path id="29005" d="m527.33,252.5l6.8.07,2.97.02.03,2.3h.42l.02,2.19-.03,2.85-6.48-.03.02-.42v-.07s-.04-.12-.04-.12l-1.21-1.18-1.13-2.85-.1-.41.2-.18.38-.68-.65-.58-.23.49-.97-1.41"/><path id="29087" d="m537.54,259.93h1.65l.37.72-.05.09-.09.71.23,1.16.1.17.21.17.92,5.31-.6.68v.02s-.12.1-.12.1l-.13.05-.67.06h-.08l-.06-.02-.34-.13-.43-.16-.86-.55-2.12-1.92-.11-.16v-.21s-4.31-6.04-4.31-6.04v-.06l6.48.03"/><path id="29165" d="m539.06,276.8l8.83-.08.04,1.77.08,6.86-3.4-.91-3.17-5.02-2.39-2.62"/><path id="29021" d="m547.77,270.05l.03,1.68.09,4.98-8.83.08.7-2.1.21-.3.6-.88.07-.08,1.27-1.12.37-.06.37-.82-.14-.63-.14-.68,5.4-.06"/><path id="29003" d="m547.61,262.95l.04,2.02.12,5.08-5.4.06-1.47-1.85-.92-5.31h7.63"/><path id="29147" d="m542.1,252.63l4.91.02.64,4.27-.04,6.04h-7.63l-.21-.17-.1-.17-.23-1.16.09-.71.05-.09-.37-.72h-1.65l.03-2.85-.02-2.19h-.42l-.03-2.3,5,.03"/><path id="29227" d="m549.8,252.62l4.15-.1.39,4.34-6.69.06-.64-4.26,2.79-.03"/><path id="29075" d="m547.65,256.92l6.69-.06.07,5.75v2.35h-6.76s-.04-2.01-.04-2.01l.04-6.04"/><path id="29063" d="m554.41,264.96l.34,5.69.02,1-6.96.09-.03-1.68-.12-5.08h6.76"/><path id="29049" d="m554.76,271.65l.05,5.07v1.68l-6.88.09-.04-1.77-.09-4.98,6.96-.09"/><path id="29047" d="m547.93,278.48l6.88-.09.07,5.74-.52-.53-.1-.07-.18-.06h-.61l-.21.1-.11.13-.14.26-.09.4-.24.34-.52.54-1.78.88-2.47.29.08-1.08-.08-6.86"/><path id="29025" d="m554.75,270.65l1.98.03,3.57-.09h2.3s.11,4,.11,4l.03,2.02-7.91.11-.05-5.07-.02-1"/><path id="29061" d="m562.32,262.52l.13,4.02.14,4.05h-2.3s-3.57.1-3.57.1l-1.98-.03-.34-5.69v-2.35l7.91-.09"/><path id="29081" d="m561.89,252.22l.36,7.26.06,3.04-7.91.09-.07-5.75-.39-4.34,3.76-.12,4.19-.18"/><path id="29129" d="m565.66,252.07l3.17-.09.26,4.56.07,2.7-6.9.23-.36-7.26,3.77-.15"/><path id="29079" d="m569.16,259.25l.24,5.4.04,1.52-6.99.37-.13-4.02-.06-3.04,6.9-.23"/><path id="29117" d="m569.44,266.16l.03,2.03.09,4.08,1.72-.05-.14,2.05-8.44.32-.11-4.01-.14-4.05,6.99-.37"/><path id="29033" d="m562.7,274.59l8.44-.32.04,4.06,3.12.47.05.76-.73.06-.75.29-1.62,1.45-1,1.69-.19.12-.71.18-.24-.04-.11-.1-1.16-1.35-1.89,1.26-1.18-.15-1.85,1-.19-7.35-.03-2.02"/><path id="29177" d="m562.73,276.61l.19,7.35-1.3-.16-2.48.36-.98.79.05.09.03.25-.38.32-.19.13-.24.04-.25-.02-.36-.19-1.94-1.44-.07-5.74v-1.68l7.91-.11"/><path id="29107" d="m562.92,283.96l1.85-1,1.18.15,1.89-1.26-.13,8.12v.34l-6-.07v.68s-4.95-.09-4.95-.09l.06-5.25.36.19.25.02.24-.04.19-.13.38-.32-.03-.25-.05-.09.98-.79,2.48-.36,1.3.16"/><path id="29095" d="m556.82,285.57l-.06,5.25-.05,1.95-8.69-.18-.06-4.57-.03-1.61,2.47-.29,1.78-.88.52-.54.24-.34.09-.4.14-.26.11-.13.21-.1h.61l.18.06.1.07.52.53,1.94,1.44"/><path id="29101" d="m567.71,290.3l-.03,8.63-9.88-.03-1.2-.04.1-6.1.05-1.95,4.94.09v-.68s6.01.07,6.01.07"/><path id="29083" d="m567.68,298.94v8.09s-9.45.06-9.45.06l-.4-5.39-.03-2.79,9.88.03"/><path id="29037" d="m548.01,292.59l8.69.18-.1,6.1,1.2.04.03,2.79-2.57.02-1-.1-1.04-.39-5.18-.06-.03-6.04v-2.52"/><path id="29185" d="m558.24,307.09l9.44-.06.43,3.1-.05,3.69h-.46l-.57,1.01-.02,1.01h-1s-3.3-.06-3.3-.06l.02-1.34-4.64-.09.07-3.15.07-4.11"/><path id="29013" d="m548.05,301.16l5.18.06,1.04.39,1,.1,2.57-.02.4,5.39-.07,4.11-1.36-.47-1.21.1-.71.11-6.73-.11-.1-7.61-.02-2.06"/><path id="29039" d="m558.1,314.35l4.64.09-.02,1.34,3.3.05.37,5.94-8.31-.02v-1.35l.02-6.05"/><path id="29217" d="m558.17,311.2l-.07,3.15-.02,6.05-9.84-.15v-.45s-.06-8.43-.06-8.43v-.54s6.72.11,6.72.11l.71-.11,1.21-.1,1.36.47"/><path id="29057" d="m558.08,321.75l8.31.02v3.37s0,3.37,0,3.37h-7.75l-.57-1.36.02-5.39"/><path id="29011" d="m558.08,320.41v1.35l-.02,5.38-9.72-.18-.11-6.71,9.84.15"/><path id="29097" d="m558.06,327.14l.57,1.36v5.61s-10.19-.02-10.19-.02l-.09-6.52v-.6s9.71.18,9.71.18"/><path id="29145" d="m548.44,334.09l10.18.02-.04,6.95-10.05-.26-.09-6.72"/><path id="29119" d="m558.58,341.06l-.03,5.78-9.93.16-.06-3.9-.04-2.29,10.05.26"/><path id="29109" d="m566.37,328.51l.42,4.25.03,2.37.03,1.69-8.25-.02.02-2.69v-5.61h7.75"/><path id="29009" d="m558.61,336.81l8.25.02.03,2.37h.71v7.44s-5.18.13-5.18.13l-3.87.08.06-10.04"/><path id="29167" d="m567.01,315.84l6.97.39.35,8.93-7.96-.02v-3.37s-.36-5.94-.36-5.94h1"/><path id="29209" d="m566.82,335.13l4.97-.06.03,4.06h.69v7.38s-4.93.12-4.93.12v-7.44s-.71,0-.71,0l-.03-2.37-.03-1.69"/><path id="29077" d="m574.33,325.16h1.98l.04,3.36h.27l.06,4.2-9.9.06-.42-4.25v-3.37l7.96.02"/><path id="29213" d="m579.74,339.09h2.64s.11,7.13.11,7.13l-1.5.05-8.1.24h-.35v-7.39s7.21-.04,7.21-.04"/><path id="29043" d="m576.69,332.71l2.96.06v.27s.08,6.06.08,6.06l-7.22.04h-.69l-.03-4.06-4.97.06-.03-2.37,9.9-.06"/><path id="29225" d="m580.24,323.43l3.02-.05.07,5.05h.24l.03,4.55-3.95.05v-.27s-2.97-.06-2.97-.06l-.06-4.2h-.27l-.04-3.36.07-1.63,3.86-.09"/><path id="29059" d="m575.98,313.85l3.91.03.06,4.05h.24l.06,5.5-3.86.09-.07,1.63h-1.98l-.35-8.93-.09-2.31,2.09-.07"/><path id="29085" d="m568.11,310.13l7.88.02v3.71s-2.1.07-2.1.07l.09,2.31-6.97-.39.02-1.01.57-1.01h.46l.05-3.69"/><path id="29015" d="m567.68,299.95l3.95.04v-.67s1.88-.02,1.88-.02l2.11.02v6.25s.37,4.58.37,4.58l-7.88-.02-.43-3.1v-7.08"/><path id="29159" d="m567.71,289.97l3.46.07h3.67l.8.04v5.45l-.02,3.78-2.11-.02-1.87.02v.67s-3.95-.04-3.95-.04v-1.01l.03-8.63v-.34"/><path id="29195" d="m574.35,279.56l3.27,1.54.06,1.9,1.3.07-1.39,3.78-1.95,3.23-.8-.04h-3.67l-3.46-.07.13-8.12,1.16,1.35.11.1.24.04.71-.18.19-.12,1-1.69,1.62-1.45.75-.29.73-.06"/><path id="29041" d="m578.47,272.1l3.02-.03-.03,2.02-.04,6.69-1.37-.55-1.06,2.86-1.3-.07-.06-1.9-3.27-1.54-.05-.76-3.12-.47-.04-4.06.14-2.05,7.19-.14"/><path id="29115" d="m578.24,264.28h.15l.08,7.82-7.19.14-1.72.05-.09-4.08-.03-2.03-.04-1.52,8.84-.36"/><path id="29211" d="m569.09,256.55l4.88-.22,4.02-.12.02,1,.23,7.07-8.84.36-.24-5.4-.07-2.7"/><path id="29171" d="m580.28,251.41l.32,1.13-.11,2.19.52,2.35-2.99.12-.02-1-4.02.12-4.88.22-.26-4.56,4.8-.22,6.64-.35"/><path id="29197" d="m586.58,251l.23,5.8-5.81.29-.52-2.35.11-2.19-.32-1.13,1.33-.07,4.97-.34"/><path id="29001" d="m586.81,256.8l.08,1.01.28,6.15-8.78.32h-.15l-.23-7.07,2.99-.12,5.81-.29"/><path id="29121" d="m587.17,263.96l1.08,1.93.11,8.05h-.03l-6.88.14.03-2.02-3.02.03-.08-7.82,8.78-.32"/><path id="29175" d="m588.33,273.94l.07,5.97.02,2.35-2.05.02-4.96-1.51.04-6.69,6.88-.14"/><path id="29089" d="m581.41,280.77l4.96,1.51-2.02,6.52-4.03.13-1.1-.18-.19-.08-.89-.62-.14-.19-.39-.84v-.15l1.39-3.78,1.06-2.86,1.37.55"/><path id="29053" d="m577.59,286.86v.15l.39.84.14.19.89.62.19.08,1.1.18,4.03-.13,1.09,1.09-1.43,3.94-.35,1.03-.14.51-2.27.21-1.69.05-3.93-.09v-5.45l1.95-3.23"/><path id="29019" d="m588.41,282.25h3.71l.07,4.07h-.26s-.1.23-.1.23l-.34,3.35-.1,3.38-.91,1.59.14,1.28-3.18-2.11-2-4.16-1.09-1.09,2.02-6.52,2.05-.02"/><path id="29051" d="m587.44,294.06l3.18,2.11,3.85,1.52.19,1.18-1.91.94-1.06,1.59-.31,1.88-1,.34-2.83-.32.02-1.95h-1.64l1.52-7.28"/><path id="29135" d="m585.44,289.89l2,4.16-1.52,7.28-2.33.02-4-3.71-.02-2.02,1.69-.05,2.27-.21.14-.51.35-1.03,1.43-3.94"/><path id="29141" d="m575.64,295.53l3.93.09.02,2.02,4,3.71v1.75s-.83.07-.83.07l-.26,3.06-1.21.63-3.56.11-1.21.05.16-.91-1.05-.55v-6.25s0-3.78,0-3.78"/><path id="29131" d="m585.93,301.34h1.64l-.02,1.95,2.83.32,1-.34.02,1.01.09,3.03h.29l.06,3.36-3.97.04-1.61.03-1.04-.65-.34-.33-.5-1.01-.03-.67-.17-.71-.68-.96-1-.18.26-3.06.82-.07v-1.75s2.34-.02,2.34-.02"/><path id="29029" d="m582.5,306.23l1,.18.68.96.17.71.03.67.5,1.01.34.33,1.04.65,1.61-.03.09,3.75-1.05.78-1.25.64-.17.04-.28-.11-.67-.78-.28-.54-.13-.52.03-.05-.03-.08-4.24.06-3.91-.03v-3.71s-.35-4.58-.35-4.58l1.05.55-.16.91,1.21-.05,3.56-.11,1.21-.63"/><path id="29169" d="m591.84,310.66h2.96l.25,9.46-3.98.11-.03-1.01-3.03-1.4-.05-3.37-.09-3.75,3.97-.04"/><path id="29105" d="m579.89,313.89l4.24-.06.03.08-.03.05.13.52.28.54.67.78.28.11.17-.04,1.25-.64,1.05-.78.05,3.37,3.03,1.4.03,1.01.07,3.05-7.87.09-3.02.05-.06-5.5h-.24l-.06-4.05"/><path id="29229" d="m583.27,323.38l7.87-.09.18,5.05.12.84.09,3.68-7.92.12-.03-4.55h-.24l-.07-5.05"/><path id="29067" d="m594.49,332.81l-.17,6.09-11.93.17h-2.64s-.08-6.05-.08-6.05l3.95-.05,7.92-.12,2.96-.05"/><path id="29153" d="m582.38,339.07l11.93-.17.13,6.84-.55.03-6.95.29-4.46.15-.11-7.14"/><path id="29091" d="m602.38,332.64l.13,3.71.07,2.34-.03,4.23.11,2.45-8.22.37-.13-6.84.17-6.09,1.97-.06,2.26.02,3.66-.13"/><path id="29215" d="m595.05,320.12l3.98-.09.98-.04.18,4.04,1.96-.06.23,8.66-3.66.13-2.26-.02-1.97.06-2.96.05-.09-3.68-.12-.84-.18-5.05-.07-3.05,3.98-.11"/><path id="29161" d="m601.67,307.05l1.72-.06.5,8.42-5,.17.14,4.46-3.98.09-.25-9.46,1.45-.68.76-.36,2.16-.13,2.57-.07-.07-2.38"/><path id="29125" d="m601.27,303.93l.12,3.09.28.03.07,2.38-2.57.07-2.16.13-.76.36-1.45.68h-2.96l-.06-3.36h-.29l-.09-3.03,3.07-.04,2.51-.14,4.28-.16"/><path id="29151" d="m600.78,294.33l.12-.02.36,9.61-4.28.16-2.51.14-3.07.04-.02-1.01.31-1.88,1.06-1.59,1.91-.94-.19-1.18.71-.53,1.42-1.35.13-.23.13-.14.16-.1,2.31-.99.58-.07.87.07"/><path id="29027" d="m592.2,286.33l8.44-.25.14,8.25-.87-.07-.58.07-2.31.99-.16.1-.13.14-.13.23-1.42,1.35-.71.53-3.85-1.52-.14-1.28.91-1.59.1-3.38.34-3.35.1-.22h.26"/><path id="29137" d="m598.58,272.29l.28,7.38-10.46.24-.07-5.97h.03l1.98-.05-.03-1.37,5.95-.14,2.32-.09"/><path id="29205" d="m594.11,265.72l1.97-.06.18,6.72-5.95.14.03,1.37-1.98.05-.11-8.05,5.87-.17"/><path id="29103" d="m586.89,257.82l6.93-.23.03,1.01.27,7.12-5.87.17-1.08-1.93-.28-6.15"/><path id="29199" d="m593.63,250.52l.19,7.06-6.93.23-.08-1.01-.23-5.8,2.96-.19,4.1-.29"/><path id="29045" d="m597.57,250.51l.36.23,1.37,1.04.04.15-.06.47.06.16,1.75,2.15.73.59,1.14.08-1.28,3.06-7.84.16-.03-1.01-.19-7.06h3.94"/><path id="29111" d="m601.68,258.44l-.11,1.12,1.23,5.86-6.72.24-1.97.06-.27-7.12,7.84-.16"/><path id="29127" d="m602.81,265.42l1.75,4.25,1.04,1.66-6.98.41-.04.55-2.32.09-.18-6.72,6.72-.24"/><path id="29173" d="m598.58,272.29l.04-.55,6.98-.41,2.48,1.89-.45.02-4.35,3.64.53,3.04h-2.33l-2.62.09v-.34l-.28-7.38"/><path id="29007" d="m588.4,279.91l10.46-.24v.34l2.62-.09h2.33l.71,4.05-3.89.1v2.02s-8.44.25-8.44.25l-.07-4.07h-3.71l-.02-2.35"/><path id="29139" d="m607.16,283.9l.1,3.41.16,3.45-2.67.09.1,3.14-3.94.32-.12.02-.14-8.25v-2.02s3.89-.1,3.89-.1l2.64-.06"/><path id="29163" d="m608.08,273.21l4.23,4.4,4.31,3.83-5.03.26-3.18.1.06,2.05-1.32.05-2.64.06-.71-4.05-.53-3.04,4.35-3.64.45-.02"/><path id="29113" d="m616.63,281.44l.83,2.82v.29s-.5.75-.5.75l-.02.07.04.16.96,2.56-5.11,1.74-1.87.06-1.34-1.31-1.01-1.32-1.35.03-.1-3.41,1.32-.05-.06-2.05,3.18-.1,5.03-.26"/><path id="29219" d="m607.26,287.31l1.35-.03,1.01,1.32,1.34,1.31,1.87-.06.3,7.49-4.8-1.94-.11-.22-1.49-1.21-.2-.02-.79.25-.89-.2-.1-3.14,2.67-.09-.16-3.45"/><path id="29073" d="m605.73,294.19l.22,4.39.26,4.12.11,2.82-3.03.06.1,1.41-1.72.06-.28-.03-.12-3.09-.36-9.61,3.94-.32.89.2"/><path id="29055" d="m606.32,305.52l4.87-.11.48,10.74-.91,1.03-2.84.08-.06-2.02-3.98.15-.5-8.42-.1-1.41,3.03-.06"/><path id="29065" d="m610.76,317.19l.1,2.53-2.85.03.07,2.03,1.86-.02.09,2-7.88.21-1.96.06-.18-4.04-.98.04-.14-4.46,5-.17,3.98-.15.06,2.02,2.84-.08"/><path id="29203" d="m602.15,323.98l7.88-.21.66-.02.35,3.93,1.57,1.53,1.25.09.08,1.68-1.67.3-1.95.11.13,4.68-7.94.27-.13-3.71-.23-8.66"/><path id="29149" d="m602.51,336.35l7.94-.27v1.34s2.03-.04,2.03-.04l.19,7.55-5.14.27-.79.02-4.08.15-.11-2.45.03-4.23-.07-2.34"/><path id="29181" d="m612.47,337.38l1.32-.04,2.84.07,4.12-.19,1.99,7.15-3.82.21-6.27.36-.19-7.55"/><path id="29035" d="m613.94,330.99h1.21s.01.69.01.69l3.17.13,1.42.45.57,2.31.44,2.64-4.12.19-2.84-.07-1.32.04-2.02.04v-1.34s-.14-4.68-.14-4.68l1.95-.11,1.67-.3"/><path id="29179" d="m610.86,319.72l3.51-.55,3.44-.17.18,4.35.12,3.34.73-.04.08,1.02.02,1.4-.69,1.16.07,1.58-3.17-.13v-.7s-1.22.01-1.22.01l-.08-1.68-1.25-.09-1.57-1.53-.35-3.93-.66.02-.09-2-1.86.02-.07-2.03,2.85-.03"/><path id="29093" d="m619.88,315.83l.04,2.13,2.06-.13.17,7.55v1.22s-3.31.05-3.31.05l-.73.04-.12-3.34-.18-4.35-3.44.17-3.51.55-.1-2.53.91-1.03,8.2-.32"/><path id="29221" d="m616.85,305.1l2.68,2.81.35,7.92-8.2.32-.48-10.74,5.66-.3"/><path id="29071" d="m613.13,297.33l4.02-2.34.15,4-.45,6.11-5.66.3-4.87.11-.11-2.82-.26-4.12-.22-4.39.79-.25.2.02,1.49,1.21.11.22,4.8,1.94"/><path id="29510" d="m626.55,292.08l.37,1.85-1.18,3.05-.74-.38-.23-1.23-.28-1.81.44-.92.72-.55.89-.03"/><path id="29183" d="m621.71,287.11l3.16.77.46.14.45.22.34.2,1.74,1.05.07.13.02.14-.06.53-.04.22-.17-.34-.29-.19-.3.03-.43.29-.3-.11-1.1-.66-.18-.18-1.29.11-.03.27-.14.31-.11.18-.2.17-.27.02-.64-.12h-.19l-.13.06-.12.13-.42.77-.9,1.95.02.26-.12.23-.29.16-.27.03-1.53-.09-.13.04-.23.18-.52.82-.42.19-4.02,2.34-.3-7.49,5.11-1.74,3.77-.99"/><path id="29189" d="m627.85,290.5l-1.29,1.58-.89.03-.72.55-.44.92.28,1.81.23,1.23.74.38-.08.28-1.24,3.22-.14-.52-1.13-2.11-3.31.18-2.35.59-.2.37-.15-4,.42-.19.52-.82.23-.18.13-.04,1.53.09.27-.03.29-.16.12-.23-.02-.26.9-1.95.42-.77.12-.13.13-.06h.19l.64.12.27-.02.2-.17.11-.18.14-.31.03-.27,1.29-.11.18.18,1.1.66.3.11.43-.29.3-.03.29.19.17.34"/><path id="29099" d="m617.3,298.99l.2-.37,2.35-.59,3.31-.18,1.13,2.11.14.52-.05.06-.08.16-.26.89-.03.1-.02.23.03.96.24,1.03.21.52.33.45.06.08.05.05,1.51,1.47-2.82,1.98-3.63.67-.43-1.24-2.68-2.81.45-6.11"/><path id="29187" d="m619.52,307.92l.43,1.24,3.63-.67,1.75,1.3-2.31,2.53,1.47,1.42,3.48,3.14.79-.74.83.61-.61.72-7.01.38-2.06.13-.04-2.13-.35-7.92"/><path id="29186" d="m627.32,307.18l5.09,4.64-2.81,4.91-.83-.61-.79.74-3.48-3.14-1.47-1.42,2.31-2.53-1.75-1.3,2.82-1.98.91.68"/><path id="29123" d="m628.99,317.45l.06,1.03.23,1.29.19,5.31h-1.31s-6.02.3-6.02.3l-.17-7.55,7.01-.38"/><path id="29223" d="m622.15,325.39l6.02-.29.22,5.29,2.05-.11.05,1.04-1.77.88-.75,2.03-7.66.35-.57-2.31-1.42-.45-.07-1.58.69-1.16-.02-1.4-.08-1.02,3.3-.05v-1.22"/><path id="29023" d="m627.97,334.23l.89,2.36.63,1.4.12.05.17.12.59,1.14.23.82-.05.45-.16.28-1.13,3.16-6.52.37-1.99-7.15-.44-2.64,7.66-.35"/><path id="29069" d="m633.86,340.66l.32,5.56.61,9.01-6.07.43-1.47.1,2.84-4.94,2.01-1.77.13-.2.19-.53-.12-1.83-.18-.24-1.64-2.31-.72.02-.49.03,1.13-3.16,3.46-.17"/><path id="29207" d="m634.82,329.06l1.83-.11.35,2.13.37.49.29.47.39.96.28.79.06,1.24-.23.02.42,5.36-4.73.27-3.46.17.16-.28.05-.45-.23-.82-.59-1.14-.17-.12-.12-.05-.63-1.4-.89-2.36.75-2.03,1.77-.88,1.69-.09,1.06-.4-.11-1.69,1.69-.08"/><path id="29017" d="m634.2,318.11l.61,10.95-1.69.08.11,1.69-1.06.4-1.69.09-.05-1.04-2.05.11-.22-5.29h1.31s-.19-5.32-.19-5.32l-.23-1.29,5.15-.37"/><path id="29157" d="m632.41,311.82l4.85,1.35,3.12,5.16v.14l-6.18-.35-5.15.37-.06-1.03.61-.72,2.81-4.91"/><path id="29031" d="m634.2,318.11l6.18.35.02.21.11.46h0l.51.96.34.5.48.47.22.28.29.65v.02s.02.04.02.04l.1.39v.02s0,.03,0,.03l-.07.71-.07.22v.02s-.03.02-.03.02l-.02.02-.21.11-.66.18.03,2.02-2.69.32-.96.87-.33,1.45-.83.52-1.83.11-.61-10.95"/><path id="29201" d="m641.45,325.79l.46.66,1.12,2.09.64,1.58,1.21.99-3.37,3.48-3.12.44-.06-1.24-.28-.79-.39-.96-.29-.47-.37-.49-.35-2.13.83-.52.33-1.45.96-.87,2.69-.32"/><path id="29133" d="m644.88,331.1l3.5.38.65.84-.69,2.3h-.01l-.51.29h0v.53h0l1.05.55-.71,3.19-.51.56-.25,1.08-.84.07-1.16-1.09-3.89-5.24,3.37-3.48"/></svg>