<?xml version="1.0" encoding="UTF-8"?><svg xmlns="http://www.w3.org/2000/svg" viewBox="0 0 989.98 627.07"><g><path id="30091" d="m400.1,53.78l-.69,8.29-.46,5.55-8.95-.78.19-1.98-2.11-.27.3-1.88-3.31-.31.19-1.96-1-.1.27-5.92.19-2,15.39,1.37"/><path id="30085" d="m385.05,62.4l3.31.31-.3,1.88,2.11.27-.19,1.98,8.95.78-.71,8.94-2.95-1.02-3.04-1.77-6.51-1.64-.91.37-.41.55-.5.38-.33.17h-1.89l-1.15-.22-.88-.64-1.32-.26-1.15-.05-2.81-.04-.76.03-.84.46-2.41.74.5-4.73.6.06.8-7.79,12.76,1.26"/><path id="30031" d="m283.34,104.05l4.39.71-.28,1.12-.54,3.21-.12,1.19-.26,1.66-.34,2.02-.78,4.67-1.11-.1-.04.62-.17.89-.99-.12-.5,3.59-1.93-.31-.77,3.94-.28,1.72-.31,2.27-1.23,7.26-.76,4.72-1.31-1.21-.19-.55-.71-2.06-1.32-2.59-.77-.76.6-3.63,1.7-9.96.47-.64.96-5.91-2.95-.49-1.09-1.52-.63-1.12-.75-.8-.59-.43-.63-.37,2.44-.42,3.43-2.18.94-.86.22-1.52.56-.92,1.07-1.37.71-.26,2.31.25,1.54.26"/><path id="30057" d="m263.82,111.15l.09.03.31-.02.52-.39.47-.87.09-.44.19-.17.39-.14,1.04-.07,1.37.35,1.78,1.25.07.12-.02.25.63.37.59.43.75.8.63,1.12,1.09,1.52,2.95.49-.96,5.91-.47.64-1.7,9.96-.6,3.63-1.83.69-4.85-.79.27-1.64-1.95-.32-2.62-.51.05-.95-1.52-.3-.04-2.02.34-1.99-2.3-.4.1-1.95-1.73-.39,1.03-5.92.06-1.02-.46-1.22-.49-.14-.44.1-.26.14-.3-.04-.47-.35-.8-1.04-.04-.12v-1.16s.65-2.03.65-2.03l1.55-.59.77-.34.39-.29.19-.18,1.13-.62,4.33.62"/><path id="30007" d="m273.31,93.66l2.38.09.59-3.52.62-.75.09-.05.27-.05,1.33.67.73,2.55,1.36,1.13-.6,2.11,1.26,1.09.27,1.76,1.52-.33,1.4,1.56-1.99,2.27.65.78.14,1.07-1.54-.26-2.31-.25-.71.26-1.07,1.37-.56.92-.22,1.52-.94.86-3.43,2.18.8-4.89-1.96-.34,1.91-11.75"/><path id="30043" d="m264.54,95.61l.6.23.59-.14,1.04-.51.04-.06-.05-.37,2.52-.34.24-1.41,3.79.64-1.91,11.75,1.96.34-.8,4.89-2.44.42.02-.25-.07-.12-1.78-1.25-1.37-.35-1.04.07-.39.14-.19.17-.09.44-.47.87-.52.39-.31.02-.09-.03-2.72-2.26-.46-1.05.15-4.8v-.44s-.83-2.06-.83-2.06l-.57-.19.64-1.92v-.58s.07-.35.07-.35l.59-.49,2.47-.77,1.38-.64"/><path id="30093" d="m259.39,100.35l.57.19.83,2.06v.44s-.16,4.8-.16,4.8l.46,1.05,2.72,2.26-4.33-.62-1.13.62-.19.18-.39.29-.77.34-1.55.59-.67-2.26-.55-1.09-.56-.55-2.56-1.33-1.02-1.23,1.04-.1.71-.35.93-.59.19-.18-.03-1.27.82.09.8-1.18,1.26.15.26-1.92,1.95-.02,1.38-.39"/><path id="30023" d="m260.03,98.43l-.64,1.92-1.38.39-1.95.02-.26,1.92-1.26-.15-.8,1.18-.82-.09.03,1.27-.19.18-.93.59-.71.35-1.04.1.02-.27-.15-.24-.11-.05-1.12-.28-.6.13-2.26,1.08-.27.33-.64.71-.51-1.38-.11-1.21-.4-1.72-.08-.14h-.06l-.18.02-.02-.03,1.37-.71,1.37-.35,1.31-.67.45-2.02.36-1.96,3.9.7.18-.98,7.52,1.36"/><path id="30001" d="m243.6,103.09l.18-.02h.06l.08.14.4,1.72.11,1.21.51,1.38.64-.71.27-.33,2.26-1.08.6-.13,1.12.28.11.05.15.24-.02.27,1.02,1.23,2.56,1.33.56.55.55,1.09.67,2.26-.64,2.03v1.16s.03.12.03.12l.8,1.04.47.35.3.04.26-.14.44-.1.49.14.46,1.22-.06,1.02-1.03,5.92,1.73.39-.1,1.95,2.3.4-.34,1.99.04,2.02,1.52.3-.05.95,2.62.51,1.95.32-.27,1.64,4.85.79-2.78,3.19-2.09-.06-3.24-.92-4.48-.46-2.44.92-5.75-1.43-1.08.26-.63.67-.23.36-.19.86v.06s-.17.25-.17.25l-.33.18-.42-.15-1.31-1.46-.44-.64-.19-1.09.02-2.87.06-.05.1-.18v-.18l-.47-2-.35-1.1-.31-.47-.68-.76-.57-.45-.55.13-2.67-3.71-2.52-9.35-.02-1.8.04-1.37.21-.38v-.68s-.17-1.82-.17-1.82l-.09-.29-1.56-2.2-.33-.35.33.02.53-.09,5.09-2.25,1-.53.57-.4.51-.95"/><path id="30081" d="m241.77,85.88l-.88,2.9.24,3.71.06,2.27-.82,2.09.1,3.07,1.17,2.18.97.8.98.15.02.03-.51.95-.57.4-1,.53-5.09,2.25-.53.09-.33-.02-1.41.81-1.98,1.74-3.15,1.45-.66-.1-.14-.56-1.18-1.86-.2-.09-.63-.16-.71-.1-.05-.06.02-.08.28-1.56.56-3.08,4.48-11.19,1.41-3.12.94-2.16.56-1.57.1-.51-.06-.26-.09-.09,8.13,1.17"/><path id="30039" d="m250.68,83.56l1.45,1.39.52,1.32.46.49.9-.23.24-.11.16.05-1.01,5.78-.88,4.81-.18.98-3.9-.7-.36,1.96-.45,2.02-1.31.67-1.37.35-1.37.71-.98-.15-.97-.8-1.17-2.18-.1-3.07.82-2.09-.06-2.27-.24-3.71.88-2.9.52.16,1.97.37.29-1.09,1.79.33.44-.77h.79s.22-1.17.22-1.17l1.02.15.1-.63,1.77.32"/><path id="30049" d="m260.19,59.24l.22,4.36-.15,1.68.06.22.52,1.18.51.79.56.31.12.02,1.82-.24,1.77-.37.08.02,1.75,1.45.13.47-.08.11-.02.51.02.05,1.74,1.24,1.04.39,1.62.22.99-.05-1.21,7.29,1.45,1.43.59.51.34.04.06-.08,1.29.21-.82,4.86,2.06.35.48.96-.62.96,1.94,1.19.13.72-1.33-.67-.27.05-.09.05-.62.75-.59,3.52-2.38-.09-3.79-.64-.24,1.41-2.52.34.05.37-.04.06-1.04.51-.59.14-.6-.23.21-.65.67-3.26-.2-1.44-1.29-.11.14-1.11-1.95-.31.54-3.06-2.08-.35-.18.02-1.82-.33,1.33-7.48.05-.31-3.92-.7-.14-.08,1.25-6.91h-.28l-.43-1.78-.15-.92.19-2.85.04-.18,1.89-.37.32-2.85.83-.88.66-.47"/><path id="30077" d="m251.33,65.83l4.94,1,.15.92.43,1.78h.28l-1.25,6.91.14.08,3.92.7-.05.31-1.33,7.48,1.82.33.18-.02,2.08.35-.54,3.06,1.95.31-.14,1.11,1.29.11.2,1.44-.67,3.26-.21.65-1.38.64-2.47.77-.59.49-.06.35v.58s-7.53-1.36-7.53-1.36l.88-4.81,1.01-5.78-.16-.05-.24.11-.9.23-.46-.49-.52-1.32-1.45-1.39,1.44-7.82-2.53-.45,1.75-9.47"/><path id="30047" d="m248.75,65.35l-4.84-.93.51,7.68.03.14-.38,1.95-1.92.65-3.93-.76.2-.98.51-3.95-1.32-.26-.38-.17-.13-.14-.34-.63.39-1.1.36-.57.08-.02.13.07.38-.56.06-2.31-.09-.13-.34-.15-.96-.19-2.62-.51.31-3.3.2-.97,1.95.38.38-1.91-.02-.68.18-1.3,6.93,1.33.09-.62-.03-.17-.07-.1-.11-.02-.02-.54.3-.27.4-.26,2.17.43,2.63,4.12.03.12.26,3.96-.02.56-.07.35-.88,1.73"/><path id="30063" d="m248.75,65.35l2.58.47-1.75,9.47,2.53.45-1.44,7.82-1.77-.32-.1.63-1.02-.15-.22,1.19h-.79s-.44.76-.44.76l-1.79-.33-.29,1.09-1.97-.37-.52-.16-8.13-1.17-.07-.07-.28-.23-.83-.11-.41.08-.25.1-.36.1-1.71-.36-.03-.03-.87-2.18.12-.63,1.94.19.22-2.23,1.68-3.31.22-1.29-.95-.2-.39-1.23-1.01-1.07.12-1.46-1.52-.84.12-.63,1.74.21.88.38,1.12.63,1.83,1.36.51.52.29.79.81.82.23.16.33.12,1.11-.19,3.93.76,1.92-.65.38-1.95-.03-.14-.51-7.68,4.84.93"/><path id="30061" d="m216.15,60.5l.55.97.35.41.76.26.63.21,2.09.36.53-.14.13.02,1.72.31.48.24,3.08,2.17.68.59.06.51-.28,1.37,1.76,1.38.69.14-.12.63,1.52.84-.12,1.46,1.01,1.07.39,1.23.95.2-.22,1.29-1.68,3.31-.22,2.23-1.94-.19-.12.63h-.69l-.1-.03-.22-.06-2.32-3.09-.07-.19h0s-.31-2.33-.31-2.33l-.4-.74-.74-1.38-1.31-3.05-1.4-3.15-.27-.19-1.22-.49-.84-.41-.27-.23-.34-.29-2.46-3.4-.02-.57v-.02l.3-1.85"/><path id="30089" d="m214.62,44.18l1.62,1.08.89-.27,1.78-.78,1.26,2.56.88,4.69.84,1.16.16.13,2.8,1.13,1.57-.35.75-.88.16-1.23,2.19.45.26.39-.59,2.91,1.96.39,1.32.22,2.62.5-.38,1.92-.2.97-.31,3.3,2.62.51.96.19.34.15.09.13-.06,2.31-.38.56-.13-.07-.08.02-.36.57-.39,1.1.34.63.13.14.38.17,1.32.26-.51,3.95-.2.98-1.11.19-.33-.12-.23-.16-.81-.82-.29-.79-.51-.51-1.83-1.36-1.12-.63-.88-.38-1.74-.21-.69-.14-1.76-1.38.28-1.37-.06-.51-.68-.59-3.08-2.17-.48-.24-1.72-.31-.13-.02-.53.14-2.09-.36-.63-.21-.76-.26-.35-.41-.55-.97.44-1.01.52-1.33v-1.29s0-.09,0-.09v-.03s-.03-.06-.03-.06l-.02-.08-3.09-6.3-.47-.84,1.12-5.31"/><path id="30053" d="m215.99,37.79l2.37-11.1,11.96,2.55,6.64,1.33,1.22.24-.02,3.17.67,2.66v.06l-.82,1.99-3.77-.75-.06,1.3.26.72-1.53,7.75-2.27-.46-.35-.06-.4,1.94-.4,2.75-2.19-.45-.16,1.23-.75.88-1.57.35-2.8-1.13-.16-.13-.84-1.16-.88-4.69-1.26-2.56-1.78.78-.89.27-1.62-1.08,1.37-6.39"/><path id="30029" d="m248.1,32.78l.28,3.93.64.45,3.13-.07.15,2.41-.62,3.33,3.6,1.76-.08.36-.1.24-.38,1.31,1.32,1.3.87.35.21.89-1.41.35.38.85,1.34,2.38-.14.95.04.13,1.41.97.1.06.11.04,1.35.42.15-.03,1.16,2.75.21,1.7-1.61-.36-.66.47-.83.88-.32,2.85-1.89.37-.04.18-.19,2.85-4.94-1-2.58-.47.88-1.73.07-.35.02-.56-.26-3.96-.03-.12-2.63-4.12-2.17-.43-.4.26-.3.27.02.54.11.02.07.1.03.17-.09.62-6.93-1.33-.18,1.3.02.68-.38,1.91-1.95-.38.38-1.92-2.62-.5-1.32-.22-1.96-.39.59-2.91-.26-.39.4-2.75.4-1.94.35.06,2.27.46,1.53-7.75-.26-.72.06-1.3,3.77.75.82-1.99v-.06l-.67-2.66.02-3.17,9.91,1.97"/><path id="30035" d="m274.48,49.64l-.42-.17-.57-.15-4.96-.86-.68,3.82-.06.06-11.71-2.12-.38-.85,1.41-.35-.21-.89-.87-.35-1.32-1.3.38-1.31.1-.24.08-.36-3.6-1.76.62-3.33-.15-2.41-3.13.07-.64-.45-.28-3.93,1.48.29,4.17.83,8.69,1.59,1.61.28,12.32,2.19-1.87,11.69"/><path id="30051" d="m290.3,40.29l7.98,1.26-.41,1.87-1.21,7.81-.59,3.22-.71,4.57-1.09-.17-.3,1.94-8.93-1.4.32-1.96,2.06.33,1.25-7.8,1.34-7.79.3-1.88"/><path id="30101" d="m274.48,49.64l1.87-11.69,5.13.88,1.39.24,3.83.63,3.59.59-.3,1.88-1.34,7.79-1.25,7.8-2.06-.33-3.95-.65.5-2.92-1.93-.2.06-.78-1.44-.59-1.48-.28.19-.85-2.7-1.26-.12-.26"/><path id="30073" d="m256.07,50.23l11.71,2.12.06-.06.68-3.82,4.96.86.57.15.42.17.12.26,2.7,1.26-.19.85,1.48.28,1.44.59-.06.78,1.93.2-.5,2.92,3.95.65-.32,1.96-.52,3.26-8.85-1.42.16-.92-.56-.14.14-.97-2.34-.59.18-1.17-12.82-2.3-.15.03-1.35-.42-.11-.04-.1-.06-1.41-.97-.04-.13.14-.95-1.34-2.38"/><path id="30099" d="m260.42,55.15l12.82,2.3-.18,1.17,2.34.59-.14.97.56.14-.16.92,8.85,1.42-1.08,6.51-3.98-.65-.32,1.95-3.95-.67-.71,2.32-1.58-.51-.99.05-1.62-.22-1.04-.39-1.74-1.24-.02-.05.02-.51.08-.11-.13-.47-1.75-1.45-.08-.02-1.77.37-1.82.24-.12-.02-.56-.31-.51-.79-.52-1.18-.06-.22.15-1.68-.22-4.36,1.61.36-.21-1.7-1.16-2.75"/><path id="30013" d="m272.88,71.61l1.58.51.71-2.32,3.95.67.32-1.95,3.98.65,6.68,1.06-.53.67-.33.33-.54.81-.1.28.07.18,1.61,1.62,2.32,1.06-.2,1.26,1.9.98-.19,1.29-1.98-.31-.51,1.12-.2,1.3-.3,3.52,1.98.31-.46,3.9-.3,1.96-.31.27-1.74-.61.24-1.01-2.01-2.56-.16-.14-2.54-.71.38-1.02-1.51-.42-.33,1.24-5.54-.99-.33,1.96-1.85-.3-2.06-.35.82-4.86-1.29-.21-.06.08-.34-.04-.59-.51-1.45-1.43,1.21-7.29"/><path id="30059" d="m276.65,86.22l1.85.3.33-1.96,5.54.99.33-1.24,1.51.42-.38,1.02,2.54.71.16.14,2.01,2.56-.24,1.01,1.74.61-.02.51.06.26.13.27.16.22,2.34,2.45,1.43.02,1.45-.27-.66,4.34-.66,3.49-.5,3.26-.12.82-7.92-1.41-4.39-.71-.14-1.07-.65-.78,1.99-2.27-1.4-1.56-1.52.33-.27-1.76-1.26-1.09.6-2.11-1.36-1.13-.73-2.55-.13-.72-1.94-1.19.62-.96-.48-.96"/><path id="30067" d="m287.73,104.75l7.92,1.41-.35,1.12-1.2,7.91,1.14.17-.58,4.15-.8,5.17-.26.57-.59,4,2.64.42,4.25.73-.55,3.76-3.66-.57-1.35-.21-1.82-.09-5.34-.72h-.04l-2.42-.38-.71-.24-2-.41-2.71-.42.31-2.27.28-1.72.77-3.95,1.93.31.5-3.59.99.12.17-.89.04-.62,1.11.1.78-4.67.34-2.02.26-1.66.12-1.19.54-3.21.28-1.12"/><path id="30041" d="m298.28,41.55l19.01,2.8-.59,2.95-.38,2.03-.67,4.73-1.09,6.15-.75,3.54-.99-.09-1.98-.28.3-2-1.77-.2.23-1.98-11.94-1.81-.3,1.95-1.99-.31.71-4.57.59-3.22,1.21-7.81.41-1.87"/><path id="30015" d="m295.35,59.02l1.99.31.3-1.95,11.94,1.81-.23,1.98,1.77.2-.3,2,1.98.28.99.09-1.35,8.94-.63-.29-1.54.08-1.77.34-.9.75v.52s-.53,2.24-.53,2.24l-.05.11-.42.31-4.9,1.79-.79-.11-6.62-1.01-1.9-.98.2-1.26-2.32-1.06-1.61-1.62-.07-.18.1-.27.54-.81.33-.33.53-.67-6.68-1.06,1.08-6.51.52-3.26,8.93,1.4.3-1.94,1.09.17"/><path id="30045" d="m294.31,77.41l6.62,1.01-.2,1.3,1.28.64-.14.8-.14,1.07,1.91.6.03.82,1.88.35-.08.62,1.77.19-.93,6.44-.29.72-.43.2-.13.94-.87.05,1.33,1.55-.13,1.15-1.16-.16-.69-.49-.99-.78-.14-.19-.33-.23-1.33-.13h-.8l-2.79.35-1.45.27-1.43-.02-2.34-2.45-.16-.22-.13-.27-.06-.26.02-.51.31-.26.3-1.96.46-3.9-1.98-.31.3-3.52.2-1.3.51-1.12,1.98.31.19-1.29"/><path id="30107" d="m305.81,95.86l5.6.8-.43,3.03-1.32,7.71-3.98-.57-9.93-1.49.5-3.26.66-3.49.66-4.34,2.79-.35h.8l1.33.13.33.23.14.19.99.78.69.49,1.16.16"/><path id="30097" d="m295.77,105.34l9.93,1.49-.28,1.98.91.04-.42,2.05,2.97.44-.27,1.25-.22,1.36-.99-.14-.2,1.34-.97-.15-.52,1.96-.54,3.96-1.97-.28-.23,1-1.9-.31-.22,1.07-1.89-.37-.59,3.95-2.1-.31-.61,4.02-2.64-.42.59-4,.26-.57.8-5.17.58-4.15-1.14-.17,1.2-7.91.35-1.12.12-.82"/><path id="30009" d="m316.66,122.48l.78-.45.27-.05-.09.59-.17.32-.13.2h-.06s.44,1.56.44,1.56l.82,1.48.85.11-.69.63-.54,1.87-.4,3,9.21,1.15-.14.3-2.47,4.49-6-.81-4.99-.66-2.13-.29-.33-.05-2.99-.55-8.54-1.16.55-3.76,1.73.26.68-2.08.99.05.52-1.52,1.27-1.16.76-.56,2.12-.71,2.64.38,1.2-1.2.1-.76.55-.56,2.06-.48.17.05.48.34.37.08.31.04.8-.09"/><path id="30095" d="m316.98,110.44l-.28,1.88-.22,2.05-.59,6.34.24.7.54,1.07-.8.09-.31-.04-.37-.08-.48-.34-.17-.05-2.06.48-.55.56-.1.76-1.2,1.2-2.64-.38-2.12.71-.76.56-1.27,1.17-.52,1.51-.99-.04-.68,2.08-1.73-.26-4.25-.73.61-4.02,2.1.31.59-3.95,1.89.37.22-1.07,1.9.31.23-1,1.97.28.54-3.96.52-1.96.97.15.2-1.34.99.14.22-1.36.27-1.24.32-1.99,7.79,1.08"/><path id="30037" d="m317.56,96.21l-.39,2.93.18,1.03,1.04,2.2,1.33,5.1-.45,3.28-2.29-.31-7.79-1.08-.32,1.98-2.97-.44.42-2.05-.91-.04.28-1.98,3.98.57,1.32-7.71.43-3.03.19-1.3,5.96.84"/><path id="30027" d="m312.46,72.67l1.7.68,1.83-.6.42-.28,4.66-.06.26.05.57.37.57,1.36.7.45.35.32.45.64.02.15-.06.12.36.65,1.23.72,4.84,1.86.17.02.25-.07.21-.26-.57,4.01-.26,2.07-.35.12-3.94-.49-2.14.55-.53,1.91-.27,1.95,2,.27-.83,5.92-.58,1.94-5.95-.84-5.96-.84-.19,1.3-5.6-.8.13-1.15-1.33-1.55.87-.05.13-.94.43-.2.29-.72.93-6.44-1.77-.19.08-.62-1.88-.35-.03-.82-1.91-.6.14-1.07.14-.8-1.28-.64.2-1.3.79.11,4.9-1.79.42-.31.05-.11.54-2.24v-.52s.89-.75.89-.75l1.77-.34,1.54-.08.63.29"/><path id="30005" d="m313.81,63.74l.75-3.54,1.09-6.15.67-4.73.38-2.03.59-2.95,1.6.22,4.91.71.91.13h.09l6.86.92.84.11,3.82.5-.08.63-.21,1.29-.81,3.83-.96-.16-1.53,6.76-.62-.17-.13.33-.97,4.69-.72,5.49-3.62.79-.21-.08-3.35-.43-.2,1.17-.43,3.08-.57-1.36-.57-.37-.26-.05-4.66.06-.42.28-1.83.6-1.7-.68,1.35-8.94"/><path id="30071" d="m322.46,74.18l.43-3.08.2-1.17,3.35.43.21.08,3.62-.79.72-5.49.97-4.69.13-.33.62.17,1.53-6.76.96.16.81-3.83.21-1.29.08-.63,16.07,1.99-.63,1.91-.83,6.94-.12,2.13-1.97.75-.26,1.99,1.12.15-.41,1.67-1.67-.21-.81,2.22-1.07,7.54-.5,4.05-.18.73-.3.63-.08.1-.11.05-.77-.12-1.33-.71-.19-.06-.63-.08-.95.44-.68,1.01-.56.62-1.8,1.87-.67.08-.1-.03.11-.85-.11-1.48-.08-.42-.6-.47-.14-.07-1.94-.31-.51.06-.66-.02-1.5-.12-.35-.07-.11-.08-.21.26-.25.07-.17-.02-4.84-1.86-1.23-.72-.36-.65.06-.12-.02-.15-.45-.64-.35-.32-.7-.45"/><path id="30069" d="m330.98,78.79l.11.08.35.07,1.5.12.66.02.51-.06,1.94.31.14.07.6.47.08.42.11,1.48-.11.85-1.13,2.08-.35,2.31-.65,8.44v.14s.06.07.06.07l.53.54.09.05.74,2.3-6.94-.84-1.75-.13-3.96-.52.58-1.94.83-5.92-2-.27.27-1.95.53-1.91,2.14-.55,3.94.49.35-.12.26-2.07.57-4.01"/><path id="30065" d="m317.56,96.21l5.95.84,3.96.52,1.75.13,6.94.84v6s-.3,2.29-.3,2.29l-2.31-.29-1.49,1.17-.36.62-.14,1-4.61-.6-1.41.46-.31,2.36-5.95-.79.45-3.28-1.33-5.1-1.04-2.2-.18-1.03.39-2.93"/><path id="30111" d="m336.16,104.54l.63.41.3.37,1.33,2.84,1.5,4.2-.4,1.99-.36,1.02-2.59-.32-.28,1.32-1.85-.25-.15.74-.6-.16-.11.64-.71.53-2.65-.28-.67,2.59-.79,6.05-4.12.8-2.06-.27-3.2-.51-.85-.11-.82-1.48-.44-1.55h.06s.13-.21.13-.21l.17-.32.09-.59-.27.05-.78.45-.54-1.07-.24-.7.59-6.34.22-2.05.28-1.88,2.29.31,5.95.79.31-2.36,1.41-.46,4.61.6.14-1,.36-.62,1.49-1.17,2.31.29.3-2.29"/><path id="30003" d="m347.82,120.4l-.11.88.03,3.42,1.04.29,1.54.18.32.12-.83,7.34h-.34s-.23,1.25-.23,1.25l-.51,2.6,3.95.55,2,.18,1.93.15-.2,4.28-10.11-1.18-3.1-.38-.86-.18-7.66-.94-4.6-.56-5.76-.71,2.47-4.49.14-.3-9.21-1.15.4-3,.54-1.87.69-.63,3.2.51,2.06.27,4.12-.8.79-6.05.67-2.59,2.65.28.71-.53.11-.64.6.16.15-.74,1.85.25.28-1.32,2.59.32,1.38.17-.24,1.97,3.96.47.74,1.09,1.01,1.12,1.81.21"/><path id="30103" d="m336.79,104.95l8.92,1.07-.3,1.96,2.38.29-.75,5.76,1.48.29-.7,6.07-1.81-.21-1.01-1.12-.74-1.09-3.96-.47.24-1.97-1.38-.17.36-1.02.4-1.99-1.5-4.2-1.33-2.84-.3-.37"/><path id="30087" d="m335.43,96.23l6.69.83.31-.08h.6l.54.06,10.31,1.21.56.29,1.16.24,8.22.88-.58.28-.75,5.26-.64,2.6-.57,5.32v.59s-.37,1.3-.37,1.3l-.48.62-.87,7.95-.68-.06-.39,3.74-.71,4.14-.13,2.14-.58-.09-.43,3.9-1.93-.15-2-.18-3.95-.55.51-2.6.23-1.24h.34s.83-7.35.83-7.35l-.32-.12-1.54-.18-1.04-.29-.03-3.42.11-.88.7-6.07-1.48-.29.75-5.76-2.38-.29.3-1.96-8.92-1.07-.63-.41v-6s-.73-2.3-.73-2.3"/><path id="30033" d="m361.36,73.85l.93.11-.46,1.98,1.75.2-.91,7.91-.78-.04-.15,3.73,1.99.21-.42,3.95,1.31.14-.77,7.3-.03.32-8.22-.88-1.16-.24-.56-.29-10.31-1.21-.54-.06h-.6l-.31.08-6.69-.83-.09-.05-.53-.54-.06-.07v-.14s.64-8.44.64-8.44l.35-2.31,1.13-2.08.1.03.67-.08,1.8-1.87.56-.62.68-1.01.95-.44.63.08.19.06,1.33.71.77.12.11-.05.08-.1.3-.63.18-.73,2.52,1,3.4.42h.23l1.46-.05.39-.05.27-.08,3.95-2.14,2.65-3.53.79-.18.48.36"/><path id="30019" d="m368.63,50.78l16.07,1.62-.19,2-.27,5.92,1,.1-.19,1.96-12.76-1.26-3.83-.1,1.12-6.14-1.99-.21.22-1.96.48-.63.34-1.31"/><path id="30105" d="m368.63,50.78l-.34,1.31-.48.63-.22,1.96,1.99.21-1.12,6.14,3.83.1-.8,7.8-.6-.06-.5,4.73-1.19.03-4.74-1.02-.22-.1-.39-.41-1.83-.63-.11.05-.09.11-.22.3-.22.56v1.38s-.49-.36-.49-.36l-.79.18-2.65,3.53-3.95,2.14-.27.08-.39.05-1.46.05h-.23l-3.4-.43-2.52-1,.5-4.05,1.07-7.54.81-2.22,1.67.21.41-1.67-1.12-.15.26-1.99,1.97-.75.12-2.13.83-6.94.63-1.91,16.26,1.84"/><path id="30055" d="m380.55,73.36l-.13,1.49-.28,2.67-.64.26-.17,1.76-2-.19-.71,6.26-.64-.16-.69,7.68-6.69-.67-.2,2-.68-.06-1.33-.15.21-2-1.98-.21-1.31-.14.42-3.95-1.99-.21.15-3.73.78.04.91-7.91-1.75-.2.46-1.98-.93-.11v-1.38s.22-.56.22-.56l.22-.3.09-.11.11-.05,1.83.63.39.41.22.1,4.74,1.02,1.19-.03,2.41-.74.84-.46.76-.03,2.81.04,1.15.05,1.32.26.88.63"/><path id="30079" d="m364.62,92.04l1.98.21-.21,2,1.33.15.68.06.2-2,6.69.67,1.28.13-.47,4.65,2.02.19-.18,1.34,2.06.18.3.34.29.49-.06.54,6.69.64-.42,4.01-.06.66-1.99-.18-.09.99-1.99-.18-.42.96-1.74.5-4.03-.4-3.25-1-.55-.73-.8-1.42-.27-2.02-.45-2.06-3.33-.99-3.99-.42.77-7.3"/><path id="30075" d="m359.56,123.59l19.36,2-.73,7.88-.29,2.06-.83-.07-.77,8.05-1.15-.11-11.97-1.2-3.09-.16-3.66-.4.2-4.28.43-3.9.58.09.13-2.14.71-4.14.39-3.74.68.06"/><path id="30017" d="m363.85,99.33l3.99.42,3.33.99.45,2.06.27,2.02.8,1.42.55.73,3.25,1,4.03.4,1.74-.5.42-.96,1.99.18-.28,2.98-2.74-.26-.22,2.45.02.95.17.49-.38,4.03-.85-.08-.75,7.99-.69-.06-19.36-2,.87-7.95.48-.62.36-1.3v-.59s.58-5.32.58-5.32l.64-2.6.75-5.26.58-.28.03-.32"/><path id="30011" d="m381.21,117.75l4.12.39,1.76.36-.27,1.58,1.15.16,1.13.15-.33,1.87,1.38.18,2.71.21-.17,1.98,1.45.13-1.24,15.33-.7,4.92-15.9-1.5.77-8.05.83.07.29-2.06.73-7.88.69.06.75-7.99.85.08"/><path id="30025" d="m384.66,107.1l.09-.99,1.99.18.06-.66,2.99.26.98.42-.06.67,4.89.42-.19,2.3-.52,5.96-.64,7.66-.11,1.45-1.45-.13.17-1.98-2.71-.21-1.38-.18.33-1.87-1.13-.15-1.15-.16.27-1.58-1.76-.36-4.12-.39.38-4.03-.17-.49-.02-.95.22-2.45,2.74.26.28-2.98"/><path id="30109" d="m397.07,90.17l-.14,1.54-1.33,15.7-4.89-.42.06-.67-.98-.42-2.99-.26.42-4.01,1.69.15,1.06-.57.36-.3,1.54-2.2.42-.8.15-1.83-.04-1.33-.04-.34-.13-.51-1.68-2.35.56-.92,4.52.41.09-1,1.35.12"/><path id="30021" d="m379.33,79.54l-.2,1.98,4,.39-.2,1.98,6,.56-.22,1.8,1.3.29-.36,3.97,1.45.13-.56.92,1.68,2.35.13.51.04.34.04,1.33-.15,1.83-.42.8-1.54,2.2-.36.3-1.06.57-1.69-.15-6.69-.64.06-.54-.29-.49-.3-.34-2.06-.18.18-1.34-2.02-.19.47-4.65-1.28-.13.69-7.68.64.16.71-6.26,2,.19"/><path id="30083" d="m398.23,76.55l-1.16,13.61-1.35-.12-.09,1-4.52-.41-1.45-.13.36-3.97-1.3-.29.22-1.8-6-.56.2-1.98-4-.39.2-1.98.17-1.76.64-.26.28-2.67.13-1.49,1.15.22h1.89l.33-.17.5-.38.41-.55.91-.37,6.51,1.64,3.04,1.77,2.95,1.02"/></g></svg>