<?xml version="1.0" encoding="UTF-8"?><svg xmlns="http://www.w3.org/2000/svg" viewBox="0 0 989.98 627.07"><g><path id="31045" d="m397.54,191.64l8.43.65,3.49.26-.36,4.95.22,1.34-.47,6.64-11.32-.79-.6-.05.62-8.01-.14-.9-.04-1.77.17-2.34"/><path id="31165" d="m397.54,191.64l-.17,2.34.04,1.77.14.9-.62,8.01.6.05-.62,7.99.71.06-.15,2-11.04-.85,1.95-23.01,9.16.75"/><path id="31147" d="m523.08,260l7.99-.03,4.3,6.04h-.55l-7.84.03h-3.9v-6.04"/><path id="31133" d="m515.18,259.96l6.92.02.98.02v6.04h-4l-3.93-.02.03-6.05"/><path id="31127" d="m522.1,253.93l6.2-.02.23-.49.65.58-.38.68-.2.18.1.41,1.13,2.85,1.21,1.18.05.12v.04s0,.03,0,.03l-.02.42v.06l-7.99.03-.98-.02v-6.05"/><path id="31097" d="m522.1,253.93v6.05l-6.92-.02.03-6.04h6.89"/><path id="31131" d="m525.78,247.9l1.55,4.6.97,1.41-6.2.02h-6.89l.02-6.05,10.55.02"/><path id="31025" d="m517.76,241.84l.13.2.25.23,1.27.72.15.02.47-.18.51-.26.27-.21.18-.24.39-.36.17-.11.75-.28h.39l2.36.15.13.02.39.27.76,3.36-.54,2.73-10.55-.02.03-5.38,2.43-.04.07-.62"/><path id="31153" d="m517.62,238.48l6.96-.02,1.21.72-.23,2.62-.39-.27-.13-.02-2.36-.15h-.39l-.75.28-.17.11-.39.36-.18.24-.27.21-.51.26-.47.18-.15-.02-1.27-.72-.25-.23-.13-.2-.14-3.36"/><path id="31055" d="m515.18,233.77l2.44.02h6.71l.26,4.68-6.96.02-.39-2.57-2.05-2.15"/><path id="31177" d="m515.66,227.05l5.52.04,2.4,4.07.75,2.63h-6.71l-.03-.87-1.14-.1-.47-1.1-.16-.42-.15-.55v-3.7"/><path id="31021" d="m518.62,218.65l2.26,4.2.3,4.24-5.52-.04.04-1.27-1.92-.09.04-6.34,4.86.05-.07-.75"/><path id="31173" d="m510.95,213.27l6.48.07-.21,1.42,1.41,3.89.07.75-4.86-.05.02-1.56-4.58-.19.06-4.03,1.62-.3"/><path id="31043" d="m512.52,207.59l3.25.83.58.04.22.09.18.25.07.26v.35s-.11.32-.11.32l.2,2.65.52.96-6.48-.07.17-5.66,1.4-.02"/><path id="31051" d="m506.16,202.12l3.52,1.32,1.37.87.19.42.1.38-.06.27v.21s.04.21.04.21l1.21,1.79-1.4.02-.17,5.66-1.62.3h-3.33s.04-2.04.04-2.04l.13-9.42"/><path id="31179" d="m500.11,211.44l5.92.09-.04,2.04h3.33s-.06,4.02-.06,4.02l-3.32-.04-5.93-.08.1-6.03"/><path id="31139" d="m492.09,217.37l.15-8.05,5.91.09,1.99-.02-.03,2.05-.1,6.03-7.92-.1"/><path id="31027" d="m498.3,199.41l1.04.24.81-.35.81-.17,1.05.45,1.05.13.03.83.97.68,2.1.89-.13,9.42-5.92-.09.03-2.05-1.99.02.15-10"/><path id="31107" d="m484.47,198.9l2.36,1.07,1.83,1.58.36.16.3.05h.28s.85-.14.85-.14l.22-.14.47-.43.35-.51.43-.54.2-.62.8-.13.51.58.57.05.51-.69.52.14.42.67.66-.73.62.08.12.49.91-.24.53-.19-.15,10-5.91-.09-7.87-.15.1-7.49v-2.78"/><path id="31053" d="m513.78,225.69l1.92.09-.04,1.27v3.7s.14.55.14.55l.16.42.47,1.1,1.14.1.03.87-2.44-.02-7.45-1.45v-.02l.06-6.67,5.99.07"/><path id="31037" d="m505.84,225.6l1.95.02-.06,6.67h-.25l-.23.06-2.57,1.24-1.8.41h-1.13l.13-8.45,3.97.05"/><path id="31039" d="m505.94,217.56l3.32.04,4.58.19-.02,1.56-.04,6.34-5.99-.07-1.95-.02.1-8.04"/><path id="31167" d="m505.94,217.56l-.1,8.04-3.97-.05-1.98-.03.11-8.05,5.93.08"/><path id="31119" d="m492.09,217.37l7.92.1-.11,8.05-7.9-.11.04-4.03.06-4.01"/><path id="31003" d="m492.09,217.37l-.06,4.01-7.87-.13.02-4.02.2-8.05,7.87.15-.15,8.05"/><path id="31011" d="m484.16,221.25l7.87.13-.04,4.03-.08,5h-.95l-2.88.64-.81.33-3.29-.07.07-6.03.1-4.01"/><path id="31141" d="m499.9,225.52l1.98.03-.13,8.45-1.96-.42-3.98,1.37.09-1.38-1.88-.09.09-3.02-2.19-.06.08-5,7.9.11"/><path id="31155" d="m507.73,232.32l7.45,1.45,2.05,2.15.39,2.57.14,3.36-.07.62-2.43.04v-.67s-7.67-.08-7.67-.08l.14-9.43"/><path id="31159" d="m507.55,241.75l-.12,8.06-7.88-.11.11-8.07,7.89.11"/><path id="31023" d="m499.66,241.64l.12-8.06,1.96.42h1.13l1.8-.41,2.57-1.24.23-.06h.25v.02l-.14,9.43h-.04l-7.89-.11"/><path id="31143" d="m495.81,234.96l3.98-1.37-.12,8.06-7.9-.13.02-2.94,2.66-3.07,1.36-.54"/><path id="31185" d="m499.66,241.64l-.11,8.07-7.91-.15h-.02l.15-8.05,7.9.13"/><path id="31081" d="m491.77,241.51l-.15,8.05-7.83-.16h-.08l.1-4.03.85-1,1.82-1.81,2.15-1.71.65-.45.1.15h.02l.38-.13.89-.43.22-.17.27-.31.5-.67.14-.27-.02,2.94"/><path id="31125" d="m483.99,231.29l3.29.07.81-.33,2.88-.64h.95l2.19.06-.09,3.02-.06,1.99-2.45-.02-2.62.27-1.52.32-.74.31-2.13-.04h-.35l.1-3h-.22s-.09,0-.09,0l.06-2.01"/><path id="31121" d="m484.03,233.3h.22s-.1,3.01-.1,3.01h.35l2.13.04.74-.31,1.52-.32,2.62-.27,2.45.02.06-1.99,1.88.09-.09,1.38-1.36.54-2.66,3.07-.14.27-.5.67-.27.31-.22.17-.89.43-.38.13h-.02l-.1-.15-.65.45-2.15,1.71-1.82,1.81-.85,1,.02-4.03.2-8.05"/><path id="31079" d="m476.33,241.14l7.5.2-.02,4.03-.1,4.03-7.6-.22.22-8.04"/><path id="31093" d="m476.18,233.08l7.76.22h.09l-.2,8.05-7.5-.2-.46-.02.3-8.04"/><path id="31163" d="m476.05,233.08h.13l-.3,8.04-7.92-.26.35-8.03,7.75.24"/><path id="31015" d="m468.7,195.74l12.67.37,3.1,2.78v2.78s-2.64-.18-2.64-.18l-1.81-.34-2.75-.93-1.51-.52-1.7-.98-.41-.42-.2-.07h-.26l-.19.05-2.9,1.21-1.45.62-.13.1.19-4.47"/><path id="31089" d="m468.5,200.21l.13-.1,1.45-.62,2.9-1.21.19-.05h.26l.2.07.41.42,1.7.98,1.51.52,2.75.93,1.81.34,2.65.19-.1,7.49-.2,8.05-7.83-.2-7.84-.23h-.2l.26-7.37.07-7.94-.14-1.26"/><path id="31175" d="m468.42,224.82l7.73.25h.12l-.22,8.01-7.75-.24.12-8.02"/><path id="31077" d="m484.07,225.26l-.07,6.03-.06,2.01-7.76-.22h-.13l.22-8.01,7.79.18"/><path id="31183" d="m484.18,217.22l-.02,4.02-.1,4.01-7.79-.18h-.12l.2-8.05,7.83.2"/><path id="31071" d="m468.25,224.81l.26-8.03,7.84.23-.2,8.05-7.73-.25h-.17"/><path id="31115" d="m468.31,216.78h.2l-.26,8.03-7.93-.28.3-7.99.42.02,7.27.22"/><path id="31149" d="m468.31,216.78l-7.27-.22.29-8.06h-.21l.24-6.85,1.27.27.93.1.34-.05.59-.22,3.69-1.34.14-.07.17-.14.14,1.26-.07,7.94-.26,7.37"/><path id="31103" d="m452.88,195.11l11.13.47,4.69.17-.19,4.47-.17.14-.14.07-3.69,1.34-.59.22-.34.05-.93-.1-1.27-.27-.15.06h-.31l-1.24-.22-4.62-1.35-.96-.39-.32-.19-1.05-.93.16-3.52"/><path id="31017" d="m461.37,201.65l-.24,6.85h.21l-.29,8.06-.42-.02-8.16-.33.35-8.03-.11-9.55,1.05.93.32.19.96.39,4.62,1.35,1.24.22h.31l.15-.06"/><path id="31009" d="m450.78,216.13l1.7.08,8.16.33-.3,7.99-9.63-.39-.25-.02.33-8"/><path id="31041" d="m460.32,224.53l7.93.28h.17l-.12,8.02-.35,8.03-3.76-.12-13.76-.56h-.24l.14-2.68.15-2.31.1-2.93-.25-.1.36-8.01,9.63.39"/><path id="31019" d="m464.2,240.75l3.76.12,7.92.26.46.02-.22,8.04-.06.22-.55.06-1.25.25-.67.31-.71.14-2.11-.07-2.47-.21-.15-.06-4.11-.38.16-8.7"/><path id="31047" d="m450.44,240.19l13.76.56-.16,8.7-3.91-.48-5.84-.58-4.19-.19.34-8.01"/><path id="31137" d="m460.13,248.98l3.91.48,4.11.38-.24,7.17-7.86-.29h-.2l.28-7.73"/><path id="31099" d="m476.05,249.4l-.21,7.86h-.06l-7.87-.25.24-7.17.15.06,2.47.21,2.11.07.71-.14.67-.31,1.25-.25.55-.06"/><path id="31001" d="m476.05,249.4l.06-.22,7.6.22h.08l-.19,8.06-7.75-.2.21-7.86"/><path id="31035" d="m491.62,249.56h.02l-.14,8.07-7.83-.17h-.08l.19-8.06,7.83.16"/><path id="31059" d="m499.55,249.71l-.12,8.06-7.88-.14h-.06l.14-8.07,7.91.15"/><path id="31151" d="m499.55,249.71l7.88.11-.03,4.04-.1,4.03-7.87-.11.12-8.06"/><path id="31109" d="m507.59,241.75l7.68.08v.67s-.04,5.38-.04,5.38l-.02,6.05-7.8-.07.03-4.04.12-8.06h.04"/><path id="31067" d="m515.2,253.93l-.03,6.04-.03,6.05-5.98-.05-1.94-.02.07-8.06.1-4.02,7.8.07"/><path id="31095" d="m499.43,257.77l7.87.11-.07,8.06-7.93-.11.13-8.07"/><path id="31169" d="m499.43,257.77l-.13,8.07-7.91-.13.17-8.08,7.88.14"/><path id="31129" d="m491.5,257.63h.06l-.17,8.08-1.93-.04-5.99-.14.2-8.06,7.83.17"/><path id="31181" d="m475.84,257.26l7.75.2h.08l-.2,8.06-4.03-.09-3.88-.11.22-8.07h.06"/><path id="31061" d="m475.78,257.25l-.22,8.07-5.95-.18-1.96-.06.26-8.08,7.87.25"/><path id="31083" d="m460.05,256.72l7.86.29-.26,8.08-7.82-.28h-.04l.27-8.08"/><path id="31073" d="m460.13,248.98l-.28,7.73-7.87-.32.08-2.02,1.98.09.25-6.06,5.84.58"/><path id="31065" d="m450.18,256.33l1.79.05,7.87.32h.2l-.27,8.08-9.61-.39-.27-.02.28-8.07"/><path id="31145" d="m440.43,255.88l9.76.45-.28,8.07-9.53-.46-.35-.03.4-8.04"/><path id="31087" d="m430.61,255.34l9.5.53h.32l-.4,8.03-9.88-.53.47-8.04"/><path id="31057" d="m430.27,255.33h.34s-.47,8.05-.47,8.05l-1.52-.08-11.19-.69.51-8,12.33.72"/><path id="31063" d="m440.5,247.75l9.6.45,4.19.19-.25,6.06-1.98-.09-.08,2.02-1.79-.05-9.76-.45h-.32l.39-8.12"/><path id="31085" d="m440.5,247.75l-.39,8.12-9.5-.53h-.34s.41-8.06.41-8.06l1.69.1,8.13.38"/><path id="31029" d="m418.46,246.56l12.21.72-.41,8.05-12.33-.72.52-8.05"/><path id="31135" d="m418.91,239.51v-.03s13.81.82,13.81.82l-.35,7.08-1.69-.1-12.21-.72.08-1.21.36-5.84"/><path id="31111" d="m442.41,231.77l7.92.38.25.1-.1,2.93-.15,2.31-.14,2.68h.24l-.34,8.01-9.6-.45-8.13-.38.35-7.08.16-9.05,9.53.53"/><path id="31101" d="m420.63,230.52l9.89.58,2.36.14-.16,9.06-13.81-.82.25-5.03.21-4.04,1.26.11"/><path id="31113" d="m442.84,223.78l7.61.35.25.02-.36,8.01-7.92-.38.43-8"/><path id="31117" d="m430.99,223.06l4.38.26,3,.21,2.24.11,2.23.13-.43,8-9.53-.53-2.36-.14.47-8.04"/><path id="31005" d="m421.12,222.49l9.54.55.33.02-.47,8.04-9.89-.58.49-8.02"/><path id="31171" d="m440.96,215.6l9.82.52-.33,8-7.61-.35-2.23-.13.34-8.04"/><path id="31091" d="m431.11,214.99l9.84.62-.34,8.04-2.24-.11-3-.21-4.38-.26-.33-.02.45-8.06"/><path id="31075" d="m420.14,216.24l1,.08.16-2.02,9.82.69-.45,8.06-9.54-.55-1.41-.08.42-6.17"/><path id="31049" d="m409.64,233.81l9.52.64-.25,5.03v.03s-9.81-.66-9.81-.66l.54-5.05"/><path id="31069" d="m420.14,216.24l-.42,6.17,1.41.08-.49,8.02-1.26-.11-.21,4.04-9.52-.64.33-3.64-.52-.04.08-1.37.39-5.72-.38-1.34-.11-.67-.02-.41.06-1.23.29-3.74,10.38.6"/><path id="31033" d="m409.54,228.75l-.08,1.37.52.04-.33,3.64-.54,5.05-.56-.03-12.55-.92.8-9.05.17.02.06-1.01,12.52.89"/><path id="31123" d="m409.42,215.62l.35.02-.29,3.74-.06,1.23.02.41.11.67.38,1.34-.39,5.72-12.52-.89.44-6.03.67-7,11.29.79"/><path id="31105" d="m396.79,228.85l-.8,9.06-3.3-.26-8.23-.67.78-9.03,11.55.91"/><path id="31007" d="m397.46,221.83l-.44,6.03-.06,1.01-.17-.02-11.55-.91.59-7.03,11.63.92"/><path id="31157" d="m397.47,214.76l.65.06-.67,7-11.63-.92.6-7,11.04.85"/><path id="31013" d="m409.42,215.62l-11.29-.79-.65-.06.15-2-.71-.06.62-7.99,11.32.79.4.02-.51,8.25.8.12-.13,1.74"/><path id="31031" d="m421.33,193.38l3.46.23,4.18.32,6.66.35,5.38.28,6.07.28,3.26.15,1.2.06,1.33.07-.16,3.52.11,9.55-.35,8.03-1.7-.08-9.82-.52-9.84-.62-9.82-.69-.58-.05.61-9.34-.3-.03.24-7.2h-.15s.21-4.3.21-4.3"/><path id="31161" d="m421.33,193.38l-.21,4.29h.15s-.24,7.2-.24,7.2l.3.03-.61,9.34.58.05-.16,2.02-1-.08-10.38-.6-.35-.02.13-1.74-.8-.12.51-8.25-.4-.02.47-6.64-.22-1.34.36-4.95,11.88.82"/></g></svg>