<?xml version="1.0" encoding="UTF-8"?><svg xmlns="http://www.w3.org/2000/svg" viewBox="0 0 989.98 627.07"><path id="32007" d="m201.52,187.51l2.08.33,2.52.51,4.4,1,3.62.71,4,.79-4.35,22.59-3.93,20.07-3.52-.67-10.53-2.22-3.87-.79-3.91-.84-3.39-.79-5.35-1.12-2.84-.59-.06-10.14v-2.23s.06-.64.06-.64l1.57-7.33-7.22-1.59-7.27-1.61,5.08-22.57,6.49,1.49,1.93.44,24.5,5.2"/><path id="32033" d="m179.29,227.06l5.35,1.12,3.39.79,3.91.84,3.87.79,10.53,2.22,3.52.67-.93,4.8-1.6,8.26-3.82,19.69-16.63-3.29-13.48-14.26,1.32-6.21.17-.5.72-.53.43-.41.44-.52.63-1.28,1.57-5.84.65-5.79-.02-.56"/><path id="32003" d="m162.45,301.31l2.34.52.5-.16,13.27,2.74,2.89.59,1.32.49,12.7,2.51-.72,3.79-.09.46-.73,4.17-.44,2.32-.78,4.04-2.33,3.15-.25.28-.1.06h-.02l-1.12-.02-.36-.04-.1-.02-.23-.18-.16-.17-.43-.68-.13-.39-.02-.19v-.05s-.04-.18-.04-.18l-.22-.56-.55-.77-.25-.23-2.34-.69-1.06-.22h-1.13l-2.06.48-.18.1-.25.23-.02.15-.23,2.25-.5,6.59-.22,4.03.24,2.84.17,1.35.02.67-.13,2.8-.02.51-.1.46-.17.55-1.72,2.88-2.51-3.74-6.82-10.2-.47-.7-1.27-1.9-3.69-5.54-3.62-5.38,4.11-19"/><path id="32017" d="m186.87,262.97l16.63,3.29-.47,2.38-1.85,9.66-2.43,12.37-2.61,13.76-.69,3.58-12.7-2.51-1.32-.49-2.89-.59-13.27-2.74-.5.16-2.34-.52.34-1.79,1.03-4.84,4.45-20.74,15.72,3.26,2.88-14.24"/><path id="32009" d="m138.96,257.38l6.74,12.77-5.29,23.3-9.24-13.88-8.19-12.22.24.12,1.12.26,6.52-4.65,8.1-5.7"/><path id="32023" d="m139.1,243.14l1.65-.09,4.98.06,3.05.13,12.62,2.87,12.01,2.59,13.48,14.26-2.88,14.24-15.72-3.26-4.45,20.74-1.03,4.84-.34,1.79-4.11,19-.21-.31-2.64-3.95-.63-.95-4.92-7.39-6.07-9.08-1.15-1.74-1.97-2.93-.34-.51,5.29-23.3-13.14-24.88.43-1.82,6.11-.31"/><path id="32011" d="m170.79,204.56l7.22,1.59-1.57,7.33-.05.64v2.23s.05,10.14.05,10.14l2.84.59.02.56-.65,5.79-1.57,5.84-.63,1.28-.44.52-.43.41-.72.53-.17.5-1.32,6.21-12.01-2.59.33-1.2.99-4.12,1.73-7.65,1.67-7.6-.1-.04-.05-.03,1.71-7.3,2.68-12.43.44-1.18"/><path id="32015" d="m163.52,202.94l7.27,1.61-.44,1.18-2.68,12.43-1.71,7.3.05.03.1.04-1.67,7.6-1.73,7.65-.99,4.12-.33,1.2-12.62-2.87-3.05-.13-4.98-.06-.17-.61.1-.63,1.33-.06.38-1.74-.05-2.75.14-.35.23-.27,2.28-1.55,1.17-.55,1.46-.29.13.03.12-.04.23-.22.17-.36.51-2.02,1.35-6.65-.62-1.49,6.81-10.91,1.51-2.43,3.87.86,1.82-8.06"/><path id="32021" d="m123.78,239.44l15.32,3.69-6.11.31-.43,1.82,6.4,12.11-8.1,5.7-6.52,4.65-1.12-.26-.24-.12-9.82-14.77,4.34,1.07.56-2.23,1.37-5.65.14-2.03-1.52-.37.51-2.07.99-1.2,1.2-1.38,3.04.72"/><path id="32005" d="m102.52,233.2l2.1.53,2.01.84.05.36,3.46.86,4.11,1.08-.51,2.09h-.68l-.92-.23-.49.56-.74,1.55-.17.66.09,2.1.16.74.37,1.35-.2,2.23-.29,1.22-3.43-5.13-4.23-6.35-.91-3.45.24-1.01"/><path id="32510" d="m102.81,232.01l5.49-.63.29,1.06.49.46,1.49.37v.12s-.36,2.31-.36,2.31l-.07.09-3.46-.86-.05-.36-2.01-.84-2.1-.53.29-1.2"/><path id="32019" d="m119.36,225.09l1.93-1.21.47-.19-.62,1.7-1.15,2.53-.73,2.92,1.65,2.86,1.03,1.64.81,1.2,1.23,2.07-.2.84-3.04-.72-1.2,1.38-.99,1.2-.51,2.07,1.52.37-.14,2.03-1.37,5.65-.56,2.23-4.34-1.07-2.31-3.43.29-1.22.2-2.23-.37-1.35-.16-.74-.09-2.1.17-.66.74-1.55.49-.56.92.23h.68l.51-2.09-4.11-1.08.07-.09.37-2.31v-.12s-1.5-.37-1.5-.37l-.49-.46-.29-1.06,1.21-.07,3.29-.86,4.94-5.54,1.62.18"/><path id="32001" d="m149.52,223.49l.62,1.49-1.35,6.65-.51,2.02-.17.36-.23.22-.12.04-.13-.03-1.46.29-1.17.55-2.28,1.55-.23.27-.14.35.05,2.75-.38,1.74-1.33.06-.1.63.17.61-1.65.09-15.32-3.69.2-.84-1.23-2.07-.81-1.2-1.03-1.64-1.65-2.86.73-2.92,1.15-2.53.62-1.7-.47.19-1.93,1.21.44-1.07.52-2.42-.15-.83.46-3.15.23-.97,10.52,2.62,6.06,1.36,5.2,1.22,6.88,1.64"/><path id="32027" d="m156.33,212.58l-6.81,10.91-6.88-1.64-5.2-1.22-6.06-1.36-10.52-2.62-1.95-.47,2.94-11.66.44.1,2.54-9.92,8.77,2.16-.58,2.36,19.23,4.53-.91,3.91,5.65,1.32.14.06v.14s-.8,3.39-.8,3.39"/><path id="32029" d="m117.74,224.9l-4.94,5.54-3.29.86-1.21.07,1.39-1.58.72-2.6-.22-.63.06-1.13,2.68-.33,1.33.14,1.78.05.83-.13.86-.26"/><path id="32031" d="m129.81,171.27l.59.15-.81,3.07-1.5,5.99-.61,4.04-.61,2.44-.43,1.03-.42.45-1.1,4.38-.43,1.8.34.08-2.54,9.92-.44-.1-2.94,11.66,1.95.47-.23.97-.46,3.15.15.83-.52,2.42-.44,1.07-1.62-.18-.86.26-.83.13-1.78-.05-1.33-.14-2.68.33-.06,1.13.22.63-.72,2.6-1.39,1.58-5.49.63.86-3.38.78-2.88,1.64-6.21.35-1.31,1.73-6.51,1.12-4.28v-.02s.34-1.29.34-1.29l1.04-4.01,2.06-8.22,1.83-7.13,4.7-18.16,10.53,2.68"/><path id="32013" d="m130.4,171.42l9.02,2.27,9.62,2.21,19.43,4.42.13.05-6.89,30.63-3.87-.86-1.51,2.43.79-3.39v-.14s-.13-.06-.13-.06l-5.65-1.32.91-3.91-19.23-4.53.58-2.36-8.77-2.16-.34-.08.43-1.8,1.1-4.38.42-.45.43-1.03.61-2.44.61-4.04,1.5-5.99.81-3.07"/></svg>