<?xml version="1.0" encoding="UTF-8"?><svg xmlns="http://www.w3.org/2000/svg" viewBox="0 0 989.98 627.07"><g><path id="36019" d="m888.66,106.5l-.03.39.62.64.17.83-.33,1.07.04.96,1,.72-.12,1.79.08,1.59.13.89.29.97.27.22.47.27-1.94.69.06.43-.3.84-1.12.79-1.43.89-1.25.26-2.52.91-.56-1.64-.59-1.56-1.23-2.85-2.09-5.12-.4-1.08,2.39-.69,3.95-1,4.42-1.23"/><path id="36031" d="m882.77,121.67l2.52-.91,1.25-.26,1.43-.89,1.12-.79.3-.84-.06-.43,1.94-.69.76.92.23.5.3.8h0s.03.26.03.26l-.18,1.38.63,2.38-.67,1.92v1.9s0,.75,0,.75l.04.76.51.36,1.45,4.24.28.51-.92.34-9.67,3.7-.02-.87-.1-.34-1.83-.35-.59.27-.19.13-.16.27-2.59-2.11,1.07-1.3-1.2-3.29,2.94-1.09-2.19-5.87,3.58-1.37"/><path id="36073" d="m822.77,165.1l-1.09.25-5.7,1.1-.89.22-.99-5.52,7.71-1.31.96,5.27"/><path id="36037" d="m822.77,165.1l1.5-.27-.44,2.21.83-.13.19,1.21-.19,2.98-8.44,1.48-.93-5.01-.19-.91.89-.22,5.7-1.1,1.09-.25"/><path id="36121" d="m816.21,172.58l8.44-1.48.83,4.42-.31,1.19-.62.54-.14.78-.1.82.02.07.41.19-4.48.85-2.53.62-.11-.48-1.02-5.55-.42.07-.34-1.99.36-.07"/><path id="36051" d="m824.84,168.12l2.95-.59.19.16.08.15-.09.63-.02.05-.43.1-.03.03.04.06,2-.38.91-.27.26.21.15.24.26.6.2.87v.03l-.59.12.51,1.98-.5.16.62,2.02,1.65-.29.37,1,.21,1.08-2.71.62.15,1.1-.99.17.15,1.27-1.96.3-.19-.98-3.3.56-.41-.19-.02-.07.1-.82.14-.78.62-.54.31-1.19-.83-4.42.19-2.98"/><path id="36093" d="m887.61,155.48l.63-.1,2.22.61.74.53.19.54,1.47,1.25.11.06.22-.02-5.82,2.53-.13.62-1.21.16-.33-.75.38-.91-.43-.29-.03-.06.06-.31,2.39-2.59-.46-1.27"/><path id="36057" d="m887.4,154.87l.21.6.46,1.27-2.39,2.59-.06.31.03.06-1.16.61-1.85.65-1.96-.49-1.5-.06-2.06-.33-.89-4.16,3.88.58.88-.19,6.41-1.44"/><path id="36035" d="m875.78,150.37l3.2.64,3.12-.95.48.54,1.63-.27-.05-.86.19-.25.91-.29,2.13,5.93-6.41,1.44-.88.19-3.88-.58-.35-.99.74-1.91-.84-2.64"/><path id="36099" d="m844.34,163.38l-.1,1.5.77,3.9.1.43.36,1.09.08.17.12.18,1.32,1.63,1.82,1.33-1.97.51-3.26.8-.74-3.12-1-.66-.55-1.02-.6-2.23.03-.11.04-.05.19-.1-.65-3.18,4.05-1.09"/><path id="36069" d="m840.29,164.47l.65,3.18-.19.1-.04.05-.03.11.6,2.23-5.6,1.2-.28.73-.08.48-.11,1.09.43,2.07-2.05.38-.21-1.08-.37-1-1.65.29-.62-2.02.5-.16-.51-1.98.59-.12v-.03l-.2-.87-.26-.6-.15-.24-.26-.21,1.61-.3-.45-2.07,1.87-.37,2.03-.52,1.85-.38.14.62,2.79-.58"/><path id="36123" d="m841.29,170.13l.55,1.02,1,.66.74,3.12.21,1.01.22,1.02-1.29.21-.57-.49-1.81.27-.66-.13-.11-.1-.21-1.04-.06-.53v-.19s-3.67.75-3.67.75l-.43-2.07.11-1.09.08-.48.28-.73,5.6-1.2"/><path id="36097" d="m843.58,174.92l3.26-.8.39,1.54.51,1.96.02.4.4,2.02,1.21-.21.16.77-.31.42-.74.06-.86-.21-.21-.89-1.76.36-2.04.56.04.2-2.03.56-.18.03-.62-2.63-.47-2.13,1.81-.27.57.49,1.29-.21-.22-1.02-.21-1.01"/><path id="36109" d="m846.99,172.29l3.39-.79.06.18,3.16-.78,1.24,4.84-.52.48.27.52.66-.09.26.66-.07.57.28.38-.8.17-.15-.27-.45.13h-1.59s.25,1.26.25,1.26l-.98.25-.33-.43-.98.2-1.35.26-1.21.21-.4-2.02-.02-.4-.51-1.96-.39-1.54,1.97-.51-1.82-1.33"/><path id="36011" d="m844.06,154.14l.73,2.63.18,1.07.68-.18,1.41-.34.17.65.47,1.78.22.97-.03.02h-.3l-.09.1v.12s.55,2.07.55,2.07l.47-.1.96,3.55,1.52-.4,1.16.75.51.53.06.2.85,3.31-3.16.78-.06-.18-3.39.79-1.32-1.63-.12-.18-.08-.17-.36-1.09-.1-.43-.77-3.9.1-1.5-1.62-7.2,1.34-2.04"/><path id="36067" d="m855.4,157.3l.32.31.47,1.96.71-.36.79,2.19,1.21,4.43-6.14,1.77-.06-.2-.51-.53-1.16-.75-1.52.4-.96-3.55-.47.1-.56-2.07v-.12s.1-.1.1-.1h.3l.03-.02-.22-.97-.47-1.78,2.57-.6.74.29.28-.64.64.4-.05-1.05,2.55.49,1.44.43"/><path id="36023" d="m858.89,165.82l.43,1.5,1.92,6.87-4.37,1.06-2.03.5-1.24-4.84-.85-3.31,6.14-1.77"/><path id="36017" d="m859.32,167.32l6.41-1.82,1.12-.15,2.14-.61.17,10.14.54,2.7-1.9.41-1.73.37-.29-1.34-3.01.8-.24.16-.2-.33-1.09-3.46-1.92-6.87"/><path id="36053" d="m855.4,157.3l1.92.25,1.7-.76.83.09.39.21,1.03.59.51.34.63.54.27.58.63-.1.6,2.04.06.32,1.85-.22.25,1.38,3.06-.87-.14,3.04-2.14.61-1.12.15-6.41,1.82-.43-1.5-1.21-4.43-.79-2.19-.71.36-.47-1.96-.32-.31"/><path id="36065" d="m867.65,144.42l1.98,6.29-.37.73-.62.4.16.92,1.47.25-.91,2.8-.66,1.69.98,3.87-.55.32-3.06.87-.25-1.38-1.85.22-.06-.32-.6-2.04-.63.1-.27-.58-.63-.54-.51-.34-1.03-.59-.39-.21-.83-.09-1.7.76-.45-3.77-.42-.05.41-3.83,1.01.1,3.87.35,5.91-5.93"/><path id="36049" d="m859.21,132.06l5.05,1.73,3.39,10.63-5.91,5.93-3.87-.35-1.37-4.87-.6-2.03-1.2.3.14-.51-.24-1.42,1.32-.51,2.27-2.37.76-.19-.34-.82.76-.24-.09-1.81-1.1-.53,1.04-2.93"/><path id="36043" d="m864.26,133.79l2.04.69,3.18-1.22,4.25,12.84-.75,3.65,2.8.63.84,2.64-.74,1.91.35.99.89,4.16-2.07-.36.11,1.52-.2.23-3.6-1.17-.39,1.24-1.15.34-.14-.52-.98-3.87.66-1.69.91-2.8-1.47-.25-.16-.92.62-.4.37-.73-1.98-6.29-3.39-10.63"/><path id="36077" d="m879.18,160.42l-.09.91.1.63.08.31,1.03,2.1.22.55-.36,1.54-.41,1.22-2.15.62-2.89,2.6-1.46,1.38-.69.8-1.63,1.24-.42.17-1.33.38-.17-10.14.14-3.05.55-.32.14.52,1.15-.34.39-1.24,3.6,1.17.2-.23-.11-1.52,2.07.36,2.06.33"/><path id="36095" d="m885.65,159.7l.43.29-.38.91.33.75,1.21-.16.13-.62.32.23.18,1.14-.13,1.18-.11,2.16v2.6s.07.28.07.28l.14-.06v1.08s-2.84.84-2.84.84l-2.81-.83-2.44-1.84.41-1.22.36-1.54-.22-.55-1.03-2.1-.08-.31-.1-.63.09-.91,1.5.06,1.96.49,1.85-.65,1.16-.61"/><path id="36001" d="m893.19,158.35l1.38-1.2.29.55.47.04-.04,7.6-7.45,3.09-.14.06-.09-.28v-2.6s.13-2.16.13-2.16l.13-1.18-.18-1.14-.32-.23,5.82-2.53"/><path id="36091" d="m884.33,146.38l4.35-1.65.21.27,1.03,1.6.33,1.24.16.09,1.09.3,1.37-1.32.98-1.24.13.2,1.32,4.31.07.43.07,1.58-.08.81-.21,1.02.18,3.71-.47-.04-.29-.55-1.38,1.2-.22.02-.11-.06-1.47-1.25-.19-.55-.74-.53-2.22-.61-.63.1-.21-.6-2.13-5.93-.94-2.56"/><path id="36113" d="m884.03,137.6l9.67-3.7-.04,1.87-.1,1.39-.92,2.25-.3.8-.17.84-.02.15.05.32,1.67,4.15-.98,1.24-1.37,1.32-1.09-.3-.16-.09-.33-1.24-1.03-1.6-.21-.27-4.35,1.65-2.75-7.83,2.46-.95"/><path id="36041" d="m878.44,130l1.2,3.29-1.07,1.3,2.59,2.11.16-.27.19-.13.59-.27,1.83.35.1.34.02.87-2.46.95,2.75,7.83.94,2.56-.91.29-.19.25.05.86-1.63.27-.48-.54-3.12.95-3.2-.64-2.8-.63.75-3.65-4.25-12.84,4.99-1.82,3.96-1.42"/><path id="36033" d="m882.77,121.67l-3.58,1.37,2.19,5.87-2.94,1.09-3.96,1.42-.22-1.64-.58-1.74-3.25-9.31-2.04-6.07-1.24.28-.39-1.17.42-.02,6.58-1.25,2.3-.51,1.68-.49.19-.06.4,1.08,2.09,5.12,1.23,2.85.59,1.56.56,1.64"/><path id="36089" d="m866.74,111.76l.39,1.17,1.24-.28,2.04,6.07,3.25,9.31.58,1.74.22,1.64-4.99,1.82-3.18,1.22-2.04-.69-5.05-1.73-1.2-.46-3.52-1.21-2.84-1.07.5-1.72.47-1.15.85-1.4,2.57-3.99.75-1.04,5.87-6.67.3-.21,2.15-1.24.4-.06,1.21-.08"/><path id="36045" d="m851.65,129.32l2.84,1.07,3.52,1.21,1.2.46-1.04,2.93,1.1.53.09,1.81-.76.24.34.82-.76.19-2.27,2.37-1.32.51.24,1.42-.14.51,1.2-.3.6,2.03-3.34.38-.74.34.15.61-2.94.36-1.06-2.72-1.08-.42.42-.63.59-.04.88-.58.32-.66.07-.13-.03-.35-.35-.92-.11-.15-.13-.04-1.4-.12-.99-.42-1.56-1.12-.25-.64v-.26s.02-.52.02-.52l.39-1.63,3.67-3.91,2.63-2.25"/><path id="36075" d="m849.64,146.82l2.94-.36-.15-.61.74-.34,3.34-.38,1.37,4.87-1.01-.1-.41,3.83.42.05.45,3.77-1.92-.25-1.44-.43-2.55-.49.05,1.05-.64-.4-.28.64-.74-.29-2.57.6-.17-.65-1.41.34-.68.18-.18-1.07-.73-2.63.77-.87,2.02-2.14.11-.06.67-.21.44.2.24-.02.55-.14.93-.58.1-.11.12-.3.06-.37.03-.35-.05-.59-.19-1.12-.21-.66"/><path id="36117" d="m842.72,156.18l1.62,7.2-4.05,1.09-2.79.58-.14-.62-1.85.38-2.03.52-1.15-5.5.97-.27,2.77-.71.52-.11h.76l.59.11,1.25-.23.1-.03,2.39-1.4.39-.29.64-.72"/><path id="36055" d="m822.77,165.1l-.96-5.27.69-.1,2.65.05,1.71.41.79.44.12.06,1.41.58.47.08.28-.03,2.42-1.49,1.15,5.5-1.87.37.45,2.07-1.61.3-.91.27-2,.38-.04-.06.03-.03.43-.1.02-.05.09-.63-.08-.15-.19-.16-2.95.59-.19-1.21-.83.13.44-2.21-1.5.27"/><path id="36063" d="m815.08,166.66l.19.91-.38.2-1.74.57-3.01.88-.74,1.36-.81.12-1.15-1.19-1.37.26-.53-.1-.19-.34-.77-3.88,3.65-1.96,3.11-1.51,1.37-.54.94-.3h.43l.99,5.52"/><path id="36029" d="m815.28,167.57l.93,5.01-.36.07.34,1.99.42-.07,1.02,5.55-2.14.98-1.85.99-1.92,1.28-.41.17-.41.1-.99-.51-2.2-1.24-.38-.68-1,.19.03-.48.21-.6.72-1.9.45-.38,1.11-.92.41-.19.69-.9.19-.36v-.18l-.6-1.33-.94-1.7-.22-.28-.25-.16-.71-.13-.72-.3-.18-.19-.14-.5-.3-1.11,1.37-.26,1.15,1.19.81-.12.74-1.36,3.01-.88,1.74-.57.38-.2"/><path id="36013" d="m807.7,181.89l2.2,12.26-9.19,1.63-.26.05-2.28.39-.53-3.01-.44-2.55-.1-.61.68-.46,1.08-.92,1.46-1.38,1.36-1.35.34-.47.29-.64.75-.96,1.65-1.3,1.61-1.17,1-.19.38.68"/><path id="36009" d="m817.62,180.11l.11.48,2.53-.62,2.24,11.85-4.83.89-4.64.9-.74.13-2.39.4-2.2-12.26,2.2,1.24.99.51.41-.1.41-.17,1.92-1.28,1.85-.99,2.14-.98"/><path id="36003" d="m824.74,179.12l3.3-.56.19.98,1.96-.3,1.64,10.81-7.63,1.44-1.69.34-2.24-11.85,4.48-.85"/><path id="36101" d="m833.59,176.08l2.05-.38,3.68-.75v.19s.05.53.05.53l.21,1.04.11.1.66.13.47,2.13.62,2.63.18-.03,2.03-.56,1.26,6.29-10.73,2.18-2.34.47-1.64-10.81-.15-1.27.99-.17-.15-1.1,2.71-.62"/><path id="36015" d="m850.71,179.58l1,6.45-6.16,1.23-.64.14-1.26-6.29-.04-.2,2.04-.56,1.76-.36.21.89.86.21.74-.06.31-.42-.16-.77,1.35-.26"/><path id="36107" d="m856.87,175.25l.13.17,1.38,2.96.04.14.19.9.05.74-.47.13,1.07,4.19-.68.14-6.85,1.41-1-6.45.98-.2.33.43.98-.25-.25-1.25h1.59s.45-.14.45-.14l.15.27.8-.17-.28-.38.07-.57-.26-.66-.66.09-.27-.52.52-.48,2.03-.5"/><path id="36007" d="m861.24,174.19l1.09,3.46.2.33.24-.16,3.01-.8.29,1.34,1.73-.37,1.9-.41,1.95,4.2-2.06.46-10.35,2.24-1.07-4.19.47-.13-.05-.74-.19-.9-.04-.14-1.38-2.96-.13-.17,4.37-1.06"/><path id="36025" d="m879.75,167.67l2.44,1.84,2.81.83.29.07-1.04,3.74,1.58.4-4.66,4.69-5.24,5.1-1.96.04-.68-1.53-.3-.29-1.01-.71-.32-.07-1.95-4.2-.54-2.7,1.33-.38.42-.17,1.63-1.24.69-.8,1.46-1.38,2.89-2.6,2.15-.62"/><path id="36105" d="m875.94,184.35l5.24-5.1,2.36.71,3.8,1.21-.35,1.04-.66,1.51-.34.86,1.65.76,1.86.81.75,1.11-.59.52-.32.69-.44,1.16-4.57,1.29-.12.1-.02.06.21.87.22.5-.75.08-1.35.07-.3-.14-1.83-.95-.52-.5-.74-.72-.46-1.05-2.73-4.9"/><path id="36039" d="m895.29,165.33h.09l.06.04.13.38.63,3.2.06.58-.04.31-.65,1.63-.51,1.6-.07.34-1.65-.7-.75.24-.14,1.79-2.64.34-1.3.16-2.68-.68-1.58-.4,1.04-3.74-.29-.07,2.85-.85-.12-1.04,7.56-3.12"/><path id="36061" d="m901.26,201.42l-.46,2.21-.15,2.16.05.23v.19s.1,0,.1,0l.13-.15v-.17s-.03-.1-.03-.1l.23-.26.27-.15.09-.62.02-.27.34-.81.23-.42-.35-.12-.28-.59.17-1.09-.36-.03Z"/><path id="36111" d="m894.94,174.57l.33,3.94.97.44.19,2.41.36.74.36,3.58-1.62.6-.02-.74-1.61.32.14.61-.3.06-.76.2-1.24-.7-1.48,1.25-.75-1.11-1.86-.81-1.65-.76.34-.86.66-1.51.35-1.04-3.8-1.21-2.36-.71,4.66-4.69,2.68.68,1.3-.16,2.64-.34.14-1.79.75-.24,1.65.7-.06,1.17"/><path id="36005" d="m901.33,200.67l2.45.29.09.32.31.02-.03.26-.14.26h-.13s-.12-.2-.12-.2l-.15-.18-.22.13.15.61h.12s.19.16.19.16l.21.2-.04.03-.32-.08-.27.07-.07.14-.24-.14-.09.25-.26-.03-.05.21v.28s-.14.09-.14.09l-.18-.05-.02-.22.07-.07-.12-.07-.12.1-.1.18-.35-.12-.28-.59.17-1.09-.36-.03.07-.75"/><path id="36047" d="m900.91,206.12l.21-.59.27-.15.09-.62.28-.09.42.3.41.45.3.24.39-.33.41.62v.25s.11.27.11.27l.13-.08.37.34v.52s-.41.62-.41.62l-.99.28-1.14.46-.56.06v-.24s.32-.11.32-.11v-.23s-.37-.13-.37-.13h-.26s-.24-.6-.24-.6l.32-.72-.19-.34.15-.19Z"/><path id="36087" d="m898.09,191.83l.56,1.17,1.03,1.41.92,1.04.11.26.61,3.09-6.08-1.82-.4-.12,3.27-5.09v.07"/><path id="36059" d="m907.92,198.98l-.41.19-.33.06-1.02.57-.35.66.46,1.24-.7-.83-.6-.06-.28.22-.05.37.2.23h.44s-.11.34-.11.34l-.81-.21-.02.58.43.59,1.06.47.07.5-.37.2.38,1.54-.2.22v.29s-.32.29-.32.29l.06.23.22.06.13-.02.22.31h-.17s-.05.25-.05.25l.78-.11,1.34-.33.85-.27v-.32s-.61.15-.61.15l-.24.21h-.3s-.85.38-.85.38l-.72.05.77-.39.24-.06,1.04-.52.6-.16.35.18.77-.61.27-.19.23-.13-.14-.17-.28-.25.69-.25.34-.2-1.71-4.38-.33-.11-.31-.2-.1-.22-.41.16.05-.29-.22-.29Zm3.19,5.73l-.25.39-.54.31-.48.42-.51.44-.27.17-.17.28.07.06.74-.51.57-.23,1.11-.64-.28-.7Z"/><path id="36071" d="m897.15,185.67l-.34,2.58.68.94.84.75-.24,1.83-3.27,5.09-2.52-.85-6.31-2.21-1.37-1.34-.22-.5-.21-.87.02-.06.12-.1,4.57-1.29.44-1.16.32-.69.59-.52,1.48-1.25,1.24.7.76-.2.3-.06-.14-.61,1.61-.32.02.74,1.62-.6"/><path id="36081" d="m902.07,203.25l.28.17.02.2.13.02.06-.15.16-.02.42.28.06-.11-.19-.37.12-.22.17-.04.14-.2.26.06.22-.06.14.12.16-.19.48.4.08-.17,1.06.47.07.5-.37.2.39,1.53-.2.22v.29s-.32.29-.32.29l.06.23.22.06.13-.02.23.32-.31.19h-.2s-1.03.67-1.03.67l-.97.69-.65.44-.02-.32.49-.39.52-.45.4-.62v-.52s-.37-.34-.37-.34l-.13.08-.11-.27v-.25s-.41-.62-.41-.62l-.39.33-.3-.24-.41-.45-.42-.3-.28.09.02-.27.35-.81.23-.42"/><path id="36103" d="m928.48,187.77l.3.14.16-.36.34-.25-.51.04-.28.43Zm-.34.55l-.7.06-.74.68-.44.08-.43,1.27-.71.32-.36.8-.7.54-.81,1.34-1.78.8-1.29.51-1.99.51-2.44.61-1.37.17-.71.38.35.83-1.1.81-1.38-.19-.79.16-.66-.28-.39-.12.1.82.83-.18.09.25-1.27.23-.17-.45-.93-.1-.15.36,1.05,1.37,1.71,4.38.93-.39,1.35-.86.55-.82.24.18,1.21-.03.1-.64,1.07-.15.76-.7.57-.35h.75s.23-.47.23-.47l.61-.1.16.28.52-.19.29-.34.35-.2.2-.55.65-.05.37-.74.56.1.51-.32.2.12-1.41.97.07.08,1.64-1.04,1.81-1.23.36-.2.26-.2-.04-.11.12-.33h-.15s-.26.28-.26.28l-.13-.04.06-.55-.12-.14.42-.17.53.02.08.31-.45.54.06.11,1.15-.81,4.11-3.57,1.83-1.52,1.76-1.47.22-.49-.9-.08-.79.59-.11.69-.27-.19-.51.9-.41.12-.38.41-.19.39h-.25s-.63-.56-.63-.56l-.08-.41-.48-.18-.38.6-.82-.12-.03.81-.23.08-.11.27-.44.09-.44-.67-.32.16.35.66-.81.27-.33,1.09-.55.47-.17.84-.52.44-1.27-.1-.76.15.04-.38.46-.11.38-.66.09-.53.82-.52.09-.48.63.33-.32-.73.13-.34.79-.15-.02-.31-.61.03.36-.78.37-.61.21-.49.36-.47.5.38.52-.51.09-.6Zm2,.26v.56l.38.18h.29s.31.62.31.62l.17-.13-.11-1-1.03-.24Zm-3.18,1.22l-.69,1.03.56.48.38-.02.35-.34.68.33-.06-.58-.27-.49-.65-.12-.3-.28Zm-5.38,9.33l-1.36.97-.49.23-.47.34-.24.05-.22.25-.42.28-1.37,1.2-1.42.8-.43.29-.44.15-.22.28-.64.33-.38.1-.22-.09-.28.17.1.29.85-.2.9-.6.53-.29.38-.29,1.39-.74,1.17-1.01,1.13-.82.54-.4,1.73-1.18-.11-.11Zm-7.65,4.35l-.8.49-1.03.29-.98.46.28.8,1.37-1.04.27-.23.92-.15.43-.27-.11-.21-.14-.06-.21-.07Z"/><path id="36119" d="m898.09,191.83l7.07-2.75.28,1.62,1.61,1.48-2.26,2.33-1.25,1.28,1.8,2.31-1.56,2.85-2.45-.29-.03-1.88-.61-3.09-.11-.26-.92-1.04-1.03-1.41-.56-1.17"/><path id="36079" d="m904.53,185.4l.63,3.68-7.07,2.75v-.07l.24-1.83-.84-.75.53-1.3,5.71-2.27.81-.22"/><path id="36027" d="m902.41,173.48l1.57,8.74.55,3.18-.81.22-5.71,2.27-.53,1.3-.68-.94.34-2.58-.36-3.58-.36-.74-.19-2.41-.97-.44-.33-3.94.23-.1h.22l2.72.65.85.23,3.19-.11.11-1.74.16-.04"/><path id="36021" d="m895.29,165.33l6.83-2.73-.25,10.14.39.78-.11,1.74-3.19.11-.85-.23-2.72-.65h-.22l-.23.1.06-1.17.07-.34.51-1.6.65-1.63.04-.31-.06-.58-.63-3.2-.13-.38-.06-.04h-.09"/><path id="36083" d="m895.16,154.02l5.88-1.48.45,1.96-.35,1.03.69,1.54.45-.13-.15,5.65-6.83,2.73.04-7.6-.18-3.71"/><path id="36115" d="m894.62,133.56l.6,1.16-.31,1.7-.09.93.16,1.34.06.09.55.23v-1.53s1.07-.15,1.07-.15l.45.91.8.27.44,1.12.97,4.52,1.72,8.4-5.88,1.48.21-1.02.08-.81-.07-1.58-.07-.43-1.32-4.31-.13-.2-1.67-4.15-.05-.32.02-.15.17-.84.3-.8.92-2.25.1-1.39.04-1.87.92-.34"/></g></svg>