<?xml version="1.0" encoding="UTF-8"?><svg xmlns="http://www.w3.org/2000/svg" viewBox="0 0 989.98 627.07"><path id="35025" d="m388.92,409.95l-.39,4.2-.88,9.87-1.49,20.06-.15,1.99-.48-.03-1.09-.09-1.37-.11-1-.07-1.14-.09-7.69-.6.98-12-1.75-.14.82-10.18.92.07.81-9.9.83-.03.37-3.91,4,.31,8.7.66"/><path id="35015" d="m352.48,431.22h.19s.96-10.16.96-10.16l19.65,1.69-.82,10.18,1.75.14-.98,12-4.98-.41-.86-.07-15.95-1.43.55-5.79h-.07l.57-6.14"/><path id="35028" d="m334.21,349.32l-.04.82-.24,1.73-.53-.05.45.37.04.06-.21,1.93-.27-.59-.27-.32-.75-.43-.56-.27-.11.1-.38.03-.34-.02-.19-.1-.12-.22.62-2.36.31-.62,1.62-.17.67.02.29.1"/><path id="35039" d="m315.54,323.09l7.61.9,2.34.45,4.58.51,2.55.27,8.52.88.2,1.59-.17,2.49-.22,4.95.11,1.36.06,1.44-.02.47-.51,2.24-.15.32-.24.2-.58.23-.46.03-.23.06-.37.44-.06.18,3.53,1.92,1.5,2.46.19.39.23.39,3.57,2.39-3.52.44.07-.55-6.47-.67.02.3.18.03.02.09-.13,1.26-3.52-.39.04-.82.04-.16.06-.64-11.72-1.25.3-2.74.28-2.27-6.45-.75-7.06-.93.63-5.42.23-1.78.88-6,.48-.88,2.92-2.41.75-1.01"/><path id="35045" d="m298.2,320.92l16.24,2.03,1.1.14-.75,1.01-2.92,2.41-.48.88-.88,6-.23,1.78-.63,5.42-.66,5.04-8.48-1.12-17.52-2.32,3.17-22.87,12.03,1.61"/><path id="35031" d="m283,342.18l17.52,2.32,8.48,1.12,5.83.75-1.94,15.93-5.05-.61.16-1.12-2.76-.34-.2,1.12-13.58-1.79-.04.32-1.02,7.66-10.7-1.46,3.3-23.91"/><path id="35001" d="m314.77,364.53l4.32.52,3.7.43,3.05.35,4.44.5,2.12.29-.42,4.03-.22,1.99,1.75.18-.2,1.92-1.49-.14-3.38-.39v-.52s-.15-.23-.15-.23l-.15-.06-4.72-.59-.59.54-.15.22-5.67-.65-.55-2.09-1.7-6.31"/><path id="35061" d="m316.46,370.84l.55,2.09,5.67.65.15-.22.59-.54,4.72.59.15.06.14.23v.52s-.97-.1-.97-.1l-.17,1.4-.63,4.59-.2,2.03.98.1-.19,1.88-1.5-.52-4.93-2.38-1.93-1.3-.52-.08-5.5-.6,1.06-8.71,2.53.32"/><path id="35006" d="m314.77,364.53l1.7,6.31-2.53-.32-1.06,8.71-9.72-1.17-1.27-.18-6.21-.82-4.47-.53-12.7-1.72,1.21-8.72,10.7,1.46,1.02-7.66.04-.32,13.58,1.79.2-1.12,2.76.34-.16,1.12,5.05.61,1.35.15.52,2.08"/><path id="35051" d="m300.24,403.35l12.49,1.47,2.1.3,6.02.71,2.72.29,2.07.13-.23,2.04.52.07-.75,7.77-11.05,4.1-.11.99-7.87-.94-.48,4-5.91-.71-2.04-.65-.3-.25.05-.25.21-.4.35-1.35.1-.97-.03-.34-.49-2.85.09-2.65-1.35-.63.61-3.3-.03-.18-.23-.41-.16-.05-2.55-.3.8-6.33,5.45.71"/><path id="35053" d="m312.87,379.23l5.5.6.52.08,1.93,1.3,4.93,2.38,1.5.52-.43,4.14,9.24.99-.66,5.97-.4,4.02-2.42-.27-.43,4.04-1.84-.19-.16-.07-2.06-.4-1.99-.23-.44,4.15-2.07-.13-2.72-.29-6.02-.71-2.1-.3-12.49-1.47.47-3.76,1.69-14.2-.18-.03.67-5.51.26-1.79,9.72,1.17"/><path id="35003" d="m303.15,378.06l-.26,1.79-.67,5.51.18.03-1.69,14.2-.47,3.76-5.45-.71-.8,6.33-8.53-1.09-1.76-.39-1.95-.3-7.6-1.02,4.36-31.36,12.7,1.72,4.47.53,6.21.82,1.27.18"/><path id="35017" d="m274.14,406.17l7.6,1.02,1.95.3,1.76.39,8.53,1.09,2.55.3.16.05.23.41.03.18-.61,3.3,1.35.63-.09,2.65.49,2.85.03.34-.1.97-.35,1.35-.21.4-.05.25.3.25,2.04.65-6.04-.73-.25,1.99-5.87-.74-1.3,9.99v1.22s-.22,2.42-.22,2.42l-.18,1.33-5.94-.77.71-7.22,1.02-7.73-2.08-.24.25-2.02-3.95-.54.51-3.97-3.68-.52,1.37-9.86"/><path id="35023" d="m272.77,416.03l3.68.52-.51,3.97,3.95.54-.25,2.02,2.08.24-1.02,7.73-.71,7.22,5.94.77-.06,1.86-.85,6.48-.49,3.8-12.5-1.63-.19-.03-1.54-.21-2.13-.3,3.5-24.96,1.12-8.02"/><path id="35029" d="m305.69,424.27l-2.19,18.81-17.64-2.19.06-1.86.18-1.33.22-2.42v-1.22s1.29-9.99,1.29-9.99l5.87.74.25-1.99,6.04.73,5.91.71"/><path id="35013" d="m325.2,416.12l-.24,2.17-.68-.07-2.41,21.92-4.23-.45-.8-.06h0l-.33.15-.04.32.32.13-.21,1.21-.44.28.11.46v.29s.44.47.44.47l.19.25,1.51,1.61-14.88-1.71,2.19-18.81.48-4,7.87.94.11-.99,11.05-4.1"/><path id="35055" d="m346.38,326.63l9.03.92-.07,1.42-.56,3.66-1.15,1.08-.64.24-.58.27-.42.3-.24,1.68-.04,1.25.15,2.31-.28,4.48-4.05,5.4-3.57-2.39-.23-.39-.19-.39-1.5-2.46-3.53-1.92.06-.18.37-.44.23-.06.46-.03.58-.23.24-.2.15-.32.51-2.24.02-.47-.06-1.44-.11-1.36.22-4.95.17-2.49-.2-1.59,5.22.54"/><path id="35049" d="m334.17,350.15l3.52.39.13-1.26-.02-.09-.18-.03-.02-.3,6.47.67-.07.55-.31,2.47-1.85,19.11-9.86-1.01.42-4.03,1.29-12.45.25-2.31.24-1.73"/><path id="35035" d="m325.94,408.35l6.56.73,5.19.52-.17,1.97,7.75.77-.35,3.98-.45,4.06-.54-.06-1.11,10.02,3.94.39.75.03,4.98.47-.57,6.14h.07l-.55,5.79-1.37-.13-20.89-2.13-7.33-.77,2.41-21.92.68.07.24-2.17.75-7.77"/><path id="35057" d="m341.84,371.66l7.88.78-.96,10-.43-.03-.59,5.99-.2,1.99-11.48-1.16-9.24-.99.43-4.14.19-1.88-.98-.1.2-2.03.63-4.59.17-1.4.98.1,3.38.39,1.49.14.2-1.92-1.75-.18.22-1.99,9.86,1.01"/><path id="35027" d="m347.74,388.4l7.91.76-.59,5.95-.59,6.08h.04l.02.06-.82,8.54-.93,7.16-1.94-.08-5.92-.53.35-3.98-7.75-.77.17-1.97-5.19-.52-6.56-.73-.52-.07.23-2.04.44-4.15,1.99.23,2.06.4.16.07,1.84.19.43-4.04,2.42.27.4-4.02.66-5.97,11.48,1.16.2-1.99"/><path id="35007" d="m356.6,327.66l2.8.32,4.87.45,13.16,1.1-1.54,17.96-7.84-.69-7.87-.71.1-.99-8.72-.87.28-4.48-.15-2.31.04-1.25.24-1.68.42-.3.58-.27.64-.24,1.15-1.08.56-3.66.07-1.42,1.19.11"/><path id="35033" d="m351.56,344.23l8.72.87-.1.99,7.87.71,1.63,6.4-.97,1.69-.28,2.1-7.08-.56-4.72-.3-1.82-.99-4.22-1.88-6.89-.71.31-2.47,3.52-.44,4.05-5.4"/><path id="35059" d="m394.19,330.77l1.53.11-.85,11.55-.76.45-.28,3.7-.44,6.07-.55,7.3-6.17-.49.47-5.97.22-.41.12-1.6-7.9-.62.18-2.03-3.95-.35.08-1,1.54-17.96,16.75,1.25"/><path id="35021" d="m368.05,346.79l7.84.69-.08,1,3.95.35-.18,2.03,7.9.62-.12,1.6-.22.41-.47,5.97-.23,2.02-.47,5.87-.2.17-4.59-.36.07-.74-1.62-.14-3.95-9.14-.61.4-2.17-.17-4.47-.38.28-2.1.97-1.69-1.63-6.4"/><path id="35047" d="m343.69,352.55l6.89.71,4.22,1.88,1.82.99,4.72.3,7.08.56,4.47.38,2.17.17.61-.4,3.95,9.14,1.62.14-.07.74-.27,3.44-4.1-.37.04-.51-5.21,2.39.13-1.7-21.67-2.01-.39,4.02-7.88-.78,1.85-19.11"/><path id="35037" d="m386.68,359.47l6.17.49-.21,2.69-.76,10.14-.4,5.29-3.73-.28-.24,2.05-2.12-.2-.27,2.01-2.09-.16-.25,1.99-4.17-.34-.24,1.96h-.53s-3.95-.32-3.95-.32l-3.38-.29.33-4.02.18-2.11.43-4.09.19-2.16,5.21-2.39-.04.51,4.1.37.27-3.44,4.59.36.2-.17.47-5.87.23-2.02"/><path id="35019" d="m371.64,372.12l-.19,2.16-.43,4.09-.18,2.11-3.94-.33-.17,1.99-1.97-.16-.18,2-8.37-.75-.55,5.93-7.91-.76.59-5.99.43.03,1.35-14.02,21.67,2.01-.13,1.7"/><path id="35011" d="m370.84,380.48l-.33,4.02,3.38.29-.57,6.72-.05,1.24-.34,4.08-3.96-.35-.19,2.02-4.14-.37-7.75-.8.19-2.02-2.02-.2.59-5.95.55-5.93,8.37.75.18-2,1.97.16.17-1.99,3.94.33"/><path id="35009" d="m391.47,378.08l-.35,4.77-.77,10.02-.02.24-13.11-1.04.6-6.95h.53s.24-1.97.24-1.97l4.17.34.25-1.99,2.09.16.27-2.01,2.12.2.24-2.05,3.73.28"/><path id="35041" d="m377.83,385.11l-.6,6.95,13.11,1.04-.88,11.01-.53,5.84-8.7-.66.17-2-3.96-.29.34-3.76-2.37-.2.51-6.04-1.97-.18.34-4.08.05-1.24.57-6.72,3.95.33"/><path id="35005" d="m372.93,396.82l1.97.18-.51,6.04,2.37.2-.34,3.76,3.96.29-.17,2-4-.31-.37,3.91-.83.03-.81,9.9-.92-.07-19.65-1.69-.96,10.17h-.19s-4.98-.48-4.98-.48l-.75-.03-3.94-.39,1.11-10.02.54.06.45-4.06,5.92.53,1.94.08.93-7.16.82-8.54-.02-.06h-.04l.59-6.07,2.02.2-.19,2.02,7.75.8,4.14.37.19-2.02,3.96.35"/><path id="35043" d="m309.66,340.58l7.06.93,6.45.75-.28,2.27-.3,2.74,11.72,1.25-.06.64-.04.16-.29-.1-.67-.02-1.62.17-.31.62-.62,2.36.12.22.19.1.34.02.38-.03.11-.1.56.27.75.43.27.32.27.59-1.29,12.45-2.12-.29-4.44-.5-3.05-.35-3.7-.43-4.32-.52-.52-2.08-1.35-.15,1.94-15.93-5.83-.75.66-5.04m24.23,11.67l-.04-.06-.45-.37.53.05-.04.38"/></svg>