<?xml version="1.0" encoding="UTF-8"?><svg xmlns="http://www.w3.org/2000/svg" viewBox="0 0 989.98 627.07"><path id="34025" d="m898.58,212.25l.26.15.31-.55h.76s.93.07.93.07l.92.42.89.02-.26-.99-.2-.02v-.17s-.3-.17-.3-.17v-.15s.08-.1.08-.1l.06-.07h.12l.23.11.64.83.38,1.55.13.54v.04s.16,1.07.16,1.07l.04.47.03.99-.05,3.29-.67.24-.67-.77-.37.8-.57.09-1.14.12-.15-.61-.71-.51-2.44.48-2.01,2.68-.89-1.2-.67-.9.89-.66,1.03-1.22v-.06l-.09-.17,1.56-1.17,1.85-3.14-.08-1.35"/><path id="34029" d="m894.98,222.1l2.01-2.68,2.44-.48.71.51.15.61,1.14-.12.57-.09.37-.8.67.77.67-.24v.43s.09,1.88.09,1.88l.03.52.14,1.59-.69,2.35-.24,1.42.62.63-.23.96-1.7,3.19.91,1.22-.52.55-2.13-.97.24-.41.06-.56-.93-4.01-4.04-5.8-.34-.46"/><path id="36085" d="m899.52,210.04l-.07.03-.16.23-.25.23h-.07l-.26.27-.16.1-.12.19-.41.17-.09-.06-.12-.13-.04-.16.08-.17-.17-.54.21-.35h.18s.16-.3.16-.3v-.73s-.1-.23-.1-.23l-.1-.56.23-.3.4-.09.31-.04.22-.06.18-.05.53-.22.19-.03.14.14.13.38.35.4-.05.25-.64,1.26-.41.41-.08-.02"/><path id="34013" d="m895.48,202.53l2.8,1.19-.12.83-.16.94.29.21.16-.32.43-.04.11.47.12.24-.07.37-.21.48-.57-.26-.55.21-.48-.36-.94-.09-.37.25-1.3-.16-.21-1.12.36-.88.07-1.06-.31-.16-.09-.88,1.03.14"/><path id="34039" d="m894.62,206.49l1.3.16.37-.25.94.09.48.36.55-.21.57.26-.19.67-.36.14-.08.03-.04.06-.18.23.06.24.11.51v.35s-.59-.03-.59-.03l-.59.25-.37-.17-2.35.64-.48.12.6-.66.1-1.03-.76.23-.29-.25,1.2-1.72"/><path id="34017" d="m900.8,203.63l-.16,2.16-.22-.05-.45.49.19.47-.37.22.08.27-1.22.36.29-.55.27-.44v-.6s-.21-.17-.21-.17l-.11-.47-.43.04-.16.32-.29-.21.16-.94.88.06.41-.9.62-.57.73.5"/><path id="34003" d="m895.22,196.97l6.08,1.82.03,1.88-.07.75-.46,2.21-.73-.5-.62.57-.41.9-.88-.06.12-.83.08-.08.11-.85-.03-.12-.7-1.23-.17-.79-.6-.38-1.17.18-.95-.73.38-2.74"/><path id="34023" d="m898.17,209.12l.02.13v.27s-.09.19-.09.19l-.04.09h-.11s-.12.02-.12.02l-.24.28v.18s.19.46.19.46l-.14.74v.03s-.03.26-.03.26l.15.23.34.09.47.18h.01l.08,1.35-1.85,3.14-1.56,1.17-.12-.55-1.2-.11-1.4-.52-.21-1.05.11-.03.21-.24.1-.69,1.8-2.35-.69-.41-.43-.35-.45-.48-.03-.17.11-.33.11-.13.62-.57.48-.12,2.35-.64.37.17.59-.25.6.03"/><path id="34035" d="m893.42,208.2l.29.25.76-.23-.1,1.03-.6.66-.62.57-.11.13-.11.33.03.17.45.48.43.35.69.41-1.8,2.35-.1.69-.21.24-.11.03-.1-.19-.52-.06-1.13.64-.69-1-.11-.14-1.26-1.88.49.13.31-1.04.12-.19.19-1.49-.48-.42-.17-1.4-.13-.24-.11-.08,2.68-1.52.3.36.66.69-.13.76.27.52.89-.91"/><path id="34027" d="m890.61,199.17l.44.27.11.86.62-.53.58.47.98.04h1.27l.2.48.3-.12.24.91.13.99-1.03-.14.09.88.31.16-.07,1.06-.36.88.21,1.12-1.2,1.72-.89.91-.27-.52.13-.76-.66-.69-.3-.36-2.68,1.52-1.69-.08-1.43-.83.99-1.36.43-1.91.49-.43.65.51,1.04-1.11-.22-.68,1.6-3.25"/><path id="34031" d="m894.82,196.85l.4.12-.38,2.74.95.73,1.17-.18.6.38.17.79.7,1.23.03.12-.11.85-.08.08-2.8-1.19-.13-.99-.24-.91-.3.12-.2-.48h-1.27l-.98-.04-.58-.47-.62.53-.11-.86-.44-.27,1.69-3.17,2.52.85"/><path id="34037" d="m892.3,196l-1.69,3.17-1.6,3.25.22.68-1.04,1.11-.65-.51-.49.43-4.36-3.43-.1-.12.68-.96.47-1.12.1-.69-.03-.38-.07-.07.03-.31.21-.89.09-.26.41-.84.48-.52,1.01-.73,6.31,2.21"/><path id="34041" d="m882.69,200.69l4.36,3.43-.43,1.91-.99,1.36-.17.44-.75,1.44-.14.18-.98.98-1.69,1.88-.38.64-.19-.36-.11-.21-.42-1.64-.18-1.39.29-.69.14-.04.26.03.26-.04.35-.49.58-1.77v-.13s-.05-.14-.05-.14l-1.63-1.92,1.87-3.5"/><path id="34019" d="m885.63,207.39l1.43.83,1.69.08.11.08.13.24.17,1.4.48.42-.19,1.49-.12.19-.31,1.04-.49-.13,1.26,1.88.11.14-.9.3.23.75-1.14.42.18.33.2.38-1.21.43h-.17l-.11-.06-1.67-1.01-1.3-2.62-2.47-1.01.38-.64,1.69-1.88.98-.98.14-.18.75-1.44.17-.44"/><path id="34021" d="m889.89,215.06l.69,1,1.13-.64.52.06.1.19.21,1.05,1.4.52,1.2.11.12.55.09.17v.06l-1.03,1.22-.89.66.67.9-2.1-.59-.27.92-4.64-3.56h.17l1.21-.43-.2-.38-.18-.33,1.14-.42-.23-.75.9-.3"/><path id="34007" d="m885.53,228.47l1.31-2.43,2.56,1.7,1.44,2.38,1.11-.58,1.71,1.17-1.8,3.29-1.3-1.66-1.09-.32-.84-.62-1.11-.58-.38-1.31-.94-.68-.67-.34"/><path id="34015" d="m884.85,229.45l.69-.98.67.34.94.68.38,1.31,1.11.58.84.62,1.09.32,1.3,1.66-1.37,2.54-1.59-.93-2.82-1.66-1.01.07-2.05-.49-1.78-1.1.26-.26.15-.49,1.14-1.45,2.06-.79"/><path id="34033" d="m881.24,232.43l1.78,1.1,2.05.49,1.01-.07,2.82,1.66.21,2.01v.48l-.03.11-3.19-1.7-2,2.68-.54.34.13,1.63-.63-.66-.29-.35-.47-.09-.29-.25-.4-.1-.45-.64.33-.1-.28-1.22.35-.67-1.06-.51-.12-.56.53-1.01-.06-.71.27-.58.33-1.28"/><path id="34011" d="m893.6,240.37l-.41,2.04.24,1.47h-2.01s-.18-.38-.18-.38l-1.31.36-.44.67-.59-.23-.18-.73-1.01-.51-.47-.1.15-.34-.26-.29-.66.16-.08.29-.54-.3-.52-.78-.65.13-.37-.21-.24-.38-.59-.09-.13-1.63.54-.34,2-2.68,3.19,1.7.03-.11v-.48l-.21-2.01,1.59.93,2.69,1.41.42,2.43"/><path id="34009" d="m893.6,240.37l5.6-.7-.73,1.13-.22.39-.25.62-.39,1.07-.43,1.53v.07h0s.02.04.02.04l-.65,2.32-.47,1.15-.6,1.04-.89.5-.22.06-.53.06-.08-.04-.11-.14-.03-1.44.03-.35.09-.48.34-1.32.04-.28.1-.38v-.68s-.22-.34-.22-.34l-.4-.29-.17-.02-.24-1.47.41-2.04"/><path id="34001" d="m902.12,234.31l.36.79-1.06,2.33-2.22,2.24-5.6.7-.42-2.43-2.69-1.41,1.37-2.54,1.8-3.29.24.13.99.51,1.27,1.26,1.59.74.43.13.77.15,1.04-.27,2.13.97"/><path id="34005" d="m891.72,221.23l.27-.92,2.1.59.89,1.2.34.46,4.04,5.8.93,4.01-.06.56-.24.41-1.04.27-.77-.15-.43-.13-1.59-.74-1.27-1.26-.99-.51-.24-.13-1.71-1.17-1.11.58-1.44-2.38-2.56-1.7,1.11-1.62,1.88-1.59.24-.74.71-.05.94-.8"/></svg>