<?xml version="1.0" encoding="UTF-8"?><svg xmlns="http://www.w3.org/2000/svg" viewBox="0 0 989.98 627.07"><g><path id="33007" d="m922.53,90.84l.62,1.77,3.4,10.25.24.77,3.01,9.59-.24,1.18-3.16.68-.35,2.42.2,1.23-.42.25-.59-1.55-.48-.27-.55-.75-.45.16-.65-.71-.48-.13-1.62.51-.52-1.01-1.77-.3-1.65-1.23.34.03.52-.38.04-.06.22-.29.09-.14.07-.1.8-1.4.08-.14.19-.51-.32-1.07.54-.93-.42-.67-.07-.11-.4-.5-.74-.91-.6-.6-.14-.38,1.16-4.11-1.13-1.53.39-.79-.14-1.37.39-4.15,1.29-1.69.18-.13.34.18.14.29.07.08.52.26.84.06.71-.15.11-.09.39-1.53"/><path id="33009" d="m916.01,115.09l1.08-1.4,1.65,1.23,1.77.3.52,1.01,1.62-.51.48.13.65.71.79,1.14,1.16,1.76.67,3.49-3.11,1.35.91,2.07.36.65.62,1.21-1.87.95.2,1.58-.92,1.58-1.22.38-1.01-.94-.47,1-.43,1.21-1.06.08-1.85.07-1.87-.29-1.99.16-.37-.42.29-1.29-.23-.58.42-.85.33-.19.58-1.01.06-1.16-.27-1.16.63-1.27.11-1.2-.4-.47.32-1.69.29-.85-.35-.31.06-1.16-.27-.22-.3-.4-.53-1.84v-.14l.06-.23.54-.97.05-.04.08-.08,1.11-.69,1.12-.71"/><path id="33017" d="m931.8,130.48l.46-1.07.63,1.27.44-.02.39-.59h.43s.24.83.24.83l.35-.64.37-.89.28,3.13.12.51.15.32.47.65.3.15.81.4,1.94,1.16.05.06.62,2.51-.62.08.11.91-1.07.02-2.25.72.41-1.46-4.4-1.79.12-.29.8-1.91-.8-1.78-.65-1.57.3-.72"/><path id="33015" d="m942.1,139.17l-.7,4.68-.59.37-.59-.3-.49.03-.11.06-.13.06h0l-1.55,1.15-.23,1.28-1.35.07-.22.23-.36.72.4,1.06-.95.05-2.07-.41-.7-1.05-.76.06-.93-2.27,1.25-.63-.76-1.02.77-6.54,4.4,1.79-.41,1.46,2.25-.72,1.07-.02-.11-.91.62-.08,2.25.9"/><path id="33005" d="m913.2,144.35l.48.49.99-.17-.14-.83.61-.2,2.76-1.13-.14.59.02.41,2.32-.14.3,2.54.49,1.4.92-.22,1.33,3,.54-.03.61,2.17-5.83,1.26-2.89.62-1.84-1.48-.6-.88-.38-.56.37-1.05-.26-.93,1.02-1.05-.46-1.28.17-1.45-.38-1.07"/><path id="33019" d="m912.68,134.02l1.99-.16,1.87.29,1.85-.07,1.06-.08-.58,2.17h-.85s-.01.48-.01.48l.41.28.13.42-.41,1.89.76,1.16.38-.15.22,1.02.72.65-.13,1.44-2.32.14-.02-.41.14-.59-2.76,1.13-.61.2.14.83-.99.17-.48-.49-.06-1.7.07-2.01-.41-.27.07-.63-.35.02-.45-3.68-.15-1.21.77-.85"/><path id="33011" d="m920.22,141.92l1.56-.96,1.34,1.53,2.89-1.41.89,1.86,2.06-.7,1.18.79,1.11.27.76,1.02-1.25.63.93,2.27.76-.06.7,1.05,2.07.41-.11.24-.42.99-5.55,1.28-.07.02-.25.06-4.06.91-.49.11-.61-2.17-.54.03-1.33-3-.92.22-.49-1.4-.3-2.54.13-1.44"/><path id="33001" d="m924.54,127.02l1.41.89,4.08,2.27,1.76.31-.3.72.65,1.57.8,1.78-.8,1.91-2.08-1.02-3.93-1.57-.75.62-.86-1.14-.28.19-.75-.48-.06-.38-.85-.35.92-1.58-.2-1.58,1.87-.95-.62-1.21"/><path id="33013" d="m922.58,132.34l.85.35.06.38.75.48.28-.19.86,1.14.75-.62,3.93,1.57,2.08,1.02-.12.29-.77,6.54-1.11-.27-1.18-.79-2.06.7-.89-1.86-2.89,1.41-1.34-1.53-1.56.96-.72-.65-.22-1.02-.38.15-.76-1.16.41-1.89-.13-.42-.41-.28v-.48s.86,0,.86,0l.58-2.17.43-1.21.47-1,1.01.94,1.22-.38"/><path id="33003" d="m929.8,113.22l3.28,10.87,2.03,5.28-.37.89-.35.64-.24-.82h-.43s-.39.59-.39.59l-.44.02-.63-1.27-.46,1.07-1.76-.31-4.08-2.27-1.41-.89-.36-.65-.91-2.07,3.11-1.35-.67-3.49-1.16-1.76-.79-1.14.45-.16.55.75.48.27.59,1.55.42-.25-.2-1.23.35-2.42,3.16-.68.24-1.18"/></g></svg>