<?xml version="1.0" encoding="UTF-8"?><svg xmlns="http://www.w3.org/2000/svg" viewBox="0 0 989.98 627.07"><g><path id="37043" d="m751.68,363.53l1.68-.06,3.53,3.16-1.22.19-7.17,1.05-1.28.17,1.73-3.05,2.73-1.46"/><path id="37113" d="m758.53,358.54l5.3,7-6.93,1.09-3.53-3.16-1.68.06.39-2.21.32-.77.13-.09,3.98-1.23,2.03-.7"/><path id="37175" d="m769.21,354.93l2.41,2.14.51.59.21.66.12.84.44,1.34.14.23.24.13-3.29,2.25-2.42.62-1.96.95-.42-.97,1.2-5.32,2.01-.99.81-2.46"/><path id="37099" d="m760.8,353.95l5.59,4.44-1.2,5.32.42.97-1.78.86-5.3-7-.37-3.18,2.64-1.41"/><path id="37087" d="m764,346.98l1.83,2.46.47,1.24.89-.12,1.13,1.09-.09,2.6.98.69-.81,2.46-2.01.99-5.59-4.44-1.83-3.99-.08-.44,5.11-2.54"/><path id="37173" d="m758.97,349.96l1.83,3.99-2.64,1.41.37,3.18-2.03.7-3.98,1.23-.13.09-.34-.38v-.22s.12-.41.12-.41l.1-.12.33-.2.43-.18.26-.14.39-.89.09-.57-.02-.25-.08-.43-1.05-.07-5.8.35,5.02-3.18h.43l2.63-.27.23-.15,3.19-2.52.67-.98"/><path id="37075" d="m746.81,357.04l5.8-.35,1.05.07.08.43.02.25-.09.57-.39.89-.26.14-.43.18-.33.2-.1.12-.13.41v.22s.34.38.34.38l-.32.77-3.38.74-1.27.59h-.18l-.67-.28-.66-1.26.75-4.12.15.05"/><path id="37039" d="m752.07,361.32l-.39,2.21-2.73,1.46-1.73,3.05-2.3.29-3.58.42-.07-5.08,1.52-1.33,1.98-.05.7-.58.43-.59.66,1.26.67.28h.18l1.27-.59,3.38-.74"/><path id="37121" d="m779.13,337.53l2.47,4.18-2.47,2.41-.52-1.98-1.11-.62-.48-1.29-1.08.3-1.72-1.24-1.1-.12,3.28-2.44,2.74.79"/><path id="37199" d="m773.11,339.18l1.1.12,1.72,1.24,1.08-.3.48,1.29,1.11.62.52,1.98-2.2,3.12-2.83-2.25-2.3-3.42,1.31-2.39"/><path id="37115" d="m769.83,340.42l-.2,1.28,1.05.66.64-.67.49-.12,2.3,3.42-1.73.63-1.01.64-.59.42-1.16.84-2.35,1.53-1.43.39-1.83-2.46.71-3.62.83-.21,1.62-1.52,1.16-1.14.32-.23.47-.34h.09s.28.16.28.16l.35.34"/><path id="37021" d="m776.93,347.24l.04,2.66,2.5,1.1-1.57,1.64-1.34-.56-1.21.85-1.53.83-1.39.52-.85-.07-.58-.13-.19-.1-.36-.06-.57.22-.18.14-.47.67-.98-.69.09-2.6-1.13-1.09-.89.12-.47-1.24,1.43-.39,2.35-1.53,1.16-.84.59-.42,1.01-.64,1.73-.63,2.83,2.25"/><path id="37089" d="m777.89,352.64l.33,1.7-1.41,2.11.3,2.4-3.83,2.01-.24-.13-.14-.23-.44-1.34-.12-.84-.21-.66-.51-.59-2.41-2.14.47-.67.18-.14.57-.22.36.06.19.1.58.13.85.07,1.39-.52,1.53-.83,1.21-.85,1.34.56"/><path id="37149" d="m784.31,358.26l-4.6.48-2.6.12-.3-2.4,1.41-2.11,1.1-.39.71-.26.17.02.58.25.27.18,2.94,2.48.19.3.12,1.33"/><path id="37161" d="m788.06,348.5l.58,5.13-.58,3.25-.02.99-1.98.2-1.76.19-.12-1.33-.19-.3-2.94-2.48-.27-.18-.58-.25-.17-.02-.71.26-1.1.39-.33-1.7,1.57-1.64,3.01-1.04.58.5,2.05-.54.54-.93,1.06-1.04,1.35.56"/><path id="37111" d="m781.61,341.71l.54-1.2.13.07.14.17.41.66.1.22.16.51-.12.87-1.21,1.1,2.58,1.68,1.33,3.19-.54.93-2.05.54-.58-.5-3.01,1.04-2.5-1.1-.04-2.66,2.2-3.12,2.47-2.41"/><path id="37011" d="m781.29,333.49l.19-.55.64.93-.54.75.49.72.81-.26,1.14,1.58,1.37.95-.77,2.46-2.12-.43-.36.87-.54,1.2-2.47-4.18,2.16-4.04"/><path id="37189" d="m784.73,330.09l1.63.64,1.07.94.71.52,1.53.6.41,1.5-1.21,1.5-4.84.87-1.14-1.58-.81.26-.49-.72.54-.75-.64-.93.14-.37.85-.95.92-.63.02-.02.1-.06.11.26.48.15h.29s.03-.01.03-.01l.38-.13-.07-1.1"/><path id="37003" d="m798.54,335.96l.56,2.59-1.12,3.73-1.41-.69-2.7.95-.6-4.6,1-.83.54-.21.83-.26.3.07,1.27-.3,1.02-.29.33-.16"/><path id="37009" d="m784.82,325.38l5.92-.6.07.46,1.2,1.7.65.55.18.29.41.86.1.69-2.35.45.24,1.64-1.59,1.37-1.53-.6-.71-.52-1.07-.94-1.63-.64.09-4.71"/><path id="37005" d="m798.97,323.79l-.6,3.86-.16.66-.85.14-.35-.39-.07-.39-.8-.4-.14-.02-1.17.35-1.46,1.76-.1-.69-.41-.86-.18-.29-.65-.55-1.2-1.7-.07-.46,8.23-1"/><path id="37193" d="m793.36,329.33l1.46-1.76,1.17-.35.14.02.8.4.07.39.35.39.85-.14.16-.66,1.62,1.51.7,2,.5,4.16-2.64.65-.33.16-1.02.29-1.27.3-.3-.07-.83.26-.54.21-1,.83-4.39-2.15,1.21-1.5-.41-1.5,1.59-1.37-.24-1.64,2.35-.45"/><path id="37027" d="m784.03,336.66l4.84-.87,4.39,2.15.6,4.6-.44.74-.22.28-.4.03-1.47-.45-1.47.45-3.57-2.16-1.52-1.16-.15-.21.77-2.46-1.37-.95"/><path id="37023" d="m784.63,340.08l.15.21,1.52,1.16,3.57,2.16,1.47-.45,1.47.45.4-.03.22-.28-2.43,5.04-.04.11-2.89.07-1.35-.56-1.06,1.04-1.33-3.19-2.58-1.68,1.21-1.1.12-.87-.16-.51-.1-.22-.41-.66-.14-.17-.13-.07.36-.87,2.12.43"/><path id="37045" d="m790.95,348.43l2,3.08,2.49,2.5.79,2.99-.72.07-7.46.79.02-.99.58-3.25-.58-5.13,2.89-.07"/><path id="37071" d="m792.95,351.51l9.28-1.02-.84,2.71.14,3.32-5.3.48-.79-2.99-2.49-2.5"/><path id="37109" d="m801.62,347.15l.46,1.33.16,2.01-9.28,1.02-2-3.08.04-.11,10.62-1.17"/><path id="37035" d="m793.86,342.54l2.7-.95,1.41.69,1.2,1.28,1.2.11.68.67.88,1.15-.31,1.65-10.62,1.17,2.43-5.04.44-.74"/><path id="37097" d="m801.18,335.31l3.47-.46.46,4.58-.35,2.97-.15,1.28,1.06,2.89.12.43.07.41-.87.14-2.62.19-.3.74-.46-1.33.31-1.65-.88-1.15-.68-.67-1.2-.11-1.2-1.28,1.12-3.73-.56-2.59,2.64-.65"/><path id="37119" d="m802.07,348.48l.3-.74,2.62-.19-.02.17.03.15.71,2.04,2.34,2.77,2.35,1-4.59,5.6-1.49-1.53-.7-.31-1.51,1.52-.55-.37.41-1.41-.44-.66-.14-3.32.84-2.71-.16-2.01"/><path id="37159" d="m805.11,339.43l4.97,1.77,2.4.16,2.8,2.79.75,1.66-2.06.37-8.12,1.24-.07-.41-.12-.43-1.06-2.89.15-1.28.35-2.97"/><path id="37059" d="m804.65,334.85l3.6-.48,2.12,1.37.34.19.11.16.22.6.09.64-.16,1.36-.69.47-.19,2.05-4.97-1.77-.46-4.58"/><path id="37197" d="m808.32,329.79l.42,2.34-1.02.8.54,1.45-3.6.48-3.47.46-.5-4.16,1.57-.98,2.16.11.53-1.02,1.09-.02.34.67,1.35-.38.39.12.2.14"/><path id="37171" d="m804.23,323.02l3.14-.34.88,6.64.07.47-.2-.14-.39-.12-1.35.38-.34-.67-1.09.02-.53,1.02-2.16-.11-1.57.98-.7-2-1.62-1.51.6-3.86,1.17-.12,4.09-.64"/><path id="37169" d="m814.87,321.62l.96,6.54-7.58,1.17-.88-6.64,7.02-.99.47-.08"/><path id="37067" d="m808.25,329.32l7.58-1.17.82,5.66-3.35.19.08.73-1.59.35-1.42.65-2.12-1.37-.54-1.45,1.02-.8-.42-2.34-.07-.47"/><path id="37057" d="m810.37,335.74l1.42-.65,1.59-.35-.08-.73,3.35-.19.27,2.07,1.25,9.53-2.12.4-.75-1.66-2.8-2.79-2.4-.16.19-2.05.69-.47.16-1.36-.09-.64-.22-.6-.11-.16-.34-.19"/><path id="37167" d="m813.97,346.18l2.06-.37,1.42.72.11.07.86,1.37.34.72-.12,2.08,1.02,2.08.03.14-.03.21-.27.54-3.92-.59-2.08,1.24-2.08-.31,2.65-7.89"/><path id="37025" d="m813.97,346.18l-2.65,7.89-.91-.39-2.35-1-2.34-2.77-.71-2.04-.03-.15.02-.17.87-.14,8.12-1.24"/><path id="37179" d="m815.48,353.13l.66,8.85-4.47.66-4.01.59-.38-.07v-.22s-.14-2.35-.14-2.35l-1.32-1.33,4.59-5.6.91.39,2.08.31,2.08-1.24"/><path id="37007" d="m819.4,353.72l.05.2.22.48.88.34.49.05.1-.02.11-.1.05-.06.06-.23.37-.39.24-.14h.3l.34.42.53.86,1.39,3.32v.12l-.18.43-.89,1.93-7.3,1.06-.66-8.85,3.92.59"/><path id="37157" d="m820.52,320.67l3.7-.62.78,6.7.02.19-9.19,1.21-.96-6.54,5.65-.95"/><path id="37081" d="m815.82,328.16l9.19-1.21,1.19,7.83-9.29,1.11-.27-2.07-.82-5.66"/><path id="37151" d="m826.21,334.77l.22,1.29,1.06,7.53-3.9.77-5.42,1.06-1.25-9.53,9.29-1.11"/><path id="37123" d="m823.59,344.35l1.94,4.92.06.29.27.44,1.05,1.23.43.35.47.21-1.87.11-2.58.2-.98.66-1.92.84-.41.09-.65.03.27-.54.03-.21-.03-.14-1.02-2.08.12-2.08-.34-.72-.86-1.37-.11-.07-1.42-.72,2.12-.4,5.42-1.06"/><path id="37153" d="m819.4,353.72l.65-.03.41-.09,1.92-.84.98-.66,2.58-.2,1.87-.11.84.56.34,1.48,1.79-.17.38.38-.91.56-.68.61-.31.33-.1.91.07.28.17.27-.26,1.33-.29.62-.98,1.25-4.44.72.89-1.93.18-.43v-.12l-1.39-3.32-.53-.86-.34-.42h-.3l-.24.14-.37.39-.06.23-.05.06-.11.1-.1.02-.49-.05-.88-.34-.22-.48-.05-.2"/><path id="37165" d="m834.02,358.34l-.06.49.58.72-1.78,3.91-4.88-3.25.98-1.25.29-.62.26-1.33-.17-.27-.07-.28.1-.91.31-.33.68-.61.91-.56,2.14,1.85.72,2.45"/><path id="37033" d="m830.94,318.84l.94,6.88-1.88.3-5,.74-.78-6.7.73-.14,2.3-.41,2.24-.41,1.45-.26"/><path id="37001" d="m824.99,326.75l5-.74.89,7.57.74.78.23.66-5.44,1.04-.22-1.29-1.19-7.83-.02-.19"/><path id="37125" d="m831.24,342.86l1.63,2.86,2.29,1.4-.39,1.38,2.46.94.05.42-2.9-.36-.63.55-.88,1.05-1.15,1.93-.55,1.01-.38-.38-1.79.17-.34-1.48-.84-.56-.47-.21-.43-.35-1.05-1.23-.27-.44-.06-.29-1.94-4.92,3.9-.77,3.76-.72"/><path id="37093" d="m831.16,354.04l.55-1.01,1.15-1.93.88-1.05.63-.55,2.9.36,2.07,4.81-2.14,2.89-1.01.46-2.16.31-.72-2.45-2.14-1.85"/><path id="37155" d="m839.34,354.68l2.95,2.26,2.37,2.99.07.34-.18,4.1-.25.49-.88.86-1.12,2.4-.95,1.57-8.33-6.07-.25-.18,1.78-3.91-.58-.72.06-.49,2.16-.31,1.01-.46,2.14-2.89"/><path id="37047" d="m856.05,364.62l1.93.64-1.11,3.52-2.25,1.27-2.01.69-.22.02-.14.05-.47.58-.86,3.16-.27,1.79-9.3-6.65.95-1.57,1.12-2.4.88-.86.79.31h.16l.39-.07,2.05-.53,2.33.5,2.61.74,2.06-.15,1.36-1.03"/><path id="37019" d="m857.98,365.26l2.56.11,1.53,1.81,1.11,2.6.39,1.43.09.49.37,2.47-.19,1.58-.65.3-.5-.66-1.51-.13h-.81l-.76.1-1.83.39-1.9.6-.06.02h0l-2.18,1.26-.54.44-2.43-1.74.27-1.79.86-3.16.47-.58.14-.05.22-.02,2.01-.69,2.25-1.27,1.11-3.52"/><path id="37129" d="m866.52,365.16l-.35.52-.32.7-.85,2.11-.14.55-.32,1.59-.03.2-.49,3.36-.37-2.47-.09-.49-.39-1.43-1.11-2.6-1.53-1.81,1.79-1.1,1.45-.69h.75l-.15.23.08.18.3.29,1.29.89h.47"/><path id="37017" d="m849.69,355.07l5.72,6.04-.25.43.05.11.46.57.33.2.56.07.68.36-1.2,1.77-1.36,1.03-2.06.15-2.61-.74-2.33-.5-2.05.53-.39.07h-.16l-.79-.31.25-.49.18-4.1-.07-.34-2.37-2.99,1.03-.48.77-.2,4.92-.94.51-.13.18-.12"/><path id="37051" d="m845.8,346.63l-.34,3.66v.17l.45.99.6,1.11.14.21,3.05,2.3-.18.12-.51.13-4.92.94-.77.2-1.03.48-2.95-2.26-2.07-4.81-.05-.42.57-.26,3.31-1.52,1.63-.88.55-.13,2.51-.04"/><path id="37037" d="m837.92,333.43l.04.59-.61,5.58,1.58.35-.76,1.58-1.8-1.42-.36-.23-.19-.09-.5-.14-.37.03-.33.11-.78,1.19-.83.73-1.32.93-.46.22-3.76.72-1.06-7.53,5.44-1.04-.23-.66,4.3-.46,1.99-.47"/><path id="37085" d="m838.93,339.94l4.04.78,3.92,4.07-1.1,1.84-2.51.04-.55.13-1.63.88-3.31,1.52-.57.26-2.46-.94.39-1.38,3.01-5.6.76-1.58"/><path id="37105" d="m831.24,342.86l.46-.22,1.32-.93.83-.73.78-1.19.33-.11.37-.03.5.14.19.09.36.23,1.8,1.42-3.01,5.6-2.29-1.4-1.63-2.86"/><path id="37135" d="m831.88,325.72l3.69-.59.36,8.77-4.3.46-.74-.78-.89-7.57,1.88-.3"/><path id="37145" d="m830.94,318.84l6.17-1.12,1.17,6.98-2.71.42-3.69.59-.94-6.88"/><path id="37063" d="m838.28,324.7l.26,3.22,1.39.35-.12.84,1.27.32-.08,1.06-.65,1.3-.93.12-.12,1.28-1.38.23-1.99.47-.36-8.77,2.71-.42"/><path id="37141" d="m857.31,356.8l7.98-1.5,4.25,5.77-3.02,4.09h-.47l-1.29-.89-.3-.29-.08-.18.15-.23h-.75l-1.45.69-1.79,1.1-2.56-.11-1.93-.64,1.2-1.77-.68-.36-.56-.07-.33-.2-.46-.57-.05-.11.25-.43,1.9-4.32"/><path id="37163" d="m846.9,344.79l1.42.7,3.04-.85,3,1.71.55,2.48.99,3.98-.27,3.95,1.34.4.11-.06.23-.3-1.9,4.32-5.72-6.04-3.05-2.3-.14-.21-.6-1.11-.45-.99v-.17l.34-3.66,1.1-1.84"/><path id="37191" d="m854.46,337.01l4.45-.56,1.21,4.55.33,4.47-6.09.89-3-1.71.72-1.05,1.45-2.45.93-4.13"/><path id="37101" d="m851.5,334.15l.8.85.97,1.82,1.19.19-.93,4.13-1.45,2.45-.72,1.05-3.04.85-1.42-.7-3.92-4.07,2.53-3.54,2.58-2.87,1.9-1.93,1.52,1.77"/><path id="37183" d="m839.93,328.28l3.88.45,1.05.25,1.32.41,2.5,1.4.64.54.6.81.05.23-1.9,1.93-2.58,2.87-2.53,3.54-4.04-.78-1.58-.35.61-5.58-.04-.59,1.38-.23.12-1.28.93-.12.65-1.3.08-1.06-1.27-.32.12-.84"/><path id="37077" d="m838.23,317.5l5-.93-.61.78-.05.45.15,1.49.65,3.49.45,2.15.25.14-.26,3.66-3.88-.45-1.39-.35-.26-3.22-1.17-6.98,1.12-.22"/><path id="37181" d="m843.22,316.57l2.39-.48,1.49,6.26-.56,1.03-.96.33-.34,1.15-1.18.21-.25-.14-.45-2.15-.65-3.49-.15-1.49.05-.45.61-.78"/><path id="37185" d="m850.62,315.13l2.64-.52.2.86-.63,7.29-5.71-.41-1.49-6.26,5-.96"/><path id="37069" d="m852.83,322.76l-2.85,9.62-.05-.23-.6-.81-.64-.54-2.5-1.4-1.32-.41-1.05-.25.26-3.66,1.18-.21.34-1.15.96-.33.56-1.03,5.71.41"/><path id="37127" d="m858.63,322.82l-.05,1.12-.75,3.79-.31,2.05-6.02,4.37-1.52-1.77,2.85-9.62,1.45.02.7.8,2.26-.51,1.39-.25"/><path id="37131" d="m866.48,311.97l.36.72.77-.06.52.78-.93.42.2,2.19-.35,2.93-1.5,1.12.35.96-.11.1-.19-.03-1.57-.67-.79-.97-1.03-1.31-2.26.74.05-1.19-.33-1.45-1.83-.98-4.32.07-.08.14-.2-.86,2.39-.46,8.48-1.67,2.36-.52"/><path id="37083" d="m853.45,315.47l.08-.14,4.32-.07,1.83.98.33,1.45-.05,1.19,2.26-.74,1.03,1.31.79.97,1.57.67.19.03.11-.1,1.09,1.23-1.31,1.03-1.04,1.85-.38.11-1.86-.43-.32-.69-.99-.53-2.47-.77-1.39.25-2.26.51-.7-.8-1.45-.02.63-7.29"/><path id="37065" d="m864.64,325.13l1.77,4.03-.78-.17-1.35,1.02-.39.66-.53.68-1.97,2.14-1.3-1-.84-1.69-1.74-1.04.31-2.05.75-3.79.05-1.12,2.47.77.99.53.32.69,1.86.43.38-.11"/><path id="37195" d="m857.52,329.77l1.74,1.04.84,1.69,1.3,1-.6.71-1.89,2.24-4.45.56-1.19-.19-.97-1.82-.8-.85,6.02-4.37"/><path id="37079" d="m860.8,334.2l5.1,4.32-1.48,1.32-1.15.9-.6.27-.17.03-.34-.39-2.04.33-1.21-4.55,1.89-2.24"/><path id="37107" d="m867.85,340.18l-1.02,2.84-1.01-.14.61,1.59v.15s-1.24,2.43-1.24,2.43l-2.08,1.9-2.65-3.5-.33-4.47,2.04-.33.34.39.17-.03.6-.27,1.15-.9,1.48-1.32,1.94,1.65"/><path id="37103" d="m866.82,343.02l.19.02,5.62,2.24.57.3.7-.43.21.04.11.14.34,1.04.7,4.33.52.56-1.31.68-1.4-1.91-.09-.11-1.03-.79-.58-.07h-5.27l-1.91.49-1.11-.61,2.08-1.9,1.23-2.43v-.15s-.6-1.59-.6-1.59l1.01.14"/><path id="37061" d="m854.36,346.35l6.09-.89,2.65,3.5,1.11.61.72,1,.19,4.32.02.14.14.27-7.98,1.5-.23.3-.11.06-1.34-.4.27-3.95-.99-3.98-.55-2.48"/><path id="37133" d="m864.21,349.57l1.91-.49h5.27l.58.07,1.03.79.09.11,1.4,1.91,1.65,3.11-6.59,6-4.25-5.77-.14-.27-.02-.14-.19-4.32-.72-1"/><path id="37031" d="m882.98,344.68l.08.15.33.35.75-.08,1.38-.78.37-1.75.81,1.02.95.94,1.23-.21-.99-1.3,1.61.49.58,1.51-1.17,1.78-.46.04-.46.63.36.85,3.25-4.96,1.63-2.43.33.45-1.58,2.1-.93,2.22-1.79,2.59-1.84,3.94-.57,1.24-.37-.67-.63-.22-1.93-.38-.95.11-.79.16-.85.25-1.59.58-1.49.62-.16.07-.07.03-.48.23-.41.23-.7.4-.3.17-1.65-3.11,1.31-.68,2.44-.68,3.48-1.55,1.09-.76.35-1.1.09-.52-.13-.12-1.16-.75,1.05-1.11"/><path id="37137" d="m882.16,337.3l2.03-.02.37.11.27.39.17.39.07.36-.27,1.2-.52,2.23-.29.68-1.02,2.03-1.05,1.11-.8.83-.32.15-.71.1-1.65-.41-1.04-.58-.43-.46-.85-2.55.2-1.09.24-.57.73-.88,1.08.67,3.81-1.24.16-.87v-.21l-.19-1.37"/><path id="37049" d="m871.15,337.67l6.15,2.66-.73.88-.24.57-.2,1.09.85,2.55.43.46,1.04.58,1.65.41.71-.1.32-.15.8-.83,1.16.75.13.12-.09.52-.35,1.1-1.09.76-3.48,1.55-2.44.68-.52-.56-.7-4.33-.34-1.04-.11-.14-.21-.04-.7.43-.57-.3-5.62-2.24-.19-.02,1.02-2.84,3.3-2.52"/><path id="37147" d="m866.41,329.16l3.61,1.32,1.13,7.19-3.3,2.52-1.94-1.65-5.1-4.32.6-.71,1.97-2.14.53-.68.39-.66,1.35-1.02.78.17"/><path id="37117" d="m865.68,323.28l.03.13.17.26,2.16,1.11.59,1.11.22.13,2.41-.76.54,1.84.21.06,1.39-1.41,1.07,1.73.77-.85-.04-.9,1.72.24-.79,3.93-1.76,1.22-.58.37-1.63-.51-2.13-.5-3.61-1.32-1.77-4.03,1.04-1.85"/><path id="37041" d="m876.06,315.94l2.22-1.77-.02,2.67.91,2.83.07.07.21.11.41.06.75.06,1.64-.1-1.12,1.14-.84,1.01-1.77-.55-.66.59-1.88-2.07.15-2.84-.06-1.22"/><path id="37091" d="m870.96,311.12l.35.52-.03.23-.31.91-.3.14.31,1.25.07.08.28.19.51.15,1.64.27h.5l2.07,1.09.06,1.22-3.48.73-1.95.48-3.16.56h-.48l.35-2.93-.2-2.19.93-.42-.52-.78-.77.06-.36-.72,4.45-.84h.03"/><path id="37015" d="m876.12,317.16l-.15,2.84,1.88,2.07-.07,1.8-.87,2.08-1.72-.24.04.9-.77.85-1.07-1.73-1.39,1.41-.21-.06-.54-1.84-2.41.76-.22-.13-.59-1.11-2.16-1.11-.17-.26-.03-.13,1.31-1.03-1.09-1.23-.35-.96,1.5-1.12h.48l3.16-.56,1.95-.48,3.48-.73"/><path id="37073" d="m877.66,309.6l1.08.71,1.31,2.86-1.78,1-2.22,1.77-2.07-1.09h-.5l-1.64-.27-.51-.15-.28-.19-.07-.08-.31-1.25.3-.14.31-.91.03-.23-.35-.52-.16-.18,6.85-1.35"/><path id="37029" d="m878.56,309.4l3.19-.67,3.38,2.23,2.19,1.2.09-.08.25.02.41.16,1.36,1.03,1.85,2.6v.06s-2.95.08-2.95.08l-.56-.63-1.4-.98-2.72-1.66-3.67-1.69-1.24-.76-1.08-.71.9-.19"/><path id="37139" d="m878.74,310.31l1.24.76,3.67,1.69,2.72,1.66,1.4.98.56.63-2.25,2.02-1.82-1.18-2.24-1.29-1.79-2.09-.19-.32-1.31-2.86"/><path id="37143" d="m880.05,313.17l.19.32,1.79,2.09,2.24,1.29,1.82,1.18-3.84,1.84-1.64.1-.75-.06-.41-.06-.21-.11-.07-.07-.91-2.83.02-2.67,1.78-1"/><path id="37013" d="m879.88,329.12l.89,1.54,2.41.91-1.5,1.48-.21.12-.06.1v.1l.07.27.59,1.09.64.84.31.36-.86,1.37.19,1.37v.21l-.16.87-3.81,1.24-1.08-.67-6.15-2.66-1.13-7.19,2.13.5,1.63.51.58-.37,1.76-1.22,3.76-.77"/><path id="37187" d="m877.78,323.88h.02s.37.16.37.16h.12l1.06-.29,1.76-.68.56-.38.19-.27,1.06-.55.18.07.18.16.55.58.3,2.43-.37,1.22.58,2.03-4.44.74-3.76.77.79-3.93.87-2.08"/><path id="37177" d="m891.14,327.61l-1.91.02-.76-.52-.51.66-.05,2.12-1.73.03-.15-1.74-1.7.19-.58-2.03.37-1.22-.3-2.43,1.43-1.02.98-.57.65-.26,2.08-.43.79.35.22.2.45,1.21-.04.3v.65s.18,1.26.18,1.26l.33,1.29.3,1.52-.05.41"/><path id="37053" d="m889.56,307.07l.96,2.33.42.34v.27s.73,1.29.73,1.29l.29.69-.55-.19.32.81.66.1.72,1.17.15-.1-3.51-6.74-.2.04Zm-.46.1l-.91.19v.17s-.33-.1-.33-.1l-.58.12.09.17.69.09-.06.7.25.1.28-.19.86.05-.29-1.3Zm-2.23.48l-1.69.36h0s-3.42.71-3.42.71l3.38,2.23,2.19,1.2.09-.08.25.02.41.16,1.36,1.03,1.85,2.6v.06s.53.67.53.67l.49.49.25.17.76.31h.11l-.02-.25-.3-.66-.85-1.99-2.37-3.13-.32-1.63-.39-.07.05.93.04.79-1.11-1.41.59-.04-.24-.31-.56.06-.92-1.53-.16-.7Z"/><path id="37055" d="m891.14,327.61l.05-.41-.3-1.52-.33-1.29-.19-1.26v-.65s.05-.3.05-.3l.77-1.46.14-.15.64-.42.35-.11.35-.07h.2l.81.22.64.6,1.3,1.83.21.34.86,2.75.02.11.03,1.61-.6,1.23-.37.2-.72.23-.63-.14-1.35-1.88-1.94.55m5.11-7.26l.33.15.33.26.43.44.33.56.25.91-.08.17h-.07s-.86-.14-.86-.14l-.16-.12-1.35-1.97-.1-.17v-.05s.13-.12.13-.12l.23-.05h.27l.32.12m2.15,16.81l.34-.18.27-.18,1.45-1.01,1.56-1.16.04-.37-.08-2.33-.11-1.56-.19-2.31-.23-1.05-.17-.52-.24-.54-.29-.36-.23-.29-.93-2,.07-.08.1.02h.03l.04.05.48.58.18.3.55,1.06.33.76.45,1.01.14.99.03.3.17,1.41.16,2.06.08,1.68v2.04s-.11.21-.11.21h-.22l-.3-.03-.36.11-.53.2-.43.27-1.91,1.24-.15-.3m-5.13-23.4l1.01,1.5h0l.56.88.64.73.9,1.14.88,1.24,1.23,2.15.88,1.36-.09.27-1.82-2.02-.73-1.62-.99-.3-.6-1.28-.9-1.79-1.12-2.16.15-.1"/><path id="37095" d="m891.14,327.61l1.94-.55,1.35,1.88-.43.32-.8,1.17-.06.11-.5,1.32.07.26v.24s-.11.74-.11.74l-.03.15-.09.17-.68,1.09-1.14,1.25-.11.07-4.66.45h-.17l-1.51-.19-1.21-.18-.31-.36-.64-.84-.59-1.09-.07-.27v-.1l.06-.1.21-.12,1.5-1.48-2.41-.91-.89-1.54,4.44-.74,1.7-.19.15,1.74,1.73-.03.05-2.12.51-.66.76.52,1.91-.02m7.26,9.56l.15.3-.34.19-.33.27-.83.67-1.17,1-.51.45-.58.68-.27.4-.19.17-.06-.07.02-.09.29-.82.33-.47,1.17-1.02,1.77-1.42.55-.25"/></g></svg>