<?xml version="1.0" encoding="UTF-8"?><svg xmlns="http://www.w3.org/2000/svg" viewBox="0 0 989.98 627.07"><g><path id="38017" d="m500.41,98.96l9.74.15.08,1.99.02,2.91.67,2.19.19.53-.31,5v1.29s-7.89-.06-7.89-.06l-6.38-.11.14-7.99-.38-.04.1-5.94,4.01.09"/><path id="38077" d="m510.82,113.02l.68,1.98,2.21,5.32.61,4.82.05.4-.03.46-.04.14-.3.84.22,1.99-10.68-.1-.34-1.39-.13-1.42.07-5.15h-.34l.11-7.96,7.9.06"/><path id="38013" d="m430.78,60.46l-1.99-.13-.14,1.94-1.24-.04-.26,3.95-10.04-.71.14-1.97.14-1.98-.83-.06.48-6.32,14.03.97-.29,4.35"/><path id="38023" d="m400.1,53.78l16.95,1.36-.48,6.32.83.06-.14,1.98-17.85-1.42.69-8.29"/><path id="38105" d="m399.4,62.07l17.85,1.42-.14,1.97-.27,3.95.88.06-.42,5.67-.65-.35-3.53-.48-1.58.14-.19.14-.4.42-.28.39v.04s.02.05.02.05l.23.1.13.14v.1s-.03.13-.03.13l-.12.13-.72.26-1.06.29-2.25.42-.2-.02-.81-.71-.35-.58-.04-.71-.27-.52-1.01-.34-.32.07-.31.16-.48.37v.11s.04.1.04.1l.32.31-.45.66-1.37,1.04-.98.54-.55.11-1.86-1.08.71-8.94.46-5.54"/><path id="38061" d="m427.14,66.17l4.02.22-.25,3.98.78.05-.5,7.94-.07,1.26.51.1.1,2.68-8-.51-.14,2.04-3.89-1.77-.06-.07-.03-.11-.07-.67.04-.32.15-.6.06-.11.55-.67.34-.21.26-.23.23-.31.2-.41v-.12s-.04-.07-.04-.07l-2.22-2.17-1.16-.85-.67-.09.42-5.67-.88-.06.27-3.95,10.04.71"/><path id="38053" d="m417.3,75.13l.67.09,1.16.85,2.22,2.17.05.07v.12s-.21.41-.21.41l-.23.31-.26.23-.34.21-.55.67-.06.11-.15.6-.04.32.07.67.03.11.06.07-.25,3.41-7.13-.53-.58,7.88-8.9-.7-5.93-.51.14-1.54,1.16-13.61,1.86,1.08.55-.11.98-.54,1.37-1.04.45-.66-.32-.31-.05-.1v-.11s.49-.37.49-.37l.31-.16.32-.06,1.01.34.27.52.04.71.35.58.81.71.2.02,2.25-.42,1.06-.29.72-.26.12-.13.03-.13v-.1s-.14-.14-.14-.14l-.23-.1-.03-.05v-.04s.29-.39.29-.39l.4-.42.19-.14,1.58-.14,3.53.48.65.35"/><path id="38025" d="m423.6,83.93l.51-.76.11-.11.11-.06.22.04.85.38.16.1.04.12v.14s-.07.17-.07.17l-.27,3.18.03.11.06.1.76.95-.37,5.62.96.06-.47,7.26-6-.4-.04.66-8-.54.59-7.95-1.04-.08.58-7.88,7.13.53.25-3.41,3.89,1.77"/><path id="38089" d="m426.25,101.24l.77.04-.05.68-.38,6.02-.14,1.98-13.18-.88-4.81-.36.62-8,3.13.23,8,.54.04-.66,6,.4"/><path id="38033" d="m402.86,92.22l-.65,7.96.91.07-.63,7.99-3.04-.25-.17,2.03-3.87-.33.19-2.3,1.33-15.7,5.93.51"/><path id="38007" d="m402.86,92.22l8.9.7,1.04.08-.59,7.95-3.13-.23-.62,8-5.98-.46.63-7.99-.91-.07.65-7.96"/><path id="38011" d="m411.62,116.98l-.57,7.68-16.8-1.33.64-7.66,16.73,1.32"/><path id="38087" d="m402.48,108.25l5.98.46,4.81.36-.53,7.97-1.12-.07-16.73-1.32.52-5.96,3.87.33.17-2.03,3.04.25"/><path id="38041" d="m426.45,109.95l.72.06-.46,8.06.8.07-.11,1.65-7.97-.54.13-1.77-6.81-.44.53-7.97,13.18.88"/><path id="38001" d="m411.62,116.98l1.12.07,6.81.44-.13,1.77,7.97.54-.39,5.97h-.03l-15.08-1.04-.86-.06.57-7.68"/><path id="38057" d="m426.14,88.29l.34.18,4.45,1.72,1.02.31.22-.04.36-.18.78-.48.55-.18,3.99-.34h.28l.13.06.87.9-.03.14-.13.14-.58.3-.15.13-.27.31-.06.17.02.16,1.25,3.47,1.38,1.21-.04.54-7.96-.46-.36,5.94-5.24-.32.05-.68-.77-.04.47-7.26-.96-.06.37-5.62"/><path id="38037" d="m426.59,107.97l5.99.36-.12,1.99,6.65.4-.34,5.92,3.99.21.26,2.02-1.53,1.53-1.63,1.27-1.5,1.06-3.42,1.56-1.27.38h-.05l-1.59-.33-2.38-.84-1.05-.35-1.42.12.22-3.48.11-1.65-.8-.07.46-8.06-.72-.06.14-1.98"/><path id="38085" d="m443.02,118.88l.18-.82,1.64-1.52.67-.22.22.2.63.13,1.62.1.4-.13,1.73-.68.14.27.3.8.11.43v.69s-.24,2.1-.24,2.1l-.07.22-.25.51-.3.31-.44.66-.19.46v.26s.15,1.43.15,1.43l.06.23,1.44,2.79-3.65-.18-.36-.02h-.13l-1.93-.1-1.45-.08-6.3-.35-.93-.06-2.01-.11-2.43-.15-2.31-.14-1.94-.12-.26-.02h-.14l.16-2.49,1.42-.12,1.05.35,2.38.84,1.59.33h.05l1.27-.38,3.42-1.56,1.5-1.06,1.63-1.27,1.53-1.53"/><path id="38059" d="m426.97,101.95l5.24.32,13.07.7.02.43.36,1.5.96,3.54.7,1.38.78.77,1.11.56.92.76.31.54.44.98-.49.74-.14.29-.24,1.02.02.2.1.26-1.73.68-.4.13-1.62-.1-.63-.13-.22-.2-.67.22-1.64,1.52-.18.82-.26-2.02-3.99-.21.34-5.92-6.65-.4.12-1.99-5.99-.36.38-6.02"/><path id="38065" d="m445.03,98.97l.25,3.99-13.07-.7.36-5.94,7.96.47.04-.54,2.15-.53.55-.05.45.12.36.15.52.4.27.36.06.13.09,2.14"/><path id="38075" d="m430.78,60.46l.29-4.35,8.02.47-.37,6.34.68.05-.22,3.93,6.04.35-.11,1.97-12.06-.71.35-5.92-2.75-.17.12-1.97"/><path id="38101" d="m427.14,66.17l.26-3.95,1.24.04.14-1.94,1.99.13-.12,1.97,2.75.17-.35,5.92,12.06.71-.11,1.98.43.05-.06,6.16.4,1.8h.19l-.22,3.96-14.02-.78-.1-2.68-.51-.1.07-1.26.5-7.94-.78-.05.25-3.98-4.02-.22"/><path id="38055" d="m445.76,83.18l6.01.33-.18,3.96-1.37-.07-.08,1.17-.33,6.74-1.19-.07-.2,3.89-3.39-.16-.09-2.14-.06-.13-.27-.35-.52-.4-.36-.15-.45-.12-.55.05-2.15.53-1.38-1.21-1.25-3.47-.02-.16.06-.17.27-.31.15-.13.58-.3.13-.14.03-.14-.87-.9-.13-.06h-.28l-3.99.34-.55.18-.78.48-.36.18-.22.04-1.02-.31-4.45-1.72-.34-.18-.76-.95-.06-.1-.03-.11.27-3.18.06-.17v-.14s-.03-.12-.03-.12l-.16-.1-.85-.38-.22-.04-.11.06-.11.11-.51.76.14-2.04,8,.51,14.02.78"/><path id="38009" d="m439.09,56.58l20.11,1.03-.28,6.36.57.03-.18,3.94-2.02-.07-2-.09.09-1.99-6.01-.31-4.04-.2-.1,1.98-6.04-.35.22-3.93-.68-.05.37-6.34"/><path id="38049" d="m457.29,67.87l-.17,3.94h.43s-.18,7.99-.18,7.99h.47s-.04,3.99-.04,3.99l-6.03-.27-6.01-.33.22-3.96h-.19l-.4-1.8.06-6.16-.43-.05.21-3.95.1-1.98,4.04.2,6.01.31-.09,1.99,2,.09"/><path id="38083" d="m457.81,83.79l2.01.1-.18,3.96.57.03-.34,7.91-1.26-.05-8.8-.42.33-6.74.08-1.17,1.37.07.18-3.95,6.03.27"/><path id="38015" d="m458.61,95.73l-.36,7.89.63.02-.44,7.96-9.22-.45-1.11-.56-.78-.77-.7-1.38-.96-3.54-.36-1.5-.02-.43-.25-3.99,3.39.16.2-3.89,1.19.07,8.8.42"/><path id="38029" d="m458.43,111.61l2.63.12-.36,8.01.62.04-.35,7.82-9.93-.48h-.2l-1.44-2.79-.06-.23-.16-1.43v-.27s.2-.46.2-.46l.44-.66.3-.31.25-.51.07-.22.25-2.1v-.69s-.12-.43-.12-.43l-.3-.8-.14-.28-.1-.26-.02-.2.24-1.02.14-.29.49-.74-.44-.98-.31-.54-.92-.76,9.22.45"/><path id="38051" d="m461.33,119.77l13.43.48.55.03-.29,7.87-11.43-.43-2.6-.12.35-7.82"/><path id="38047" d="m461.06,111.73l7.4.31,6.56.26-.27,7.96-13.43-.48-.62-.04.36-8.01"/><path id="38043" d="m458.61,95.73l1.26.05,8.68.35-.3,7.91.55.02-.34,7.99-7.4-.31-2.63-.12.44-7.96-.63-.02.36-7.89"/><path id="38103" d="m459.81,83.88l4.01.16,8.01.31-.13,3.97.48.02-.06,1.94-.21,5.95-3.37-.12-8.68-.35.34-7.91-.57-.03.18-3.96"/><path id="38069" d="m459.31,67.94l10.06.42-.14,3.96-5.47-.22-.34,7.96.56.03-.15,3.96-4.01-.16-2.01-.1.04-3.99h-.47s.18-7.99.18-7.99h-.43s.17-3.94.17-3.94l2.02.07"/><path id="38079" d="m459.31,67.94l.18-3.94-.57-.03.28-6.36,10.06.4-.25,6.39h.51s-.15,3.96-.15,3.96l-10.06-.42"/><path id="38095" d="m469.26,58.01l8.05.27-.15,4.09-.05,2.31.45.02-.12,3.95-.14,3.95-3.54-.12-4.52-.17.14-3.96.15-3.94h-.51s.25-6.4.25-6.4"/><path id="38005" d="m469.23,72.31l4.52.17-.16,4.9.11.15,2.2,1.29.98,2.28.55-.12,2.15-.98.85,1.31,1.93,1.78,1.54.07-.03,1.57-12.04-.39-8.01-.31.15-3.96-.56-.03.34-7.96,5.47.22"/><path id="38027" d="m471.84,84.36l12.04.39.29,3.98-.05,1.95-11.99-.37.06-1.94-.48-.02.13-3.97"/><path id="38031" d="m472.13,90.29l11.99.37-.14,5.95-12.05-.38.21-5.95"/><path id="38093" d="m468.55,96.12l3.37.12,12.05.38h.45s0,1.98,0,1.98l-.15,5.97h.44l-.2,7.98-9.49-.26-6.56-.26.34-7.99-.55-.02.3-7.91"/><path id="38045" d="m484.51,112.56l6.44.16-.19,7.98-15.46-.42-.55-.03.27-7.96,9.49.26"/><path id="38021" d="m475.3,120.28l15.46.42h.46l-.2,7.95-11.5-.34-4.51-.16.29-7.87"/><path id="38081" d="m491.22,120.71l11.59.21h.34l-.07,5.15.13,1.42.34,1.39-12.05-.22-.47-.02.2-7.95"/><path id="38073" d="m490.95,112.72l5.59.13,6.38.11-.11,7.96-11.59-.21h-.46l.19-7.98"/><path id="38003" d="m492.39,98.78l4.01.09-.1,5.94.38.04-.14,7.99-5.59-.13-6.44-.16.2-7.98h-.44l.15-5.97,7.97.18"/><path id="38039" d="m492.22,88.91l.17,9.87-7.97-.18v-1.97s-.45,0-.45,0l.19-7.9,8.06.19"/><path id="38091" d="m492.22,88.91l1.6.03,6.4.12.19,9.89-8.02-.18-.17-9.87"/><path id="38063" d="m487.7,76.88l6.04.14-.08,3.97h.33v.03l-.16,7.91-1.6-.03-8.06-.19-.29-3.98.03-1.57.07-2.42,1.6.04.11-3.95,2.01.04"/><path id="38071" d="m487.5,68.94l-.07,2.67.38,1.3-.11,3.98-2.01-.04-.11,3.95-1.6-.04-.07,2.42-1.54-.07-1.93-1.78-.85-1.31-2.15.98-.55.12-.98-2.28-2.2-1.29-.11-.15.16-4.9,3.54.12.14-3.95,10.06.29"/><path id="38019" d="m477.31,58.28l16.07.4-.12,6.42h.35l-.08,3.98-6.03-.15-10.06-.29.12-3.95-.45-.02.05-2.31.15-4.09"/><path id="38067" d="m493.38,58.68l11.05.18-.07.07-.07.34-.02.34.09.48,1.11,3.62.3.88.68,1.54-1.13,3.13.07.04-11.86-.21.08-3.98h-.35l.12-6.42"/><path id="38099" d="m487.5,68.94l6.03.15,11.86.21.12.06.36.44.1,5.48-.51,1.95-11.72-.22-6.04-.14.11-3.98-.38-1.3.07-2.67"/><path id="38035" d="m505.46,77.24v.47s0,.06,0,.06l.36,1.4,1.5,5.39,2.02,4.62-9.11-.1-6.4-.12.16-7.91v-.03h-.33l.08-3.97,11.72.22"/><path id="38097" d="m500.23,89.07l9.11.1.54,3.96.28,5.98-9.74-.15-.19-9.89"/></g></svg>