<?xml version="1.0" encoding="UTF-8"?><svg xmlns="http://www.w3.org/2000/svg" viewBox="0 0 989.98 627.07"><g><path id="39155" d="m787.33,209.76l.04.25,1.34,8.12-8.18,1.31-.8-4.89-.6-3.51,8.19-1.29"/><path id="39007" d="m786.03,201.78l1.31,7.99-8.19,1.29-.78-4.88-.5-3.2,7.69-4.12.48,2.92"/><path id="39087" d="m759.85,276.08l1.33-.08.09,1.52,1.63-.15.05.64.41.02.07,1.37,2.07-.18.3,2.2,1.33-.14v1.01s-.01.05-.01.05l-.08,1.65-.03.17-.03.15-.31.48-.82.32-.61-.03-1.49.81-1.03.44-.63-.2-1.38-2.12-2.87-1.12,1.09-.7-.42-1.03-.13-.88,1.07-.12-.15-1.66.66-.16-.08-2.26"/><path id="39145" d="m748.4,273.76l.79.38.39.75,3.77-.4,3.42-.28.96-.07.12,2.11.37-.05,1.64-.11.08,2.26-.66.16.15,1.66-1.07.12.13.88.42,1.03-1.09.7-.08-.04-.39-.26-.02-.03-.14-.17-.12-.26-.04-.09-.5-1.5-.17-.72.02-.28h0v-.19s-.05-.14-.05-.14v-.03s-.02-.03-.02-.03l-.03-.06-.05-.07-.02-.04-.08-.09-.18-.08h-.11l-.48.21-1.49.67-.32.14-1.32,1.31-.3,1.22-1.71.25-.72.63-1.08-9.51"/><path id="39001" d="m748.4,273.76l1.08,9.51-1.02-.76h-.04s-.6-.29-.6-.29l-.05-.02-1.91-.46-.72-.18h-.03l-.15-.02-.22.05-1.4.61-.19.13-.14.23-.1.81-1.03.12-.58-8.89h.97s3.98-1.46,3.98-1.46l1.27-.1.87.73"/><path id="39131" d="m746.39,269.78l10.04-.7.34,5.12-3.42.28-3.77.4-.39-.75-.79-.38-.87-.73-1.27.1.13-3.35"/><path id="39079" d="m756.71,268.13l1.99-.14.04.39,2.01-.18.11.84,2-.14.15,2.39.19,4.56-2.03.16-1.33.08-1.64.11-.37.05-.12-2.11-.96.07-.34-5.12.37-.03-.09-.93"/><path id="39053" d="m765.01,271.16l.03.34,4.05-.35.09,1.04-.36,1.34-.26.35h0l.2.71-.09.64-.54.59-.52.38-.04.46.44.44.19.58.32.43-.13.77.58,1.27-.15.66-.48.29-.96-.08-.26.24-1.33.14-.3-2.2-2.07.18-.07-1.37-.41-.02-.05-.64-1.63.15-.09-1.52,2.03-.16-.19-4.56,2-.11"/><path id="39105" d="m765.38,266.98l9.17-.8.26.95.08,1.17-.47.4-.63.08.09.31.19.25.61.4.33.53-.3,1,.42.3.06.54-.59.2-.72-.39-.16.35-.21,1.08-.9.36-.59-.39-.06-.18.44-.81-.8-1.17-.66.12h0l-.53-.75-.34-.06-.32.89-.5.49-.06.32-.09-1.04-4.05.35-.03-.34-.23-4.13.6-.05"/><path id="39163" d="m756.44,264.41l1.99-.13,2.04-.47-.03-.61,3.97-.3.14,2.07.67-.06.16,2.07-.6.05.23,4.13-2,.11-.15-2.39-2,.14-.11-.84-2.01.18-.04-.39-1.99.14-.27-3.71"/><path id="39167" d="m781.18,255.18l.3-.05.08.56,4.02-.42.08.73-1.09,2.16-.23.43-.7.33-.41.62-.17.72-.76-.03-1.72,1.51-.52-.14-.5-.93-.32-.32-.2-.02-.34.09-.46.84-.93.84.05,1.73-1.6.11-.36.24-.11.65-.03.45-.4.2-.14-1.44-1.7.19-.16-.67h-.26s-.04-.29-.04-.29h-.31s-.31-3.03-.31-3.03l.38-.06-.12-.98,1.98-.09-.09-1.13-.36.03-.03-1.25.41-.24,1.83-.09,1.95-.37-.17-1.37h.28s.1.3.1.3l.71-.11.06.35.3-.05.05.29.64-.09.07.2,1.28-.16-.04-.26"/><path id="39009" d="m766.11,258.62l1.97-.15.2,2.13,3.67-.35.31,3.05h.31s.04.29.04.29h.26s.16.66.16.66l1.7-.19.14,1.44-.31.69-9.17.8-.16-2.07-.67.06-.27-4.12,1.99-.14-.16-2.09"/><path id="39073" d="m762.03,256.91l.08,1.39,2.11-.08.13.58,1.77-.17.16,2.09-1.99.14.14,2.05-3.97.3.03.61-2.04.47-1.99.13-.18-2.32-.12-2v-.21s1.99-.13,1.99-.13l-.07-1.09,2.04-.25-.1-1.39,2.03-.13"/><path id="39141" d="m746.92,262.26l4.54-.39.4.31.22.24,4.18-.32.18,2.32.27,3.71.09.93-.37.03-10.04.7-.07-1.15-.65-.02-.07-.85-.11-2.05,1.42-3.44"/><path id="39071" d="m741.67,266.17l3.82-.47.11,2.05.07.85.65.02.07,1.15-.13,3.35-3.98,1.47h-.97s-3.5.42-3.5.42l-.55-5.21.55-.05.07.6.49-.03.22-.88,3.09-3.29"/><path id="39015" d="m734.99,269.95l2.26-.13.55,5.21,3.5-.43.58,8.89-1.39-.69-1.57-1.62-.11-.09-.22-.08-.61-.08-2.64.28-.36-11.25"/><path id="39025" d="m734.75,269.95h.24l.36,11.25-3.3-.94-.17-1.05-1.95-3.2-.07-3.55.43-.7-.71-.07.7-1.53,4.47-.21"/><path id="39061" d="m728.57,269.87l1.7.29-.7,1.53.71.07-.43.7.07,3.55-3.49-1.29-2.01.73-3.55-.3-.53-4.6,2.9-.34,1.29-.23,3.34-.15.68.04"/><path id="39027" d="m739.78,262.41l1.66-.08.24,3.84-3.09,3.29-.22.88-.49.03-.07-.6-.55.05-2.26.13h-.24l-.39-7.28,5.42-.26"/><path id="39165" d="m731.94,262.76l2.42-.09.39,7.28-4.47.21-1.7-.29-.36-5.73-.56.14-.13-1.23,4.42-.28"/><path id="39017" d="m725.53,263.28l1.99-.23.13,1.23.56-.14.36,5.73-.68-.04-3.34.15-1.29.23-2.9.34-.51-5-.12-1.04,5.91-.71-.1-.52"/><path id="39135" d="m724.49,255.74l1.04,7.54.1.52-5.91.71-.42-3.67-.49-4.39,5.68-.71"/><path id="39113" d="m725.53,255.59l4.67-.66-.14.28.1.36.13.22,1.87-.1.04.67v.45s-.55-.02-.55-.02l.29,5.96-4.42.28-1.99.23-1.04-7.54,1.04-.15"/><path id="39057" d="m739.5,257.24l.07,1.31.21,3.86-5.42.26-2.42.09-.29-5.96.55.02v-.45s1.25-.06,1.25-.06l.76.02.06.4,1.97-.23.03.58h1.63s.1.36.1.36l1.51-.2"/><path id="39047" d="m739.57,258.55l7.05-.43.3,4.14-1.42,3.44-3.82.47-.24-3.84-1.66.08-.21-3.86"/><path id="39129" d="m746.4,255.38l7.34-.58.15,2.3.27,3.11,1.97-.11.12,2-4.18.32-.22-.24-.4-.31-4.54.39-.3-4.14-.21-2.73"/><path id="39045" d="m754.01,251.38l5.57-.57.14,2.16,1.35-.06.22,2.03.6-.07.14,2.03-2.03.13.1,1.39-2.04.25.07,1.09-1.98.13v.21s-1.97.11-1.97.11l-.27-3.11-.15-2.3.07-.46.35-.06-.17-2.13-.33.04-.09-.77.43-.04"/><path id="39127" d="m759.58,250.81l4.03-.18,1.28-.06.19,2.04,1.65-.17.1,1.06.11,1.04h.88s.26,3.94.26,3.94l-1.97.15-1.77.17-.13-.58-2.11.08-.08-1.39-.14-2.03-.6.07-.22-2.03-1.35.06-.14-2.16"/><path id="39111" d="m781.04,249.06l1.92-.23,4.08-.36,1.27-.14.23-.05-.16.37.16.76-.63,1.12.74.78.05.52-.45.21.07,1.31-.36.74-.9.14-1.41,1.78-.08-.73-4.02.42-.08-.56-.3.05-.33-2.32-.66.09-.48-3.73,1.33-.17"/><path id="39121" d="m780.8,247.14l.24,1.92-1.33.17.48,3.73.66-.09.33,2.32.04.26-1.28.16-.07-.2-.64.09-.05-.29-.3.05-.06-.35-.71.11-.1-.32h-.28s.17,1.38.17,1.38l-1.95.37-.24-1.84-1.01.06-.26-1.93-.99.15-.24-2,1.98-.22-.17-1.36,1.87-.22-.11-.7,1.56-.19-.19-.6.65-.17,1.98-.26"/><path id="39115" d="m766.82,253.49l6.63-.63.99-.15.26,1.93,1.01-.06.24,1.84-1.83.09-.41.24.03,1.25.36-.03.09,1.13-1.98.09.12.98-.38.06-3.67.35-.2-2.13-.26-3.95h-.88s-.11-1.02-.11-1.02"/><path id="39119" d="m763.57,244.7l8.19-.88.55,5.09.65-.08.26,2.03.24,2-6.63.63-.1-1.06-1.65.17-.19-2.04-1.28.06-.12-.81.63-.18-.55-4.94"/><path id="39013" d="m786.11,241.41l3.11-.45.24,1.27-.48.77.22.31-.03.57-.08.55.3.95-.32.62.32.78-.31.26-.61-.08.42.88-.35.43-.23.05-1.27.14-4.08.36-1.92.23-.24-1.92-.65-5.03,5.95-.7"/><path id="39067" d="m784.12,235.51l1.32-.17.13,1-.06.14.59,4.93-5.95.7-2,.22-.09-.93-.26-2.07.64-.09.35-.25-.35-2.79,5.67-.68"/><path id="39059" d="m773.13,241.99l4.92-.59.09.93,2-.22.65,5.03-1.98.25-.65.17.19.6-1.56.19.11.7-1.87.22.17,1.36-1.98.22-.26-2.03-.65.08-.55-5.09.63-.08.14-.1-.15-1.4.76-.26"/><path id="39031" d="m762.65,238.06l8.22-.96.2,1.7,1.66-.19.4,3.38-.76.26.15,1.4-.14.1-.63.08-8.19.88-.12-1.68-.27.05-.53-5.01"/><path id="39089" d="m753.44,243.57l4.81-.39.04.43,1.97-.17,2.91-.38.27-.05.12,1.68.55,4.94-.63.18.12.81-4.03.18-5.57.57-.05-.66.25-.06-.45-3.6-.32-3.49"/><path id="39041" d="m744.36,240.92l3.95-.3.04.34,1.52-.09.15,1.21,3.32-.18.1,1.68.32,3.49-7.11.58-.35-2.3-1.3.16-.44-2.99-.19-1.58"/><path id="39049" d="m753.76,247.06l.45,3.6-.25.06.05.66-.43.04.09.77.33-.04.17,2.13-.35.06-.07.46-7.34.58-.36-2.65-.87-2.76,1.03-.09-.07-1.35.58-.11-.06-.79,7.11-.58"/><path id="39097" d="m740.97,249.15l5.16-.61.07,1.35-1.03.09.87,2.76.36,2.65.21,2.73-7.05.43-.07-1.31,1.07-.09.51-5.68-.11-2.32"/><path id="39023" d="m731.95,251.97l9.14-.51-.51,5.68-1.07.09-1.51.2-.1-.37h-1.63s-.03-.56-.03-.56l-1.97.23-.06-.4-.76-.02-1.24.06-.04-.67-.21-3.72"/><path id="39021" d="m739.79,246.54l.9-.09.28,2.7.11,2.32-9.14.51-.3-5.41,4.03-.21.04.41,4.07-.22"/><path id="39109" d="m724.63,249.22l7.14-.58.18,3.33.21,3.72-1.87.1-.13-.22-.1-.36.14-.28-4.67.66-.9-6.37"/><path id="39149" d="m724.16,245.6l-.08-.49,1.64-.29-.3-2.32,5.83-.79.4,4.85.11,2.08-7.14.58-.48-3.61h.01"/><path id="39037" d="m724.15,245.61l.48,3.61.9,6.37-1.04.15-5.68.71-.21-2.03-.71-7.03-.12-.98,6.38-.8"/><path id="39107" d="m722.86,238.06l1.01,7.58.29-.03h-.01l-6.38.8-.57-5.06-.42-3.58,5.97-.69.11.97"/><path id="39011" d="m723.87,237.93l2.99-.4.09.67,2.01-.12.02.29,3.91-.63.31,2.44-2.12.4.17,1.14-5.83.79.3,2.32-1.64.29.08.49-.29.03-1.01-7.58,1.02-.13"/><path id="39091" d="m733.19,240.17l.73.12,5.54-.25.04.12.29,6.38-4.07.22-.04-.41-4.03.21-.4-4.85-.17-1.14,2.12-.4"/><path id="39159" d="m739.5,240.16l1.74-.26,2.91-.49.21,1.51.19,1.58.44,2.99,1.3-.16.35,2.3.06.79-.58.11-5.16.61-.28-2.7-.9.09-.29-6.38"/><path id="39101" d="m750.25,234.01l.16,1.34-1.68.26.35,3.52-.86.31.09,1.18-3.95.3-.21-1.51-2.91.49-.58-4.16,1.89-.21-.05-.37,3.4-.51,4.34-.64"/><path id="39117" d="m750.25,234.01l2.23-.46,1.62-.15.07.86-.35.06.13.69.41-.02.43,2-.45.05.04.63.3.06.38,4.02-1.7.14-3.32.18-.15-1.21-1.52.09-.04-.34-.09-1.18.86-.31-.35-3.52,1.68-.26-.16-1.34"/><path id="39083" d="m761.65,235.58l.78-.3.21,2.77.53,5.01-2.91.38-1.97.17-.04-.43-4.81.39-.1-1.68,1.7-.14-.38-4.02-.3-.06-.04-.63.45-.05,4.91-.82,1.96-.6"/><path id="39075" d="m771.11,231.83l.11.76-.19.19.52,4.24-.67.08-8.22.96-.21-2.77-.78.3-.27-2.23,1.55-.31,8.17-1.22"/><path id="39157" d="m776.85,231.33l.23,1.95.99-.11.72,5.81-.35.25-.64.09.26,2.07-4.92.59-.4-3.38-1.66.19-.2-1.7.67-.08-.52-4.24.19-.19,3.17-1.04,2.47-.22"/><path id="39019" d="m780.52,228.97l2.75-.55.3,1.87.95-.12.24,1.01.13.98-1.13.25.34,1.95-.22.02.25,1.12-5.67.68-.38-3.02-.99.11-.23-1.95,1.32-.18-.2-1.62.66-.11-.02-.18,1.91-.27"/><path id="39081" d="m784.76,231.18l1.8-.33.14.4,1.53-.12.03.27.51.42.33.39.22.56.45.51.09.56-.17.66.11.51-.21.36.57.41v.55s.39.72.39.72l-.21.81.12.39-.64.62-.15.64-.12.71-.34.72-3.11.45-.59-4.93.06-.14-.13-1-1.32.17-.25-1.12.22-.02-.34-1.95,1.13-.25-.13-.98"/><path id="39029" d="m789.58,223.47l.2,1.1.8,4.86-.58.43-.32.32-.37-.07-.61.38-.45.65-1.53.12-.14-.4-1.8.33-.24-1.01-.95.12-.3-1.87-2.75.55-.63-4.01,3.12-.53-.1-.83,1.2-.06.14.72,5.32-.79"/><path id="39151" d="m774.36,223.83l5.24-.81.93,5.95-1.91.27.02.18-.66.11.2,1.62-1.32.18-2.47.22-3.17,1.04-.94-6.41,3.89-.53-.35-1.73.54-.11"/><path id="39169" d="m769.33,224.59l.69-.11.26,1.71.83,5.64-8.17,1.22-1.15-7.42,7.55-1.04"/><path id="39005" d="m760.83,224.11l.2,1.6.76-.07,1.15,7.42-1.55.31.27,2.23-1.96.6-.61-3.94-.8.04-.32-1.78-.55-.19-.15-1.38-.41-2.59-.26.03-.3-1.67,1.7-.23,2.82-.35"/><path id="39139" d="m751.6,227.02l5-.65.26-.03.41,2.59.15,1.38.55.19.32,1.78.8-.04.61,3.94-4.91.82-.43-2-.41.02-.13-.69.35-.06-.07-.86-1.62.15-.87-6.53"/><path id="39033" d="m751.6,227.02l.87,6.53-2.23.46-4.34.64-.93-6.66,4.83-.75,1.79-.23"/><path id="39175" d="m739.73,228.73l5.26-.74.93,6.66-3.4.51.05.37-1.89.21-.36.03-.12-.31-.88.12-.36-2.68-.34.04-.3-1.88.67-.16-.2-.96.37-.04-.11-1.08.69-.09"/><path id="39065" d="m732.36,233.71l6.25-.77.34-.04.36,2.68.88-.12.12.31.36-.03.58,4.16-1.74.26-.04-.12-5.54.25-.73-.12-.83-6.46"/><path id="39003" d="m732.06,231.4l.3,2.31.52,4.02-3.91.63-.02-.29-2.01.12-.09-.67-2.99.4-.33-2.83.99-.24-.19-1.06,3.96-.49-.03-1.02,1.84-.27-.02-.36,1.96-.26"/><path id="39063" d="m731.32,225.72l7.86-1,.55,4-.69.09.11,1.08-.37.04.2.96-.67.16.3,1.88-6.25.77-.3-2.31-.74-5.68"/><path id="39137" d="m731.32,225.72l.74,5.68-1.96.26.02.36-1.84.27.03,1.02-3.96.49-.13-.83-.93.18-.32-2.24.96-.18-.46-3.97,1.93-.25,5.92-.79"/><path id="39161" d="m716.05,231.77l6.92-.86.32,2.24.93-.18.13.83.19,1.06-.99.24.33,2.83-1.02.13-.11-.97-5.97.69-.54-4.47-.19-1.54"/><path id="39099" d="m788.75,218.32l.83,5.15-5.32.79-.14-.72-1.2.06.1.83-3.12.53-.3-1.94,1.41-.23-.46-3.34,8.18-1.31.03.18"/><path id="39133" d="m773.12,215.58l6.61-1.02.8,4.89.46,3.34-1.41.23-5.24.81-1.24-8.25h0"/><path id="39153" d="m773.11,215.58l1.24,8.25-.54.11.35,1.73-3.89.53-.26-1.71-.69.11-.95-6.62,2.03-.32-.52-.94-.29-.65,3.51-.48"/><path id="39103" d="m768.38,217.98l.95,6.62-7.55,1.04-.76.07-.2-1.6-.22-1.69,1.43-.31-.24-1.38,1.77-.35-.22-1.54,1.77-.32,3.27-.55"/><path id="39077" d="m748.67,220.55l8.51-1.06.83,4.97-1.7.23.3,1.67-5,.65-1.79.23-1.14-6.7"/><path id="39147" d="m748.81,221.34l1.01,5.9-4.83.75-5.26.74-.55-4-.25-2.01,9.88-1.38"/><path id="39143" d="m738.27,217.05l1.28-.2.15,1.01,4.6-.62.3.2.32-.15h.29s.29.39.29.39l.24-.11-.15-.32.27-.06.34.39.44.13.37-.2,1.12-.16.68,4-9.88,1.38-.66-5.67"/><path id="39173" d="m737.89,214.33l.38,2.72.66,5.67.25,2.01-7.86,1-.76-5.66.5-.06,1.67-1.42.47-.87,2.09-2.99,2.62-.39"/><path id="39069" d="m730.35,218.39l.21,1.68.76,5.66-5.92.79-.76-6.02-1.93.24-.17-1.32,7.8-1.03"/><path id="39125" d="m723.47,226.77l.46,3.97-.96.18-6.92.86-.72-6.06,5.9-.73.18,1.02,1.92-.24.13,1"/><path id="39039" d="m722.71,220.74l1.93-.24.76,6.02-1.93.25-.13-1-1.92.24-.18-1.02-5.9.73-.05-.43-.43-3.56,7.87-.99"/><path id="39055" d="m772.34,210.52l1.61-.26-.24-1.63,3.04-.59-.22-1.72,1.83-.15.78,4.88.6,3.51-6.61,1.02-.78-5.06"/><path id="39085" d="m777.86,202.97l.5,3.2-1.83.15.22,1.72-3.04.59.24,1.63-1.61.26-1.67.27-.2-1.42.63-1.09.79-.92.52-.56,1-.92,3.68-2.43.76-.48"/><path id="39035" d="m770.47,209.37l.2,1.42,1.67-.27.78,5.06h0l-3.51.48.29.65.52.94-2.03.32-3.27.55-.24-1.74-1.61.23-.48-3.56.12.1.08.05.37.11,1.05.03,1.08-.48,1.15.05.1-.05.43-.37,1.18-1.09.5-.54.85-1.51.61-.19.17-.21"/><path id="39093" d="m762.78,213.45l.48,3.56,1.61-.23.24,1.74-1.77.32.22,1.54-1.77.35.24,1.38-1.43.31.22,1.69-2.82.35-.83-4.97-.57-3.3,1.35-.36,1-1.03,2.67-1.55,1.15.22"/><path id="39043" d="m750.52,215.52l1.53,1.31,1.09.51.8.25.26.03.3-.04.33-.17.47-.31,1.31-.93.57,3.3-8.51,1.06-.55-3.2-1.04.15.43-.36.74-.39.09-.41.48-.04.6.55.53-.42,1.24.04-.72-.64.04-.31"/><path id="39123" d="m742.04,213.65l1.84.43,1.13,1.09,1.22.44.67-.37.51-.58-.12-.65.43-.39.75.96,1.46-.02.23.67-2.52.69-1.79.52-.13.4-1.42.41-4.6.62-.15-1.01-1.28.2-.38-2.72,4.15-.69"/><path id="39095" d="m731.68,212.7l5.21-.88-.32.54.84.44,1.16-.1.38-.46.73.5,2.36.91-4.15.69-2.62.39-2.09,2.99-.47.87-1.67,1.42-.5.06-.21-1.68-.64-5.34,1.98-.35"/><path id="39051" d="m721.6,214.37l8.1-1.33.64,5.34-7.8,1.03-.1-.54-.61.12-.3-2.36-.37.02-.22-2.18.65-.1"/><path id="39171" d="m714.08,215.52l6.87-1.05.22,2.18.37-.02.3,2.36.61-.12.1.54.17,1.32-7.87.99-.29-2.39-.47-3.81"/></g></svg>