<?xml version="1.0" encoding="UTF-8"?><svg xmlns="http://www.w3.org/2000/svg" viewBox="0 0 989.98 627.07"><g><path id="40139" d="m422.03,332.73l8.9.44,2.21.11-.19,3.45h-.15l-.43,8.06-2.4-.12-9.87-.56-7.48-.47.8-11.4,8.61.47"/><path id="40025" d="m395.72,330.88l2.31.18,9.45.78,5.7.4.26.02-.8,11.4-2.39-.15-15.37-1.07.85-11.55"/><path id="40115" d="m548.46,335.45l.07,5.36.04,2.29h-6.68s.05-6.22.05-6.22h-.57s-.02-1.37-.02-1.37l7.1-.06"/><path id="40035" d="m540.15,335.51h1.2l.02,1.36h.57s-.05,6.24-.05,6.24l.02,1.93h-.36s-.04,1.81-.04,1.81l-5.92.04.05-2.01h-1.96s-.02-7.77-.02-7.77h.43s-.03-1.55-.03-1.55l6.1-.06"/><path id="40097" d="m541.51,346.85l-.02,8.06-1.98.02.03,2.02h-1.66l-4.29.02-.02-4.03.05-6.04,1.97-.02,5.92-.04"/><path id="40041" d="m548.57,343.1l.06,3.9,1.13,7.8-4.32.07-3.95.04.02-8.06.04-1.8h.36s-.02-1.94-.02-1.94h6.68"/><path id="40001" d="m545.44,354.87l4.32-.07.22,1.38,1.64,10.71-6.21.09-.08-6.08.16-2.48-.04-3.55"/><path id="40021" d="m541.49,354.91l3.95-.04.04,3.55-.16,2.48.08,6.08-5.95.06-.14-3.97-2.45-.04-.04-.06-.3-2.12.07-1.31.11-.22.37-.33h.26s.07-.09.07-.09l.48-1.13v-.81s1.65,0,1.65,0l-.03-2.02,1.98-.02"/><path id="40135" d="m551.61,366.89l.84,5.55v.4s-1.21.96-1.21.96v.49s.39.32.39.32l-.2.37-.38.14-.27-.44h-3s-.01-.53-.01-.53l-.85-.56-.38-.11-.36.04-.1.05-.71.7-1.78-1.71h-.61l-.92-.24-.27-.1-.29-.26-.57-.78-1.42-1.36-.06-2.8,5.95-.06,6.21-.09"/><path id="40061" d="m540.93,371.19l.57.78.29.26.27.1.92.24h.61l1.78,1.71v2.3s-1.38.51-1.38.51h-.72l.04,3.34-7.88.07-.02-2.36h-1.97l-.02-.98.07-2.15.72-.63.74.02.52.66v.34s1.34.03,1.34.03v.57s.84,0,.84,0l.28-.47.28.25.63-.79-.24-.27.59-1.66,1.43-1.69.3-.2"/><path id="40079" d="m552.45,372.85l-.11,10.34-.05,4.75-.04,5.12-8.98.14-.1-3.95-2.24-.04-.04-4.04,1.12-.04.02-1.64,1.31-.36-.07-6.03h.72l1.4-.51v-2.3s.69-.7.69-.7l.1-.05.36-.04.38.11.85.56v.52s3.01,0,3.01,0l.27.44.38-.14.2-.37-.39-.32v-.49s1.21-.96,1.21-.96"/><path id="40077" d="m543.31,380.44l.03,2.68-1.31.36-.02,1.64-1.12.04.04,4.04-8.55.06v-2.08l.09-5.97,2.5-.02v-.66s.46,0,.46,0l7.88-.07"/><path id="40121" d="m533.5,375.02l-.07,2.15.02.98h1.97l.02,2.36h-.45s0,.67,0,.67l-2.5.02-.09,5.97v4.13s-2.95-.01-2.95-.01l-3.96.02v-2.02h-3.95v-2.01l.07-6.54.52-.96.91-1.24.16-.1.37-.06.68.03,1.56-.78h2.15s.69-.31.69-.31l3.61-2.01,1.25-.3"/><path id="40029" d="m521.53,387.28v6.04h-1.43s-.02.69-.02.69l.39.21.05,1.13-4.95-.02-2.01-.07v-1.95s.07-4.04.07-4.04h1.98v-2.02s5.91.01,5.91.01"/><path id="40005" d="m521.53,389.28h3.95v2.02l3.96-.02v2.01s-2.01.16-2.01.16v7.94s-4.01,0-4.01,0l-7.87-.02.02-6.04,4.95.02-.05-1.13-.39-.21.02-.7h1.43s0-4.03,0-4.03"/><path id="40127" d="m532.38,389.25l8.55-.06,2.24.04.1,3.95h-2.05s.06,6.1.06,6.1h-1.17l-.8.43.02,1.58h-.1s-11.79.07-11.79.07v-7.94s2.01-.16,2.01-.16v-2.01s2.94.01,2.94.01v-2.04"/><path id="40089" d="m543.27,393.19l8.98-.14-.06,7.34-.09,12.76-4.97-1.43-2.36-.96-3.26-2.61-2.23-1.9-.06-4.93h.1s-.02-1.58-.02-1.58l.8-.44h1.17l-.06-6.09h2.05"/><path id="40023" d="m539.22,401.32l.06,4.93-1.21-.4h-.14l-.06.03h-.03l-.41.62v.03s0,.04,0,.04v.02s0,.02,0,.02l.07.15v.03l.03.2-.03.23-.1.23-.11.1-.51.33-.15.02-.28.03-.55.07h0l-1.29.06-.71-.06-1.88-.25-.07-.06-.07-.13v-.14s.05-.16.05-.16v-.15s-.2-.51-.2-.51l-.14-.06-.62-.03-1.39.72-1.59.83h0l-1.58-.16-1.48-1.17-.33-.42-.04-.13v-4.1s-1.02-.72-1.02-.72h4.02l11.79-.07"/><path id="40013" d="m523.42,401.4l1.01.72v4.1s.05.13.05.13l.33.42,1.48,1.16,1.58.16-1.63.61-.92-.17-1.1-.22-.26.03-.41.03-2.14.18-.96.22-.16.56-.12.55v.06s-.02.06-.02.06l-.06.18-.05.15v.02s-.03.03-.03.03l-.18.18-.02.03-.35.15-.39.11-2.84.7-.18-.25-.83-1.12-.25-.08-.22-.03-.97.19h-.03l-.18-.12-1.95-1.31-.02-.06-.02-.11-.02-.28.06-.37.38-1.79-.35-.99.75-1.67-.24-1.2,2.16.07v-1.02s1.22-.02,1.22-.02l7.87.02"/><path id="40095" d="m505.6,400.94l4.92.05,1,.25.72.85v.14l-.06.1.24,1.2-.75,1.67.35.99-.38,1.79-1.9.86h-.02l-.92.15-1.79-.55-.19-.13-.31-.35-.96-1.98v-1.35s-.67-.01-.67-.01l.03-1.35.05-2.34h.66"/><path id="40069" d="m507.68,393.25l5.9.06v1.95s1.99.07,1.99.07l-.02,6.04-1.21.02v1.02s-2.17-.07-2.17-.07l.06-.1v-.14l-.72-.85-1-.25-4.92-.05.04-3.7h.99l.05-4h1"/><path id="40123" d="m514.06,383.94h1.52s.05,3.32.05,3.32v2.02h-1.99l-.06,4.03-5.9-.06v-2.02s-1.96-.02-1.96-.02v-1s.06-5.04.06-5.04l.06-2.54,2.88,1.51,1.15.69,1.52-.79,1.32.31.65.68.7-1.09"/><path id="40049" d="m505.77,385.18l-.05,5.04-3.95-.05-.97.31-.05.06-.03.23.14.32.3.24.25.72.22,1-.71.12-3.13-.05-3.96-.06.08-4.04-2.01-.02.08-4.02,13.79.2"/><path id="40099" d="m497.79,393.13l3.13.05.71-.12-.22-1-.25-.72-.3-.24-.14-.32.03-.23.05-.06.97-.31,3.95.05v1s1.97.02,1.97.02v2.02h-1.02l-.05,4h-.99l-1.8-.02-.2-.12-.06-.11v-.05l.22-.15-.04-.51-.06-.06-5.95-.09.05-3.02"/><path id="40085" d="m493.69,403.14l11.2.15-.03,1.35h.67s0,1.37,0,1.37l-.19.1-2.86,4.96-.09.12-.19.15-.27.09-.3-.04-.27-.09-1.13-1.88.72-1.97-1.34-.65-2.68,2.38-1.11-.3-.17-.11-.11-.14-.02-.04-.05-.12-.38-1.72-1.46.39.06-4"/><path id="40019" d="m493.83,393.06l3.96.06-.05,3.02,5.95.09.06.06.04.51-.22.15v.05l.06.11.2.12,1.8.02-.04,3.7h-.66s-.05,2.35-.05,2.35l-11.2-.15.05-5.04.09-5.04"/><path id="40067" d="m482.85,397.87l10.89.23-.05,5.04-.06,4-.68-.48-1.94-1.29-.65.82-1,1.04-.95.75-.59.18-.23-.02-1.68-.77-.21-.19.49-1.06.17-1.23h0l-.71-.28-.66.16h-.43l-.8-.24h-.03l-.05-.05-.33-.66.66-.7-.16-1.06-1-.64v-3.53"/><path id="40137" d="m491.9,389l2.01.02-.08,4.04-.09,5.04-10.89-.23.06-5.02.06-3.98,1.03-.02,7.91.15"/><path id="40033" d="m473.05,394.93h1.94s1.18-.81,1.18-.81h3.81s1-.85,1-.85l.67-.44,1.26.02-.06,5.02v3.53s.99.64.99.64l.16,1.06-.66.7-1.15-1.89-2.94-.92-.72-.16-.37.21-.76.96-1.01.91-.02.02h0l-.54-.19-.9-1.45-.43-.37-.42-.28h-.19s.12-4,.12-4l-.99-.02.04-1.68"/><path id="40031" d="m474.13,384.58l9.88.25-.02,4.02-1.03.02-.06,3.98-1.26-.02-.67.44-1,.85h-3.81s-1.18.82-1.18.82h-1.94s.06-1.75.06-1.75l-1.09-.62-1.98-.06.06-2.02.18-6.04,3.87.12"/><path id="40141" d="m470.09,390.49l-.06,2.02,1.98.06,1.09.62-.06,1.75-.04,1.68.99.02-.12,3.99-1.72.53-1.24-.05-1.74-.43-1.75-1.05-.27-.13h-.02l-1.74-.14h-.76s-.35.03-.35.03l-.71-.16-.39-.12-.24-.07h0s-.33-1.79-.33-1.79l.02-.5.02-.53.3-.09.06-.13v-.19l-.28-.8-.12-.1-.26.03-.1-.35-.03-.45.35-1.55.76-1.58.42-.6.42-.09.8.06.09.1.14-.02.07-.05.04-.55-.14-.27-.24-.3,1.27.05.63.77v.26s3.28.1,3.28.1"/><path id="40065" d="m462.36,384.97l1.06-.8.18-.03.07.03.39.27.09.15-.45,3.21,2.06.08-.86,1.44.24.3.14.27-.04.55-.07.05-.14.02-.09-.1-.8-.06-.42.09-.42.6-.76,1.58-.35,1.55.03.45.1.35.26-.03.12.1.28.8v.19l-.06.13-.3.09v-.02l-.89-1.55-.94-.51-.83-.45-.81,1.45v.02s-.03.04-.03.04h-.02l-.14.06-.63-.06-.62-.59-.47-.27-.29-.12-.9-.11-.21-.03-.1.04-.73.92h-.89l-.58-.14-1.32-1.25-.47-.56-.98-1.27,3.42.14.19-5.03,2.61.09,1.78-.06-.09-.21-.02-.51.06-.18.63-1,2.92.11.08-.22"/><path id="40055" d="m450.52,379.71l1.98.09.08-2.01,6.18.24.79.08.75.64.8,1.17-.08.52-.18.63.24,2.72.14.19,1.15.99-.08.22-2.92-.11-.63,1-.06.18.02.51.09.21-1.78.06-2.61-.09.05-.57-1.24-.06.18-4.49-2.95-.11.08-2"/><path id="40075" d="m459.55,378.11h.93s9.54.3,9.54.3l3.29.05.96.51-.13,5.61-3.87-.12-.18,6.04-3.29-.1v-.26s-.62-.77-.62-.77l-1.27-.05.86-1.44-2.06-.08.45-3.21-.09-.15-.39-.27-.07-.03-.18.03-1.06.8-1.15-.99-.14-.19-.24-2.72.18-.63.08-.52-.8-1.17-.75-.64"/><path id="40057" d="m448.43,379.62l2.09.09-.08,2,2.95.11-.18,4.49,1.24.06-.05.57-.19,5.03-3.42-.14-2.75-1.37.13-4.27.27-6.57"/><path id="40101" d="m527.59,362.07l2.15-.02,1.34,1.31,1.93-.36,2.8.02h1.06l2.45.04.14,3.97.06,2.8,1.42,1.36-.3.2-1.43,1.69-.59,1.66.24.27-.63.79-.28-.25-.28.47h-.83s-.01-.57-.01-.57l-1.33-.03v-.34s-.05-5.99-.05-5.99l-6.84.04v-4.03h-1v-3.03"/><path id="40091" d="m528.59,369.12l6.84-.04.05,5.99-.52-.66-.74-.02-.72.63-1.25.3-3.61,2.01-.69.32h-2.15s-1.56.78-1.56.78l-.68-.03.05-3.2v-2.02h1.97v-.64l.27-1.37.71-2.04h2.03"/><path id="40063" d="m515.03,375.17l8.58.03-.05,3.2-.37.06-.16.1-.91,1.24-.52.96-.07,6.54h-5.9s-.05-3.34-.05-3.34h-1.52s.03-4.74.03-4.74h.92s.02-4.03.02-4.03"/><path id="40133" d="m511.64,372.58l.12.12.11.03,1.39.09.03-.03.03-.12-.07-.29.15-.79,1.09-.4.55-.14-.02,4.11-.02,4.04h-.92s-.03,4.74-.03,4.74l-.7,1.09-.65-.68-1.32-.31-1.52.79-1.15-.69.08-11.83.97-.31,1.87.57"/><path id="40125" d="m502.03,371.03l9.61.12v1.43s-1.87-.57-1.87-.57l-.97.31-.08,11.83-2.88-1.51-1.53,1.31-1.1-.06-.39-.73-.95.18.14-10.29.03-2.03"/><path id="40027" d="m492.13,372.89l9.86.16-.14,10.29-1.02.06-2.36-.63-.24-.14-.1-.09-.12-.37-.15-1.3-.28-1.12-.88-1.49-3.77-3.77-.82-.67.02-.93"/><path id="40087" d="m492.11,373.83l.82.67,3.77,3.77.88,1.49.28,1.12.15,1.3.12.37.1.09.24.14,2.36.63,1.02-.06.95-.18.39.73,1.1.06,1.53-1.31-.06,2.54-13.79-.2.13-11.13v-.03"/><path id="40051" d="m484.22,372.73l1.6.02,1.75,1.02,2.29.22,1.61.11.65-.24-.13,11.13-.08,4.02-7.91-.15.02-4.02.2-12.1"/><path id="40015" d="m480.27,368.61h.1l.02.25-.08,3.79,3.91.07-.2,12.1-9.88-.25.13-5.61.07-.09.06-2.37-.03-2.38.1-3.65.06-2.02,5.75.15"/><path id="40017" d="m482.34,364.64l9.88.19-.09,8.07-.02.93v.03l-.65.24-1.61-.11-2.29-.22-1.75-1.02-1.6-.02-3.91-.07.08-3.79-.02-.25h-.1l.08-4.01,1.99.03"/><path id="40109" d="m492.22,364.83l9.88.17-.08,6.03-.03,2.03-9.86-.16.09-8.07"/><path id="40081" d="m511.77,360.07l-.03,7-.1,4.08-9.61-.12.08-6.03.06-5.03,9.6.1"/><path id="40107" d="m519.69,367.1v2.02s1.94,0,1.94,0v4.06h1.99v2.02l-8.58-.03.02-4.11-.55.14-1.09.4-.15.79.07.29-.03.12-.03.03-1.39-.09-.11-.03-.12-.12v-1.43s.1-4.08.1-4.08l7.95.03"/><path id="40111" d="m527.59,362.07v3.03h1v4.03s-2.03,0-2.03,0l-.71,2.04-.27,1.37v.64h-3.95v-4.06h-1.95v-2.02s.02-5.04.02-5.04h2.95l3.95.02.99-.02"/><path id="40145" d="m533.59,356.98l4.29-.02v.81s-.47,1.13-.47,1.13l-.07.08h-.26s-.37.34-.37.34l-.11.22-.07,1.31.3,2.12.04.06h-1.06l-2.8-.02-1.93.36-1.34-1.31-2.15.02-.99.02v-1.14s.95-.03.95-.03l.12-5.93,2.64-.02.88,1.13.2.36-.08.32-.29.04.05.11.11.07,2.42-.02"/><path id="40131" d="m526.75,344.91l6.93-.02h1.96s-.05,2.01-.05,2.01l-1.97.02-.05,6.04.02,4.03-2.42.02-.11-.07-.05-.11.29-.04.08-.32-.2-.36-.88-1.13-2.64.02h-1.07s.08-5.54.08-5.54h.47s.02-.47.02-.47l-.45-.03.04-4.03"/><path id="40105" d="m531.97,335.58h2.09l.03,1.55h-.43s.02,7.76.02,7.76l-6.93.02.04-7.91h.38s-.03-1.4-.03-1.4l4.82-.03"/><path id="40147" d="m523.91,335.61h3.23l.03,1.41h-.38s-.04,7.89-.04,7.89l-.04,4.03h-3.47v-13.33h.67"/><path id="40143" d="m523.24,348.94h3.47l.45.03-.02.47h-.47s-.08,5.53-.08,5.53h1.07s-.12,5.94-.12,5.94l-.94.03v1.14s-3.96-.02-3.96-.02l.06-5.06-4.94-.02v-2h.55l4.93.04v-6.09"/><path id="40037" d="m511.81,355.01l5.96-.02v2l4.94.02-.06,5.06h-2.95v5.04s-7.96-.03-7.96-.03l.03-7,.03-5.06"/><path id="40119" d="m506.22,352.96l1.96.02-.02,2.04h3.65l-.03,5.06-9.6-.1-3.93-1.05.06-4.04,3.93.05.02-2.02,3.97.04"/><path id="40083" d="m492.37,354.66l3.96.07,1.97.15-.06,4.04,3.93,1.05-.06,5.03-9.88-.17.14-10.17"/><path id="40073" d="m482.52,354.46l1.96.04,7.89.16-.14,10.17-9.88-.19.1-4.02.02-3.35.06-2.81"/><path id="40011" d="m474.66,354.26l7.86.2-.06,2.81-.02,3.35-.1,4.02-1.99-.03-.08,4.01-5.75-.15v-6.04l.14-8.16"/><path id="40149" d="m474.46,370.47l-.1,3.65.03,2.38-.06,2.37-.07.09-.96-.51-3.29-.05-9.54-.31.21-8.08,13.77.46"/><path id="40009" d="m460.71,369.01l-.03,1.01-.21,8.08h-.93s-.79-.07-.79-.07l-6.18-.24-.08,2.01-1.98-.09-2.09-.09.15-3.52.23-5.55,7.9.33.07-2.02,3.93.14"/><path id="40039" d="m460.75,361.99l13.77.44v6.04l-.06,2.02-13.77-.46.03-1.01.03-7.02"/><path id="40043" d="m468.78,354.16l5.88.1-.14,8.16-13.77-.44.07-4.65.1-3.5,7.85.33"/><path id="40129" d="m460.82,357.34l-.07,4.65-.03,7.02-3.93-.14-.07,2.02-7.9-.33.19-4.55.25-6.06,1.23-.03.52-2.01,1.48-.43v1.81s.48.12.48.12l.44.55.16.13.91.57.58.21.92.23.28.03,1.09-.45.06-.06.88-1.4.31-1.05.05-.1.18-.16.46-.33.31-.15.45-.1h.76"/><path id="40045" d="m457.19,343.77l-.29,9.91,4.03.15-.1,3.5h-.76l-.45.1-.31.15-.46.33-.18.16-.05.1-.31,1.05-.88,1.4-.06.06-1.09.45-.28-.03-.92-.23-.58-.21-.91-.57-.16-.13-.44-.55-.49-.12v-1.81s-1.48.43-1.48.43l-.52,2.01-1.23.03.17-4.04.38-10.28.1-2.16,7.28.3"/><path id="40153" d="m457.19,343.77l5.68.15.19-5.19.02.33.42.37.3.11,1.61-.07.24.08.27.15,3.08,4.32-.04,2.14-.17,8-7.85-.33-4.03-.15.29-9.91"/><path id="40093" d="m484.62,347.6l-.14,6.9-1.96-.04-7.86-.2-5.88-.1.17-8,2.14.08.42.83.21.24.27.19,1.69.91,1,.47.34.11.42.05,1.28-.12.04-1.53,7.87.2"/><path id="40047" d="m496.46,344.8h0l-.14,9.93-3.96-.07-7.89-.16.14-6.9.07-3.02,11.77.23"/><path id="40103" d="m503.87,344.89l.11.4.23.27,1.78-.42.36.72-.68.51-.96-.07v.61s-.41,0-.41,0l-.04,4.02,1.97.02-.02,2.01-3.97-.04-.02,2.02-3.93-.05-1.97-.15.14-9.93,7.41.09"/><path id="40117" d="m506.22,352.96l.02-2.01-1.97-.02.04-4.02h.41l.08.48.43.47.25.14.53.12,1.19-.28.67-1.14,1.3-1.04.81.4.28,2.46.86.68,1.12.28.92.97-.44,1.12,1,.49.86-1.01.65-.04-.02.42,2,2.15,2,.08-.91,1.32h-.55l-5.96.02h-3.65l.02-2.04-1.96-.02"/><path id="40113" d="m509.59,335.55l4.09.02,9.57.03v13.33s0,6.09,0,6.09l-4.93-.04.91-1.32-2-.08-2-2.15.02-.42-.65.04-.86,1.01-1-.49.44-1.12-.92-.97-1.12-.28-.86-.68-.28-2.46-.81-.4-1.3,1.04-.67,1.14-1.19.28-.53-.12-.25-.14-.43-.47-.08-.48v-.61s.96.07.96.07l.68-.51-.36-.72-1.78.42-.23-.27-.11-.4.1-1.16.98-1.06,2.69-1.28.36.07.14-.05,1.36-.83.09-5.03"/><path id="40071" d="m496.6,335.41l5.74.07,7.25.07-.09,5.03-1.36.83-.14.05-.36-.07-2.69,1.28-.98,1.06-.1,1.16-7.41-.09h0l.14-9.39"/><path id="40053" d="m490.41,335.3l6.2.11-.14,9.39-11.77-.23h-.09l.17-8.07-.02-1.3,5.65.11"/><path id="40003" d="m480.47,335.1l4.28.09.02,1.3-.17,8.07h.09l-.07,3.02-7.87-.2.12-12.41,3.61.11"/><path id="40151" d="m460.27,334.45l8.29.28,8.31.26-.12,12.41-.04,1.53-1.28.12-.42-.05-.34-.11-1-.47-1.69-.91-.27-.19-.21-.24-.42-.83-2.14-.08.04-2.14-3.08-4.32-.27-.15-.24-.08-1.61.07-.3-.11-.42-.37-.02-.33-2.79-4.27"/><path id="40059" d="m450.31,334.01l8.41.39,1.55.06,2.79,4.27-.19,5.19-5.68-.15-7.28-.3.4-9.46"/><path id="40007" d="m433.14,333.29l5.68.24,9.91.41,1.58.07-.4,9.46-.1,2.16-9.95-.44-7.48-.38.43-8.06h.15l.19-3.45"/></g></svg>