<?xml version="1.0" encoding="UTF-8"?><svg xmlns="http://www.w3.org/2000/svg" viewBox="0 0 989.98 627.07"><g><path id="41007" d="m91.29,61.54l-2.35,8.08-1.94-.47-3.58-1.01-.05-.02.02-.23-3.81-1.15,1.29-2.87-.45-.98,1.31-.51.32-1.11v-.7s.08-.84.08-.84l.13-.45-.21-2.03.27-.23.4.11.53,1.06.56.55.74-.44h1.08s.53.79.53.79l1.93.22.33-.59.71-.26.08-.23,1.04.06.09.06.05.03.06.1.23.42.17.54-.35,1.03.67,1.05.12.04"/><path id="41009" d="m93.77,61.65l.82-.15.76.31,2.59,3.18.15.61.45,2.5-.14,2.18-.12.38-.42,2.81-2.62-.62-1.21-1.72-5.09-1.5,2.35-8.08,2.48.1"/><path id="41015" d="m62.1,133.53l1.5.59-.07.03-.3.23-2.5,2.54v.11s.09.25.09.25v.09l-.07.12-1.52,1.87-.33.2-.63-.04-.88-.33-.07-.06-.36-.11-.46,1.82-.95.59.1.79,1.4.23.68.41.63.91.16,1.92-.09.59-.41.64-.39.55-1.12,2.35.02.63.1.61-6.33-1.99-.63-1.33-.75-2.27.17-4.91.57-1.9.47-1.27.12-.27.93-.88.48-2.32-1.18-2.46.02-.59v-2.1s1.97-2.16,1.97-2.16l3.56,1.1.05.1.72,1.89-.08,1.29-.14.22-.18.62-.27,1.12-.12,1.63.06.12,2.32.24,1.24-.66.25-.18.26-.78,1.32.06.6.18"/><path id="41011" d="m62.1,133.53l-.6-.18-1.32-.06-.26.78-.25.18-1.24.66-2.32-.24-.06-.12.12-1.63.27-1.12.18-.62.14-.22.08-1.29-.72-1.89-.05-.1-3.56-1.1,3.86-5.91-.32-1.46,1.58-.45,3.28-4.32.2-1.04,3.05.94,2.39.77-.6,1.99.9.22-.57,1.92.87.29-1.14,3.77.95.37-1.1,3.79-1.06-.3-.69,2-.77-.25-1.13,3.8-.1.81"/><path id="41033" d="m70.92,138.25l-4.58,15.49-4.71-1.32-4.97-1.38-.1-.61-.02-.63,1.12-2.35.39-.55.41-.64.09-.59-.16-1.92-.63-.91-.68-.41-1.4-.23-.1-.8.95-.59.46-1.82.36.11.07.06.88.33.63.04.33-.2,1.52-1.87.07-.12v-.09l-.1-.25v-.11s2.51-2.54,2.51-2.54l.3-.23.07-.03-.27.98,2.59,1.49.73.4.6.26.9-.09.14-.22h.63l1.49.45.35.27.17.59"/><path id="41029" d="m88.11,136.15l-3.18,11.03-.44,1.35-2.75,9.57-.92-.28-.52-.17-2.02-.55-2.21-.55-5.57-1.57-.43-.12-.72-.21-1.75-.64-1.23-.26h-.04l4.58-15.49.05-.17,1.57-.65.63.2,1.69.4,3.59.56,2.46-1.39,2.36-1.07,1.51.6,1.43-1.13,1.91.54"/><path id="41019" d="m93.31,126.97l.3.14.28.38.68,1.77.09.42v1.87s-2.88,3.42-2.88,3.42l.31.83-3.54-1.22-.44,1.58-1.91-.54-1.43,1.13-1.51-.6-2.36,1.07-2.46,1.39-3.59-.56-1.69-.4-.63-.2-1.57.65-.05.17-.17-.59-.35-.27-1.49-.45h-.63l-.14.22-.9.09-.6-.26-.73-.4-2.59-1.49.27-.98-1.5-.59.1-.81,1.13-3.8.77.25.69-2,1.06.3,1.1-3.79-.95-.37,1.14-3.77-.87-.29.57-1.92-.9-.22.6-1.99-2.39-.77-3.05-.94,2.67-5.29,1.48.48,1.73.51.5.07,2.08-1.28,1.96.6.65.4.42.89-.08.27,1.03,1.79.8.71,1.75,1.25,3.34,1-1.13,3.85.05,1.6,1.69.51.22.05.03-.04,1.78.45,2.15.63-.67,2.39,3.88,1.02,5.89,1.69"/><path id="41035" d="m96.48,123.67l10.74,2.94-1.57,5.79-.39.92-.65,1.87-1.92,6.85-1.04,3.88,5.4,1.48,2.16.63-4.43,16.77-9.3-2.6-13.73-4.09,2.75-9.57.44-1.35,3.18-11.03.44-1.58,3.54,1.22-.31-.83,2.87-3.42v-1.87s-.08-.42-.08-.42l-.68-1.77-.28-.38-.3-.14.29-1.8,2.87-1.5"/><path id="41037" d="m107.21,126.61l5.51,1.47.24.07,10.33,2.88,6.96,1.83-2.42,9.95-.48-.27-1.6,6.03-.29-.08-.94,3.5,2.59.65,1.3.29,5.57,1.4-2.72,10.96-.63,2.79-.81,3.2-10.53-2.68-4.74-1.2-.65-.17-6.03-1.6h-.02l-3.05-.82,4.43-16.77-2.16-.63-5.4-1.48,1.04-3.88,1.92-6.85.65-1.87.39-.92,1.57-5.79"/><path id="41025" d="m136.09,126.05l13.49,3.34.49-1.96,2.44.66,1.2.41,5.77,1.39-1.4,5.85-.25.75-.65,2.69-1.47,6.19-2.27,9.78-.99,4.82-2.19,9.59.12.44-.09.82-1.24,5.08-9.62-2.21-9.02-2.27-.59-.15.81-3.2.63-2.79,2.72-10.96-5.57-1.4-1.3-.29-2.59-.65.94-3.5.29.08,1.6-6.03.48.27,2.42-9.95.48-1.98,1.94.51,1.52-5.82,1.9.48"/><path id="41045" d="m160.55,125.02l.63.15.73-.18,1.27-1.07,1.29-1.14.14-.57.4-.25.71-.15,6.09,1.39.84.88.53.78-.42,1.95,4.64,1.06-.04.12-.02.19.03.33.24.41,2,.81.15-.07h.09l.64.23.17.1.85,1.69.02.03.06.18-.02.23v.02h0l-.03.06-.02.05-.02.04-.81,1-.63,2.55-.78,1.48-.48.8-1.78,4.31-8.51,37.89-19.43-4.42,1.24-5.08.09-.82-.12-.44,2.19-9.59.99-4.82,2.27-9.78,1.47-6.19.65-2.69.25-.76,1.4-5.85,1.08-4.87"/><path id="41001" d="m164.11,109.25l.65-.62,1.48-.81.32-.04.72.9.83.64.85.25,2.13-1.47.94,2.19,3.07.72.46-1.95,4.71,1.05,7.65,1.76-.78.71-.51.47-.4.84.02.46.06.22.1.22.02.18-.02.02-.54.93-.38.4-.48.51-.88.94-1.54.52-.39.09-.11.05-.38.34-3.56,4.89-.2.4-.55,3.78-4.64-1.06.42-1.94-.53-.78-.84-.88-6.09-1.39-.71.15-.4.25-.14.57-1.29,1.14-1.27,1.07-.73.18-.63-.15-4.24-.99.11-.52,2.16-1.73-.03-1.68,1.47-.46-.33-.61,1.23-1.38.25-.38-.4-1.4-2.18-1.17.25-.98,1.83.09.54-.3,1.35.27.08-2.22.54-.6.82.2.15-.93.04-.56-.07-.45"/><path id="41063" d="m173.83,86.92l5.84,1.41,1.92.47,8.82,2.06,1.13,3.53.07.14.05.09.73.67,1.4,1.29.59.26h0l.27.35.31.4.11.44.55,2.91-.06.29-.39.44-1.54,1.58-2.78,3.57-.55,1.15-2.4,3.91-7.65-1.76.43-1.91-3.16-.78.27-1.09-.54-.11.24-1.14-.33-.09-.17-.71-.44-1.1-.62-.14-.21-.63.27-1.37-.56-.24.53-1.85-.77-.25.59-2.3-.6-2.24.43-1.5.61.14.46-1.91-3.54-.82.66-3.15"/><path id="41061" d="m173.17,90.07l3.54.82-.46,1.91-.61-.14-.43,1.5.6,2.24-.59,2.3.77.25-.53,1.85.56.24-.27,1.37.21.63.62.14.44,1.1.17.71.33.09-.24,1.14.54.11-.27,1.09,3.16.78-.43,1.91-4.71-1.05-.46,1.95-3.07-.72-.94-2.19-2.13,1.47-.85-.25-.83-.64-.72-.9-.32.04-1.48.81-.65.62-4.14-1.89.47-1.89.18-2.71-1.72-.41.38-1.32-.69-.2.46-1.96,1.44.4.21-.57,2.68.82.56-1.78,3.54,1.09.31-.96,1.13.32,1.42-4.9.64.15.58-2,.4.08.17-.69.83.18.23-.95"/><path id="41023" d="m141.74,102.88l8.03,1.98,10.21,2.5,4.14,1.89.07.45-.04.56-.15.93-.82-.2-.54.6-.08,2.22-1.35-.27-.54.3-1.83-.09-.25.98,2.18,1.17.4,1.4-.25.38-1.23,1.38.33.61-1.47.46.03,1.68-2.16,1.73-.11.52,4.24.99-1.08,4.87-5.77-1.39-1.2-.41-2.44-.66-.49,1.96-13.49-3.34,2-7.76,2.99-11.52-.39-.16,1.05-3.73"/><path id="41069" d="m129.19,97.86l11.09,2.9-.38,1.64,1.83.48-1.05,3.73.39.16-2.99,11.52-3.5-.9.38-1.76-2.26-.65.3-1.13-5.79-1.48.2-.87.55-1.95,1.72-5.68-.94-2.8.45-3.21"/><path id="41013" d="m127.97,109.55l-.55,1.95-.2.87,5.79,1.48-.3,1.13,2.26.65-.38,1.76,3.5.9-2,7.76-1.9-.48-1.52,5.83-1.94-.51-5.44-1.38-.35-.12.5-1.93-2.03-.56.61-1.88-5.91-1.55.46-1.93-1.57-.43-2.17-.66,1.03-3.86-1.82-.59.39-1.82,1.05-3.82,1.88.52.51-1.93,2.55.68.52-1.91,7.01,1.82"/><path id="41017" d="m103.86,107.13l11.64,3.24-1.05,3.82-.39,1.82,1.82.59-1.03,3.86,2.17.66,1.57.43-.46,1.93,5.91,1.55-.61,1.88,2.03.56-.5,1.93.35.12,5.44,1.38-.48,1.98-6.96-1.83-10.33-2.88-.24-.07-5.51-1.47-10.74-2.94.49-.79.54-1.16.79-2.17,2.22-2.14,2.6-3.28.22-.51.14-1.06.25-2.28.14-3.17"/><path id="41031" d="m107.84,97.87l10.51,2.89,1.75.51,9.59,2.59-1.72,5.68-7.01-1.82-.52,1.91-2.55-.68-.51,1.93-1.88-.52-11.64-3.24.55-2.04,1.08-.97.94-3.24.95-1.81-.64-.42.12-.42.99-.35"/><path id="41043" d="m85.62,93.34l1.51.73.11,1.24,1.96-.8,1.9-.27.89-.17.58.2.21.7,1.37-.06,1.45,1.41,3.48.83.84,1.92,1.01-.57,1.74,1.25,1.09.36,2.65.75-.94,3.24-1.08.97-.55,2.04-.14,3.17-3.64-1-4.75-1.24-.14.19v.09s.05.08.05.08l-.09.14-.74.3-.22-.06-1.86-.84-1.1-.67-.6-.48-.59-.64-.37-.34-.96-.56-1.67-.42-.79.47-.17.47-.25.81-3.49-1.01-.6-.24.23-.67.1-1.01-.02-.11-.1-.12-.22-.05-.05-.04-.02-.1-.11-1.25,1.48-4.4-.54-.81,1.31.05.71-.99,1.6-.08-.76-1.81.28-.63"/><path id="41039" d="m67.22,99.21l5.41,1.46,2.84.97,3.54.94,2.71.79.22.05.1.12.02.11-.1,1.01-.23.67.6.24,3.49,1.01.25-.81.17-.47.79-.47,1.67.42.96.56.37.34.59.63.6.48,1.1.67,1.86.84.22.06.74-.3.09-.14-.06-.08v-.09s.15-.19.15-.19l4.75,1.24,3.64,1-.25,2.28-.14,1.06-.22.51-2.6,3.28-2.22,2.14-.79,2.17-.54,1.16-.49.79-2.87,1.5-.29,1.8-5.89-1.69-3.88-1.02.67-2.39-2.15-.63-1.78-.45-.03.04-.22-.05-1.69-.51-.05-1.6,1.13-3.85-3.34-1-1.75-1.25-.8-.71-1.03-1.79.08-.27-.42-.89-.65-.4-1.96-.6-2.08,1.28-.5-.07-1.73-.51-1.48-.48,3.46-8.9"/><path id="41003" d="m85.34,93.97l.76,1.81-1.6.08-.71.99-1.31-.05.54.81-1.48,4.4.11,1.25.02.1.05.04-2.71-.79-3.54-.94-2.84-.97.21-.67-.75-.15.18-.61,1.24.41.62-1.45.68-.55,1.6.57,1.4-4.68.42-1.71,7.1,2.13"/><path id="41041" d="m78.46,84.15l-2.02,6.72.21.5,1.59.47-.42,1.71-1.4,4.68-1.6-.57-.68.55-.62,1.45-1.24-.41-.18.61.75.15-.21.67-5.41-1.46.61-1.15.9-1.84.1-.24,1.38-3.85,2.51-6.28,1.39-3.04,4.35,1.33"/><path id="41053" d="m78.46,84.15l.23-.71,10.19,3.05-.21.77-.4.77.68.73-.21.56-.52.32-.95-.12-.95,1.27h-.63s-.07.81-.07.81l1.04.24.07.7-.78.16-.35.47.03.14-.28.63-7.1-2.13-1.59-.47-.21-.5,2.02-6.72"/><path id="41071" d="m85.07,76.76l5.11,1.53.94.96.9,1.05.98,1.42.58.34-.08,1.36-1.33-.59-1.78,1.4v.33s-.24.85-.24.85l-.36.72-.91.36-10.19-3.05-.95-.29.93-3.07,5,1.49.65-2.15.75-2.66"/><path id="41047" d="m93.51,83.42l.32-.25.78.22.58.52-.55,1.38-.19.31-.24.29-.14.05-.25.33-.18.3.83,1.93,1.25,1.41.94,2.55,1.54,1.28,6.23,1.69,4.19,1.17-.77,1.28-.99.35-.12.42.64.42-.95,1.81-2.65-.75-1.09-.35-1.74-1.25-1.01.57-.84-1.92-3.48-.83-1.45-1.41-1.37.06-.21-.7-.58-.2-.89.17-1.9.27-1.96.8-.11-1.24-1.51-.73-.03-.14.35-.47.78-.16-.07-.7-1.04-.24.07-.8h.63s.95-1.28.95-1.28l.95.12.52-.32.21-.56-.68-.73.4-.77.21-.77.91-.36.36-.72.25-.85v-.33s1.77-1.4,1.77-1.4l1.33.59"/><path id="41005" d="m96.26,80.06l1.48.44-.03-.6h.32l12.78,3.61.35,1.52,1.12.77-.11,1.89-.68.87.06.81-1.17.12-.09.6.5,1.49.61.78-.39.65-.69-.02-.45.5-.69-.2-.93.35-.33,1.58.03.06.67,1.32-4.19-1.17-6.23-1.69-1.54-1.28-.94-2.55-1.25-1.41-.83-1.93.18-.3.25-.33.14-.05.24-.29.19-.31.55-1.38-.58-.52-.78-.22-.32.25.08-1.36.67-.5.55.62h1.02s.44-2.12.44-2.12"/><path id="41059" d="m158.09,83.14l15.45,3.7.3.07-.66,3.15-.23.95-.83-.18-.17.69-.4-.08-.58,2-.64-.15-1.42,4.9-1.13-.31-.31.95-3.54-1.09-.56,1.78-2.68-.82-.21.57-1.44-.4-.46,1.96.69.2-.38,1.32,1.72.41-.18,2.71-.47,1.89-10.21-2.5.49-1.75.5.05,2.29-9.96-1.71-.5.47-1.69-2.91-.75,1.47-5.83.31-1.09.91.05,2.41.33.44.23.41.1.7.05.57-.09,1.17-.34.34-.15.45-.38"/><path id="41049" d="m141.26,83.35h2.19l1.54.16,1.67.16.71-.73.83-.48.87.49.71.34.91.06-.31,1.09-1.47,5.83,2.91.75-.47,1.69,1.71.5-2.29,9.96-.5-.05-.49,1.75-8.03-1.98-1.83-.48.38-1.64.06-.27.48.1.5-1.93-1.69-.51.46-1.79-2.14-.7,1.53-5.78.62-2.17,1.15-4.36"/><path id="41021" d="m130.65,82.34l.34-.11.68.17.45.32.42.79.19.28.33.22,1.25.22,3.17.19.84-.64.51-.13,2.41-.3h.02l-1.15,4.36-.62,2.17-1.53,5.78,2.14.7-.46,1.79,1.69.51-.5,1.93-.48-.1-.06.27-11.09-2.9-.05-.35.96-.43-.13-2.07-.57-1.48.75-1.58.86-1.68.94-1.39.98.35.58-.3.19-.04.15-.24-.28-2.14-1.13-1.95-1.37-1.7-.45-.5"/><path id="41055" d="m125.99,83.38l.84-.26,1.41-.22,1.72-.24.69-.33.45.5,1.37,1.7,1.13,1.95.28,2.14-.15.24-.19.04-.58.3-.98-.35-.94,1.39-.86,1.68-.75,1.58.57,1.48.13,2.07-.96.43-2.49-.68-.84-.34.41-.98-1.98-2.21-1.68-.42-.59-.67.4-1.74,1.23-.04,1.69-1.53.94-1.66.29-.58.03-.15-.88-.79.31-2.34"/><path id="41065" d="m118.15,79.92l1.1.16.55.11,1.98,1.13.25,1.82,2.15-.9,1.46.68.35.46-.31,2.34.88.79-.03.15-.29.58-.94,1.66-1.69,1.53-1.23.04-.4,1.74.59.67,1.68.42,1.98,2.21-.41.98.84.34,2.49.68.05.35-.45,3.21.94,2.8-9.59-2.59-1.75-.51-10.51-2.89.77-1.28-.67-1.32-.03-.06.33-1.58.93-.35.69.2.45-.5.69.02.39-.65-.61-.78-.5-1.49.09-.6,1.17-.12-.06-.81,3.38.93.2-.69,1.37-5.11.69.09,1.03-3.85"/><path id="41027" d="m110.38,78.93l.45-.4.68-.35.95-.06,1.11.61.44.11,1.33.1,1.73.03,1.09.95-1.03,3.86-.69-.1-1.37,5.11-.2.69-3.38-.93.68-.87.11-1.89-1.12-.77-.35-1.52-.82-2.06.39-2.52"/><path id="41051" d="m97.86,73.47l-.34.58-.15.42.02.56.31.4.82.86.43.32,4.46,2.75.52.26h.01l.44.11h.3l5.71-.79-.39,2.52.82,2.06-12.78-3.61h-.32l.03.6-1.48-.44.29-2.22-.3-.19-.9-1.65-.63-1.39.51-1.75,2.62.62"/><path id="41067" d="m95.24,72.85l-.51,1.75.63,1.39.9,1.65.3.19-.29,2.22-.44,2.13h-1.02s-.55-.63-.55-.63l-.67.5-.58-.34-.98-1.42-.9-1.05-.94-.96-5.11-1.53-.33-.09.11-.31.27.04.89-1.25,2.4-1.01.1-.51-1.49-1.03-.77-1.56.34-.5,1.89.66.47-1.56,5.09,1.5,1.21,1.72"/><path id="41057" d="m88.94,69.63l-.47,1.56-1.89-.66-.34.5.77,1.56,1.49,1.03-.1.51-2.4,1.01-.89,1.25-.27-.04-.11.31.33.09-.75,2.66-.65,2.15-5-1.49-.93,3.07.95.29-.23.71-4.35-1.33.56-1.01.06-.12v-.02s.47-.87.47-.87l.03-.06.13-.3.36-.89,3.52-10,.31-1.04.06-.42v-.15l-.03-1.21,3.81,1.15-.02.23.05.02,3.58,1.01,1.94.47"/></g></svg>