<?xml version="1.0" encoding="UTF-8"?><svg xmlns="http://www.w3.org/2000/svg" viewBox="0 0 989.98 627.07"><g><path id="42101" d="m887.95,224.42l-1.11,1.62-1.31,2.43-.69.98-.42-.56-.78.1.2-1.23-.68-.56.82-1.11-.91-.71.26-1.01,2.22.49,1.26-2.3.78.37.35,1.49"/><path id="42017" d="m881.53,212.97l2.47,1.01,1.3,2.62,1.67,1.01.11.06,4.64,3.56-.94.8-.71.05-.24.74-1.88,1.59-.35-1.49-.78-.37-9.39-4.58,1.96-3.24,1.96-2.14.19.36"/><path id="42059" d="m793.12,244.9l3.54-1.95.27.25,1.85-.28.48.32,1.09-.21.22-.49.34.32v.24s.2.25.2.25l.22-.26.14.08,1.77.92.17,1.79.53,1.11-.26.64.8,1.04-8.75,1.46-1.7.27-.9-5.51"/><path id="42051" d="m803.55,239.28l2.28-.43,2.2.66,1.82-1.73.75.21,1.88.93.36.72,1.1-.16-.44,1.19-.8,2.32-.14,1.12.85.84-.24,1.86.37.25-1.46.26-4.98.88-2.63.45-.8-1.04.26-.64-.53-1.11-.17-1.79-1.77-.92.49-.97.6.34.64-.64.48-.32-.42-1.03.56-.12.1-.74-.37-.4"/><path id="42125" d="m793.89,232.67l3.6,2.8,4.71,1.11-.76.49.08.47,1.14.35.73-.25.04.78-.72.21.47.63.37.02.37.4-.1.74-.56.12.42,1.03-.48.32-.64.64-.6-.34-.49.97-.14-.08-.22.26-.21-.25v-.24s-.33-.32-.33-.32l-.22.49-1.09.21-.48-.32-1.85.28-.27-.25-3.54,1.95-.74-4.51-.89-5.47-.3-1.79,2.71-.45"/><path id="42003" d="m804.83,229.86l.44,2.18-.93,1.09.07,3.53-.16.41-.85.58-.73.25-1.14-.35-.08-.47.76-.49-4.71-1.11-3.6-2.8,1.91-2.56,1.27-1.17-.3-1.37,7.81-1.2.06.88-1.2,1.28.1.93.65-.06.63.48Z"/><path id="42007" d="m789.78,224.58l6.13-1.1.86,4.09.3,1.37-1.27,1.17-1.91,2.56-2.71.45-.61-3.69-.8-4.86"/><path id="42073" d="m796.14,218.39l-.9,1.82.68,3.25-6.13,1.1-.2-1.1-.83-5.15,4.42-.8.07.26,1.85-.26,1.04.86"/><path id="42019" d="m802.64,214.91l1.94,11.44-7.81,1.21-.86-4.09-.68-3.25.9-1.82,1.25-2.61,5.17-.92.08.04"/><path id="42005" d="m811.18,216.22l.57,3.18.55,3.1-2.04,4.32-.97,1.99-.73.09-.38.19-1.11-.67-.23-.53.23-.27-.48.06-.22-.26v-.5s-.38.33-.38.33l-.21-.29-.19-.1-.43-.52-.56.02h0s0,0,0,0h0s0,0,0,0h0s-1.94-11.44-1.94-11.44l.44,1.55.06.21.4.94.69.29.57.6-.36.53.45.34.51-.59.36.06.52.04.32-.1,1.24-.44,1.85-.74,1.51-1.37"/><path id="42031" d="m805.39,209.36l1.31-.23-.19-1.13.71-.13,2.57-.33.37,2.26,1.04,6.43-1.51,1.37-1.85.74-1.24.44-.32.1-.52-.04-.36-.06-.51.59-.45-.34.36-.53-.57-.6-.69-.29-.4-.94-.06-.21-.44-1.55-.08-.04.44-1.97.29-.6.32-.48-.18-.48.96-.26.18-.03,1.01-.53-.19-1.16"/><path id="42053" d="m803.85,204.03l9.37-1.65.62,4.52-.3.08-.07-.41-1.33.24.11.65-.5.13.29,1.65-1.89.54-.37-2.26-2.57.33-.71.13.19,1.13-1.31.23-.23-1.23-.78.2-.04-1.62-.49-2.68"/><path id="42121" d="m803.85,204.03l.49,2.68.04,1.62.78-.2.23,1.23.19,1.16-1.01.53-.18.03-.96.26.18.48-.32.48-.29.6-.44,1.97-5.17.92-1.24-7.26.61-.65,1.83-2.39,3.59-.97-.03-.15,1.7-.32"/><path id="42085" d="m787.38,210.01l6.32-.69,2.45-.81,1.24,7.26-1.25,2.61-1.04-.86-1.85.26-.07-.26-4.42.8-.03-.18-1.34-8.12"/><path id="42039" d="m801.27,199.19l.88,5.16.03.15-3.59.97-1.83,2.39-.61.65-2.45.81-6.32.69-.04-.25-1.31-7.99,10.24-1.74,3.82-.69,1.19-.16"/><path id="42049" d="m800.72,195.78l.55,3.41-1.19.16-3.82.69-10.24,1.74-.48-2.92,2.95-1.86,2.66-2.2.17-.83.38-.44.6-.11.09.36,3.09-2.52,1.62-1.19.1.61.44,2.55.53,3.01,2.28-.39.26-.05"/><path id="42129" d="m809.29,228.81l-.12.3.24.75.04.04,1.15.46,4.23.26.75.84.8-.24.41-1.17,1.17.37-.93,2.78-.77,1.58-.76,2.68-.79.48-.77,1.58-1.1.16-.36-.72-1.88-.93-.75-.21-1.82,1.73-2.2-.66-2.28.43-.37-.02-.47-.63.72-.21-.04-.78.85-.58.16-.41-.07-3.53.93-1.09-.44-2.18-.63-.48-.65.07-.1-.92,1.2-1.28-.06-.87.56-.02.43.52.19.1.21.29.39-.33v.5s.21.26.21.26l.48-.06-.23.27.23.53,1.11.67.38-.19.73-.09"/><path id="42063" d="m811.75,219.4l7-1.13.81,4.12-1.59,8.03-1.17-.37-.41,1.17-.8.24-.75-.84-4.23-.26-1.15-.46-.04-.04-.24-.75.12-.3.97-1.99,2.04-4.32-.55-3.1"/><path id="42065" d="m810.15,209.79l1.89-.54.34-.35,1.87-.55,4.2,1.57.12.79.44-.12.12.65-.96.15-.29,1.41v.05s.01.66.01.66l.86,4.75-7,1.13-.57-3.18-1.04-6.43"/><path id="42123" d="m809.91,194.15l2.39-.4.24,1.01.46,2.56-.05.24-.46.1.73,4.73-9.37,1.65-1.7.32-.88-5.16-.55-3.41,9.19-1.63"/><path id="42083" d="m822.51,191.83l1.69-.34,1.7,8.67-3.56,1.04-.93.23-.15-.61-3.28.65-2.61.53-2.15.37-.73-4.73.46-.1.05-.24-.46-2.56-.24-1.01.74-.13,4.64-.9,4.83-.89"/><path id="42023" d="m822.34,201.21l3.56-1.04,3.09,2.85,1.14-.28.44,2.79-1.07,3.42-2.49.15-.37-2.13-.4.07-.27-1.86-2.8.52-.83-4.49"/><path id="42047" d="m813.22,202.38l2.15-.37,2.61-.53,3.28-.65.15.61.93-.23.83,4.49,2.8-.52.27,1.86.4-.07.37,2.13-5.48.61-1.51.31.05.83-.93.4-.12-.65-.44.12-.12-.79-4.2-1.57-1.87.55-.34.35-.29-1.65.5-.13-.11-.65,1.33-.24.07.41.3-.08-.62-4.52"/><path id="42033" d="m827,209.09l2.49-.15,1.21,1.26-1.11,1.31,1.28,1.41.02.55-.21,1.43-.09.1-.96.4-.82.72-.19.22-1.94,4.02.02.08.3.37.25.15-7.69,1.43-.81-4.12-.86-4.75-.02-.66v-.05s.3-1.41.3-1.41l.96-.15.93-.4-.05-.83,1.51-.31,5.48-.61"/><path id="42013" d="m827,220.8l4.18-.93-1.28,1.21-.19.35-.06.27.98,1.15-.04,1.39.47.62.43-.76v1.69s.53.22.53.22l-.21.85-1.13,3.54-.12.63-.18.67-2.98-.75-.06,1.2-3.01-1.25.66-1.09-.29-1.71.11-1.57.8-1.02.55-.8-.26-1.53.58-.07.77-2.12-.25-.15"/><path id="42021" d="m819.56,222.39l7.69-1.43-.77,2.12-.58.07.26,1.53-.55.8-.8,1.02-.11,1.57.29,1.71-.66,1.09-.3,2.03-1.57.29-2.25.34-.34-.49-.6-.25-2.22.4.93-2.78,1.59-8.03"/><path id="42111" d="m824.03,232.91l-.67,4.21-.4.34,1.08,5.99-.41,1.79-10.08,1.84-.37-.25.24-1.86-.85-.84.14-1.12.8-2.32.44-1.19.77-1.58.79-.48.76-2.68.77-1.58,2.22-.4.6.25.34.49,2.25-.34,1.57-.29"/><path id="42009" d="m824.33,230.87l3.01,1.25.06-1.2,2.98.75.18-.67.12-.63.68,1.61,2,1.01-.22,1.06-.81,1.02.42,1.12-.75,5.07-.48,1.54-.48,1.08-7.39,1.36.41-1.79-1.08-5.99.4-.34.67-4.21.3-2.03"/><path id="42057" d="m833.35,232.99l1.12.55,2.73.21,1.23.71-.18.19-.1.17-.42,1.14-.07,1.3-.38,2.22-.22.81-.78,1.91-.42.75-4.21.79-.65.12.48-1.08.48-1.54.75-5.07-.42-1.12.81-1.02.22-1.06"/><path id="42061" d="m831.18,219.87l3.13.52,1.6-1.36,2.28.07.43-.45-.12.53-.29.71h.35s-1.66,2.41-1.66,2.41l-.22.97.38,1.1-1.12,2.68,1.31.48.45-.07,1.14-.34.13-.27,1.34,2.46-1.08,1.73-.79,3.41-1.23-.71-2.73-.21-1.12-.55-2-1.01-.68-1.61,1.13-3.54.21-.85-.53-.22v-1.69s-.43.76-.43.76l-.47-.62.04-1.39-.98-1.15.06-.27.19-.35,1.28-1.21"/><path id="42055" d="m840.31,229.33l.42-.7.17.23.03.31-.09.28.25.02.21.76.62-.4.2.65-.19.29.47.74,2.61,2.98.68,1.3,1.22,5.06-.17.03-10.87,2.06.42-.75.78-1.91.22-.81.38-2.22.07-1.3.42-1.14.1-.17.18-.19.79-3.41,1.08-1.73"/><path id="42087" d="m843.48,214.93l.3.88.31,2.46,1.37-.11-.96.65-.55.41-1.05.9-.79.82.13.69-1.71,1.83.14.59-1.39,1.86-.33.96-.13.27-1.14.34-.45.07-1.31-.48,1.12-2.68-.38-1.1.22-.97,1.66-2.42h-.35s.29-.7.29-.7l.12-.53,4.87-3.73"/><path id="42105" d="m834.18,189.58l2.2,10.35.31,1.45-6.57,1.36-1.14.28-3.09-2.85-1.7-8.67,7.63-1.44,2.34-.47"/><path id="42035" d="m836.69,201.38l.18.84,1.19,1.15,2.05,1.82,5.75,4.04.34-.07.12.57-3.08,1.93-2.73,1.14-1.58-1.68-.26-.52-1.48-.32-1.64.07-.89-1.23-1.69.19-.4-1.47-.42.74-.58.21-.04.97-.83.43-1.21-1.26,1.07-3.42-.44-2.79,6.57-1.36"/><path id="42027" d="m830.7,210.2l.83-.43.04-.97.58-.21.42-.74.4,1.47,1.69-.19.89,1.23,1.64-.07,1.48.32.26.52,1.58,1.68,2.73-1.14,3.08-1.93-.79,1.38-.87,2.07-1.17,1.76-4.87,3.73-.43.45-2.28-.07-1.6,1.36-3.13-.52-4.18.93-.3-.37-.02-.08,1.94-4.02.19-.22.82-.72.96-.4.09-.1.21-1.43-.02-.55-1.28-1.41,1.11-1.31"/><path id="42119" d="m846.19,209.15l2.72-.99.02-1.45h1.12l.28,1.07.69.52.08,1.91-.02.29.2.41.56.75.58.43.45.12-.57-.03-2.88.97-.22.51-.97-.15-3.76,1.89-.69.41-.3-.88,1.17-1.76.87-2.07.79-1.38-.12-.57"/><path id="42093" d="m852.66,205.4l.82.4.82-.34.79,1.97.88.08.29,1.42,1.04.52.14.3.03,1.49-.51.22-.38-.73.04-.58-.83-.13-.44-.25h-.52l-1.17.56-.96.38-.04-.05.17-2.4-.16-2.88"/><path id="42117" d="m845.55,187.26l2.75,9.01-.08.19-1.15,1.13-3.86.91-6.83,1.43-2.2-10.35,10.73-2.18.64-.14"/><path id="42081" d="m848.3,196.27l1.05-.07,1.9,3.95,3.14,1.77.8.1,1.77.04-1.88,3.3-.8.1-.82.34-.82-.4-2.61,1.32h-1.12l-.02,1.45-2.72.99-.34.07-5.75-4.04-2.05-1.82-1.19-1.15-.18-.84-.31-1.45,6.83-1.43,3.86-.91,1.15-1.13.08-.19"/><path id="42131" d="m860.75,192.36l.06.19,4.11-.89,2.47-.49-.12.17-.45,1.55-.22,1.25.6.29-.67,2-.25.19-2.48,1.41-4.56,1.13.27-3.95-.07-2.49,1.3-.37"/><path id="42113" d="m849.36,196.2l10.17-.98-.27,3.95-.14,1.66-1.72.48-.42.75-1.77-.04-.8-.1-3.14-1.77-1.9-3.95"/><path id="42037" d="m859.12,200.83l.25,1.85.11.53,1.04,1.51.77-.35.43,2.42.84,1.81-.54.91-.44.86v1.94s-1.1.85-1.1.85l-.83-1.03-1.46.37-.72-1.24-.03-1.49-.14-.3-1.04-.52-.29-1.42-.88-.08-.79-1.97.8-.1,1.88-3.3.42-.75,1.72-.48"/><path id="42097" d="m850.05,206.72l2.61-1.32.16,2.88-.17,2.4.04.05.96-.38,1.17-.56h.52l.44.25.83.13-.04.58.38.73.51-.22.72,1.24,1.46-.37.83,1.03-4.9,3.8-.72.23-1.99,1.32-.8.31-.08.03-.2-.05-.28-.3.12-.27.14-.16.64-1.14.13-.3.08-.31.03-.4-.14-.61-.31-1.04.49-.98.17-1.06-.45-.12-.58-.43-.56-.75-.2-.41.02-.29-.08-1.91-.69-.52-.28-1.07"/><path id="42109" d="m852.87,212.22l-.17,1.06-.49.98.31,1.04.14.61-.03.4-.08.31-.13.3-.64,1.14-.14.16-1.22.18-.72-.62-.89.12-.3-.29-.67.4-2.39.16-1.37.11-.31-2.46.69-.42,3.76-1.89.97.15.22-.51,2.88-.97.57.03"/><path id="42067" d="m851.64,218.22l-.12.27-1.26.88-2.56.98.16.6-1.64,1.19-2.44,2.25-1.29,1.31.05.63-.79.55-.74,1.18-.29.57-.42.7-1.34-2.46.33-.96,1.39-1.86-.14-.59,1.71-1.83-.13-.69.79-.82,1.05-.9.55-.41.96-.65,2.39-.16.67-.4.3.29.89-.12.72.62,1.22-.18"/><path id="42099" d="m853.51,225.16l-.97.65-.76.29-5.05,1.86-.27-.49-1.34,1.18v-.41s.68-1.07.68-1.07l-.87.5-1.67,2.28-.55.09-.38.75-.2-.29-.2-.65-.62.4-.21-.76-.25-.02.09-.28-.03-.31-.17-.23.29-.57.74-1.18.79-.55-.05-.63,1.29-1.31,2.44-2.25,1.64-1.19-.16-.6,2.56-.98,1.26-.88-.14,1.04-.41.55.34.63v.61s.72.4.72.4l.05.64-1,1.32.52,1.23,1.31-.31.59.55"/><path id="42041" d="m853.51,225.16l.05,1.21,1.37.92-1.13.57.32,1.21-1.91.74-1.33,2.01-.43.66-.62.57-1.2.5-1.97.91-.95,1.36-.68-1.3-2.61-2.98-.47-.74.19-.29.2.29.38-.75.55-.09,1.67-2.28.87-.5-.68,1.07v.41s1.34-1.18,1.34-1.18l.27.49,5.05-1.86.76-.29.97-.65"/><path id="42001" d="m850.87,231.82l.2.02.65.19.48.63.95.02,1.26,1.6.08.32-.4.64.53.46-.28,1.04v.1l.49,2.45-3.74.76-4.18.83-1.22-5.06.95-1.36,1.97-.91,1.2-.5.62-.57.43-.66"/><path id="42133" d="m854.93,227.3l.57.48,1.35.35.3.99.61.11,1.04,1.1h.59s1.13.05,1.13.05l.47-.06,1.45,1.83,1.92.75.32.92,3.18,2.56.05.18-5.67,1.19-3.74.78-3.66.76-.49-2.45v-.1l.28-1.04-.53-.46.41-.64-.08-.32-1.26-1.6-.95-.02-.48-.63-.65-.19-.2-.02,1.33-2.01,1.91-.74-.32-1.21,1.13-.57"/><path id="42043" d="m855.58,216.96l3.31,1.75-2.05,2.33,3.16,5.95.06-.04-1.35,1.02-.95,1.27-.61-.11-.3-.99-1.35-.35-.57-.48-1.37-.92-.05-1.21-.59-.55-1.31.31-.52-1.23,1-1.32-.05-.64-.73-.4v-.61s-.34-.63-.34-.63l.41-.55.14-1.04.28.3.2.05.08-.03.8-.31,1.99-1.32.72-.23"/><path id="42075" d="m858.89,218.7l1.9,1.01,5.78,3.04-2.37,1.94-2.12.85-2.02,1.39-.06.04-3.16-5.95,2.05-2.33"/><path id="42071" d="m866.57,222.76l5.6,3.04-1.05.91.35,1.37-.46,2.33.06.59.09.4.22.62-.17,1.25-.27,1.01-.23.6-1.01,1.3-1.68.36-.11.02-.05-.18-3.18-2.56-.32-.92-1.92-.75-1.45-1.83-.47.06-1.13-.05h-.59s-1.04-1.1-1.04-1.1l.95-1.27,1.35-1.02,2.02-1.39,2.12-.85,2.37-1.94"/><path id="42011" d="m876.51,217.5l-1.83,5.27-2.51,3.02-5.6-3.04-5.78-3.04,2.19-.93.82-.21.35-.18,2.76-1.9.56-.13.23-1.53,1.54-1.21,7.27,3.87"/><path id="42107" d="m862.57,208.6l3.12.64.61-.57,2.33,1.91,2.59,1.23-1.98,1.81-1.54,1.21-.23,1.53-.56.13-2.76,1.9-.35.18-.82.21-2.19.93-1.9-1.01-3.31-1.75,4.9-3.8,1.11-.85v-1.94s.43-.86.43-.86l.54-.91"/><path id="42025" d="m866.3,208.67l4.01-3.12-.22-.45-.67-.55-.08-.48v-.2s.06-.1.06-.1l.93-1.1.07-.06.41-.15.35.2.55.19,2.69,2.3-1.01,1.24,2.24,2.59-2.15,1.11-2.26,1.72-2.59-1.23-2.33-1.91"/><path id="42079" d="m859.26,199.17l4.56-1.13,2.48-1.41.25-.19.14.4.42.46,1.01.38,1.02.21,1.3,1.71.41,1.59.14.23.24.12.55.06-.62,1.07-.35-.2-.41.15-.07.06-.93,1.1-.05.1v.2s.07.48.07.48l.67.55.22.45-4.01,3.12-.61.57-3.12-.64-.84-1.81-.43-2.42-.77.35-1.04-1.51-.11-.53-.25-1.85.14-1.66"/><path id="42069" d="m867.39,191.17l4.32-.93,2.26,8.57-.28.34-.68.5-1.25,1.96-.55-.06-.24-.12-.14-.23-.41-1.59-1.3-1.71-1.02-.21-1.01-.38-.42-.46-.14-.4.67-2-.6-.29.22-1.25.45-1.55.12-.17"/><path id="42015" d="m851.71,186.03l6.85-1.41,2.19,7.74-1.3.37.07,2.49-10.17.98-1.05.07-2.75-9.01,6.16-1.23"/><path id="42115" d="m859.25,184.48l10.35-2.24,2.12,8.01-4.32.93-2.47.49-4.11.89-.06-.19-2.19-7.74.68-.14"/><path id="42127" d="m869.6,182.23l2.06-.46.32.07,1.01.71.3.29.68,1.53,1.96-.04,2.73,4.9-1.26,3.79-1.2,2.75-1.32.19.35.7.58.1-.37,2.16-2.43.7.68-.5.28-.34-2.26-8.57-2.12-8.01"/><path id="42103" d="m878.67,189.25l.46,1.05.74.72.52.5,1.83.95.3.14,1.35-.07.75-.08,1.37,1.34-1.01.73-.48.52-.41.84-.09.26-.21.89-.03.31.07.07.03.38-.1.69-.47,1.12-.68.96-.23.33-.58.36-1.25-1.03-1.25-.02-.02-2.43-3.82,1.16.37-2.16-.58-.1-.35-.7,1.32-.19,1.2-2.75,1.26-3.79"/><path id="42089" d="m875.45,198.95l3.82-1.16.02,2.43,1.25.02,1.25,1.03.58-.36.23-.33.1.12-1.87,3.5-1.3,1.2-.81,1.46-1.63,1.53-1.45.61-2.24-2.59,1.01-1.24-2.69-2.3-.55-.19.62-1.07,1.25-1.96,2.43-.7"/><path id="42095" d="m880.82,204.19l1.63,1.92.06.14v.13s-.59,1.77-.59,1.77l-.35.49-.26.04-.26-.03-.14.04-.29.69.18,1.39.42,1.64.11.21-1.96,2.14-1.43-.71.19-.97-1.2-1.01-.65.56-.57-.35-.78-1.24-.36.53-.57-.35-.23-.29-.3-.81,2.15-1.11,1.45-.61,1.63-1.53.81-1.46,1.3-1.2"/><path id="42077" d="m873.48,210.1l.3.81.23.29.57.35.36-.53.78,1.24.57.35.65-.56,1.2,1.01-.19.97,1.43.71-1.96,3.24-.92-.48-7.27-3.87,1.98-1.81,2.26-1.72"/><path id="42045" d="m881.3,225.49l1.87,1.71.68.56-.2,1.23.78-.1.42.56-2.06.79-1.14,1.45-.19-.07-.19-.07-.19-.06-.19-.05-.19-.05-.19-.04-.2-.03-.2-.02h-.2s-.2-.01-.2-.01h-.21s-.21.04-.21.04l-.22.04-.22.05-.22.07-.23.08-.08-1.23,2.98-4.84"/><path id="42091" d="m877.42,217.98l9.39,4.58-1.26,2.3-2.22-.49-.26,1.01.91.71-.82,1.11-1.87-1.71-1.92-.44-1.7-1.34-.18-.24-.06-.07-1.78-.73-.98.11,1.83-5.27.92.48"/><path id="42029" d="m874.68,222.77l.98-.11,1.78.73.06.07.18.24,1.7,1.34,1.92.44-2.98,4.84.08,1.23-.28.13-.26.14-.24.15-.23.16-.21.17-.2.18-.18.19-.16.2-.15.21-.14.22-.12.23-.11.24-.09.25-.08.26-.07.27-.05.27-.17.05-5.96,1.28,1.01-1.3.23-.6.27-1.01.17-1.25-.22-.62-.09-.4-.06-.59.46-2.33-.35-1.37,1.05-.91,2.51-3.02"/></g></svg>