<?xml version="1.0" encoding="UTF-8"?><svg xmlns="http://www.w3.org/2000/svg" viewBox="0 0 989.98 627.07"><g><path id="44003" d="m939.01,173.58h-.16s-.13.13-.13.13l-.2.15-.06.42-.19-.09-.24.21-.07.34.14.3-5.06,1.56-.25-.96-.5-1.9,5.44-1.61.05-.03.13-.3-.05-.15.08-.28.19-.06.04-.12h.07s.23-.17.23-.17l.02-.07.25.1.02.11.09.07.07.15.11.03-.05.1.08.19.02.14.23.1.31-.06.02.05-.23.18.09.43-.06.25.07.16-.02.19-.28-.12.02-.19-.13-.02h-.11s-.08-.13-.08-.13l-.09.02.03.14-.66.07.14.5.1.05.24-.13.29.07.03.17Z"/><path id="44007" d="m935.39,165.92l1.92-.56.19.78.55,2.07.66-.32.03.22.3.64v.4s.1.15.1.15l-.06.3.15.23.09.3.2.16.1.18h.17s-.41.71-.41.71l-.09.06-.03-.11-.11-.16h-.07s-.07-.06-.07-.06v-.22s-.29-.46-.29-.46l-.24-.15v-.14s.1-.63.1-.63l-.06-.31-.17-.09-.05.21.03.26-.04.52-.14-.02-.05.07.24.33.17.05.1.1-.04.11.19.53-.25-.1-.02.07-.23.17h-.07s-.04.12-.04.12l-.19.06-.08.28.05.15-.13.3-.05.03-5.44,1.61-1.81-6.31,4.9-1.5"/><path id="44001" d="m939.38,171.16l.41-.69,1.12.26.76.69.02.3-.14.09-.12-.07-.17-.23-.06.05.03.2.31.28.17.19.02.2-.16.16-.03.15.02.28-.06.04-.09-.07-.09-.19-.11-.06-.09-.12-.16.03-.04.41-.13.02-.13-.4.05-.13.09-.19-.11-.34.06-.52-.07-.37v-.12s-.19-.23-.19-.23l-.11.19.02.12h-.16s-.14-.16-.14-.16l.03-.14-.14-.1-.13.03.03.32.14.17.42.22.07.11-.04.14v.19s-.05,0-.05,0l-.13-.21-.24-.08-.16.06-.14-.04-.12-.25-.24-.23Z"/><path id="44005" d="m941.25,173.07l-.1.14v.12s.17.03.17.03l.09-.16-.16-.13Zm1.06-.67l.08.57.2.7.22.13-.12.41.21.47-.16.12.09.28.24.05.13.55.13.07-.07.26.46.48.06.55.35-.29.11-.34.3-.19-.04-.27.24-.17-.72-2.19-.27-.23v-.44s-.29-.71-.29-.71l-1.05-.1-.1.31Zm-2.01,2.75h-.15s-.11.14-.11.14v.27s.05.42.05.42l-.02.37.21.32.15.09v.21s.08.07.08.07l-.1.04-.23.03v.1s.16.31.16.31l.03.22v.24s.05.1.05.1l.12-.25-.02-.15.06-.06.03-.27.27-.1.03-.12-.17-.19-.03-.14.08-.25-.18-.09.02-.08-.16-.49.03-.29-.22-.44Zm.53-.34l.14-.11.12-.24.06-.61-.21-.18-.49-.18-.11-.32-.17-.22-.15.16.17.25-.13.17.03.21.18.1.28-.02.07.33-.06.22.14.42h.12Zm.48.62l.12.67-.22-.04v.17s.1.05.1.05l.04.15.06.25.2.32-.29.23-.09-.11-.23.39-.02.18.21.18.13-.13h.1s.24-.23.24-.23l.28.06v-.24s.06-.19.06-.19l-.05-.17.02-.16.17-.12.06.09.13-.04v-.15s.14-.04.14-.04h.12s.19.11.19.11l.02.17h.08s.01-.27.01-.27l-.16-.14v-.35s.06-.21.06-.21v-.43s-.14-.08-.14-.08l-.18-.45-.06-.44-.26-.22-.05-.67.27-.23-.25-.62-.12.26-.31.21-.08.31-.12.15v.41s-.07.28-.07.28l.02.45-.14.61Z"/><path id="44009" d="m933.05,176.59l5.06-1.56-.14-.3.07-.34.24-.21.19.09.06-.42.2-.15.13-.12h.16s.14.35.14.35l.12.2-.1.08-.02.11h.14s.1.11.1.11l-.18.22.13.09.15-.04.05.16-.05.11-.4.28h-.18s-.06.12-.06.12l.15.16.36.26.08.15.21.3.16.46-.07.22.08.33.11.17.05.18-.13.06-.02.25.14.1-.05.28-.3.31.22.53-.27.68-.02.29.06.24h-.1s-.15-.11-.15-.11l-.32-.07v-.13s.13-.16.13-.16l.07-.19-.05-.13-.02-.13-.09-.07-.08-.26-.18.06.03.13v.59s-.05.13-.05.13l.07.17-.29.17h-.14s0,.01,0,.01l-.37.16-.36.26-.49.2-.25.22-.85.6-.13.24-.21.11-.17.04-.25.15-.26.04-.22.1-.79.42-.18.14-.17.25-.11-.1-.16.07-.18.11-.05-.13.41-.15.08-.19v-.17s.23-.3.23-.3l-.04-.22-.2-.27-.04-.45-.21-.26-.05-.32.27-.36h.27s.08-.07.08-.07l-.96-3.94m6.09,7.19l.14.38-.02.3.07.18.42.48-.18.17-.46.18-.33.24-.12-.12-.1-.62.17-.29.28.09.09-.12-.24-.28.06-.19-.17-.47.39.07Z"/></g></svg>