<?xml version="1.0" encoding="UTF-8"?><svg xmlns="http://www.w3.org/2000/svg" viewBox="0 0 989.98 627.07"><g><path id="45077" d="m769.99,363.11l.6.33,2.96-.86-.02,1.29.83-.13,1.33,2.92.2.54.15.78-.09.11-4.85,3.71-1.09,1.71-2.42-7.83-.67-.25.32-1.18.32-.51,2.42-.62"/><path id="45073" d="m767.57,363.73l-.32.51-.32,1.18.67.25,2.42,7.83-2.38,3.69-1.17-.16-1.15-.8-4.77-2.93-.37-.62.31-1.74,1.24-2.24,1.7-1.32.4-1.83,1.78-.86,1.96-.95"/><path id="45013" d="m814.52,411.64l2.61.22,1.12,1.71,1.39.23,2.35,1.69.4,1.17.45.07.25.37.1.19.06.27-.04.35-.22,1.18-.18.2-3.5,2.16-.06.65-1.19,2.15-1.1.89-.54-.05-.59.9-.48-.39-2.31-1.85-.3-.49-.16-.52.02-.12.24-1.01-.34-.4,1.36-.49-.13-.99,1.13-.08.53-.7.07-.32.07-.32-.59-.26.58-1.22-.8-1.36.07-1.36-.1-.22-.34-.5-.51-.64.67-1.12"/><path id="45049" d="m814.52,411.64l-.67,1.12-.48,1-.35-.08-.57-.21-.16-.43.06-.33-.06-.33-.7-.65-.8-.52-.39.36-4.22,5.05-2.01-.8-.83-3.36.36-.17.83-.56.8-1.36.15-1.1.06-.85.33-.92.26-.35.22-.2,2.12-1.87,3.31,2.97,2.73,3.6"/><path id="45053" d="m813.86,412.76l.51.64.34.5.1.22-.07,1.36.8,1.36-.58,1.22.59.26-.07.32-.07.32-.53.7-1.13.08.13.99-1.36.49.34.4-.24,1.01-.02.12.16.52.3.49,2.31,1.85.48.39v1.08s-3.57-.67-3.57-.67l-1.09-.42-.09-.09-.25-1-.18-.92-.1-.45-.25-1.22-2.04-4.14-1.71-1.41-.37-.14,4.22-5.05.39-.36.8.52.7.65.06.33-.06.33.16.43.57.21.35.08.48-1"/><path id="45067" d="m832.85,372.39l.47-.22.7-.92.99-.44.58-.11,3.15.39.74-.78.98.62.21.73-.89,1.45-.68,2.18-.54.96-.8,1.12-.06.14.08.69,1.76,1.49.24,1.67,1.03,1.38.73.86-.78.24-.97-.36-.26-.83-.67-.32-.23-.41.16-.66-3.67-2.19-.53-.75-.29-1.44-.56-1.59-1.26-1.4.58-.75-.22-.75"/><path id="45033" d="m833.01,363.63l8.33,6.07-.88,1.22-.98-.62-.74.78-3.15-.39-.58.11-.99.44-.7.92-.47.22-.95-.78-1.01-.04,2.12-7.95"/><path id="45051" d="m840.47,370.92l.88-1.22,9.3,6.65,2.43,1.74-.79.3-1.52.91-.71.54-.96.92-.09.1-.38.41-.18.2-.28.37-.39.51-.11.15-1.14,1.75-.68,1.3-.24.46-1.79.14-.21-.64-1.06-1.3-1.02-.6-.73-.86-1.03-1.38-.24-1.67-1.76-1.49-.08-.69.06-.14.8-1.12.54-.96.68-2.18.89-1.45-.21-.73"/><path id="45019" d="m838.71,395.65l.84.28,1.36.63h1.33s-.18.92-.18.92l-.54.63-.27,1.78-1.39.08-.9.43-.21.03-.3-.59-.58.06-.78.76-.62,1.37.29.37h.73s-.04.55-.04.55l-1.44.96-.55.81-.47.44v.38s-2.46,1.92-2.46,1.92l.09.45-.29,1.11-1.41,1.39-.07.38-.65.31-.84.4-.2.08-.16.09-.63.34-1.46,1.06-.75.73h0l-.15-.13-1.18.51-.21.27.22.19.03.06-.03.17-.14.04-.36-.09-.81-1.13-1.13-2.52-.71-1.24.42-2.02-.06-1.1,2.26-.09,2.5.06-.61-1.02.92-.73.63.05.16-.86-2.07-1.7.37-.22,1,.34.8-.18.49.98.7.99,1.25-.18v.86s.47.25.47.25l.17.63.28.13.41-.28-.16-.84.81-.46.18-.5-.08-.54,1.21-.94-.16-.81.66-.84,1.11-2.39.48-.68.89-.58.89-.05.48-1.2.66-.35"/><path id="45035" d="m821.26,397.6l.32.21,1.21,1.35-.19.49-.18.21.62.43,3.13,2-.37.22,2.07,1.7-.16.86-.63-.05-.92.73.61,1.02-2.5-.06-2.26.09-.73-2.83.23-1.43-.22-.17h-.05l-2.32.18-1.29.29-.6-.09-2.04-1.82-1.56-.27,4.86-4.39.1.08.1.14.04.19v.25s.07.17.07.17l.23.35.21.11.98.23,1.23-.19"/><path id="45015" d="m825.26,391.33l.35-.28.14-.04,1.54-.2.54.05,1.39.81.64.49.28.41.14.11,1.99,1.08,1.73.57,4.71,1.33-.66.35-.48,1.2-.89.05-.89.58-.48.68-1.11,2.39-.66.84.16.81-1.21.94.08.54-.18.5-.81.46.16.84-.41.28-.28-.13-.17-.63-.49-.25v-.86s-1.24.18-1.24.18l-.7-.99-.49-.98-.8.18-1-.34-3.13-2-.62-.43.18-.21.19-.49-1.21-1.35-.32-.21.13-.67.86.16.86-.75.13-1.69-.06-1.73,2.06-1.59"/><path id="45043" d="m838.87,382.34l.67.32.26.83.97.36.78-.24,1.02.6,1.06,1.3.21.64,1.79-.14-1.19,2.28-.06.14-.13.34-.04.1v.04s-.02.02-.02.02l-.38,1.36-.05.23-.06.32-.02.07-.06,1.21-.02.64-.02,1.05v.03s0,0,0,0l.05.29v.07s.29.68.29.68l-.16.8-.11.2-.79,1.1-.79.49.18-.91h-1.33s-1.36-.63-1.36-.63l-.84-.28-4.71-1.33-.13-.32v-.43s1.21-2.68,1.21-2.68l2.47-3.49-.29-.47.23-2.18.25-.64.75-1.57.11-.1.27-.1"/><path id="45027" d="m825.9,380.68l.8,1.14,1.29-.05-.44,1.65-1.17,1.2.4.88-1.52,5.83-2.06,1.59-1.86.61-.54.11-.25-.02-.59-.19-.77-.51-.6-.58-.98-1.17-1.04-1.82.88-1.8,1.55-.45-.32-1,2.36-.95,1.16-1.3,3.71-3.15"/><path id="45089" d="m838.64,381.92l.23.41-.27.1-.11.1-.75,1.57-.25.64-.23,2.18.29.47-2.47,3.49-1.21,2.68v.43s.12.32.12.32l-1.73-.57-1.99-1.08-.14-.11-.28-.41-.64-.49-1.39-.81-.54-.05-1.54.2-.14.04-.35.28,1.52-5.83-.4-.88,1.17-1.2.44-1.65.82-.23.82,1.1.8-.3.66.54,1.52-.54,2.92.64.98-.34.15-.26.9-.69.14-.06.38.02.55.27"/><path id="45041" d="m830.41,371.5l.48.08,1.01.04.95.78.22.75-.58.75,1.26,1.4.56,1.59.29,1.44.53.75,3.67,2.19-.16.66-.55-.27-.38-.02-.14.06-.9.69-.15.26-.98.34-2.92-.64-1.52.54-.66-.54-.8.3-.82-1.1-.82.23-1.29.05-.8-1.14,1.28-1.39-2.15-.83-1.49-.64,3.82-4.1.5-.69,1.24.05v-.52s.26-.69.26-.69h.87s.19-.37.19-.37"/><path id="45069" d="m823.43,360.93l4.44-.72,4.88,3.25.25.18-2.12,7.95-.48-.08v-.09l-.56-1.42-.3-.56-.71-.28-.57-.84.41-.81-.79-.38-.76.63-.79-.38-.05-.37.04-.11.41-2.54-3.29-3.41"/><path id="45031" d="m826.32,366.88l-.04.11.05.37.79.38.76-.63.79.38-.41.81.57.84.71.28.3.56.56,1.42v.09l-.19.39h-.87s-.24.68-.24.68v.52s-1.25-.05-1.25-.05l-.5.69-3.82,4.1-.07.02-1.54-1.09-.28-.37.52-.69.1-.99-.76-1.24-.79-.79-.64-.19-1.63-.31v-.05l4.03-3.64,3.13-.67.72-.91"/><path id="45061" d="m818.44,372.15l1.63.31.64.19.79.79.76,1.24-.1.99-.52.69.28.37,1.54,1.09.07-.02,1.49.64-.34.98-.98.21-1.4,1.4-.63-.98-.98.21-1.47-1.61-1.86.25-1.44-.38-.32-1.32.24-.27.45-1.21-.08-.69-.07-.3.53-.73,1.75-1.84"/><path id="45055" d="m815.26,366.8l1.93,2.31,1.25,2.99-1.75,1.89-.53.73.07.3.08.69-.45,1.21-.24.27-2.29,1.99-1.82,1.02-3.23-2.14.51-2.1.82-2.87-2.51-1.29,2.4-2.35.19,1.24.38-.04.43-.77.86.6,2.26-1.05-.78-.94,2.44-1.68"/><path id="45085" d="m815.61,377.2l.32,1.32,1.44.38,1.86-.25,1.47,1.61.98-.21.63.98,1.4-1.4.98-.21.34-.98,2.15.83-1.28,1.39-3.71,3.15-1.16,1.3-2.36.95.32,1-1.55.45-.88,1.8-1.98-2,.17-1.34-.8-2.73-.66-1.79.52-1.04-.49-1.24,2.29-1.99"/><path id="45017" d="m806.71,385.4l.99.6,1.46.62.43-.21,1.09.71,1.44.18,1.6-.53.86.57,1.98,2,1.04,1.82-.21.51-1.58-.44-.37,2.27-.8-.25-.84-1.04-2.81-1.43-2.48.29-1.75-1.64,1.52-.95.52-.52-.27-.18-.52-.23-.98.11-.29.59-.47-.02-.04-2.26.03-.28.44-.29"/><path id="45029" d="m813.45,400.67l1.56.27,2.04,1.82.6.09,1.29-.29,2.32-.18h.05l.22.17-.23,1.43.73,2.83.06,1.1-.42,2.02.71,1.24,1.13,2.52.81,1.13.36.09.14-.04.03-.17-.03-.06-.22-.19.21-.27,1.18-.51.15.13h0l-1.39,1.44h-.11l-.69-.29-.44.36-.54.09-.15-.42-.7.23-.15.26-2.35-1.69-1.39-.23-1.12-1.71-2.61-.22-2.73-3.6-3.31-2.97,2.46-2.3.84.76.34-.7-.37-.8,1.59-1.26.13-.11"/><path id="45005" d="m808.48,405.08l-2.12,1.87-.22.2-.26.35-.33.92-.06.85-.15,1.1-.8,1.36-.83.56-.36.17-3.65-6.45-1.58-.87,1.18-1.7,1.77.27,1.77.35,1.53-.25,1.68-.5,2.42,1.77"/><path id="45009" d="m813.32,400.78l-1.59,1.26.37.8-.34.7-.84-.76-2.46,2.3-2.42-1.77-.68-.76-.09-.33-.56-4.7-.16-.81-.23-.64,2.26,1,2.07.71.6.21,1.93,1.01,2.12,1.8"/><path id="45075" d="m806.77,389.43l1.75,1.64,2.48-.29,2.81,1.43.84,1.04.8.25.37-2.27,1.58.44.21-.51.98,1.17.6.58.77.51.59.19.25.02.54-.11,1.86-.61.06,1.73-.13,1.69-.86.75-.86-.16-.13.67-1.23.19-.98-.23-.21-.11-.23-.35-.05-.17v-.25s-.06-.19-.06-.19l-.1-.14-.1-.08-4.86,4.39-.13.11-2.12-1.8-1.93-1.01-.6-.21-2.07-.71-2.26-1-1.51-.71h-1.51s2.93-4.25,2.93-4.25l2.52-1.67"/><path id="45011" d="m804.34,396.07l.23.64.16.81.56,4.7.09.33.68.76-1.68.5-1.53.25-1.77-.35-1.77-.27-1.18,1.7-3.21-1.5,6.41-8.28h1.51s1.51.71,1.51.71"/><path id="45003" d="m796.23,387.1l.08.12.79.8,1.62.57,1.1,1.34.98.08.43.06,1.18.33,1.85.72-2.93,4.25-6.41,8.28-1.79-1.35-1.25-1.77-.45-1.74-1.27-1.49-.9-.85-.16-.15,5.85-7.51,1.29-1.66"/><path id="45063" d="m799.46,379.11l.9.42-.26.52.98,1.03.61-.08h.55l.7.07.7.41,1.72,1.24.31.33.71,1.08.06.13.27,1.14-.44.29-.03.28.04,2.26.47.02.29-.59.98-.11.52.23.27.18-.52.52-1.52.95-2.52,1.67-1.85-.72-1.18-.33-.43-.06-.98-.08-1.1-1.34-1.62-.57-.79-.8-.08-.12,1.17-4.84,1.56-.22-.99-1.33.48-1.09,1.02-.51"/><path id="45079" d="m808.78,375.97l-.51,2.1,3.23,2.14,1.82-1.02.49,1.24-.52,1.04.66,1.79.8,2.73-.17,1.34-.86-.57-1.6.53-1.44-.18-1.09-.71-.43.21-1.46-.62-.99-.6-.27-1.14-.06-.13-.71-1.08-.31-.33-1.72-1.24-.7-.41-.7-.07h-.55l-.61.08-.98-1.03.26-.52-.9-.42.26-1.02.63.05,2.07.76.03-1,.93.17,2.91-1.31,2.49-.79"/><path id="45039" d="m806.81,369.86l.28,1.95,2.51,1.29-.82,2.87-2.49.79-2.91,1.31-.93-.17-.03,1-2.07-.76-.63-.05-2.88-5.52-.27-1.77,3.25-.32,4.32-.34,2.68-.27"/><path id="45071" d="m796.84,372.57l2.88,5.52-.26,1.02-1.02.51-.48,1.09.99,1.33-1.56.22-.56.14-.83-.19-.55-.2-1.23-.7-1.44-.6-.49-.14-2.11.54-.36-.22-.26.38.17.77-1.63-1.34.48-1.12.38-1.44,1.13-1.09.5-.5,1.16-2.24.85-2,2.45,1.41.66-.87.28-.14.55-.15h.25l.04.02"/><path id="45081" d="m789.74,382.05l-.17-.77.26-.38.36.22,2.11-.54.49.14,1.44.6,1.23.7.55.2.83.19.56-.14-1.17,4.84-1.29,1.66-3.65-.66-.47-.28-.25-.22-.74-1.83-.71.07-1.37.55,1.99-4.36"/><path id="45037" d="m787.74,386.4l1.37-.55.71-.07.74,1.83.25.22.47.28,3.65.66-5.85,7.51-.31-.29-1.86-.79.4-1.2-1.03-.84-1.03-.84.11-1.16.68-1.62-.87-1.09-.1-.9,1.96-.84.7-.3"/><path id="45065" d="m787.05,386.71l-1.96.84.1.9.87,1.09-.68,1.62-.11,1.16,2.06,1.69-.4,1.2-2.2-1.92-.76-1.44-1.18-.97-.5-.36-1.64-.83h-.09l-.27.1-.12-.03-2.84-1.69-.79-1.2,1.05-1.55.79-.25.7.3h.21s1.21-.13,1.21-.13l.92-.29.93,1.85.73-1.1.73.73h.92s.25-.32.25-.32l1.99-.09.07.7"/><path id="45047" d="m781.78,376.82l.34.35,1.62,1.18,2.76,1.44,1.61.92,1.63,1.34-1.99,4.36-.7.3-.07-.7-1.99.09-.25.33h-.92s-.73-.74-.73-.74l-.73,1.1-.93-1.85.61-.68.36-.49.24-.65.08-.67-.09-.65-.24-.62-.4-.53-.27-.26-.37-.26-.27-.11-.72-1.42,1.42-1.77"/><path id="45059" d="m788.47,371.5l4.13.8-.85,2-1.16,2.24-.5.5-1.13,1.09-.38,1.44-.48,1.12-1.61-.92-2.76-1.44-1.62-1.18-.34-.35-1.51-1.52,1.28-1.4-.21-1.17.57-2.67.47-2.12,1.6.94.39.7,2.59,1.16,1.52.75"/><path id="45001" d="m780.27,375.3l1.51,1.52-1.42,1.77.72,1.42.27.11.37.26.27.26.4.53.24.62.09.65-.08.67-.24.65-.36.49-.61.68-.92.29-1.21.12h-.21s-.7-.29-.7-.29l-.79.25-1.05,1.55-3.34-4.12,7.09-7.44"/><path id="45007" d="m770.01,373.5l1.09-1.71,4.85-3.71.62.39.13.75.19,2.48.32.74.57.64.26.74,2.24,1.48-7.09,7.44-.71-1.84-1.99-2.8-.63-.97v-.06s-.19-.15-.19-.15l-.39-.11-.67.09-.75.18h-.02l-.21.11,2.38-3.69"/><path id="45087" d="m790.01,363.83l1.29.17,2.52.11.36.11.22.12.59.45-.33.47.89.94-.54.82.46.35.15.66.24.69.87.43-.09.89-.07.76.27,1.77-.04-.02h-.25l-.55.15-.28.14-.66.87-2.45-1.41-4.13-.8.28-2.5.19-3.24.6-1.13.47-.8"/><path id="45025" d="m816.14,361.99l7.3-1.06,3.29,3.41-.41,2.54-.72.91-3.13.67-4.03,3.64-1.25-2.99-1.93-2.31-3.6-4.15,4.47-.66"/><path id="45057" d="m804.32,357.75l1.49,1.53,1.32,1.33.13,2.35v.22s.39.07.39.07l4.01-.59,3.6,4.15-2.44,1.68.78.94-2.26,1.05-.86-.6-.43.77-.38.04-.19-1.24-2.4,2.35-.28-1.95-.69-2.04.02-.79.27-.95-.4-1.16-.4-1.03-.2-.31.53-.89-.12-2-1.37-1.58-.12-1.35"/><path id="45023" d="m805.41,363.58l.2.31.4,1.03.4,1.16-.27.95-.02.79.69,2.04-2.68.27-4.32.34-3.25.32.07-.76.09-.89-.87-.43-.24-.69-.15-.66-.46-.35.54-.82-.89-.94,10.75-1.67"/><path id="45091" d="m796.23,357.01l5.3-.48.44.66-.41,1.41.55.37,1.51-1.52.7.31.12,1.35,1.37,1.58.12,2-.53.89-10.75,1.67.33-.47-.35-.65-.6-1.58-.07-2.32,1.34-.59-.34-1.81.54-.75.72-.07"/><path id="45021" d="m788.04,357.87l7.46-.79-.54.75.34,1.81-1.34.59.07,2.32.6,1.58.35.65-.59-.45-.22-.12-.36-.11-2.52-.11-1.29-.17-.95-.51-1-2.08-1.99-3.17,1.98-.2"/><path id="45083" d="m784.31,358.26l1.76-.19,1.99,3.17,1,2.08.95.51-.47.8-.6,1.13-.19,3.24-.28,2.5-1.52-.75-2.59-1.16-.39-.7-1.6-.94-1.65-1.31-.07-.18-.42-3.6-.53-4.11,4.6-.48"/><path id="45045" d="m777.11,358.85l2.6-.12.53,4.11.42,3.6.07.18,1.65,1.31-.47,2.12-.57,2.67.21,1.17-1.28,1.4-2.24-1.48-.26-.74-.57-.64-.32-.74-.19-2.48-.13-.75-.62-.39.09-.11-.15-.78-.2-.54-1.33-2.92-.83.13.02-1.29-2.96.86-.6-.33,3.29-2.25,3.83-2.01"/></g></svg>