<?xml version="1.0" encoding="UTF-8"?><svg xmlns="http://www.w3.org/2000/svg" viewBox="0 0 989.98 627.07"><path id="46105" d="m411.91,124.72l15.08,1.04-.68,10.82-.63,9.96-15.55-1.08.29-3.98.3-3.98.7-7.94h.12l.37-4.86"/><path id="46063" d="m394.25,123.32l16.8,1.33.86.06-.37,4.86h-.12l-.7,7.94-.3,3.98-17.52-1.39,1.24-15.33.11-1.45"/><path id="46033" d="m390.01,171.27l11.23.84,11.37.87-.05.34-.24.87-2.03,2.5-.42.71-1.26-.51-.64,1.38-.97.09-.22,2.97-17.49-1.41.05-.58.68-8.06"/><path id="46047" d="m389.29,179.91l17.49,1.41-.81,10.97-8.43-.65-9.16-.75.91-10.98"/><path id="46102" d="m421.43,177.16l-.33,5.17.47.02-.13,2-.35,6.01.46.03-.21,2.99-11.88-.82-3.49-.26.81-10.97.22-2.97.97-.09.64-1.38,1.26.51.42-.71,10.47.73.67-.26"/><path id="46007" d="m436.13,185.24l-.49,9.03-6.66-.35-4.18-.32-3.46-.23.21-2.99-.46-.03.35-6.01,14.69.89"/><path id="46095" d="m439.42,174.96l.11-.12.38-.09,4.07,3.12,1.56.35,1.78-.84,1.99.97,1.18-.08.64-.11.15.27,1.79.15-.06,7.47-16.89-.82.49-8.92.23-.52.14-.2,1.24-.7.83-.14.27.1.1.09"/><path id="46121" d="m436.13,185.24l16.89.82-.14,9.05-1.33-.07-1.2-.06-3.26-.15-6.07-.28-5.38-.28.49-9.03"/><path id="46123" d="m453.07,178.58l.47.46,1.87.47,1.21-.45,2.58.61,1.98-.78,1.27-.59.68.04-.2,5.6,1.5.06-.44,11.57-11.13-.47.14-9.05.06-7.47"/><path id="46053" d="m468.37,184.14l-.22.87.84.7,1.63.07.5.67.62,1,1.73,2.52,1.79.4.26,1.83,1.67.78,1.29,1.39,2.23.47.65,1.28-12.67-.37-4.69-.17.44-11.57,3.92.14"/><path id="46015" d="m474.84,174.29l1.98.06-.08,10.05-8.37-.27.1-.11.14-.24.06-.21-.7-.96v-1.26s-.44-.54-.44-.54l-.82-.22-.59.07-.35-.5.32-.38.68-.27.04-1.63.75-.44.62-.78.44-.54-.1-.47-.85-.59.09-.97,7.09.19"/><path id="46003" d="m484.69,174.5l.06,2.01-.12,8.12-6.4-.17-1.49-.05.08-10.05,7.87.15"/><path id="46035" d="m490.67,176.66l-.11,8.1-2.5-.03-3.43-.09.12-8.12,5.92.15"/><path id="46043" d="m478.22,184.46l6.4.17,3.43.09-.07,6.95-9.16-4.17-.27-.08h-.44l.02-1.33.08-1.65"/><path id="46023" d="m468.37,184.14l8.37.27,1.49.05-.08,1.65-.02,1.33h.44l.27.08,9.16,4.17.67.25-.18.44-.08.68-.22,1.37-.12,1.67.38.89-.44,1.38-.02.69-.9.89-.24.03-2.36-1.07-3.1-2.78-.65-1.28-2.23-.47-1.29-1.39-1.67-.78-.26-1.83-1.79-.4-1.73-2.52-.62-1-.5-.67-1.63-.07-.84-.7.22-.87h0"/><path id="46009" d="m488.47,192.36l7.62.13.03,6.78-.66.73-.42-.67-.52-.14-.51.69-.57-.05-.51-.58-.8.13-.2.62-.43.54-.35.51-.47.43-.22.14-.85.13h-.28s-.3-.04-.3-.04l-.36-.16-1.83-1.58.24-.03.9-.89.02-.69.44-1.38-.38-.89.12-1.67.22-1.37.08-.68"/><path id="46135" d="m496.09,192.5l3.76.05,4.22.03v1.97s0,6.69,0,6.69l-.97-.68-.03-.83-1.05-.13-1.05-.45-.81.17-.81.35-1.04-.24-.53.19-.91.24-.12-.49-.62-.08-.03-6.78"/><path id="46067" d="m488.06,184.73l2.5.03,5.95.1,3.42.06-.07,7.63-3.76-.05-7.62-.13.18-.44-.67-.25.07-6.95"/><path id="46061" d="m492.6,176.71l4.02.1-.11,8.05-5.95-.1.11-8.1,1.93.06"/><path id="46087" d="m500.58,176.88l3.98.06-.1,8.04-4.52-.07-3.42-.06.11-8.05,3.96.07"/><path id="46125" d="m504.45,184.98l3.41.02-.09,9.63-3.7-.08v-1.97s-4.23-.03-4.23-.03l.07-7.63,4.52.07"/><path id="46027" d="m507.78,194.63l1.99.02-.08,8.78-3.52-1.32-2.1-.89v-6.69s3.71.08,3.71.08"/><path id="46127" d="m515.64,194.69l-1.16,4.02-.68,1.8-.67,3.08.44.34.55.51.43.7.61,1.61.6,1.67-3.25-.83-1.21-1.79-.05-.21v-.21s.07-.27.07-.27l-.1-.38-.19-.42-1.37-.87.08-8.78,5.87.04"/><path id="46083" d="m507.87,185l5.43.04.07,1.39,1.14,1.29.05,1.68-1.02.06.05,1.13.37.84h1.2l.16.08.64,2.31-.05.16-.27.71-5.87-.04-1.99-.02.09-9.63"/><path id="46099" d="m508.54,176.98l7.21.02-.03,8.06-2.42-.02-5.43-.04-3.41-.02.1-8.04,3.98.04"/><path id="46085" d="m464.33,168l.66,1.1-.35.8-.09.42.3.44.44.44.47.11.55.07.36.15.81.75.37.39.12.32v.27s-.1.53-.1.53l-.11.3-.09.97.85.59.1.47-.44.54-.62.78-.75.44-.04,1.63-.68.27-.32.38.35.5.59-.07.82.22.45.54v1.26s.69.96.69.96l-.06.21-.14.24-.1.11h0l-3.92-.14-1.5-.06.2-5.6-.68-.04-1.27.59-1.98.78-2.58-.61-1.21.45-1.87-.47-.47-.46-1.79-.15.11-2.47-.42-.54.32-7.41.03-.6,7.06.3.04.16.55,1.08.58.62,1.26-.21h.68s1.27.79,1.27.79h.62s.3-.13.3-.13l.38-.38-.34-.67-.95-.37-.47-.22-.07-.4.21-.32.49-.3,1.41.63"/><path id="46075" d="m451.29,168.01l-.32,7.41.42.54-.11,2.47-.15-.27-.64.11-1.18.08-1.99-.97-1.78.84-1.56-.35-4.07-3.12-.38.09-.11.12.19-3.53.49-3.98,11.2.55"/><path id="46071" d="m424.04,170.53l15.56.9-.19,3.53-.1-.09-.27-.11-.83.14-1.24.7-.14.19-.23.52-.49,8.92-14.69-.89.13-2-.47-.02.33-5.17.7.35h.71l.59-.39.42-6.6h.19"/><path id="46117" d="m446.21,153.87l1.34.8.05.05.23.71v.31l-.24.96-.18.46-.16.25-.06.51.07.33.11.19.18.22.21.15.23.1,1.08.27.33.67-1.07.38-.12.17-.1.36-.02.26.02.09.15.21.47.33,1.22-.32,1.32.54.28,1.95.06.06.35.16,1.53.44.59.09h.67s.25.08.25.08l1.05.35,1.78,1.16h1s.22.19.22.19l.12.31-.02.05-.79.99-7.06-.3-.03.6-11.2-.55-1.97-.1.22-4.03.63-7.96.35-1.3,1.84.63.55-.15.26-.43,1.01-.4,1.36-.22.9.57.97-.19"/><path id="46055" d="m430.41,157.45l.92.26,1.55.18.95-.73.21-.72,1.49-.33.23-.64,2.51-.23.64-.62.43-.55-.35,1.3-.63,7.96-.22,4.04,1.97.1-.49,3.98-15.56-.9.51-8.04h.1l.25-3.85,1.28-.28,2.11.11,2.11-1.03Z"/><path id="46103" d="m390.58,164.67l9.9.82,17.51,1.29-.23-1.08.83-1.08.2-2.11.78-.63.37-1.68.22-.23.92-.11.44.75.59-.05.11-.41.86.13,1.22-1.48.6-.14-.24,3.85h-.1l-.51,8.04h-.19l-.42,6.6-.59.39h-.71l-.7-.35-.67.26-10.47-.73,2.03-2.5.24-.87.05-.34-11.37-.87-11.23-.84.57-6.61"/><path id="46081" d="m391.4,154.8l2.53-.34,1.37-.12,4.13.35-.61,6.32-.14,1.66,1.99.14-.2,2.67-9.9-.82.08-.9.74-8.97"/><path id="46019" d="m410.42,141.49l-.29,3.98h-.02l-.52,7.05-.3,2.93-9.86-.76-4.13-.35-1.37.12-2.53.34.8-9.79.7-4.92,17.52,1.39"/><path id="46093" d="m425.68,146.55l-.77,12.1h-.02l-.6.14-1.22,1.48-.86-.13-.11.41-.59.05-.44-.75-.92.11-.22.23-.37,1.68-.78.63-.2,2.11-.83,1.08.23,1.08-17.51-1.29.2-2.67-1.99-.15.14-1.66.61-6.32,9.86.76.3-2.93.52-7.05h.02l15.55,1.08"/><path id="46137" d="m426.31,136.58l8.55.51-1.08,9.94-.06,1.03,5.92.32-.31,5.67-.43.55-.64.62-2.51.23-.23.64-1.49.33-.21.72-.95.73-1.55-.18-.92-.26-2.11,1.03-2.11-.11-1.28.28.77-12.1.63-9.96"/><path id="46041" d="m453.08,138.03l.14,1.11.86,1.04v.14s-.17.46-.17.46l-.44.51-.08.12-.07.19.13.61.71,1.07.03.26-.43,1.74-.82,1.92.64,1.21-.17.42-.97-.38-.97.15-.23.4-.02.43.07,1.15.04.25.28.88-.02.18-.15.23-.27.3-1.91,1.7-.3.12-.6-.14-.41-.14-.47-.52-.26-.44-.13-.15-.19-.19-.3-.12h-.07l-.2.13-.16.29-.06.18-.06.23v.23s.06.14.06.14l.11.1-.97.19-.9-.57-1.36.22-1.01.4-.26.43-.55.15-1.84-.63.31-5.67-5.92-.32.06-1.03,1.08-9.94,18.23.93"/><path id="46129" d="m451.78,135.16l11.5.53h.15l-.34,7.99-8.93-.4-.71-1.07-.13-.61.07-.19.08-.12.44-.51.16-.46v-.14s-.86-1.04-.86-1.04l-.14-1.11-.46-.72-1.22-.09-.6-.55.72-.92.26-.59"/><path id="46107" d="m454.17,143.29l8.93.4,2.19.09-.28,8-1.65-.07-11.9-.51-.11-.35-.04-.25-.07-1.15.02-.43.23-.4.97-.15.97.38.17-.42-.64-1.21.82-1.92.43-1.74-.03-.26"/><path id="46119" d="m463.35,151.71l-.35,8.04-13.93-.59-1.08-.27-.23-.1-.21-.15-.18-.22-.11-.19-.07-.33.06-.51.16-.25.18-.46.24-.96v-.31l-.23-.71-.05-.05-1.34-.79-.11-.11-.06-.14v-.23s.05-.23.05-.23l.06-.18.16-.29.2-.13h.07l.3.12.19.18.13.15.26.44.47.52.41.14.6.14.3-.12,1.91-1.7.27-.3.15-.23.02-.18-.17-.53,11.9.51"/><path id="46065" d="m463.01,159.75l-.08,7.62-.49.3-.21.32.07.4.47.22.95.37.34.67-.38.38-.3.12h-.62s-1.27-.78-1.27-.78h-.68s-1.26.21-1.26.21l-.58-.62-.55-1.08-.04-.16.79-.99.02-.05-.12-.31-.22-.2h-1s-1.78-1.15-1.78-1.15l-1.05-.35-.25-.07h-.67s-.59-.1-.59-.1l-1.53-.44-.35-.16-.06-.06-.28-1.95-1.32-.54-1.22.32-.47-.33-.15-.21-.02-.09.02-.26.1-.36.12-.17,1.07-.38-.33-.67,13.93.59"/><path id="46017" d="m464.33,168l4.56.11,6.15.15-.2,6.03-7.09-.19.11-.3.09-.53v-.27s-.11-.32-.11-.32l-.37-.39-.81-.75-.36-.15-.55-.07-.47-.11-.44-.44-.3-.44.09-.42.35-.8-.66-1.1"/><path id="46073" d="m475.04,168.27l3.72.11,6.08.16-.15,5.96-7.87-.15-1.98-.06.2-6.03"/><path id="46111" d="m484.84,168.54l7.87.21h.07l-.18,7.96-1.93-.06-5.92-.15-.06-2.01.15-5.96"/><path id="46097" d="m500.69,168.89l-.11,7.99-3.96-.07-4.02-.1.18-7.96,7.9.14"/><path id="46079" d="m500.69,168.89l3.96.03,3.96.05-.07,8.01-3.98-.04-3.98-.06.11-7.99"/><path id="46101" d="m515.8,168.99l-.05,8-7.21-.02.07-8.01,7.19.02"/><path id="46011" d="m504.77,160.92l3.98.02,7.1.06-.05,7.99-7.19-.02-3.96-.05.12-7.99"/><path id="46057" d="m508.82,154.94l-.07,6-3.98-.02-5.97-.1.11-5.99,9.91.11"/><path id="46077" d="m498.8,160.82l5.97.1-.12,7.99-3.96-.03-7.9-.14h-.07l.17-8.04,5.92.11"/><path id="46005" d="m490.88,158.65l2.05.1-.05,1.96-.17,8.04-7.87-.21-6.08-.16.2-10.08,11.92.35"/><path id="46069" d="m465.01,151.78l4.26.16-.3,8.04h.2l-.27,8.12-4.56-.11-1.41-.63.08-7.62.35-8.04,1.65.07"/><path id="46059" d="m469.27,151.94l9.7.3v6.06l-.2,10.08-3.72-.11-6.15-.15.27-8.12h-.2l.3-8.04"/><path id="46045" d="m463.43,135.7l15.85.59-.19,7.98-13.8-.49-2.19-.09.34-7.99"/><path id="46049" d="m479.09,144.27h.08l-.21,7.97-9.7-.3-4.26-.16.28-8,13.8.49"/><path id="46115" d="m491.11,144.64l-.05,2.01-.15,5.67v.33h.09l-.13,5.99-11.92-.35v-6.06l.21-7.97,11.94.37"/><path id="46025" d="m498.98,146.84l-.07,7.99-.11,5.99-5.92-.11.05-1.96-2.05-.1.13-5.99h-.09v-.33l.15-5.67,7.91.19"/><path id="46029" d="m498.98,146.84l4.36.06,5.57.1-.02,3.99-.07,3.97-9.91-.11.07-7.99"/><path id="46039" d="m515.89,151.01v3.96s-.03,4.02-.03,4.02v2.02s-7.12-.06-7.12-.06l.07-6,.07-3.97,7.01.03"/><path id="46051" d="m515.65,142.98l.27,1.33-.02,6.7-7.01-.03.02-3.99-5.57-.1.04-3.36,3.55.06.35-.9,8.37.3"/><path id="46037" d="m491.31,136.64l9.79.2.13.66,2.23.05-.11,9.35-4.36-.06-7.91-.19.24-10.01"/><path id="46109" d="m514.22,128.99l-.09,1v.08s-.08.61-.08.61l-.06.5-.04.21-.02.11-.02.05-.02.03-.03.06-1.12,1.67-.33.33-.62.34-.56.36-1.47,1.18-.02.03-.03.04-.02.02-.06.13-.22.77.06.09.29.37,1.12,1.5,1.11,2.46,1.25.16,1.55.76.53.43.31.71-8.37-.3-.35.9-3.55-.06.07-5.99.09-8.66,10.68.1"/><path id="46091" d="m503.54,128.89l-.09,8.66-2.23-.05-.13-.66-9.79-.2.18-7.97,12.05.22"/><path id="46013" d="m479.52,128.31l11.5.35.47.02-.18,7.97-.19,8-11.94-.37h-.08l.19-7.98.23-7.98"/><path id="46089" d="m463.58,127.71l11.43.44,4.51.16-.23,7.98-15.85-.59h-.15l.3-7.98"/><path id="46021" d="m460.97,127.59l2.6.12-.3,7.98-11.5-.53.26-.91.18-.34.32-.21.69.26.41-.29.34-.88-.61-.56-.05-.81-.65-1.2.5-1.03-.38-.29-.56-.2.03-.74-.82.13-.38-.98,9.93.48"/><path id="46031" d="m427.02,125.76h.14l.26.02,1.94.12,2.31.14,2.43.15,2.01.11.93.06,6.3.35,1.45.08,1.93.1h.13l.36.02,3.65.18h.2l.38.98.82-.13-.03.74.56.2.38.29-.5,1.03.65,1.2.05.81.61.56-.34.88-.41.29-.69-.26-.32.21-.18.34-.26.91-.26.59-.72.92.6.55,1.22.09.46.72-18.23-.93-8.55-.51.68-10.82h.03"/></svg>