<?xml version="1.0" encoding="UTF-8"?><svg xmlns="http://www.w3.org/2000/svg" viewBox="0 0 989.98 627.07"><path id="47163" d="m782.03,325.19l-.71.88-.69.22-.2.67-.88,1.09-1.56,1.53-.5-.06-1.27,1.5-1.22-.3-.81.73-.84.11-.29-.08-.91-.66-.63-.13-1.09.35-2.26.44-1.01.16-.38-.56,1.17-1.18-.02-2.17,5.71-.85.91-.14,1.77-.24,3.85-.55.13-.54,1.75-.21"/><path id="47091" d="m782.03,325.19l3.27-.44-.47.63-.09,4.71.07,1.1-.38.13h-.32s-.48-.14-.48-.14l-.11-.26-.1.06-.02.02-.92.63-.85.95-.14.37-.19.55-.32.12-.61-.52-1.25-1.3-.28-.55,1.42-2.4v-.07l-.71-.71.88-1.09.2-.67.69-.22.71-.88"/><path id="47109" d="m665.36,367.36l.39,8.92-7.58.6-.35-5.83,1.26-.3.14-.39.21-.88.08-.15h.87s0-.31,0-.31l-.45-.05-.09-.47.86-.7.73-.39,1.16-.15,2.78.1"/><path id="47023" d="m660.33,362.95l.92-.23,1.22,1.65,1.78.55.99-.33.09,1.89.03.88-2.78-.1-1.16.15-.73.39-.86.7.09.47.45.05v.31s-.87,0-.87,0l-.08.15-.21.88-.14.39-1.26.3-.39-1.72-.97-1.35-.07-1,.66-.07,2.36-1.75.95-1.75-.02-.46"/><path id="47069" d="m651.97,367.23l4.41-.25.07,1,.97,1.35.39,1.72.35,5.83-.68.06-3.63.28-3.37.25-.4-9.31-.02-.83,1.91-.1"/><path id="47047" d="m644.68,368.4l5.4-.24.4,9.31-2.88.2-5.45.35-.11-3.1-.19-3-.08-2.7,1.01-.76,1.9-.07"/><path id="47075" d="m646.2,358.68v.08s.47.25.47.25l.2.21.46.33.79.37h.39l1.79.71,1.41.54.27,6.05-1.91.1.02.83-5.4.24-.14-3.39-.52-.88.14-.07.42-.46-.11-1.85.36-.17.17-1.03v-.17h-.24l-.02-.31.1-.4.5-1.06.85.06"/><path id="47113" d="m660.09,358.3l.23,4.65.02.46-.95,1.75-2.36,1.75-.66.07-4.41.25-.27-6.05,1.09.26,1.71-2.48-.14-.4,3.87-.15,1.86-.11"/><path id="47033" d="m648.99,354.25l1.03.66.19,1.24.19.46.36.61,2.88.49.73.85.14.4-1.71,2.48-1.09-.26-1.41-.54-1.79-.71h-.39l-.79-.37-.46-.33-.2-.21-.46-.25v-.08s.14-1.49.14-1.49l1.21-.23.18-.73,1.27-1.34v-.63"/><path id="47053" d="m649.28,349.47l3.57-.32-.02-.36.7.44,1.16.86.77.62,1.21.43,1.35.98.22,6.29-3.87.15-.73-.85-2.88-.49-.36-.61-.19-.46-.19-1.24-1.03-.66-.09-.59.6-.09-.11-2.89-.11-1.22"/><path id="47017" d="m660.85,349.85l5.9-.48v.7s.52,6.28.52,6.28h.64s.03.68.03.68l-7.22.39-.27.26-.24.31-.11.3-1.86.11-.22-6.29.85-.17-.15-1.21,2.14-.24v-.64"/><path id="47183" d="m654.97,342.13l5.49-.4.38,8.12v.64s-2.13.24-2.13.24l.15,1.21-.85.17-1.35-.98-1.21-.43-.77-.62-1.16-.86-.7-.44-.15-4.31.06-.07.34.02.26.07.26.25.28.03,1.25-.51-.06-1.38-.3-.73.2-.02"/><path id="47131" d="m654.64,342.15h.14l.3.73.06,1.38-1.25.51-.28-.03-.26-.25-.26-.06-.34-.02-.06.07.15,4.31.02.36-3.57.32-6.04.24,1.04-1.03.35-2.31.62-1.56.03-1.99,9.36-.67"/><path id="47095" d="m645.28,342.82l-.03,1.99-.62,1.56-.35,2.31-1.04,1.03.06.41-2.71.41-.71-1.33,1.55.11,1.06-.65-.37-.77-1.09-.81.87-.15.81-.27v-1.27s-.69-.94-.69-.94l-.26-1.26.99-.05-.06.71.47.36.63-.33.2-.86,1.29-.18"/><path id="47045" d="m643.24,349.71l6.04-.24.11,1.22.11,2.89-.6.09.09.59v.63s-1.26,1.34-1.26,1.34l-.18.73-1.21.23-.23-.41-.15-.19-.92-.83-1.54.08-1.99.48-.7,1.02.23-1.04-.46-.44-.89-.46-.09-.56.68-1.04.14-1.2,1.2-.66.14-.83-1.18-.58,2.71-.41-.06-.41"/><path id="47097" d="m641.04,356.3l2.47-.46,1.54-.08.92.83.15.19.23.41-.14,1.49-.85-.06-.5,1.06-.1.4.02.31h.23v.17s-.16,1.03-.16,1.03l-.36.17.11,1.85-.42.46-.14.07-.96-.38-1.49-.8-2.55.26-.55.2-.43.32-.96.88-.35.43-.29.24-.56-.77,1.47-.91.29-.73-.54-.71-.93.45-.58-1.14.7-.62.64.1,1.12-.33.5-.58.21-.56,1.24-.19.12-.99-1.2-.5.21-.66.34-.06,1.38.25.22-1.03Z"/><path id="47167" d="m641.57,362.96l-2.55.26-.55.2-.44.32-.96.88-.35.43-.29.23.26,1.05-1.31-.26-.31-.56-.71.06-.12,1.08.58.65-.26,1.91,5.75-.66.13.02.98.41.36.26,1.01-.76,1.9-.07-.14-3.39-.52-.88h0s-.96-.38-.96-.38l-1.49-.79Zm-7.31,6.27l-.77-.59-.36-.99-.51.5-.84.29.08.96.33-.09v-.53s.58-.25.58-.25l1.05.9.34-.19h.11Z"/><path id="47157" d="m633.81,369.43l.34-.19,6.15-.7.13.02.98.41.36.26.08,2.7.19,3,.11,3.1-1.49.11-10.93.67-.03-.32.22-.72,1.74-.16.59-1.82.35-.42,1.06.37.59-.47.06-.82-.7-.33.54-.87-.15-.63-.53-.57-.87.03-.27-.42.97-.59.14-.75-.1-.42.47-.48"/><path id="47077" d="m667.94,357.04l.19,4.81-.82,1.93.11,2.43h.12s-2.2.27-2.2.27l-.09-1.89-.99.33-1.78-.55-1.22-1.65-.92.23-.23-4.65.11-.3.24-.31.27-.26,7.22-.39"/><path id="47079" d="m660.96,341.7l7.98-.55-.12,1.16,1.54,1.89-1.9.17-.03.03-.07.76.04.36.4,1.29-1.44,2.49-.62.78v-.7s-5.9.48-5.9.48l-.38-8.12.5-.03"/><path id="47005" d="m670.36,344.19l.18.15.74,1.29.05,1.21.77,1.79.08.92-1.22,2.12.02.94-.42.34.34.82,1.28-.04.23.1-.02.63-.12.97-.09.26-.3.45-.1.6-.97.08-.18-.8-.81.22-1.91.12h-.64s-.52-6.28-.52-6.28l.62-.78,1.44-2.49-.4-1.29-.04-.36.07-.76.03-.03,1.9-.17"/><path id="47039" d="m667.9,356.36l1.91-.12.81-.22.18.8.97-.08-.08,1.15-.84.96.42,1.01-.27,1.36,1.32,2.05-.09.66-.43.52-.56.5.27.65.34.24.62.09.06.19-.26.28-.68.19-.71-.76-1.06.9-.74-.19-.52.26-.42-.51-.62-.1h-.12s-.11-2.42-.11-2.42l.82-1.93-.19-4.81-.03-.67"/><path id="47071" d="m665.32,366.49l2.2-.28.62.1.42.51.52-.26.74.19,1.06-.9.71.76.03.39.4.27-.09,1.25.65.09.5,6.83-4,.58-3.05.25-.31.02-.39-8.92-.03-.88"/><path id="47099" d="m685.04,364.19l1.66.11-.04.62v.59s.55,6.16.55,6.16l.11,2.65-7.15.55-.24-9.16.76-.07,1.55-.64-.07-.86,2.27-.18.6.22"/><path id="47181" d="m677.13,364.01h1.35s.06.86.06.86l.76-.03.64.89.24,9.16-7.07.55-.5-6.83-.65-.09.09-1.25-.4-.27-.03-.39.68-.19.26-.28-.06-.19-.62-.09.48-.72,2.01-.53,1.21-.53,1-.22.57.16"/><path id="47101" d="m683.77,359.32l-.17.98.02.47.06.29.28.25.45.08.51.41.46.93-.06.83-.06.27-.22.35-.6-.22-2.27.18.07.86-1.55.64-.76.07-.64-.89-.76.03-.06-.84h-1.35s.21-.77.21-.77l.28-.02-.03-1.05h.44s.24-.6.24-.6l-.29-.58.71-.48v-.29s.51-.44.51-.44l.34-.05.4.59.94-.16.89.33.75-.39,1.25-.8"/><path id="47135" d="m676.42,355.8v.87s-.06,1.56-.06,1.56l.45.28v.26s-.46.1-.46.1l-.02.93.82.41.82.78.29.58-.24.59h-.44s.03,1.06.03,1.06l-.28.02-.21.75-.57-.16-1,.22-1.21.53-2.01.53-.48.72-.34-.24-.27-.65.56-.5.43-.52.09-.66-1.32-2.05.27-1.36-.42-1.01.84-.96.08-1.15.1-.6,2.23.28.46-.39.33-.06,1.53-.18"/><path id="47081" d="m685.62,352.18l.03,2.52-.07,2.95-1.8,1.67-1.25.8-.75.39-.89-.33-.94.16-.4-.59-.34.05-.51.44v.29s-.71.48-.71.48l-.82-.78-.82-.41.02-.93.48-.1v-.26s-.46-.28-.46-.28l.08-1.56v-.87s.11-1.58.11-1.58l.16-.22.5-.15.71-.45.4-.42.71-.02.55-.57-.11-.45,6.15.23"/><path id="47085" d="m678.5,347.73l.97,4.21.11.45-.55.57-.71.02-.4.42-.71.45-.5.15-.16.22-.13,1.58-1.53.18-.33.06-.46.39-2.23-.28.3-.45.09-.26.12-.97.02-.63-.23-.1-1.28.04-.34-.82.42-.34-.02-.94,1.22-2.12-.08-.92-.77-1.79,2.12.07.65-.35h.75l3.24.74.39.42"/><path id="47083" d="m677.63,343.4l.14.61h1.37s.03,1.99.03,1.99l-.68,1.73-.39-.42-3.24-.74h-.75l-.65.35-2.12-.07-.05-1.21-.74-1.29,1.99.34.36.02.54-.03.36-.06.4-.12.5-.25.33-.23.25-.23,2.37-.38"/><path id="47161" d="m675.23,337.35l.96-.11,1.44,6.16-2.37.38-.25.23-.33.23-.5.25-.4.12-.36.06-.54.03-.36-.02-1.99-.34-.18-.15-1.54-1.89.12-1.16.46-.86-1.12-3.3,1.07-.06,2.99.06v.71s2.89-.34,2.89-.34"/><path id="47125" d="m685.78,336.27l.31,4.32-2.76,3.36-4.19.08h-1.37s-.14-.63-.14-.63l-1.44-6.16,5.56-.58,4.02-.39"/><path id="47147" d="m692.18,335.5h3.67l-.2,1.22-.35.62-.42.89-.02.79-.49.73-.41.9-1.06.44-.48,1.03-.71.15-.95-.59-.71.2-.58-.09-.56.48-.59-.67-.58-.09-1.63-.94-.31-4.32.99-.11,5.41-.65"/><path id="47021" d="m686.09,340.59l1.63.94.58.09.59.67.56-.48.58.09.16,1.41-.86,1.41-.15,3.13-.68.68-.31,1.39-2.37.12.14-3.29-.26-.86-.37-.27.5-.77.03-.62-.06-.13-.42-.16-.95-.12-1.11.12,2.76-3.36h0Zm-.14,3.78l-.09.11.23-.1-.05-.05-.03.06-.06-.02"/><path id="47043" d="m679.15,344.03l4.19-.08,1.11-.12.95.12.42.16.06.13-.03.62-.5.77.37.27.26.86-.14,3.29-.21,2.13-6.15-.23-.97-4.21.68-1.73-.03-1.98"/><path id="47117" d="m693.96,357.26l1.76-.25.92.47-.02,4.52.06.82.18.47.9,1.51.28.03.06-.03v.72s-1.29.52-1.29.52l-1.1,1.43-1.63.08-.35-1.12-1.2-.05-.57-1.99-.68-.14.12-1.01,1.11-1.1.69-1.29.43-3.29.32-.3"/><path id="47187" d="m685.83,350.05l2.37-.12.37,1.28.24-.03,1.67-1.63,2.65.14,3.24,1.26.08,1.28.2.38.14.71.11,1.61-.8.07.03.62-.66.26.26,1.15-1.76.25-8.31-2.55-.03-2.52.21-2.13"/><path id="47055" d="m686.7,364.3l1.23-.69,1.31.22.9.43,1.15-.02.68.14.57,1.99,1.2.05.35,1.12.46,6.27-6.99.49-.23.02-.11-2.65-.56-6.16v-.59s.05-.62.05-.62"/><path id="47119" d="m685.65,354.7l8.31,2.55-.32.3-.43,3.29-.69,1.29-1.11,1.1-.12,1.01-1.15.02-.9-.43-1.31-.22-1.23.69-1.66-.11.22-.35.06-.27.06-.83-.46-.93-.51-.41-.45-.08-.28-.25-.06-.29-.02-.47.17-.98,1.8-1.67.07-2.95"/><path id="47103" d="m703.88,369.74l.31,3.13-8.67.85-.98.09-.46-6.27,1.63-.08,1.1-1.43,1.28-.52v-.72s.38-.2.38-.2l.88.23.22.87,1.54.51.44.56.2.55.44-.13.57,1.33.3,1.1.83.13Z"/><path id="47127" d="m704.33,363.06l.11,1.83-.51,2.16-.05,2.69-.83-.13-.3-1.1-.57-1.33-.44.13-.2-.54-.44-.56-1.54-.51-.22-.87.46-.27.43.04.51.66.82.11.2-.58,2.56-1.73"/><path id="47003" d="m704.04,357.99l.49,3.62-.2,1.45-2.56,1.73-.2.58-.82-.11-.51-.66-.43-.04-.46.27-.88-.23-.37.2-.06.03-.28-.03-.9-1.51-.18-.47-.06-.82.02-4.52.02-.38.27-.05,1.46-.03,1.24.74,2.07.42.48-.75.79.12,1.08.44"/><path id="47149" d="m697.97,347.69l.8.54,2.94,1.77.3.12,1.22.3,1.73-.04-.39,5.88-.66.44.13,1.29-1.08-.44-.79-.12-.48.75-2.07-.42-1.24-.74-1.46.03-.27.05-.02.38-.92-.47-.26-1.15.66-.26-.03-.62.8-.07-.11-1.61-.14-.71-.2-.38-.08-1.28,1.6-3.24"/><path id="47037" d="m690.03,341.9l.71-.2.95.59.71-.15.48-1.03.83.85.12.71,1.43.82.2.85.73.18,1.78,3.18-1.6,3.24-3.24-1.26-2.65-.14-1.67,1.63-.24.03-.37-1.28.31-1.39.68-.68.15-3.13.86-1.41-.16-1.41"/><path id="47165" d="m698.59,334.83l3.79-.14-.04,2.58.29.3-.33.67.09.85-.6.08.2,1.79-.35.61-.23.84-.83.03v-.77s-.34-.2-.34-.2l-.3.59-.07.69-.47-.1-.38-.65-1.36,1.06-.15.44-.38-.77-.34.13.13.71-.73.93-.73-.18-.2-.85-1.43-.82-.12-.71-.83-.85,1.06-.44.41-.9.49-.73.02-.79.42-.89.35-.62.2-1.22,2.75-.68"/><path id="47189" d="m704.45,342.49l1.91,4.69,1.13,2.8-2.53.42-1.73.04-1.22-.3-.3-.12-2.94-1.77-.8-.54-1.78-3.18.73-.93-.13-.71.34-.13.38.77.15-.44,1.36-1.06.38.65.47.1.07-.69.3-.59.35.2v.77s.82-.03.82-.03l.23-.84.35.11.06.74.44.09.1-.95.52-.08.43.49.26-.16.64.66"/><path id="47015" d="m707.49,349.97l2.49,1.93.19.61-1.39,2.09v2.25s-1.15.27-1.15.27l-1.04-.1-2.02-.74.39-5.88,2.53-.42"/><path id="47031" d="m708.77,356.84l.98,1.75,1.35,1.17-.06.04-.04.12.06,1.71.22,1.15.3.27-.13.74-.35,1.24-.11.21-2.41-1.02-2.28-.21-1.69.59-.18.19v.1s-.12-1.83-.12-1.83l.2-1.45-.49-3.62-.13-1.29.66-.44,2.02.74,1.04.1,1.14-.27"/><path id="47051" d="m704.44,364.89v-.1s.19-.19.19-.19l1.69-.59,2.28.21,2.41,1.02.92,1.42.75,5.39-8.33.81h-.14l-.31-3.13.05-2.69.51-2.16"/><path id="47115" d="m711.92,366.67l.84-.61.81.46.86.05.78-.66-.42-1.09,2.72-.99.22.32,1.59.64.48.12.76.76.28.4.28,1.16.02.19-.15.83.77.43-.42,1.04-.46.04-.07.57-.82,1.02-2.47.26-4.83.43-.75-5.39"/><path id="47153" d="m719.36,357.84l-.07.87.45.19.07.38,3.76,3.06-2.45,5.09-.02-.19-.28-1.16-.28-.4-.76-.76-.48-.12-1.59-.64-.22-.32.18-.61.75-.52.18-.99-.43-.04-.03-.31-.63-.24-.03-1.26-1.42-.81.91-.13,2.38-1.07"/><path id="47061" d="m716.07,359.04l1.42.81.03,1.26.63.24.03.31.43.04-.18.99-.75.52-.18.61-2.72.99.42,1.09-.78.66-.86-.05-.81-.46-.84.61-.92-1.42.11-.21.35-1.24.13-.74-.3-.27-.22-1.15-.06-1.71.04-.12.06-.04.83.12h.29l1.15-.38.93-.2,1.77-.27"/><path id="47175" d="m721.62,352.34l-.04.12.4.44v.03l-.13.99-2.49,3.92-2.38,1.07-1.13-2.84-.37-3.1,1.45-.28,1.09-.63,1.91.45,1.34-.65.36.48"/><path id="47177" d="m714.32,352.4l1.17.57.37,3.1,1.13,2.84-.91.13-1.77.27-.93.2-1.15.38h-.29l-.83-.12-1.35-1.17-.98-1.75v-2.25s1.4-2.09,1.4-2.09l1.7-.56,2.45.45"/><path id="47185" d="m721.24,348.04l.65,1.4.47.38-.19,1.89-.54.63-.36-.48-1.34.65-1.91-.45-1.09.63-1.45.28-1.17-.57.26-.66-.49-2.46.32-.9-.25-.38v-.14s.09-.17.09-.17l.33-.34.98-.87.26-.13.68-.17,2.56.4.91.34.28.22.09.69.89.21"/><path id="47041" d="m710.88,345.63l.82.59-.05.48.42.35.48-.45.91.34.14.68.56.38.25.38-.32.9.49,2.46-.26.66-2.45-.45-1.7.56-.19-.61-2.49-1.93-1.13-2.8,4.52-1.54"/><path id="47141" d="m711.12,343.13l2.68.19,1.16-.35.57-.27.12-.17.53-.91v-.53l.7-.05.85,1.42,1.85.29v.42s2.31.77,2.31.77h1.57l.37.1-.86,1.01-1.53.03-.18.14v2.84s-.9-.21-.9-.21l-.09-.69-.28-.22-.91-.34-2.56-.4-.68.17-.26.13-.98.87-.33.34-.08.17v.14s-.56-.38-.56-.38l-.14-.68-.91-.34-.48.45-.42-.35.05-.48-.82-.59.24-2.5"/><path id="47169" d="m707.21,339.18l-.05.69-1.31.53-.8,1.14-.6.95-.64-.66-.26.16-.43-.49-.52.08-.1.95-.44-.09-.06-.74-.35-.11.35-.61-.2-1.79.6-.08-.09-.85.91.08.37.83.4.13,3.21-.09"/><path id="47111" d="m706.57,334.52l3.44-.21-.16,2.87-.04,2.04-2.6-.03-3.21.09-.4-.13-.37-.83-.91-.08.33-.67-.29-.3.04-2.58,4.19-.18"/><path id="47159" d="m707.21,339.18l2.6.03.25,3.24,1.05.68-.24,2.5-4.52,1.54-1.91-4.69.6-.95.8-1.14,1.31-.53.05-.69"/><path id="47087" d="m709.85,337.18l.81-.51,2.36.37,1.24.3.93.68.72.72.26,2.33v.53l-.53.91-.12.17-.57.27-1.16.35-2.68-.19-1.05-.68-.25-3.24.04-2.04"/><path id="47133" d="m719.41,335.38l.88.23,1.95,1.16.28.9.22.22.24,2.36.31.82.71,1.59-.55,1.26h-1.57l-2.3-.77v-.42s-1.86-.29-1.86-.29l-.85-1.42-.7.05-.26-2.33,1.07-2.32.88.09v-.39s1.55-.76,1.55-.76"/><path id="47027" d="m719.32,333.17l.09,2.21-1.55.76v.39s-.88-.09-.88-.09l-1.07,2.32-.72-.72-.93-.68-1.24-.3-2.36-.37-.81.51.16-2.87,6.42-.62,2.54-.46.35-.06"/><path id="47137" d="m724.96,332.81l3.36-.15,1.19,1.7-.92.22-.54-.55-.42-.24-.62-.19-.79-.12-.71.03-1.13.35-.69.68.07.46-.48.22-.19.45.1,2.13-.44.08-.22-.22-.28-.9-1.95-1.16-.88-.23-.09-2.21,5.64-.35"/><path id="47007" d="m721.98,352.93l2.22-.35.87.09.88-.35.22.55,2.04-.59-1.95,3.41-1.07,1.37-.5,1.92.57.26-.3.49-.2.27-.41-.1-.78,2.4-3.76-3.06-.07-.38-.45-.19.07-.87,2.49-3.92.13-.99"/><path id="47049" d="m729.51,334.36l1.66,2.73-.67.74-1.72,2.19-1.09-.03-.1,1.27-.55.78.27,1.18h-2.22s-.58.7-.58.7l-.69.11-.37-.1.55-1.26-.71-1.59-.31-.82-.24-2.36.44-.08-.1-2.13.19-.45.48-.22-.07-.46.69-.68,1.13-.35.71-.03.79.12.62.19.42.24.54.55.92-.22"/><path id="47035" d="m723.82,344.03l.69-.11.58-.7h2.22s1.21,1.3,1.21,1.3l1.12.33,1.59,1.57.91,2.01-1.63,2.14-2.3,1.75-2.04.59-.22-.55-.88.35-.87-.09-2.22.35v-.03l-.4-.44.04-.12.54-.63.19-1.89-.47-.38-.65-1.4v-2.84s.19-.14.19-.14l1.53-.03.86-1.01"/><path id="47143" d="m731.78,352.09l.23.36.06.14-.07.9-.39.44-.15-.42-.25-.03-.17.46v1.18s.15.35.15.35l-.02.4-.52.31.43.55-.16.33-1.31-.03-.08.52.46.41-.15.42-.61.46.12.49-.32.41-.64-.04-.34-.56-.32.08.1.7-.53.7-.99-.56-.6.24-.17-.48-.59-.05.3-.49-.57-.26.5-1.92,1.07-1.37,1.95-3.41,2.3-1.75.32.38.67.28-.21.85.49.02"/><path id="47121" d="m733.99,354.35l-2.04,3.59-1.6,3.7-1.43,1.62-.48-.52-.03-.4-.21-.56-.63-.65-.24.21-.26-.08.22-.66.53-.7-.1-.7.32-.08.34.56.64.04.32-.41-.12-.49.61-.46.15-.42-.46-.41.08-.52,1.31.03.16-.33-.43-.55.52-.31.02-.4-.14-.35v-1.18s.16-.46.16-.46l.25.03.15.42.39-.44.07-.9-.06-.14-.23-.36.62.56.48.56.77-.62.34,1.74"/><path id="47065" d="m727.31,360.62l-.22.66.26.08.24-.21.63.65.21.56.03.4.48.52-.76,2.1-.11.42-.17,1.35.66,1.82.78.4-.17.88h-.06l-5.3.67-1.83.25-2.02.22.82-1.02.07-.57.46-.04.42-1.04-.77-.43.15-.83,2.45-5.09.78-2.4.41.1.2-.27.59.05.17.48.6-.24.99.56"/><path id="47011" d="m730.36,361.64l2.6,1.26-.23.49.52-.02.31.43.2,1.61-.64,1.93.23.1-.43,2.33-.64.08-3.09.36.17-.88-.78-.4-.66-1.82.17-1.35.11-.42.76-2.1,1.43-1.62"/><path id="47139" d="m737.28,362.32l3.99,1.35.07,5.08-5.57.68-2.87.35.43-2.33-.23-.1.64-1.93-.2-1.61.51-.44.88-.35,2.02-.21.33-.49"/><path id="47123" d="m742.04,354.15l.15.25,1.94,1.1.91-.17,1.94,1.04.02.02-.02.09-.32.51-.75,4.12-.43.59-.7.58-1.98.05-1.52,1.33-3.99-1.35,1.45-1.22-.17-1.57-1.9-3.33-.77-1.23-.03-.25-.08-.12.62-.8.53-.3.42-.19.56.13.18.55.54-.21.34-.5.36-.05,2.6.76.1.17h0Z"/><path id="47107" d="m734.64,354.28l1.14.33.08.12.03.25.77,1.23,1.9,3.33.17,1.57-1.45,1.22-.33.49-2.02.21-.88.35-.51.44-.31-.43-.52.02.23-.49-2.6-1.26,1.6-3.7,2.04-3.59.65-.07"/><path id="47145" d="m735.39,353.58l-.75.7-.65.07-.34-1.74-.77.62-.48-.56-.62-.56-.49-.02.21-.85-.67-.28-.32-.38,1.63-2.14,2.67-1.86,1.42-.44.61-.54,1.12-1.13,1.68,3.03.19.29-.35-.1.08.57-.4-.09h-.48s-.16,1.32-.16,1.32l-.51.23v1.19s-1.1.47-1.1.47l-1.23,1.24-.32,1h0Z"/><path id="47129" d="m735.83,342.02l-.1.66.51.21.21.46h.38s.44.17.44.17l.16.31.53.6-1.12,1.13-.61.54-1.42.44-2.67,1.86-.91-2.01-1.59-1.57-1.12-.33-1.21-1.3-.27-1.18.55-.78.1-1.27,1.09.03,1.72-2.19,1.92,2.11.86.64,1.88.7.67.73"/><path id="47151" d="m728.46,332.65l9.43-.88.41.78-.03,1.18-1.15.33-.36,1.12.25.94.6.62-.3.14.4,2.34-.8.38.02,1.04-.58,1-.52.38-.67-.73-1.88-.7-.86-.64-1.92-2.11.67-.74-1.66-2.73-1.19-1.7h.14"/><path id="47013" d="m742.88,331.2l1.99,3.7.03.24.22.35-.38.24-.32-.17-.45,2.3-.2.39-.27.32-.4-.62-.79,1.73-.4-.02-2.41.15v1.3s-1.17-.61-1.17-.61l-.43.26-.98-.11-.02-1.04.8-.38-.4-2.34.3-.14-.6-.62-.25-.94.36-1.12,1.15-.33.03-1.18-.41-.78.63-.07,4.36-.5"/><path id="47001" d="m743.5,338.57l1.39,1.78h-.05l-.32.3-1.82,2.93.58.7-1.44,1.27-.84.14-1.05,1.57-.32.21-1.68-3.03-.53-.6-.16-.31-.44-.16h-.38s-.21-.47-.21-.47l-.51-.21.1-.66.52-.38.58-1,.98.11.43-.26,1.18.61v-1.3s2.4-.15,2.4-.15l.4.02.79-1.73.4.62"/><path id="47105" d="m739.84,347.75l2.05,1.88.35,1.26-.27,1,1.09,1.21-1.02,1.05-.1-.17-2.6-.76-.36.05-.34.5-.54.21-.18-.55-.56-.13-.42.19-.53.3-.62.8-1.14-.33.75-.7.32-1,1.23-1.24,1.11-.47v-1.19s.51-.23.51-.23l.16-1.32h.48s.4.1.4.1l-.08-.57.35.1"/><path id="47009" d="m748.48,346.88l1.57,2.71.79,1.18.64.3.36,2.79-5.02,3.18-.15-.05.32-.51.02-.09-.02-.02-1.94-1.04-.91.17-1.94-1.1-.15-.25,1.02-1.05-1.09-1.21.27-1-.35-1.26.28-.91,1.98-.15.6-1.14.98.07,1.16.58h.75l.84-1.2"/><path id="47155" d="m757.32,345.52l1.57,4.01.08.44-.67.98-3.19,2.52-.23.15-2.63.27h-.43l-.36-2.79-.64-.3-.79-1.18-1.57-2.71.65-.88.68-.03,1.02-1.46-.59-1.4,1.02.36,2.1,1.16.2.47.77.24.93-.37,2.05.54"/><path id="47093" d="m748.78,340.36l1.44,1.77-.42-.11-.23.21.55.62.12.28.59,1.4-1.02,1.46-.68.03-.65.88-.84,1.2h-.75l-1.16-.58-.98-.07-.6,1.14-1.98.15-.28.91-2.05-1.88-.19-.29.32-.21,1.05-1.57.84-.14,1.44-1.27-.58-.7,1.82-2.93.32-.3h.05l.4.35,3.49-.35"/><path id="47173" d="m744.87,334.9l.51-.23,1.47-.03,1.24,1.05.04.54.55.22.21-.56.54.19-.1,3.32-.55.97-3.49.35-.4-.35-1.39-1.78.27-.32.2-.39.45-2.3.32.17.38-.24-.22-.35-.03-.24"/><path id="47025" d="m748.52,330.21l3.7-.41,1.07.73.87,1.14.6,1.65-.41.51-.89.34-.07.8-1.45.6-.43-.05-.67.03-.64.88-.77-.34-.54-.19-.21.56-.55-.22-.04-.54-1.24-1.05-1.47.03-.51.23-1.99-3.7,1.04-.1,4.61-.88"/><path id="47067" d="m763.89,328.3l-2.02,1.47-.47-.06-.45-.23-.31.28-.58.47-2.24,2.52.04.55-1.54.68-1.98-.16.41-.51-.6-1.65-.87-1.14-1.07-.73,8.86-1.12,2.8-.39"/><path id="47057" d="m754.34,333.82l1.98.16.79,2.36-.31.79-.94-.46-1.5,1.79-.76,1.03-1.64.23-1.74,2.4-1.44-1.77.55-.97.1-3.32.77.34.64-.88.67-.03.43.05,1.45-.6.07-.8.89-.34"/><path id="47063" d="m760.42,337l-1.34,1.61-.96,2.37-.8-.87-1.7-.14-1.66.07-.35-.54.76-1.03,1.5-1.79.94.46.31-.79.83.16.71-1.34,1.35,1.34.41.48"/><path id="47089" d="m758.13,340.98l-.81,4.53-2.05-.54-.93.37-.77-.24-.2-.47-2.1-1.16-1.02-.36-.12-.28-.55-.62.23-.21.42.11,1.74-2.4,1.64-.23.35.54,1.66-.07,1.7.14.8.87"/><path id="47029" d="m759.08,338.61l-.05.55.13.15.72.53,1.6.86,2.04,1.59,1.19,1.07-.71,3.62-5.11,2.54-1.57-4.01.81-4.53.96-2.37"/><path id="47171" d="m773.92,334.85l1.3.08.42.7.76,1.1-3.28,2.44-1.31,2.39-.49.12-.64.67-1.05-.66.2-1.28-.04-1.32,1.05-1.38.71-.26.43-.05.8-.51.58-.86.56-1.19"/><path id="47073" d="m767.91,327.73l.02,2.17-1.17,1.18.38.56-.33.55-1.92,1.33-.88.26-.34.18-.93.59-.41.48-.34.62-.43.49-.78.7-.2.15-.15.02-.41-.48-1.35-1.34-.71,1.34-.83-.16-.79-2.36,1.54-.68-.04-.55,2.24-2.52.58-.47.31-.28.45.23.47.06,2.02-1.47,4.02-.57"/><path id="47059" d="m766.81,332.18l1.26-.37.05.16.42,4.89.19,1.27,1.05.98.04,1.32-.35-.34-.28-.17h-.09s-.47.35-.47.35l-.32.23-1.16,1.14-1.62,1.52-.83.21-1.19-1.07-2.04-1.59-1.6-.86-.72-.53-.13-.15.05-.55,1.34-1.61.15-.02.2-.15.78-.7.43-.49.34-.62.41-.48.93-.59.34-.18.88-.26,1.92-1.33"/><path id="47179" d="m767.14,331.63l1.01-.16,2.26-.44,1.09-.35.63.13.91.66.29.08.84-.11-.26,3.41-.56,1.19-.58.86-.8.51-.43.05-.71.26-1.05,1.38-1.05-.98-.19-1.27-.42-4.89-.05-.16-1.26.37.33-.55"/><path id="47019" d="m779.54,328.05l.71.71v.07l-1.42,2.4.28.55,1.25,1.3.61.52.32-.12-2.16,4.04-2.74-.79-.76-1.1-.42-.7-1.3-.08.26-3.41.81-.73,1.22.3,1.27-1.5.5.06,1.56-1.53"/></svg>