<?xml version="1.0" encoding="UTF-8"?><svg xmlns="http://www.w3.org/2000/svg" viewBox="0 0 989.98 627.07"><path id="48037" d="m552.1,413.16l.15.39.15.33.13.17.78.5.28.18,1.03.56,1.85-.94.1-.09.28-.03,1.07-.15,1.85.37.35.14.46.38.14,6.49-.16-.36-.4-.21-1.73-.28-.47.11-.6.21-.31.55.06.48.07.21-.04.07-2.92-.04-.6-.76-1.53.12-.84.47-1.31.16-.64-.13-.16-.13-.05-.22-1.83-1.36-.1-8.64,4.97,1.43"/><path id="48387" d="m539.28,406.25l2.23,1.9,3.26,2.61,2.36.96.1,8.64-1.2-.79-6.06-.53-2.15.56-1.3-.27-.04-.06-.12-11.34.28-.03.15-.02.51-.33.11-.1.1-.23.03-.23-.03-.2v-.03l-.07-.15v-.02s0-.02,0-.02v-.07s.42-.62.42-.62h.03l.06-.03h.14l1.21.4"/><path id="48107" d="m417.6,405.85l9.92.48-.49,10.07-9.89-.5.47-10.05"/><path id="48303" d="m407.68,405.37l9.92.47-.47,10.05-9.91-.48.46-10.04"/><path id="48219" d="m397.64,404.69l10.05.68-.46,10.04-9.89-.63.3-10.09"/><path id="48079" d="m389.45,404.11l8.19.58-.3,10.09-8.81-.64.39-4.2.53-5.84"/><path id="48153" d="m419.98,394.83l8.11.44-.58,11.06-9.92-.48.63-11.12,1.76.11"/><path id="48189" d="m408.32,394.1l1.74.11,8.16.52-.63,11.12-9.92-.47.64-11.27"/><path id="48279" d="m398.43,393.44l1.69.12,8.2.54-.64,11.27-10.05-.68.8-11.25"/><path id="48017" d="m398.43,393.44l-.8,11.25-8.19-.58.88-11.01.02-.24,8.08.58"/><path id="48045" d="m420.56,384.79l7.14.38,2.73.15-.55,10.05-1.8-.09-8.11-.44.58-10.04"/><path id="48437" d="m410.69,384.17l6.92.44,2.96.18-.58,10.04-1.76-.11-8.16-.52.63-10.05"/><path id="48069" d="m407.49,383.98l3.2.18-.63,10.05-1.74-.11-8.2-.54.69-10.01,6.68.43"/><path id="48369" d="m391.12,382.84l9.69.71-.69,10.01-1.69-.12-8.08-.58.77-10.02"/><path id="48011" d="m418.32,374.56l10,.59-.62,10.02-7.14-.38-2.96-.18.71-10.05"/><path id="48381" d="m408.17,373.92l10.15.64-.71,10.05-6.92-.44-3.2-.18.68-10.06"/><path id="48117" d="m391.12,382.84l.35-4.77.4-5.29,3.81.27,3.96.2,8.53.67-.68,10.06-6.68-.43-9.69-.71"/><path id="48065" d="m418.92,364.46v-.09l9.96.53v.14s-.55,10.1-.55,10.1l-10-.59.6-10.1"/><path id="48375" d="m408.91,363.84l10.01.62-.6,10.1-10.15-.64.74-10.08"/><path id="48359" d="m408.93,363.67l-.02.17-.74,10.08-8.53-.67-3.96-.2-3.81-.27.76-10.14,16.29,1.02"/><path id="48233" d="m419.5,354.4l9.92.56-.54,9.94-9.96-.53.58-9.97"/><path id="48341" d="m409.56,353.78l9.94.61-.58,9.97v.09l-10.01-.62.02-.17.63-9.89"/><path id="48205" d="m393.39,352.66l16.17,1.12-.63,9.89-16.29-1.02.21-2.69.55-7.3"/><path id="48195" d="m429.97,344.69l-.55,10.21v.06l-9.92-.56.6-10.27,9.87.56"/><path id="48421" d="m412.62,343.65l7.48.47-.6,10.27-9.94-.61.68-10.29,2.39.15"/><path id="48111" d="m410.24,343.5l-.68,10.29-16.17-1.12.44-6.07.28-3.7.76-.45,15.37,1.07"/><path id="48229" d="m350.07,443.04l-.3,3.24-.49,6.25-1.31,15.17-.19,1.36-.19.67-.39,3.94-.77.5-.12.1-.42-1.53-1.29-.41-.88-1.29-2.14-1.71-.83.18-2.3-1.53.34-.61-3.38-2.8-.31-1.79-1.05-1.13-1.16-.65-.18-.56-.96-.39-.34-.91-1.31-1.93-.85-.61-.56-1.2-.99-.37.93-.75.04-1.53-.62-.11,1.13-11.71,20.89,2.13"/><path id="48141" d="m329.19,440.91l-1.13,11.71.62.11-.04,1.53-.93.75-.52-.32-1.15-.25-.66-.61-.42-.08-.8-.74-.26-.21v-.02s-.08-.08-.08-.08l-.02-.03-.16-.26-.52-1.63-.69-.49-.09-.74-.36-1-.46-1.53-.65-.36.12-.44-.53-.47-1.69-.14-.37-.83-1.51-1.61-.19-.25-.44-.47v-.29s-.11-.46-.11-.46l.44-.28.21-1.21-.32-.13.04-.32.33-.15h0l.8.06,4.23.45,7.33.77"/><path id="48305" d="m417.13,415.9l-.6,10-2.56-.17-7.38-.41.63-9.9,9.91.48"/><path id="48445" d="m397.33,414.78l9.89.63-.63,9.9-2.54-.14-7.41-.5.69-9.89"/><path id="48501" d="m397.33,414.78l-.69,9.89-9-.66.88-9.87,8.81.64"/><path id="48115" d="m406.59,425.32l7.38.41-.55,10.05-9.92-.57.55-10.04,2.54.14"/><path id="48165" d="m387.64,424.02l9,.66,7.41.5-.55,10.04h-.16l-16.45-1.13.75-10.05"/><path id="48317" d="m403.34,435.2h.16l9.92.57-.72,10.07-1.58-.08-8.44-.53.66-10.04"/><path id="48003" d="m386.89,434.07l16.45,1.13-.66,10.04-1.46-.1-9.93-.66-5.13-.41.74-10.01"/><path id="48329" d="m401.22,445.14l1.46.1,8.44.53-.6,10.01-9.97-.63.68-10.01"/><path id="48135" d="m401.22,445.14l-.68,10.01-.6-.03-8.75-.62-.62-.04.71-9.98,9.93.66"/><path id="48103" d="m391.19,454.49l8.75.62-.53,12.99-1.72-.14-.62-2.41-.18-.44-.06-.1-.25-.24-.95-.82-.26-.2-2.41-1.38h-.25l-2.12.33.59-8.22"/><path id="48377" d="m368.73,481.36l-.16,2.5-.56,6.93-.84,11.51-.44,5.35-3.35-1.09-3.57-2.99-.47-1.77-1.04-.88-1.77-.62-1.14-1.09-1.97-1.82-.39-2.01-2.25-4.39-.26-2.82.55-1.2-.18-3.01-.92-1.41-1.11-2.07-.56-.68-.2-2.23-.73-2.64-1.04-.67.12-.1,20.31,7.03,1.98.16"/><path id="48109" d="m351.44,443.16l15.95,1.43-3.26,20.39-16.91,8.68.39-3.94.19-.67.19-1.36,1.31-15.17.49-6.25.3-3.24,1.37.13"/><path id="48475" d="m390.57,454.46l.62.04-.59,8.22-1.4.09-.84-.84-.55-.49-.62-.37-1.23-.51-.95-.39-.2.45-.72-.02-.47-.05-1-.22-1.75-1.35-3.63-.43-.25-.26-.23-.4-.19-1.15.05-1.38.11-.79-.12-.49-.32-.52-1.54-.34,5.51.44,10.29.77"/><path id="48495" d="m386.15,444.07l5.13.41-.71,9.98-10.29-.77.64-8.01,1.14.09,1,.07,1.37.11,1.09.09.48.03.15-1.99"/><path id="48301" d="m368.25,444.67l4.98.41,7.69.6-.64,8.01-5.51-.44-.42-.92.14-.43-1.11-.97-.19-.04-.39.08-.02.05-.05.04h-.18l-.42-.1-.15-.2-.82-.87-.35-2.52-.94.18-.47-.52-1.14-2.38"/><path id="48389" d="m367.39,444.59l.86.07,1.14,2.38.47.52.94-.18.35,2.52.82.87.15.2.42.1h.18l.05-.04.02-.05.39-.08.19.04,1.11.97-.14.43.42.92,1.54.34.32.52.12.49-.11.79-.05,1.38.19,1.15.23.4.25.26,3.63.43,1.75,1.35,1,.22.47.05.72.02.2-.45.95.39-12.33,13-9.52-8.61,3.26-20.39"/><path id="48243" d="m373.64,473.59l2.67,2.53-7.58,5.23-1.98-.16-20.31-7.03.77-.5,16.91-8.68,9.52,8.61"/><path id="48043" d="m376.32,476.13l16.24,15.32,4.73,4.39-1.03.66-.88,1.48-1.7-.64-3.58,1.18-.47.28-.05.03-2.7,4.4-1.62,3.76-.77,2.54-.91,1.14-1.16.16-.72,1.52-1.48.78-.39,1.92-.85.23h-.14l-2.35-.59-1.12-1.39-.86.45-2.7-3.42-3.66-.76-.18-.19-.8-.83-.43-.91.44-5.35.84-11.51.56-6.93.16-2.5,7.58-5.23"/><path id="48443" d="m408.96,487.1l-.76,11.71-.35-.11-.15-.05-1.92-.44-1.21-.19-1.93.14-.19.1-1.31-.26-3.85-2.16-4.73-4.39.37-5.29,4.44.28.48-7.21,3.99.1.15-1.14,7.28.51.29-.03,1.09.22.79.64.13,1.45-.64.85-.37.99-.74.06-.28,1.01,1.02,1.66-1.12.68-.47.85"/><path id="48371" d="m390.61,462.71l2.12-.33h.25l2.41,1.38.26.2.95.82.25.24.06.1.18.44.62,2.41,2.68,1.21,3.87,1.2,1.26.39,1.99,1.67.79,3.44.88,2.23.1.59-7.28-.51-.15,1.14-3.99-.1-.48,7.21-4.44-.28-.37,5.29-16.24-15.32-2.67-2.53,12.33-13,1.23.51.62.37.55.49.84.84,1.4-.09"/><path id="48461" d="m399.94,455.11l.6.03,9.97.63-.81,13.13-10.29-.8.53-12.99"/><path id="48383" d="m410.52,455.78l9.91.59-.13,2.17-.04.64-.71,10.32-9.85-.59.81-13.13"/><path id="48173" d="m412.7,445.85l8.35.49-.61,10.04-9.91-.59.6-10.01,1.58.08"/><path id="48227" d="m423.33,436.38l-.73,10.05-1.56-.09-8.35-.49.72-10.07,9.91.6"/><path id="48033" d="m416.54,425.9l7.38.36-.57,10.04v.08s-9.92-.6-9.92-.6l.55-10.05,2.56.17"/><path id="48169" d="m427.02,416.4l-.52,9.85-2.59.02-7.38-.36.6-10,9.89.5"/><path id="48415" d="m426.5,426.24l7.34.53-.59,10.09-9.91-.57.57-10.04,2.59-.02"/><path id="48335" d="m423.34,436.29l9.91.57-.59,10.12-3.03-.18-7.03-.38.73-10.05v-.08"/><path id="48431" d="m421.04,446.34l1.56.09,7.03.38-.53,8.98-.68-.25-.25,3.29-7.87-.28.13-2.17.61-10.04"/><path id="48235" d="m420.27,459.18l5.41.31,5.82.39-.42,10.05-5.38-.18-6.14-.26.71-10.32"/><path id="48105" d="m397.69,467.97l1.72.14,10.29.8,9.85.59,6.14.26-.42,8.65-.5,9.59-15.82-.9.47-.85,1.12-.68-1.02-1.66.28-1.01.74-.06.37-.99.64-.85-.13-1.45-.79-.64-1.09-.22-.29.03-.1-.59-.88-2.23-.79-3.44-1.99-1.67-1.26-.39-3.87-1.21-2.68-1.21"/><path id="48465" d="m408.96,487.1l15.82.9,5.16.25-.75,15.23-.2,4.21-.22,1.72-.11.55-.8,1.89-.26.38-.08.02-.62-.11-4.71-4.22-.31-1.36-1.56-.66-.4-.66-1.27-.53.15-1.83-1.18-.38-.13-.6-1.34-.6-.85-1.62-1-.34.16-.66-1.24.19-.48-1.07-1.4,1.36-.46-.02-2.68-.3.76-11.71"/><path id="48505" d="m452.16,558.44l1.76-1.18.72,1.08,7.79.35-.33,11.01-1.31,2.74-3.36,2.02-.3-1.22-.37-1.49v-.02l-.62-2.28-.5-1.26-1.05-1.49-1.16-.67.43-.92-.88-1.13-.88-.02-.08-.91.02-.09.1-.08.36-.53.14-1.86-.26-1.69-.21-.33h-.03"/><path id="48247" d="m465.71,556.85h3.4s0,.33,0,.33l.7.03.03-.35.84.04v.34s.68,0,.68,0l-.07,1.78.61.7-.13,1.97.73.09-.03,2.01.87.05-.26,6.19-11-.36.33-11.01,3.2.14.08-1.97"/><path id="48427" d="m462.11,569.69l11,.36,2.11.06-1.66,3.54-1.95,3.76-2.22,4.5-.97.14-1.49-.66-2.03-2.04-2.36-.7-2.64-.42-1.18-.76.25-1.46-1.23-.77-.23-.52-.04-.16-.03-.12,3.36-2.02,1.31-2.74"/><path id="48489" d="m495.9,574.67l.63.02,1.28,4.31h-.35l-1.56-4.32m-13.25-.48l1.65.37,9.04.07-.25,2.1-1.19.15.67,2.03,1.47.81-.81,1.01-1.77.73-6.94-1.23.03-1.69-.96-.31-1.98-.35.18-.98.27-1.01.59-1.7"/><path id="48215" d="m475.21,570.12l6.94.2-.12,3.78.62.09-.59,1.7-.27,1.01-.18.98,1.98.35.96.31-.03,1.69-.13,6.52-.14-.03-.41-.06-1.87.02h-.63s-.08.11-.08.11l-.68.27-2.58-.5-1.52-.3-.47-.26-.3-.2-2.21-1.5-1.05-1.26-.56-.27-.05-.02-2.43-.83h-.01l2.22-4.5,1.95-3.76,1.66-3.54"/><path id="48047" d="m471.31,559.04l5.99.21,3.58.11,1.49.05-.02,1.16-.19,9.75-6.94-.2-2.11-.06.26-6.19-.87-.05.03-2.01-.73-.09.13-1.97-.61-.7"/><path id="48261" d="m494.99,559.23h.53l-.06.22-.29,1.32-.17,1.12-.14,1.36-.06,1.21v1.26l.13,1.9.1.78.02.08.25,1.45.36,1.64.63,2.31.06.18.19.63-.63-.02-1.36-5.03v-2.85l.02-2.42v-.96s.04-1.42.04-1.42l.09-1.09.1-.55.21-1.11m-12.65,1.34l.57-.21.14-.54,1.74.02,1.26-.62,1.27-.18.6.38,1.62-.29-.05.18v.4s.09.14.09.14l.13.1,1.77.34.47-.04.22-.09.14-.1.06-.1.31-.14.71-.26.55-.02.03.14-.49,3.21-1.48.28.6,2.35-1.9.02.48,2.49-.12,1.96,1.72,1.03.51,2.86.06.74-9.04-.07-1.65-.37-.62-.09.12-3.78.19-9.75"/><path id="48273" d="m494.99,559.23l2.67-6.89.53.13-2.67,6.76h-.53m-11.55-8.37l1.3.2.77,1.6h.18l10.38.12-1.04,3.62-.62,1.49-.06.13-.17.19-.14.09-1.83.94-2.66-.13-1.62.29-.6-.38-1.27.18-1.26.62-1.74-.02-.14.54-.57.21.02-1.16-1.49-.05.15-8.54,2.41.05"/><path id="48249" d="m477.66,541.1l7.18.18,1.83.29-.12,1.14-2.83,2.47-.03,2.47-.24,3.22-2.41-.05-.15,8.54-3.58-.11.36-18.14"/><path id="48355" d="m501.87,546.57l-3.68,5.91-.53-.13,4.11-6.07.11.29m-18.43,4.3l.24-3.22.03-2.47,2.83-2.47-.22.54.21.84,2.3.38.4,1.03.53.25,1.05.23,1.46.12.18-.6,3.29-.07,1.41.07-.37.07-1.34.61-.39.28-.27.54-.04.71.14.37.35.58.44.38.62.3,1.02.79-.64,1.46-.6,1.21-10.38-.12h-.18l-.77-1.6-1.3-.2"/><path id="48409" d="m486.23,538.57l5.14,1.07.49-.7,1.79.04,1.05,1.02,1.96-.23.88,1.29,2.52,3.99-1.41,1.17-1.5-.73-1.41-.07-3.29.07-.18.6-1.46-.12-1.05-.23-.53-.25-.4-1.03-2.3-.38-.21-.84.22-.54.12-1.14-1.83-.29-.16-1.42,1.54-1.29"/><path id="48057" d="m506.34,540.33l.27-1.05,4.59-3.14.24-.11,1.06-.46,1.58-.33.24.42-1.94.95-.28.13-.02.02-1.48.91-1.49,1.08-1.3,1.02-1.88,1.63-.04.04-.05.05.5-1.16m5.18-13.72l5.18.9v.77s-1.25.59-1.25.59l-1.99.81-1.62-1.48-.19-.53-.14-1.05m-6.34,4.68l-.3-.58-.49-1.25,1.57-1.09,3.05-1.04,1.08-.6-.3.27,1.07,2.54.06.06.89.17.56.39,2.36,2.12.18.18.17.23-.03.15-3.83,1.92-.18.07-1.48.42-.52-.17-.14-.14-1.3-1.4-2.44-2.26"/><path id="48391" d="m499.72,530.17l5.46,1.12,2.44,2.26-.45,2.07-6.77.99.03.47.46.61.78.47.44.06h.42s-.13.36-.13.36l-2.58,1.95-1.82.88h-.06l-.4-.32-.88-1.29-1.96.23-1.05-1.02-1.79-.04,3.45-5.06,4.41-3.71"/><path id="48025" d="m487.24,527.35l1.61,2.92,2.87.69.03,1.08,3.56,1.84-3.45,5.06-.49.7-5.14-1.07.19-.15-5.48-11.07,1.72-.59,1.84-.64.26.16.16.28.71.4.64.26.96.13"/><path id="48297" d="m480.83,524.5l1.83,2.26-1.72.59,5.48,11.07-.19.15-1.54,1.29.16,1.42-7.18-.18-2.02-.05.3-12.68,4.89-3.87"/><path id="48311" d="m466.52,527.54l9.44.13-.32,13.39-9.56-.25.44-13.27"/><path id="48131" d="m466.08,540.81l9.56.25,2.02.05-.36,18.14-5.99-.21.07-1.78h-.68s0-.35,0-.35l-.84-.04-.03.35-.7-.03v-.32s-3.4-.01-3.4-.01l.37-16.05"/><path id="48479" d="m437.56,536.56l1.95.06,14.65.43-.04,3.98,11.96-.22-.37,16.05-.08,1.97-3.2-.14-7.79-.34-.72-1.08-1.76,1.18-.35-.03-.44-.28h-.04s-.14-.43-.14-.43l-.09-.1-.03-.04-.02-.02-.02-.09.09-.13.02-1.02.32-.76.12-.44.22-1.72-.6-.37-.13-1.67-.43-.75-.27-.2-.91-.66-.47-.08-.86-.02-1.44-.91-1.55-2.15-.53-.07-.63-.75-.36-1.02.14-1.03-.66-.69v-1.12s-1.22-.54-1.22-.54l-.33-1.53-.05-.13-1.42-1.83-.1-.08-2.42-1.24"/><path id="48283" d="m466.53,527.33v.21s-.45,13.27-.45,13.27l-11.96.22.04-3.98.32-9.97,12.05.24"/><path id="48127" d="m439.94,526.34l14.27.74h.27l-.32,9.97-14.65-.43.43-10.29"/><path id="48323" d="m440.43,516.33l-.49,10.01-.43,10.29-1.95-.06-.07-.08-.87-.96-.64-.83.1-1.37-.99-1.44.52-2.27-1.34-1.03.12-1.04-.76-.44-.12-.72-1.02-.97-.1-1.43-.64-1.89-.98-1.7-.93-1.27-.6-3.27,11.22.48"/><path id="48271" d="m429.19,503.47l11.76.56-.51,12.29-11.22-.48-2.32-3.72.62.11.08-.02.26-.38.8-1.89.11-.55.22-1.72.2-4.21"/><path id="48137" d="m441.53,488.73l7.19.3-.27,4.96-1.75-.06-2.42-.29-1.19,4.36-.22,3.32.03,2.8-1.96-.08-11.76-.56.75-15.23,11.59.49"/><path id="48385" d="m448.45,493.99l1.35.05-.14,3.01.4.81,1.33.08-.25,6.42-8.23-.24-.03-2.8.22-3.32,1.19-4.36,2.42.29,1.75.06"/><path id="48463" d="m440.95,504.04l1.96.08,8.23.24,3.82.14-.48,12.28-14.05-.44.51-12.29"/><path id="48507" d="m454.48,516.77l-.27,10.31-14.27-.74.49-10.01,14.05.44"/><path id="48163" d="m466.75,517.19l-.22,10.14-12.05-.24h-.27l.27-10.31,12.27.42"/><path id="48175" d="m496.88,523.02h1.49l.59.27.29.59.39,1,.09,5.29-4.41,3.71-3.56-1.84-.03-1.08-2.87-.69-1.61-2.92,4.19-3.25,3.21-2.51h.13l.53.2.89.5.27.24.41.49"/><path id="48469" d="m503.59,517.62l.75.94,2,.88.14.1,1.45,2.86,2.3,4.27-.12.06-1.08.6-3.05,1.04-1.57,1.09.49,1.25.3.58-5.46-1.12-.09-5.29-.39-1-.29-.59-.59-.27h-1.49l6.71-5.41"/><path id="48123" d="m498.36,511.12l5.22,6.49-6.71,5.41-.41-.49-.27-.24-.89-.5-.53-.2h-.13l-3.21,2.51-3.57-4.5,2.9-2.3,7.6-6.19"/><path id="48255" d="m488.49,514.7l2.27,2.61-2.9,2.3,3.57,4.5-4.19,3.25-.96-.13-.64-.26-.71-.4-.16-.28-.26-.16-1.84.64-1.83-2.26-1.82-2.22,9.48-7.58"/><path id="48493" d="m486.3,511.1l-.48.6,2.66,3-9.48,7.58-4.24-5.42,5.69-7.38.12,1.18.07.29.17.31.58-.32,4.9.17"/><path id="48013" d="m466.86,513.52l7.91,3.33,4.24,5.42,1.82,2.22-4.89,3.87.02-.71-9.44-.13v-.21s.23-10.14.23-10.14l.11-3.66"/><path id="48325" d="m467.12,503.44l-.26,10.08-.11,3.66-12.27-.42.48-12.28,8.56.38.14.21.02.11-.06.25-.17.26v.46s.13.27.13.27l.08.07h.07s.9-.2.9-.2l2.5-2.87"/><path id="48019" d="m451.39,497.94l6.16.29,2.31.3,1.05.55,4.05,2.22,2.72,1.49-.57.66-2.5,2.87-.9.21h-.07s-.08-.08-.08-.08l-.12-.27v-.46s.17-.26.17-.26l.06-.25-.02-.11-.14-.21-8.56-.38-3.82-.14.25-6.42"/><path id="48265" d="m457.69,489.45l-.1,3.49,7.58.16-.2,8.18-4.05-2.22-1.05-.55-2.31-.3-6.16-.29-1.33-.08-.4-.81.14-3.01-1.35-.05.27-4.96,8.97.42"/><path id="48171" d="m457.82,484.56l6.73.26,7.38.19-.15,8.29-6.61-.17-7.58-.16.23-8.39"/><path id="48031" d="m476.71,485.44l4.41,1.48-.98,1.58-2.64,7.25-2.38,2.24-3.34-4.71.15-8.29,3.83.08.95.37"/><path id="48259" d="m465.17,493.11l6.61.17,3.34,4.71-4.75,4.29-2.67.5-2.72-1.49.2-8.18"/><path id="48029" d="m470.37,502.28l1.82-.22h.16l2.55.33,1.23.99.85,2.53.2.64.57.44.97.31,1.9,1.28.03.68-.2.22-5.69,7.38-7.91-3.33.26-10.08.57-.66,2.67-.5"/><path id="48187" d="m485.83,500.06l2.11,2.84,2.64,2.02-4.28,6.19-4.9-.17-.58.32-.17-.31-.07-.29-.12-1.18.2-.22-.03-.68-1.9-1.28-.97-.31-.57-.44-.2-.64,6.31-3.48,2.53-2.38"/><path id="48091" d="m477.49,495.75l5.22,4.47.58,2.22-6.31,3.48-.85-2.53-1.23-.99-2.55-.33h-.16l-1.82.22,4.75-4.29,2.38-2.24"/><path id="48209" d="m480.14,488.5l9.05,7.8-1.1.99-2.62,2.16-.13.61.19.03.3-.04-2.53,2.38-.58-2.22-5.22-4.47,2.64-7.25"/><path id="48055" d="m489.19,496.3l1.2-1.01,6.58,6.6-5.34,3.39-1.04-.36-2.64-2.02-2.11-2.84-.3.04-.19-.03.13-.61,2.62-2.16,1.1-.99"/><path id="48177" d="m496.92,501.93l3.97,3.14-.53.5-1.23,1.07.02,1.68-.8,2.8-7.6,6.19-2.27-2.61-2.66-3,.48-.6,4.28-6.19,1.04.36,5.3-3.35"/><path id="48285" d="m500.37,505.57l5.38-.05.17.05.37.23,1.08,1.01,4.62,5.57-1.98,1.63-5.68,4.55-5.98-7.43.8-2.8-.02-1.68,1.23-1.07"/><path id="48239" d="m510.02,514.01l.36.37,6.64,6.55-.31,6.58-5.18-.9-1.3.06-2.3-4.27-1.45-2.86-.14-.1-2-.88,5.68-4.55"/><path id="48321" d="m517.02,520.92l6.94-4.19,1.83-1.9.47.45.12.12-.02,2.77,1.51.81.02,1.73,2.06.67.46,1.15,1.58,1.43,1.22.11-.39.26-.85.54-.38.22-4.56,2.65-1.45.73-2.36,1.03-1.57.72-2.89,1.48-1.02.68-.07.05-1.37.96-.6.45-.17.27-.05-.17.12-.2,3.27-2.46.5-4.22-.1-.1-.14-.05-.41.06-.92.22-.4.13-.33.26-.39.68v-.77s.31-6.58.31-6.58"/><path id="48481" d="m521.48,506.31l1.63,3.95,1.15,2.14,1.44,1.6.63.08-.53.75-1.83,1.9-6.94,4.19-6.64-6.55.72-.41,5.16-3.24.33-.96.96-1.95,2.19-2.25,1.74.74"/><path id="48089" d="m511.89,498.02l.68,1.24.82.74.2.18,1.26.88.2.1.35.07,1.34.02.58,1.87.84,1.64,1.08.25.5.54-2.19,2.25-.96,1.95-.33.96-5.16,3.24-.72.41-.36-.37,1.98-1.63-4.62-5.57-1.08-1.01-.37-.23-.17-.05,6.14-7.5"/><path id="48021" d="m496.79,487.74l2.65,1.53,2.32,1.83,1.09,4.79-5.89,6-6.58-6.6.88-.8,2.33-2.37,2.51-4.78.69.4"/><path id="48149" d="m507.46,493.42l.52.45.66-.14.67-.24.3-.15.76.51.29.84.18.9.04.51,1.02,1.92-6.14,7.5-5.38.05.53-.5-3.97-3.14.04-.04,5.89-6,4.6-2.47"/><path id="48287" d="m500.36,486.53l3.82-2.25,2.29,2.91,1.82,2.1,2.25,1.03-3.08,3.1-4.6,2.47-1.09-4.79-2.32-1.83-2.65-1.53,3.57-1.2"/><path id="48015" d="m510.87,496.11l.71-.46,5.84-.7.36.07.92.4.98.35.47.03.21-.25,1.41,1.29-.63,4.43,1.41.73.05,1.4-.16,2.83-.97.06-1.74-.74-.5-.54-1.08-.25-.84-1.64-.58-1.87-1.34-.02-.35-.07-.2-.1-1.26-.88-.2-.18-.82-.74-.68-1.24-1.02-1.92"/><path id="48477" d="m517.32,488.44l.22.29.22.16.14.05,1.08-.37.34-.41.14-.1.27.03.55.58-.09.91,1.26.61-.05,1.81-1.39.34v1.3s-.55.9-.55.9l.91,1.01-.21.25-.47-.03-.98-.35-.92-.4-.36-.07-5.84.7-.71.46-.04-.51-.18-.9-.29-.84-.76-.51-.3.15-.67.24-.66.14-.52-.45,3.08-3.1,2.93-.72.58-.16,3-1.09.18.03.09.07"/><path id="48473" d="m521.4,492l5.74-.47.03,3.57-1.07-.26-1.08-.6-.4-.38-.59-.43.27.89,2.42,7.72-4.13,1.39-.05-1.4-1.41-.73.63-4.43-1.41-1.29-.91-1.01.56-.9v-1.3s1.38-.34,1.38-.34"/><path id="48157" d="m522.61,503.41l4.13-1.39,8.06,4.74-.75,3.24-1.61.07-.03,1.08-.3.8-.65.65-.68.35-.03.69-1.73-.71-.77-.28-.49.64-.42-.26-1,1.04-.63-.08-1.44-1.6-1.15-2.14-1.63-3.95.97-.06.16-2.83"/><path id="48039" d="m534.79,506.77l1.74-.43,1.55.19.13.77h.75s-.31,2.07-.31,2.07l2.31,3.86,1.3,2.2-1.45,2.62.22.17-.12.25-5.05,4.41-2.63,1.2-1.22-.11-1.58-1.43-.46-1.15-2.06-.67-.02-1.73-1.51-.81.02-2.77-.12-.12-.47-.45.53-.75,1-1.04.42.26.49-.64.77.28,1.73.71.03-.69.68-.35.65-.65.3-.8.03-1.08,1.61-.07.75-3.24"/><path id="48167" d="m555.9,507.09l-.6.27-1.78.82-.14.06-.09.05-1.61.75-.25.12-.72.39-.13.08-.41.26-.24.14-.07.05-.23.18-.17.12-.08.1-.06.05-.14.15-.05.07-.17.27-.08.12-.1.23-.04.09-.61.17-.35.02-.07-.06-.02-.27.32-.41,1.69-1.81.17-.13,1.53-.73,1.03-.36.26-.03.19-.08-.1-.25v-.33l3.11-.11m-12.97.19l.92,1.04,3.3,3.53,1.6.47-1.09.96-.34.27-1.91,1.31-2.4,1.65-.14.1-.26.2-.72.55-.13.1-.07.06-.29.27-.22.2-.17.23-.22-.17,1.45-2.62-1.3-2.2-2.31-3.86.31-2.07.96.96,2-1.03,1.01.05"/><path id="48339" d="m526.62,482.69l4.59,2.78h3.42l1.33.09.73,1.28.96,1.08,1.19.36.96.91,1.41,4.07-2,1.9-1.3,1.23-.59.07-.35-.08-.21-.46-.58-.54-1.45-.78-2.51-1.33-.94.82-1.41.67-1.32.27-.43.04-.96.05-.03-3.57-.53-8.84"/><path id="48201" d="m527.18,495.1l.96-.05.43-.04,1.32-.27,1.41-.67.94-.82,2.51,1.33,1.45.78.58.54.21.46.35.08.59-.07,1.3-1.23,2-1.9,2.39,6.47,1.58,1.72-.56,3.06-1.7,2.78-1.01-.05-2,1.03-.96-.96h-.75s-.13-.77-.13-.77l-1.55-.19-1.74.43-8.06-4.74-2.42-7.72-.27-.89.59.43.4.38,1.08.6,1.07.26"/><path id="48071" d="m554.35,499.45h1.69s.22,7.18.22,7.18l-.02.3-.33.15-3.11.11-4.19-.67.51-.95.29-1.59v-.21s-.06-.45-.06-.45l-.59-1.17-.22-.24-.11-.04-1.02.47-.47.25-2.3,1.89.56-3.06-1.58-1.72,10.73-.27"/><path id="48199" d="m552.06,484.85l9.39-.14-.5,1.22-.17.53-.22.89.06.32.36.82.06.02.2.21-.36,2.24-.21.29.07,1.86-.13-.13-1.47-.49-.28.04-1.3.42-.05.06-.02.26.05.36-.06.14-.27.38-.14.08-2.01.43-.31-.06-.55-.29-3.01.07-2.83-8.64,3.88-.09-.18-.81"/><path id="48291" d="m546.05,485.7l2.31.05,2.83,8.64,3.01-.06.14,5.13-10.73.27-2.39-6.47-1.41-4.07,6.24-3.47"/><path id="48245" d="m554.21,494.33l.55.29.31.06,2.01-.43.14-.08.27-.38.06-.14-.05-.36.02-.26.05-.06,1.3-.42.28-.04,1.47.49.13.13.05.28.42,1.45.06.06,2.77,1.8,1.66.43.26.11.31.47.07.19.04.23-.03.52-.11.97-1.77,1.43.74,1.77,1.32.95-1.86.3h-1.41l-1.1.26-1.51.6-4.4,2.02.02-.3-.22-7.17h-1.69s-.14-5.14-.14-5.14"/><path id="48361" d="m568.64,491.02v4.44s-2.31,3.19-2.31,3.19l.03-.52-.04-.23-.07-.19-.31-.47-.26-.11-1.66-.43-2.77-1.8-.06-.06-.42-1.45-.05-.28-.07-1.86,4.29-.11,3.68-.13"/><path id="48453" d="m481.12,486.92l1.6-4.52,1.84-.06.78.55.94,1.36.35,1.69.73.62.63.21.46-.02,1.34-.47,1.85-.89h.4l1.26.4,2.8,1.55-2.51,4.78-2.33,2.37-.88.8-1.2,1.01-9.05-7.8.98-1.58"/><path id="48263" d="m436.97,416.88l-.51,10.03-2.63-.14-7.34-.53.52-9.85,9.95.48"/><path id="48267" d="m454.43,479.59l-.19,4.85,3.58.12-.14,4.89-8.97-.42-7.19-.3.43-9.64,12.48.49"/><path id="48435" d="m441.95,479.1l-.43,9.64-11.59-.49-5.16-.25.5-9.59,16.67.7"/><path id="48413" d="m431.07,469.93l11.27.49-.39,8.68-16.67-.7.42-8.65,5.38.18"/><path id="48327" d="m442.35,470.42l10.06.42-.11,3.35,2.31.1-.18,5.29-12.48-.49.39-8.68"/><path id="48319" d="m454.61,474.3l7.73.26-.02.47,2.51.06-.29,9.71-6.73-.26-3.58-.12.19-4.85.18-5.29"/><path id="48299" d="m464.84,475.1l10.22.29,1.31,2.06-1.15.86-.15,2.29.53,2.39.85.46.25,1.99-.95-.37-3.83-.08-7.38-.19.29-9.71"/><path id="48053" d="m485.64,473.02l1.58,2.99-2.68,2.64-1.82,3.76-1.6,4.52-4.41-1.48-.25-1.99-.85-.46-.53-2.39.15-2.29,1.15-.86-1.31-2.06.18-2.48,10.4.11"/><path id="48491" d="m487.22,476.01l3.41.76.59.14,6.06,2.8.75.33,2.34,6.5-3.57,1.2-.69-.4-2.8-1.55-1.26-.4h-.4l-1.85.89-1.34.47-.46.02-.63-.21-.73-.62-.35-1.69-.94-1.36-.78-.55-1.84.06,1.82-3.76,2.68-2.64"/><path id="48051" d="m510.99,480.35l1.06.81-.11.15-.56,1.06v.06l1.83.44,1.69.79,2.13,3.04.3,1.74-.09-.07-.18-.03-3,1.09-.58.16-2.93.72-2.25-1.03-1.82-2.1-2.29-2.91,6.81-3.93"/><path id="48407" d="m536.52,477.38l.33-.89,1.45-.15v1.09s.74.74.74.74l1.43.94.44,2.39,1.48.14.39,1.28-.43.58,1.59.16,2.39.8-.44.92.16.33-6.24,3.47-.96-.91-1.19-.36-.96-1.08-.73-1.28.56-8.17"/><path id="48471" d="m534.39,472.83l.85,4.44,1.29.1-.56,8.17-1.33-.09h-3.42l-4.59-2.78-.65-5.37,4.83-1.54,3.59-2.95"/><path id="48185" d="m519.94,478.26l6.03-.94.65,5.37.53,8.84-5.74.47.05-1.81-1.26-.61,1.39-2.07-.71-.49-.15-.26-.22-.42-.92-3.1.17-2.38.19-2.61"/><path id="48041" d="m519.94,478.26l-.19,2.61-.17,2.38.92,3.1.22.42.15.26.71.49-1.39,2.07.09-.91-.55-.58-.27-.03-.14.1-.34.41-1.08.37-.14-.05-.22-.16-.22-.29-.3-1.74-2.13-3.04-1.69-.79-1.83-.44v-.06l.56-1.06.11-.15,2.19-1.11.54-.94.39-.91.44-.84.53-.83.25-.32.32-.28.59-.4.8-.53.42-.2,1.42,3.46"/><path id="48313" d="m518.52,474.8l1.37-.47,1.78-1.18,2.07-1.06,4.16-.06,2.45.33-.55,1.55.28.94.72.94-4.83,1.54-6.03.94-1.42-3.46"/><path id="48289" d="m528.35,462.59l.2.34.36.81.88,2.51-.44,1.12-.08-.02-.17.1-.44.5-.99,3.12.02.3.2.66-4.16.06-2.07,1.06-1.78,1.18-1.37.47-1.51-8.83,1.62-1.29,8.79-4.71.12.33.27-.1-.04-.68.33-.17.48.95-.15,1.04-.75.66.68.6"/><path id="48395" d="m511.54,469.08l5.46-3.11,1.51,8.83-.42.2-.8.53-.59.4-.32.28-.25.32-.53.83-.44.84-.39.91-.54.94-2.19,1.11-1.06-.81-.95-2.39-1.7-2.17-1.15-3.36-.23-.75,4.58-2.61"/><path id="48331" d="m506.96,471.69l.23.75,1.15,3.36,1.7,2.17.95,2.39-6.81,3.93-3.82,2.25-2.34-6.5-.75-.33,1.16-3.14,3.75-2.17,4.77-2.71"/><path id="48027" d="m495.44,466.63l1.35,1.81,1.39-.85,4.01,6.8-3.75,2.17-1.16,3.14-6.06-2.8-.59-.14-3.41-.76-1.58-2.99.11-.79,9.69-5.6"/><path id="48099" d="m491.88,460.41l3.55,6.22-9.69,5.6-5.16-9.19,8.18-4.64,1.44-.76,1.68,2.77"/><path id="48281" d="m478.78,464.09l1.81-1.05,5.16,9.19-.11.79-10.4-.11-2.29-4.68,5.82-4.13"/><path id="48333" d="m475.16,457.84l3.62,6.25-5.82,4.13-.05-.27-.75-1.63-2.58-2.26-.9-.33-3.53-.5-.51-.67.07-.41,1.01-.64,3.21-2.15.44-1.76,1.79-.24,3.46-.42.52.9"/><path id="48411" d="m464.72,462.14l-.07.41.51.67,3.53.5.9.33,2.58,2.26.75,1.63.05.27,2.29,4.68-.18,2.48-10.22-.29-2.51-.06.02-.47.42-11.96.98-.8.98.33"/><path id="48307" d="m460.57,462.39l2.19.22-.42,11.96-7.73-.26-2.31-.1.11-3.35.38-9.3,1.27.25.89.74.89-.47,2.29.94,1.49-.84.96.23"/><path id="48095" d="m450.52,459.5l2.27,2.04-.38,9.3-10.06-.42.57-11.31,7.6.39"/><path id="48451" d="m429.1,455.79l11.49.62-.16,2.57,2.48.14-.57,11.31-11.27-.49.42-10.05-5.82-.39-5.41-.31.04-.64,7.87.28.25-3.29.68.25"/><path id="48081" d="m429.63,446.8l3.03.18,8.35.46-.42,8.96-11.49-.62.53-8.98"/><path id="48399" d="m442.63,447.51l8.49.37-.6,11.62-7.6-.39-2.48-.14.16-2.57.42-8.96,1.62.07"/><path id="48083" d="m452.73,447.96l8.45.35-.61,14.08-.96-.23-1.49.84-2.29-.94-.89.47-.89-.74-1.27-.25-2.27-2.04.6-11.62,1.61.08"/><path id="48049" d="m462.68,448.35l3.77.15,4.72,8.84-1.79.24-.44,1.76-3.21,2.15-1.01.64-.98-.33-.98.8-2.19-.22.61-14.08,1.5.05"/><path id="48093" d="m473.81,444.49l4.16,7.49,1.5-.86.8,1.46.97,1.77-6.08,3.49-.52-.9-3.46.42-4.72-8.84,7.36-4.02"/><path id="48193" d="m480.27,452.58l4-2.23,4.49,8.05-8.18,4.64-1.81,1.05-3.62-6.25,6.08-3.49-.97-1.77"/><path id="48035" d="m491.93,446.22l2.68.74-.22,1.42-.14,1.2.11.97,1.44-.33.36.75.62.3-1.08,1.15,1.1,1.37,1.78.69-1.13,1.65.23.36.65.4-6.45,3.54-1.68-2.77-1.44.76-4.49-8.05,2.76-1.54,4.9-2.59"/><path id="48145" d="m507.59,462.11l3.95,6.97-4.58,2.61-4.77,2.71-4.01-6.8,9.41-5.48"/><path id="48309" d="m505.06,457.8l2.52,4.32-9.41,5.48-1.39.85-1.35-1.81-3.55-6.22,6.45-3.54,4.72-2.65,2.01,3.58"/><path id="48217" d="m494.62,446.96l7.58-2.02,2.71,4.96.94-.51,3.39,6-4.18,2.4-2.01-3.58-4.72,2.65-.65-.4-.23-.36,1.13-1.65-1.78-.69-1.1-1.37,1.08-1.15-.62-.3-.36-.75-1.44.33-.11-.97.14-1.2.22-1.42"/><path id="48293" d="m509.24,455.39l4.33.46,5.05,8.83-1.62,1.29-5.46,3.11-3.95-6.97-2.52-4.32,4.18-2.4"/><path id="48161" d="m522.23,451.04l-.17,1.08,1.73,3.21,1.25,1.26.66.24,1.56,1.84.17,1.31-8.79,4.71-5.05-8.83,8.62-4.96.04.15"/><path id="48349" d="m505.85,449.39l9.98-5.8,1.83.84,1.06.97.69.83,1.65,1.99.9,1.34.24,1.33-8.62,4.96-4.33-.46-3.39-6"/><path id="48425" d="m485.54,445.42l3.23-1.89,3.2.04-.04,2.65-4.9,2.59-1.49-3.4"/><path id="48139" d="m502.27,438.39l.94.03,9.82.16,1.49,4.3,1.32.7-9.98,5.8-.94.51-2.71-4.96.06-6.55"/><path id="48251" d="m492.03,438.11l1.28.03,8.95.26-.06,6.55-7.58,2.02-2.68-.74.04-2.65.06-5.46"/><path id="48221" d="m483.35,437.86l8.68.25-.06,5.46-3.2-.04-3.23,1.89-2.24-6.46.06-1.1"/><path id="48143" d="m483.3,438.96l2.24,6.46,1.49,3.4-2.76,1.54-4,2.23-.8-1.46-1.5.86-4.16-7.49,1.46-.74.16-5.03,7.86.23"/><path id="48133" d="m463.45,438.33l10.04.3,1.95.1-.16,5.03-1.46.74-7.36,4.02-3.77-.15.41-10.03h.35"/><path id="48059" d="m453.48,437.99l9.61.34-.41,10.03-1.5-.05-8.45-.35.42-9.99.34.02"/><path id="48441" d="m453.15,437.97l-.42,9.99-1.61-.08-8.49-.37.55-10.13,9.97.59"/><path id="48353" d="m443.17,437.38l-.55,10.13-1.62-.07-8.35-.46.59-10.12,9.92.51"/><path id="48151" d="m436.46,426.91l7.19.4-.48,10.07-9.92-.51.59-10.09,2.63.14"/><path id="48253" d="m443.66,427.31l2.98.12,7.23.36-.39,10.2-.34-.02-9.97-.59.48-10.07"/><path id="48417" d="m453.87,427.79l2.71.1,7.2.25-.33,10.2h-.35s-9.61-.35-9.61-.35l.39-10.2"/><path id="48429" d="m466.57,428.23l7.21.26-.29,10.13-10.04-.3.33-10.2,2.79.1"/><path id="48363" d="m476.67,427.34l7.11.27-.43,10.24-.06,1.1-7.86-.23-1.95-.1.29-10.13,2.83.15.06-1.3"/><path id="48367" d="m483.78,427.62l9.83.39-.29,10.13-1.28-.03-8.68-.25.43-10.24"/><path id="48439" d="m493.61,428.01l2.8.14,7.03.22-.22,10.06-.94-.03-8.95-.26.29-10.13"/><path id="48113" d="m503.43,428.36l3.6-.03,6.3.17-.06,3.89-.24,6.2-9.82-.16.22-10.06"/><path id="48397" d="m517.55,428.53v3.23s0,.65,0,.65l-4.28-.02.06-3.89,4.22.03"/><path id="48257" d="m517.54,431.76l4.24.08v11.1s-7.27-.05-7.27-.05l-1.49-4.3.24-6.2,4.28.02v-.65"/><path id="48379" d="m525.9,428.59l3.77.07.02.37.59,5.54-.87-.15-2.01-1.19-1.03.2-1.85-1.54-.78-.78-.07-.71.87-1.8h1.36"/><path id="48467" d="m524.53,431.87l1.85,1.54,1.03-.2,2.01,1.19.87.15.79.77.03,4.78,2.38,2.53.43.33-12.12-.03v-11.1s2.73.03,2.73.03"/><path id="48213" d="m521.79,442.94l12.12.03-.18,5.06.62,1.17-12.12,1.84-.04-.15-.24-1.33-.9-1.34-1.65-1.99-.69-.83-1.06-.97-1.83-.84-1.32-.7,7.28.05"/><path id="48001" d="m534.36,449.2l-.34,3.13.31,1.66.72,2.61,1.36,1.24.27.06.44.54.27.57.28.89.06.23-.27.39-4.29.67-3.1.55-1.72.88-.68-.6.75-.66.15-1.04-.48-.95-.33.17.04.68-.27.1-.12-.33-.17-1.31-1.56-1.84-.66-.24-1.25-1.26-1.73-3.21.17-1.08,12.12-1.84"/><path id="48225" d="m528.35,462.59l1.72-.88,3.1-.55,4.29-.67,1.25.48.82-.41.61.75.86.75-.36.9,2.12,1.31.9.89-9.3,7.65-3.59,2.95-.72-.94-.28-.94.55-1.55-2.45-.33-.2-.66-.02-.3.99-3.12.44-.5.17-.1.08.02.44-1.12-.88-2.51-.36-.81-.2-.34"/><path id="48455" d="m546.01,470.68l-6.96,7.48-.73-.74v-1.09s-1.46.15-1.46.15l-.33.89-1.29-.1-.85-4.44,9.3-7.65,2.32,5.5"/><path id="48373" d="m551.56,472.62l-1.88,1.12,2.39,11.11.18.81-3.88.09-2.31-.05-.16-.33.44-.92-2.39-.8-1.59-.16.43-.58-.39-1.28-1.48-.14-.44-2.39-1.43-.94,6.96-7.48,2.23.93,1.71.36,1.61.64"/><path id="48351" d="m570.42,469.55l.91-.24.07,7.29-.35,1.54-2.82,5.31-.22.8.06.06.55.67.28,1.43v.12s-.09.2-.09.2l-.76.64-.02.02.61,3.61-3.68.13.3-9.76.05-6.45-1-4.82,6.11-.56"/><path id="48241" d="m561.8,470.71l2.51-.6,1,4.82-.05,6.45-.3,9.76-4.29.11.21-.29.36-2.24-.2-.21-.06-.02-.36-.82-.06-.32.22-.89.17-.53.5-1.22-.3-.48-.21-.67.05-.18.44-.85-.1-.92-1.4-2.79-.18-.15-.44-.06-.12-.02-.05-.06-1.33-3.87.14-.77-.07-.18-.23-.24-.92-.35-1.17.03-1.96.06,6.43-1.63,1.76-.84"/><path id="48457" d="m553.61,473.18l1.96-.06,1.17-.03.92.35.23.24.07.18-.14.77,1.33,3.87.05.06.12.02.44.07.18.15,1.4,2.79.1.92-.44.85-.05.18.21.67.3.48-9.39.14-2.39-11.11,1.88-1.12,2.06.56"/><path id="48005" d="m545.45,461.94l.83.92,3.63.93.88-.14.77.32,1.04.54.25.27,3.26,3.95,3.93,2.81-6.43,1.63-2.06-.56-1.61-.64-1.71-.36-2.23-.93-2.32-5.5-.9-.89,2.67-2.35"/><path id="48403" d="m565.58,460.22l2.11,2.22,1.8,2.61.59,2.56.14.75.2,1.19-6.11.56-2.51.6-.17-.54-.07-3.21.02-2.6.83-.9.33-.42-.08-2.37,2.92-.46"/><path id="48405" d="m562.66,460.68l.08,2.37-.33.42-.83.9-.02,2.6.07,3.21.17.54-1.76.84-3.93-2.81.11-2.75.14-5.25-1.37-1.53-.47-.32,6.03.64,2.1,1.14"/><path id="48419" d="m552.22,451.55l9.64-.31,2.74,3.06.98,5.92-2.92.46-2.1-1.14-6.03-.64-1.12-4.38-1.2-2.96"/><path id="48347" d="m543.97,454.62l9.44-.11,1.12,4.38.47.32,1.37,1.53-.14,5.25-.11,2.75-3.26-3.95-.25-.27-1.04-.54-.77-.32-.88.14-3.63-.93-.83-.92-1.06-1.05-.09-.15-.48-1.31-.36-1.33-.21-2.06.73-1.43"/><path id="48073" d="m533.74,448.03l9.22-.13-.1,6.75,1.12-.02-.73,1.43.21,2.06.36,1.33.48,1.31.09.15,1.06,1.05-2.67,2.35-2.12-1.31.36-.9-.86-.75-.61-.75-.82.41-1.25-.48.27-.39-.06-.23-.28-.89-.27-.57-.44-.54-.27-.06-1.36-1.24-.72-2.61-.31-1.66.34-3.13-.62-1.17"/><path id="48365" d="m561.14,441.75l.1,4.52.63,4.97-9.64.31-1.72.04-.07-2.46.38-2.85.43-1.06.62-1.09.58-1.41v-.88s.57.49.57.49l2.1.9.16.03,5.87-1.52"/><path id="48401" d="m550.75,441.87h1.7s-.01.86-.01.86l-.58,1.41-.62,1.09-.43,1.06-.38,2.85.07,2.46,1.72-.04,1.2,2.96-9.44.11-1.12.02.1-6.75-.07-5.33,3.42-.07,3.21-.03.95.16.29-.75"/><path id="48183" d="m542.81,438.69l.31-.03,2.91-1.25,1.15-1.6.14-.06.91.1.06.11.07,4.6.03.69,1.15.55,1.02.13.19-.07-.29.75-.95-.16-3.21.03-3.42.07-.07-3.87"/><path id="48423" d="m531.07,435.32l1.75,1.56.55.24,5.55,1.39.14-.02.37-.18.18-.36,3.21.72.07,3.88.07,5.33-9.22.13.18-5.06-.43-.33-2.38-2.53-.03-4.78"/><path id="48499" d="m539.54,427.74l.02,2.56.05,7.67-.18.36-.37.18-.14.02-5.55-1.39-.55-.24-1.75-1.56-.79-.77-.59-5.54,6.85-.09,2.59.11.41-1.3"/><path id="48203" d="m548.25,432.73l3.79,2.23,2.36-.02.63-.32,2.29-.3,1.35-.11.98.12,1.32.49.15,6.93-5.87,1.52-.16-.03-2.1-.9-.55-.49h-1.7s-.19.08-.19.08l-1.02-.13-1.15-.55-.03-.69-.07-4.6-.05-3.24"/><path id="48459" d="m539.56,430.3l8.31-.15.28.59.1,1.99.05,3.24-.06-.11-.91-.1-.14.06-1.15,1.6-2.91,1.25-.31.03-3.21-.72-.05-7.67"/><path id="48063" d="m539.54,427.74l.5-.49,1.64-.89.43-.08h.35l1.13.02.26.09,1.02,1.26,1.08.74,1.94,1.78-8.31.15-.02-2.56"/><path id="48315" d="m549.15,430.72l11.76-.24.08,4.34-1.32-.49-.98-.12-1.35.11-2.29.3-.63.32-2.36.02-3.79-2.23-.1-1.99,1-.02"/><path id="48067" d="m549.06,421.73l.05.22.16.13.64.13,1.31-.16.84-.47,1.53-.12.6.76,2.92.04.04-.07-.07-.21-.06-.48.31-.55.6-.21.47-.11,1.73.28.4.21.16.36.12,5.81.07,3.19-11.76.24-.09-8.99"/><path id="48343" d="m546.03,419.58l1.2.79,1.83,1.36.09,8.99-1,.02-.28-.59-1.94-1.78.09-8.79"/><path id="48449" d="m546.03,419.58l-.09,8.79-1.08-.74-1.02-1.26-.26-.09-1.13-.02h-.35l-.43.08-1.64.89-.07-8.19,6.06.53"/><path id="48159" d="m539.97,419.05l.07,8.19-.5.49-.41,1.3-2.59-.11-.06-9.56.04-.03,1.3.27,2.15-.56"/><path id="48223" d="m525.91,423.05l1.58-.93.86-1,1.64-.05.74-1.03.46-.19.98-.03,4.31-.43.06,9.56-6.85.09-.02-.37-3.77-.07v-5.54"/><path id="48119" d="m525.98,417.46l1.49-.69.35-.1,2.65.19.37.06,2.1.66.37.16,1.94,1.32,1.23.23.04.06-.04.03-4.31.43-.98.03-.46.19-.74,1.03-1.64.05-.86,1-1.58.93.05-4.39.02-1.2"/><path id="48231" d="m525.96,418.66l-.05,4.39v5.54s-1.36,0-1.36,0l-.87,1.8.07.71.78.78-2.74-.03-4.24-.08v-3.23s.07-8.55.07-8.55l8.34-1.32"/><path id="48085" d="m507.32,418.69l8.59.23-.05,1.39,1.75-.33-.06,8.55-4.22-.03-6.3-.17.29-9.64"/><path id="48121" d="m496.84,417.99l8.39.43,2.09.27-.29,9.64-3.6.03-7.03-.22.44-10.16"/><path id="48497" d="m486.63,417.73l8.23.15,1.98.11-.44,10.16-2.8-.14-7.25-.29.27-9.99"/><path id="48237" d="m477.04,416.75l8.44.19-.03.77,1.18.02-.27,9.99-2.58-.1-7.11-.27.35-8.96.02-1.63"/><path id="48503" d="m466.82,418.06l10.19.32-.35,8.96-.06,1.3-2.83-.15-7.21-.26.26-10.17"/><path id="48447" d="m456.92,417.69l9.9.37-.26,10.17-2.79-.1-7.2-.25.35-10.2"/><path id="48207" d="m447.02,417.35l9.9.35-.35,10.2-2.71-.1-7.23-.36.39-10.08"/><path id="48433" d="m436.97,416.88l10.05.47-.39,10.08-2.98-.12-7.19-.4.51-10.03"/><path id="48125" d="m427.51,406.33l9.92.45-.46,10.1-9.95-.48.49-10.07"/><path id="48345" d="m428.09,395.27l1.8.09,8.09.37-.55,11.05-9.92-.45.58-11.06"/><path id="48191" d="m438.02,385.69l2.35.12-.51,10.02-1.87-.1-8.09-.37.55-10.05,7.58.39"/><path id="48129" d="m438.53,375.63l-.51,10.06-7.58-.39-2.73-.15.62-10.02,10.2.49"/><path id="48179" d="m428.87,365.04l10.12.51-.46,10.08-10.2-.49.55-10.1"/><path id="48393" d="m429.42,354.96v-.06l9.94.53h.12l-.49,10.11-10.12-.51v-.14s.55-9.94.55-9.94"/><path id="48357" d="m432.37,344.81l7.48.38-.5,10.25-9.94-.53.55-10.21,2.4.12"/><path id="48295" d="m439.86,345.19l9.95.44-.38,10.28-9.95-.47h-.12l.5-10.25"/><path id="48211" d="m449.43,355.91l-.17,4.04-.25,6.06-10.02-.46.49-10.11,9.95.47"/><path id="48483" d="m438.99,365.55l10.02.46-.43,10.09-10.05-.47.46-10.08"/><path id="48087" d="m438.53,375.63l10.05.47-.15,3.52-.27,6.57-7.79-.37-2.35-.12.51-10.06"/><path id="48075" d="m440.36,385.81l7.79.37-.13,4.27-.25,5.77-7.92-.39.51-10.02"/><path id="48101" d="m437.98,395.73l1.87.1,7.92.39-.08,2.02-.21-.41-.53.05-.19.2-.42,9.08-8.93-.39.55-11.05"/><path id="48269" d="m437.43,406.78l8.93.39.99.05-.32,10.12-10.05-.47.46-10.1"/><path id="48275" d="m457.16,409.97l-.24,7.72-9.9-.35.32-10.12,3.05.13,2.51.93.31-.47,2.66.69.96.68.27.5.05.3"/><path id="48155" d="m447.7,398.25l3.44,2.66,4.01.79.88.79,1.13-.19.22-.23.07-.23-.22,5.8-.06,2.32-.05-.3-.27-.5-.96-.68-2.66-.69-.31.47-2.51-.93-3.05-.13-.99-.05.42-9.09.19-.2.53-.05.21.41"/><path id="48197" d="m450.78,391.83l.98,1.27.47.56,1.32,1.25.58.14h.89l.73-.92.1-.04.21.03.9.11.29.12.47.27-.28,7.23-.07.23-.22.23-1.13.19-.88-.79-4.01-.79-3.44-2.66.08-2.02.25-5.77,2.75,1.37"/><path id="48009" d="m467.15,407.99l10.06.24-.17,8.53-.02,1.63-10.19-.32.33-10.08"/><path id="48023" d="m467.15,407.99l-.33,10.08-9.9-.37.24-7.72.06-2.32,9.93.34"/><path id="48487" d="m462.64,396.21l-.02.53-.02.5.33,1.78h0s.24.08.24.08l.39.12.71.16.35-.02h.76s1.74.13,1.74.13h.02l.27.13-.27,8.35-9.93-.34.22-5.8.28-7.23.62.59.63.06.14-.06h.02l.02-.04v-.02s.82-1.45.82-1.45l.83.45.94.51.89,1.55v.02"/><path id="48485" d="m473.88,400.62h.19s.42.29.42.29l.43.37.9,1.45.54.19h0l.02-.02,1.01-.91-.19,6.22-10.06-.24.27-8.35,1.75,1.05,1.74.43,1.24.05,1.72-.53"/><path id="48077" d="m483.34,403.81l.33.66.05.05h.03l.8.24h.43l.66-.16.71.28h0l-.17,1.23-.49,1.06-.22,9.77-8.44-.19.17-8.53.19-6.22.76-.96.37-.21.72.16,2.94.92,1.15,1.89"/><path id="48337" d="m495.09,406.75l-.23,11.14-8.23-.15-1.18-.02.03-.77.22-9.77.21.19,1.68.77.23.02.59-.18.95-.75,1-1.04.65-.82,1.94,1.29.68.48,1.46-.39"/><path id="48097" d="m505.34,406.11l-.1,12.3-8.39-.43-1.98-.11.23-11.14.38,1.72.05.12.02.04.11.14.17.11,1.11.3,2.68-2.38,1.34.65-.72,1.97,1.13,1.88.27.09.3.04.27-.09.19-.15.09-.12,2.86-4.96"/><path id="48147" d="m526.24,408.7l-.26,8.76-.02,1.2-8.34,1.32-1.75.33.05-1.39.13-7.62.18.25,2.84-.7.39-.11.35-.15.02-.03.18-.18.02-.03v-.02s.06-.15.06-.15l.06-.18.02-.06v-.06s.13-.55.13-.55l.16-.56.96-.22,2.14-.18.41-.03.26-.03,1.1.22.92.17"/><path id="48181" d="m505.52,406.01l.96,1.98.31.35.19.13,1.79.55.92-.15h.02l1.9-.86-.06.37.02.28.02.11.02.06,1.95,1.31.18.12h.03l.97-.19.22.03.25.08.83,1.12-.13,7.62-8.59-.23-2.09-.27.1-12.3.19-.1"/><path id="48277" d="m536.35,407.94l.12,11.34-1.23-.23-1.94-1.32-.37-.16-2.1-.66-.37-.06-2.65-.19-.35.1-1.49.69.26-8.76,1.63-.61h0l1.59-.83,1.39-.72.62.03.14.06.2.51v.15s-.06.16-.06.16v.12s0,.02,0,.02l.07.13.07.06,1.88.25.71.06,1.29-.06h0l.55-.07"/><path id="48007" d="m497.55,541.06l.4.32h.06l1.82-.88,2.58-1.95.13-.35h-.42s-.44-.07-.44-.07l-.78-.47-.46-.61-.03-.47,6.77-.99-.17,1.06.24.39v.13l-.27.59-.2.15-2.56,1.74h-.57l-.9-.08-.47.69-.41,2.06-1.79,2.72-2.52-3.99m8.79-.73l-.5,1.16-3.97,5.08-.11-.29,4.57-5.94"/><path id="48061" d="m484.52,580.22l6.94,1.23,1.77-.73.81-1.01.1.05.08,1.17.47,1.81-.03,1.71.92,1.88,2.19,2.1.05.06-.24.79-2.51.07-1.2.98-.08,1.23-1.85-.57-.29-.18-.29-.22-1.19-.94-1.75-1.95-.07-.26-2.38-.41-1.58-.28.13-6.52m12.95-1.23h.35l.57,2.4.18.9.24,1.7.36,2.86-.1-.02h-.06l-.17-.23-.19-1.55.02-.71-.1-.84-.2-1.3-.4-1.87-.24-.73-.28-.59"/></svg>