<?xml version="1.0" encoding="UTF-8"?><svg id="usa-map" xmlns="http://www.w3.org/2000/svg" viewBox="0 0 890.62 562.97"><g id="VA"><path d="m793.44,275.62l-3.12.63-2.5.46-.32-.46,2.19-1.41-.15-2.19-1.25-1.56-1.41-1.09v-1.1l-1.88-1.56v-.94l3.13,1.1.16-1.72-1.25-2.03-.16-2.19-.94-.94.47-4.37-1.25-1.25-3.12-.63-2.5-2.19-5-.31-1.83-1.5-4.89-1.31-.63-1.72v-2.03l1.72-2.5.31-2.66,1.41-3.12-2.19-1.57-.93,1.88-1.88-1.25-5.31-1.25v-2.81l-4.06-1.96-.79,4.92-5.46-2.96-4.38-1.72-.16,5.15-.46,2.03-1.57,2.66-.62,1.56-2.97,2.35-.47,2.18-3.28.32-.31,2.97-1.1,5.31h-2.5l-1.25-.78-1.56-2.66-1.72.16-.31,4.22-2.03,6.4-4.85,10.47.79,1.25-.16,2.66-2.03,1.87-1.41-.31-3.12,2.34-2.5-.93-1.72,4.53s-3.6.78-4.22.93c-.63.16-2.34-1.25-2.34-1.25l-2.35,2.19-2.5.63-2.81-.78-1.25-1.25-1.88-3.44-3.12,3.75-4.06,3.44-4.38,5.15-1.72,1.72v2.03l-3.75,2.03-5.47,3.28-2.66,1.34,9.66-.9,11.6-1.84,7.65-.16,2.35-1.87,2.04.02,4.36.6,6.9-1.25,15.29-1.87,16.56-2.5,19.92-3.65,18.52-3.7,11.1-2.81,4.71-1.64-3.93-6.8-1.1.16Zm1.85-4.33l2.01-4.24.75-3.31.3-7.42,2.93-3.79-.09-2.49-6.67,2.64.37,3.28-2.35,4.1-.4,7.65,1.53,3.37,1.62.21Z"/></g><path id="HI" d="m219.53,495.78l1.88-3.44,2.19-.31.31.78-2.03,2.97h-2.34Zm9.84-3.59l5.94,2.5,2.03-.31,1.56-3.75-.62-3.28-4.06-.47-3.91,1.72-.94,3.59h0Zm29.69,9.69l3.59,5.31,2.34-.31,1.09-.47,1.41,1.25,3.59-.16.94-1.41-2.81-1.72-1.88-3.59-2.03-3.44-5.63,2.81-.62,1.72h0Zm19.53,8.59l1.25-1.88,4.53.94.62-.47,5.94.62-.31,1.25-2.5,1.41-4.22-.31-5.31-1.56Zm5.16,5l1.88,3.75,2.97-1.09.31-1.56-1.56-2.03-3.59-.31v1.25h0Zm6.72-1.09l2.19-2.81,4.53,2.34,4.22,1.09,4.22,2.66v1.88l-3.44,1.72-4.69.94-2.34-1.41-4.69-6.41h0Zm16.09,15l1.56-1.25,3.28,1.56,7.34,3.44,3.28,2.03,1.56,2.34,1.88,4.22,3.91,2.5-.31,1.25-3.75,3.12-4.06,1.41-1.41-.62-2.97,1.72-2.34,3.12-2.19,2.81-1.72-.16-3.44-2.5-.31-4.38.62-2.34-1.56-5.47-2.03-1.72-.16-2.5,2.19-.94,2.03-2.97.47-.94-1.56-1.72-.31-2.03h0Z"/><path id="AK" d="m147.03,432.34l-.31,82.5,1.56.94,2.97.16,1.41-1.09h2.5l.16,2.81,6.72,6.56.47,2.5,3.28-1.88.63-.16.31-2.97,1.41-1.56,1.09-.16,1.88-1.41,2.97,2.03.63,2.81,1.88,1.09,1.09,2.34,3.75,1.72,3.28,5.78,2.66,3.75,2.19,2.66,1.41,3.59,4.84,1.72,5,2.03.94,4.22.47,2.97-.94,3.28-1.72,2.19-1.56-.78-1.41-2.97-2.66-1.41-1.72-1.09-.78.78,1.41,2.66.16,3.59-1.09.47-1.88-1.88-2.03-1.25.47,1.56,1.25,1.72-.78.78s-.78-.31-1.25-.94c-.47-.62-2.03-3.28-2.03-3.28l-.94-2.19s-.31,1.25-.94.94c-.63-.31-1.25-1.41-1.25-1.41l1.72-1.88-1.41-1.41v-4.84h-.78l-.78,3.28-1.09.47-.94-3.59-.63-3.59-.78-.47.31,5.47v1.09l-1.41-1.25-3.44-5.78-2.03-.47-.62-3.59-1.56-2.81-1.56-1.09v-2.19l2.03-1.25-.47-.31-2.5.62-3.28-2.34-2.5-2.81-4.69-2.5-3.91-2.5,1.25-3.12v-1.56l-1.72,1.56-2.81,1.09-3.59-1.09-5.47-2.34h-5.31l-.62.47-6.25-3.75-2.03-.31-2.66-5.62-3.44.31-3.44,1.41.47,4.38,1.09-2.81.94.31-1.41,4.22,3.13-2.66.63,1.56-3.75,4.22-1.25-.31-.47-1.88-1.25-.78-1.25,1.09-2.66-1.72-2.97,2.03-1.72,2.03-3.28,2.03-4.53-.16-.47-2.03,3.59-.62v-1.25l-2.19-.62.94-2.34,2.19-3.75v-1.72l.16-.78,4.22-2.19.94,1.25h2.66l-1.25-2.5-3.59-.31-4.84,2.66-2.34,3.28-1.72,2.5-1.09,2.19-4.06,1.41-2.97,2.5-.31,1.56,2.19.94.78,2.03-2.66,3.12-6.25,4.06-7.5,4.06-2.03,1.09-5.16,1.09-5.16,2.19,1.72,1.25-1.41,1.41-.47,1.09-2.66-.94-3.13.16-.78,2.19h-.94l.31-2.34-3.44,1.25-2.81.94-3.28-1.25-2.81,1.88h-3.13l-2.03,1.25-1.56.78-2.03-.31-2.5-1.09-2.19.62-.94.94-1.56-1.09v-1.88l2.97-1.25,6.09.62,4.22-1.56,2.03-2.03,2.81-.62,1.72-.78,2.66.16,1.56,1.25.94-.31,2.19-2.66,2.97-.94,3.28-.62,1.25-.31.62.47h.78l1.25-3.59,3.91-1.41,1.88-3.59,2.19-4.38,1.56-1.41.31-2.5-1.56,1.25-3.28.62-.62-2.34-1.25-.31-.94.94-.16,2.81-1.41-.16-1.41-5.62-1.25,1.25-1.09-.47-.31-1.88-3.91.16-2.03,1.09-2.5-.31,1.41-1.41.47-2.5-.62-1.88,1.41-.94,1.25-.16-.62-1.72v-4.22l-.94-.94-.78,1.41h-5.94l-1.41-1.25-.62-3.75-2.03-3.44v-.94l2.03-.78.16-2.03,1.09-1.09-.78-.47-1.25.47-1.09-2.66.94-4.84,4.38-3.12,2.5-1.56,1.88-3.59,2.66-1.25,2.5,1.09.31,2.34,2.34-.31,3.13-2.34,1.56.62.94.62h1.56l2.19-1.25.78-4.22s.31-2.81.94-3.28.94-.94.94-.94l-1.09-1.88-2.5.78-3.13.78-1.88-.47-3.44-1.72-4.84-.16-3.44-3.59.47-3.75.63-2.34-2.03-1.72-1.88-3.59.47-.78,6.56-.47h2.03l.94.94h.63l-.16-1.56,3.75-.62,2.5.31,1.41,1.09-1.41,2.03-.47,1.41,2.66,1.56,4.84,1.72,1.72-.94-2.19-4.22-.94-3.12.94-.78-3.28-1.88-.47-1.09.47-1.56-.78-3.75-2.81-4.53-2.34-4.06,2.81-1.88h3.13l1.72.62,4.06-.16,3.59-3.44,1.09-2.97,3.59-2.34,1.56.94,2.66-.62,3.59-2.03,1.09-.16.94.78,4.38-.16,2.66-2.97h1.09l3.44,2.34,1.88,2.03-.47,1.09.62,1.09,1.56-1.56,3.75.31.31,3.59,1.88,1.41,6.88.62,6.09,4.06,1.41-.94,5,2.5,2.03-.62,1.88-.78,4.69,1.88,4.22,2.81h0Zm-111.25,27.97l2.03,5.16-.16.94-2.81-.31-1.72-3.91-1.72-1.41h-2.34l-.16-2.5,1.72-2.34,1.09,2.34,1.41,1.41,2.66.62Zm-2.5,32.34l3.59.78,3.59.94.78.94-1.56,3.59-2.97-.16-3.28-3.44s-.16-2.66-.16-2.66Zm-20-13.59l1.09,2.5,1.09,1.56-1.09.78-2.03-2.97v-1.88h.94ZM0,549.69l3.28-2.19,3.28-.94,2.5.31.47,1.56,1.88.47,1.88-1.88-.31-1.56,2.66-.62,2.81,2.5-1.09,1.72-4.22,1.09-2.66-.47-3.59-1.09-4.22,1.41-1.56.31-1.09-.62Zm47.34-4.38l1.56,1.88,2.03-1.56-1.41-1.25-2.19.94Zm2.81,2.97l1.09-2.19,2.03.31-.78,1.88h-2.34Zm22.81-1.88l1.41,1.72.94-1.09-.78-1.88-1.56,1.25Zm8.44-12.03l1.09,5.62,2.81.78,4.84-2.81,4.22-2.5-1.56-2.34.47-2.34-2.03,1.25-2.81-.78,1.56-1.09,1.88.78,3.75-1.72.47-1.41-2.34-.78.78-1.88-2.66,1.88-4.53,3.44-4.69,2.81s-1.25,1.09-1.25,1.09Zm40.94-19.22l2.34-1.41-.94-1.72-1.72.94.31,2.19Z"/><path id="FL" d="m724.53,423.59l2.02,7.93,3.6,9.42,5.16,9.06,3.59,6.09,4.69,5.31,3.91,3.59,1.56,2.81-1.09,1.25-.78,1.25,2.81,7.19,2.81,2.81,2.5,5.16,3.44,5.62,4.38,7.97,1.25,7.34.47,11.56.62,1.72-.31,3.28-2.34,1.25.31,1.88-.62,1.88.31,2.34.47,1.88-2.66,3.12-2.97,1.41-3.75.16-1.41,1.56-2.34.94-1.25-.47-1.09-.94-.31-2.81-.78-3.28-3.28-5-3.44-2.19-3.75-.31-.78,1.25-2.97-4.22-.62-3.44-2.5-3.91-1.72-1.09-1.56,2.03-1.72-.31-2.03-4.84-2.81-3.75-2.81-5.16-2.5-2.97-3.44-3.59,2.03-2.34,3.12-5.31-.16-1.56-4.38-.94-1.56.62.31.62,2.5.94-1.41,4.38-.78.47-1.72-3.91-1.25-4.69-.31-2.66,1.41-4.53v-9.22l-2.97-3.59-1.25-2.97-5-1.25-1.88-.62-1.56-2.5-3.28-1.56-1.09-3.28-2.66-.94-2.34-3.59-4.06-1.41-2.81-1.41h-2.5l-3.91.78-.16,1.88.78.94-.47,1.09-2.97-.16-3.59,3.44-3.44,1.88h-3.75l-3.12,1.25-.31-2.66-1.56-1.88-2.81-1.09-1.56-1.41-7.81-3.75-7.34-1.72-4.22.62-5.78.47-5.78,2.03-3.36.59-.23-7.78-2.5-1.88-1.72-1.72.31-2.97,9.84-1.25,24.69-2.81,6.56-.62,5.94-.16,2.5,3.75,1.41,1.41,7.66.16,10.46-.62,20.79-1.25,5.26-.65,4.42.03.16,2.81,2.5.78.31-4.22-1.56-4.38,1.09-1.56,5.62.78,5,.31h0Zm11.95,128.83l2.34-.62,1.25-.23,1.41-2.27,2.27-1.56,1.25.47,1.64.31.39,1.02-3.36,1.17-4.06,1.41-2.27,1.17-.86-.86Zm13.05-4.84l1.17,1.02,2.66-2.03,5.16-4.06,3.59-3.75,2.42-6.41.94-1.64.16-3.28-.7.47-.94,2.73-1.41,4.45-3.12,5.08-4.22,4.06-3.28,1.88-2.42,1.48Z"/><path id="SC" d="m730,392.97l-1.72.94-2.5-1.25-.62-2.03-1.25-3.44-2.19-2.03-2.5-.62-1.56-4.69-2.66-5.78-4.06-1.88-2.03-1.88-1.25-2.5-2.03-1.88-2.19-1.25-2.19-2.81-2.97-2.19-4.38-1.72-.47-1.41-2.34-2.81-.47-1.41-3.28-5-3.28.16-3.91-2.34-1.25-1.25-.31-1.72.78-1.88,2.19-.94-.31-2.03,5.94-2.5,8.75-4.38,7.03-.78,15.94-.47,2.19,1.88,1.56,3.12,4.22-.47,12.19-1.41,2.81.78,12.19,7.34,9.77,7.85-5.24,5.28-2.5,5.94-.47,6.09-1.56.78-1.09,2.66-2.34.62-2.03,3.44-2.66,2.66-2.19,3.28-1.56.78-3.44,3.28-2.81.16.94,3.12-4.84,5.31-2.03,1.25h0Z"/><path id="GA" d="m660.78,339.84l-4.69.78-8.12,1.09-8.28.86v2.11l.16,2.03.62,3.28,3.28,7.66,2.34,9.53,1.41,5.94,1.56,4.69,1.41,6.72,2.03,6.09,2.5,3.28.47,3.28,1.88.78.16,2.03-1.72,4.69-.47,3.12-.16,1.88,1.56,4.22.31,5.16-.78,2.34.62.78,1.41.78.62,3.28,2.5,3.75,1.41,1.41,7.66.16,10.46-.62,20.79-1.25,5.26-.65,4.42.03.16,2.81,2.5.78.31-4.22-1.56-4.38,1.09-1.56,5.62.78,4.81.31-.75-6.09,2.19-9.69,1.41-4.06-.47-2.5,3.91-6.72-.58-1.56-1.76.94-2.5-1.25-.62-2.03-1.25-3.44-2.19-2.03-2.5-.62-1.56-4.69-2.66-5.78-4.06-1.88-2.03-1.88-1.25-2.5-2.03-1.88-2.19-1.25-2.19-2.81-2.97-2.19-4.38-1.72-.47-1.41-2.34-2.81-.47-1.41-3.28-5-3.28.16-3.91-2.34-1.25-1.25-.31-1.72.78-1.88,2.19-.94-.16-2.21-1.72.49-5.62.94-6.72.78-6.56.47h0Z"/><path id="AL" d="m598.91,445l-1.56-14.69-2.66-18.13.16-13.59.78-30-.16-16.09.16-6.2,7.5-.36,26.88-2.5,9.83-.86-.14,2.11.16,2.03.62,3.28,3.28,7.66,2.34,9.53,1.41,5.94,1.56,4.69,1.41,6.72,2.03,6.09,2.5,3.28.47,3.28,1.88.78.16,2.03-1.72,4.69-.47,3.12-.16,1.88,1.56,4.22.31,5.16-.78,2.34.62.78,1.41.78.78,3.44h-6.09l-6.56.62-24.69,2.81-9.84,1.25-.31,2.97,1.72,1.72,2.5,1.88.56,7.67-6.34,2.49-2.66-.31,2.66-1.88v-.94l-2.97-5.78-2.19-.62-1.41,4.22-1.25,2.66-.62-.16h-2.66Z"/><path id="NC" d="m798.5,282.33l1.65,4.54,3.44,6.25,2.34,2.34.62,2.19-2.34.16.78.62-.31,4.06-2.5,1.25-.62,2.03-1.25,2.81-3.59,1.56-2.34-.31-1.41-.16-1.56-1.25.31,1.25v.94h1.88l.78,1.25-1.88,6.09h4.06l.62,1.56,2.19-2.19,1.25-.47-1.88,3.44-2.97,4.69h-1.25l-1.09-.47-2.66.62-5,2.34-6.25,5.16-3.28,4.53-1.88,6.25-.47,2.34-4.53.47-5.7,2.15-9.61-7.93-12.19-7.34-2.81-.78-12.19,1.41-4.22.47-1.56-3.12-2.19-1.88-15.94.47-7.03.78-8.75,4.38-5.94,2.5-1.56.31-5.62.94-6.72.78-6.56.47.31-4.69,1.72-1.41,2.66-.62.62-3.59,4.06-2.66,3.75-1.41,4.06-3.44,4.22-2.03.62-2.97,3.75-3.75.62-.16s0,1.09.78,1.09,1.88.31,1.88.31l2.19-3.44,2.03-.62,2.19.31,1.56-3.44,2.81-2.5.47-2.03v-3.83l4.38.7,6.9-1.25,15.29-1.88,16.56-2.5,19.91-3.65,18.52-3.7,11.09-2.81,4.75-1.57h0Zm3.77,31.88l2.5-2.42,3.05-2.5,1.48-.62.16-1.95-.62-5.94-1.41-2.27-.62-1.8.7-.23,2.66,5.31.39,4.3-.16,3.28-3.28,1.48-2.73,2.34-1.09,1.17-1.02-.16Z"/><path id="TN" d="m667.97,303.75l-50.16,4.84-15.23,1.72-4.47.5-3.74-.03v3.75l-8.12.47-6.72.62-10.72.05-.26,5.64-2.07,6.07-.96,2.92-1.3,4.23-.31,2.5-3.91,2.19,1.41,3.44-.94,4.22-1.48,1.64,7.89-.08,23.28-1.88,5.16-.16,7.81-.47,26.88-2.5,9.83-.78,8.14-.94,8.12-1.09,4.69-.78.31-4.69,1.72-1.41,2.66-.62.62-3.59,4.06-2.66,3.75-1.41,4.06-3.44,4.22-2.03.62-2.97,3.75-3.75.62-.16s0,1.09.78,1.09,1.88.31,1.88.31l2.19-3.44,2.03-.62,2.19.31,1.56-3.44,2.81-2.5.47-2.03.17-3.8-2.2.05-2.34,1.88-7.66.16-11.59,1.84-9.5.82h0Z"/><path id="MA" d="m864.1,161.88l2.1-.66.44-1.66.99.11.99,2.21-1.22.44-3.76.11.44-.55h0Zm-9.06.77l2.21-2.54h1.55l1.77,1.44-2.32.99-2.1.99-1.1-.88h0Zm-33.63-21.25l16.88-4.06,2.19-.62,2.03-3.12,3.61-1.61,2.79,4.27-2.34,5-.31,1.41,1.88,2.5,1.09-.78h1.72l2.19,2.5,3.75,5.78,3.44.47,2.19-.94,1.72-1.72-.78-2.66-2.03-1.56-1.41.78-.94-1.25.47-.47,2.03-.16,1.72.78,1.88,2.34.94,2.81.31,2.34-4.06,1.41-3.75,1.88-3.75,4.38-1.88,1.41v-.94l2.34-1.41.47-1.72-.78-2.97-2.81,1.41-.78,1.41.47,2.19-2.66,1.41-2.66-4.38-3.28-4.22-1.56-1.09-5.55,1.48-4.92,1.02-21.09,4.61-.94-5.55.62-10.23,5-.86,6.56-1.25"/><path id="ME" d="m886.56,68.59l1.88,2.03,2.19,3.59v1.88l-2.03,4.53-1.88.62-3.28,2.97-4.69,5.31h-1.25c-.62,0-.94-2.03-.94-2.03l-1.72.16-.94,1.41-2.34,1.41-.94,1.41,1.56,1.41-.47.62-.47,2.66-1.88-.16v-1.56l-.31-1.25-1.41.31-1.72-3.12-2.03,1.25,1.25,1.41.31,1.09-.78,1.25.31,2.97.16,1.56-1.56,2.5-2.81.47-.31,2.81-5.16,2.97-1.25.47-1.56-1.41-2.97,3.44.94,3.12-1.41,1.25-.16,4.22-1.52,7.37-2.38-1.12-.47-2.97-3.75-1.09-.31-2.66-7.03-22.66-4.61-14.28,2.36-.33,1.46.4v-2.5l.78-5.31,2.5-4.53,1.41-3.91-1.88-2.34v-5.78l.78-.94.78-2.66-.16-1.41-.16-4.69,1.72-4.69,2.81-8.59,2.03-4.06h1.25l1.25.16v1.09l1.25,2.19,2.66.62.78-.78v-.94l3.91-2.81,1.72-1.72,1.41.16,5.78,2.34,1.88.94,8.75,28.91h5.78l.78,1.88.16,4.69,2.81,2.19h.78l.16-.47-.47-1.09,2.66-.16h0Zm-20.23,29.14l1.48-1.48,1.33,1.02.55,2.34-1.64.86-1.72-2.73h0Zm6.48-5.7l1.72,1.8s1.25.08,1.25-.23.23-1.95.23-1.95l.86-.78-.78-1.72-1.95.7-1.33,2.19Z"/><path id="NH" d="m846.11,131.95l.29-1.48,1.05-3.18-2.46-.88-.47-2.97-3.75-1.09-.31-2.66-7.03-22.66-4.45-14.06h-.87s-.62,1.56-.62,1.56l-.62-.47-.94-.94-1.41,1.88-.92,5.3.3,5.48,1.88,2.66v3.91l-3.59,3.91-2.5,1.09v1.09l1.09,1.72v8.28l-.78,8.91-.16,4.69.94,1.25-.16,4.38-.47,1.72,1.41,1.95,16.72-3.98,2.19-.62,2.03-3.12,3.61-1.64h0Z"/><path id="VT" d="m810,143.75l-.78-5.47-2.97-10.63-.62-.31-2.81-1.25.78-2.81-.78-2.03-2.5-4.38.94-3.75-.78-5-2.34-6.25-.78-4.76,26.25-6.96.31,5.62,1.88,2.66v3.91l-3.59,3.91-2.5,1.09v1.09l1.09,1.72v8.28l-.78,8.91-.16,4.69.94,1.25-.16,4.38-.47,1.72,1.41,1.95-6.72,1.33-4.84,1.09h0Z"/><path id="NY" d="m794.69,177.81l-1.09-.94-2.5-.16-2.19-1.88-2.34-5.16-2.9-.9-2.25-2.07-17.97,3.91-41.56,8.44-8.59,1.41-.71-6.69,2.59-1.75,1.25-1.09.94-1.56,1.72-1.09,1.88-1.72.47-1.56,2.03-2.66,1.09-.94-.16-.94-1.25-2.97-1.72-.16-1.88-5.94,2.81-1.72,4.22-1.41,3.91-1.25,3.12-.47,6.09-.16,1.88,1.25,1.56.16,2.03-1.25,2.5-1.09,5-.47,2.03-1.72,1.72-3.12,1.56-1.88h2.03l1.88-1.09.16-2.19-1.41-2.03-.31-1.41,1.09-2.03v-1.41h-1.72l-1.72-.78-.78-1.09-.16-2.5,5.62-5.31.62-.78,1.41-2.81,2.81-4.38,2.66-3.59,2.03-2.34,2.33-1.76,2.98-1.2,5.31-1.25,3.12.16,4.38-1.41,7.31-2,.5,4.81,2.34,6.25.78,5-.94,3.75,2.5,4.38.78,2.03-.78,2.81,2.81,1.25.62.31,2.97,10.63.47,5-.47,10.47.78,5.31.78,3.44,1.41,7.03v7.81l-1.09,2.19,1.78,1.93-.22,1.51-1.88,1.72.31,1.25,1.25-.31,1.41-1.25,2.19-2.5,1.09-.62,1.56.62,2.19.16,7.66-3.75,2.81-2.66,1.25-1.41,4.06,1.56-3.28,3.44-3.75,2.81-6.88,5.16-2.5.94-5.62,1.88-3.91,1.09-1.46-.52-.56-3.24.47-2.66-.16-2.03-2.5-1.09-4.38-.94-3.75-1.09-3.59-1.72h0Z"/><path id="NJ" d="m794.69,177.81l-2.03,2.34v2.97l-1.88,2.97-.16,1.56,1.25,1.25-.16,2.34-2.19,1.09.78,2.66.16,1.09,2.66.31.94,2.5,3.44,2.34,2.34,1.56v.78l-3.12,2.97-1.56,2.19-1.41,2.66-2.19,1.25-1.17.7-.23,1.17-.59,2.52,1.06,2.17,3.12,2.81,4.69,2.19,3.91.62.16,1.41-.78.94.31,2.66h.78l2.03-2.34.78-4.69,2.66-3.91,2.97-6.25,1.09-5.31-.62-1.09-.16-9.06-1.56-3.28-1.09.78-2.66.31-.47-.47,1.09-.94,2.03-1.88.06-1.06-.37-3.32.47-2.66-.16-2.03-2.5-1.09-4.38-.94-3.75-1.09-3.59-1.72h0Z"/><path id="PA" d="m790.47,213.28l1.09-.62,2.19-1.25,1.41-2.66,1.56-2.19,3.12-2.97v-.78l-2.34-1.56-3.44-2.34-.94-2.5-2.66-.31-.16-1.09-.78-2.66,2.19-1.09.16-2.34-1.25-1.25.16-1.56,1.88-2.97v-2.97l2.27-2.34-1.33-.94-2.5-.16-2.19-1.88-2.34-5.16-2.9-.9-2.25-2.07-17.97,3.91-41.56,8.44-8.59,1.41-.48-6.85-5.3,5.44-1.25.47-4.06,2.91,2.81,18.5,1.63,10.39,3.45,18.62,4.48-.73,11.54-1.45,36.66-7.41,14.38-2.73,8.02-1.57,1.25-1.22,2.03-1.56h2.03Z"/><path id="MD" d="m801.19,250.04l1.78-4.73v-5.47h0s-5.94,1.25-5.94,1.25l-4.84.16-1.56-6.09-2.03-9.38-2.19-5.47-1.25-4.25-8.02,1.57-14.38,2.73-36.2,7.3,1.09,4.84.94,5.47.31-.31,2.03-2.34,2.19-2.97,2.34-.16,1.41-1.41,1.72-2.5,1.25.62,2.81-.31,2.5-2.03,1.94-1.4,1.78-.47,1.59,1.09,2.81,1.41,1.88,1.72,1.17,1.48,3.98,1.64v2.81l5.31,1.25,1.88,1.25.94-1.88,2.19,1.56-1.41,3.12-.31,2.66-1.72,2.5v2.03l.62,1.72,4.89,1.31,4.17-.06,2.97.94,2.03.31.94-2.03-1.41-2.03v-1.72l-2.34-2.03-2.03-5.31,1.25-5.16-.16-2.03-1.25-1.25s1.41-1.56,1.41-2.19.47-2.03.47-2.03l1.88-1.25,1.88-1.56.47.94-1.41,1.56-1.25,3.59.31,1.09,1.72.31.47,5.31-2.03.94.31,3.44.47-.16,1.09-1.88,1.56,1.72-1.56,1.25-.31,3.28,2.5,3.28,3.75.47,1.56-.78,3.12,5,1.24.34,6.67-2.64Zm-14.08-.75l1.09,2.42.16,1.72,1.09,1.8s.86-.86.86-1.17-.7-2.97-.7-2.97l-.7-2.27-1.8.47Z"/><path id="WV" d="m726.58,227.72l1.07,4.78.94,5.47.31-.31,2.03-2.34,2.19-2.97,2.34-.16,1.41-1.41,1.72-2.5,1.25.62,2.81-.31,2.5-2.03,1.94-1.4,1.78-.47,1.59,1.09,2.81,1.41,1.88,1.72,1.33,1.25-1.02,4.84-5.47-2.97-4.38-1.72-.16,5.16-.47,2.03-1.56,2.66-.62,1.56-2.97,2.34-.47,2.19-3.28.31-.31,2.97-1.09,5.31h-2.5l-1.25-.78-1.56-2.66-1.72.16-.31,4.22-2.03,6.41-4.84,10.47.78,1.25-.16,2.66-2.03,1.88-1.41-.31-3.12,2.34-2.5-.94-1.72,4.53s-3.59.78-4.22.94-2.34-1.25-2.34-1.25l-2.34,2.19-2.5.62-2.81-.78-1.25-1.25-2.12-2.92-3.04-1.92-2.5-2.66-2.81-3.59-.62-2.19-2.5-1.41-.78-1.56-.23-5.08,2.11-.08,1.88-.78.16-2.66,1.56-1.41.16-4.84.94-3.75,1.25-.62,1.25,1.09.47,1.72,1.72-.94.47-1.56-1.09-1.72v-2.34l.94-1.25,2.19-3.28,1.25-1.41,2.03.47,2.19-1.56,2.97-3.28,2.19-3.75.31-5.47.47-4.84v-4.53l-1.09-2.97.94-1.41,1.24-1.25,3.37,19.16,4.48-.73,12.02-1.5h0Z"/><path id="KY" d="m692.86,281.81l-3.01,3.03-4.06,3.44-4.38,5.16-1.72,1.72v2.03l-3.75,2.03-5.47,3.28-2.52,1.36-50.13,4.73-15.23,1.72-4.47.5-3.74-.03v3.75l-8.12.47-6.72.62-10.08.2.97-1.2,2.11-1.7,1.99-1.1.22-3.09.88-1.77-1.55-2.45.78-1.84,2.19-1.72,2.03-.62,2.66,1.25,3.44,1.25,1.09-.31.16-2.19-1.25-2.34.31-2.19,1.88-1.41,2.5-.62,1.56-.62-.78-1.72-.62-1.88,1.09-.78,1.02-3.2,2.89-1.64,5.62-.94,3.44-.47,1.41,1.88,1.72.78,1.72-3.12,2.81-1.41,1.88,1.56.78,1.09,2.03-.47-.16-3.28,2.81-1.56,1.09-.78,1.09,1.56h4.53l.78-2.03-.31-2.19,2.81-3.44,4.53-3.75.47-4.38,2.66-.31,3.75-1.72,2.66-1.88-.31-1.88-1.41-1.41.55-2.11,3.98-.23,2.34-.78,2.81,1.56,1.56,4.22,5.62.31,1.72,1.72,2.03.16,2.34-1.41,2.97.47,1.25,1.41,2.66-2.5,1.72-1.25h1.56l.62,2.66,1.72.94,3.44,2.03.16,5.31.78,1.56,2.5,1.41.62,2.19,2.81,3.59,2.5,2.66,3.17,2.12Z"/><path id="OH" d="m702.19,182.22l-6.88,4.03-3.75,2.19-3.28,3.59-3.91,3.75-3.12.78-2.81.47-5.31,2.5-2.03.16-3.28-2.97-5,.62-2.5-1.41-2.3-1.31-4.73.68-9.84,1.56-7.5,1.17,1.25,14.14,1.72,13.28,2.5,22.66.55,5.55,3.98-.23,2.34-.78,2.81,1.56,1.56,4.22,5.62.31,1.72,1.72,2.03.16,2.34-1.41,2.97.47,1.25,1.41,2.66-2.5,1.72-1.25h1.56l.62,2.66,1.72.94,3.36,2.27,2.11-.08,1.88-.78.16-2.66,1.56-1.41.16-4.84.94-3.75,1.25-.62,1.25,1.09.47,1.72,1.72-.94.47-1.56-1.09-1.72v-2.34l.94-1.25,2.19-3.28,1.25-1.41,2.03.47,2.19-1.56,2.97-3.28,2.19-3.75.31-5.47.47-4.84v-4.53l-1.09-2.97.94-1.41,1.33-.7-1.8-10.39-2.81-18.71h0Z"/><path id="MI" d="m556.4,73.16l1.77-1.99,2.1-.77,5.19-3.76,2.21-.55.44.44-4.97,4.97-3.2,1.88-1.99.88-1.55-1.1h0Zm83.29,31.05l.62,2.42,3.12.16,1.25-1.17s-.08-1.41-.39-1.56-1.56-1.8-1.56-1.8l-2.11.23-1.56.16-.31,1.09.94.47Zm29.06,60.94l-3.12-7.97-2.19-8.75-2.34-3.12-2.5-1.72-1.56,1.09-3.75,1.72-1.88,4.84-2.66,3.59-1.09.62-1.41-.62s-2.5-1.41-2.34-2.03.47-4.84.47-4.84l3.28-1.25.78-3.28.62-2.5,2.34-1.56-.31-9.69-1.56-2.19-1.25-.78-.78-2.03.78-.78,1.56.31.16-1.56-2.34-2.19-1.25-2.5h-2.5l-4.38-1.41-5.31-3.28h-2.66l-.62.62-.94-.47-2.97-2.19-2.81,1.72-2.81,2.19.31,3.44.94.31,2.03.47.47.78-2.5.78-2.5.31-1.41,1.72-.31,2.03.31,1.56.31,5.31-3.44,2.03-.62-.16v-4.06l1.25-2.34.62-2.34-.78-.78-1.88.78-.94,4.06-2.66,1.09-1.72,1.88-.16.94.62.78-.62,2.5-2.19.47v1.09l.78,2.34-1.09,5.94-1.56,3.91.62,4.53.47,1.09-.78,2.34-.31.78-.31,2.66,3.44,5.78,2.81,6.25,1.41,4.69-.78,4.53-.94,5.78-2.34,5-.31,2.66-2.98,3.01-.72.74,4.48-.16,21.25-2.19,5.94-.62.31,1.17,7.5-1.17,9.84-1.56,5.04-.45-1.29-1.12.16-1.41,2.03-3.59,1.93-1.68-.21-4.88,1.54-1.54,1.05-.33.21-3.44,1.48-2.93,1.02.59.16.62.78.16,1.88-.94-.31-9.22Zm-127.1-63.38l1.79-1,2.66-.78,3.44-2.19v-.94l.62-.62,5.78-.94,2.34-1.88,4.22-2.03.16-1.25,1.88-2.81,1.72-.78,1.25-1.72,2.19-2.19,4.22-2.34,4.53-.47,1.09,1.09-.31.94-3.59.94-1.41,2.97-2.19.78-.47,2.34-2.34,3.12-.31,2.5.78.47.94-1.09,3.44-2.81,1.25,1.25h2.19l3.12.94,1.41,1.09,1.41,2.97,2.66,2.66,3.75-.16,1.41-.94,1.56,1.25,1.56.47,1.25-.78h1.09l1.56-.94,3.91-3.44,3.28-1.09,6.41-.31,4.38-1.88,2.5-1.25,1.41.16v5.47l.47.31,2.81.78,1.88-.47,5.94-1.56,1.09-1.09,1.41.47v6.72l3.12,2.97,1.25.62,1.25.94-1.25.31-.78-.31-3.59-.47-2.03.62-2.19-.16-3.12,1.41h-1.72l-5.62-1.25-5,.16-1.88,2.5-6.72.62-2.34.78-1.09,2.97-1.25,1.09-.47-.16-1.41-1.56-4.38,2.34h-.62l-1.09-1.56-.78.16-1.88,4.22-.94,3.91-3.62,7.86-1.58-1.11-1.33-1.33-1.55-9.94-3.54-1.1-1.33-2.21-12.15-2.65-2.43-1.1-7.95-2.21-7.95-1.1-4.14-5.19h0Z"/><path id="WY" d="m337.57,132.97l-11.13-.94-31.01-3.19-15.69-1.99-27.4-3.98-19.22-2.87-1.37,10.8-3.71,23.45-5.08,29.39-1.48,10.16-1.61,11.49,6.31.9,16.32,2.21,8.54,1.14,19.88,2.38,36.02,3.98,23.64,1.99,4.2-42.87,1.55-24.53,1.26-17.53h0Z"/><path id="MT" d="m339.75,112.5l.78-11.24,2.18-24.11,1.33-14.58,1.22-13.75-30.89-3.18-28.28-3.44-28.28-3.91-31.25-5.16-17.81-3.28-31.63-6.7-4.33,20.63,3.31,7.29-1.33,4.42,1.77,4.42,3.09,1.33,3.54,9.94,3.54,3.54.44,1.1,3.31,1.1.44,1.99-6.85,17.01v2.43l2.43,3.09h.88l4.64-2.87.66-1.1,1.55.66-.22,5.08,2.65,12.15,2.87,2.43.88.66,1.77,2.21-.44,3.31.66,3.31,1.1.88,2.21-2.21h2.65l3.09,1.55,2.43-.88h3.98l3.54,1.55,2.65-.44.44-2.87,2.87-.66,1.33,1.33.44,3.09,2.5,2.41,1.48-11.02,19.22,2.87,27.4,3.98,15.69,1.99,31.01,3.19,11.09,1.16,1.64-15.38.58-5.32h0Z"/><path id="ID" d="m130.2,165.48l4.59-17.85,4.2-17.13,1.33-4.09,2.43-5.75-1.22-2.21-2.43.11-.77-.99.44-1.1.33-2.98,4.31-5.3,1.77-.44,1.1-1.1.55-3.09.88-.66,3.76-5.63,3.76-4.2.22-3.65-3.31-2.54-1.27-4.25.39-9.34,3.54-15.91,4.31-20.11,3.65-13.04.74-3.68,13.65,2.6-4.33,20.63,3.31,7.29-1.33,4.42,1.77,4.42,3.09,1.33,3.54,9.94,3.54,3.54.44,1.1,3.31,1.1.44,1.99-6.85,17.01v2.43l2.43,3.09h.88l4.64-2.87.66-1.1,1.55.66-.22,5.08,2.65,12.15,2.87,2.43.88.66,1.77,2.21-.44,3.31.66,3.31,1.1.88,2.21-2.21h2.65l3.09,1.55,2.43-.88h3.98l3.54,1.55,2.65-.44.44-2.87,2.87-.66,1.33,1.33.44,3.09,2.54,1.99-3.65,23.64-4.97,29.28-4.64-.77-8.07-1.33-9.94-1.77-11.6-1.99-12.26-2.26-7.73-1.93-8.95-1.77-9.39-1.88-20.28-4.36h0Z"/><path id="WA" d="m84.69,0l4.22,1.41,9.38,2.66,8.28,1.88,19.38,5.47,22.19,5.47,15.58,3.59-.97,3.75-3.65,13.04-4.31,20.11-3.54,15.91-.18,9.38-13.52-3.3-14.58-3.43-14.92.11-.44-1.33-5.3,1.99-4.31-.55-2.32-1.55-1.22.66-4.53-.22-1.66-1.33-5.08-1.99-.77.11-4.2-1.44-1.88,1.77-5.97-.33-5.75-3.98.66-.77.22-7.51-2.21-3.76-3.98-.55-.66-2.43-2.28-.45-1.85-1.45-1.72.94-2.19-2.81.31-2.81,2.66-.31,1.56-3.91-2.5-1.09.16-3.59,4.22-.62-2.66-2.66-1.41-6.88.62-2.81v-7.66l-1.72-3.12,2.19-9.06,2.03.47,2.34,2.81,2.66,2.5,3.12,1.88,4.38,2.03,2.97.62,2.81,1.41,3.28.94,2.19-.16v-2.34l1.25-1.09,2.03-1.25.31,1.09.31,1.72-2.19.47-.31,2.03,1.72,1.41,1.09,2.34.62,1.88,1.41-.16.16-1.25-.94-1.25-.47-3.12.78-1.72-.62-1.41v-2.19l1.72-3.44-1.09-2.5-2.34-4.69.31-.78,1.09-.78h0Zm-9.14,5.78l1.95-.16.47,1.33,1.48-1.56h2.27l.78,1.48-1.48,1.64.63.78-.7,1.95-1.33.39s-.86.08-.86-.23,1.41-2.5,1.41-2.5l-1.64-.55-.31,1.41-.7.62-1.48-2.19-.47-2.42h0Z"/><path id="TX" d="m339.35,316.07l21.93,1.05,30.05,1.1-1.33,22.98-.44,17.24.22,1.55,4.2,3.54,1.99,1.1.66-.22.66-1.99,1.33,1.77h1.99v-1.33l2.65,1.33-.44,3.76,3.98.22,2.43,1.1,3.98.66,2.43,1.77,2.21-1.99,3.31.66,2.43,3.31h.88v2.21l2.21.66,2.21-2.21,1.77.66h2.43l.88,2.43,4.64,1.77,1.33-.66,1.77-3.98h1.1l1.1,1.99,3.98.66,3.54,1.33,2.87.88,1.77-.88.66-2.43h4.2l1.99.88,2.65-1.99h1.1l.66,1.55h3.98l1.55-1.99,1.77.44,1.99,2.43,3.09,1.77,3.09.88,2.65,1.22,2.21,1.88,2.87-1.33,2.65,1.1.65,10.73v9.38s.68,9.06.68,9.06l.66,3.76,2.43,3.98.88,4.86,4.2,5.3.22,3.09.66.66-.66,8.18-2.87,4.86,1.55,1.99-.66,2.43-.66,7.07-1.33,3.09.27,3.46-6.25,1.69-9.53,4.38-.94,1.88-2.5,1.88-2.03,1.41-1.25.78-5.47,5.16-2.66,2.03-5.16,3.12-5.47,2.34-6.09,3.28-1.72,1.41-5.62,3.44-3.28.62-3.75,5.31-3.91.31-.94,1.88,2.19,1.88-1.41,5.31-1.25,4.38-1.09,3.75-.78,4.38.78,2.34,1.72,6.72.94,5.94,1.72,2.66-.94,1.41-2.97,1.88-5.47-3.75-5.31-1.09-1.25.47-3.12-.62-4.06-2.97-5-1.09-7.34-3.28-2.03-3.75-1.25-6.25-3.12-1.88-.62-2.19.62-.62.31-3.28-1.25-.62-.62-.94,1.25-4.22-1.56-2.19-3.12-1.25-3.28-4.22-3.44-6.41-4.06-2.5.16-1.88-5.16-11.88-.78-4.06-1.72-1.88-.16-1.41-5.78-5.16-2.5-2.97v-1.09l-2.5-2.03-6.56-1.09-7.19-.62-2.97-2.19-4.38,1.72-3.44,1.41-2.19,3.12-.94,3.59-4.22,5.94-2.34,2.34-2.5-.94-1.72-1.09-1.88-.62-3.75-2.19v-.62l-1.72-1.88-5-2.03-7.19-7.5-2.19-4.53v-7.81l-3.12-6.25-.47-2.66-1.56-.94-1.09-2.03-4.84-2.03-1.25-1.56-6.88-7.66-1.25-3.12-4.53-2.19-1.41-4.22-2.5-2.81-1.88-.47-.63-4.52,7.73.66,28.06,2.65,28.06,1.55,2.21-22.98,3.76-53.7,1.55-18.12,1.33.03m95.66,226.15l-.55-6.88-2.66-6.95-.55-6.8,1.48-7.97,3.2-6.64,3.36-5.23,3.05-3.44.62.23-4.61,6.41-4.22,6.33-1.95,6.41-.31,5,.86,5.94,2.5,6.95.47,5,.16,1.41-.86.23Z"/><path id="CA" d="m127.03,368.28l4-.78,1.44-2.1.55-2.65-3.54-.55-.44-.77.44-1.66.11-5.63,1.99-.66,2.76-2.65.55-4.75,1.44-3.54,1.88-1.88,3.31-1.66,1.55-1.33.11-2.21-.99-.55-.77-.99-1.22-5.63-2.65-4.75.56-3.16-2.44-3.14-14.03-21.99-18.78-28.06-21.99-32.7-11.97-17.96,1.58-6.35,6.74-25.08,7.84-30.38-13.04-3.54-13.04-3.31-12.15-3.98-7.29-1.99-11.05-2.87-6.81-2.33-1.53,4.57-.16,7.19-5,11.41-2.97,2.5-.31,1.09-1.72.78-1.41,4.06-.78,3.12,2.66,4.06,1.56,4.06,1.09,3.44-.31,6.25-1.72,2.97-.62,5.62-.94,3.59,1.72,3.75,2.66,4.38,2.19,4.69,1.25,3.91-.31,3.12-.31.47v2.03l5.47,6.09-.47,2.34-.62,2.19-.62,1.88.16,7.97,2.03,3.59,1.88,2.5,2.66.47.94,2.66-1.09,3.44-2.03,1.56h-1.09l-.78,3.75.47,2.81,3.12,4.22,1.56,5.16,1.41,4.53,1.25,2.97,3.28,5.62,1.41,2.5.47,2.81,1.56.94v2.34l-.78,1.88-1.72,6.88-.47,1.88,2.34,2.66,4.06.47,4.38,1.72,3.75,2.03h2.81l2.81,2.97,2.5,4.69,1.09,2.19,3.75,2.03,4.69.78,1.41,2.03.62,3.12-1.41.62.31.94,3.12.78,2.66.16,2.81,4.53,3.75,4.06.78,2.19,2.5,4.06.31,3.12v9.06l.47,1.72,9.69,1.41,19.06,2.66,14.06,1.56h0Zm-85.62-48.67l1.25,1.48-.16,1.25-3.13-.08-.55-1.17-.63-1.41,3.2-.08h0Zm1.88,0l1.17-.62,3.44,2.03,2.97,1.17-.86.62-4.38-.23-1.56-1.56s-.78-1.41-.78-1.41Zm20,19.14l1.72,2.27.78.94,1.48.55.55-1.41-.94-1.72-2.58-1.95-1.02.16v1.17Zm-1.41,8.36l1.72,3.05,1.17,1.88-1.41.23-1.25-1.17s-.7-1.41-.7-1.8v-2.11l.47-.08h0Z"/><path id="AZ" d="m127.38,368.38l-2.54,2.09-.31,1.41.47.94,18.28,10.31,11.72,7.34,14.22,8.28,16.25,9.69,11.88,2.34,25.84,3.39,1.98-12.86,3.63-26.02,6.73-51.42,4.11-29.77-24.86-3.71-26.3-4.42-32.31-6.11-2.82,17.49-.44.44-1.66,2.54-2.43-.11-1.22-2.65-2.65-.33-.88-1.1h-.88l-.88.55-1.88.99-.11,6.74-.22,1.66-.55,12.15-1.44,2.1-.55,3.2,2.65,4.75,1.22,5.63.77.99.99.55-.11,2.21-1.55,1.33-3.31,1.66-1.88,1.88-1.44,3.54-.55,4.75-2.76,2.65-1.99.66-.11,5.63-.44,1.66.44.77,3.54.55-.55,2.65-1.44,2.1-3.65.88h0Z"/><path id="NV" d="m130.2,165.48l20.28,4.36,9.39,1.88,8.95,1.77,7.79,2.04-1.16,5.36-3.43,16.9-3.65,19.78-1.88,8.62-2.1,13.15-3.2,16.02-3.09,14.69-1.9,10.15-2.85,17.14-.44.44-1.66,2.54-2.43-.11-1.22-2.65-2.65-.33-.88-1.1h-.88l-.88.55-1.88.99-.11,6.74-.22,1.66-.55,12.15-1.43,2.12-2.43-3.12-14.03-21.99-18.78-28.06-21.99-32.7-11.97-17.96,1.58-6.35,6.74-25.08,7.62-30.3,32.48,7.87,13.26,2.87"/><path id="UT" d="m239.53,294.36l-24.75-3.98-26.3-4.42-32.38-5.97,2-9.94,3.09-14.69,3.2-16.02,2.1-13.15,1.88-8.62,3.65-19.78,3.43-16.9,1.08-5.39,12.29,2.18,11.6,1.99,9.94,1.77,8.07,1.33,4.64.77-1.59,10.27-1.61,11.49,6.31.9,16.32,2.21,8.87,1.14-2.99,21.39-3.09,21.66-3.63,27.05-1.46,10.74-.66,3.98h0Z"/><path id="CO" d="m357.3,305.85l3.98-63.64,1.55-21.66-32.26-2.65-23.64-1.99-36.02-3.98-20-2.43-2.54,21.43-3.09,21.66-3.63,27.05-1.46,10.74-.55,3.76,33.26,3.98,35.7,4.28,31.67,2.13,6.44.66,11.05.55"/><path id="NM" d="m268.59,410.63l-.78-4.68,7.73.66,28.06,2.65,28.06,1.55,2.21-22.98,3.76-53.7,1.55-18.12,1.33.03v-11.32s-31.92-2.32-31.92-2.32l-35.7-4.28-33.31-3.98-4.06,29.73-6.73,51.42-3.63,26.02-1.98,12.86,14.94,1.92,1.25-9.69,16.09,2.5,13.12,1.72h0Z"/><path id="OR" d="m130.48,165.09l4.31-17.46,4.2-17.13,1.33-4.09,2.43-5.75-1.22-2.21-2.43.11-.77-.99.44-1.1.33-2.98,4.31-5.3,1.77-.44,1.1-1.1.55-3.09.88-.66,3.76-5.63,3.76-4.2.22-3.65-3.31-2.54-1.01-4.05-13.57-3.46-14.58-3.43-14.92.11-.44-1.33-5.3,1.99-4.31-.55-2.32-1.55-1.22.66-4.53-.22-1.66-1.33-5.08-1.99-.77.11-4.2-1.44-1.88,1.77-5.97-.33-5.75-3.98.66-.77.22-7.51-2.21-3.76-3.98-.55-.66-2.43-2.28-.45-5.6,1.99-2.19,6.25-3.12,9.69-3.12,6.25-4.84,13.59-6.25,13.12-7.81,12.19-1.88,2.81-.78,8.28-1.25,5.78,2.15,4.34,6.81,2.33,11.05,2.87,7.29,1.99,12.15,3.98,13.04,3.31,13.04,3.76m45.13,10.56l-45.35-10.69,32.48,7.87,13.26,2.87"/><path id="ND" d="m450.55,118.02l-.66-8.18-1.77-7.07-1.77-13.04-.44-9.5-1.77-3.31-1.55-4.86v-9.94l.66-3.76-1.89-5.31-28.4-.55-17.97-.62-25.62-1.25-24.11-1.82-1.22,13.75-1.33,14.58-2.18,24.11-.62,11.74,54.29,3.48,56.35,1.55h0Z"/><path id="SD" d="m451.99,191.01l-.92-1.98-1.62-2.73,1.77-4.2,1.33-5.52-2.65-1.99-.44-2.65.88-2.43h1.77l.44-6.63-.22-29.39-.44-2.87-3.98-3.31-1.1-1.77v-1.55l1.99-1.55,1.33-1.33.33-3.09-56.24-1.55-54.29-3.76-.74,5.1-1.56,15.34-1.3,17.35-1.55,24.86,15.03.99,19.45,1.1,17.24,1.1,22.98,1.1,10.39-.44,1.99,2.21,4.64,2.87,1.1.88,4.2-1.33,3.76-.44,2.65-.22,1.77,1.33,4.86,1.55,2.87,1.55.44,1.55.88,1.99h1.77l1.22-.16h0Z"/><path id="NE" d="m463.37,232.26l1.33,2.43-.22,2.21,2.43,3.76,3.09,3.98h-5.97l-42.65-.44-39.11-1.33-21.1-.77,1.66-21.54-32.26-2.65,4.2-42.54,15.03.99,19.45,1.1,17.24,1.1,22.98,1.1,10.39-.44,1.99,2.21,4.64,2.87,1.1.88,4.2-1.33,3.76-.44,2.65-.22,1.77,1.33,4.86,1.55,2.87,1.55.44,1.55.88,1.99h1.77l1.55-.11,1.1,5.19,2.65,7.29.88,4.64,2.21,3.54.66,5.08,1.55,3.98.22,6.41,1.87,5.32"/><path id="IA" d="m542.86,188.51l.06,1.77,2.21.66.88,1.1.44,1.77,3.76,3.31.66,2.21-.66,3.31-1.77,3.54-.66,2.43-2.21,1.77-1.77.66-5.08,1.33-.66,1.77-.66,1.99.66,1.33,1.77,1.55-.22,3.98-1.77,1.55-.66,1.55v2.65l-1.77.44-1.55,1.1-.22,1.33.22,1.99-1.66,1.71-3.2-3.26-1.1-2.21-7.51.66-9.5.44-24.53.88-13.04.22-9.06.22-1.05.12-1.6-5.2-.22-6.41-1.55-3.98-.66-5.08-2.21-3.54-.88-4.64-2.65-7.29-1.1-5.19-1.33-2.1-1.55-2.65,1.77-4.2,1.33-5.52-2.65-1.99-.44-2.65.88-2.43h12.82l47.95-.66,17.46-.66,3.98-.11.66,3.2,2.21,1.55.22,1.33-1.99,3.31.22,3.09,2.43,3.76,2.43,1.1,2.87.44,1.27,2.65h0Z"/><path id="MS" d="m598.78,445.19l-1.12,1.21h-5l-1.41-.78-2.03-.31-6.56,1.88-1.72-.78-2.5,4.06-1.07.75-1.09-2.4-1.1-3.76-3.31-3.09,1.1-7.29-.66-.88-1.77.22-7.95.66-23.42.66-.44-1.55.66-7.73,3.31-5.97,5.08-8.84-.88-1.99h1.1l.66-3.09-2.21-1.77.22-1.77-1.99-4.42-.28-5.17,1.33-2.57-.39-4.2-1.33-2.87,1.33-1.33-1.33-1.99.44-1.77.88-5.97,2.87-2.65-.66-1.99,3.54-5.08,2.65-.88v-2.43l-.66-1.33,2.65-5.08,2.65-1.1.1-3.3,8.39-.07,23.28-1.88,5.3-.22v6.16s.16,16.09.16,16.09l-.78,30-.16,13.59,2.66,18.13,1.43,14.88h0Z"/><path id="IN" d="m592.19,285.62l-.16-3.75.47-4.38,2.19-2.81,1.72-3.75,2.5-4.06-.47-5.62-1.72-2.66-.31-3.12.78-5.31-.47-6.72-1.25-15.47-1.25-14.84-.94-11.33,2.97.86,1.41.94,1.09-.31,2.03-1.88,2.73-1.56,4.92-.16,21.25-2.19,5.94-.62.16,1.09,1.41,14.22,1.72,13.28,2.5,22.66.47,5.47-.47,2.19,1.41,1.41.31,1.88-2.66,1.88-3.75,1.72-2.66.31-.47,4.38-4.53,3.75-2.81,3.44.31,2.19-.78,2.03h-4.53l-1.09-1.56-1.09.78-2.81,1.56.16,3.28-2.03.47-.78-1.09-1.88-1.56-2.81,1.41-1.72,3.12-1.72-.78-1.41-1.88-3.44.47-5.62.94-2.81,1.72h0Z"/><path id="IL" d="m592.03,285.47v-3.59l.47-4.38,2.19-2.81,1.72-3.75,2.5-4.06-.47-5.62-1.72-2.66-.31-3.12.78-5.31-.47-6.72-1.25-15.47-1.25-14.84-.78-11.25-1.25-.78-.78-2.5-1.25-3.59-1.56-1.72-1.41-2.5-.23-5.31-9.57,1.27-26.3,1.66-8.4-.41.22,2.29,2.21.66.88,1.1.44,1.77,3.76,3.31.66,2.21-.66,3.31-1.77,3.54-.66,2.43-2.21,1.77-1.77.66-5.08,1.33-.66,1.77-.66,1.99.66,1.33,1.77,1.55-.22,3.98-1.77,1.55-.66,1.55v2.65l-1.77.44-1.55,1.1-.22,1.33.22,1.99-1.66,1.27-.99,2.71.44,3.54,2.21,7.07,7.07,7.29,5.3,3.54-.22,4.2.88,1.33,6.19.44,2.65,1.33-.66,3.54-2.21,5.75-.66,3.09,2.21,3.76,6.19,5.08,4.42.66,1.99,4.86,1.99,3.09-.88,2.87,1.55,3.98,1.77,1.99,2.87-.33.55-1.98,2.19-1.72,2.03-.62,2.66,1.25,3.44,1.25,1.09-.31.16-2.19-1.25-2.34.31-2.19,1.88-1.41,2.5-.62,1.56-.62-.78-1.72-.62-1.88,1.09-.78.94-3.28h0Z"/><path id="MN" d="m450.33,118.02l-.44-8.18-1.77-7.07-1.77-13.04-.44-9.5-1.77-3.31-1.55-4.86v-9.94l.66-3.76-1.76-5.27,29.12.03.31-7.97.62-.16,2.19.47,1.88.78.78,5.31,1.41,5.94,1.56,1.56h4.69l.31,1.41,6.09.31v2.03h4.69l.31-1.25,1.09-1.09,2.19-.62,1.25.94h2.81l3.75,2.5,5.16,2.34,2.34.47.47-.94,1.41-.47.47,2.81,2.5,1.25.47-.47,1.25.16v2.03l2.5.94h2.97l1.56-.78,3.12-3.12,2.5-.47.78,1.72.47,1.25h.94l.94-.78,8.59-.31,1.72,2.97h.62l.69-1.05,4.29-.36-.59,2.2-3.81,1.78-8.94,3.93-4.61,1.94-2.97,2.5-2.34,3.44-2.19,3.75-1.72.78-4.38,4.84-1.25.16-3.28,2.97.66.53-2.72,2.62-.22,2.65v8.18l-1.1,1.55-5.08,3.76-2.21,5.75.44.22,2.43,1.99.66,3.09-1.77,3.09v3.76l.44,6.41,2.87,2.87h3.31l1.77,3.09,3.31.44,3.76,5.52,6.85,3.98,1.99,2.65.88,7.29h-3.98l-17.46.66-47.95.66h-11.16l.55-6.63-.22-29.39-.44-2.87-3.98-3.31-1.1-1.77v-1.55l1.99-1.55,1.33-1.33.22-3.09h0Z"/><path id="WI" d="m586.89,185.64l.14-4.08-1.56-4.38-.62-5.94-1.09-2.34.94-2.97.78-2.81,1.41-2.5-.62-3.28-.62-3.44.47-1.72,1.88-2.34.16-2.66-.78-1.25.62-2.5.47-3.12,2.66-5.47,2.81-6.56.16-2.19-.31-.94-.78.47-4.06,6.09-2.66,3.91-1.88,1.72-.78,2.19-1.41.78-1.09,1.88-1.41-.31-.16-1.72,1.25-2.34,2.03-4.53,1.72-1.56,1.06-2.21-1.58-.87-1.33-1.33-1.55-9.94-3.54-1.1-1.33-2.21-12.15-2.65-2.43-1.1-7.95-2.21-7.95-1.1-4.03-5.22-.51,1.22-1.09-.16-.62-1.09-2.66-.78-1.09.16-1.72.94-.94-.62.62-1.88,1.88-2.97,1.09-1.09-1.88-1.41-2.03.78-2.81,1.88-7.19,3.12-2.81.62-2.81-.47-.95-.85-2.05,2.74-.22,2.65v8.18l-1.1,1.55-5.08,3.76-2.21,5.75.44.22,2.43,1.99.66,3.09-1.77,3.09v3.76l.44,6.41,2.87,2.87h3.31l1.77,3.09,3.31.44,3.76,5.52,6.85,3.98,1.99,2.65.88,7.18.66,3.2,2.21,1.55.22,1.33-1.99,3.31.22,3.09,2.43,3.76,2.43,1.1,2.87.44,1.19,2.43h8.87s25.74-1.55,25.74-1.55l9.5-1.1h0Z"/><path id="MO" d="m532.09,235.14l-3.09-3.09-1.1-2.21-7.51.66-9.5.44-24.53.88-13.04.22-7.62.11-2.21.11,1.22,2.43-.22,2.21,2.43,3.76,2.98,3.98,2.98,2.65,2.21.22,1.33.88v2.87l-1.77,1.55-.44,2.21,1.99,3.31,2.43,2.87,2.43,1.77,1.33,11.27-.66,34.14.22,4.53.44,6.63,22.54-.44,22.54-.66,20.11-.88,10.61-.44,1.77,2.87-.44,2.21-3.09,2.65-.66,2.87,5.97.44,4.86-.66,1.99-6.19-.14-5.44,2.79-1.41,1.33-1.55,1.99-1.1.22-3.09.88-1.77-1.33-2.35-2.87.36-1.77-1.99-1.55-3.98.88-2.87-1.99-3.09-1.99-4.86-4.42-.66-6.19-5.08-2.21-3.76.66-3.09,2.21-5.75.66-3.54-2.65-1.33-6.19-.44-.88-1.33.22-4.2-5.3-3.54-7.07-7.29-2.21-7.07-.44-3.54.88-2.43h0Z"/><path id="AR" d="m566.41,327.26l-4.71.91-5.97-.44.66-2.87,3.09-2.65.44-2.21-1.77-2.87-10.61.44-20.11.88-22.54.66-22.54.44,1.55,6.63v7.95l1.33,10.61.22,36.57,2.21,1.88,2.87-1.33,2.65,1.1.64,10.86,21.46-.03,18.56-.88,10.44.14,1.44-2.57-.39-4.2-1.33-2.87,1.33-1.33-1.33-1.99.44-1.77.88-5.97,2.87-2.65-.66-1.99,3.54-5.08,2.65-.88v-2.43l-.66-1.33,2.65-5.08,2.65-1.1-.29-3.53,2.37-1.09.94-4.53-1.41-3.44,3.91-2.19.31-2.5,1.3-4.23.88-3.04h0Z"/><path id="OK" d="m357.03,305.63l-10.33-.44-6.21-.47.25.19-.52,11.16,21.08,1.05,30.05,1.1-1.33,22.98-.44,17.24.22,1.55,4.2,3.54,1.99,1.1.66-.22.66-1.99,1.33,1.77h1.99v-1.33l2.65,1.33-.44,3.76,3.98.22,2.43,1.1,3.98.66,2.43,1.77,2.21-1.99,3.31.66,2.43,3.31h.88v2.21l2.21.66,2.21-2.21,1.77.66h2.43l.88,2.43,4.64,1.77,1.33-.66,1.77-3.98h1.1l1.1,1.99,3.98.66,3.54,1.33,2.87.88,1.77-.88.66-2.43h4.2l1.99.88,2.65-1.99h1.1l.66,1.55h3.98l1.55-1.99,1.77.44,1.99,2.43,3.09,1.77,3.09.88,2.65,1.55-.22-36.9-1.33-10.61v-7.95l-1.55-6.63-.44-6.63-.22-4.31-12.82.77-44.86-.44-43.53-1.99-23.48-1.33h0Z"/><path id="KS" d="m481.71,308.72l-12.82.66-44.86-.44-43.53-1.99-23.34-1.22,4.01-63.64,21.1.77,39.11,1.33,42.65.44h5.86l2.98,2.65,2.21.22,1.33.88v2.87l-1.77,1.55-.44,2.21,1.99,3.31,2.43,2.87,2.43,1.77,1.33,11.27-.66,34.47h0Z"/><path id="LA" d="m577.5,451.02l-1.21-2.2-1.1-3.76-3.31-3.09,1.1-7.29-.66-.88-1.77.22-7.95.66-23.42.66-.44-1.55.66-7.73,3.31-5.97,5.08-8.84-.88-1.99h1.1l.66-3.09-2.21-1.77.22-1.77-1.99-4.42-.33-5.3h-10.5l-18.56.88-21.46.03.03,9.25.66,9.06.66,3.76,2.43,3.98.88,4.86,4.2,5.3.22,3.09.66.66-.66,8.18-2.87,4.86,1.55,1.99-.66,2.43-.66,7.07-1.33,3.09.12,3.5,4.53-1.47,7.81-.31,10,3.44,6.25,1.09,3.59-1.41,3.12,1.09,3.12.94.78-2.03-3.12-1.09-2.5.47-2.66-1.56s.16-1.25.78-1.41,2.97-.94,2.97-.94l1.72,1.41,1.72-.94,3.12.62,1.41,2.34.31,2.19,4.38.31,1.72,1.72-.78,1.56-1.25.78,1.56,1.56,8.12,3.44,3.44-1.25.94-2.34,2.5-.62,1.72-1.41,1.25.94.78,2.81-2.19.78.62.62,3.28-1.25,2.19-3.28.78-.47-2.03-.31.78-1.56-.16-1.41,2.03-.47,1.09-1.25.62.78s-.16,2.97.62,2.97,4.06.62,4.06.62l3.91,1.88.94,1.41h2.81l1.09.94,2.19-2.97v-1.41h-1.25l-3.28-2.66-5.62-.78-3.12-2.19,1.09-2.66,2.19.31.16-.62-1.72-.94v-.47h3.12l1.72-2.97-1.25-1.88-.31-2.66-1.41.16-1.88,2.03-.62,2.5-2.97-.62-.94-1.72,1.72-1.88,1.95-1.72.86-.7h0Z"/><g id="DC"><path id="DC-2" d="m767.55,237.23l.88-1.77,2.17,1.59-1.02,2.39-1.59-1.5-.44-.71h0Z"/><rect x="860.18" y="273.61" width="30.44" height="30.44"/><path class="white-fill" d="m875.28,289.34c0,3.01-2.25,5.29-5.16,5.29h-3.25v-10.5h3.25c2.91,0,5.16,2.19,5.16,5.21Zm-1.17,0c0-2.4-1.67-4.12-3.93-4.12h-2.19v8.34h2.19c2.25,0,3.93-1.8,3.93-4.21Z"/><path class="white-fill" d="m882,294.78c-3.03,0-5.25-2.34-5.25-5.43s2.22-5.37,5.25-5.37c1.98,0,3.74.99,4.37,2.46l-1,.5c-.55-1.12-1.84-1.86-3.36-1.86-2.4,0-4.08,1.83-4.08,4.28s1.68,4.33,4.08,4.33c1.59,0,2.96-.81,3.46-2.08l1.02.47c-.58,1.62-2.4,2.71-4.49,2.71Z"/></g><g id="DE"><path id="DE-2" d="m789.37,216.56l.78-2.03.23-1.25h-1.95l-2.03,1.56-1.41,1.41,1.41,4.06,2.19,5.47,2.03,9.38,1.56,6.09,4.84-.16,5.94-1.17-2.19-7.11-.94.47-3.44-2.34-1.72-4.53-1.88-3.44-2.19-.94-2.03-3.44.78-2.03h0Z"/><rect x="860.18" y="241.9" width="30.44" height="30.44"/><path class="white-fill" d="m876.89,257.62c0,3.01-2.25,5.29-5.16,5.29h-3.25v-10.5h3.25c2.91,0,5.16,2.19,5.16,5.21Zm-1.17,0c0-2.4-1.67-4.12-3.93-4.12h-2.19v8.34h2.19c2.25,0,3.93-1.8,3.93-4.21Z"/><path class="white-fill" d="m884.68,252.42v1.08h-4.74v3.27h4.23v1.08h-4.23v3.99h4.74v1.08h-5.87v-10.5h5.87Z"/></g><g id="CT"><path id="CT-2" d="m839.53,167.66l-.94-4.06-.78-4.22-1.56-5.78-5,1.09-21.09,4.61.62,3.2,1.41,7.03v7.81l-1.09,2.19,1.77,2.04,4.79-3.29,3.44-3.12,1.88-2.03.78.62,2.66-1.41,5-1.09,8.13-3.59h0Z"/><rect x="860.18" y="209.85" width="30.44" height="30.44"/><path class="white-fill" d="m872.59,231.02c-3.03,0-5.25-2.34-5.25-5.43s2.22-5.37,5.25-5.37c1.98,0,3.74.99,4.37,2.46l-1,.5c-.55-1.12-1.84-1.86-3.36-1.86-2.4,0-4.08,1.83-4.08,4.28s1.68,4.33,4.08,4.33c1.59,0,2.96-.81,3.46-2.08l1.02.47c-.58,1.62-2.4,2.71-4.49,2.71Z"/><path class="white-fill" d="m885.76,221.45h-3.45v9.42h-1.12v-9.42h-3.45v-1.08h8.03v1.08Z"/></g><g id="RI"><path id="RI-2" d="m839.06,167.66l-.47-4.06-.78-4.22-1.64-5.7,5.55-1.48,1.56,1.09,3.28,4.22,2.81,4.3-2.81,1.48-1.25-.16-1.09,1.72-2.34,1.88-2.81.94h0Z"/><rect x="860.18" y="177.81" width="30.44" height="30.44"/><path class="white-fill" d="m877.45,198.83l-2.94-4.5h-2.07v4.5h-1.12v-10.5h3.79c1.74,0,3.11,1.28,3.11,2.97,0,1.59-.98,2.73-2.46,2.98l3.06,4.54h-1.37Zm-5.01-5.58h2.64c1.15,0,1.99-.82,1.99-1.95s-.84-1.89-1.99-1.89h-2.64v3.84Z"/><path class="white-fill" d="m881.5,188.33v10.5h-1.12v-10.5h1.12Z"/></g></svg>