<?xml version="1.0" encoding="UTF-8"?><svg xmlns="http://www.w3.org/2000/svg" viewBox="0 0 989.98 627.07"><g><path id="49037" d="m290.68,284.82l-.79,8.01-.86,6.24-1.28,9.09-1.57,11.15-17.25-2.45-5.95-.9-2.94-.58-4.61-.7-11.93-1.87.55.05,1.33.03.46-1.19.92.8.28-.5.34.21.97-1.11.39.44.54-.22,2.25.21.61-.21,1.28-1.11.75-1.73.73-.91.14-.4-.62-.33.32-.38,1.32.82.88-.41.31-.48-.31-.7.3-.24.48.17.3-.67-.49-.11-.36-.49.71-.47,1.4.17-.54-.47.49-.93,1.13-.64.65-1.14,1.44-.51.64-1.19.71-1.2-.52-.74.9-.02.8-1.61,2.01.27,1.51-.12.08-1.13,1.58-1.25.98.34,1.4-2.37,1.63-.76.52-.55.18-1.15-.02-.97-.55-1.72-.78-1.19.43-2.22-.33-.43,17.08,2.45"/><path id="49017" d="m228.92,283.41l.63.05,6.77,1.19.43.13.87.18.63.1,1.94.21,7.58,1.28,5.06.77,21.31,3.28-1.63.76-1.4,2.37-.98-.34-1.58,1.25-.08,1.13-1.51.12-2.01-.27-.8,1.61-.9.02.52.74-.71,1.2-.64,1.19-1.44.51-.65,1.14-1.13.64-21.34-3.43-.09.06h-.15l-9.24-1.61.03-.17-5.56-.96.65-4.25.3-1.76,1.95.39.32-1.89,1.41.16.08-.3.5.04.33-1.63-.37-.1.88-3.81"/><path id="49029" d="m259.68,213.09l1.53.52.62,1.74-.34,1.08.96.66-.11.42-.17.32-.21.26-.45.39-1.88.31-.43.92-2.43.06-.33.2-.3.28-.79.78-.03.15.02.48.06.12.1.08.73.93.51,1.29.06.35-.94,1.41-.25.11-.29.06-.15-.02-1.35-.66-1.43-1.7-1.14-2.16.59.03-.74-2,.35-2.55-.2-.8.11-.36.38-.17.97-.28.41.05.46.15.12.33.3.4.51.23.5-.04,1-.89,1.82.36.59-.46.54-.55.17-.34-.06-.75.62-.72"/><path id="49011" d="m251.45,216.94l-.35,2.55.74,2-.59-.03,1.14,2.16-.28.13-.47.14-1.63.26-.79-.14-.42-.08-.46-.89.47-1.03.07-.4-.82-.14-2.61,1.25-2.35,1.39-2.71-7.6,4.36-.7,1.09-.14,2.68.46,2.92.8"/><path id="49057" d="m258.39,211.43l.29,1.07,1,.59-.62.72.06.75-.17.34-.54.55-.59.46-1.82-.36-1,.89-.5.04-.51-.23-.3-.4-.12-.33-.46-.15-.41-.05-.97.28-.38.17-.11.36.2.8-2.92-.8-2.68-.46-1.09.14-4.36.7,5.36-5.17,3.54.61,1.23-.46-.06-1.21,1.6.03.1.52.09.16,1.65.96.28.04.63-.92,3.58.37"/><path id="49033" d="m268.35,199.48l-2.73,17.14-2.14,1.37-1.96.48.45-.39.21-.26.17-.32.11-.42-.96-.66.34-1.08-.62-1.74-1.53-.52-1-.59-.29-1.07,1.8-2.76.51-2.17-.06-1.57-.73-3.55.15-.86.5-.04.06-2.22,7.74,1.21"/><path id="49005" d="m249.58,196.5l.92.15,10.12,1.64-.06,2.22-.5.04-.15.86.73,3.55.06,1.57-.51,2.17-1.8,2.76-3.58-.37-.63.92-.28-.04-1.65-.96-.09-.16-.1-.52-.65-.85.49.02.3-.41-.46-.43.05-.77-.24-.27-.09-.34-.97.38v-3.13s-.48-.93-.48-.93l.89-1.49.2-.91-.17-1.33-.4-.99-.52-.68-.44-1.68"/><path id="49003" d="m218.14,190.84l1.12.28,1.34.32.2.04,1.43.25.53.09,5.58.95.49.08,6.73,1.14,4.89.83,4.33.75,3.55.61h0l1.23.32.44,1.68.52.68.4.99.17,1.33-.2.91-.89,1.49.47.93v3.13s.98-.38.98-.38l.09.34.24.27-.05.77.46.43-.3.41-.49-.02.65.85-1.6-.03.06,1.21-1.23.46-3.54-.61-5.36,5.17-5.51.83-21.09-3.9,4.35-22.59"/><path id="49009" d="m298.78,227.44l-1.08,7.96-1.29-.18.08-.61-.64-.17.21-1.5.08-.85-.72-.13.27-1.62-3.28-.45-.29,1.71-1.63.81-.54-.21.26-1.27-.14-.6-1.37.13-1.31.21-1.31-.3-.39.48-1.12.02-.59.02-1.73-1.32-.38-.15.62-4.2h.02l2.47.35,2.39.34.67.1,8.02,1.07,2.69.39"/><path id="49035" d="m243.1,224.11l2.35-1.39,2.61-1.25.82.14-.07.4-.47,1.03.46.89.42.08.79.14,1.63-.26.47-.14.28-.13,1.43,1.7-.25,1.13.64,1.16-.43,1.12.82,1.17-.82.62-1.74.79-.7.02-1.04.06-.65.58-1.17.4-.24-.32-.83.41.08.43-1,.24-.73-.48-.25-.78-1.39.31-.69-.82-.3-1.1.39-2.16.02-2.24-.45-1.76"/><path id="49043" d="m265.62,216.63l-.93,5.8,9.3,1.54,7.73,1.11.81.12-.62,4.2-2.86-.4-3.11-.54-.27.57-3.27.11-1.41-.16-.75.37-1.07-.25-1.78.59-1.21-.49-.18.93-.82.32-.49,1.18-.26.23-.78.14-.65.05-.6-.44-.76.13-.6.45-1.32-.75-1.78-1.47-.56-1.28-.67-.02-.53.65-.67.88-.91-.29-.82-1.17.43-1.12-.64-1.16.25-1.13,1.35.66.15.02.29-.06.25-.11.94-1.41-.06-.35-.51-1.29-.73-.93-.1-.08-.06-.12-.02-.48.03-.15.79-.78.3-.28.33-.2,2.43-.06.43-.92,1.88-.31,1.96-.48,2.14-1.37"/><path id="49051" d="m254.6,229.91l.91.29.67-.88.53-.65.67.02.56,1.28,1.78,1.47,1.32.75.6-.45.76-.13.6.44.65-.05.78-.14.26-.23.49-1.18.82-.32-.92,5.65-1.07,8.01-.66,4.19-3.31-.54.17-.95-.85-.25.12-.35-.72-.88-.39-1.11-.5-.04-.11-.24-.02-.19.73-1.57-.62-2.2.31-.57-.19-.42-.42-.68-.04-.03-.04-.03-2.57-.53.25-.5-.36-.84-1.22-.38-.34-1.74-.52-.39.14-.37.49-.18.43-2.49.82-.62"/><path id="49049" d="m253.78,230.53l-.43,2.49-.49.18-.14.37.52.39.34,1.74,1.22.38.36.84-.25.5,2.57.53.04.03.04.03.42.68.19.42-.31.57.62,2.2-.73,1.57.02.19.11.24.5.04.39,1.11.72.88-.12.35.85.25-.17.95,3.31.54.52.1-.25,1.97-6.75-1.08-7.03-1.15-2.03-.33.62-.8.02-.41-.72-.81.13-.75-.39-.35-1.73.85-1.17,1.36-.05.27-.15.18-1.06.39-.47.08-.47-.15-.19-.1.5-1.59.15-.37.29-.34-.86-1.19.22-.96-.6-.16-.03-.73-.32-.17.1-1.56.43-.14.09-.47-.35-.47.18-.59.64-.32-.08-.53-.15-.24.06-.39-.42-1,.16-1.11.42-.6-.23-1.26.02-1.43.33-.21.42-.14.29.09.69.82,1.39-.31.25.78.73.48,1-.24-.08-.43.83-.41.24.32,1.17-.4.65-.58,1.04-.06.7-.02,1.74-.79"/><path id="49045" d="m213.79,213.43l21.09,3.9,5.51-.83,2.71,7.6.45,1.76-.02,2.24-.39,2.16.3,1.1-.29-.09-.42.14-.33.21-.02,1.43.23,1.26-.42.6-.16,1.11.42,1-.06.39.15.24.08.53-.64.32-.18.59.35.47-.09.47-.43.14-.1,1.56-1.13.62-.53.71-1.43-.13-.13.76-6.57-1.14-22.81-4.27.93-4.8,3.93-20.07"/><path id="49023" d="m241.53,241.74l.32.17.03.73.6.16-.22.96.86,1.19-.29.34-.15.37-.5,1.59.19.1.47.15.47-.08,1.06-.39.15-.18.05-.27,1.17-1.36,1.73-.85.39.35-.13.75.72.81-.02.41-.62.8,2.03.33-.05.39.35.08-.05.35.7.14-.25.96-.79-.21-1.49.81-.87,5.52-.57-.1-.25,1.61-3.05-.48-.13.49-.77-.11-.12.54-.78-.16-.09.5-.98-.18.05-.21-2.14-.49v-1.14s.27-1.5.27-1.5l.28-.8-.39-.72.49-.44-.04-.22-.1-.37-3.75-.64-1.19-.18-22.77-4.16-4.06-.55,1.6-8.26,22.81,4.27,6.57,1.14.13-.76,1.43.13.53-.71,1.13-.62"/><path id="49027" d="m207.33,246.56l4.06.55,22.77,4.16,1.19.18,3.75.64.1.37.04.22-.49.44.39.72-.28.8-.28,1.5v1.14s2.14.49,2.14.49l-.05.21.98.18-1.02,6.16-.53,1.13-.66-.08-.19.77-1.2-.08-.12.48-.26-.05-.13.65-.29-.03-.16.57-.29-.06-.11.36-.62-.08-.49,2.21.19.04-.16.84-.46-.02-.17.36h-.51s-.13.32-.13.32l-.56.18-.84-.07v-.28s-1.31-.17-1.31-.17l-.36.11-.43.61-.84,1.56-5.05-.9v-.05s-2.03-.41-2.03-.41l-19.86-3.61.47-2.38,3.82-19.69"/><path id="49041" d="m253.09,266.69l-.27,1.87-1.06,6.37-.14-.03-.58,3.71-8.15-1.15-5.21-.88.03-.19-1.11-.23-6.92-1.15.31-1.42.84-1.56.43-.61.36-.11,1.31.17v.28s.85.07.85.07l.56-.18.13-.31h.51s.17-.37.17-.37l.46.02.16-.84-.19-.04.49-2.21.62.08.11-.36.29.06.16-.57.29.03.13-.65.26.05.12-.48,1.2.08.19-.77.66.08.53-1.13,2.7.48-.05.33,9.8,1.57"/><path id="49039" d="m256.88,248.97l-1.28,7.92-.94-.15-1.58,9.96-9.8-1.57.05-.33-2.7-.48,1.02-6.16.09-.5.78.16.12-.54.77.11.13-.49,3.05.48.25-1.61.57.1.87-5.52,1.49-.81.79.21.25-.96-.7-.14.05-.35-.35-.08.05-.39,7.03,1.15"/><path id="49007" d="m256.88,248.97l6.75,1.08,5.55.9.22.07.09.09,9.56,1.46,1.44.22.11.31v.16s-.07.06-.07.06h-.07s-1.1.62-1.1.62l-.79.68-1.29,2.49-.26.73-.11,1.04v1.27s-18.35-2.85-18.35-2.85l-.26-1.63-.31-1.72-.48.19-.68-2.38-.18-.23-.18-.09.4-2.49"/><path id="49013" d="m281.91,229.39l.38.15-2.04,13.97-.54,3.95-.65,5.1-9.56-1.46-.09-.09-.22-.07-5.55-.9.25-1.97-.52-.1.66-4.19,1.07-8.01.92-5.65.18-.93,1.21.49,1.78-.59,1.07.25.75-.37,1.41.16,3.27-.11.27-.57,3.11.54,2.86.4"/><path id="49047" d="m282.29,229.55l1.73,1.32.59-.02,1.12-.02.39-.48,1.31.3,1.31-.21,1.37-.13.14.6-.26,1.27.54.21,1.63-.81.29-1.71,3.28.45-.27,1.62.72.13-.08.85-.21,1.5.64.17-.08.61,1.29.18-1.41,9.88-1.79,12.91-.51,3.74-1.09.68-16.01-2.29.02-.17v-1.27s.11-1.04.11-1.04l.26-.73,1.29-2.49.79-.68,1.1-.63h.07s.08-.05.08-.05v-.16s-.12-.31-.12-.31l-1.44-.22.65-5.1.54-3.95,2.04-13.97"/><path id="49019" d="m294,261.93l-1.19,8.56-.61,4.17-.13.88-.69,4.23-.7,5.05-17.08-2.45.63-.5.24-.84-1-.45.45-.48.28.37.27-.25v-.27l-.04-.21-.47.14-.2-.88-.97-1.45.74-1.2-.26-1.27-.8-1.19.03-1.58.37.03.61-3.3.66-.69.11-1.23.28-.55.83-.74.12-1.41,1.15-1.77.26-1v-1.29s16.02,2.29,16.02,2.29l1.09-.68"/><path id="49015" d="m256.48,251.45l.18.09.18.23.68,2.38.48-.19.31,1.72.26,1.63,18.35,2.85-.02.17v1.29s-.27,1-.27,1l-1.15,1.77-.12,1.41-.83.74-.28.55-.11,1.23-.66.69-.61,3.3-.37-.03-.03,1.58.8,1.19.26,1.27-.74,1.2.97,1.45.2.88.47-.14.04.21v.27l-.27.25-.28-.37-.45.48,1,.45-.24.84-.63.5-22.6-3.52.04-.23.58-3.71.14.03,1.06-6.37.27-1.87,1.58-9.95.94.15.88-5.43"/><path id="49055" d="m242.88,277.46l8.15,1.15-.04.23,22.61,3.52.33.43-.43,2.22.78,1.19.55,1.72.02.97-.18,1.15-.52.55-21.31-3.28-5.06-.77-7.58-1.28.32-1.89.63-4.39.57-.67,1.17-.85"/><path id="49031" d="m229.68,275.01l6.92,1.15,1.11.23-.03.19,5.21.88-1.17.85-.57.67-.63,4.39-.32,1.89-1.94-.21-.63-.1-.87-.18-.43-.13-6.77-1.19.44-.7.9-.51.32-.35-.09-.58.52-.61.38-1.38-.32-.11-.55-.92-.05-.72-.22-.12-.28.27-.27-.15-.1-.48-.6-1.12-.02-.2.08-.75"/><path id="49001" d="m203.04,268.63l19.86,3.61,2.04.41v.05s5.05.9,5.05.9l-.31,1.42-.08.75.02.2.6,1.12.1.48.27.15.28-.27.22.12.05.72.55.92.32.11-.38,1.38-.52.61.09.58-.32.35-.9.51-.44.7-.63-.05-27.73-5.12,1.85-9.66"/><path id="49021" d="m201.19,278.29l27.73,5.12-.88,3.81.37.1-.33,1.63-.5-.04-.08.3-1.41-.16-.32,1.89-1.95-.39-.3,1.76-.65,4.25-3.9-.75-.16,1.05-2.64-.55-.15.58-1.88-.38.05-.15-1.91-.29.17-1.16-3.87-.75.32-1.92-2.1-.48-.05.35-7.98-1.45,2.43-12.37"/><path id="49053" d="m198.76,290.66l7.98,1.45.05-.35,2.1.48-.32,1.92,3.87.75-.17,1.16,1.91.29-.05.15,1.88.38.15-.58,2.64.55-2.02,11.39-20.63-3.84,2.61-13.76"/><path id="49025" d="m218.8,296.86l.16-1.05,3.9.75,5.56.96-.03.17,9.24,1.61h.15l.09-.06,21.34,3.43-.49.93.54.47-1.4-.17-.71.47.36.49.49.11-.3.67-.48-.17-.3.24.31.7-.31.48-.88.41-1.32-.82-.32.38.62.33-.14.4-.73.91-.75,1.73-1.28,1.11-.61.21-2.25-.21-.54.22-.39-.44-.97,1.11-.34-.21-.28.5-.92-.8-.46,1.19-1.33-.03-.55-.05-20.26-3.41-6.45-1.14,2.02-11.39"/></g></svg>