<?xml version="1.0" encoding="UTF-8"?><svg xmlns="http://www.w3.org/2000/svg" viewBox="0 0 989.98 627.07"><g><path id="50009" d="m911.49,100.8l6.2-1.72-.39.79,1.13,1.53-1.16,4.11.14.38.6.6.74.91.4.5.07.11.42.67-.54.93.32,1.07-.19.51-.08.14-.8,1.4-.07.1-.09.14-.22.29-.04.06-.52.38-.34-.03-1.08,1.4-1.81-1.48.49-.43.52-1.06-1.13-.96.68-1.72-1.32-.5.7-1.88-1.93-.74-.64-.25,1.04-2.37-1.01-.52-.1-2.39"/><path id="50019" d="m911.59,103.2l1.01.52-1.04,2.37.64.25-.7,1.83-1.83-.7.75,1.43-1.03-.28-1.01,4.09-2.01-.48.07-.24-1.95-.55.49-2.12-2.95-.68.52-1.4-.64-1.93.12-.18-.78-1.71,4.17-.91.7-.04,3.41-1.02,1.97-.65.1,2.4Z"/><path id="50003" d="m906.71,143.73l-.51-.04.26,1.32-.16.02.4,2.09-2.12.38.08.48.79,3.8,1.43-.27.9,4.25-1.53.32-3.98.86-.45.13-.69-1.54.35-1.03-.45-1.96-1.72-8.4,6.35-1.24.86-.16.18.98"/><path id="50013" d="m891.04,105.86l-.18,1.31-.19.26.4.6.63.06.05,1.31.16.42v.29s-.34.24-.34.24l-.26.99.19.42.6.61.22.87-.06.19.13.62-.24.14-.03.36.17.57-.2.51-1.33.96-.27-.22-.29-.97-.13-.89-.08-1.59.12-1.79-1-.72-.04-.96.33-1.07-.17-.83-.62-.64.03-.39,2.38-.64"/><path id="50023" d="m905.87,114.2l3.81.97.06.05.12.22-.03.37-.35,1.38-.6,1.11.2.62-.45,1.76-.92-.17.13,2.15-2.05-.33-.04.27-.46-.05-.18,1.79-.15-.04-.3,1.92-1.02-.14-2.76-.41-.34.12-.71-1.92-.31.1.27-2.79-.27-.07.44-2.1h.53s.15-.78.15-.78l-.64-.13.27-1.21h.75s1.95.59,1.95.59l.56-1.99,1.89.72.44-2.03"/><path id="50005" d="m912.21,106.33l1.93.74-.7,1.88,1.32.5-.68,1.72,1.13.96-.52,1.06-.49.43,1.81,1.48-1.12.71-1.11.69-.08.08-.05.04-.54.97-.06.23v.14l.53,1.84.3.4.27.22-2.28-.27-2.11.75-1.12-.21.45-1.76-.2-.62.6-1.11.35-1.38.03-.37-.12-.22-.06-.05-3.81-.97.51-1.98,2.01.48,1.01-4.09,1.03.28-.75-1.43,1.83.7.7-1.83"/><path id="50015" d="m902.04,108.63l2.95.68-.49,2.12,1.95.55-.07.24-.51,1.98-.44,2.03-1.89-.72-.56,1.99-1.95-.59h-.75s-.54-.05-.54-.05l.29-1.24-.47-.14.19-.8-.35.02-1.7-1.44-.33.06v-.49s.41-.03.41-.03l.41-1.58.93.18v-1.04s.17-.03.17-.03v-.63s.04-.51.04-.51l2.06-.88.65.31"/><path id="50011" d="m901.25,103.41l.78,1.71-.12.18.64,1.93-.52,1.4-.65-.31-2.06.88-.05.51v.63s-.17.03-.17.03v1.04s-.92-.18-.92-.18l-.41,1.58-.42.03v.49s-1.9,0-1.9,0l-3.36-.95-.6-.61-.19-.42.26-.99.33-.24v-.29s-.16-.42-.16-.42l-.05-1.31-.63-.06-.4-.6.19-.26.18-1.31,10.22-2.45"/><path id="50007" d="m892.12,112.37l3.36.95h1.9s.33-.07.33-.07l1.7,1.44.35-.02-.19.8.47.14-.29,1.24.54.04-.27,1.21.64.13-.15.77h-.53s-.44,2.11-.44,2.11l.27.07-.27,2.79-.73-1.91-.31-1.07-.76.02.11.41-.84.31-.05-.1-3.04,1.38-.87.1-.63-2.38.18-1.38-.03-.25h0s-.3-.81-.3-.81l-.23-.5-.76-.92-.47-.27,1.33-.96.2-.51-.17-.57.03-.36.24-.14-.13-.62.06-.19-.22-.87"/><path id="50001" d="m893.03,123.11l.87-.1,3.04-1.38.05.1.84-.31-.11-.41.76-.02.31,1.07.73,1.91.31-.1.71,1.92.34-.12,2.76.41-.42,1.71-.23.74-.1-.03-.34,1.73-.22-.09-.14-.67-1.34,1.13.28.61.15.27-.84.71-.42-.88-2,.59-.97.37.58,1.54-2.42.9-.6-1.16-.28-.51-1.45-4.24-.51-.36-.04-.76v-2.65s.68-1.92.68-1.92"/><path id="50021" d="m895.21,134.72l2.42-.9-.58-1.54.97-.37,2-.59.42.88.84-.71,1.18-1.04.08.4.54.12.12-.27.67.08.29.31-.23,1.61.23.02-.11.65,2.2.31-.38,2.31-.38.07.2,2.11.35.02.09.38.49-.02.35.16v.94s-.23,1.49-.23,1.49l-.83-.17-.42.23.09.55-.19.11.28,1.05-6.35,1.24-.97-4.52-.44-1.12-.8-.27-.45-.91-1.08.15v1.53s-.54-.23-.54-.23l-.06-.09-.16-1.34.09-.93.31-1.7"/><path id="50025" d="m906.71,143.73l2.35.2,2.09-.84,1.98-.43.06,1.7.38,1.07-.17,1.45.46,1.28-1.02,1.05.26.93-.37,1.05.38.56.6.88,1.84,1.48-7.77,1.66-.9-4.25-1.43.27-.79-3.8-.08-.48,2.12-.38-.4-2.09.16-.02-.26-1.32.51.04"/><path id="50027" d="m903.23,127.8l.1.35.22.35,1.31.11,1.89.23,4.82.55,2.15.3-.58,1.01-.33.19-.42.85.23.58-.29,1.29.37.42-.77.85.15,1.21.45,3.68.35-.02-.07.63.41.27-.07,2.01-1.98.43-2.09.84-2.35-.2-.18-.98-.86.16-.28-1.05.19-.11-.09-.55.42-.23.83.17.24-1.49v-.94s-.36-.16-.36-.16l-.49.02-.09-.38-.35-.02-.2-2.11.38-.07.38-2.31-2.2-.31.11-.65-.23-.02.23-1.61-.29-.31-.67-.08-.12.27-.54-.12-.08-.4-1.18,1.04-.15-.27-.28-.61,1.34-1.13.14.67.22.09.34-1.77.1.03.23-.69"/><path id="50017" d="m914.15,120.42l-.06,1.16.35.31-.29.85-.32,1.69.4.47-.11,1.2-.63,1.27.27,1.16-.06,1.16-2.15-.3-4.82-.55-1.89-.23-1.31-.11-.22-.35-.1-.36.42-1.71,1.02.14.3-1.92.15.04.18-1.79.46.05.04-.27,2.05.33-.13-2.15.92.17,1.12.21,2.11-.75,2.28.27"/></g></svg>