<?xml version="1.0" encoding="UTF-8"?><svg xmlns="http://www.w3.org/2000/svg" viewBox="0 0 989.98 627.07"><g><path id="51131" d="m885.38,284.15l-1.74.52h0s-.08.67-.08.67l-.06.52-.08,1.58-.09,2.44v.33s.05.67.05.67l.11.72.47,1.13,1.03,1.57.03.51.58-.15.13-.05-.26-.92-.31-3.72.68-1.78,1.14-.44-.56-.47v-1.19s-.13-.08-.13-.08l-.07-.17.03-.06.11-.07.14-.24-.1-.93-1.01-.41Zm3.52,1.43l-.92.41.37.41-.14,2.2-.46,1.37.66-1,.59-2.84v-.38s-.1-.17-.1-.17Zm-1.48,4.77l-.05.7.16.19.13-.24-.24-.65Zm.48,1.26l-.52-.06-.31.59-.41,1.06-.39,1.22.05-.02.14-.13.13-.17.03-.05.79-1.22v-.02s.21-.36.21-.36l.18-.34.1-.51Zm-1.49-2.92l-.53.2-.26,1.7.3.15-.39,1.42.42,1.68.35-1.5v-.98s.41-.37.41-.37l-.64-.55.33-1.76Z"/><path id="51027" d="m776.31,304.41l.62.23-.06.36-.81.73-.05.15.13.34,1.3.74.25,1.46,1.51,1.32h0l.21.11,2.04.74-.36.99-1.78,1.15-.64.97-1.44.3-.2.15-.12.38-.03.31v.52s-.15.27-.15.27l-.68.49-1.17.16-.14-.03-.46-1.62-1.4-1.46-.61-1.65-1.25-.78,5.28-6.35"/><path id="51185" d="m787.68,307.24l3.01,2.07-.85.62.49.92-1.25.84,1.38.32-.08.8-1.17.88-1.02.23-.41.44-.58.11.48.59-.46.48-.16-.48-.53.26-.92.54-1.09,1.03-.98.61-.61-.89-1.26.57-2.99-3.48.64-.97,1.78-1.15.36-.99,1.2.71,2.11-.42.06-.03.79-.72v-.02s1.33-1.4,1.33-1.4l.73-1.48"/><path id="51173" d="m788.93,316.21l1.27,1.34v.29s1.54,2.37,1.54,2.37l-1.84.71-1.17.83-1.65.52.32.8-1.45.95-.23.15-1.99-3.34-2.96-2.82.92-.83,1.26-.57.61.89.98-.61,1.09-1.03.92-.54.53-.26.16.48.46-.48,1.24,1.16"/><path id="51520" d="m776.3,326.5l-1.77.24.54-.44.35-.23.74-.47.58-.22.28.2-.73.92"/><path id="51191" d="m780.76,318l2.96,2.82,1.99,3.34.23-.15.1.55-.76.18-3.27.44-1.75.21-.13.54-3.85.55.73-.92-.28-.2-.58.22-.74.47-.35.23-.54.44-.91.14-1.07-2.51,2.45-1.83,1.42-.67-.25-.55.21-.55,1.9-1.15.11.15.64-.16.98-.5.75-1.12"/><path id="51167" d="m778.69,313.7l2.99,3.48-.92.83-.75,1.12-.98.5-.64.16-.11-.15-1.9,1.15-.21.55.25.55-1.42.67-2.45,1.83-1.9-3.63,1.93-.89-.82-1.48,3-2.1.14.03,1.17-.16.68-.49.16-.27v-.52s.03-.31.03-.31l.12-.38.2-.15,1.44-.3"/><path id="51720" d="m766.8,319.72l.03.39-.38.04-.08.25.19.35-.57.2-.21-.57.37-.63.66-.03Z"/><path id="51195" d="m766.94,313.66l.32,1.8,1.25,1.77.07.47h.31s2.04.98,2.04.98l.19.31.27-.13.38-.51.82,1.48-1.93.89-2.57.38-1.4.16-.98,1.61-1.09-.25-.3.54-.17.41-1.29-.92-.94-1.25.07-1.74.79-.73,1.62-.98-.13-1.95,2.48-2.2.2-.14h0Zm-.79,6.09l-.37.63.21.57.57-.2-.19-.35.08-.25.38-.04-.03-.39-.66.03Z"/><path id="51051" d="m771.03,310.75l1.25.78.61,1.65,1.4,1.46.46,1.62-3,2.1-.38.51-.27.13-.19-.31-2.04-.99h-.31s-.07-.46-.07-.46l-1.25-1.77-.32-1.8.71-.51,2.72-1.53.68-.87"/><path id="51169" d="m764.13,323.58l.17-.41.3-.54,1.09.25.98-1.61,1.4-.16,2.57-.38,1.9,3.63,1.07,2.51-5.71.85-4.02.57-2.8.39.42-1.97.72-.65,1.35-.78-.32-.43.87-1.27"/><path id="51105" d="m764.13,323.58l-.87,1.27.32.43-1.35.78-.72.65-.42,1.97-8.86,1.12-3.7.41,3.7-1.99,1.1-.36,3.46-2,1.11-.09.71-2.67,1.73-.09,1.18-.95.38-.66.94,1.25,1.29.92"/><path id="51021" d="m790.69,309.31l2.1-1.27,2.1-.75-.34.58,2.27,1.76.39-.37.31.29-.34.34.5.37-1.18,1.01.41.85-2.11,1-1.11.82-.41-.24-.9.35-1-.45-1.01.84-1.44,1.78-1.24-1.16-.48-.59.58-.11.41-.44,1.02-.23,1.17-.88.08-.8-1.38-.32,1.25-.84-.49-.92.85-.62"/><path id="51077" d="m795.27,318.78l2.39,2.73-.12.16-.07.24.1.19h.24s.16.15.16.15v.36s.26,0,.26,0l.04-.64,1.86,1.7-1.17.12-8.23,1-5.92.6.47-.63.76-.18-.1-.55,1.45-.95-.32-.8,1.65-.52,1.17-.83,1.84-.71,2.92-.51.02-.44.59-.48"/><path id="51640" d="m797.66,321.51h0l.17-.14.09-.32.5-.2.3.11-.32.63-.09.22-.03.15-.04.64h-.27s0-.35,0-.35l-.16-.14h-.24s-.1-.2-.1-.2l.07-.24.12-.16"/><path id="51197" d="m800.72,316.07l-5.45,2.71-.59.48-.02.44-2.92.51-1.54-2.37v-.29s-1.26-1.34-1.26-1.34l1.44-1.78,1.01-.84,1,.45.9-.35.41.24,1.11-.82,2.11-1,.54.97,3.27,2.97"/><path id="51071" d="m798.35,304.86l2.23-1.68.19-.15,1.81-1.43.86,1.24,1.16,2.35-1.11,1.28-1.74.84-1.02.74-1.18.74-.96.55-.93.93-.5-.37.34-.34-.31-.29-.39.37-2.27-1.76.34-.58,1.29-.64.92-.96-.78-.69.3-.53-.06-.64,1.8,1.04Z"/><path id="51750" d="m802.77,310.95l-.12-.03-.19-.22-.11-.17-.07-.26.07-.26.3-.22.32-.21.18-.03.28.16.11-.21.19-.13.14.1.11.29-.22.29-.6.27.04.39-.41.27"/><path id="51155" d="m801.75,307.31l-.04.99.56.52.49-.45.74-.28.1.31-.61.2-.28.34.35.43.26-.07.19.03.21.03-.22.21-.09.15-.27-.18-.18.03-.32.21-.3.22-.07.26.07.26.11.17.19.22.12.03.16.26.37.04.07.58.48,1.24-1.42,1.47-.89,1.34-.84.18-3.27-2.97-.54-.97-.41-.85,1.18-1.01.93-.93.96-.55,1.18-.74,1.02-.74"/><path id="51610" d="m856.18,259.15l-.16.14-.35-.08-.3.05-.1-.48.29.05.62.33"/><path id="51013" d="m856.36,257.56l.67.55.8.35.47.92.03.31-.79.05.02.3-.67-.4-.73-.49-.62-.33.81-1.26"/><path id="51035" d="m802.44,314.55l3.9,4.6.12.8-.87.44-.11.29-.26.12-.17-.28-.59.03h-.21s-.1.06-.1.06l-.25.92-.08.42.41,1.07-4.09.64-1.86-1.7.03-.15.09-.22.32-.63-.3-.11-.5.2-.09.32-.17.14h0l-2.39-2.73,5.45-2.71.84-.18.89-1.34"/><path id="51089" d="m820.52,320.67l-5.65.95-.47.08-.2-1.54-.33-1.01-.14-.24-.27-.3-.47-.88v-1.09s-.24-.24-.24-.24l.2-.23.7-.27.5.14.07-1,3.72.14.23-.2.62.11.28-.64,1.11-.55.32-.44.04,7.19h0Zm-4.1-2.44l.93.14.06.33.57-.07-.02-.23-.33-.33v-.73s-.95-.04-.95-.04l-.09.27-.17.67Z"/><path id="51141" d="m809.81,314.8l2.96.16.87.96-.7.27-.2.23.22.24v1.09s.49.88.49.88l.27.3.14.24.33,1.01.2,1.54-7.02.99-3.14.34-.41-1.07.08-.42.25-.92.1-.05h.21s.59-.04.59-.04l.17.28.26-.12.11-.29.87-.44-.12-.8.24-1.02.97-.19-.04-1.34.54-.2.26-.54,1.52-1.06"/><path id="51063" d="m810.81,308.66l.8,2.01-.4,1.77-.53.14-.88,2.22-1.52,1.06-.26.54-.54.2.04,1.34-.97.19-.24,1.02-3.9-4.6,1.42-1.47,1.26-.4.55-.65.8.03.81-.48.05-.14.85-1.29,1.77-1.11.86-.37"/><path id="51121" d="m807.57,304.09l.63,1.17,1.06,1.09.64,2.3.05.39-1.77,1.11-.85,1.29-.05.14-.81.48-.8-.03-.55.65-1.26.4-.48-1.24-.07-.58-.37-.04-.16-.26.41-.27-.04-.39.6-.27.22-.29-.11-.29-.14-.1-.21-.03-.19-.03-.26.07-.35-.43.28-.34.61-.2-.1-.31-.74.28-.49.45-.56-.52.04-.99,1.74-.84,1.11-1.28,1.75-1.47,1.21.37"/><path id="51775" d="m811.68,303.97l-.05.11.41.26-.05.34.26.18-.08.39-.32.12.15.27-.37-.11-.45.13-.33-.53-.37-.11h-.28s.59-.31.59-.31l.45-.47.43-.25"/><path id="51067" d="m815.45,305.47l1.28-.25.29.67.91-.04.24.75.8-.03,1.05,1.16.7,1.26-.23,4.47-.32.44-1.11.55-.28.64-.62-.11-.23.2-3.72-.14-.07,1-.5-.14-.87-.96-2.96-.16.88-2.22.53-.14.4-1.77-.8-2.01.61-.91.79-.38.54-.24.56.65.4.07.14-.08.63-.72.96-1.58"/><path id="51019" d="m821.21,295.25l.22.35.35-.24.54.3,1,1.53.93.32.58-.24.49-.12.89.75-.48.16-.23.16-.25.39-.46-.08.13.58.41.09-.17.43.49.21-.33,1.03-2.03,7.23-.78-.02-.11.15.25.31-.02.21.47.26-.35.37-.88-.61-.48-.23-.18.42-.53.04-.7-1.26-1.05-1.16-.8.03-.24-.75-.91.04-.29-.67-1.28.25-.34-1.9.77-.88.04-.33.13-.45-.57-.16-.12-.39.39-.26,1.53-1.85.18-.18.32-.1.14.04.26.19.33.33.61.04.09-.03.09-.07.15-.27-.15-.32.36-.55.32-.05.51-.91.43-.39.48-.56-.4-.86.24-.3h0s0,0,0,0Z"/><path id="51161" d="m810.43,301.97l4.38,1.25.3.35.34,1.9-.96,1.58-.63.72-.14.08-.4-.07-.56-.65-.54.24-.79.38-.61.91-.86.37-.05-.39-.64-2.3-1.06-1.09-.63-1.17.17-.29.8-.76,1.12-.47.77-.6h0s0,0,0,0Zm1.25,2l-.43.25-.45.47-.59.32h.28s.37.1.37.1l.33.53.45-.13.37.11.06.11.47-.29,1.03.68.02-.34.46.03.24-.59-.17-.74.42-.25-.09-.27-.08-.07-.44-.24-.77.04-.41-.22-.48.47-.53-.04-.04.08"/><path id="51005" d="m808.92,289.5l.54.17.37-.52,1.2-.06.04.02.91,1.14.3.23,2.37-.22,1.32.69.44-.83.94-.03-.93,2.58-2.69-.42-.43.51.05.1-.09.33-.22.4-.62.95-1.39,1.52-.33.31-.37-.1-1.64,1.64-1.16-.27-.32-.22-1.59-1.24,1.29-3.54,2-3.13h0s0,0,0,0h0s0,0,0,0Zm1.49,3.2l.1.69-.13.52.33.23.29-.17-.02-.57-.23-.42-.14-.36-.2.08"/><path id="51045" d="m810.7,296.36l-.17.24.14.31,1.35,1.65-1.01,2.55-.58.86-.77.6-1.12.47-.8.76-.17.29-1.21-.37-1.75,1.47-1.16-2.35.87-.79.77-.57.08-.28.71-.38.36-.37.18-.52-.21-.12-.27.34-.49-.14.32-.25-.2-.51.61-.58,1.04-1.25.32.22,1.16.27,1.64-1.64.37.1"/><path id="51023" d="m816.42,292.66v.34s-.07.36-.07.36l.36.68.14.27-.15.65,2.2,1.24-.03.38,1.6.8-.51.91-.32.05-.36.55.15.32-.15.27-.09.07-.09.03-.61-.04-.33-.33-.26-.19-.14-.04-.32.1-.18.18-1.53,1.85-.39.26.12.39.57.16-.13.45-.04.33-.77.88-.3-.35-4.38-1.25.58-.86,1.01-2.55-1.35-1.65-.14-.31.17-.24.33-.31,1.39-1.52.62-.95.22-.4.09-.33-.05-.1.43-.51,2.69.42"/><path id="51009" d="m825.17,290.17l.53-.19.4.2.24.3.49-.09.31.18.28,1.33,1.39.25.24.26.33.06,1.56,2.61h.62s-.52.66-.52.66v.43s-.39.37-.39.37l-.46-.25.25.58-.41.27-.3.32-.3.72-.48.11v.31s-.42-.01-.42-.01l.23.68h-.39s-.54-.34-.54-.34l-.16.27-.92-.97-.54-.35-.89-.75-.49.12-.58.24-.93-.32-1-1.53-.54-.3-.35.24-.22-.35h.21l.39-.32.57-.56.3-.4.38-1.78.24-.8.17-.38.39-.65.17-.19.74.42.4-.42"/><path id="51163" d="m818.53,284.69l2.91,1.51,3.07,1.48.57.44.36.87-.27,1.18-.4.42-.74-.42-.17.19-.39.65-.17.38-.24.8-.38,1.78-.3.4-.57.56-.39.32h-.21l-.24.3.4.86-.48.56-.43.39-1.6-.8.03-.38-2.2-1.24.15-.65-.14-.27-.36-.68.08-.36v-.34s.92-2.58.92-2.58l-.94.03.64-1.71,1.3-2.27-.34-.09.53-1.36h0s0,0,0,0Zm2.34,6.7l-.49-.16-.21.17-.09.19.03.27.2.15.56-.62Zm.86.99l.18.51-.13.32.21.18.26-.36.37-.59-.04-.7-.29.02-.24.35-.31.27Z"/><path id="51017" d="m812.3,281.57l.88.41.84.31,2.65.07.95.26-.21.84.9-.58.9.03-.69,1.76-.53,1.36.34.09-1.3,2.27-.64,1.71-.44.83-1.32-.69-2.37.22-.3-.23-.91-1.14-.04-.02-1.2.06-.37.52-.54-.17,1.24-2.84.49-.94-.32-1.6,1.33-1.6.64-.94"/><path id="51091" d="m820.22,276.72l-.03.32.35.34-.47.44-.85,2.42.15.66-.51.79-.67.04-.13.46-.44.43-.95-.26-2.65-.07-.84-.31-.88-.41-.43-.88v-.11s1.11-1.71,1.11-1.71l.47-1.69.09-1.62.03-1.9,1.78.43.36.16.34.34,1.09,1.62,3.08.52"/><path id="51079" d="m834.72,273.86l.35-1.34.55.64.38,1.79,2.11,1.84.75-.18-1.09,2.25-5.57-1.16,1.58-1.64.94-2.22"/><path id="51165" d="m823.27,267.95l.82-1.91,2.46,1.27,4.65,2.88-.47,2.29,1.42.73,1.34.54.28.09.95.02-.94,2.22-1.58,1.64.21.66-.53.08-.6.69-.31.48-2.9-1.72-.33.08-6.29-3.05,1.81-6.98h0s0,0,0,0Zm4.78,6.08l.2.3v.19s.3-.16.3-.16l.03.28.21.09.02.43-.44.21-.53.15-.04.47-.41.1-.09-.14.18-.54-.16-.28-.18-.1.15-.47.2-.03.2-.73.36.24Z"/><path id="51015" d="m820.22,276.72l1.25-1.8,6.29,3.05.33-.08,2.9,1.72-.11.64-.1,1.16.21.88v.21l-.24.43-.68.59-.16.45-.41.2v.68s-.25.22-.25.22l-.02.29.26.05-.06.3.07.34-.39.09-.04.13-.33.06-.82,1.45-.85-.13-.12-.41-.45.06-.25.27-1.15.55-.57-.44-3.07-1.48-2.91-1.51.69-1.76-.9-.03-.9.58.21-.84.44-.43.13-.46.67-.04.51-.79-.15-.66.85-2.42.47-.44-.35-.34.03-.32h0Zm4.82,4.51l-.2.35-.05.4.14.39.45.24.27-.19.5.15.34-.35.09-.36v-.43s-.22-.16-.22-.16l.19-.21-.46-.24-.22.28-.83.13Zm3.13,2.58l-.09-.32.19-.29.06-.33.54-.24.6-.08.12.38.19.06-.17.37.08.28-.42-.03-.51.57-.23-.29-.36-.08Z"/><path id="51125" d="m830.06,283.53l4.2,5.91-.25.41.5.37.34-.15-.07.31-.23.48.36.44-.09.18-.25.03-.38-.39-.21.16.11.39-.39.3.05.71-1.4.03-.38.53.38.42-.33.48.32.28v.39s-.12.44-.12.44l-.09.22-.31-.4-.25.02h-.62s-1.56-2.62-1.56-2.62l-.33-.06-.24-.26-1.39-.25-.28-1.33-.31-.18-.49.09-.24-.3-.4-.2-.53.19.27-1.18-.36-.87,1.15-.55.25-.27.45-.06.12.41.85.13.82-1.45.33-.06.04-.13.39-.09-.07-.34.06-.3-.26-.05.02-.29.26-.22v-.68s.4-.2.4-.2l.16-.45"/><path id="51029" d="m842.2,289.69l.07,1.29-1.19,3.4-1.46,4.08-.88.17-.79-.15-.75-.91-.21-.13-.21.51-.53-.31-.16-.34-.47-.06-3.28-2.45v-.39s-.33-.28-.33-.28l.33-.48-.38-.42.38-.53,1.4-.03-.05-.71.39-.3-.11-.39.21-.16.38.39.25-.03.09-.18-.36-.44.23-.48.07-.31.06-.15.36-.28.83-.24.44-.31.63.11.09-.08.03-.09-.05-.72.27.07.43.58,1.15.38.79-.07.76.26.56-.02.35.2h.66"/><path id="51011" d="m837.2,297.57l-.05,1.11.15.26-.48.44-.74,1.81-.28.35-.3.04-.17.45-.41.11-.45.02-.13.2-.21.49-.34-.09-.73-.09-.02-.59-.6-.1-.62.22-.05-.63-.46-.27-1.89-3.12.3-.72.3-.32.41-.27-.25-.58.46.25.4-.37v-.43s.51-.65.51-.65l.25-.02.31.4.09-.22.13-.44,3.28,2.45.47.06.16.34.53.31.21-.51.21.13"/><path id="51031" d="m828.38,299.3h.39s-.23-.69-.23-.69h.42s0-.3,0-.3l.48-.11,1.89,3.12.46.27.05.63.62-.22.6.1.02.59.73.09-.56,4.4-1.31-.37-.5.49-.89-.13-.84-.39-.48.1-.22-.3-.37.2-.3.25h-.21s-.21-.19-.21-.19l-.21.41-.21-.27-.03-.99-.24-.04-.14.15.04.28-.19.02-.13-.3-.29-.36-.27.16-.03.44-.35.09-.65-.27-.38-.22-.08.31-.54.18.23.34-.51.35.05.66-.65.29,2.03-7.23.9.28.72-.29.28-.57.66-.32.46-.66"/><path id="51083" d="m829.69,306.77l.84.39.89.13.5-.49,1.31.37.22.2-.05.72,1.47-.4.61.61.14-.77.28-.11-.17-.27.13-.21.21.15.04.31.48.99-.38.38,1.43,1.19.48.27-.33.52.42.38-.17.57.42.38-.42.63,1.03.88.72.62,1.43.55v.13s-1.52-.48-1.52-.48l-.73-.63-.8.45.1,2.32-.3.22.25.73-1.12.22-6.17,1.12-1.45.26.21-12.33"/><path id="51143" d="m823.92,307.14l.51-.35-.23-.34.54-.18.08-.31.38.22.65.27.35-.09.03-.44.27-.16.29.36.13.3.19-.02-.04-.28.14-.15.24.04.03.99.21.27.21-.41.21.18h.21s.3-.24.3-.24l.37-.2.22.3.48-.1-.21,12.33-2.24.41-.16-.39.24-.27.46-.15-.06-.28-.44.1-.15-.45-.63-.07-.2-.56-.54-.06-.36,1-.23-.17-1.04-.06-.32.51.46.36.64.04-.19.47.24.39-.73.14-3.7.62-.04-7.19.23-4.47.53-.04.18-.42.48.23.88.61.35-.37-.47-.26.02-.21-.25-.31.11-.15.78.02.65-.29-.05-.66Z"/><path id="51690" d="m816.69,317.28l.94.04v.73s.33.33.33.33l.02.23-.57.07-.06-.33-.93-.14.17-.67.09-.27Z"/><path id="51590" d="m827.24,319.51l-2.3.41-.24-.39.19-.47-.64-.04-.46-.36.32-.51,1.04.06.23.17.36-1,.54.06.2.56.63.07.15.45.44-.1.06.28-.46.15-.24.27.16.39"/><path id="51680" d="m828.38,299.3l-.46.66-.66.32-.28.57-.72.29-.9-.28.33-1.03-.49-.21.17-.43-.41-.09-.13-.58.46.08.25-.39.23-.16.48-.16.54.35.92.97.16-.27.54.35"/><path id="51770" d="m811.68,303.97l.04-.08.53.04.48-.47.41.22.77-.04.44.24.08.07.09.27-.42.25.17.74-.24.59-.46-.03-.02.34-1.03-.68-.47.29-.06-.11-.15-.27.32-.12.08-.39-.26-.18.05-.34-.41-.26.05-.11"/><path id="51530" d="m822.29,291.76l.29-.02.04.7-.37.59-.26.36-.21-.18.13-.32-.18-.51.31-.27.24-.35Z"/><path id="51580" d="m810.62,292.62l.14.36.23.42.02.57-.29.17-.33-.23.13-.52-.1-.69.2-.08Z"/><path id="51678" d="m820.87,291.39l-.56.62-.2-.15-.03-.27.09-.19.21-.17.49.16"/><path id="51820" d="m828.76,284.19l.51-.57.42.03-.08-.28.17-.37-.19-.06-.12-.38-.6.08-.54.24-.06.33-.19.29.09.32.36.08.23.29Z"/><path id="51790" d="m826.09,280.82l.46.24-.19.21.22.16v.43s-.09.36-.09.36l-.34.35-.5-.15-.27.19-.45-.24-.14-.39.05-.4.2-.35.83-.13.22-.28Z"/><path id="51540" d="m836.5,281.92l.1.38.2-.04.14.37.07.34-.29.3-.27-.02-.08.21h-.32s-.22.01-.22.01l-.08-.22-.03-.19.06-.29.06-.38.3-.31.34-.15Z"/><path id="51660" d="m827.49,274.52l-.2.03-.15.47.18.1.16.28-.18.54.09.14.41-.1.04-.47.53-.15.44-.21-.02-.43-.21-.09-.03-.28-.31.16v-.19s-.2-.3-.2-.3l-.36-.24-.2.73Z"/><path id="51003" d="m832.21,277.71l5.57,1.16,3.07.63-1.19,3.23-2.43,5.58.05.72-.03.09-.09.08-.63-.11-.44.31-.83.24-.36.28-.06.15-.34.15-.5-.37.25-.41-4.2-5.91.68-.59.24-.43v-.21l-.21-.88.1-1.16.11-.64.31-.48.6-.69.53-.08-.21-.66h0s0,0,0,0Zm3.65,4.66l-.06.38-.06.29.03.19.08.22h.53s.08-.22.08-.22l.27.02.29-.3-.07-.34-.14-.37-.2.04-.1-.38-.34.15-.3.31Z"/><path id="51065" d="m839.66,282.73l4.74,1.48-1.02,3.9-.77.79-.4.79h-.66s-.35-.2-.35-.2l-.56.02-.76-.26-.79.07-1.15-.38-.43-.58-.27-.07,2.43-5.58"/><path id="51049" d="m842.6,288.9l.77-.79.96.44.46.28-.31.68.83.36-.1,4.62-.97.73-.58,1.79-1.62,1.72-.52.16-.56.12-.74-.49-.61-.07,1.46-4.08,1.19-3.4-.07-1.29.4-.79Z"/><path id="51147" d="m843.66,297.02l.38,1.62.62,4.03-.75.52-1.64.32-.13.4-1.11.43-.31-.15-.29.02-.57-.46-.2-.46-.95-.25-.41.34-1.1-.56-.1-.35-.55-.16-.27.25-.17-.1-.02-1.29.74-1.81.48-.44-.15-.26.05-1.11.75.91.79.15.88-.17.61.07.74.49.56-.12.52-.16,1.62-1.72"/><path id="51037" d="m833.8,302.77l.34.09.21-.49.13-.2.45-.02.41-.11.17-.45.3-.04.28-.35.02,1.29.17.1.27-.25.55.16.1.35,1.1.56.41-.34.95.25.2.46.57.46.29-.02.31.15-.06,4.35-1.9,4.88-1.03-.88.42-.63-.42-.38.17-.57-.42-.38.33-.52-.48-.27-1.43-1.19.38-.38-.48-.99-.04-.31-.21-.15-.13.21.17.27-.28.11-.14.77-.61-.61-1.47.4.05-.72-.22-.2.56-4.4"/><path id="51117" d="m849.85,309.64l.76,5.5-5,.96-2.39.48-5,.93-.25-.73.3-.22-.1-2.31.8-.45.73.63,1.53.48v-.13s-1.44-.55-1.44-.55l-.72-.62,1.9-4.89,1.53.49,1-.14.34.25.17-.27,1.68.63,2.6.13.08-.3,1.46.15"/><path id="51570" d="m858.85,297.24l-.09-.57-.38-.29.05-.29.37.02.27-.17.2.05.11-.17-.06-.18.06-.09.12.05.1.2-.05.24-.14.14-.04.13.12.49-.32.17-.1.15-.1.03-.13.09"/><path id="51111" d="m849.3,304.09l.55,5.54-1.46-.15-.08.3-2.6-.13-1.68-.63-.17.27-.34-.25-1,.14-1.53-.49.06-4.35,1.11-.43.13-.4,1.64-.32.75-.52.82.84.41-.06.35.22.28.51.69-.06.98.43,1.11-.47Z"/><path id="51670" d="m860.01,295.24l.59-.17.22-.07.19-.18.15.25.37.15-.14.35-.54.35-.13.32-.18-.12-.23.2-.12-.8-.17-.3"/><path id="51510" d="m858.34,259.68l-.79.05.02.3-.67-.4-.37.46.11.7.96-.33.83.15v-.1s-.1-.83-.1-.83Z"/><path id="51139" d="m834.71,264.41l2.09,1.09-.49.73-.05.89.34.07-.09.61.17.44-.26.44-1.35,3.83-.35,1.34-.95-.02-.28-.09-1.34-.54-1.42-.73.47-2.29.57-2.03.5-1.32.75.16.53-.69,1.16-1.9"/><path id="51171" d="m835.23,260.16l-.25.79.78.57-.35,1.52-.7,1.38-1.16,1.9-.53.69-.75-.16-.5,1.32-.57,2.03-4.65-2.88.97-2.88.39-.38.16-.58.47-.19.09.55.68-.69.22-.78.43-.62.42.26.57-1.39-.3-.15.33-.76,1.79.54-.02-.72.61-.95.45-.08.64-.31.25.46-.28.5.68.42.1.58"/><path id="51043" d="m838.99,253.29l4.16,2.19-.42.81.11.65-.35.23-.2.54-.84,1-.7.85-1.05-.5-.67.28-1.07-.37.12-.55-.22-.29.62-.7-.1-.33.61-3.82"/><path id="51840" d="m837.13,255.38l.39.3-.48,1.21-.42-.16.05-.71-.23-.08.11-.54.31-.04.27.02Z"/><path id="51069" d="m832.74,249.97l2.3,1.18,3.95,2.14-.61,3.82.1.33-.62.7.22.29-.12.55-.17.46-2.57.72-.1-.58-.68-.42.28-.5-.25-.46-.64.31-.45.08-.61.95.02.72-1.79-.54.5-.98.54-.34.37-.4.06-.45.47-.65-.41-.29-.03-.2-.22-.14.42-1.15-.41-.1.15-.17.13-.56.49-.85.19-.87-.42-.04.17-.76-.34-.39.09-1.4Zm3.81,5.44l-.11.54.23.08-.05.71.42.16.48-1.21-.39-.3-.27-.02-.31.04Z"/><path id="51187" d="m837.96,258.97l1.07.37.67-.28,1.05.5-.46,1.22-.35.22-.11.41.32.61-.94.28-.19.58-.58.96-.14.96-.7.63-.81.06-2.09-1.09.7-1.38.35-1.52-.78-.57.25-.79,2.57-.72.17-.46"/><path id="51153" d="m849.45,261.13h.58s.32.61.32.61h.19s-.02.3-.02.3l.28-.04.34-.08.19-.16.24.15.04.26.35.15v.22s.2.36.2.36l.19-.18.47.4-.05.28.22.19.14-.13.03-.18.62.04.05.32h.14s.27-.23.27-.23l1.13.61.42.39-.68,3.6-1.27-.16-1.62-1.1-.69-.1-.56.98-.77-.87-3.77-4.81-.06-.25.06-.5-.03-.46.33.23.26-1.74.74.38.65.61.71.15.34.78Zm2.18,1.69l.05-.25v-.18s-.19-.2-.19-.2h-.23s-.28,0-.28,0l-.16.19.07.08-.03.15-.34.39-.08.27-.08.1-.14.1.07.48.41.23.08-.18-.31-.47.14-.14.39.12.24.07.25-.27v-.61s.16.12.16.12Z"/><path id="51685" d="m850.8,262.38l.07.08.32.02v.17s.26.04.26.04l.17.12.05-.25v-.18s-.19-.2-.19-.2h-.23s-.28,0-.28,0l-.16.19Z"/><path id="51001" d="m893.73,271.13l-.7.24-.39,1.04-.44,1.05-.76,1.44.81-.02v.18s-.75.18-.75.18l1.03.34.63-2.58.56-1.87Zm-2.66,4.2l-.31-.19v-.55s.2-1.46.2-1.46l-.05-.39.63-.44.03-.45-4.57,1.56h0s-.59,1.15-.59,1.15l-.86.47-.17.54,1.22-.12-.08.93v.28s-.32.9-.32.9l-.08.17-.29.39-.63-.35-.65.63.31.26.28-.29.31.3-.46.68-1.2,3.57-.16.57-.11.88.02.12.1.19,1.74-.52,1.01.41.1.93-.06.24-.04.19.09.21.22-.22.22-.36.91-.19v-.23s-.67-.16-.67-.16l.32-1.13.31.2.04.33.21.15-.16.31.21.16.13-.38.14.05.04.55.48.38-.07-.2.51-.49.24-1.62-.29-3.01.06-.44.53-2.43.32-.85.25-.52.07-.1.07-.11.07-.12.11-.14.06-.06.05-.06.15-.1h.05Zm-3.21,9.8h.03s-.03,0-.03,0h0Zm-7.22-9.57l-.93.2.05.15.11.5.32.32.48-.14.05-.44-.03-.43-.05-.16Z"/><path id="51157" d="m836.8,265.51l.81-.06.7-.63.14-.96.58-.96.71.44.07.17.4.08.56.34.38.05.27.82.16.43.49.43.76.22.35-.09-1.62,1.98-1.84,2.8-1.01-.06-2.29-1.81.26-.44-.17-.44.09-.61-.34-.07.05-.89.49-.73"/><path id="51113" d="m836.43,268.69l2.29,1.81,2.99,2.55-.29.9.71.66-.25.24.21.23-.43.79-.49.14-.9,1.15-.52.26-.41-.34-.05-.26-.41-.19-.75.18-2.11-1.84-.38-1.79-.55-.64,1.35-3.83"/><path id="51109" d="m840.85,279.5l1.89-.7,2.64.22,2.09-.12,1.91.92.15.38,1.05.39-.71,6.72-.59-.44-1.21.04-.41-.79-.83-1.03-.97-.02-.37-.42-1.11-.43-4.74-1.48,1.19-3.23"/><path id="51075" d="m852.94,287.27l.05.83.02,1.08.65.82-.51.61-.88-.53h-.58s-.64-.35-.64-.35l-.68.23h-.36s-.08-.39-.08-.39l-1.58-.73-.18-.36h-.33s-.44.58-.44.58l.09.37.29.27-.17.49h-.58l-.52-.3-1.01.16-.19-.17-.83-.36.31-.68-.46-.28-.96-.44,1.02-3.9,1.11.43.37.42.97.02.83,1.03.41.79,1.21-.04.59.44,2.44.13.62-.16"/><path id="51137" d="m838.87,276.62l.41.19.05.26.41.34.52-.26.9-1.15.49-.14.43-.79.83-.29.77-.91,1.35-.89.96-.33.41-.11,1.02.21-.13-.58.34.06.84.26.28.15-.19.77-3.19,5.63-2.64-.22-1.89.7-3.07-.63,1.09-2.25"/><path id="51007" d="m845.21,294.5l.1.38.4-.04.46-.29.65-.58.74-.5,1.15-.1.48.07.08.06.59.48.37.61-.32.06-.03.04.09.78.1.39.44.16.18.35.52-.1.41.16-.09.57.72.27.17.29.41.07.52-.86.3.26.47-.24.42.57-.11.52-.45.27-.92,1.18-.8.17-8.22-.87-.38-1.62.58-1.79.97-.73"/><path id="51145" d="m851.12,293.22l-.07.98-.83.39-.37-.61-.59-.48-.08-.06-.48-.07-1.15.1-.74.5-.65.58-.46.29-.4.04-.1-.38.1-4.62.19.17,1.01-.16.52.3h.58l.17-.49-.29-.27-.09-.37.44-.59h.33s.18.36.18.36l1.58.73.08.39h.36s.68-.23.68-.23l.64.34h.58s.88.53.88.53l-2.04,2.6Z"/><path id="51135" d="m844.04,298.65l8.22.87-.3.67-.54.18-.38.41-.42.16.71,3.49-1.1.36-.94-.69-1.11.47-.98-.43-.69.06-.28-.51-.35-.22-.41.06-.82-.84-.62-4.03Z"/><path id="51025" d="m849.3,304.09l.94.69,1.1-.36,2.27-.04,1.44,1.16,1.01.27.84,4.11-1.26,4.23-2.39.46-2.64.52-.76-5.5-.55-5.54"/><path id="51053" d="m854.54,297.36l.59-.32.54.54.43.07.22.28.38-.13.35.2.35-.33.95-.05.13.76.51.06.04.4.41-.22.81,4.04-3.43,3.39-.77-.24-1.01-.27-1.44-1.16-2.27.04-.71-3.49.42-.16.38-.41.54-.18.3-.67.8-.17.92-1.18.45-.27.11-.52"/><path id="51595" d="m859.59,309.99l-.21.06v.21s-.29.03-.29.03v.11s-.26-.04-.26-.04l-.22-.48-.02-.15.12-.2.6-.12.03-.2h.09s.17.81.17.81Z"/><path id="51081" d="m860.97,309.26l-1.06,1.03.47-.02.37.33.61-.14,1.06.47.2.56.3.43.16.3,1.03.27-8.48,1.67,1.26-4.23-.84-4.11.77.24.4.04.63.34.55-.19.6.02.62-.42.21,3.32,1.13.1h0s0,0,0,0Zm-1.65-.08l-.03.2-.6.12-.12.2.02.15.22.48.26.04v-.11s.29-.03.29-.03v-.21s.22-.06.22-.06l-.17-.82h-.09Z"/><path id="51735" d="m877.68,296.24l-.4-.52v-.37s.01-.27.01-.27l.45-.07.02.37.31-.11-.11-.43.37-.11.13.34.5.41.03-.22.62.36-.1.14-.34.16-.2.02-.26.17-.31-.14-.18-.07-.33.12h0s-.21.2-.21.2"/><path id="51620" d="m869.88,307.3l.72,1.43v.04s-.69-.33-.69-.33h-.34s.09-.3.09-.3h-.24s-.07-.22-.07-.22l.22-.15-.05-.32.37-.15"/><path id="51175" d="m869.88,307.3l-.37.15.05.32-.22.15.07.22h.24s-.09.31-.09.31h.34s.68.31.68.31v-.04s.24.06.24.06l-.04,1.18-.28.61.3.37.13.18-4.45.84-2.36.52-1.03-.27-.16-.3-.3-.43-.2-.56-1.06-.47-.61.14-.37-.33-.47.02,1.06-1.03,7.46-7.1,1.62-1.55v.81s.99.97.99.97l-.56,2.79-.61,2.12"/><path id="51650" d="m877.68,296.24l.28-.04.04.11h.45s.14.2.14.2l.25.03-.03.21-.33.26.04.43.14.15.06-.15-.02-.13.26-.38-.04-.24.14-.06v-.26s.16-.06.16-.06l.13.3.14.1v-.14s-.06-.28-.06-.28l.23-.12.09-.17.2.06.1.42-.13,1.26.04.37-.16.32-.2.09-.02-.16.19-.28-.03-.26-.1.02-.05.2-.1.16-.3.02h-.1s-.09.27-.09.27l-.35.21-.3.2-.2-.2-.18.23-.52-.64-.17.1-.31-.3v-.53s-.13-.31-.13-.31l.16-.38.61-.23.08-.38"/><path id="51830" d="m871.88,294.31l-.28-.03-.32.11-.26-.08-.2-.17-.09-.18-.03-.24.17-.1-.24-.46.16-.16.3.55.35-.03.09-.29.21.02.06.47.03.21.21.03.03.23-.19.1Z"/><path id="51700" d="m873.64,294.61l.36-.03.1-.18,2.48,2.32.4.13-.16.38.14.31v.53s.3.3.3.3l.17-.1.52.64.18-.23.2.2-.24.46-.1.41-.34-.1-.36-.53v-.28s-.22-.12-.22-.12l-.18-.29-.4-.23h-.24s-.67-.3-.67-.3l-.11-.23.11-.15-.02-.27-.11.03-.14.14-.19-.03v-.13s-.41-.47-.41-.47l-.13.04v.16s.45.47.45.47v.17s-.19.01-.19.01l-.17-.06-.07-.2-.63-.38h-.33s-.15-.15-.15-.15l.16-1.13.11-.22.31-.18-.31-.41-.07-.26"/><path id="51740" d="m878.49,301.05l.36-.05v-.6s.57-.07.57-.07l.11.87.28.3-.07.25.48-.03.07.18.31-.02.14.23.13.32.13.47-1.52.58-.56-.59.04-.47.06-.26-.29-.37-.53.05.2-.34.09-.45"/><path id="51199" d="m870.79,292.99l-.18-.27-.08-.28-.34.03-.07-.42.25-.45.51.09.56-.29.32.09.12.3.38.24.17.37.84.61h.17s.07.22.07.22h.6s.31.28.31.28l.38.25.28.09.24.18.5.13.87-.41.11-.21.47-.18v.26s-.28.12-.28.12l-.21.18v.14s.29-.12.29-.12l.21.19.04.3.03.23-.2-.06-.23-.17-.35.12.04.1.35-.12.14.14v.3s-.15.13-.15.13l-.1.27.04.13-.3.04.07.11.36-.04.03-.22.22-.05v.37s.39.52.39.52l-.08.38-.61.23-.4-.13-2.48-2.32-.1.18-.36.03-.12-.15-.16-.36-.36.23-.48-.02-.25-.19-.11-.3-.14-.1h-.23s-.06-.48-.06-.48l-.21-.02-.09.29-.35.03-.3-.55"/><path id="51095" d="m869.61,289.54l.74.73.53.3.57.83-.56.29-.51-.09-.25.45.07.42.34-.03.08.28.18.27-.16.16.24.46-.17.1.03.24.09.18.2.17.26.08.32-.11.28.03.19-.1-.03-.23-.21-.03-.03-.21h.23s.14.1.14.1l.11.3.25.19.48.02.36-.23.16.36.12.15.07.26.31.41-.31.18-.11.22-.24-.15-.11-.32-.34-.36-.33-.17-.79.1-.1.24-.61.13-.26.05-.04.1.32.13-.07.28-.26.02-.38-.36-.5-.45-.49-.1-.83.18v-.25s-.14-.29-.14-.29l-.09-.41.18-.03.1-.19-.3-.11-.07-.11.12-.13-.24-.16-.25-.74.03-.33-.26.02-.15.32-.2.15-.06-.12.12-.29.07-.49.07-.25h-.27s-.07-.19-.07-.19l.17-.03h.07s0-.36,0-.36v-.28s.36-.48.36-.48l.69-.07,1.01.09.15-.72"/><path id="51181" d="m871.19,296.67l.26.06.31-.17.11-.59.1-.18-.05-.22.14-.18.49.36-.09.31.13.58-.15,1.86-2.37,2.12-1.62,1.55-.48-1.22-.2-.83.07-.27-.07-.18-.28-.03-.26.19-.97-.3-.07.23-.49.03-.12-.41-.43.06-.3-.23h-.57s-.21-.13-.21-.13l1.22-2.11.76-.37.09-.52.1-.15.31-.45.28.02.4.07.93.53.51-.28,1.28-.26.04.37.34-.03.24.31.3.1.33.37Z"/><path id="51183" d="m864.06,299.09l.21.13h.57s.3.23.3.23l.43-.06.12.41.49-.03.07-.23.97.3.26-.19.28.03.07.18-.07.27.2.83.48,1.22-7.46,7.1-1.13-.1-.21-3.32-.62.42-.6-.02-.55.19-.63-.34-.4-.04,3.43-3.39,3.8-3.58"/><path id="51149" d="m861.7,295.13l.19-.12-.02-.25.25.12.2-.05.07.31.22.12.22-.07.19-.28h.22s.09-.13.09-.13h.2s.23-.01.23-.01l.3-.17.15-.26.12.11.17.64.52.22.17-.16.12-.36.23-.29.2-.18.05-.13.26.07-.04.31.26.28.2.53-.19.08-.2.2.04.39-.09.52-.76.37-1.22,2.11-3.8,3.58-.81-4.04.19-.23.47.08.28-.16-.07-.32.25-.27-.55-.38-.03-.29-.42-.21-.1-.51.19-.23.1-.21-.08-.6.14-.07.2.04.17.3.12.8.23-.2.18.12.13-.32.54-.35.14-.35.18-.1Z"/><path id="51730" d="m859.56,296.83l.42.21.03.29.55.38-.25.27.07.32-.28.16-.47-.08-.19.23-.41.22-.04-.4-.51-.06-.13-.76.49-.37.13-.09.1-.03.1-.14.39-.15Z"/><path id="51087" d="m852.94,287.27l.59-.09.89.21.9-.56,1.07.26,1.03,1.71,2.96.71.38.03,1.21,1.01-.51,2.06.32.31-.26.28-.22-.23h-.18s.04.34.04.34l-.28.08.08.35-.12.3-.53-.02-.14-.29.15-.68-.28-.09-.24.69-.5.1-.27-.22-.24.15-.47-.73-.52-.04v-.55s-.02-.45-.02-.45l-.16-.59.03-.4.48.09-.03-.78-.53-.31-.14-.51-.37.02-.23-.38-.67.24.2.4-.48.12-.67-.23-.1.47.33.06-.04.13-1.24.44-.96-.08.51-.61-.65-.82-.02-1.08-.05-.83"/><path id="51041" d="m854.12,290.69l.25.42.46-.08.28-.23.16.23.28-.12.3.84.35.54.42.09.42-.15.35-.04.4.18v.55s.51.04.51.04l.47.73.24-.15.27.22.5-.1.24-.69.28.09-.15.68.14.29.53.02.12-.3-.08-.35.28-.08.2.26-.29.64-.18.32-.25.11-.03.43-.59.17-.2-.04-.14.07.08.6-.1.21-.19.23.1.51-.39.14.32-.17-.12-.49.04-.13.14-.14.05-.24-.1-.2-.12-.05-.06.09.06.18-.11.17-.2-.05-.27.17-.37-.02-.05.29.38.29.09.57-.49.37-.95.05-.35.33-.35-.2-.38.13-.22-.28-.43-.07-.54-.54-.59.32-.42-.57-.47.24-.3-.26-.52.86-.41-.07-.17-.29-.72-.27.09-.57-.41-.16-.52.1-.18-.35-.44-.16-.1-.39-.09-.78.03-.04.32-.06.83-.39.07-.98,2.04-2.61.96.08Z"/><path id="51036" d="m861.97,290.55l.16.2.17-.12.4.25.2-.11.19.24.24.17.34.22.32-.13.26.07.06.2.63-.13.08.28.35.03.16-.17.45-.12.03.24h.34s.17-.16.17-.16l.1.1-.07.41h.14s.14-.33.14-.33h.16s.06.25.06.25l.18.19.22-.3-.07.49-.12.29.06.12.2-.15.15-.32.26-.02-.03.33.25.74-.19.22.05.19.16.09-.05.25.1.5.09.11-.04.16-.22.07-.02.19-.22.04-.06.3-.44-.04-.37-.22-.56-.45-.24-.58-.44-.21-.32.33-.56.68-.21-.13-.06-.63.07-.32-.46.34-.29.06-.27.2-.95.15-.36-.2-.8.24-.21.11-.1-.27-.12-.25.29-.64-.2-.26-.04-.35h.18s.22.24.22.24l.26-.28-.32-.31.51-2.06"/><path id="51127" d="m862.14,287.42l.46-.14.12.12.23-.05v.33s.33.15.33.15l.2-.24.64.13.12.25.22.35.19-.09.37.15.18-.19-.06-.35.1-.05.16.32-.02.14-.11.21.04.19.68.16.09-.63.24-.24.33.33.26-.04.2-.26-.05-.49.11-.1.08.6-.22.34.1.34.27-.05.28.02.17-.53.22-.19.25.36.16.16.03.56.83.27.29.28-.15.72-1.01-.09-.69.07-.37.48v.28s.01.36.01.36h-.07s-.17.03-.17.03l.07.19h.27s-.07.25-.07.25l-.22.3-.18-.19-.06-.25h-.16s-.14.33-.14.33h-.14s.07-.41.07-.41l-.1-.1-.17.17h-.34s-.03-.24-.03-.24l-.45.12-.16.17-.35-.03-.08-.28-.63.13-.06-.2-.26-.07-.32.13-.34-.22-.24-.17-.19-.24-.2.11-.4-.25-.17.12-.16-.2-1.21-1.01.38-.61.49-.82.53-.02-.02-.67"/><path id="51760" d="m857.78,292.37l-.4-.18-.35.04-.42.15-.42-.09-.35-.54-.3-.84-.28.12-.16-.23-.28.23-.46.08-.25-.42,1.24-.44.04-.13-.33-.06.1-.47.67.23.48-.12-.2-.4.67-.24.23.38.37-.02.14.51.53.31.03.78-.48-.09-.03.4.16.59.03.45"/><path id="51630" d="m853.58,273.47l-.33.33-.71-.07-.19-.52-.33-.05.06-.36.39-.13.36.16.31-.11.22.19.19.23.03.33"/><path id="51600" d="m853.61,259.9v-.11s.5-.08.5-.08l.08.67-.26.02v.1s-.56.15-.56.15l-.14-.23-.24-.15.09-.38h.53Z"/><path id="51683" d="m851.19,262.65l.26.04v.61s-.24.27-.24.27l-.24-.07-.39-.12-.14.14.31.47-.08.18-.41-.23-.07-.48.14-.1.08-.1.08-.27.34-.39.03-.15.32.02v.17Z"/><path id="51107" d="m844.21,250.83l.69-.08,1.07.37.96-.24.66.83,1.58.53-.15.88-.56.24-.07.19v.1s-.05.29-.05.29l-.02.21v.02s.13.39.13.39l.1.14h.01l.11.08,1.14.76h.03s.63.05.63.05l.86-.04.84-.09-2.73,5.67-.34-.78-.71-.15-.65-.61-.74-.38-5.54-.5.84-1,.2-.54.35-.23-.11-.65.42-.81,1.06-4.66"/><path id="51061" d="m841.46,258.71l5.54.5-.26,1.74-.33-.23.03.46-.06.5.06.25,3.77,4.81.77.87-1.37,2.63.11,1.02-.8-.16-.66.2-.22.22-.2-.17-.42-.27-.12-.5-.66-.56-.43-.73-.63-.3-.71-.73-.15-1-.23-.65-.22-.19-.21.15-.21-.21.03-.32-.32-.31-.36.05-.35.09-.76-.22-.49-.43-.16-.43-.27-.82-.38-.05-.56-.34-.4-.08-.07-.17-.71-.44.19-.58.94-.28-.32-.61.11-.41.35-.22.46-1.22.7-.85"/><path id="51047" d="m843.19,265.79l.36-.05.32.31-.03.32.21.21.21-.15.22.19.23.65.15,1,.71.73.63.3.43.73.66.56.12.5.42.27.2.17.22-.22.66-.2.8.16.48.9-.3.23-.11-.4-.67.51-.36.11-.28-.15-.84-.26-.34-.06.13.58-1.02-.21-.41.11-.96.33-1.35.89-.77.91-.83.29-.21-.23.25-.24-.71-.66.29-.9-2.99-2.55,1.01.06,1.84-2.8,1.62-1.98"/><path id="51177" d="m850.2,272.17l.37.25.08.42.14.07.35-.45.89.7.33.05.19.52.71.07.33-.33,1.52.59-3.65,6.75-.88-.22-1.05-.39-.15-.38-1.91-.92-2.09.12,3.19-5.63.19-.77.36-.11.67-.51.11.4.3-.23"/><path id="51085" d="m850.58,280.59l.88.22.36.63.68.22.17-.16.17.06.29.58.26.14.27-.11,1.03.58.57-.32.61.62-.13.21.18.62.25.05-.09.32h.44s.04.52.04.52l.42.08.54-.37.36-.04.16.33-.1.35.1.11.52-.14.03.12-.29.18.02.24.29-.24.16.05-.04.23.22.27.17.02.13-.26.18-.02.2.2.12-.08-.17-.28.14-.11.13.09.11.12.06.22-.16.31.19.22.16-.09.22-.09.03.18.15.08.09-.11.02-.21.22-.06.09.29-.09.28.11.19.25-.07.22-.33.93.02-.28.99.02.67-.53.02-.49.82-.38.61-.38-.03-2.96-.71-1.03-1.71-1.07-.26-.9.56-.89-.21-.59.09-.62.16-2.44-.13.71-6.72"/><path id="51101" d="m860.08,281.52l.19-.17.39.23-.04.32.4.02.65,1.15.4-.02-.07.56.5.1-.03.48.2.06.3-.04.51.51.43-.09.28.26.45-.06.21.33.24.03.64-.29.26.41v.42s.16.04.16.04l.39-.19.51.46-.14.36.26.03.15-.17.31.24h.3s-.08.3-.08.3h.42s.07.29.07.29l.21.06.17.11.14.33-.08.32-.16.21-.2.07-.15-.3-.21-.17-.37.25-.12.27-.17.12-.11-.11.21-.37-.09-.39-.24-.32-.45.27.19.48-.24.07-.13-.3-.2-.03-.53.43-.07.4-.2-.04.08-.33-.15-.35-.21-.19-.42.17.09.26h-.35s0-.37,0-.37l-.3-.03-.17.13-.64-.13-.2.24-.33-.15v-.33s-.23.05-.23.05l-.12-.12-.46.14.28-.99-.93-.02-.22.33-.25.07-.11-.19.09-.28-.09-.29-.22.06-.02.21-.09.11-.15-.08-.03-.18-.22.09-.16.09-.19-.22.16-.31-.06-.22-.11-.12-.13-.09-.14.11.17.28-.12.08-.2-.2-.18.02-.13.26-.17-.02-.22-.27.04-.23-.16-.05-.29.24-.02-.24.29-.18-.03-.12-.52.14-.1-.11.1-.35-.16-.33-.36.04.56-.79.94-1.59-.03-.71.55.02.11.26.41-.11"/><path id="51097" d="m860.08,281.52l-.21-1.07.02-.58.55-.32.62-.1.3.08.3-.35.06.64.47.32.22.02.25.35.17.62-.25.19.03.18.39.04.19.43.32.11.21-.12.36.2.43-.07.18.9.62-.37.65.22.51-.51.82-.05.13.41.63.35.34.21.28.9,1.18,1.36.91.72.22,1.52.07.19.47.49.09.22v.11l-.04.19-.14.31-.81.4-.22-.1-.54-.67-.79-.5-.06-.22-.2-.26.08-.32-.14-.33-.17-.11-.21-.06-.07-.3h-.42s.08-.3.08-.3h-.3s-.31-.23-.31-.23l-.15.17-.26-.03.14-.36-.51-.46-.39.19-.15-.04v-.42s-.26-.41-.26-.41l-.64.29-.24-.03-.21-.33-.45.06-.28-.26-.43.09-.51-.51-.3.04-.2-.06.03-.48-.5-.1.07-.56-.4.02-.65-1.15-.4-.02.04-.32-.39-.23-.19.17"/><path id="51119" d="m869.45,282.54l.33.22.84-.05.15.37.27.02.29.47.22.69.2.16-.58-.11-.07.2.65.07-.03.24.5.26.55.26,1.89-.37.2.54.71.12.83-.17.23.16.74-.04-.17.49-.34-.14.07.46-.36-.09-.51.12-.61.13-.13.39h-.32s-.14.14-.14.14l-.7-.4-.23.18-.47-.27-.21.07-.24-.07-.33-.08-.14.21-.33-.2-.4-.33-.3.21-.45-.14-.31-.03-.91-.72-1.18-1.36-.28-.9,1.06-.7"/><path id="51073" d="m874.99,287.31l-.04.56.16.66.16.49-.21.34.22.02.66.1.35.8-.58-.14-.56-.23-.57-.24.03.25.46.17-.04.61.63-.05.66.27.13.5-.61-.1-.29-.02.25.32.21.13.48-.09.65.26-.16.73-.46.23-.83.37-.6.12-.43-.46-.31-.09-1.03-.74-.1-.34-.4-.15-1.13-.89-.07-.16-.5-.02-.49-.84.81-.4.14-.31.04-.19v-.11l-.09-.22-.47-.49-.07-.19-.22-1.52.31.03.45.14.3-.21.4.33.33.2.14-.21.33.08.24.07.43.34h.36s.43.14.43.14l.51.18"/><path id="51103" d="m870.52,281.19l1.64-1.09.47-.07.41.23h.43s.28-.17.28-.17l.34.56.41.36.35-.04.23.14.18.8-.07.48.35.13.7.4.04.24-.25.11.28.25.06.4.23-.04.35-.29.57.52-.09.21-.22.1-.18-.16-.1-.19-.23.32-.62-.08-.13.28-.56-.3-.35.1-.15-.16-.38-.05.1-.26h.25s.02-.23.02-.23l-.25-.05-.14-.19-.13.23-.14.4-.17.02-.03-.22-.24-.05v-.14s.17-.19.17-.19l.1-.23-.15-.13-.05-.24.27-.18.06-.22.15-.19.05-.23h-.28s-.12.38-.12.38l-.33.08.04.24-.11.04-.12-.18h-.25s-.18-.19-.18-.19l-.1-.4h-.3s.02.48.02.48l.22.05.02.2h.24s.28.32.28.32l-.09.05.26.27-.15.18.05.37-.15.06.24.23-.31.22-.65-.36-.31-.96-.45-.11-.3-.39-.04-.44-.21-.51-.35.09-.67-.24.26-.36"/><path id="51159" d="m863.86,275.84l.1-.23.32-.4.38.02.03.27,1.07.88.3-.15.85.53v.63s.22.07.22.07l.43-.09.65.19.62-.13.52.25.44.3.91.19.58.66.09.72.77.53-1.64,1.09-.24-.06-.23-.03-.15.36-.49-.25v-.16s-.12-.13-.12-.13l-.15.26-.25.04-.34-.22-.16-.05-.12-.32-.18-.06-.1-.29-.12-.18.31-.21-.12-.09-.19.06-.3.3-.18-.52-.75-.43-.22.05-.18-.21-.27.03-.36-.33.02-.28-.08-.2-.16-.15-.16.18-.15-.18-.35-.03-.15-.48-.24-.46-.16-.42-.62-.54.3-.33Z"/><path id="51057" d="m863.63,276.54l.54.91-.15.34.26.24-.13.38.25.18.64-.02-.09.39.16.11.19.06.52.41.53.11v.21s.27.21.27.21l.27-.05.46.62.27.25.07.22,1.01.95.55.05.22.27-.02.16-1.06.7-.34-.21-.63-.35-.13-.41-.82.05-.51.51-.65-.22-.62.37-.18-.9-.43.07-.36-.2-.21.12-.32-.11-.19-.43-.39-.04-.03-.18.25-.19-.17-.62-.25-.35-.22-.02-.47-.32-.06-.64-.23-.43-.07-.15-.23-.11-.65.16-.14-.16.04-.4-.94-.73.34-.66-.08-.45.62-.12-.03-.26.05-.43h.14s.08.28.08.28l.32-.04.02-.25.22.07.12.75.32.06.26.28.27.02.27-.44.32.22.94.15Z"/><path id="51033" d="m855.65,273.75l.36.31.28.15.14-.24.1.03.06.34.28-.12-.09-.42.34-.22.56.07.03.26-.34.12-.02.18.22.15-.16.58.44.09.03-.32.17-.07.18.15.3.17.26.25.12.12.19.02.35-.25.25.19.2.38.4.17.03.26-.62.12.08.45-.34.66.94.73-.04.4.14.16.65-.16.23.11.07.15.23.43-.3.35-.3-.08-.62.1-.55.32-.02.58.21,1.07-.41.11-.11-.26-.55-.02.03.71-.94,1.59-.47.71-.63.45-.42-.08-.04-.51h-.44s.09-.34.09-.34l-.25-.05-.18-.62.13-.21-.61-.62-.57.32-1.03-.58-.27.11-.26-.14-.29-.58-.17-.06-.17.16-.68-.22-.36-.63,3.65-6.75.54-.31"/><path id="51059" d="m852.18,255.46l1.01.42.65.2.02.69.4.31h.38s.24.06.24.06l.85-.08.64.49-.81,1.27-.29-.05.1.48.3-.05.35.08.16-.14.73.49-.37.46.11.7.96-.32.83.14-.43,2-.52.31-.23.63-.58.03.87.81-.65.07.03.37-.55.18-.28-.31.28-.29-.21-.24-.38.23-.42-.39-1.13-.61-.27.23h-.14s-.05-.32-.05-.32l-.62-.04-.03.18-.14.13-.22-.19.05-.28-.47-.4-.19.18-.19-.36v-.22s-.35-.15-.35-.15l-.04-.26-.24-.15-.19.16-.34.08-.28.04.02-.3h-.19s-.32-.61-.32-.61h-.58s2.73-5.67,2.73-5.67Zm.82,4.8l.24.15.14.23.55-.15v-.1s.27-.02.27-.02l-.08-.67-.5.08v.11s-.53,0-.53,0l-.09.38Z"/><path id="51179" d="m850.2,272.17l-.48-.9-.11-1.02,1.37-2.63.56-.98.69.1,1.62,1.1,1.27.16.05,1.28.34,1.11-.23-.03-.92-.68-.1.07.65.67,1.14.58-.28.4-.93.15v.13s.68.12.68.12l-.1,1.09.23.87-.54.31-1.52-.59-.03-.33-.19-.23-.22-.19-.31.11-.36-.16-.39.13-.06.36-.89-.7-.35.45-.14-.07-.08-.42-.37-.25"/><path id="51099" d="m855.53,271.79l1.3.03.72-.41.7-.2.28-.63,1.01-.21.38-.84.25-.18.7.5.18,1.02-.14.33-.57-.03-.17.27v.27s.21-.15.21-.15l.37-.04.44.22.39.21-.15.21-.36.11v.24s-.33.11-.33.11l.33,1.73-.12.35-.16.22-.33-.08-.22.22-.24.05-.15-.31-.23.22-.25-.16-.37.24-.43-.13-.3-.17-.18-.15-.17.07-.03.32-.44-.09.16-.58-.22-.15.02-.18.34-.12-.03-.26-.56-.07-.34.22.09.42-.28.12-.06-.34-.1-.03-.14.24-.28-.15-.36-.31-.23-.87.1-1.09"/><path id="51193" d="m861.56,271.95l.75.29.18,1.09-.54.23.04.1.35-.08.36-.16.7.1-.04.49h.15s.16-.37.16-.37l.49.34.95-.04.96-.28.53.59.33.03.17.38.22.19.21-.13-.12-.34-.05-.81.25.02.99.69-.21-.62.55-.05.37.38-.28.37,1.65.49.1.25.3.28-.27.13-.32-.26-.14.35.2.16v.22s-.29.33-.29.33l-.29.43-.47.22-.12.73-.52-.25-.62.13-.65-.19-.43.09-.23-.07v-.63s-.84-.53-.84-.53l-.3.15-1.07-.88-.03-.27-.38-.02-.32.4-.1.23-.3.31-.32-.06h-.47s-.21-.16-.21-.16v-.21s-.28-.03-.28-.03l-.2.09v.11s-.22.22-.22.22l-.16-.13-.25-.03-.07-.56-.13-.55-.32-.15.12-.35-.33-1.73.34-.11v-.24s.36-.11.36-.11l.15-.21"/><path id="51133" d="m870.55,275.99h1.67s-.43.54-.43.54l.24.15.57-.19.84.33.81.09,1.16.35,1.19.48.12.5v1.33s-.27.18-.27.18l-.33-.21-.64-.63-.26.16-.43-.04-.6-.22h-.44s-.05.15-.05.15l.53.09.24.17.77.1.21-.07.3.34.22.65.44.06.05.22-.26.24.24.65-.34.18-.04.27.37.27.04.46-.92-.07-.35-.13.07-.48-.18-.8-.23-.14-.35.04-.41-.36-.34-.56-.28.15h-.43s-.41-.22-.41-.22l-.47.07-.77-.53-.09-.72-.58-.66-.91-.19-.44-.3.12-.73.47-.22.29-.43.29-.33"/><path id="51115" d="m874.99,287.31l.49-.12.15-.2.13-.09-.06-.19.64-.04.12.32h.45s.27.13.27.13v.16s-.37.03-.37.03l.03.13h.37s.29,0,.29,0v-.41s-.08-.57-.08-.57l.43.06.77.73-.22.09-.38-.2-.29.12.25.24-.17.19h-.32s.17.39.17.39l.28-.25.18.08.47.02.03-.34.29.25v.46s.34.8.34.8l-.25.37-.11.52v.83s.16.13.16.13l-.14.41-.25-.08.09-.25-.71-.53-.45-.28-.09-.83-.27-.16-.02-.36-.19.09-.04.38.19.13.3.28-.11.19-.23.02-.4-.15-.29-.12-.15-.3v-.48s-.47-.02-.47-.02l.07.3-.41.04-.11-.46h0s-.26-.21-.26-.21l-.16-.66.04-.56"/><path id="51710" d="m882.32,299.83l-.13.75.24.35.3.3-.15.74-.65-.14-.46.45-.6.13-.13-.32.49-.15.02-.21-.32.03-.4-.11-.1-.26-.42-.17.19-.24-.05-.35.32-.09.38.29.1-.2-.31-.21-.41-.11-.31.14-.28-.08-.21-1.21.21-.02.04.21.42-.05.06.21.45-.17-.05-.23-.53.09-.07-.19.61-.09.84.46.5.05.39-.02.05.38"/><path id="51093" d="m869.88,307.3l.61-2.12.56-2.79-.98-.97v-.81s2.37-2.12,2.37-2.12l.15-1.86.4.59.02.39-.06.54.08.48.45.25.81-.16.41.16-.02.35-.44.18-.08.27.4-.17.27-.12.44-.13.78.59.61.11.12.38h-.4s.21.33.21.33l-.02.26-.42.31-.07.04-5.26,7.51-.23-.06-.72-1.43"/><path id="51800" d="m878.49,301.05l-.09.45-.2.34-.31,1.44.67,6.13-.9.19-6.85,1.35-.3-.38.28-.61.04-1.18,5.26-7.51.07-.04.52-.08.27-.23v.55s-.28.19-.28.19l-.24.67-.25.57-.25.08.1.3.27.07-.1-.27.36-.17.19-.3-.08-.12.11-.12.02-.25.25-.04.06-.32.52-.28.06-.37.3-.1.52.04"/><path id="51550" d="m881.93,301.84l.71,1.32,1.24.11.71.65.49.1.34.33-.03.38-.81.52.6,2.76-3.42.72-3.19.67-.67-6.13.31-1.44.53-.05.29.37-.06.26-.04.47.56.59,1.52-.58-.13-.47.6-.13.46-.45Z"/><path id="51810" d="m889.09,307.17l-.91.19-.06-.38.34-.13.34-.26.03.28.26.29Zm-1.87-1.83l.33,1.17.03.54.29.38-.58.12-.24-.49-.7-.46-.05.14.35.49.21.41-1.69.36-.6-2.76.81-.52.03-.38-.34-.33-.49-.1-.71-.65-1.24-.11-.71-1.32.65.14.15-.74-.3-.3-.24-.35.13-.75.23.15.38.52.32-.19-.55-.49-.06-.36h.43s.82.17.82.17l-.26.78h.21s-.09.44-.09.44l.29-.16-.08-.69.25-.02.24.18.05.56.21-.06v-.26s.16-.23.16-.23l-.25-.13-.07-.3h-.47s-.07-.23-.07-.23l.5-.18.26-.4.46-.11.53.15.14.36.79,1.88.6,1.12.62.95.73,1.13.69,1.35.24.56.17.68-.2.04-.16-.29-.09-.46-.2-.38-.11-.28-.49-.73-.28-.31-.02.29-.08.27-.37-.36-.07-.47.31-.23-.34-.19-.4.18.04.59-.09.61Z"/></g></svg>