<?xml version="1.0" encoding="UTF-8"?><svg xmlns="http://www.w3.org/2000/svg" viewBox="0 0 989.98 627.07"><path id="53047" d="m146.86,9.47l17.03,4.48,8.45,2.12,4.4,1.09-.47,1.98-1.33,5.52-.53-.12-.87,3.82.34.11-.87,3.81-.12-.02-1.9,7.77-.12.11-1.92-.15-.03-.44.41-.46.28-.41.09-.26-.06-.32-.41-.39-.18-.64.06-1.03-.21-.32-.24-.38-.58-.12-.28-.45-.44.07-.36.3-.42-.07-1.15.25-.36-.41-.4.19-.32.36-.26.68-1.05-.22-.4-.7-.58-.13-.35-.23-.47.52-.29.06-.32.27h-.27s-.88.59-.88.59l-.53-.09-.38-.59.13-.5.47-.69-.14-.37-.3.09-.38-.08-.14-.54-.44-.18-.12.38-.45-.15-1.44.42-.17.33.27.57-.07.46-.39.33-.06.18v.08s.14.26.14.26l-2.89-.79.1-.44-.19-.42.09-.47-.75-.73.31-.37-.72-.68-.37-.05-.55-.98-.34-.5-.5.05-.05-.38-.28-.21v-.61s.46-.46.46-.46v-.63s-.53-.15-.53-.15l.1-.28-.79-.65-.66-1.55-.46.06-.56-.52.52-.72.04-.62-1.01-.57v-1.23s.65-.31.65-.31l-.32-.33.48-.28-.35-.33.18-.58-.8-.1.29-.59.31-.15-.27-.74-.6.26-.19-.21-.14-1.01.58-.53.26-.07.41.06.33-.65.54.14-.04-.5.46-.11-.32-.7-.53-.85.52-1.68-.3-.49.16-1.14.35-.24-.09-.51-.36-.15-.77.36-.57-1.05.49-.36"/><path id="53073" d="m113.82.2h0s-.06.59-.06.59l.8.29.12-.04-.05-.6-.72-.21-.1-.03Zm4.89,1.42l-.31.18-.43.25-.42.33-.14.23v.08s.95.22.95.22l-.02.64-.69.32.75,1.31-.28,1.32.35-.3.4.46-.05.55-.53.6.09.88.52.38.26-.39-.13-.29-.36-.02.89-.88h.81l.71.83-.65.66.05,1.69.34.03,5.14,1.44,12.83,3.67,5.28,1.41.07-.38,2.18.61.26-.07.41.06.33-.65.54.14-.04-.5.46-.11-.32-.7-.53-.85.52-1.68-.3-.49.16-1.14.35-.24-.09-.51-.36-.15-.77.36-.57-1.05.49-.36h0s-4.08-1.11-4.08-1.11l-9.26-2.44-5.1-1.54-4.53-1.29-5.18-1.49Zm-.87,5.69l-.42.71.31.37.09.77.47.76.4.21.04-.67-.42-.53-.22-1.01-.26-.6Z"/><path id="53069" d="m86.65,56.72l.66-2.1,3.42,1.08,2.19.63,2.15.61-1.3,4.7-2.48-.1-.12-.04-.67-1.05.35-1.03-.17-.54-.23-.42-.06-.11-.05-.02-.09-.06-1.04-.06-2.55-1.5"/><path id="53003" d="m187.88,79.3l.37.46-.23.43.26.23.73-.08.75.47.46-.08.42.06-.34,1,.5,2.03.02.08.15,1.27.1,1.97-.76,2.11.1,1.59-8.82-2.06.64-2.77.94.22,1.02-4.55.29-1.21.32.09.11-.42.64.17.09-.34,1.98.47.26-1.14"/><path id="53023" d="m179.06,73.45l1.9-1.09.21-.07.95.02.4.15,2.31.95.75.46.79.63,1.55,2.87.13.98-.16.96-.26,1.14-1.98-.47-.09.34-.64-.17-.11.42-.32-.09-.29,1.21-1.02,4.55-.94-.22-.64,2.77-1.92-.46.68-2.62-.2-.05,1.14-4.95-.92-.2.24-.86-.45-.12.08-.32-.38-.12.3-.98-.33-.1.2-.7-1.95-.45.48-1.98.5-1.41"/><path id="53013" d="m173.07,72.76l.18.16.5.87.15.09.68.11h.14l3.83-.24.51-.3-.5,1.41-.48,1.98,1.95.45-.2.7.33.1-.3.98.38.12-.08.32.45.12-.24.86.92.2-1.14,4.95.2.05-.68,2.62-5.84-1.41-.3-.07.25-.75.93-3.85-1.95-.46.49-1.94-1.97-.47,1.4-5.92.39-.69"/><path id="53071" d="m173.07,72.76l-.39.69-1.4,5.92,1.97.47-.49,1.94,1.95.46-.93,3.85-.25.75-15.44-3.7.97-.59.25-1.4-.27-.59-.02-.66-.71-1.27.22-.29.18-.17.71-.21.39-.05,1.57.1,1.18-.64h.64s.05-.61.05-.61l.61-.77.74.09.79-.51.51-.31.58-1.76.12-.2.47-.39.84-.5,1.41-.65.33.08.38.36.66.22.56-.34.54.08,1.05.39.2.21"/><path id="53021" d="m156.25,65.26l2.77.68,6.41,1.65,8.25,1.91-.44,3.42-.18-.16-.2-.21-1.05-.39-.54-.08-.56.34-.66-.22-.38-.36-.33-.08-1.41.65-.84.5-.47.39-.12.2-.58,1.76-.51.31-.79.51-.74-.09-.61.77-.05.6h-.64s-1.18.65-1.18.65l-1.57-.1-.39.05-.71.21-.18.17-.22.29-1.01-.95-.36-.19-.45-.14-.48-.3-.74-1.06-.02-.13.09-.19.48-.51v-1.57s.46-1.27.46-1.27l.31-1.12v-.73l-.52-.84-.69-.97-.36-.82.13-.51-.1-.38-.33-.11-.1-.33.02-.28,1.26.36.35-1.33"/><path id="53075" d="m182.81,59.38l12.02,2.79-.67,2.94-2.94,13.08-.59,2.6-.42-.06-.46.08-.75-.47-.73.08-.26-.23.23-.43-.37-.46.16-.96-.13-.98-1.55-2.87-.79-.63-.75-.46-2.31-.95-.4-.15-.95-.02-.21.07-1.9,1.09-.51.3-3.83.24h-.14l-.68-.11-.15-.09-.5-.87.44-3.42,3.14.04.58-.53.44-.5.64-.9.44-1.02,1.79-7.7,2.09.49"/><path id="53063" d="m192.75,43.25l5.99,1.4-.35,1.52-3.03,13.62-.54,2.39-12.02-2.79,2.98-12.55.22.33.15.09.28-.11.07-.25.39.09.98-.53.23-.44.24-.24.22.1-.09.39v.77s.41.17.41.17l.46.97.53-.05.22.23,1.21-5.46,1.48.35"/><path id="53051" d="m203.65,23.5l-.78,3.38-4.13,17.76-5.99-1.4.44-1.94-.97-.23,2.69-11.56-1.95-.44.44-1.93,1.04.24.61-2.17.8.15.45-1.8,1.03.14.38-1.56,5.93,1.37"/><path id="53065" d="m197.72,22.14l-.38,1.56-1.03-.14-.45,1.8-.8-.15-.61,2.17-1.04-.24-.44,1.93,1.95.44-2.69,11.56.97.23-.44,1.94-1.48-.35-1.21,5.46-.22-.23-.53.05-.46-.97-.4-.17v-.77s.09-.39.09-.39l-.22-.1-.24.24-.23.44-.98.53-.39-.09-.07.25-.28.11-.15-.09-.22-.33-.05-.5-.54-.35-1.07.35-.78-.46-.47.4-.47.36-.38-.13-.33-.27-.1-.46-.37-1.2-.7-1.76-.05-.05h-.76l-1,.4-.47.25-.02-.77.34-1.1-.43-1.38.67-.26.42-.05.2.25.84.16.13-.29.39.04.24-.74-.13-.49.11-.5.48.11.57-.23.26-1.45.61-.31.33-.54-.09-2.06.16-2.51.88-1.42.42-.06.45-.9.31-.73.39-.56.27-2.31-.04-.65-.35-1.55-.21-.19-.08-.85.19-1.29.18-.77.22-.29.29-.27,11.45,2.68"/><path id="53043" d="m168.94,40.01l1.92.15.23.72.12.2,1.09.77.38.02.16-.29v-.4s.55-.19.55-.19l.46.57,1.13.1.52.43-.31.9.45.31.71-.12.15.86.62.48h.62s.52-1.11.52-1.11l.47-.25,1-.4h.76l.05.05.7,1.76.37,1.2.1.46.33.27.38.13.47-.36.47-.4.78.46,1.07-.35.54.35.05.5-2.98,12.55-2.09-.49-15.59-3.78,3.82-15.11"/><path id="53001" d="m180.72,58.89l-1.79,7.7-.44,1.02-.64.9-.44.5-.58.53-3.14-.04-8.25-1.91-6.41-1.65-2.77-.68.99-3.89,2.11.53,3.81.97,1.97-7.76,15.59,3.78"/><path id="53025" d="m168.91,39.57l.03.44-3.82,15.11-1.97,7.76-3.81-.97-2.11-.53-.99,3.89-.35,1.33-1.26-.36.08-.08v-.15s-.39-.75-.39-.75l-.17-.22-.2-.11-.13.05-.64.5-.48.42-.5.28-.42.15-.54.05-.25-.27-.33-.18-.94.17-1.18-.14-.54-.18-.13-.07-.51-.28.04-.31-.36-.65-.2-1.01.12-.55.22-.35.6-.4.4-.75-.4-.9.46-2.12-.3-1.09.23-1.02-.34-.71.31-.85.73-.52v-.59s.32-1.51.32-1.51l.52-2.06.34.08.11-.35.37.1.09-.3.3.08.09-.33.3.07.23-.68.28.08.11-.35.27.07.22-.7,5.22,1.24.5-1.88.32.09.08-.29.3.07.1-.32.3.07.11-.32.32.09.06-.29.37.09.07-.33.3.08.11-.3.87.19.08-.32.39.08.22-.96.34.09.33-1.26.33.09.1-.34.34.09.21-.67.25.05.19-.64.32.06.52-1.85.23.05.09-.34.72.13.08-.3.35.07.14-.67.34.1.11-.34,1.76.48"/><path id="53005" d="m147.88,65.71l.13.07.54.18,1.18.14.94-.17.33.18.25.27.54-.05.42-.15.5-.28.48-.42.64-.5.13-.05.2.11.17.22.38.75v.15s-.07.08-.07.08l-.02.28.1.33.33.11.1.38-.13.51.36.82.69.97.52.84v.73l-.31,1.12-.46,1.27v1.57s-.48.51-.48.51l-.09.19.02.13.74,1.06.48.3.45.14.36.19,1.01.95.71,1.27.02.66.27.59-.25,1.4-.97.59-.45.38-.34.15-1.17.34-.57.09-.7-.05-.41-.1-.44-.23-2.41-.33-.91-.05-.91-.06-.71-.34-.87-.49-.83.48-.71.73-1.67-.16-1.54-.16,1.66-6.32.36-1.49.04-.63,2.36-9.2"/><path id="53039" d="m144.65,78.8l-1.2,4.55h-2.21l-2.41.3-.51.13-.84.64-3.17-.19-1.25-.22-.33-.22-.19-.28-.42-.79-.45-.32-.68-.17-.34.11-.69.33-1.72.24-1.41.22-.84.26-.35-.46-1.46-.68-2.15.9-.25-1.82-1.98-1.13-.55-.11-1.1-.16-1.09-.95-.1-.86.51-.33-1.41-.46.5-2.06,1.04-3.74,1.37.37,1.53.41,4.2,1.13,1.29.4,7.38,2.02,11.27,2.94"/><path id="53011" d="m98.28,70.66l.73-.05.06-1.1.4-.41.76.12.12.32.23-.19.54.15.58-.22.32.06.72-.46,1.15.29.07.34h.35s1.02.66,1.02.66l.57-.23.15-.74.48-.57.74-.29.62.22-.91,3.24-1.05,3.46-1.26,4.47h-.3l-.44-.11h-.01l-.52-.26-4.46-2.75-.43-.32-.82-.86-.31-.4-.02-.56.15-.42.34-.58.42-2.81"/><path id="53059" d="m121.08,64.28l-2.1,7.61-1.37-.37-1.04,3.74-.5,2.06,1.41.46-.51.33.1.86-1.73-.03-1.33-.1-.44-.11-1.11-.61-.95.06-.68.35-.45.4-5.71.79,1.26-4.47,1.05-3.46.91-3.24,2.14-7.3,11.04,3.02"/><path id="53015" d="m110.04,61.26l-2.14,7.3-.62-.22-.74.29-.48.57-.15.74-.57.23-1.02-.67h-.35s-.07-.33-.07-.33l-1.15-.29-.72.46-.32-.06-.58.22-.54-.15-.23.19-.12-.32-.76-.12-.4.41-.06,1.1-.73.05.12-.38.14-2.18-.45-2.5-.15-.61-2.59-3.18-.76-.31-.82.15,1.3-4.7,1.95.51,1.23.35,9.02,2.63,2.76.83"/><path id="53049" d="m84.36,43.94l-.4,1.32.32.29.37-.17.47.4.34-.36.6.58.41-.32.57-.05.03.61.48.48.3.95.56.04.06.38-.82.15-.33-.14-.05-.7-1.27.1-.06.98.27.52-.43.49-.5-.72.22,1.22.02.78-.37.55-.59.13.2.76-.11.32.47.33.34.51-.17.73-.32-.12-.02-.58-.46-.38-.74.44-.21.64-.54-.41-.48-.12.56-3.16.43-1.61.02-1.16-1.9,6.62-.4.54.71-.18.53.28.37.36-.04.52.8,1.09.47.28,2.6-.42.66-2.1,3.42,1.07,2.19.64.63-2.08.44-1.62.38-1.62,1.01-3.7-3.58-1.11-3.8-1.08-3.65-1.18h0Zm-.62,9.02l.14-.25.02-.96-.38-.28-.02.47.11.42-.1.36.23.23Z"/><path id="53041" d="m95.39,47.31l3.2.92-.19.64,3.51,1.04,11.08,3.21,2.41,1.16,3.07,1.11.25-.24.65-.41.21-.1.31-.08,4.64,1.28.19.92-.19.28.19.09.68.35.1.39-.42.07v.4s-.56-.11-.56-.11l-.4.77.41.33-.09.38-.44.43v.39s-.45.19-.45.19l.1.17-.22.41-.38.12-.37.63.32.42-.14.57.22,1.25-.18.5-1.83-.51-11.04-3.02-2.76-.83-9.02-2.63-1.23-.35-1.95-.51-2.15-.61.63-2.08.44-1.62-.19-.07,1.58-5.26"/><path id="53067" d="m99.84,41.65l1.92.57.47-.28.65-.24.25-.3.35.02.37-.27.37-.07.16.45-.6,1.22v1.03s.38-.07.38-.07l.3-.76.22-1.03.49-.21.02.81.12.66.32.07.27-1.35.25.83.54,1,.59.36.12,1.41.36.71-.3.43.36.16.1-.17.48.3v.92s.64.65.64.65l.19,1.22,1.52.95.68.57.09,1.17,1.46.72-11.08-3.21-3.51-1.04.19-.64,1.23-4.35-.65-.19.67-2.05"/><path id="53053" d="m107.94,36.41h0s-.3,1-.3,1l-.2,1.26-.79,1.01.06,1.09.33.84.65-1.43.23-1.08.63-1.33.9-.29,1.05.21-1.17.98-.23.71-.12.46.52.2.68.57.5-.64-.21-1,.62-.26.37-1.17-3.53-1.13Zm1.2,3.72l.41,1.18.41-.21-.82-.97Zm2.11.43l-.69.74-.57.64-.64.57-.31.61-.59-.02-.53.69-.62.29.12,1.41.36.71-.3.43.37.16.1-.17.48.3v.92s.64.65.64.65l.19,1.22,1.52.95.68.57.09,1.17,1.46.72,2.41,1.17,3.07,1.11.25-.24.65-.41.21-.1.31-.08,4.64,1.28v-.47s-.27-.34-.27-.34l.14-.19-.09-.18.08-.13-.32-.19.16-.28-.13-.14-.11-.35.66-.57.51-.15.32-.21.07-.67.3-.32.58-.17.05-.36.32-.12-.03-.31.55-.5.1-.67-.28-.03-.18-.2-.48.04-.39-.66-.54-.54-1.17-.2-.26-.79-.69-.28-.8-.12-.21-.28-.73-.56-.96.42-.83-.45-.44.16-.29.03-.09-.42-.83-.76-.53.05-.41-.69-.48-1.9-2.75-.85-.9-1.6-.24.42.31.53-.4.43-.61.16-.5-.94-.36-.81-.16.88Zm-2.74.28l-.68.05.23.61h.8s-.35-.67-.35-.67Zm-.85.91l-.39.45.28.84.51-.48-.05-.7-.35-.11Z"/><path id="53077" d="m127.43,49.51l.18.37.4-.05.1.17.34.05.21-.21.41.08.47.63.23.16.31.54.18.05.45.84.39.73.17.05-.1.42.68,1.46,5.99,1.59-.57,1.91,1.93.56-.46,1.88,5.53,1.51,2.71.66-.12.55.2,1.01.36.65-.04.31.51.28-2.36,9.2-.04.63-.36,1.49-.47,1.77-11.27-2.94-7.38-2.02-1.29-.4-4.2-1.13-1.53-.41,2.1-7.61,1.83.51.18-.5-.22-1.25.14-.57-.32-.42.37-.63.38-.12.22-.41-.1-.17.46-.19v-.39s.43-.43.43-.43l.09-.38-.41-.33.4-.77.57.11v-.4s.4-.07.4-.07l-.1-.39-.68-.35-.19-.09.19-.28-.19-.92v-.46s-.27-.34-.27-.34l.14-.19-.09-.18.08-.13-.32-.19.16-.28-.13-.14-.11-.35.66-.57.51-.15.32-.21.08-.67.3-.32.58-.17.05-.36.32-.12-.03-.31.55-.5.1-.67"/><path id="53037" d="m127.43,49.51l-.04-.21-.23-.19.03-.23.17-.24.65-.21.77.32.28-.27-.13-.52.34-.55-.14-.43-.7-.38.29-.32.48-.25v-.64s-.11-.21-.11-.21l-1.17-.21-.06-.61.31-.4-.31-.52.04-.54.63-.26.29-.6.68-.11.06-.36.21-.24,1.39-.26.11-.3.48-.5.27.12.39-.21.29-.54.8.15.3-.52.8.03.21,1.34.96.86.13.74.35.33-.1.45.49.35-.17.54.93.47.95.16-.03.26.53.54.27.02v.63s.45.23.45.23l.18.47,1.28.45.08.83.37.03.47-.44.24.57.36.38.36.17.3.52.42.44,4.49,1.14v1.01s1.09.27,1.09.27l-.32,1.51v.59s-.73.52-.73.52l-.31.85.34.71-.23,1.02.3,1.09-.46,2.12.4.9-.4.75-.6.4-.22.35-2.71-.66-5.53-1.51.46-1.88-1.93-.56.57-1.91-5.99-1.59-.68-1.46.1-.42-.17-.05-.39-.73-.45-.84-.18-.05-.31-.54-.23-.16-.47-.63-.41-.08-.21.21-.34-.05-.1-.17-.4.05-.18-.37"/><path id="53017" d="m168.91,39.57l-1.76-.48-.11.34-.34-.1-.14.67-.35-.07-.08.3-.72-.13-.09.34-.23-.05-.52,1.85-.32-.06-.19.64-.25-.05-.21.67-.34-.09-.1.34-.33-.09-.33,1.26-.34-.09-.22.96-.39-.08-.08.32-.87-.19-.11.3-.3-.08-.07.33-.37-.09-.06.29-.32-.09-.11.32-.3-.07-.1.32-.3-.07-.08.29-.32-.09-.5,1.88-5.22-1.24-.22.7-.27-.07-.11.35-.28-.08-.23.68-.3-.07-.09.33-.3-.08-.09.3-.37-.1-.11.35-.34-.08-.52,2.06-1.08-.27v-1.01s.15-.31.15-.31l.2-.55.22-.68v-.13s-.52-.78-.52-.78l-1.55-.7-.23-.13-.44-.38-.06-.19-.05-.79v-.56l.11-.33.48-1,.38-.51.54-.18.57-.69.3-.98.68-.57.08-.46-.17-.61.12-.43.22-.25.14-.1.22-.09.98-.13.19.09.2.21.08.13.11.04,1.5-.04.74-.64.2-.61.87-.24.16-.87.89-.45.11-.22v-.18l-.06-.27-.13-.26v-.08s.05-.18.05-.18l.39-.33.07-.46-.27-.57.17-.33,1.44-.42.45.15.12-.38.44.18.14.54.38.08.3-.09.14.37-.47.69-.13.5.38.59.53.09.88-.58h.27s.32-.28.32-.28l.29-.06.47-.52.35.23.58.13.4.7,1.05.22.26-.68.32-.36.4-.19.36.41,1.15-.25.42.07.36-.3.44-.07.28.45.58.12.24.38.21.32-.06,1.03.18.64.41.39.06.32-.09.26-.28.41-.41.46"/><path id="53019" d="m176.74,17.16l9.53,2.31-.29.27-.22.29-.18.77-.19,1.28.08.85.21.19.35,1.55.04.65-.27,2.31-.39.56-.31.73-.45.9-.42.06-.88,1.42-.16,2.51.09,2.06-.33.54-.61.31-.26,1.45-.57.23-.48-.11-.11.5.13.49-.24.74-.39-.04-.13.29-.84-.16-.2-.25-.42.05-.67.26.43,1.38-.34,1.1.02.77-.52,1.12h-.62s-.62-.49-.62-.49l-.15-.86-.71.12-.45-.31.31-.9-.52-.43-1.13-.1-.46-.57-.54.19v.4s-.17.29-.17.29l-.38-.02-1.09-.77-.12-.2-.23-.72.12-.11,1.9-7.77.12.02.87-3.81-.34-.11.87-3.82.53.12,1.33-5.52.47-1.98"/><path id="53055" d="m109.57,6.42l.27.5.57.69.86.51-.18-.42-.05-.37-.61-.49-.44-.41h-.43Zm3.71.07l-.6.06-.46.24.25.36-.1.38.71-.15.15-.5.05-.39Zm1.23.73l-.39.05-1.34.83-.61.44v.37h.47s.23.5.23.5l.17-.3v-.5s.34.12.34.12l-.07.43.06.48.3.47.7-.1.11-.24-.03-.59-.15-.95.05-.63.42.11-.07,1.08.32.7.08.66h.42s.01-.49.01-.49l.47-.14v-.02l.51-.19.27-.18v-.03s-1.11-1.18-1.11-1.18l-.54-.49-.26-.13-.36-.07Zm-4.43.88l-.35.26-.18.2-.03.14.27.38-.18.35.1.77.08.39.09.23.24.37.99,1.06.44.34.58.23.13-.34-.57-.2-.04-.66.19-.43.39.11.34-.29-.25-.25-.36-.1.04-.45-.47-.7-.47-.61.21-.44-.78-.26-.41-.09Zm1.19.35h0s0,0,0,0Zm2.88,1.91l-.2.1-.21.3-.31-.02-.43.77-.33.48-.05.6.4.27-.1.8.23.18.14.06.95.18.17-.11.09-.47.04-.66.69-.51-.05-.53-.76-.07-.03.62-.27.67-.1-.15.08-.36-.31-.45.29-.32.45-.42-.33-.14.03-.35-.09-.46Zm-1.08.35l.15-.33.29.07.22-.18-.45-.43-.42-.26-.36-.2-.27.37.29.17.07.51.49.29Zm1.74-.26l-.06.39.05.76h.35s.52-.23.52-.23l-.12-.53-.32-.33-.43-.06Z"/><path id="53029" d="m116.96,15.28l.08-.06.14-.06.1.07.05.11.1.28-.4.82.96,1.11.07.27-.03.22-.03.05-.33.2-.14.03-.31-.07-.1-.04-.16-.35-.12-.11-.23-.07h-.31l-.15.08-.54.41-.4.47-.81-.14v.58s.93.03.93.03l.65.45.16.86.07,1.35-.4.41.3.68-.22.86.09.56.51-.45-.02-.79.17-.6.41.13.28.54.21.65.4.5.49.27-.2.76.1.67-.29.66-.62.3-.7-.11v-.38s.2-.31.2-.31l-.09-.46-.23-.49-.28-.17-.42.13-.35.12-.18-.24.18-.36-.17-.45-.38-.19-.14-.54.27-.22-.2-.73.69-.86v-.96s-.45-.3-.45-.3l-.6.1-.18-.95-.31-.23-.1-.31-.25-.33.27-.6.7-.55.21-.38,1.26-1.18.22-.38.09-.4.12-.05.34.14m1.4,8.14l-.27-.58-.3-.32-.24-.52-.32.06-.2-.34-.07-1.14.16-.2-.14-.39.48-.92.53-.09.32.23.34-.41.7.78-.06.56-.2-.06-.13-.24-.28-.09-.09.33-.19.52-.52.04-.04.58.33.87.55,1.2.08.72-.38-.06-.06-.53Z"/><path id="53061" d="m119.91,18.63l8.08,2.27,3.87,1.09,1.12.34,7.46,2.05-.2.42.27.69.33.7-.23.26.38.39.24.94-1.09.13.09.77-1.29.56-.22-.18-1.98.4.34.95-.45.34h-.17s-.44.44-.44.44v.21s-.28.42-.28.42l-.22.46-.05.49.27.26-.24.63.47.55.66.17-.51.53-.51.34-4.53-1.25-.55-.11-1.94-.5-7.38-2.03-4.83-1.41v-.05s.19-.51.19-.51l2.22-2.82.48-.04.45.06.36-.17.09-.11.26-.88v-.32s-.63-.64-.63-.64l-.63-1.32-.14-.67v-.04s.16-.56.16-.56l.16-.5.05-1.21.13-.7.38-.86"/><path id="53033" d="m114.12,38.51l-.46.2-.74.13-.55.35-.6.09.38-1.13.45-1.03.34-.57.35-.38.17-.48.24.13-.15.55.04,1.25-.12.52.65.35Zm2.36-6.99l-.09-1.58,4.83,1.41,7.38,2.03,1.94.5.55.1,4.53,1.25h0s.36,1.04.36,1.04l-.17.35.23.35-.05.17-1.23.29v.49s-.15,1.37-.15,1.37l-.8-.03-.3.52-.8-.15-.29.54-.39.21-.27-.12-.48.5-.11.3-1.39.26-.21.24-.06.36-.68.11-.29.6-.63.26-.04.54.31.52-.31.4.06.61,1.17.21.11.21v.64s-.47.25-.47.25l-.29.32.7.38.14.43-.34.55.13.52-.28.27-.77-.32-.65.21-.17.24-.03.23.23.19.04.21-.28-.03-.18-.2-.48.04-.39-.66-.54-.54-1.17-.2-.26-.79-.69-.28-.8-.12-.21-.28-.73-.56-.96.42-.83-.45-.44.16-.29.03-.09-.42-.83-.76-.53.05-.41-.68-.48-1.9-2.75-.85-.9-1.6,1.36-.1.51-1.24-.33-1.13.25-.54-.1-1.24.11-1.07.27-.15.36.6.4-.28.18-.7-.86-.99-.02-.59,1.18-.94Z"/><path id="53035" d="m114.37,25.94l.13,1.27-.7.59-1.28.51-.31.49-1.11.71-.41,1.08-.74.67-2.25.12-.19.51-.81.06-1.05.73-.22.25.36.09.67.13,2.25.71-.76,2.54,3.53,1.13,1.45-2.16-.47-.38.24-.86-.28-.38-.33.43-.65.19-.54-.02-.44.1-.28-.29.54-.39.45-.32.05-.6-.37.02-.3-.52.67-.91.2.7-.03,1.25.68-.24.39-.72-.35-.78.33-.83-.61-.8.51-.56.51,1.18.49-.14.6-.73.58.39.56-.03-.24-.82.26-.27-.14-.56.3-1.29-.05-.61-.23-.38-.63-.26Zm-.81,4.8l.53.68-.26,1.49-.04.92-.55.03-.18-.73-.5.11.35-1.45.65-1.05Z"/><path id="53045" d="m98.67,28.85l-.59,1.95-1.85,5.68.26.11-1.12,3.84,4.46,1.21,1.92.57.32-.68.5-.04.06-.4.64-.33.71-.23.9.25-.13-.88-.06-.65.3-.78.71-.23.83-.35.81-1.17.29.67.3-.99.76-2.55-2.25-.71-.67-.13-.36-.09-.52.79-1.87,1.72.63.42.71.03,1.4-.2,1.06-.31.74-.18-.16.73-.48.2-1.11.35-.74-.09-1.04.38-1.04-.35-.5.34-.5-.75.49-.94,1.22-1.32.82-.64.36-.88,1.11-.89.1-.06.33-.08-7.75-2.32Zm6.98,9.77l-.58.33.13,1.47.04.91.8-.61-.14-1.22.45-1.13-.7.26Z"/><path id="53027" d="m85.46,26.61l4.53,1.4-.04.34,8.14,2.46-1.85,5.68.26.11-1.12,3.84,4.46,1.21-.67,2.05.65.19-1.23,4.35-3.2-.92-3.58-1.11-3.8-1.08-3.65-1.17v-2.58s.33.16.33.16h.02s-.18,1.63-.18,1.63l.43-.25.22.61.63-.1v-.64s.12-.38.12-.38l.88-.59,1.77-.06.38-.08h.02l.78.03.18-.48h-.79s-2.21-1.2-2.21-1.2l.07-.9-.52-.42-.79-.51-.84.06-.3,1.85-.28-.03.59-1.99.47-1.73.21-4.1-.54-.48-.23-1.12v-.28s.14-1.12.14-1.12l.54-2.64"/><path id="53031" d="m83.95,17.85h0s.32.17.32.17l.27.32.02.03.02.02.66,1.25.09.16.41,1.82.02.2-.07,2.51-.09,1.09-.1.93-.05.27,4.53,1.4-.04.34,8.14,2.46.59-1.95,7.75,2.32.94-.67.87-.63.86-1.2.37-1.77.54-.18-.18,1.14h.23s.32-1.47.32-1.47l.57.04-.15,1.11-1.3,2.48.46.05.52-1.16.28-.1.51-.91.97-.61.17-.77.82.21v-.95l-.26-.88-.15-1.66-.31-.19-.1-.76-.22-.84.29-.55.7-.06.08-.5-.35-.1-.79-.03-.71.89.42,1.07-.65,1.16-.59-.21.21-.49-.02-.56-.53-.5.24-.76-.36-.32-1.43,5.07-10.3-3.1.06-.23-1.66-.54-5.6-1.68-3.73-1.16-.92-.32-2.58-.74Zm29.31,4.95l.44.84.13-1.13.15-.89-.63.06-.1,1.12Z"/><path id="53009" d="m83.95,17.85l-.17-.44-.03-2.05.49-2.2.47-.68-.31-1.44.57-.13.44-1.06-.07-.32.44-.3.19-.48.43-.31.21-.78-.46-.51-.47-.81.15-.04.95.27.53.47.49.43.59.6.19.19,1.14,1.37,4.56,4.33.95.59,1.63.73,2.06.68.75.13.44.36.34.44,1.07.06.32.47,1.35.64.94.45,1.77.44,1.09-.18,1.01.02.55.79v1.37s.23,1.14.23,1.14l.45-.27.13-1.12.75-.13-1.43,5.07-10.3-3.1.06-.23-1.66-.54-5.6-1.68-3.73-1.16-.92-.32-2.58-.74"/><path id="53057" d="m146.31,17.41l-.58.53.14,1.01.19.21.6-.26.27.74-.31.15-.29.59h-.44s-.45.21-.45.21l-.45-.03-.3-.34.1-.35-.06-.35-.5-.11v.27s-.24.1-.24.1l-.16-.25-.45.17-.41-.18-.31-.05-.07.6-1.48-.22-.53.74.33.56-.68.73v.46s.15.42.15.42l-.11.4-.38-.05-.23.36.8.91-7.46-2.05-1.12-.34-3.87-1.09-8.08-2.27-.27-.76-.82-.77-.85-.74-.1-.92.26-.62-.3-.21-.29.35-.34.08h-.42s-.26-.11-.26-.11l-.05-.68.26-.19.1-.44-.1-.33-.38-.18.08-.32.45.08.74-.14.38.06.12.79.42-.23.27,1.18.42.23.38-.33-.04-.79.22-.67-.12-.64-.75-.53.22-.26.75.62.35.41.87-.75-.2-.6-.44-.59.34.03,5.14,1.44,12.83,3.67,5.28,1.41.07-.37,2.18.6m-29.07-5.01l.47-1.3.61,1,.07.56-1.15-.26Zm-.94-.42l.03-.55-.12-.55.5-.55.36.32-.02.41.12.33-.22.09-.19.31-.47.19Z"/><path id="53007" d="m146.32,20.39l.8.1-.18.58.35.33-.48.28.32.33-.66.31v1.23s1.02.57,1.02.57l-.04.62-.52.72.56.52.46-.06.66,1.55.79.65-.1.28.53.15v.63s-.46.46-.46.46v.61s.27.21.27.21l.05.38.5-.05.34.5.55.98.37.05.72.68-.31.37.75.73-.09.47.19.42-.1.44,2.89.79.06.27v.18l-.11.22-.89.45-.16.87-.87.24-.2.61-.74.64-1.5.04-.11-.04-.08-.13-.2-.21-.19-.09-.98.13-.22.09-.14.1-.22.25-.12.43.17.61-.08.46-.68.57-.3.98-.57.69-.54.18-.38.51-.48,1-.11.33v.56l.05.79.06.19.44.38.23.13,1.55.7.51.78v.13s-.21.68-.21.68l-.2.55-.16.31-4.49-1.14-.42-.44-.3-.52-.36-.17-.36-.38-.24-.57-.47.44-.37-.03-.08-.83-1.28-.45-.18-.47-.44-.23v-.63s-.29-.02-.29-.02l-.53-.54.03-.26-.95-.16-.93-.47.17-.54-.49-.35.1-.45-.35-.33-.13-.74-.96-.86-.21-1.34.16-1.37v-.49s1.22-.29,1.22-.29l.05-.17-.23-.35.17-.35-.36-1.04.51-.34.51-.53-.66-.17-.47-.55.24-.63-.27-.26.05-.49.22-.46.27-.42v-.21s.45-.45.45-.45h.17s.45-.33.45-.33l-.34-.95,1.98-.4.22.18,1.29-.56-.09-.77,1.09-.13-.24-.94-.38-.39.23-.26-.33-.7-.27-.69.2-.42-.8-.91.23-.36.38.05.11-.4-.15-.42v-.46s.67-.73.67-.73l-.33-.56.53-.74,1.48.22.07-.6.31.05.41.18.45-.17.16.25.23-.1v-.27s.51.11.51.11l.06.35-.1.35.3.34.45.03.45-.23h.44"/></svg>