<?xml version="1.0" encoding="UTF-8"?><svg xmlns="http://www.w3.org/2000/svg" viewBox="0 0 989.98 627.07"><g><path id="54003" d="m837.64,245.06l.49.54.84-.31.67-.03.86-.31.63-.09.08.61-.77.32.78,1.21.51.28-.31,1.07-.15.32-.94,1.43-.34.22-.11.24-.82,2.12-.03.14-.04.48-3.95-2.14.67-5.03.04-.1,1.89-.96"/><path id="54037" d="m841.73,247.27l.5.02.22,1.25,1.15.15-.07,1.78.68.36-1.06,4.66-4.16-2.19.04-.48.03-.14.82-2.12.11-.24.34-.22.94-1.43.15-.32.31-1.07"/><path id="54011" d="m768.35,281.12l2.97,2.1.21,1.21.27,1.06h-.35s-.12.24-.12.24l-.4.07-.08.14-.19.34-1.07.37-.32.38v.32s-.26-.01-.26-.01l.09.64-.5.56-.18.8-.28.06-.62-.45-.1-.7.1-.27.46-.29-.32-.21-.42-.35-.32.21-.04.29-.13.18-3.01-1.92,1.49-.81.61.03.82-.32.31-.48.03-.15.03-.17.08-1.65v-.05s.01-1.01.01-1.01l.26-.24.96.08"/><path id="54059" d="m768.71,295.86l1.89-.87-.07.3.74,1.07.71.25.14.32-.08.13.21.43-.48.45.28.24.03.42.31-.02.28.27.15.63-.18.12.03.37.16-.05.33.33.26.7.69-.15.05.17.39.31.03.26.41.18.13.31.12-.05-.03-.23.13-.27.35-.02.12-.25h.21s.08-.16.08-.16l.43-.06-.04.2.34.2.18-.18.16-.02.08-.29.11-.03.16.28h.24s.21-.21.21-.21l.07.21.23.09.28-.08.21,1-.25.1v.27s-.2.33-.2.33l-.07.51-.29.14.06.34-1.05.8-.62-.23-.48-.22-1.07.38-1.17-.26h0l-1.17-1-.55-1.05-.62.37-1.33-.78-.67-1.04-.03-.11v-.02s-2.08-2.56-2.08-2.56l1.57-2.25"/><path id="54099" d="m763.73,285.88l3.01,1.92.13-.18.04-.29.32-.21.42.35.32.21-.46.29-.1.27.1.7.62.45.28-.06-.13.71.05,1.36.47.23-.1.36.24.24.37.03.02.45.25.15.41.06-.04.32.27.04v.4s-1.52,2.16-1.52,2.16l-1.57,2.25-1.64-1.68.47-.8v-.15s-.03-.03-.03-.03l-1.22-.44-.91-1.44-.54-.23-.33-.63v-.02l-.8-.44.02-.51.45-1.97.25-.8-.04-.94-.6-.7-.15-1.23.63.2,1.03-.44"/><path id="54109" d="m781.57,297.69l.52.18.09.27.25-.05.25-.29.28-.32.22-.02v-.11s.45.05.45.05l.17.12.27-.02.21-.12.53.68.29.08,2.2,2.97.05.18.27.22.24.86.69.29h.49s.49.36.49.36l-.28.11-.1.13-.23.07-.16.36v.3s-.29.25-.29.25l-.07.17-.24.18.27.09.24.5-.1.21-.26-.1-.45-.21-.88-.16-.19-.26-.25-.13-.59.36-.4-.15-.11-.42-.34-.11-.44.38h-.49s-.19-.21-.19-.21h-.51s-.7.13-.7.13l-.13-.24-.15-.27-.07-.22h-.15s-.15.13-.15.13l-.1.16-.27-.07-.08-.1-.18.02-.13.16-.25.05.02.28-.25.06-.08.2-.37.02-.13.13-.48-.28-.11.13-.21-.05-.13.17h-.16s-.13-.2-.13-.2l-.27.11-.3-.12v-.45s-.21-.04-.21-.04l-.06-.26-.29.03-.06-.34.29-.14.07-.51.21-.33v-.27s.25-.1.25-.1l-.21-1,.32-.41.58-.19.44-.44.32-.17-1.29-.98.17-.16.15-.13.34.02.83-.51.7-.17.47-.32"/><path id="54045" d="m774.89,293.19l-.46.5-.19.39.1.15.44.18.33-.17.54.08-.12.32.36.15.47-.14.24.06.78-.05.18.16h.35s.54.46.54.46l.09.57-.27.44.14.29.51.23.05.32.21.03.02.18.27.14.73-.58.49-.06.4.56.22.03.22.23-.47.32-.7.17-.83.51-.34-.02-.15.13-.17.16,1.29.98-.32.17-.44.44-.58.19-.32.41-.28.08-.23-.09-.07-.21-.21.21h-.24s-.16-.28-.16-.28l-.11.03-.08.29-.16.02-.18.18-.34-.2.04-.2-.43.06-.08.17h-.21s-.12.24-.12.24l-.35.02-.13.27.03.23-.12.05-.13-.31-.41-.18-.03-.26-.39-.31-.05-.17-.69.15-.26-.7-.33-.33-.16.05-.03-.37.18-.12-.15-.63-.28-.27-.31.02-.03-.42-.28-.24.48-.45-.21-.43.08-.13-.14-.32-.71-.25-.74-1.07.07-.3,2.38-1.29h.28s.73-.35.73-.35h.37s.54-.17.54-.17"/><path id="54047" d="m777.98,303.84l.29-.03.06.26.22.04v.45s.29.12.29.12l.27-.11.13.18h.16s.13-.15.13-.15l.21.05.11-.13.48.28.13-.13.37-.02.08-.2.25-.06-.02-.28.25-.05.13-.16.18-.02.08.1.27.07.1-.16.15-.13h.15s.07.22.07.22l.15.27.13.24.7-.14h.51s.19.23.19.23h.49s.44-.39.44-.39l.34.11.11.42.4.15.59-.36.25.13.19.26.88.16.45.21-.66,1.96-.73,1.48-1.32,1.4v.02s-.8.72-.8.72l-.06.03-2.11.42-1.2-.71-2.04-.74-.21-.11h0l-1.51-1.32-.25-1.46-1.3-.74-.13-.34.05-.15.81-.73.06-.36,1.05-.8"/><path id="54055" d="m791.54,300.77l5.01,3.04.06.64-.3.53.79.7-.91.96-1.29.64-2.1.75-2.1,1.27-3.01-2.07.66-1.96.26.1.1-.21-.24-.5-.27-.09.24-.18.07-.17.29-.25v-.3s.17-.36.17-.36l.23-.07.1-.13.28-.11.24-.13-.02-.36.11-.36-.23-.42.16-.36.33-.11.19-.27.3-.2.49.08.42-.12"/><path id="54063" d="m798.73,296.31l2.93.45.67-.19.23.13.32-.06.8-.82v.28s.23.04.23.04l.07.23.36-.02.12-.46.13.04v.28s.29.08.29.08l.76-.13,1.59,1.24-1.04,1.25-.61.58.2.51-.32.25.49.14.27-.34.21.12-.18.52-.36.37-.71.38-.08.28-.77.57-.87.79-.86-1.24-1.81,1.43-.19.15-2.23,1.68-1.78-1.02.72-2.56.42-.99,1.05-3.21-.03-.77"/><path id="54089" d="m796.59,294.02l.69.55.21.27,1.06.72.17.75.03.77-1.05,3.21-.42.99-.72,2.56-.02-.03-5.01-3.04.41-.45.03-.83.8-1.02.49-.42-.14-.23-.03-.21h.3s.41-.1.41-.1l.31.26.29-.05.27.27.05.3.32-.21v-.29s-.24-.16-.24-.16l-.28-.52-.49-.3.41-.47.03-.33-.52-.33-.12-.44-.22-.14-.14-.03,2.23-1.47.89.43Z"/><path id="54081" d="m783.67,292.76l.06.2.63.15.14-.2h.6s.53-.22.53-.22l.43.18.05.28.53.13v.36s.17.5.17.5l-.03.32.93.02,3.27-.33-.03.29-.48.15.12.18.63-.21.22.09-.22.27.16.15.33-.06.18.06,1.01-.24.56.21.14.03.22.14.12.44.52.33-.03.33-.41.47.49.3.28.52.25.16v.29s-.33.21-.33.21l-.05-.3-.27-.27-.29.05-.31-.26-.41.11h-.3s.03.2.03.2l.14.23-.49.42-.8,1.02-.03.83-.41.45-.42.12-.49-.08-.3.2-.19.27-.33.11-.16.36.23.42-.11.36.02.36-.24.13-.49-.35h-.49s-.69-.3-.69-.3l-.24-.86-.27-.22-.05-.18-2.2-2.97-.29-.08-.53-.68-.21.12-.27.02-.17-.12-.44-.05-.18-.23.07-.39-.29-.13-.26.08-.49-.95.18-.61-.11-.12-.03-.41-.27-.11.32-1.07.37-.23.25-.39.42.2.08-.2.45-.02"/><path id="54005" d="m783.67,292.76l-.45.02-.08.2-.42-.2-.25.39-.37.23-.32,1.07.27.11.03.41.11.12-.18.61.49.95.26-.08.29.13-.07.39.18.23v.11s-.23.02-.23.02l-.28.32-.25.29-.25.05-.09-.27-.52-.18-.22-.23-.22-.03-.4-.56-.49.06-.73.58-.27-.14-.02-.18-.21-.03-.05-.32-.51-.23-.14-.29.27-.44-.09-.57-.54-.46h-.35s-.18-.16-.18-.16l-.78.05-.24-.06-.47.14-.36-.15.12-.32-.54-.08-.33.17-.44-.18-.1-.15.19-.39.46-.5.27-.14.24-.05-.25-.12h-.43s-.42-.12-.42-.12l-.19-.7.4-.71-.18-.31.31-.79.64.11-.13-.26.15-.25-.02-.37.61-.11.24-.71.21.2.06.26.41.15-.21-.24-.06-.31.41-.2-.04-.48.55.16.17.39.25.11.24-.32-.07-.17.39-.32.26.17.66-.17.29.96.21.13.15-.14.3.02.46.6.3.07.24-.09.25.16.05.33.48.16v.22s-.25.24-.25.24l.03.41.32.06.03.17h.34s.19-.15.19-.15l.09.12.21.05.04.2.14.23.2.13-.12.31.34.24.02.47"/><path id="54043" d="m771.79,285.48l.26.93-.02,1.03.23.05.12.13.27-.04.04.14.16-.02h.19s.05-.15.05-.15l.18-.06,1.06-1.26.2-.02.23.16.68-.03.32-.27.41.14.03.33.13.1.03.21.15.08v.18s-.1.12-.1.12l.13.14-.1.1.16.18-.25.28.13.08.16.18-.06.09-.28-.09.02.19-.2-.07-.07.08.08.24-.24.71-.61.11.02.37-.15.25.13.26-.64-.11-.31.79.18.31-.4.71.19.7.42.11h.43s.25.13.25.13l-.24.05-.27.14-.54.18h-.37s-.73.34-.73.34h-.28s-2.38,1.29-2.38,1.29l-1.89.87,1.53-2.16v-.4s-.28-.04-.28-.04l.04-.32-.41-.06-.25-.15-.02-.45-.37-.03-.24-.24.1-.36-.47-.23-.05-1.36.13-.71.18-.8.5-.56-.09-.64h.26s0-.31,0-.31l.32-.38,1.07-.37.19-.34.08-.14.4-.07.12-.25h.35"/><path id="54079" d="m777.18,278.79l-.4.68-.3.07-.16.41.18.71-.02.56.21.15.08.3.2.03.25.81-2.86,2.03-.02,1.71-1.06,1.26-.18.06-.05.16h-.19s-.16,0-.16,0l-.04-.14-.27.04-.12-.13-.23-.05.02-1.03-.26-.93-.27-1.06-.21-1.21-.6-3.03,1.84-1.46,3.07-1.07.38-.12,1.18,1.24"/><path id="54053" d="m772.61,273.73l-.03.05.18.27,2.37,2.51-.36.48.85.62-3.07,1.07-1.84,1.46.6,3.03-2.97-2.1.48-.29.15-.66-.58-1.27.13-.77-.32-.43-.19-.58-.44-.44.04-.46.52-.38.54-.59.09-.64-.2-.71h0l.26-.35.36-1.34.06-.32.5-.5.32-.89.34.06.53.75h0l.66-.12.8,1.17-.44.81.06.18.59.39"/><path id="54035" d="m777.9,269.36l.93.33-.03.36.14.23-.37.36.33.33.23.09.13.38.3.12v.34s-.37.11-.37.11l.4,2.02.16,2.37-.13.87.67,1.31-.24.28-.56.65-.97.73-1.34-1.47-1.18-1.24-.38.12-.85-.62.36-.48-2.37-2.51-.18-.27.03-.05.9-.36.21-1.08.16-.35.72.39.59-.2-.06-.54-.42-.3.3-1-.33-.53-.61-.4-.19-.25-.09-.31.63-.08.47-.4,3.02,1.05"/><path id="54039" d="m777.18,278.79l1.34,1.47.97-.73.56-.65.24-.28.42.74.64.63.22-.11,2.76-.11.77.27.84-.35.48.02-1.33,1.48.87,2.55.69,2.04h0l-1.1,2-.3.06-.16,5.1h-.6s-.14.19-.14.19l-.63-.15-.06-.2-.02-.47-.34-.24.12-.31-.2-.13-.14-.23-.04-.2-.21-.05-.09-.12-.19.16h-.34s-.03-.18-.03-.18l-.32-.06-.03-.41.25-.24v-.22s-.49-.16-.49-.16l-.05-.33-.25-.16-.24.09-.3-.07-.46-.6-.3-.02-.15.14-.21-.13-.29-.96-.66.17-.26-.17-.39.32.07.17-.24.32-.25-.11-.17-.39-.55-.16.04.48-.41.2.06.31.21.24-.41-.15-.06-.26-.21-.2-.08-.24.07-.08.2.07-.02-.19.28.09.06-.09-.16-.18-.13-.08.25-.28-.16-.18.1-.1-.13-.14.12-.12v-.18s-.16-.08-.16-.08l-.03-.21-.13-.1-.03-.33-.41-.14-.32.27-.68.03-.23-.16-.2.02.02-1.71,2.86-2.03-.25-.81-.2-.03-.08-.3-.21-.15.02-.56-.18-.71.16-.41.3-.07.4-.68"/><path id="54019" d="m793.53,288.43l-.09.62.4.35.67.04.04-.28.51-.07-.02.16-.17.1.04.22-.25.13.11.23.55.04.05.23.27.15-.02.41.28.11-.55.98,1.35,1.66-1,.08-2.23,1.46-.56-.21-1.01.24-.18-.06-.33.06-.16-.15.22-.27-.22-.09-.63.21-.12-.18.48-.15.03-.29-3.27.33-.93-.02.03-.32-.16-.5v-.36s-.55-.13-.55-.13l-.05-.28-.43-.18-.53.24.16-5.1.3-.06,1.1-2,.8.29.08.28.64.06.29-.29.83.54h.18s.17.19.17.19l.19-.02-.13-.35.24-.02-.15-.24.29-.06.08-.34.12-.08.05.1-.04.34.27.16.04.16.1.06.1-.09-.03-.32.39-.07.33.13.05.26.22-.05.18.15.03.57.24.28.34.23.26.02v.23s.22.12.22.12l.09-.26.15-.07v.47s.2.27.2.27"/><path id="54015" d="m788.11,277.33l.72-1.34,1.05.79v.32s.21.07.21.07l.07.3.68.19.39.34.12.46.46.24.28.59.98.12.19.34-1.25,1.67-5.34,4.35-.69-2.04-.87-2.55,1.33-1.48.98-1.08.7-1.28"/><path id="54087" d="m779.57,271.58l.14-.19.36-.04.31-.39.77.33,1.35.37.56-.41.51-.2.31.07.18.43.31.22v.58s.17.13.17.13l.12-.1.32.36v1s.29.06.29.06l.82,1.01v.36s.19.48.19.48l-.08.48.26.15.15.58.67.23.35-.2.5.44-.7,1.28-.98,1.08-.48-.02-.84.35-.77-.27-2.76.11-.22.11-.64-.63-.42-.74-.67-1.31.13-.87-.16-2.37-.4-2.02.36-.11v-.34"/><path id="54013" d="m787.59,268.33v.35s.54.34.54.34l.22.84-.09.31.38,1.59-.1.71-.32.13.06.21-.37.42.12.26.16.03.05.23.21.06.14-.13.1.21.15-.02.25.12.4.7-.64,1.28-.72,1.34-.5-.44-.35.2-.67-.23-.15-.58-.26-.15.08-.48-.19-.48v-.36s-.82-1.01-.82-1.01l-.31-.06v-1s-.31-.36-.31-.36l-.12.1-.17-.13v-.58s-.31-.22-.31-.22l-.18-.43-.31-.07v-.25s.15-.06.15-.06l-.11-.22,1.63-2.42.18-.25.59-.18.15.32.36.23.64.1.33-.13.11.14"/><path id="54105" d="m785.23,268.1l-1.63,2.42.11.22-.16.06v.25s-.5.2-.5.2l-.56.41-1.35-.37-.77-.33-.31.39-.36.04-.14.19-.3-.12-.13-.38-.23-.09-.33-.33.37-.36-.14-.23.03-.36-.93-.33.4-.68,1.96-2.33h.36s1.58-1.38,1.58-1.38l-.28,1.01.7.19.68.75.03.54-.16.25.39.11.09.3.41.14.2-.28h.61s.38.15.38.15Z"/><path id="54107" d="m780.58,261.75l.3.13.19.09.22-.09v.26s.18.26.18.26l.43-.04.64-.05.12.37.3.13-.4.35-.1.63-.23.42-.05.75-1.58,1.38h-.36s-1.96,2.34-1.96,2.34l-.4.68-3.02-1.05-.08-1.17-.26-.95.35-.78.37-.16v-.41s.12-.65.12-.65l.36-.24,1.6-.11-.05-1.73.93-.84.46-.84.34-.09.2.02.32.32.5.93.52.14"/><path id="54073" d="m786.76,260.38l-.38.06-.16.42-.25.25-.42-.08-.3.22-.22.06-.32.28-.22-.03-.41.29-.39-.14-.03.18h-.43s-.14.49-.14.49l.03.4-.16.04-.3-.13-.12-.37-.64.05-.43.04-.18-.26v-.26s-.22.09-.22.09l-.19-.09-.3-.13,1.72-1.51.76.03.17-.72.41-.62.7-.33.23-.43h.42s.23-.27.23-.27l.38-.17.52.15.63,2.51"/><path id="54085" d="m786.76,260.38l.24.17.15-.17.52.07.23-.65-.03-.23.06-.32.57.14.48.38.04.36-.11.48.21.62-.41.54,2.42,3.57v.22s-.1.15-.1.15l-.2.09-.04.17-.35-.02-.04.25-.08.15-.14-.08-.18.27-.2.05-.02.19-.37.29-.26.06-.18.23-.25.03-.12.29h-.23s-.03.15-.03.15l-.13.04-.15.27-.18.03-.3.17-.11-.14-.33.13-.64-.1-.36-.23-.15-.32-.59.18-.18.25-.38-.16h-.61s-.2.3-.2.3l-.41-.14-.09-.3-.39-.11.16-.25-.03-.54-.68-.75-.7-.19.28-1.01.05-.75.23-.42.1-.63.4-.35.16-.04-.03-.4.14-.47h.43s.03-.2.03-.2l.39.14.41-.29.22.03.32-.28.22-.06.3-.22.42.08.25-.25.16-.42.38-.06"/><path id="54021" d="m791.13,265.35l1.5.02.53,2,2.42,2-.35.15-.18.2-.08.22-.24-.02-.12.17-.15-.11-.17-.11-2.96,3.15-1.85,1.74-.4-.7-.25-.12-.15.02-.1-.21-.14.13-.21-.06-.05-.23-.16-.03-.12-.26.37-.42-.06-.21.32-.13.1-.71-.38-1.59.09-.31-.22-.84-.54-.34v-.35s.31-.17.31-.17l.18-.03.15-.27.13-.04.03-.14h.23s.12-.29.12-.29l.25-.03.18-.23.26-.06.37-.29.02-.19.2-.05.18-.27.14.08.08-.15.04-.25.35.02.04-.17.2-.09.1-.15v-.22"/><path id="54007" d="m795.57,269.35l.42.97.51-.22.2.24.16-.02.17-.2.35.12.13.17.22.02.18.21.17.06-.1.39.02.31.12.13.18-.1.18.14-.03.19.12.13.21-.06.08.13-.15.27.1.27-.07.27-.61,2.24-2.07,3.11-1.2.02-.44.3-.84-.65-1.49,1.5-.28-.59-.46-.24-.12-.46-.39-.34-.68-.19-.07-.3-.2-.07v-.32s-1.06-.79-1.06-.79l.64-1.28,1.85-1.74,2.96-3.15.17.11.15.11.12-.17.24.02.08-.22.18-.2.35-.15"/><path id="54067" d="m796.06,278.11l-.35.68.91,1.64-.35.4.88,1.12.11-.19,3.69,1.67-1.45,1.85-2.4,2.91-.34.35-3.24-.1-.21-.27v-.47s-.14.07-.14.07l-.09.26-.23-.12v-.23s-.26-.02-.26-.02l-.34-.23-.24-.28-.03-.57-.18-.15-.22.05-.05-.26-.33-.13-.39.07.03.32-.1.09-.1-.06-.04-.16-.27-.16.04-.34-.05-.1-.12.08-.08.34-.29.06.15.24-.24.02.13.35-.19.02-.17-.18h-.18s-.83-.55-.83-.55l-.29.29-.64-.06-.08-.28-.8-.29h0l5.34-4.35,1.25-1.67-.19-.34-.98-.12,1.49-1.5.84.65.44-.3,1.2-.02"/><path id="54025" d="m802.46,284.15l.36,2.56,2.01,1.25.99.06.75-.1,1.02-.64,2.58-.62-1.24,2.84-2,3.13-1.29,3.54-.76.13-.29-.08v-.28s-.13-.04-.13-.04l-.12.46-.36.02-.07-.23-.22-.04v-.28s-.81.82-.81.82l-.32.06-.23-.13-.67.19-2.93-.45-.17-.75-1.06-.72-.21-.27-.69-.55-.89-.43,1-.08-1.35-1.66.55-.98-.28-.11.02-.41-.27-.15-.05-.23-.55-.04-.11-.23.25-.13-.04-.22.17-.1.02-.16-.51.07-.04.28-.67-.04-.4-.35.09-.62,3.24.1.34-.35,2.4-2.91,1.45-1.85,1.51.72"/><path id="54101" d="m798.74,272.77h1.24s.38-.18.38-.18l.67.26.41.66.64-.32,2.34,3.59-.56,3.31-1.29,1.46-.43-.15.32,2.75-1.51-.72-3.69-1.67-.11.19-.88-1.12.35-.4-.91-1.64.35-.68,2.07-3.11.61-2.24"/><path id="54097" d="m800.17,263.9h.86s.13-.42.13-.42h.24s.28.37.28.37h.85s.85,1.16.85,1.16l1.15-.16.37.54-.13.95-.23.51-.19,1.37.37,1.11-.12,2.25-1.94.37-.57,1.24-.64.32-.41-.66-.67-.26-.38.19-.45-.89v-2.51s.01-.24.01-.24l.53-1.06-.09-.36.36-.4-.46-.84.28-.5v-2.07"/><path id="54041" d="m794.76,263.31l.81.12.21.19,1.14-.21.35.18,2.89.31v2.07s-.29.5-.29.5l.46.84-.36.4.09.36-.53,1.06-.02.24v2.51s.46.89.46.89h-1.24s.07-.27.07-.27l-.1-.27.15-.27-.08-.13-.21.06-.12-.13.03-.19-.18-.14-.18.1-.12-.13-.02-.31.1-.39-.17-.06-.18-.21-.22-.02-.13-.17-.35-.12-.17.2-.16.02-.2-.24-.51.22-.42-.97-2.42-2-.53-2,.43.02.24-.39.13-.39.2-.2.07-.26.53-.04.16-.38.26-.1.12-.3"/><path id="54017" d="m793.31,256.89l.34.21.03-.17.23-.05.18.29.08-.13.17-.02.06.17.28-.03-.02.66.37.93-.37,1.08-.25.04-.25.78h.38s-.07.53-.07.53l.78.41v.21s-.29-.03-.29-.03l.09.28.66.09.02.4-.42.19-.07.25-.5.09.02.24-.12.3-.26.1-.16.38-.53.04-.07.26-.2.2-.13.39-.24.39-.43-.02-1.5-.02-2.42-3.57.41-.54.81-1.2,1.55-1.53.22-.75.85-.25.75-.62"/><path id="54095" d="m787.07,254.22l1.05.5.58-.56.03.3.42.21.16.43.24-.16.25.09.18.21.05.28.34.16.58.21.49.82.35-.04.37-.17.09.28.46-.14.59.26-.75.62-.85.25-.22.75-1.55,1.53-.81,1.2-.21-.62.11-.48-.04-.36-.48-.38-.57-.14-.06.32.03.23-.23.65-.52-.07-.15.17-.24-.17-.63-2.51-.52-.15-.38.17-.23.28h-.42s1.09-2.17,1.09-2.17l1.41-1.78"/><path id="54033" d="m795.4,256.1l4.06.32,1.31.61.48,2.8.73.52-.81,1.84.24,1.29h-.24s-.13.41-.13.41h-.86s-2.89-.31-2.89-.31l-.35-.18-1.14.21-.21-.19-.81-.12-.02-.24.5-.09.07-.25.42-.19-.02-.4-.66-.09-.09-.28.29.03v-.21s-.78-.41-.78-.41l.07-.53h-.38s.25-.78.25-.78l.25-.04.37-1.08-.37-.93.02-.66.38-.18v-.5s.28-.12.28-.12l.07-.27"/><path id="54029" d="m790.58,229.43l.61,3.69.3,1.79-1.88.46.21-.36-.11-.51.17-.66-.09-.56-.45-.51-.22-.56-.33-.39-.51-.42-.03-.27.45-.65.61-.38.37.07.32-.32.58-.43"/><path id="54009" d="m791.49,234.91l.89,5.47-2.82-.15.12-.71.15-.64.64-.62-.12-.39.21-.81-.39-.72v-.55s-.57-.41-.57-.41l1.88-.46"/><path id="54069" d="m789.56,240.23l2.82.15.53,3.28-3.74.22.03-.57-.22-.31.48-.77-.24-1.27.34-.72"/><path id="54051" d="m792.91,243.67l1.1,6.74-5.36.89-.74-.78.63-1.12-.16-.76.16-.37.35-.43-.42-.88.61.08.31-.26-.32-.78.32-.62-.3-.95.08-.55,3.74-.22"/><path id="54103" d="m795.72,250.13l.52.91.24.94-.16.22-.19-.15-.42.36.12.16-.19.17v.37s-.23.03-.23.03l-.3.14.1.22-.24.51.09.37.23.23.03.35.33.37v.37s-.23.13-.23.13v.26s-.07.27-.07.27l-.28.12v.5s-.37.18-.37.18l-.28.03-.06-.17-.17.02-.08.13-.18-.29-.23.05-.03.17-.34-.21-.59-.26-.46.14-.09-.28-.37.17-.35.04-.49-.82-.58-.21-.34-.16-.05-.28-.18-.21-.25-.09-.24.16-.16-.43-.42-.21-.03-.3-.58.56-1.05-.5.9-.14.36-.74-.07-1.31.45-.21-.05-.52,5.36-.89,1.7-.27"/><path id="54049" d="m796.47,251.98l.53.04.41.41,3.37-.53,1.37,1.05.88.77,2.09,1.15-1.09.98-.19.5-1.04.57-.2-.26-.33-.27-.2.29-1.31.35-1.31-.61-4.06-.32v-.26s.22-.13.22-.13v-.37s-.33-.37-.33-.37l-.03-.35-.23-.23-.09-.37.24-.51-.1-.22.3-.14.23-.03v-.37s.19-.17.19-.17l-.12-.16.42-.36.19.15.16-.22"/><path id="54001" d="m808.24,259.55l-.05,2.36.24.31-.35.55-.06.16-.22,1.9-.02.67-.05.18-3.2,1.15.23-.51.13-.95-.37-.54-1.15.16-.85-1.15h-.85s-.28-.38-.28-.38l-.24-1.29.81-1.84.3.18,2.18-.66,1.03-.76.19-.49.1-.14.48.08.21-.32.75.33.2.7.72.08.08.21"/><path id="54091" d="m805.12,254.87l.84.26.52,3.11-.21.32-.48-.08-.1.14-.19.49-1.03.76-2.18.66-.3-.18-.73-.52-.48-2.8,1.31-.35.2-.29.33.27.2.26,1.04-.57.19-.5,1.09-.98"/><path id="54061" d="m807.1,248.22l.1.54-.15,1.74-1.36,3.57.27,1.04-.84-.26-2.09-1.15-.88-.77-1.37-1.05-3.37.53-.41-.41-.53-.04-.24-.94-.52-.91,8.75-1.46,2.63-.45"/><path id="54075" d="m813.61,271.97l.19.16-.13.52.31.32-.41.69-.03,1.9-.09,1.62-.47,1.69-1.1,1.71v.08s0,.03,0,.03l.43.88-.64.94-1.33,1.6.32,1.6-.49.94-2.58.62-1.02.64-.75.1-.99-.06-2.01-1.25-.36-2.56-.32-2.75.43.15,1.29-1.46,1.87-2.26h1.69s2.55-2.58,2.55-2.58l.12-1.85.06-.4.53-2.27.1-.07.39.07.52.34-.13.74.23.06.31-.15.23.05.15.29.29-.02v-.32s.21-.32.21-.32l.6.23.06.34"/><path id="54077" d="m812.08,247.34l1.89,11.79.03.26-.44-.43-3.34-.71-1.98,1.3-.08-.21-.72-.08-.2-.7-.75-.33-.52-3.11-.27-1.04,1.36-3.57.15-1.74-.1-.54,4.98-.88"/><path id="54083" d="m817.19,264.25l.17.14-.27.89-.69.08-.32-.19v.03l-.39.14.3.63-.55.39h-.65s.18.63.18.63l-.3.62.24.1-.08.44.54.47-1.26,2.88.09.28-.57.18-.06-.34-.6-.23-.22.32v.32s-.27.02-.27.02l-.15-.29-.23-.05-.31.15-.23-.06.13-.74-.52-.34-.39-.07-.1.07-.53,2.27-.06.4-.12,1.85-2.55,2.59h-1.69s-1.87,2.26-1.87,2.26l.56-3.31-2.34-3.59.57-1.24,1.94-.37.12-2.25-.37-1.11.19-1.37,3.2-1.15.05-.18.02-.67.22-1.9.06-.16.35-.55.42.1.36.24.27.4v.87s5.26.55,5.26.55l2.45-.13"/><path id="54071" d="m817.36,264.39l4.36,2.61,1.56.95-1.81,6.98-1.25,1.8-3.08-.52-1.09-1.62-.34-.34-.36-.16-1.78-.43.41-.69-.31-.32.13-.51-.19-.17.57-.18-.09-.28,1.26-2.88-.54-.47.08-.44-.24-.1.3-.62-.18-.63h.65s.55-.39.55-.39l-.3-.63.39-.14v-.03l.32.19.69-.08.27-.89"/><path id="54093" d="m808.24,259.55l1.98-1.3,3.34.71.44.43.44.3.72-.49.36.1.42-.55.3.13v-.23s.48-.2.48-.2l.41.07.42.32-.27.21-.09.24.05.21-.16.08-.1.41.12.27-.24,1.17.93.15v.62s-.03.66-.03.66l-.18.78-.39.61-2.45.13-5.27-.55v-.87s-.27-.4-.27-.4l-.36-.24-.42-.1-.24-.31.05-2.36"/><path id="54023" d="m816.84,255.68l2.87-.22,2.95,1.38-.1.24-.47,1.87.07.94-.59,1.84.31.3-.04.5,1.03,1.57-.53.79.11.53-.75,1.58-4.36-2.61-.17-.14.39-.61.18-.78.04-.66v-.62s-.93-.15-.93-.15l.24-1.17-.12-.27.1-.41.16-.08-.05-.21.09-.24.27-.21-.42-.32-.41-.07-.49.2v.23s-.29-.13-.29-.13l-.42.55-.36-.1-.72.49-.44-.3-.03-.26.54-.2,1.42-1.54.92-1.71"/><path id="54031" d="m822.66,256.84l1.57.63,3.11.6.83-.18.34.08.24.3.44-.13.34.08.22-.36.65.06.47.29.63.51-.5.98-.33.76.3.15-.57,1.39-.42-.26-.43.62-.22.78-.68.69-.09-.55-.47.19-.16.58-.39.38-.97,2.88-2.46-1.27-.82,1.91-1.56-.95.75-1.58-.11-.53.53-.79-1.03-1.57.04-.5-.31-.3.59-1.84-.07-.94.47-1.87.1-.24"/><path id="54057" d="m827.02,249.03l-.42.9-.32.83-.62.65-.27.63-.51,1.58-.29.59-.49.13-.53.84v.53s-.56.5-.56.5l-.36.62-2.95-1.38-2.87.22,3.27-3.95,1.9.43,2.88-3.97,2.12.84"/><path id="54027" d="m827.02,249.03l3.35-.18,2.32.76-.03,1.76.34.39-.17.76.42.04-.19.87-.49.85-.13.56-.15.17.41.1-.42,1.15.22.14.03.2.41.29-.47.65-.06.45-.37.4-.54.34-.63-.51-.47-.29-.65-.06-.22.36-.34-.08-.44.13-.24-.3-.34-.08-.83.18-3.11-.6-1.57-.63.36-.62.56-.5v-.53s.52-.84.52-.84l.49-.13.29-.59.51-1.58.27-.63.62-.65.32-.83.42-.9"/><path id="54065" d="m832.21,245.7l.93.18.21-.03.62-1.14.46-.72.12-.14.11-.04.6.02.65.07.64.24.8.58.3.33-1.89.96-.04.1-.67,5.03-2.3-1.18-2.37-1.12,1.84-3.15"/></g></svg>