<?xml version="1.0" encoding="UTF-8"?><svg xmlns="http://www.w3.org/2000/svg" viewBox="0 0 989.98 627.07"><path id="55001" d="m628.6,164.33l.41,6.07.49,7.82-3.07.24-.11-.45-.5-.3-.38-.79-.3-1.07-1.25-1.24v-.2s-.73-.68-.73-.68v-.32s-.51-.81-.51-.81l.25-.26.25-.02-.02-.46-.36-1.23-.65-.22.1-.5-.29-.23-.17-1.3.19-.59.48-.1.12-.93.38-.02.2.2h.19s-.04-.51-.04-.51l.32-.04-.02-.28-.27.04-.06-.15.29-.17-.34-.21v-.12s.25-.11.25-.11l.08-.22-.02-.41,3.01-.31,2.09-.1"/><path id="55003" d="m611.76,100.28h-.79s-.21.32-.21.32l-.1.44.12.4-.09.29-.15.21.09.25.62-.28.38-.47v-.54s.13-.62.13-.62Zm-1.75,2.83l-.27-.19-1.67.56-.36.67.17.28,1.14-.36h.51s0-.25,0-.25l.26-.29.23-.43Zm-3.3,6.29l-.28.62.03.4-.14.24-.38.28-1.71,1.04-.06.02h-.14l-.15-.04h0s.58,9.86.58,9.86l.16,3.66.04.33,3.98-.23,6-.35-.09-1.98-.17-1.98-1.95.11-.12-1.96-2.02.11-.1-2.66-.18-3.28-.13-1.92-1.29-.84-1.88-1.42Zm.53-2.09h-.38s-.72.74-.72.74h-.29s-.04-.77-.04-.77l.87-.44.13-.29,1.05-.74.39-.62.39-.03.53.54-.36.24-.43.04-.88.41-.07.46.5-.07v.32s-.69.22-.69.22Z"/><path id="55005" d="m587.25,134.46l7.92-.3.35,7.93.04,1.94-1.96.08-8.03.3-.31-9.88,1.99-.08"/><path id="55007" d="m603.88,111.96l.58,9.85-10.02.45-.31-6.29-.12-1.96-.22-5.46.23.02.41-.09,1.72-.86.38-.02.53-.78,1.23-.28.45-.74.41.02.44.48.49-.79.15.33.51.04.14-.09-.03-.46.33.02.27.14.3-.39-.02-.25.29-.28.25-.11.47-.6.76.28.84-.81.24-.04.29.1.86.67.53.61.07.12v.11l-.31.34-.37,1.19-.48.58-.12.34-.41.03v.44s-.22.23-.22.23v.42s.5.75.5.75l-.04.36-.44.44-.35.16h0s-.19.31-.19.31l.02.39-.21.72-.19.06v.08s.17.18.17.18l.23.07"/><path id="55013" d="m582.56,122.76l3.91-.17.15,3.99h.27l.36,7.89-1.99.08-.07-1.97-6.02.16.06,1.99-5.75.16.65-2,1.61-3.23.2-.36.2-.27.8-.7h0l3.34-2.19,2.34-1.46-.03-.9-.04-1"/><path id="55011" d="m596.48,158.09l.3,8.14-.59.56-.5.18-.3.44.27.3-.37.49.95.3.23.96.2.3-.32,1.59-5.24-3.76-.26-.53-.35-1.26-.39-.34.1-.36-.02-.51-.93-.85-1.85-.87.06-.64.27-.55.35-2.9.32-.19.31-.16,5.78-.25,1.99-.08"/><path id="55017" d="m595.52,142.1l9.98-.5.58,9.98-11.87.62-.28-6.05-.28.02-.06-2.04,1.96-.08-.04-1.94"/><path id="55019" d="m605.85,147.58l9.89-.62.46,8.01.36,5.99-1.98.17-5.99.34-.16-2.01-1.93.11-.1-1.99-.32-6-.23-3.99"/><path id="55029" d="m671.47,133.54v.26s-.19.27-.19.27l-.28.02-.11-.16-.33.03-.12.14-.5.04-.17-.19h-.17s-.12.69-.12.69l.03.41.12.08.02.2-.09.02.05.41.43.3.54.59v-.67s.47-.26.47-.26l-.02-.7.26-.56.29-.41h.18s0-.41,0-.41l-.27-.09Zm-2.08,3.36l-.35-.15h-.38l-.53.35h-.19s-.16.55-.16.55l-.51.2-.09,1.51-.6.25-.41.59-.42-.02-.13-.24-.34.18.06.87-.25.35.07,1.02-.87.92-.52,1.3-.46,1.28-.04.67.33.23.02.44-.28.26-.22-.18-.06-.44-.24-.17-.56.75h-.72s-.56.54-.56.54l-.96.23-.39.61-1.19,2.16-.15,1.12h0s5.92-.48,5.92-.48l.4-1.05.32-.72-.11-.89.56-.66.19-.39-.05-.32.91-.72.07-.31-.26-.37.47-.6.3-.02-.3-.41v-.65s.28-.75.28-.75l.39-.2.1-1.08.65-.05.48-.8.09-.34-.26-.4.39-.46-.31-.29-.08-1.35.27-.29.41.32.24-.12.09-.33.05-.44-.16-.28.14-.46-.08-.26Z"/><path id="55031" d="m582.13,111.17l.36.25.44.04.48-.03.08-.05.07-.07.22-.56-.02-.26-.02-.02-.08-.09v-.02l-.06-.14.02-.17.09-.18,1.12-.76.43-.03.91.89.22.1.08-.06.44.3.24.14.19.08.3.05,1.94-.32.47-.13,3.73-1.57.22,5.46.12,1.96.31,6.29-7.97.34-3.91.17-.22-5.96-.21-5.63"/><path id="55033" d="m593.6,144.12l.06,2.04.28-.02.28,6.05.19,3.97-8,.32-.11-3.99-.33-6h-.38s0-2.07,0-2.07l8.03-.3"/><path id="55035" d="m606.08,151.58l.32,6-3.98.19-5.95.31-1.99.08-.1-2-.19-3.97,11.87-.62"/><path id="55051" d="m611.99,111.94l1.82.99,3.23,3.97,1.48.31,1.62.34.48,7.28-1.85.12-4.13.26-.09-1.98-.17-1.98-1.95.11-.12-1.96-2.02.11-.1-2.66-.18-3.28-.13-1.92.58-.12,1.01.49.52-.08"/><path id="55053" d="m602.42,157.77l3.98-.19.1,1.99,1.93-.11.16,2.01,5.99-.34,1.98-.17.21,4.21.17,2.08-2.59.07-5.28.21-1.74.11-.8.3-.44.43.11,1.36-3.07.19-.02-.15-.19-3.94h-.2l-.31-8.07"/><path id="55061" d="m658.3,152.08l5.92-.49-.38,1.1-.52.61-.39,1.26-.17.96-.26,3.37-.33.93-3.66.33-.57-7.29.36-.78"/><path id="55067" d="m629.5,136.09l6.11-.38,1.98-.15.11,1.98,4.01-.3.26,3.99.68-.05.11,2.01-5.53.4.16,2.05-3.93.27-.15-2.03-3.28.2-.53-7.99"/><path id="55069" d="m629.5,136.09l.53,7.99-10.02.63-.35-6-.27-3.97,5.97-.4,3.95-.27.19,2.02"/><path id="55073" d="m620.01,144.71l10.02-.63,3.28-.2.15,2.03.55,8.1-5.05.19-5.07.31-7.69.47-.46-8.01,1.91-.11-.12-1.93,2.49-.22"/><path id="55085" d="m634.87,125.85l.74,9.86-6.11.38-.19-2.02-3.95.27-5.97.4-.48-7.84,11.72-.76.02.9,2.09-.13-.07-.9,2.2-.15"/><path id="55091" d="m586.39,156.49l8-.32.1,2-5.78.25-.31.16-.32.19-.35,2.9-.27.55-.06.64-2.46-1-1.21-.85-.09-1.1,2.8-.12-.05-3.3"/><path id="55093" d="m576.09,152.78l10.2-.28.11,3.99.05,3.3-2.8.12-.06-.09-.16-.14-.19-.09-.28-.06-2.21-.09-.7-.08-.26-.12-1.19-1.18-.04-.23-.18-.23-1.69-1.44-1.17-.67.57-2.72"/><path id="55095" d="m585.26,134.54l.31,9.88-9.82.37.25-2,.19-.18.02-.02.43-.53.61-1.56-.32-1.62-.79-1.5-1.27-.68-.32.05-.77-.13-.22-.17-.06-.45-.04-.61v-.15s.01-.36.01-.36l5.75-.16-.06-1.99,6.02-.16.07,1.97"/><path id="55099" d="m614.64,125.21l4.13-.26.14,1.94.48,7.84.27,3.97-1.34.07-3.21.25-2.16.21-3.57.18-.34-5.98-.41-7.88,6-.35"/><path id="55107" d="m609.04,133.43l.34,5.98-4.01.2.13,1.99-9.98.5-.35-7.93,13.88-.73"/><path id="55109" d="m585.57,144.43v2.08s.38-.01.38-.01l.33,6-10.2.28.12-1.74-.35-1.62-.4-.85-.05-.76.34-3.03,9.82-.37"/><path id="55113" d="m594.44,122.26l10.02-.45.16,3.66.04.33,3.98-.23.41,7.87-13.88.73-.73-11.91"/><path id="55119" d="m619.66,138.7l.35,6-2.49.22.12,1.93-1.91.11-9.89.62-.35-5.99-.13-1.99,4.01-.2,3.57-.18,2.16-.21,3.21-.25,1.34-.07"/><path id="55121" d="m602.42,157.77l.31,8.07h.2l.19,3.94-.77-.14-.42.81h-.38s-.35-.42-.35-.42l-.28.31-.4-.07-.4.64-.12.51.23.36.05.34-1.34-.03-2.59-.75.32-1.59-.2-.3-.23-.96-.95-.3.37-.49-.27-.3.3-.44.5-.18.59-.56-.3-8.14,5.95-.31"/><path id="55125" d="m620.14,117.55l11.52,2.36.87.18.68.14,1.09.37,1.13.56.97.47.14,2.1-1.83.13.15,1.99-2.2.15.07.9-2.09.13-.02-.9-11.72.76-.14-1.94,1.85-.12-.48-7.28"/><path id="55129" d="m586.46,122.59l7.97-.34.73,11.91-7.92.3-.36-7.89h-.27l-.15-3.99"/><path id="55141" d="m616.2,154.98l7.69-.47.27,3.99,1.93-.12.23,3.14.19,2.92-3.01.31-6.73.43-.21-4.21-.36-5.99"/><path id="55057" d="m616.77,165.17l6.73-.43.02.41-.08.22-.24.11v.12s.33.21.33.21l-.29.17.06.15.27-.04.02.28-.32.04.04.5h-.19s-.2-.19-.2-.19l-.38.02-.12.93-.48.1-.19.59.17,1.3.29.23-.1.5.65.22.36,1.23.02.46-.25.02-.25.26.5.81v.32s.73.68.73.68v.2s1.27,1.24,1.27,1.24l.3,1.07.38.79.5.3.11.45-8.74.55-.12-2.08-.63-9.67-.17-2.08"/><path id="55081" d="m606.21,169.72l-.11-1.36.44-.43.8-.3,1.74-.11,5.28-.21,2.59-.07.63,9.67-9.9.7-.25-4.68-.22-3.29-.99.06"/><path id="55063" d="m603.12,169.78l.02.15,3.07-.19.99-.06.22,3.29.25,4.68-5.93.3-.4-2.78-2.4-3.05,1.34.03-.05-.34-.23-.36.12-.51.4-.64.4.07.28-.31.35.42h.38s.42-.81.42-.81l.77.14"/><path id="55123" d="m617.57,176.92l.12,2.08.14,2-5.99.37.22,3-8.94.47-.29-1.78-1.1-5.15,5.93-.3,9.9-.7"/><path id="55111" d="m617.69,179l8.74-.55.24.9.86.1-.23.4.1.34,1.99-.09.11.1.39,4.06-.3.27-.4.2-.18.06-.24-.03-.15.05-.67,1.1-.04.31.13.18.02.57-.28.38-.37.24-.2.21-.6.07-.4.67-1.22.58-1.65-.05-.51.62-.22.13-.04.47-.43-.33-.75.04-.43-.2-.75.18v-.06s-.38-9.05-.38-9.05l-1.98.15-.14-2"/><path id="55103" d="m617.83,181l1.98-.15.4,9.05v.06s-1.04-.66-1.04-.66l-.46.03-.25-.26h-.82s-.61.15-.61.15l-.69.03-.79.06-.54-.1-.87.02-.54.21-.47.54-.47.09-.22.08-.36-5.79-.22-3,5.99-.37"/><path id="55023" d="m603.13,184.84l8.94-.47.36,5.79-.56.03-.12.43-.53.37-.03.37-1.11.43-.43.58h-.2s-.17.3-.17.3l-.54.06-.6.24h-.3s-.1.34-.1.34l-.61.55-.38.09-.31.45-.42.02-.17.32-.47.02-.1-.16-.59-.02-.32.32-.36-2.19.44-1.7,1.28-2.16.06-.29-.5-.81-.39-.49-1.78-1.26.02-1.18"/><path id="55049" d="m626.21,188.54l.52,8.03.07,1.01-9.88.63-.57-8.95.69-.03.61-.14h.82s.25.25.25.25l.46-.03,1.03.66.75-.18.43.2.75-.04.43.33.04-.47.22-.13.51-.62,1.65.05,1.22-.58"/><path id="55043" d="m612.43,190.16l.22-.08.47-.09.47-.54.54-.21.87-.02.54.1.79-.06.57,8.95.43,7.05-3.61.18.06-.11v-.13s-.19-.58-.19-.58l-1.07-1.95-.12-.12-.19-.09-.84-.2-2.18-.42-.88-.21-.47-.22-1.36-.9-.21-.43-1.53-3.41-.38-1.76.32-.32.59.02.1.16.47-.02.17-.32.42-.02.31-.45.38-.09.61-.55.1-.34h.3s.6-.24.6-.24l.54-.06.17-.29h.2s.43-.59.43-.59l1.11-.43.03-.37.53-.37.12-.43.56-.03"/><path id="55065" d="m616.91,198.21l9.88-.63.47,7.11-1.5.09-8.43.49-.43-7.05"/><path id="55045" d="m626.73,196.57l7.87-.51.02.26.61,7.95-.6.04-7.35.38-.47-7.11-.07-1.01"/><path id="55077" d="m636.09,169.88l.17,2.66-.51.06.13,1.41.12.11h.12s.08-.12.08-.12h.18s.04,1.02.04,1.02l-.61.03-.32-.04-.26.15.16,2.63-5.87.42-.49-7.82,7.08-.51"/><path id="55097" d="m623.88,154.5l5.07-.31,5.05-.19.72,9.96-6.13.37-2.09.1-.19-2.92-.23-3.14-1.93.12-.27-3.99"/><path id="55135" d="m634.01,154l10.11-.79.14,2.02-2.13.17.21,2.81.35,5.17-2.41.2-5.55.39-.72-9.96"/><path id="55137" d="m640.29,163.57l.46,5.96-4.65.35-7.08.51-.41-6.07,6.13-.37,5.55-.39"/><path id="55047" d="m640.74,169.54l.15,2.02.45,6.03-2,.16-1.99.18v-.27s-1.98.15-1.98.15l-.16-2.63.26-.15.32.04.61-.03-.04-1.02h-.18s-.08.12-.08.12h-.12s-.12-.11-.12-.11l-.13-1.41.51-.06-.17-2.66,4.65-.35"/><path id="55021" d="m635.38,177.8l1.96-.15v.27s2.01-.18,2.01-.18l.56,8.02-1.6.17-4.29.34-.02-.3-5.95.43-.13-.18.04-.31.67-1.1.15-.05.24.03.18-.06.4-.2.3-.27-.39-4.06-.11-.1-1.99.09-.1-.34.23-.4-.86-.1-.24-.9,3.07-.24,5.87-.42"/><path id="55025" d="m639.9,185.76l.15,2,.51,8.09-5.95.47-.02-.26-7.87.51-.52-8.03.4-.67.6-.07.2-.21.37-.24.28-.38-.02-.57,5.95-.43.02.3,4.29-.34,1.6-.17"/><path id="55105" d="m644.54,195.65l.63,8.04-2.76.18-7.18.39-.61-7.95,5.95-.47,3.97-.2"/><path id="55059" d="m652.87,200.37l1.98-.17-.11-1.35,3.12-.27,3.31-.26.43,4.07-6.74.46-1.75.18-.24-2.68"/><path id="55101" d="m656.39,194.69l4.06-.34.54.73.73.38-.11,1.97-.44.9-3.31.26-3.12.27.11,1.35-1.98.17-.44-5.33,3.96-.35"/><path id="55127" d="m648.49,195.34l3.94-.3.44,5.33.24,2.68-6.78.56-1.17.08-.63-8.04,3.95-.3"/><path id="55027" d="m641.35,177.58l2-.15,6.04-.42.13,1.51.04.5.3,3.99-.28.02.33,4.03-1.96.12-7.89.56-.15-2-.56-8.02,2-.16"/><path id="55055" d="m640.05,187.76l7.89-.56.55,8.14-3.95.3-3.97.2-.51-8.09"/><path id="55133" d="m655.82,186.65l.57,8.03-3.96.35-3.94.3-.55-8.14,1.96-.12,5.91-.42"/><path id="55079" d="m658.68,186.42l.4.53-.22.61.06.63.33.37.27.7-.56.64.31.99.46.23.41.59-.05,1.03.36,1.6-4.06.34-.57-8.03,2.86-.23"/><path id="55089" d="m655.53,178.56l4.08-.36.11,1.16-.18.75-.27.64-.41.71-.13.28-.11.32-.06.26.06,1.11-.4,1.68.06.33.3.87.08.12-2.86.23-.31-4.03.37-.04-.35-4.03"/><path id="55131" d="m653.53,178.71l2-.15.35,4.03-.37.04.31,4.03-5.91.42-.33-4.03.28-.02-.3-3.99,3.97-.31"/><path id="55139" d="m648.21,162.92l.67,8.08-7.98.55-.15-2.02-.46-5.96,2.41-.2,5.51-.46"/><path id="55039" d="m652.85,170.7l.67,8.01-3.97.31-.04-.5-.13-1.51-6.04.42-2,.15-.45-6.03,7.98-.55-.09-1.05,3.99-.19.08.94"/><path id="55117" d="m659.96,170.06l.76,2.85.12,1.84-.05.19-1.18,3.26-4.08.36-2,.15-.67-8.01,1.98-.17,5.12-.47"/><path id="55015" d="m651.68,162.69l2.46-.18.7,8.03-1.98.17-.08-.94-3.99.19-.58-7.03,3.47-.23"/><path id="55071" d="m658.51,160.14l3.66-.33.77,2.19.05.43-.05.42-.09.31-.29.5-.35.38-.59.35-.31.25-.39.43-.02,1.35-.41.65-.14.71.07.61-.46,1.66-5.12.47-.7-8.03,2.55-.2-.17-2,1-.08.99-.08"/><path id="55009" d="m650.03,152.8h.22s0,.19,0,.19l.57-.03.9-.21,2.44-.14-.19.29-.05.79.28.21-.13.34-.32.63-.21.02v.15s.65.58.65.58l.59.15.44-.02.22-.16.18-.3.22-.5.02-.12-.09-.16.03-.08.51-.6.89-.72.74-.25.57,7.29-.99.08-1,.08.17,2-2.55.2-2.46.18-.08-1.32-.52-6.54-.9.06-.12-1.61h-.19s-.03-.47-.03-.47h.19"/><path id="55087" d="m644.27,155.23l5.91-.34.9-.06.52,6.54.08,1.32-3.47.23-5.51.46-.35-5.17-.21-2.81,2.13-.17"/><path id="55115" d="m637.39,145.63l.15,1.97,3.99-.3.14,1.99,4.03-.29,3.92-.25.15,2.75.26,1.3h-.19s.03.49.03.49h.19s.12,1.6.12,1.6l-5.91.34-.14-2.02-10.11.79-.55-8.1,3.93-.27"/><path id="55078" d="m637.39,145.63l-.16-2.05,5.53-.4,2.55-.19.21,3.56.18,2.45-4.03.29-.14-1.99-3.99.3-.15-1.97"/><path id="55083" d="m645.74,136.98l1.98-.1.3,4.17,1.93-.15.19,1.94,1.1-.08.14,1.97,2.87-.13.02.67,3.02-.21.03.53-.11.02-.72.21-.1.08-.28.47-.12.52.43.45-.03.39-.41.41-.08.48-.37.09-.2.41-.46,1.46-.69.85-.04.78v.4s-2.43.14-2.43.14l-.9.21-.57.03v-.19s-.22,0-.22,0l-.26-1.3-.15-2.75-3.92.25-.18-2.45-.21-3.56-2.55.19-.11-2.01-.68.05-.26-3.99,4.03-.25"/><path id="55041" d="m636.41,121.63l4.08,1.04.21.76.43,5.91,4.03-.3.59,7.94-4.03.25-4.01.3-.11-1.98-1.98.15-.74-9.86-.15-1.99,1.83-.13-.14-2.1"/><path id="55037" d="m640.49,122.67l.33.59,2.81-.3,4.68.59h.04l.4.06.61.3.38.25.25.16.47.68.05.07.02.08-.22.39-.26.36-.11.09-.28.36v.02s-.03.08-.03.08l.1.2h.02l.61.5.14.03.22.06h.02l.22-.03.11,1.55-1.91.04-3.98.23-4.03.3-.43-5.91-.21-.76"/><path id="55075" d="m650.93,127.22l3.8,1.02.3.25.03.02.04.04.48.59.16,4.15-1.58,3.41h2.29s.81-.84.81-.84l.93.82-1.04,3.45h0s0,.02,0,.02l.14.47.07.12,1.27,1.34h.02l.42.07.73.12-.38.81-.13.41.09,1.66-.71.14-1.37.3-.03-.53-3.02.21-.02-.67-2.87.13-.14-1.97-1.1.08-.19-1.94-1.93.15-.3-4.17-1.98.1-.59-7.94,3.98-.22,1.91-.04-.11-1.55"/></svg>