<?xml version="1.0" encoding="UTF-8"?><svg xmlns="http://www.w3.org/2000/svg" viewBox="0 0 989.98 627.07"><path id="56021" d="m364.82,220.07l10.7.97-.18,2.03,10.23.92-.33,3.95-.78,9.03-15.31-1.3-5.73-.55,1.39-15.05"/><path id="56015" d="m387.62,199.85l-1.19,14.05-.6,7-.26,3.08-10.23-.92.18-2.03,1.97-22.03,2.88.25,4.07.31,3.18.28"/><path id="56039" d="m278.08,138.39l6.26.98-.29,1.9,4.73.72-.21.52.65.4.32-.14.45.36-.12.3.27.35-.57,2,.14.34.39.2-.04.48.37.23-.09,1.04.29.21-.05.47.26.12.52.31.17.5-.19.09.13,1.21.2.28-.34,1.04.05.68.95.11-2.23,15.33-.39,1.98-4.73-.72-.3,1.98-3.87-.6-.21,1.29-3.82-.64.15-1.36-1.82-.33.08-.41-1.96-.36,2.31-14.96,1.77-11.17.76-4.72"/><path id="56023" d="m273.24,169.24l1.96.36-.08.41,1.82.33-.15,1.36,3.82.64-.42,2.69-1.34,7.63-.61-.09-.24,1.63.55.07-.91,5.98.81.19-.64,3.84,5.73,1.04,2.43.58-.5,3.33-.38,3.39-1.39,9.15-16.88-2.66,1.54-9.64,1.87-11.68,1.89-11.56,1.13-7.01"/><path id="56041" d="m266.82,209.13l16.88,2.66-1.99,13.28-7.73-1.11-9.3-1.54.93-5.8,1.2-7.5"/><path id="56035" d="m290.1,168.42l4.92.8-.34,2.22.29.08.23-.13.37.03.1.14-.02.44-.09.41.21.59-.25.61.06.39-.06.19.1.34-.13.36-.05.35.22.9.36.39.02.53.56.89h.17s.29,1.02.29,1.02l-.33.11.11.29-.05.59.57.12.54.6.32.25.03.31.3.14.54.57.06.2.38-.09.56,1.32-.08.46.22.39.27.09.52.98.6.36.16.19-.55.17-.13.39.27.14.33-.08.78.8.22.51.13.56.91.15-.81,5.98.47.09-.54,3.94-7.67-1.07-4.19-.66-5.06-.86-2.43-.58-5.73-1.04.64-3.84-.81-.19.91-5.98-.55-.07.24-1.63.61.09,1.34-7.63.42-2.69.21-1.29,3.87.6.3-1.98,4.73.72.39-1.98"/><path id="56029" d="m299.36,134.17l8.54,1.16,2.99.55.33.05,2.13.29,4.99.66-.39,3,.45.08-1.06,7.76.29.06-1.05,8.19.38.05-.33,1.95-3.95-.6-.21,2.06-2.06-.26-.2,1.98-2.94-.29-.14,1.91-3.1-.36-.62-.08-.15-.5-.31-.38-.41-.1.02-.66-.5-.53.02-.29-.43-.32-.03-.32-.32-.12v-.25s-.18-.21-.18-.21l-.46.15-.1.23-.28-.16-.28-.46-.23.05-.24.22-.21.09-.18-.29-.12-.03-.17.5-.64.16-.1.16-.04.45-.35.41-.03.45.09.19-.23.12-.77-.08-.59.11-.23.35-.66.06-.69-.8-.04-.35h.25s.36-.27.36-.27l-.09-.39.2-.34-.23-.03-.26-.31.06-.47-.18-.07v-.21s.33-.29.33-.29v-.23s-.36.12-.36.12l-.3.08-.54-.11-.43-.33-.72.12-.22-.12v-.36s-.23-.82-.23-.82l-.32-.08.43-2.98-.95-.11-.05-.68.34-1.04-.2-.28-.13-1.21.19-.09-.17-.5-.52-.31-.26-.12.05-.47-.29-.21.09-1.04-.37-.23.04-.48-.39-.2-.14-.34.57-2-.27-.35.12-.3-.45-.36-.32.14-.65-.4.21-.52-4.73-.72.29-1.9-6.26-.98,1.23-7.26,2.71.42,2,.41.71.24,2.42.38h.04l5.34.72,1.82.09,1.35.21,3.66.57"/><path id="56037" d="m285.97,195.91l5.06.86,4.19.66,7.67,1.07,25.56,3.37-.57,3.93.4.1-1,7.98-.3,1.9-7.12-.93-.78,5.95.24.06-1.17,9.1-5.69-.68-13.67-1.84-2.69-.39-8.02-1.07-.67-.1-2.39-.34-2.47-.35h-.02l-.81-.12,1.99-13.28,1.39-9.15.38-3.39.5-3.33"/><path id="56013" d="m330.57,173.26l1.04.16-.07.62.38.07-.46,3.96-.57,3.92.29.06-1.01,7.96-.72-.09-.91,7.95.38.04-.48,3.96-25.56-3.37.54-3.94-.47-.09.81-5.98-.91-.15-.13-.56-.22-.51-.78-.8-.33.08-.27-.14.13-.39.55-.17-.16-.19-.6-.36-.52-.98-.27-.09-.22-.39.08-.46-.56-1.32-.38.09-.06-.2-.54-.57-.3-.14-.03-.31-.32-.25-.54-.6-.57-.12.05-.59-.11-.29.33-.11-.29-1.02h-.17s-.56-.89-.56-.89l-.02-.53-.36-.39-.22-.9.05-.35.13-.36-.1-.34.06-.19-.06-.39.25-.61-.21-.59.09-.41.02-.44-.1-.14-.37-.03-.23.13-.29-.08.34-2.22-4.92-.8,1.8-12.36.32.08.22.82v.36s.22.12.22.12l.72-.12.43.33.54.11.3-.08.35-.12v.23s-.31.29-.31.29v.21s.17.07.17.07l-.06.47.26.31.23.03-.2.34.09.39-.36.28h-.25s.04.34.04.34l.69.8.66-.06.23-.35.59-.11.77.08.23-.12-.09-.19.03-.45.35-.41.04-.45.1-.16.64-.16.17-.5.12.03.18.29.21-.09.24-.22.23-.05.28.46.28.16.1-.23.46-.15.17.21v.25s.33.12.33.12l.03.32.43.32-.02.29.5.53-.02.66.41.1.31.38.15.5.05.12.28.12.03.08.17.07-.02.37.35.21-.04.27.32.04.28.96.21.43.3.31-.26,1.72,2.02.32,1.84.28v.45s1.88.25,1.88.25l-.03.59,1.94.3-.11.97,1.91.24-.08.76,1.96.25-.07.66,1.91.27-.04.29,3.01.41.04-.27,9.22,1.14.09-.67"/><path id="56017" d="m316.62,157.97l.93.12-.23,1.98.98.19-.23,1.95,1.97.29-.2,1.37,1.96.27-.05.6,3.84.58-.21,1.98,3.87.49-.2,1.93,1.93.22-.4,3.32-.09.67-9.22-1.14-.04.27-3.01-.41.04-.29-1.91-.27.07-.66-1.96-.25.08-.76-1.91-.24.11-.97-1.94-.3.03-.59-1.89-.25v-.45s-1.83-.28-1.83-.28l-2.02-.32.26-1.72-.3-.31-.21-.43-.28-.96-.32-.04.04-.27-.35-.21.02-.37-.17-.07-.03-.08-.28-.12-.05-.12.62.08,3.1.36.14-1.91,2.94.29.2-1.98,2.06.26.21-2.06,3.95.6"/><path id="56043" d="m316.62,157.97l.33-1.95,19.21,2.44,3.58.47.3.03-.83,8.01.21.02-.73,5.95.09.03-.15,1.31-7.03-.87-1.04-.16.4-3.32-1.93-.22.2-1.93-3.87-.49.21-1.98-3.84-.58.05-.6-1.96-.27.2-1.37-1.97-.29.23-1.95-.98-.19.23-1.98-.93-.12"/><path id="56003" d="m318.34,136.87l6,.81,5.76.71.05.79-.15.65.43.51-.07.27-.25.63.28.38.21.55-.06.23.2.11v.39s-.27.03-.27.03l.02.3.64.46.41.03.2.79-.2.41.09.24.18-.08.72.38-.07.26.23.32.26-.12.09-.14.56.05.12-.06.15.14.18.05.39.43.35.34-.15.57.35.17.31-.03.04.55.77.26.22-.12.06.23.62.25.16.78-.05.27.13.18.45.02.13.27-.1.25.49.54-.1.31-.12.08.06.17-.08.36.39.08v.18s.29.09.29.09l.03.17.3.09.31-.1.02-.19.26.13-.12.25.09.47-.1.34.22.12.13-.1.15.21-.15.38.2.08.02.16-.17.15-.23.03-.05.26.15.04v.23s.26.09.26.09v.19s.2.07.2.07l-.46,3.62-3.58-.47-19.21-2.44-.38-.05,1.05-8.19-.29-.06,1.06-7.76-.45-.08.39-3"/><path id="56033" d="m356.44,141.64l3.66.4-.23,2.68.15.08-.83,7.04-2.44-.21-4.07-.38v.1s-15.47-1.94-15.47-1.94l-.16-.78-.62-.25-.06-.23-.22.12-.77-.26-.04-.55-.31.03-.35-.17.15-.57-.35-.34-.39-.43-.18-.05-.15-.14-.12.06-.56-.05-.09.14-.26.12-.23-.32.07-.26-.72-.38-.18.08-.09-.24.2-.41-.2-.79-.41-.03-.64-.46-.02-.3.26-.03v-.39s-.19-.11-.19-.11l.06-.23-.21-.55-.28-.38.25-.63.07-.27-.43-.51.15-.65-.05-.79,4.6.56,7.66.94.86.18,3.1.38,10.11,1.18"/><path id="56019" d="m339.75,158.93l.46-3.62-.21-.07v-.19s-.24-.09-.24-.09v-.23s-.16-.04-.16-.04l.05-.26.23-.03.17-.15-.02-.16-.2-.08.15-.38-.15-.21-.13.1-.22-.12.1-.34-.09-.47.12-.25-.26-.13-.02.19-.31.1-.3-.09-.03-.17-.29-.09v-.18s-.39-.08-.39-.08l.08-.36-.06-.17.12-.08.1-.31-.49-.54.1-.25-.13-.27-.45-.02-.13-.18.05-.27,15.46,1.94v-.1s4.08.38,4.08.38l2.44.21-.09.98h-.18s-.82,8.08-.82,8.08l.19.03-.74,7.99h-.25s-.77,7.48-.77,7.48l-.74-.07-8.44-.85-8.74-1,.02-.18.15-1.31-.09-.03.73-5.95-.21-.02.83-8.01-.3-.03"/><path id="56025" d="m331.61,173.42l7.03.87-.02.18,8.74,1,8.44.85-.03.95-.59,4.68-1.12,10.93-.17-.02-.77,7.91-9.61-1.08-5.05-.62-9.52-1.16-.38-.04.91-7.95.72.09,1.01-7.96-.29-.06.57-3.92.46-3.96-.38-.07.07-.62"/><path id="56007" d="m328.92,197.9l9.52,1.16,5.05.62,9.61,1.08h.04l-1.38,14.21-.78,7.63-.17,2-2.39-.23-1.95-.25-.69,6.26-.27,2.86-9.18-1.12-7.89-.93-10.29-1.24,1.17-9.1-.24-.06.78-5.95,7.12.93.3-1.9,1-7.98-.4-.1.57-3.93.48-3.96"/><path id="56001" d="m353.14,200.76l8.69,1-.07.56-.31-.06-.1.68-.62-.05-.19,1.63.33.05v.36s3.57.29,3.57.29l.09-.71.27.04.12-1.24.31.03.1-.67h.28s.06-.52.06-.52h.74s-.73,7.91-.73,7.91l.14.05-.25,3.19-.5,4.82h-.12s-.14,1.95-.14,1.95l-1.39,15.05-15.69-1.61-2.23-.26.27-2.86.69-6.26,1.95.25,2.39.23.17-2,.78-7.63,1.38-14.21"/><path id="56045" d="m384.98,163.25l5.68.51-.08.9-.57,6.61-.68,8.06-14.31-1.18-2.98-.26.72-7.56h-.13s.4-4.07.4-4.07h.11s.37-4.05.37-4.05l11.46,1.02Z"/><path id="56011" d="m375.16,143.4l1.15.11,15.9,1.5-1.54,18.76-5.68-.52-11.48-1.02,1.1-13.93.23-.03.21-2.21-.2-.08.32-2.57"/><path id="56005" d="m360.1,142.04l3.09.16,11.97,1.2-.32,2.57.2.08-.21,2.21-.23.03-1.1,13.93-.36,4.06h-.11s-.4,4.05-.4,4.05h.13s-.72,7.57-.72,7.57l-15.52-1.52.77-7.48h.25s.74-7.99.74-7.99l-.19-.03.82-8.09.18.02.09-.98.83-7.04-.15-.08.23-2.68"/><path id="56009" d="m356.53,176.4l15.52,1.51,2.98.26-.28,3.33-1,10.58-.16,2.58-.36,4.01-3.11-.31-3.22-.25-.48,4.03h-.74s-.06.53-.06.53h-.28s-.1.67-.1.67l-.31-.03-.12,1.24-.27-.04-.09.71-3.59-.29v-.36s-.31-.05-.31-.05l.19-1.63.62.05.1-.68.31.06.07-.56-8.69-1h-.04l.77-7.91.17.02,1.12-10.93.59-4.68.03-.95.74.07"/><path id="56027" d="m389.34,179.33l-.96,11.56-.76,8.96-3.18-.28-4.07-.31-2.88-.25-4.26-.35.36-4.01.16-2.58,1-10.58.28-3.33,14.31,1.18"/><path id="56031" d="m373.23,198.66l4.26.35-1.97,22.03-10.7-.97.14-1.96h.12s.5-4.82.5-4.82l.25-3.19-.14-.05.73-7.93.48-4.03,3.22.25,3.11.31"/></svg>